<?xml version="1.0" encoding="utf-8" standalone="no"?>
<!DOCTYPE svg PUBLIC "-//W3C//DTD SVG 1.1//EN"
  "http://www.w3.org/Graphics/SVG/1.1/DTD/svg11.dtd">
<svg height="189.772813pt" version="1.1" viewBox="0 0 443.04875 189.772813" width="443.04875pt" xmlns="http://www.w3.org/2000/svg" xmlns:xlink="http://www.w3.org/1999/xlink">
 <metadata>
  <rdf:RDF xmlns:cc="http://creativecommons.org/ns#" xmlns:dc="http://purl.org/dc/elements/1.1/" xmlns:rdf="http://www.w3.org/1999/02/22-rdf-syntax-ns#">
   <cc:Work>
    <dc:type rdf:resource="http://purl.org/dc/dcmitype/StillImage"/>
    <dc:date>2022-04-18T10:23:07.840708</dc:date>
    <dc:format>image/svg+xml</dc:format>
    <dc:creator>
     <cc:Agent>
      <dc:title>Matplotlib v3.4.2, https://matplotlib.org/</dc:title>
     </cc:Agent>
    </dc:creator>
   </cc:Work>
  </rdf:RDF>
 </metadata>
 <defs>
  <style type="text/css">*{stroke-linecap:butt;stroke-linejoin:round;}</style>
 </defs>
 <g id="figure_1">
  <g id="patch_1">
   <path d="M 0 189.772813 
L 443.04875 189.772813 
L 443.04875 0 
L 0 0 
z
" style="fill:#ffffff;"/>
  </g>
  <g id="axes_1">
   <g id="patch_2">
    <path d="M 63.34875 123.918664 
L 157.413266 123.918664 
L 157.413266 29.854148 
L 63.34875 29.854148 
z
" style="fill:#ffffff;"/>
   </g>
   <g id="matplotlib.axis_1">
    <g id="xtick_1">
     <g id="line2d_1">
      <path clip-path="url(#p4cf96c56cc)" d="M 64.655202 123.918664 
L 64.655202 29.854148 
" style="fill:none;stroke:#cccccc;stroke-linecap:round;"/>
     </g>
     <g id="text_1">
      <!-- 0 -->
      <g style="fill:#262626;" transform="translate(61.596686 135.292258)scale(0.11 -0.11)">
       <defs>
        <path d="M 266 2259 
Q 266 3072 433 3567 
Q 600 4063 929 4331 
Q 1259 4600 1759 4600 
Q 2128 4600 2406 4451 
Q 2684 4303 2865 4023 
Q 3047 3744 3150 3342 
Q 3253 2941 3253 2259 
Q 3253 1453 3087 958 
Q 2922 463 2592 192 
Q 2263 -78 1759 -78 
Q 1097 -78 719 397 
Q 266 969 266 2259 
z
M 844 2259 
Q 844 1131 1108 757 
Q 1372 384 1759 384 
Q 2147 384 2411 759 
Q 2675 1134 2675 2259 
Q 2675 3391 2411 3762 
Q 2147 4134 1753 4134 
Q 1366 4134 1134 3806 
Q 844 3388 844 2259 
z
" id="ArialMT-30" transform="scale(0.015625)"/>
       </defs>
       <use xlink:href="#ArialMT-30"/>
      </g>
     </g>
    </g>
    <g id="xtick_2">
     <g id="line2d_2">
      <path clip-path="url(#p4cf96c56cc)" d="M 124.039366 123.918664 
L 124.039366 29.854148 
" style="fill:none;stroke:#cccccc;stroke-linecap:round;"/>
     </g>
     <g id="text_2">
      <!-- 200 -->
      <g style="fill:#262626;" transform="translate(114.863819 135.292258)scale(0.11 -0.11)">
       <defs>
        <path d="M 3222 541 
L 3222 0 
L 194 0 
Q 188 203 259 391 
Q 375 700 629 1000 
Q 884 1300 1366 1694 
Q 2113 2306 2375 2664 
Q 2638 3022 2638 3341 
Q 2638 3675 2398 3904 
Q 2159 4134 1775 4134 
Q 1369 4134 1125 3890 
Q 881 3647 878 3216 
L 300 3275 
Q 359 3922 746 4261 
Q 1134 4600 1788 4600 
Q 2447 4600 2831 4234 
Q 3216 3869 3216 3328 
Q 3216 3053 3103 2787 
Q 2991 2522 2730 2228 
Q 2469 1934 1863 1422 
Q 1356 997 1212 845 
Q 1069 694 975 541 
L 3222 541 
z
" id="ArialMT-32" transform="scale(0.015625)"/>
       </defs>
       <use xlink:href="#ArialMT-32"/>
       <use x="55.615234" xlink:href="#ArialMT-30"/>
       <use x="111.230469" xlink:href="#ArialMT-30"/>
      </g>
     </g>
    </g>
    <g id="text_3">
     <!-- Years -->
     <g style="fill:#262626;" transform="translate(91.473977 152.215227)scale(0.15 -0.15)">
      <defs>
       <path d="M 1784 0 
L 1784 1941 
L 19 4581 
L 756 4581 
L 1659 3200 
Q 1909 2813 2125 2425 
Q 2331 2784 2625 3234 
L 3513 4581 
L 4219 4581 
L 2391 1941 
L 2391 0 
L 1784 0 
z
" id="ArialMT-59" transform="scale(0.015625)"/>
       <path d="M 2694 1069 
L 3275 997 
Q 3138 488 2766 206 
Q 2394 -75 1816 -75 
Q 1088 -75 661 373 
Q 234 822 234 1631 
Q 234 2469 665 2931 
Q 1097 3394 1784 3394 
Q 2450 3394 2872 2941 
Q 3294 2488 3294 1666 
Q 3294 1616 3291 1516 
L 816 1516 
Q 847 969 1125 678 
Q 1403 388 1819 388 
Q 2128 388 2347 550 
Q 2566 713 2694 1069 
z
M 847 1978 
L 2700 1978 
Q 2663 2397 2488 2606 
Q 2219 2931 1791 2931 
Q 1403 2931 1139 2672 
Q 875 2413 847 1978 
z
" id="ArialMT-65" transform="scale(0.015625)"/>
       <path d="M 2588 409 
Q 2275 144 1986 34 
Q 1697 -75 1366 -75 
Q 819 -75 525 192 
Q 231 459 231 875 
Q 231 1119 342 1320 
Q 453 1522 633 1644 
Q 813 1766 1038 1828 
Q 1203 1872 1538 1913 
Q 2219 1994 2541 2106 
Q 2544 2222 2544 2253 
Q 2544 2597 2384 2738 
Q 2169 2928 1744 2928 
Q 1347 2928 1158 2789 
Q 969 2650 878 2297 
L 328 2372 
Q 403 2725 575 2942 
Q 747 3159 1072 3276 
Q 1397 3394 1825 3394 
Q 2250 3394 2515 3294 
Q 2781 3194 2906 3042 
Q 3031 2891 3081 2659 
Q 3109 2516 3109 2141 
L 3109 1391 
Q 3109 606 3145 398 
Q 3181 191 3288 0 
L 2700 0 
Q 2613 175 2588 409 
z
M 2541 1666 
Q 2234 1541 1622 1453 
Q 1275 1403 1131 1340 
Q 988 1278 909 1158 
Q 831 1038 831 891 
Q 831 666 1001 516 
Q 1172 366 1500 366 
Q 1825 366 2078 508 
Q 2331 650 2450 897 
Q 2541 1088 2541 1459 
L 2541 1666 
z
" id="ArialMT-61" transform="scale(0.015625)"/>
       <path d="M 416 0 
L 416 3319 
L 922 3319 
L 922 2816 
Q 1116 3169 1280 3281 
Q 1444 3394 1641 3394 
Q 1925 3394 2219 3213 
L 2025 2691 
Q 1819 2813 1613 2813 
Q 1428 2813 1281 2702 
Q 1134 2591 1072 2394 
Q 978 2094 978 1738 
L 978 0 
L 416 0 
z
" id="ArialMT-72" transform="scale(0.015625)"/>
       <path d="M 197 991 
L 753 1078 
Q 800 744 1014 566 
Q 1228 388 1613 388 
Q 2000 388 2187 545 
Q 2375 703 2375 916 
Q 2375 1106 2209 1216 
Q 2094 1291 1634 1406 
Q 1016 1563 777 1677 
Q 538 1791 414 1992 
Q 291 2194 291 2438 
Q 291 2659 392 2848 
Q 494 3038 669 3163 
Q 800 3259 1026 3326 
Q 1253 3394 1513 3394 
Q 1903 3394 2198 3281 
Q 2494 3169 2634 2976 
Q 2775 2784 2828 2463 
L 2278 2388 
Q 2241 2644 2061 2787 
Q 1881 2931 1553 2931 
Q 1166 2931 1000 2803 
Q 834 2675 834 2503 
Q 834 2394 903 2306 
Q 972 2216 1119 2156 
Q 1203 2125 1616 2013 
Q 2213 1853 2448 1751 
Q 2684 1650 2818 1456 
Q 2953 1263 2953 975 
Q 2953 694 2789 445 
Q 2625 197 2315 61 
Q 2006 -75 1616 -75 
Q 969 -75 630 194 
Q 291 463 197 991 
z
" id="ArialMT-73" transform="scale(0.015625)"/>
      </defs>
      <use xlink:href="#ArialMT-59"/>
      <use x="57.574219" xlink:href="#ArialMT-65"/>
      <use x="113.189453" xlink:href="#ArialMT-61"/>
      <use x="168.804688" xlink:href="#ArialMT-72"/>
      <use x="202.105469" xlink:href="#ArialMT-73"/>
     </g>
    </g>
   </g>
   <g id="matplotlib.axis_2">
    <g id="ytick_1">
     <g id="line2d_3">
      <path clip-path="url(#p4cf96c56cc)" d="M 63.34875 120.209154 
L 157.413266 120.209154 
" style="fill:none;stroke:#cccccc;stroke-linecap:round;"/>
     </g>
     <g id="text_4">
      <!-- −0.002 -->
      <g style="fill:#262626;" transform="translate(25.9 124.145951)scale(0.11 -0.11)">
       <defs>
        <path d="M 3381 1997 
L 356 1997 
L 356 2522 
L 3381 2522 
L 3381 1997 
z
" id="ArialMT-2212" transform="scale(0.015625)"/>
        <path d="M 581 0 
L 581 641 
L 1222 641 
L 1222 0 
L 581 0 
z
" id="ArialMT-2e" transform="scale(0.015625)"/>
       </defs>
       <use xlink:href="#ArialMT-2212"/>
       <use x="58.398438" xlink:href="#ArialMT-30"/>
       <use x="114.013672" xlink:href="#ArialMT-2e"/>
       <use x="141.796875" xlink:href="#ArialMT-30"/>
       <use x="197.412109" xlink:href="#ArialMT-30"/>
       <use x="253.027344" xlink:href="#ArialMT-32"/>
      </g>
     </g>
    </g>
    <g id="ytick_2">
     <g id="line2d_4">
      <path clip-path="url(#p4cf96c56cc)" d="M 63.34875 78.799032 
L 157.413266 78.799032 
" style="fill:none;stroke:#cccccc;stroke-linecap:round;"/>
     </g>
     <g id="text_5">
      <!-- 0.000 -->
      <g style="fill:#262626;" transform="translate(32.324688 82.735829)scale(0.11 -0.11)">
       <use xlink:href="#ArialMT-30"/>
       <use x="55.615234" xlink:href="#ArialMT-2e"/>
       <use x="83.398438" xlink:href="#ArialMT-30"/>
       <use x="139.013672" xlink:href="#ArialMT-30"/>
       <use x="194.628906" xlink:href="#ArialMT-30"/>
      </g>
     </g>
    </g>
    <g id="ytick_3">
     <g id="line2d_5">
      <path clip-path="url(#p4cf96c56cc)" d="M 63.34875 37.38891 
L 157.413266 37.38891 
" style="fill:none;stroke:#cccccc;stroke-linecap:round;"/>
     </g>
     <g id="text_6">
      <!-- 0.002 -->
      <g style="fill:#262626;" transform="translate(32.324688 41.325707)scale(0.11 -0.11)">
       <use xlink:href="#ArialMT-30"/>
       <use x="55.615234" xlink:href="#ArialMT-2e"/>
       <use x="83.398438" xlink:href="#ArialMT-30"/>
       <use x="139.013672" xlink:href="#ArialMT-30"/>
       <use x="194.628906" xlink:href="#ArialMT-32"/>
      </g>
     </g>
    </g>
    <g id="text_7">
     <!-- Sensitivity of $\lambda$ -->
     <g style="fill:#262626;" transform="translate(18.6 125.561406)rotate(-90)scale(0.15 -0.15)">
      <defs>
       <path d="M 288 1472 
L 859 1522 
Q 900 1178 1048 958 
Q 1197 738 1509 602 
Q 1822 466 2213 466 
Q 2559 466 2825 569 
Q 3091 672 3220 851 
Q 3350 1031 3350 1244 
Q 3350 1459 3225 1620 
Q 3100 1781 2813 1891 
Q 2628 1963 1997 2114 
Q 1366 2266 1113 2400 
Q 784 2572 623 2826 
Q 463 3081 463 3397 
Q 463 3744 659 4045 
Q 856 4347 1234 4503 
Q 1613 4659 2075 4659 
Q 2584 4659 2973 4495 
Q 3363 4331 3572 4012 
Q 3781 3694 3797 3291 
L 3216 3247 
Q 3169 3681 2898 3903 
Q 2628 4125 2100 4125 
Q 1550 4125 1298 3923 
Q 1047 3722 1047 3438 
Q 1047 3191 1225 3031 
Q 1400 2872 2139 2705 
Q 2878 2538 3153 2413 
Q 3553 2228 3743 1945 
Q 3934 1663 3934 1294 
Q 3934 928 3725 604 
Q 3516 281 3123 101 
Q 2731 -78 2241 -78 
Q 1619 -78 1198 103 
Q 778 284 539 648 
Q 300 1013 288 1472 
z
" id="ArialMT-53" transform="scale(0.015625)"/>
       <path d="M 422 0 
L 422 3319 
L 928 3319 
L 928 2847 
Q 1294 3394 1984 3394 
Q 2284 3394 2536 3286 
Q 2788 3178 2913 3003 
Q 3038 2828 3088 2588 
Q 3119 2431 3119 2041 
L 3119 0 
L 2556 0 
L 2556 2019 
Q 2556 2363 2490 2533 
Q 2425 2703 2258 2804 
Q 2091 2906 1866 2906 
Q 1506 2906 1245 2678 
Q 984 2450 984 1813 
L 984 0 
L 422 0 
z
" id="ArialMT-6e" transform="scale(0.015625)"/>
       <path d="M 425 3934 
L 425 4581 
L 988 4581 
L 988 3934 
L 425 3934 
z
M 425 0 
L 425 3319 
L 988 3319 
L 988 0 
L 425 0 
z
" id="ArialMT-69" transform="scale(0.015625)"/>
       <path d="M 1650 503 
L 1731 6 
Q 1494 -44 1306 -44 
Q 1000 -44 831 53 
Q 663 150 594 308 
Q 525 466 525 972 
L 525 2881 
L 113 2881 
L 113 3319 
L 525 3319 
L 525 4141 
L 1084 4478 
L 1084 3319 
L 1650 3319 
L 1650 2881 
L 1084 2881 
L 1084 941 
Q 1084 700 1114 631 
Q 1144 563 1211 522 
Q 1278 481 1403 481 
Q 1497 481 1650 503 
z
" id="ArialMT-74" transform="scale(0.015625)"/>
       <path d="M 1344 0 
L 81 3319 
L 675 3319 
L 1388 1331 
Q 1503 1009 1600 663 
Q 1675 925 1809 1294 
L 2547 3319 
L 3125 3319 
L 1869 0 
L 1344 0 
z
" id="ArialMT-76" transform="scale(0.015625)"/>
       <path d="M 397 -1278 
L 334 -750 
Q 519 -800 656 -800 
Q 844 -800 956 -737 
Q 1069 -675 1141 -563 
Q 1194 -478 1313 -144 
Q 1328 -97 1363 -6 
L 103 3319 
L 709 3319 
L 1400 1397 
Q 1534 1031 1641 628 
Q 1738 1016 1872 1384 
L 2581 3319 
L 3144 3319 
L 1881 -56 
Q 1678 -603 1566 -809 
Q 1416 -1088 1222 -1217 
Q 1028 -1347 759 -1347 
Q 597 -1347 397 -1278 
z
" id="ArialMT-79" transform="scale(0.015625)"/>
       <path id="ArialMT-20" transform="scale(0.015625)"/>
       <path d="M 213 1659 
Q 213 2581 725 3025 
Q 1153 3394 1769 3394 
Q 2453 3394 2887 2945 
Q 3322 2497 3322 1706 
Q 3322 1066 3130 698 
Q 2938 331 2570 128 
Q 2203 -75 1769 -75 
Q 1072 -75 642 372 
Q 213 819 213 1659 
z
M 791 1659 
Q 791 1022 1069 705 
Q 1347 388 1769 388 
Q 2188 388 2466 706 
Q 2744 1025 2744 1678 
Q 2744 2294 2464 2611 
Q 2184 2928 1769 2928 
Q 1347 2928 1069 2612 
Q 791 2297 791 1659 
z
" id="ArialMT-6f" transform="scale(0.015625)"/>
       <path d="M 556 0 
L 556 2881 
L 59 2881 
L 59 3319 
L 556 3319 
L 556 3672 
Q 556 4006 616 4169 
Q 697 4388 901 4523 
Q 1106 4659 1475 4659 
Q 1713 4659 2000 4603 
L 1916 4113 
Q 1741 4144 1584 4144 
Q 1328 4144 1222 4034 
Q 1116 3925 1116 3625 
L 1116 3319 
L 1763 3319 
L 1763 2881 
L 1116 2881 
L 1116 0 
L 556 0 
z
" id="ArialMT-66" transform="scale(0.015625)"/>
       <path d="M 2350 4316 
L 3125 0 
L 2516 0 
L 2038 2588 
L 328 0 
L -281 0 
L 1903 3356 
L 1794 3975 
Q 1725 4369 1391 4369 
L 1091 4369 
L 1184 4863 
L 1550 4856 
Q 2253 4847 2350 4316 
z
" id="DejaVuSans-Oblique-3bb" transform="scale(0.015625)"/>
      </defs>
      <use transform="translate(0 0.015625)" xlink:href="#ArialMT-53"/>
      <use transform="translate(66.699219 0.015625)" xlink:href="#ArialMT-65"/>
      <use transform="translate(122.314453 0.015625)" xlink:href="#ArialMT-6e"/>
      <use transform="translate(177.929688 0.015625)" xlink:href="#ArialMT-73"/>
      <use transform="translate(227.929688 0.015625)" xlink:href="#ArialMT-69"/>
      <use transform="translate(250.146484 0.015625)" xlink:href="#ArialMT-74"/>
      <use transform="translate(277.929688 0.015625)" xlink:href="#ArialMT-69"/>
      <use transform="translate(300.146484 0.015625)" xlink:href="#ArialMT-76"/>
      <use transform="translate(350.146484 0.015625)" xlink:href="#ArialMT-69"/>
      <use transform="translate(372.363281 0.015625)" xlink:href="#ArialMT-74"/>
      <use transform="translate(400.146484 0.015625)" xlink:href="#ArialMT-79"/>
      <use transform="translate(450.146484 0.015625)" xlink:href="#ArialMT-20"/>
      <use transform="translate(477.929688 0.015625)" xlink:href="#ArialMT-6f"/>
      <use transform="translate(533.544922 0.015625)" xlink:href="#ArialMT-66"/>
      <use transform="translate(561.328125 0.015625)" xlink:href="#ArialMT-20"/>
      <use transform="translate(589.111328 0.015625)" xlink:href="#DejaVuSans-Oblique-3bb"/>
     </g>
    </g>
   </g>
   <g id="line2d_6">
    <path clip-path="url(#p4cf96c56cc)" d="M 67.62441 53.498178 
L 67.921331 49.01548 
L 68.218251 51.924333 
L 68.515172 57.076106 
L 68.812093 60.24322 
L 69.109014 60.562466 
L 69.702856 58.416231 
L 69.999776 58.244197 
L 70.890539 59.724991 
L 71.48438 59.933695 
L 72.078222 60.103553 
L 73.562826 60.749546 
L 75.938193 61.389775 
L 78.61048 61.826558 
L 81.876609 62.10753 
L 86.330422 62.240939 
L 93.456521 62.19272 
L 113.647137 61.964322 
L 123.742445 62.125802 
L 133.540832 62.507727 
L 143.63614 63.127213 
L 153.137606 63.902508 
L 153.137606 63.902508 
" style="fill:none;stroke:#482475;stroke-linecap:round;stroke-width:1.5;"/>
   </g>
   <g id="line2d_7">
    <path clip-path="url(#p4cf96c56cc)" d="M 67.62441 38.70265 
L 68.218251 46.746005 
L 68.515172 47.64133 
L 68.812093 47.357987 
L 69.109014 47.296392 
L 69.405935 47.817492 
L 70.296697 49.957584 
L 72.375143 53.328396 
L 73.562826 54.828118 
L 74.75051 55.969447 
L 75.938193 56.754039 
L 77.125876 57.202619 
L 78.313559 57.352601 
L 79.501243 57.256306 
L 80.985847 56.88949 
L 85.142738 55.652071 
L 86.330422 55.590703 
L 87.518105 55.793174 
L 88.408867 56.152312 
L 89.29963 56.709567 
L 90.190392 57.477499 
L 91.378076 58.839922 
L 92.565759 60.587424 
L 93.753442 62.700078 
L 95.238046 65.794444 
L 97.019571 70.022188 
L 103.551829 86.123695 
L 105.036433 88.99666 
L 106.521037 91.340015 
L 107.708721 92.803513 
L 108.896404 93.897192 
L 110.084087 94.63296 
L 111.271771 95.035027 
L 112.459454 95.136841 
L 113.647137 94.977882 
L 114.83482 94.600618 
L 116.319424 93.887133 
L 118.100949 92.779931 
L 121.070158 90.625285 
L 125.820891 87.185739 
L 128.493178 85.515836 
L 131.165466 84.100256 
L 133.837753 82.936145 
L 136.51004 81.999564 
L 139.479249 81.186281 
L 142.745378 80.515258 
L 146.605348 79.951988 
L 151.356081 79.499503 
L 153.137606 79.378955 
L 153.137606 79.378955 
" style="fill:none;stroke:#355f8d;stroke-linecap:round;stroke-width:1.5;"/>
   </g>
   <g id="line2d_8">
    <path clip-path="url(#p4cf96c56cc)" d="M 67.62441 39.860472 
L 67.921331 41.500941 
L 68.515172 42.981977 
L 71.48438 54.001391 
L 72.375143 56.180652 
L 72.968985 57.138663 
L 73.562826 57.669966 
L 74.156668 57.780481 
L 74.75051 57.506392 
L 75.344351 56.913088 
L 76.235114 55.629992 
L 77.719718 53.438259 
L 78.313559 52.919387 
L 78.907401 52.787253 
L 79.204322 52.898209 
L 79.798163 53.52535 
L 80.392005 54.740598 
L 80.985847 56.573959 
L 81.579688 59.022431 
L 82.470451 63.76022 
L 83.658134 71.632975 
L 86.627342 92.676347 
L 87.518105 97.473665 
L 88.408867 100.985806 
L 89.002709 102.559625 
L 89.596551 103.528219 
L 90.190392 103.930132 
L 90.487313 103.93657 
L 91.081155 103.604888 
L 91.674996 102.879806 
L 92.565759 101.233856 
L 93.753442 98.403037 
L 97.019571 90.276863 
L 98.504175 87.34513 
L 99.691859 85.450661 
L 100.879542 83.925743 
L 102.067225 82.720623 
L 103.254908 81.781116 
L 104.739512 80.903019 
L 106.224117 80.275276 
L 108.005641 79.758569 
L 110.381008 79.335405 
L 113.350216 79.056051 
L 117.804029 78.88317 
L 126.711653 78.807756 
L 153.137606 78.799041 
L 153.137606 78.799041 
" style="fill:none;stroke:#21918c;stroke-linecap:round;stroke-width:1.5;"/>
   </g>
   <g id="line2d_9">
    <path clip-path="url(#p4cf96c56cc)" d="M 67.62441 39.879395 
L 68.218251 42.826341 
L 70.593618 56.683649 
L 71.18746 58.820201 
L 71.48438 59.488818 
L 71.781301 59.867114 
L 72.078222 59.951386 
L 72.375143 59.750568 
L 72.672064 59.286586 
L 73.265905 57.719208 
L 74.75051 52.811214 
L 75.04743 52.215438 
L 75.344351 51.906514 
L 75.641272 51.939957 
L 75.938193 52.36098 
L 76.235114 53.202817 
L 76.828955 56.21516 
L 77.422797 60.968664 
L 78.313559 70.803925 
L 80.688926 100.016924 
L 81.282768 104.789671 
L 81.876609 107.800082 
L 82.17353 108.634694 
L 82.470451 109.044269 
L 82.767372 109.059436 
L 83.064293 108.719339 
L 83.658134 107.157105 
L 84.251976 104.744776 
L 87.518105 89.447593 
L 88.408867 86.594033 
L 89.29963 84.417658 
L 90.190392 82.803771 
L 91.081155 81.63009 
L 91.971917 80.788173 
L 93.1596 80.032782 
L 94.347284 79.559687 
L 95.831888 79.212017 
L 97.910334 78.973144 
L 101.473383 78.837977 
L 110.97485 78.799703 
L 153.137606 78.799032 
L 153.137606 78.799032 
" style="fill:none;stroke:#44bf70;stroke-linecap:round;stroke-width:1.5;"/>
   </g>
   <g id="line2d_10">
    <path clip-path="url(#p4cf96c56cc)" d="M 67.62441 42.448361 
L 68.515172 49.240247 
L 69.702856 58.575339 
L 70.296697 61.66916 
L 70.593618 62.494712 
L 70.890539 62.770957 
L 71.18746 62.493498 
L 71.48438 61.701524 
L 72.078222 58.947546 
L 72.968985 54.169692 
L 73.265905 53.125795 
L 73.562826 52.643755 
L 73.859747 52.859284 
L 74.156668 53.869719 
L 74.453589 55.727712 
L 75.04743 61.956188 
L 75.938193 76.249414 
L 77.422797 101.557383 
L 78.016639 107.808109 
L 78.313559 109.653363 
L 78.61048 110.638597 
L 78.907401 110.818173 
L 79.204322 110.283725 
L 79.501243 109.15243 
L 80.095084 105.621653 
L 82.17353 90.94901 
L 83.064293 86.622959 
L 83.955055 83.682936 
L 84.548897 82.325415 
L 85.439659 80.937464 
L 86.330422 80.083174 
L 87.221184 79.564979 
L 88.408867 79.180763 
L 89.893471 78.957516 
L 92.565759 78.831056 
L 100.582621 78.799276 
L 153.137606 78.799032 
L 153.137606 78.799032 
" style="fill:none;stroke:#bddf26;stroke-linecap:round;stroke-width:1.5;"/>
   </g>
   <g id="patch_3">
    <path d="M 63.34875 123.918664 
L 63.34875 29.854148 
" style="fill:none;stroke:#cccccc;stroke-linecap:square;stroke-linejoin:miter;"/>
   </g>
   <g id="patch_4">
    <path d="M 157.413266 123.918664 
L 157.413266 29.854148 
" style="fill:none;stroke:#cccccc;stroke-linecap:square;stroke-linejoin:miter;"/>
   </g>
   <g id="patch_5">
    <path d="M 63.34875 123.918664 
L 157.413266 123.918664 
" style="fill:none;stroke:#cccccc;stroke-linecap:square;stroke-linejoin:miter;"/>
   </g>
   <g id="patch_6">
    <path d="M 63.34875 29.854148 
L 157.413266 29.854148 
" style="fill:none;stroke:#cccccc;stroke-linecap:square;stroke-linejoin:miter;"/>
   </g>
   <g id="text_8">
    <!-- Starved Rock -->
    <g style="fill:#262626;" transform="translate(65.364602 23.854148)scale(0.15 -0.15)">
     <defs>
      <path d="M 2575 0 
L 2575 419 
Q 2259 -75 1647 -75 
Q 1250 -75 917 144 
Q 584 363 401 755 
Q 219 1147 219 1656 
Q 219 2153 384 2558 
Q 550 2963 881 3178 
Q 1213 3394 1622 3394 
Q 1922 3394 2156 3267 
Q 2391 3141 2538 2938 
L 2538 4581 
L 3097 4581 
L 3097 0 
L 2575 0 
z
M 797 1656 
Q 797 1019 1065 703 
Q 1334 388 1700 388 
Q 2069 388 2326 689 
Q 2584 991 2584 1609 
Q 2584 2291 2321 2609 
Q 2059 2928 1675 2928 
Q 1300 2928 1048 2622 
Q 797 2316 797 1656 
z
" id="ArialMT-64" transform="scale(0.015625)"/>
      <path d="M 503 0 
L 503 4581 
L 2534 4581 
Q 3147 4581 3465 4457 
Q 3784 4334 3975 4021 
Q 4166 3709 4166 3331 
Q 4166 2844 3850 2509 
Q 3534 2175 2875 2084 
Q 3116 1969 3241 1856 
Q 3506 1613 3744 1247 
L 4541 0 
L 3778 0 
L 3172 953 
Q 2906 1366 2734 1584 
Q 2563 1803 2427 1890 
Q 2291 1978 2150 2013 
Q 2047 2034 1813 2034 
L 1109 2034 
L 1109 0 
L 503 0 
z
M 1109 2559 
L 2413 2559 
Q 2828 2559 3062 2645 
Q 3297 2731 3419 2920 
Q 3541 3109 3541 3331 
Q 3541 3656 3305 3865 
Q 3069 4075 2559 4075 
L 1109 4075 
L 1109 2559 
z
" id="ArialMT-52" transform="scale(0.015625)"/>
      <path d="M 2588 1216 
L 3141 1144 
Q 3050 572 2676 248 
Q 2303 -75 1759 -75 
Q 1078 -75 664 370 
Q 250 816 250 1647 
Q 250 2184 428 2587 
Q 606 2991 970 3192 
Q 1334 3394 1763 3394 
Q 2303 3394 2647 3120 
Q 2991 2847 3088 2344 
L 2541 2259 
Q 2463 2594 2264 2762 
Q 2066 2931 1784 2931 
Q 1359 2931 1093 2626 
Q 828 2322 828 1663 
Q 828 994 1084 691 
Q 1341 388 1753 388 
Q 2084 388 2306 591 
Q 2528 794 2588 1216 
z
" id="ArialMT-63" transform="scale(0.015625)"/>
      <path d="M 425 0 
L 425 4581 
L 988 4581 
L 988 1969 
L 2319 3319 
L 3047 3319 
L 1778 2088 
L 3175 0 
L 2481 0 
L 1384 1697 
L 988 1316 
L 988 0 
L 425 0 
z
" id="ArialMT-6b" transform="scale(0.015625)"/>
     </defs>
     <use xlink:href="#ArialMT-53"/>
     <use x="66.699219" xlink:href="#ArialMT-74"/>
     <use x="94.482422" xlink:href="#ArialMT-61"/>
     <use x="150.097656" xlink:href="#ArialMT-72"/>
     <use x="183.398438" xlink:href="#ArialMT-76"/>
     <use x="233.398438" xlink:href="#ArialMT-65"/>
     <use x="289.013672" xlink:href="#ArialMT-64"/>
     <use x="344.628906" xlink:href="#ArialMT-20"/>
     <use x="372.412109" xlink:href="#ArialMT-52"/>
     <use x="444.628906" xlink:href="#ArialMT-6f"/>
     <use x="500.244141" xlink:href="#ArialMT-63"/>
     <use x="550.244141" xlink:href="#ArialMT-6b"/>
    </g>
   </g>
  </g>
  <g id="axes_2">
   <g id="patch_7">
    <path d="M 162.116492 123.918664 
L 256.181008 123.918664 
L 256.181008 29.854148 
L 162.116492 29.854148 
z
" style="fill:#ffffff;"/>
   </g>
   <g id="matplotlib.axis_3">
    <g id="xtick_3">
     <g id="line2d_11">
      <path clip-path="url(#pac722d5f5a)" d="M 163.422944 123.918664 
L 163.422944 29.854148 
" style="fill:none;stroke:#cccccc;stroke-linecap:round;"/>
     </g>
     <g id="text_9">
      <!-- 0 -->
      <g style="fill:#262626;" transform="translate(160.364428 135.292258)scale(0.11 -0.11)">
       <use xlink:href="#ArialMT-30"/>
      </g>
     </g>
    </g>
    <g id="xtick_4">
     <g id="line2d_12">
      <path clip-path="url(#pac722d5f5a)" d="M 222.807108 123.918664 
L 222.807108 29.854148 
" style="fill:none;stroke:#cccccc;stroke-linecap:round;"/>
     </g>
     <g id="text_10">
      <!-- 200 -->
      <g style="fill:#262626;" transform="translate(213.631561 135.292258)scale(0.11 -0.11)">
       <use xlink:href="#ArialMT-32"/>
       <use x="55.615234" xlink:href="#ArialMT-30"/>
       <use x="111.230469" xlink:href="#ArialMT-30"/>
      </g>
     </g>
    </g>
    <g id="text_11">
     <!-- Years -->
     <g style="fill:#262626;" transform="translate(190.241719 152.215227)scale(0.15 -0.15)">
      <use xlink:href="#ArialMT-59"/>
      <use x="57.574219" xlink:href="#ArialMT-65"/>
      <use x="113.189453" xlink:href="#ArialMT-61"/>
      <use x="168.804688" xlink:href="#ArialMT-72"/>
      <use x="202.105469" xlink:href="#ArialMT-73"/>
     </g>
    </g>
   </g>
   <g id="matplotlib.axis_4">
    <g id="ytick_4">
     <g id="line2d_13">
      <path clip-path="url(#pac722d5f5a)" d="M 162.116492 120.209154 
L 256.181008 120.209154 
" style="fill:none;stroke:#cccccc;stroke-linecap:round;"/>
     </g>
    </g>
    <g id="ytick_5">
     <g id="line2d_14">
      <path clip-path="url(#pac722d5f5a)" d="M 162.116492 78.799032 
L 256.181008 78.799032 
" style="fill:none;stroke:#cccccc;stroke-linecap:round;"/>
     </g>
    </g>
    <g id="ytick_6">
     <g id="line2d_15">
      <path clip-path="url(#pac722d5f5a)" d="M 162.116492 37.38891 
L 256.181008 37.38891 
" style="fill:none;stroke:#cccccc;stroke-linecap:round;"/>
     </g>
    </g>
   </g>
   <g id="line2d_16">
    <path clip-path="url(#pac722d5f5a)" d="M 166.392152 48.079729 
L 166.689073 46.316566 
L 167.282914 57.036128 
L 167.579835 58.880292 
L 167.876756 57.693339 
L 168.173677 55.787047 
L 168.470598 54.793007 
L 168.767518 54.924142 
L 169.36136 56.006975 
L 169.658281 56.10871 
L 170.549043 55.798759 
L 172.330568 55.981664 
L 186.582768 56.685071 
L 198.4596 57.468726 
L 210.930275 58.515437 
L 223.994791 59.83931 
L 237.653149 61.451284 
L 251.905348 63.350383 
L 251.905348 63.350383 
" style="fill:none;stroke:#482475;stroke-linecap:round;stroke-width:1.5;"/>
   </g>
   <g id="line2d_17">
    <path clip-path="url(#pac722d5f5a)" d="M 166.392152 36.011802 
L 166.689073 41.221532 
L 166.985993 43.705242 
L 167.282914 43.195735 
L 167.579835 41.958746 
L 167.876756 41.45891 
L 168.173677 41.693721 
L 168.470598 42.088274 
L 168.767518 42.29571 
L 170.549043 42.597299 
L 174.112093 43.477083 
L 176.190539 44.210015 
L 177.972064 45.075118 
L 179.456668 46.01741 
L 180.941272 47.202632 
L 182.425876 48.66712 
L 183.91048 50.443414 
L 185.395084 52.558409 
L 186.879688 55.030698 
L 188.661213 58.477716 
L 190.442738 62.429805 
L 192.521184 67.595753 
L 195.490392 75.646689 
L 199.053442 85.249879 
L 200.834967 89.5119 
L 202.319571 92.585421 
L 203.804175 95.127691 
L 204.991859 96.740174 
L 206.179542 97.96445 
L 207.367225 98.80383 
L 208.257988 99.190527 
L 209.14875 99.381515 
L 210.039512 99.391244 
L 211.227196 99.151343 
L 212.414879 98.662494 
L 213.899483 97.77046 
L 215.681008 96.401982 
L 218.353295 94.015898 
L 223.400949 89.456837 
L 226.073237 87.359581 
L 228.448603 85.755408 
L 230.82397 84.398734 
L 233.496257 83.146959 
L 236.168545 82.149765 
L 239.137753 81.290287 
L 242.403882 80.585323 
L 246.263853 79.996335 
L 250.717665 79.548226 
L 251.905348 79.45947 
L 251.905348 79.45947 
" style="fill:none;stroke:#355f8d;stroke-linecap:round;stroke-width:1.5;"/>
   </g>
   <g id="line2d_18">
    <path clip-path="url(#pac722d5f5a)" d="M 166.392152 36.259894 
L 166.689073 36.613995 
L 166.985993 36.047599 
L 167.282914 35.863578 
L 168.470598 36.651157 
L 170.252122 37.552641 
L 171.736727 38.49799 
L 172.627489 39.284755 
L 173.518251 40.348184 
L 174.409014 41.788985 
L 175.299776 43.708016 
L 176.190539 46.200683 
L 177.081301 49.351031 
L 177.972064 53.223644 
L 179.159747 59.561968 
L 180.34743 67.180322 
L 182.128955 80.331473 
L 184.207401 95.700585 
L 185.395084 102.840448 
L 186.285847 106.821121 
L 186.879688 108.711588 
L 187.47353 109.968283 
L 188.067372 110.60396 
L 188.364293 110.700185 
L 188.661213 110.657561 
L 189.255055 110.189346 
L 189.848897 109.27466 
L 190.739659 107.249451 
L 191.927342 103.771374 
L 195.490392 92.806206 
L 196.974996 89.22743 
L 198.16268 86.917266 
L 199.350363 85.058028 
L 200.538046 83.588442 
L 201.725729 82.442381 
L 202.913413 81.55766 
L 204.398017 80.737392 
L 205.882621 80.154848 
L 207.664146 79.677803 
L 210.039512 79.288891 
L 213.305641 79.016422 
L 218.353295 78.86005 
L 229.636287 78.80244 
L 251.905348 78.799042 
L 251.905348 78.799042 
" style="fill:none;stroke:#21918c;stroke-linecap:round;stroke-width:1.5;"/>
   </g>
   <g id="line2d_19">
    <path clip-path="url(#pac722d5f5a)" d="M 166.392152 34.250592 
L 166.689073 34.129808 
L 167.876756 35.094817 
L 169.658281 36.623138 
L 170.549043 37.69109 
L 171.142885 38.703597 
L 171.736727 40.093185 
L 172.330568 41.985149 
L 172.92441 44.501849 
L 173.518251 47.754911 
L 174.409014 54.209206 
L 175.299776 62.682767 
L 176.48746 76.811759 
L 178.862826 106.61773 
L 179.456668 111.854323 
L 180.05051 115.416367 
L 180.34743 116.517787 
L 180.644351 117.164585 
L 180.941272 117.371624 
L 181.238193 117.165248 
L 181.535114 116.581448 
L 182.128955 114.460168 
L 183.019718 109.643849 
L 185.692005 93.727212 
L 186.582768 89.828774 
L 187.47353 86.805037 
L 188.364293 84.535526 
L 189.255055 82.870578 
L 190.145817 81.668618 
L 191.03658 80.81079 
L 192.224263 80.044182 
L 193.411946 79.565572 
L 194.896551 79.214654 
L 196.974996 78.974023 
L 200.538046 78.838113 
L 210.039512 78.799704 
L 251.905348 78.799032 
L 251.905348 78.799032 
" style="fill:none;stroke:#44bf70;stroke-linecap:round;stroke-width:1.5;"/>
   </g>
   <g id="line2d_20">
    <path clip-path="url(#pac722d5f5a)" d="M 166.392152 35.398883 
L 168.767518 37.981866 
L 169.36136 38.847906 
L 169.955202 40.087012 
L 170.549043 41.981256 
L 171.142885 44.840329 
L 171.736727 48.957781 
L 172.330568 54.574379 
L 173.221331 66.075088 
L 174.409014 86.243934 
L 175.596697 106.753927 
L 176.190539 114.292326 
L 176.78438 118.692103 
L 177.081301 119.589829 
L 177.378222 119.643004 
L 177.675143 118.922293 
L 177.972064 117.53138 
L 178.565905 113.251513 
L 180.941272 92.771328 
L 181.832034 87.754624 
L 182.722797 84.374907 
L 183.316639 82.820818 
L 183.91048 81.682033 
L 184.801243 80.534079 
L 185.692005 79.835617 
L 186.582768 79.415079 
L 187.770451 79.104988 
L 189.551976 78.90509 
L 192.818105 78.813914 
L 207.961067 78.799033 
L 251.905348 78.799032 
L 251.905348 78.799032 
" style="fill:none;stroke:#bddf26;stroke-linecap:round;stroke-width:1.5;"/>
   </g>
   <g id="patch_8">
    <path d="M 162.116492 123.918664 
L 162.116492 29.854148 
" style="fill:none;stroke:#cccccc;stroke-linecap:square;stroke-linejoin:miter;"/>
   </g>
   <g id="patch_9">
    <path d="M 256.181008 123.918664 
L 256.181008 29.854148 
" style="fill:none;stroke:#cccccc;stroke-linecap:square;stroke-linejoin:miter;"/>
   </g>
   <g id="patch_10">
    <path d="M 162.116492 123.918664 
L 256.181008 123.918664 
" style="fill:none;stroke:#cccccc;stroke-linecap:square;stroke-linejoin:miter;"/>
   </g>
   <g id="patch_11">
    <path d="M 162.116492 29.854148 
L 256.181008 29.854148 
" style="fill:none;stroke:#cccccc;stroke-linecap:square;stroke-linejoin:miter;"/>
   </g>
   <g id="text_12">
    <!-- Marseilles -->
    <g style="fill:#262626;" transform="translate(175.392891 23.854148)scale(0.15 -0.15)">
     <defs>
      <path d="M 475 0 
L 475 4581 
L 1388 4581 
L 2472 1338 
Q 2622 884 2691 659 
Q 2769 909 2934 1394 
L 4031 4581 
L 4847 4581 
L 4847 0 
L 4263 0 
L 4263 3834 
L 2931 0 
L 2384 0 
L 1059 3900 
L 1059 0 
L 475 0 
z
" id="ArialMT-4d" transform="scale(0.015625)"/>
      <path d="M 409 0 
L 409 4581 
L 972 4581 
L 972 0 
L 409 0 
z
" id="ArialMT-6c" transform="scale(0.015625)"/>
     </defs>
     <use xlink:href="#ArialMT-4d"/>
     <use x="83.300781" xlink:href="#ArialMT-61"/>
     <use x="138.916016" xlink:href="#ArialMT-72"/>
     <use x="172.216797" xlink:href="#ArialMT-73"/>
     <use x="222.216797" xlink:href="#ArialMT-65"/>
     <use x="277.832031" xlink:href="#ArialMT-69"/>
     <use x="300.048828" xlink:href="#ArialMT-6c"/>
     <use x="322.265625" xlink:href="#ArialMT-6c"/>
     <use x="344.482422" xlink:href="#ArialMT-65"/>
     <use x="400.097656" xlink:href="#ArialMT-73"/>
    </g>
   </g>
  </g>
  <g id="axes_3">
   <g id="patch_12">
    <path d="M 260.884234 123.918664 
L 354.94875 123.918664 
L 354.94875 29.854148 
L 260.884234 29.854148 
z
" style="fill:#ffffff;"/>
   </g>
   <g id="matplotlib.axis_5">
    <g id="xtick_5">
     <g id="line2d_21">
      <path clip-path="url(#p0514927240)" d="M 262.190685 123.918664 
L 262.190685 29.854148 
" style="fill:none;stroke:#cccccc;stroke-linecap:round;"/>
     </g>
     <g id="text_13">
      <!-- 0 -->
      <g style="fill:#262626;" transform="translate(259.13217 135.292258)scale(0.11 -0.11)">
       <use xlink:href="#ArialMT-30"/>
      </g>
     </g>
    </g>
    <g id="xtick_6">
     <g id="line2d_22">
      <path clip-path="url(#p0514927240)" d="M 321.57485 123.918664 
L 321.57485 29.854148 
" style="fill:none;stroke:#cccccc;stroke-linecap:round;"/>
     </g>
     <g id="text_14">
      <!-- 200 -->
      <g style="fill:#262626;" transform="translate(312.399303 135.292258)scale(0.11 -0.11)">
       <use xlink:href="#ArialMT-32"/>
       <use x="55.615234" xlink:href="#ArialMT-30"/>
       <use x="111.230469" xlink:href="#ArialMT-30"/>
      </g>
     </g>
    </g>
    <g id="text_15">
     <!-- Years -->
     <g style="fill:#262626;" transform="translate(289.009461 152.215227)scale(0.15 -0.15)">
      <use xlink:href="#ArialMT-59"/>
      <use x="57.574219" xlink:href="#ArialMT-65"/>
      <use x="113.189453" xlink:href="#ArialMT-61"/>
      <use x="168.804688" xlink:href="#ArialMT-72"/>
      <use x="202.105469" xlink:href="#ArialMT-73"/>
     </g>
    </g>
   </g>
   <g id="matplotlib.axis_6">
    <g id="ytick_7">
     <g id="line2d_23">
      <path clip-path="url(#p0514927240)" d="M 260.884234 120.209154 
L 354.94875 120.209154 
" style="fill:none;stroke:#cccccc;stroke-linecap:round;"/>
     </g>
    </g>
    <g id="ytick_8">
     <g id="line2d_24">
      <path clip-path="url(#p0514927240)" d="M 260.884234 78.799032 
L 354.94875 78.799032 
" style="fill:none;stroke:#cccccc;stroke-linecap:round;"/>
     </g>
    </g>
    <g id="ytick_9">
     <g id="line2d_25">
      <path clip-path="url(#p0514927240)" d="M 260.884234 37.38891 
L 354.94875 37.38891 
" style="fill:none;stroke:#cccccc;stroke-linecap:round;"/>
     </g>
    </g>
    <g id="text_16">
     <!-- Sensitivity of $\lambda$ -->
     <g style="fill:#262626;" transform="translate(253.584234 125.561406)rotate(-90)scale(0.15 -0.15)">
      <use transform="translate(0 0.015625)" xlink:href="#ArialMT-53"/>
      <use transform="translate(66.699219 0.015625)" xlink:href="#ArialMT-65"/>
      <use transform="translate(122.314453 0.015625)" xlink:href="#ArialMT-6e"/>
      <use transform="translate(177.929688 0.015625)" xlink:href="#ArialMT-73"/>
      <use transform="translate(227.929688 0.015625)" xlink:href="#ArialMT-69"/>
      <use transform="translate(250.146484 0.015625)" xlink:href="#ArialMT-74"/>
      <use transform="translate(277.929688 0.015625)" xlink:href="#ArialMT-69"/>
      <use transform="translate(300.146484 0.015625)" xlink:href="#ArialMT-76"/>
      <use transform="translate(350.146484 0.015625)" xlink:href="#ArialMT-69"/>
      <use transform="translate(372.363281 0.015625)" xlink:href="#ArialMT-74"/>
      <use transform="translate(400.146484 0.015625)" xlink:href="#ArialMT-79"/>
      <use transform="translate(450.146484 0.015625)" xlink:href="#ArialMT-20"/>
      <use transform="translate(477.929688 0.015625)" xlink:href="#ArialMT-6f"/>
      <use transform="translate(533.544922 0.015625)" xlink:href="#ArialMT-66"/>
      <use transform="translate(561.328125 0.015625)" xlink:href="#ArialMT-20"/>
      <use transform="translate(589.111328 0.015625)" xlink:href="#DejaVuSans-Oblique-3bb"/>
     </g>
    </g>
   </g>
   <g id="line2d_26">
    <path clip-path="url(#p0514927240)" d="M 265.159894 51.687136 
L 265.456815 48.10291 
L 265.753735 51.812809 
L 266.050656 57.063648 
L 266.347577 59.766062 
L 266.644498 59.543607 
L 267.238339 57.09154 
L 267.53526 57.009376 
L 268.426023 58.327866 
L 269.019864 58.319542 
L 269.613706 58.384001 
L 270.801389 58.689434 
L 274.364439 59.044982 
L 278.22441 59.140747 
L 287.428955 59.064638 
L 297.227342 59.089263 
L 306.134967 59.335809 
L 315.339512 59.811113 
L 325.43482 60.56077 
L 336.12397 61.578302 
L 348.000803 62.934272 
L 350.67309 63.267258 
L 350.67309 63.267258 
" style="fill:none;stroke:#482475;stroke-linecap:round;stroke-width:1.5;"/>
   </g>
   <g id="line2d_27">
    <path clip-path="url(#p0514927240)" d="M 265.159894 37.80394 
L 265.753735 45.693542 
L 266.050656 46.078787 
L 266.347577 45.428409 
L 266.644498 45.171677 
L 266.941419 45.546418 
L 267.53526 46.649465 
L 268.426023 47.493851 
L 269.613706 48.489681 
L 270.801389 49.175639 
L 271.989073 49.600804 
L 273.176756 49.802662 
L 274.66136 49.825622 
L 279.412093 49.649131 
L 280.599776 49.890772 
L 281.78746 50.359522 
L 282.975143 51.096428 
L 284.162826 52.132147 
L 285.35051 53.486575 
L 286.538193 55.168665 
L 288.022797 57.727759 
L 289.507401 60.765948 
L 291.288926 64.963108 
L 293.664293 71.241034 
L 299.008867 85.678293 
L 300.790392 89.723725 
L 302.274996 92.547018 
L 303.46268 94.394116 
L 304.650363 95.854557 
L 305.838046 96.925818 
L 306.728809 97.480619 
L 307.619571 97.832826 
L 308.510334 97.995545 
L 309.698017 97.945143 
L 310.8857 97.627939 
L 312.073383 97.088751 
L 313.557988 96.171042 
L 315.636433 94.578411 
L 320.090246 90.738526 
L 323.356375 88.095616 
L 326.028662 86.222415 
L 328.404029 84.806233 
L 331.076316 83.485005 
L 333.748603 82.423276 
L 336.717812 81.501995 
L 339.983941 80.742197 
L 343.54699 80.145433 
L 348.000803 79.643651 
L 350.67309 79.435435 
L 350.67309 79.435435 
" style="fill:none;stroke:#355f8d;stroke-linecap:round;stroke-width:1.5;"/>
   </g>
   <g id="line2d_28">
    <path clip-path="url(#p0514927240)" d="M 265.159894 38.644181 
L 265.456815 39.818083 
L 265.753735 40.023911 
L 266.050656 40.427446 
L 267.832181 44.614652 
L 268.722944 46.096321 
L 269.316785 46.767709 
L 269.910627 47.169117 
L 270.504468 47.310286 
L 271.09831 47.227596 
L 271.989073 46.820582 
L 273.176756 46.19854 
L 273.770598 46.070278 
L 274.364439 46.190012 
L 274.958281 46.640999 
L 275.552122 47.492261 
L 276.145964 48.796032 
L 276.739806 50.58641 
L 277.630568 54.212995 
L 278.521331 58.937645 
L 279.709014 66.720699 
L 281.490539 80.357927 
L 283.272064 93.732943 
L 284.459747 100.901745 
L 285.35051 104.821105 
L 285.944351 106.646996 
L 286.538193 107.833249 
L 287.132034 108.403827 
L 287.428955 108.472632 
L 287.725876 108.407398 
L 288.319718 107.911534 
L 288.913559 106.99604 
L 289.804322 105.022734 
L 290.992005 101.703243 
L 294.258134 92.242899 
L 295.742738 88.822912 
L 296.930422 86.608635 
L 298.118105 84.823525 
L 299.305788 83.410883 
L 300.493471 82.308335 
L 301.978076 81.276758 
L 303.46268 80.538563 
L 305.244205 79.930405 
L 307.32265 79.479828 
L 309.994938 79.150791 
L 313.854908 78.933098 
L 320.387166 78.824689 
L 342.062386 78.799127 
L 350.67309 78.799042 
L 350.67309 78.799042 
" style="fill:none;stroke:#21918c;stroke-linecap:round;stroke-width:1.5;"/>
   </g>
   <g id="line2d_29">
    <path clip-path="url(#p0514927240)" d="M 265.159894 37.955173 
L 265.753735 39.782661 
L 266.941419 44.179628 
L 267.832181 46.65548 
L 268.426023 47.548147 
L 268.722944 47.72921 
L 269.019864 47.737151 
L 269.316785 47.587854 
L 269.910627 46.932035 
L 270.801389 45.696707 
L 271.09831 45.422375 
L 271.395231 45.304726 
L 271.692152 45.392405 
L 271.989073 45.728714 
L 272.285993 46.350323 
L 272.879835 48.558344 
L 273.473677 52.154246 
L 274.067518 57.147608 
L 274.958281 66.972235 
L 276.442885 87.000038 
L 277.630568 102.047546 
L 278.22441 107.814233 
L 278.818251 111.894918 
L 279.412093 114.13286 
L 279.709014 114.570435 
L 280.005935 114.583874 
L 280.302856 114.208627 
L 280.599776 113.487773 
L 281.193618 111.204788 
L 282.08438 106.434066 
L 284.162826 94.56888 
L 285.053589 90.552662 
L 285.944351 87.383977 
L 286.835114 84.97805 
L 287.725876 83.198967 
L 288.616639 81.907491 
L 289.507401 80.982161 
L 290.398163 80.325386 
L 291.585847 79.741127 
L 293.070451 79.311084 
L 294.851976 79.043639 
L 297.821184 78.86953 
L 304.056521 78.804019 
L 350.67309 78.799032 
L 350.67309 78.799032 
" style="fill:none;stroke:#44bf70;stroke-linecap:round;stroke-width:1.5;"/>
   </g>
   <g id="line2d_30">
    <path clip-path="url(#p0514927240)" d="M 265.159894 40.008749 
L 266.941419 48.225667 
L 267.53526 49.721321 
L 267.832181 49.988699 
L 268.129102 49.924301 
L 268.426023 49.561863 
L 269.019864 48.250685 
L 269.613706 46.933733 
L 269.910627 46.61013 
L 270.207548 46.682391 
L 270.504468 47.258423 
L 270.801389 48.421315 
L 271.395231 52.70047 
L 271.989073 59.624959 
L 272.879835 74.154858 
L 274.66136 106.113656 
L 275.255202 112.963419 
L 275.552122 115.114803 
L 275.849043 116.37359 
L 276.145964 116.766187 
L 276.442885 116.361588 
L 276.739806 115.26264 
L 277.333647 111.493955 
L 280.005935 90.427368 
L 280.896697 86.1782 
L 281.78746 83.363574 
L 282.381301 82.081357 
L 283.272064 80.780999 
L 284.162826 79.985853 
L 285.053589 79.505535 
L 286.241272 79.150483 
L 288.022797 78.921074 
L 290.992005 78.819566 
L 302.571917 78.799049 
L 350.67309 78.799032 
L 350.67309 78.799032 
" style="fill:none;stroke:#bddf26;stroke-linecap:round;stroke-width:1.5;"/>
   </g>
   <g id="patch_13">
    <path d="M 260.884234 123.918664 
L 260.884234 29.854148 
" style="fill:none;stroke:#cccccc;stroke-linecap:square;stroke-linejoin:miter;"/>
   </g>
   <g id="patch_14">
    <path d="M 354.94875 123.918664 
L 354.94875 29.854148 
" style="fill:none;stroke:#cccccc;stroke-linecap:square;stroke-linejoin:miter;"/>
   </g>
   <g id="patch_15">
    <path d="M 260.884234 123.918664 
L 354.94875 123.918664 
" style="fill:none;stroke:#cccccc;stroke-linecap:square;stroke-linejoin:miter;"/>
   </g>
   <g id="patch_16">
    <path d="M 260.884234 29.854148 
L 354.94875 29.854148 
" style="fill:none;stroke:#cccccc;stroke-linecap:square;stroke-linejoin:miter;"/>
   </g>
   <g id="text_17">
    <!-- Dresden Island -->
    <g style="fill:#262626;" transform="translate(257.474304 23.854148)scale(0.15 -0.15)">
     <defs>
      <path d="M 494 0 
L 494 4581 
L 2072 4581 
Q 2606 4581 2888 4516 
Q 3281 4425 3559 4188 
Q 3922 3881 4101 3404 
Q 4281 2928 4281 2316 
Q 4281 1794 4159 1391 
Q 4038 988 3847 723 
Q 3656 459 3429 307 
Q 3203 156 2883 78 
Q 2563 0 2147 0 
L 494 0 
z
M 1100 541 
L 2078 541 
Q 2531 541 2789 625 
Q 3047 709 3200 863 
Q 3416 1078 3536 1442 
Q 3656 1806 3656 2325 
Q 3656 3044 3420 3430 
Q 3184 3816 2847 3947 
Q 2603 4041 2063 4041 
L 1100 4041 
L 1100 541 
z
" id="ArialMT-44" transform="scale(0.015625)"/>
      <path d="M 597 0 
L 597 4581 
L 1203 4581 
L 1203 0 
L 597 0 
z
" id="ArialMT-49" transform="scale(0.015625)"/>
     </defs>
     <use xlink:href="#ArialMT-44"/>
     <use x="72.216797" xlink:href="#ArialMT-72"/>
     <use x="105.517578" xlink:href="#ArialMT-65"/>
     <use x="161.132812" xlink:href="#ArialMT-73"/>
     <use x="211.132812" xlink:href="#ArialMT-64"/>
     <use x="266.748047" xlink:href="#ArialMT-65"/>
     <use x="322.363281" xlink:href="#ArialMT-6e"/>
     <use x="377.978516" xlink:href="#ArialMT-20"/>
     <use x="405.761719" xlink:href="#ArialMT-49"/>
     <use x="433.544922" xlink:href="#ArialMT-73"/>
     <use x="483.544922" xlink:href="#ArialMT-6c"/>
     <use x="505.761719" xlink:href="#ArialMT-61"/>
     <use x="561.376953" xlink:href="#ArialMT-6e"/>
     <use x="616.992188" xlink:href="#ArialMT-64"/>
    </g>
   </g>
  </g>
  <g id="legend_1">
   <g id="patch_17">
    <path d="M 381.797656 182.572813 
L 435.34875 182.572813 
Q 437.54875 182.572813 437.54875 180.372813 
L 437.54875 9.4 
Q 437.54875 7.2 435.34875 7.2 
L 381.797656 7.2 
Q 379.597656 7.2 379.597656 9.4 
L 379.597656 180.372813 
Q 379.597656 182.572813 381.797656 182.572813 
z
" style="fill:#ffffff;opacity:0.8;stroke:#cccccc;stroke-linejoin:miter;"/>
   </g>
   <g id="text_18">
    <!-- $\sigma_G$ -->
    <g style="fill:#262626;" transform="translate(401.313203 20.189375)scale(0.12 -0.12)">
     <defs>
      <path d="M 2219 3044 
Q 1744 3044 1422 2700 
Q 1081 2341 969 1747 
Q 844 1119 1044 756 
Q 1241 397 1706 397 
Q 2166 397 2503 759 
Q 2844 1122 2966 1747 
Q 3075 2319 2881 2700 
Q 2700 3044 2219 3044 
z
M 2309 3503 
L 4219 3500 
L 4106 2925 
L 3463 2925 
Q 3706 2438 3575 1747 
Q 3406 888 2884 400 
Q 2359 -91 1609 -91 
Q 856 -91 525 400 
Q 194 888 363 1747 
Q 528 2609 1050 3097 
Q 1484 3503 2309 3503 
z
" id="DejaVuSans-Oblique-3c3" transform="scale(0.015625)"/>
      <path d="M 3494 697 
L 3738 1919 
L 2700 1919 
L 2797 2438 
L 4453 2438 
L 4050 384 
Q 3634 156 3143 32 
Q 2653 -91 2156 -91 
Q 1278 -91 783 396 
Q 288 884 288 1753 
Q 288 2475 589 3126 
Q 891 3778 1422 4213 
Q 1756 4484 2153 4617 
Q 2550 4750 3034 4750 
Q 3472 4750 3873 4639 
Q 4275 4528 4641 4306 
L 4513 3634 
Q 4231 3928 3853 4083 
Q 3475 4238 3047 4238 
Q 2550 4238 2172 4048 
Q 1794 3859 1497 3463 
Q 1244 3125 1098 2667 
Q 953 2209 953 1734 
Q 953 1081 1287 751 
Q 1622 422 2284 422 
Q 2616 422 2925 492 
Q 3234 563 3494 697 
z
" id="DejaVuSans-Oblique-47" transform="scale(0.015625)"/>
     </defs>
     <use transform="translate(0 0.265625)" xlink:href="#DejaVuSans-Oblique-3c3"/>
     <use transform="translate(63.378906 -16.140625)scale(0.7)" xlink:href="#DejaVuSans-Oblique-47"/>
    </g>
   </g>
   <g id="line2d_31">
    <path d="M 383.997656 32.097969 
L 405.997656 32.097969 
" style="fill:none;stroke:#482475;stroke-linecap:round;stroke-width:1.5;"/>
   </g>
   <g id="line2d_32"/>
   <g id="text_19">
    <!-- 20 -->
    <g style="fill:#262626;" transform="translate(414.797656 35.947969)scale(0.11 -0.11)">
     <use xlink:href="#ArialMT-32"/>
     <use x="55.615234" xlink:href="#ArialMT-30"/>
    </g>
   </g>
   <g id="line2d_33">
    <path d="M 383.997656 47.657812 
L 405.997656 47.657812 
" style="fill:none;stroke:#355f8d;stroke-linecap:round;stroke-width:1.5;"/>
   </g>
   <g id="line2d_34"/>
   <g id="text_20">
    <!-- 40 -->
    <g style="fill:#262626;" transform="translate(414.797656 51.507812)scale(0.11 -0.11)">
     <defs>
      <path d="M 2069 0 
L 2069 1097 
L 81 1097 
L 81 1613 
L 2172 4581 
L 2631 4581 
L 2631 1613 
L 3250 1613 
L 3250 1097 
L 2631 1097 
L 2631 0 
L 2069 0 
z
M 2069 1613 
L 2069 3678 
L 634 1613 
L 2069 1613 
z
" id="ArialMT-34" transform="scale(0.015625)"/>
     </defs>
     <use xlink:href="#ArialMT-34"/>
     <use x="55.615234" xlink:href="#ArialMT-30"/>
    </g>
   </g>
   <g id="line2d_35">
    <path d="M 383.997656 63.217656 
L 405.997656 63.217656 
" style="fill:none;stroke:#21918c;stroke-linecap:round;stroke-width:1.5;"/>
   </g>
   <g id="line2d_36"/>
   <g id="text_21">
    <!-- 60 -->
    <g style="fill:#262626;" transform="translate(414.797656 67.067656)scale(0.11 -0.11)">
     <defs>
      <path d="M 3184 3459 
L 2625 3416 
Q 2550 3747 2413 3897 
Q 2184 4138 1850 4138 
Q 1581 4138 1378 3988 
Q 1113 3794 959 3422 
Q 806 3050 800 2363 
Q 1003 2672 1297 2822 
Q 1591 2972 1913 2972 
Q 2475 2972 2870 2558 
Q 3266 2144 3266 1488 
Q 3266 1056 3080 686 
Q 2894 316 2569 119 
Q 2244 -78 1831 -78 
Q 1128 -78 684 439 
Q 241 956 241 2144 
Q 241 3472 731 4075 
Q 1159 4600 1884 4600 
Q 2425 4600 2770 4297 
Q 3116 3994 3184 3459 
z
M 888 1484 
Q 888 1194 1011 928 
Q 1134 663 1356 523 
Q 1578 384 1822 384 
Q 2178 384 2434 671 
Q 2691 959 2691 1453 
Q 2691 1928 2437 2201 
Q 2184 2475 1800 2475 
Q 1419 2475 1153 2201 
Q 888 1928 888 1484 
z
" id="ArialMT-36" transform="scale(0.015625)"/>
     </defs>
     <use xlink:href="#ArialMT-36"/>
     <use x="55.615234" xlink:href="#ArialMT-30"/>
    </g>
   </g>
   <g id="line2d_37">
    <path d="M 383.997656 78.7775 
L 405.997656 78.7775 
" style="fill:none;stroke:#44bf70;stroke-linecap:round;stroke-width:1.5;"/>
   </g>
   <g id="line2d_38"/>
   <g id="text_22">
    <!-- 80 -->
    <g style="fill:#262626;" transform="translate(414.797656 82.6275)scale(0.11 -0.11)">
     <defs>
      <path d="M 1131 2484 
Q 781 2613 612 2850 
Q 444 3088 444 3419 
Q 444 3919 803 4259 
Q 1163 4600 1759 4600 
Q 2359 4600 2725 4251 
Q 3091 3903 3091 3403 
Q 3091 3084 2923 2848 
Q 2756 2613 2416 2484 
Q 2838 2347 3058 2040 
Q 3278 1734 3278 1309 
Q 3278 722 2862 322 
Q 2447 -78 1769 -78 
Q 1091 -78 675 323 
Q 259 725 259 1325 
Q 259 1772 486 2073 
Q 713 2375 1131 2484 
z
M 1019 3438 
Q 1019 3113 1228 2906 
Q 1438 2700 1772 2700 
Q 2097 2700 2305 2904 
Q 2513 3109 2513 3406 
Q 2513 3716 2298 3927 
Q 2084 4138 1766 4138 
Q 1444 4138 1231 3931 
Q 1019 3725 1019 3438 
z
M 838 1322 
Q 838 1081 952 856 
Q 1066 631 1291 507 
Q 1516 384 1775 384 
Q 2178 384 2440 643 
Q 2703 903 2703 1303 
Q 2703 1709 2433 1975 
Q 2163 2241 1756 2241 
Q 1359 2241 1098 1978 
Q 838 1716 838 1322 
z
" id="ArialMT-38" transform="scale(0.015625)"/>
     </defs>
     <use xlink:href="#ArialMT-38"/>
     <use x="55.615234" xlink:href="#ArialMT-30"/>
    </g>
   </g>
   <g id="line2d_39">
    <path d="M 383.997656 94.337344 
L 405.997656 94.337344 
" style="fill:none;stroke:#bddf26;stroke-linecap:round;stroke-width:1.5;"/>
   </g>
   <g id="line2d_40"/>
   <g id="text_23">
    <!-- 100 -->
    <g style="fill:#262626;" transform="translate(414.797656 98.187344)scale(0.11 -0.11)">
     <defs>
      <path d="M 2384 0 
L 1822 0 
L 1822 3584 
Q 1619 3391 1289 3197 
Q 959 3003 697 2906 
L 697 3450 
Q 1169 3672 1522 3987 
Q 1875 4303 2022 4600 
L 2384 4600 
L 2384 0 
z
" id="ArialMT-31" transform="scale(0.015625)"/>
     </defs>
     <use xlink:href="#ArialMT-31"/>
     <use x="55.615234" xlink:href="#ArialMT-30"/>
     <use x="111.230469" xlink:href="#ArialMT-30"/>
    </g>
   </g>
   <g id="line2d_41">
    <path d="M 383.997656 109.897188 
L 405.997656 109.897188 
" style="fill:none;stroke:#482475;stroke-linecap:round;stroke-width:1.5;"/>
   </g>
   <g id="line2d_42"/>
   <g id="text_24">
    <!-- 20 -->
    <g style="fill:#262626;" transform="translate(414.797656 113.747188)scale(0.11 -0.11)">
     <use xlink:href="#ArialMT-32"/>
     <use x="55.615234" xlink:href="#ArialMT-30"/>
    </g>
   </g>
   <g id="line2d_43">
    <path d="M 383.997656 125.457031 
L 405.997656 125.457031 
" style="fill:none;stroke:#355f8d;stroke-linecap:round;stroke-width:1.5;"/>
   </g>
   <g id="line2d_44"/>
   <g id="text_25">
    <!-- 40 -->
    <g style="fill:#262626;" transform="translate(414.797656 129.307031)scale(0.11 -0.11)">
     <use xlink:href="#ArialMT-34"/>
     <use x="55.615234" xlink:href="#ArialMT-30"/>
    </g>
   </g>
   <g id="line2d_45">
    <path d="M 383.997656 141.016875 
L 405.997656 141.016875 
" style="fill:none;stroke:#21918c;stroke-linecap:round;stroke-width:1.5;"/>
   </g>
   <g id="line2d_46"/>
   <g id="text_26">
    <!-- 60 -->
    <g style="fill:#262626;" transform="translate(414.797656 144.866875)scale(0.11 -0.11)">
     <use xlink:href="#ArialMT-36"/>
     <use x="55.615234" xlink:href="#ArialMT-30"/>
    </g>
   </g>
   <g id="line2d_47">
    <path d="M 383.997656 156.576719 
L 405.997656 156.576719 
" style="fill:none;stroke:#44bf70;stroke-linecap:round;stroke-width:1.5;"/>
   </g>
   <g id="line2d_48"/>
   <g id="text_27">
    <!-- 80 -->
    <g style="fill:#262626;" transform="translate(414.797656 160.426719)scale(0.11 -0.11)">
     <use xlink:href="#ArialMT-38"/>
     <use x="55.615234" xlink:href="#ArialMT-30"/>
    </g>
   </g>
   <g id="line2d_49">
    <path d="M 383.997656 172.136563 
L 405.997656 172.136563 
" style="fill:none;stroke:#bddf26;stroke-linecap:round;stroke-width:1.5;"/>
   </g>
   <g id="line2d_50"/>
   <g id="text_28">
    <!-- 100 -->
    <g style="fill:#262626;" transform="translate(414.797656 175.986563)scale(0.11 -0.11)">
     <use xlink:href="#ArialMT-31"/>
     <use x="55.615234" xlink:href="#ArialMT-30"/>
     <use x="111.230469" xlink:href="#ArialMT-30"/>
    </g>
   </g>
  </g>
 </g>
 <defs>
  <clipPath id="p4cf96c56cc">
   <rect height="94.064516" width="94.064516" x="63.34875" y="29.854148"/>
  </clipPath>
  <clipPath id="pac722d5f5a">
   <rect height="94.064516" width="94.064516" x="162.116492" y="29.854148"/>
  </clipPath>
  <clipPath id="p0514927240">
   <rect height="94.064516" width="94.064516" x="260.884234" y="29.854148"/>
  </clipPath>
 </defs>
</svg>
