<?xml version="1.0" encoding="utf-8" standalone="no"?>
<!DOCTYPE svg PUBLIC "-//W3C//DTD SVG 1.1//EN"
  "http://www.w3.org/Graphics/SVG/1.1/DTD/svg11.dtd">
<svg height="201.426797pt" version="1.1" viewBox="0 0 423.766562 201.426797" width="423.766562pt" xmlns="http://www.w3.org/2000/svg" xmlns:xlink="http://www.w3.org/1999/xlink">
 <metadata>
  <rdf:RDF xmlns:cc="http://creativecommons.org/ns#" xmlns:dc="http://purl.org/dc/elements/1.1/" xmlns:rdf="http://www.w3.org/1999/02/22-rdf-syntax-ns#">
   <cc:Work>
    <dc:type rdf:resource="http://purl.org/dc/dcmitype/StillImage"/>
    <dc:date>2022-03-29T14:16:08.703140</dc:date>
    <dc:format>image/svg+xml</dc:format>
    <dc:creator>
     <cc:Agent>
      <dc:title>Matplotlib v3.4.2, https://matplotlib.org/</dc:title>
     </cc:Agent>
    </dc:creator>
   </cc:Work>
  </rdf:RDF>
 </metadata>
 <defs>
  <style type="text/css">*{stroke-linecap:butt;stroke-linejoin:round;}</style>
 </defs>
 <g id="figure_1">
  <g id="patch_1">
   <path d="M 0 201.426797 
L 423.766562 201.426797 
L 423.766562 0 
L 0 0 
z
" style="fill:#ffffff;"/>
  </g>
  <g id="axes_1">
   <g id="patch_2">
    <path d="M 44.066563 143.581935 
L 133.950433 143.581935 
L 133.950433 53.698065 
L 44.066563 53.698065 
z
" style="fill:#ffffff;"/>
   </g>
   <g id="matplotlib.axis_1">
    <g id="xtick_1">
     <g id="line2d_1">
      <path clip-path="url(#pcfd8ea52d9)" d="M 48.152193 143.581935 
L 48.152193 53.698065 
" style="fill:none;stroke:#cccccc;stroke-linecap:round;"/>
     </g>
     <g id="text_1">
      <!-- 0 -->
      <g style="fill:#262626;" transform="translate(45.093677 154.955529)scale(0.11 -0.11)">
       <defs>
        <path d="M 266 2259 
Q 266 3072 433 3567 
Q 600 4063 929 4331 
Q 1259 4600 1759 4600 
Q 2128 4600 2406 4451 
Q 2684 4303 2865 4023 
Q 3047 3744 3150 3342 
Q 3253 2941 3253 2259 
Q 3253 1453 3087 958 
Q 2922 463 2592 192 
Q 2263 -78 1759 -78 
Q 1097 -78 719 397 
Q 266 969 266 2259 
z
M 844 2259 
Q 844 1131 1108 757 
Q 1372 384 1759 384 
Q 2147 384 2411 759 
Q 2675 1134 2675 2259 
Q 2675 3391 2411 3762 
Q 2147 4134 1753 4134 
Q 1366 4134 1134 3806 
Q 844 3388 844 2259 
z
" id="ArialMT-30" transform="scale(0.015625)"/>
       </defs>
       <use xlink:href="#ArialMT-30"/>
      </g>
     </g>
    </g>
    <g id="xtick_2">
     <g id="line2d_2">
      <path clip-path="url(#pcfd8ea52d9)" d="M 102.809457 143.581935 
L 102.809457 53.698065 
" style="fill:none;stroke:#cccccc;stroke-linecap:round;"/>
     </g>
     <g id="text_2">
      <!-- 200 -->
      <g style="fill:#262626;" transform="translate(93.63391 154.955529)scale(0.11 -0.11)">
       <defs>
        <path d="M 3222 541 
L 3222 0 
L 194 0 
Q 188 203 259 391 
Q 375 700 629 1000 
Q 884 1300 1366 1694 
Q 2113 2306 2375 2664 
Q 2638 3022 2638 3341 
Q 2638 3675 2398 3904 
Q 2159 4134 1775 4134 
Q 1369 4134 1125 3890 
Q 881 3647 878 3216 
L 300 3275 
Q 359 3922 746 4261 
Q 1134 4600 1788 4600 
Q 2447 4600 2831 4234 
Q 3216 3869 3216 3328 
Q 3216 3053 3103 2787 
Q 2991 2522 2730 2228 
Q 2469 1934 1863 1422 
Q 1356 997 1212 845 
Q 1069 694 975 541 
L 3222 541 
z
" id="ArialMT-32" transform="scale(0.015625)"/>
       </defs>
       <use xlink:href="#ArialMT-32"/>
       <use x="55.615234" xlink:href="#ArialMT-30"/>
       <use x="111.230469" xlink:href="#ArialMT-30"/>
      </g>
     </g>
    </g>
    <g id="text_3">
     <!-- Years -->
     <g style="fill:#262626;" transform="translate(70.101467 171.878498)scale(0.15 -0.15)">
      <defs>
       <path d="M 1784 0 
L 1784 1941 
L 19 4581 
L 756 4581 
L 1659 3200 
Q 1909 2813 2125 2425 
Q 2331 2784 2625 3234 
L 3513 4581 
L 4219 4581 
L 2391 1941 
L 2391 0 
L 1784 0 
z
" id="ArialMT-59" transform="scale(0.015625)"/>
       <path d="M 2694 1069 
L 3275 997 
Q 3138 488 2766 206 
Q 2394 -75 1816 -75 
Q 1088 -75 661 373 
Q 234 822 234 1631 
Q 234 2469 665 2931 
Q 1097 3394 1784 3394 
Q 2450 3394 2872 2941 
Q 3294 2488 3294 1666 
Q 3294 1616 3291 1516 
L 816 1516 
Q 847 969 1125 678 
Q 1403 388 1819 388 
Q 2128 388 2347 550 
Q 2566 713 2694 1069 
z
M 847 1978 
L 2700 1978 
Q 2663 2397 2488 2606 
Q 2219 2931 1791 2931 
Q 1403 2931 1139 2672 
Q 875 2413 847 1978 
z
" id="ArialMT-65" transform="scale(0.015625)"/>
       <path d="M 2588 409 
Q 2275 144 1986 34 
Q 1697 -75 1366 -75 
Q 819 -75 525 192 
Q 231 459 231 875 
Q 231 1119 342 1320 
Q 453 1522 633 1644 
Q 813 1766 1038 1828 
Q 1203 1872 1538 1913 
Q 2219 1994 2541 2106 
Q 2544 2222 2544 2253 
Q 2544 2597 2384 2738 
Q 2169 2928 1744 2928 
Q 1347 2928 1158 2789 
Q 969 2650 878 2297 
L 328 2372 
Q 403 2725 575 2942 
Q 747 3159 1072 3276 
Q 1397 3394 1825 3394 
Q 2250 3394 2515 3294 
Q 2781 3194 2906 3042 
Q 3031 2891 3081 2659 
Q 3109 2516 3109 2141 
L 3109 1391 
Q 3109 606 3145 398 
Q 3181 191 3288 0 
L 2700 0 
Q 2613 175 2588 409 
z
M 2541 1666 
Q 2234 1541 1622 1453 
Q 1275 1403 1131 1340 
Q 988 1278 909 1158 
Q 831 1038 831 891 
Q 831 666 1001 516 
Q 1172 366 1500 366 
Q 1825 366 2078 508 
Q 2331 650 2450 897 
Q 2541 1088 2541 1459 
L 2541 1666 
z
" id="ArialMT-61" transform="scale(0.015625)"/>
       <path d="M 416 0 
L 416 3319 
L 922 3319 
L 922 2816 
Q 1116 3169 1280 3281 
Q 1444 3394 1641 3394 
Q 1925 3394 2219 3213 
L 2025 2691 
Q 1819 2813 1613 2813 
Q 1428 2813 1281 2702 
Q 1134 2591 1072 2394 
Q 978 2094 978 1738 
L 978 0 
L 416 0 
z
" id="ArialMT-72" transform="scale(0.015625)"/>
       <path d="M 197 991 
L 753 1078 
Q 800 744 1014 566 
Q 1228 388 1613 388 
Q 2000 388 2187 545 
Q 2375 703 2375 916 
Q 2375 1106 2209 1216 
Q 2094 1291 1634 1406 
Q 1016 1563 777 1677 
Q 538 1791 414 1992 
Q 291 2194 291 2438 
Q 291 2659 392 2848 
Q 494 3038 669 3163 
Q 800 3259 1026 3326 
Q 1253 3394 1513 3394 
Q 1903 3394 2198 3281 
Q 2494 3169 2634 2976 
Q 2775 2784 2828 2463 
L 2278 2388 
Q 2241 2644 2061 2787 
Q 1881 2931 1553 2931 
Q 1166 2931 1000 2803 
Q 834 2675 834 2503 
Q 834 2394 903 2306 
Q 972 2216 1119 2156 
Q 1203 2125 1616 2013 
Q 2213 1853 2448 1751 
Q 2684 1650 2818 1456 
Q 2953 1263 2953 975 
Q 2953 694 2789 445 
Q 2625 197 2315 61 
Q 2006 -75 1616 -75 
Q 969 -75 630 194 
Q 291 463 197 991 
z
" id="ArialMT-73" transform="scale(0.015625)"/>
      </defs>
      <use xlink:href="#ArialMT-59"/>
      <use x="57.574219" xlink:href="#ArialMT-65"/>
      <use x="113.189453" xlink:href="#ArialMT-61"/>
      <use x="168.804688" xlink:href="#ArialMT-72"/>
      <use x="202.105469" xlink:href="#ArialMT-73"/>
     </g>
    </g>
   </g>
   <g id="matplotlib.axis_2">
    <g id="ytick_1">
     <g id="line2d_3">
      <path clip-path="url(#pcfd8ea52d9)" d="M 44.066563 143.581935 
L 133.950433 143.581935 
" style="fill:none;stroke:#cccccc;stroke-linecap:round;"/>
     </g>
     <g id="text_4">
      <!-- 0.0 -->
      <g style="fill:#262626;" transform="translate(25.276563 147.518732)scale(0.11 -0.11)">
       <defs>
        <path d="M 581 0 
L 581 641 
L 1222 641 
L 1222 0 
L 581 0 
z
" id="ArialMT-2e" transform="scale(0.015625)"/>
       </defs>
       <use xlink:href="#ArialMT-30"/>
       <use x="55.615234" xlink:href="#ArialMT-2e"/>
       <use x="83.398438" xlink:href="#ArialMT-30"/>
      </g>
     </g>
    </g>
    <g id="ytick_2">
     <g id="line2d_4">
      <path clip-path="url(#pcfd8ea52d9)" d="M 44.066563 107.628387 
L 133.950433 107.628387 
" style="fill:none;stroke:#cccccc;stroke-linecap:round;"/>
     </g>
     <g id="text_5">
      <!-- 0.5 -->
      <g style="fill:#262626;" transform="translate(25.276563 111.565184)scale(0.11 -0.11)">
       <defs>
        <path d="M 266 1200 
L 856 1250 
Q 922 819 1161 601 
Q 1400 384 1738 384 
Q 2144 384 2425 690 
Q 2706 997 2706 1503 
Q 2706 1984 2436 2262 
Q 2166 2541 1728 2541 
Q 1456 2541 1237 2417 
Q 1019 2294 894 2097 
L 366 2166 
L 809 4519 
L 3088 4519 
L 3088 3981 
L 1259 3981 
L 1013 2750 
Q 1425 3038 1878 3038 
Q 2478 3038 2890 2622 
Q 3303 2206 3303 1553 
Q 3303 931 2941 478 
Q 2500 -78 1738 -78 
Q 1113 -78 717 272 
Q 322 622 266 1200 
z
" id="ArialMT-35" transform="scale(0.015625)"/>
       </defs>
       <use xlink:href="#ArialMT-30"/>
       <use x="55.615234" xlink:href="#ArialMT-2e"/>
       <use x="83.398438" xlink:href="#ArialMT-35"/>
      </g>
     </g>
    </g>
    <g id="ytick_3">
     <g id="line2d_5">
      <path clip-path="url(#pcfd8ea52d9)" d="M 44.066563 71.674839 
L 133.950433 71.674839 
" style="fill:none;stroke:#cccccc;stroke-linecap:round;"/>
     </g>
     <g id="text_6">
      <!-- 1.0 -->
      <g style="fill:#262626;" transform="translate(25.276563 75.611636)scale(0.11 -0.11)">
       <defs>
        <path d="M 2384 0 
L 1822 0 
L 1822 3584 
Q 1619 3391 1289 3197 
Q 959 3003 697 2906 
L 697 3450 
Q 1169 3672 1522 3987 
Q 1875 4303 2022 4600 
L 2384 4600 
L 2384 0 
z
" id="ArialMT-31" transform="scale(0.015625)"/>
       </defs>
       <use xlink:href="#ArialMT-31"/>
       <use x="55.615234" xlink:href="#ArialMT-2e"/>
       <use x="83.398438" xlink:href="#ArialMT-30"/>
      </g>
     </g>
    </g>
    <g id="text_7">
     <!-- Population (millions) -->
     <g style="fill:#262626;" transform="translate(18.119531 166.165781)rotate(-90)scale(0.15 -0.15)">
      <defs>
       <path d="M 494 0 
L 494 4581 
L 2222 4581 
Q 2678 4581 2919 4538 
Q 3256 4481 3484 4323 
Q 3713 4166 3852 3881 
Q 3991 3597 3991 3256 
Q 3991 2672 3619 2267 
Q 3247 1863 2275 1863 
L 1100 1863 
L 1100 0 
L 494 0 
z
M 1100 2403 
L 2284 2403 
Q 2872 2403 3119 2622 
Q 3366 2841 3366 3238 
Q 3366 3525 3220 3729 
Q 3075 3934 2838 4000 
Q 2684 4041 2272 4041 
L 1100 4041 
L 1100 2403 
z
" id="ArialMT-50" transform="scale(0.015625)"/>
       <path d="M 213 1659 
Q 213 2581 725 3025 
Q 1153 3394 1769 3394 
Q 2453 3394 2887 2945 
Q 3322 2497 3322 1706 
Q 3322 1066 3130 698 
Q 2938 331 2570 128 
Q 2203 -75 1769 -75 
Q 1072 -75 642 372 
Q 213 819 213 1659 
z
M 791 1659 
Q 791 1022 1069 705 
Q 1347 388 1769 388 
Q 2188 388 2466 706 
Q 2744 1025 2744 1678 
Q 2744 2294 2464 2611 
Q 2184 2928 1769 2928 
Q 1347 2928 1069 2612 
Q 791 2297 791 1659 
z
" id="ArialMT-6f" transform="scale(0.015625)"/>
       <path d="M 422 -1272 
L 422 3319 
L 934 3319 
L 934 2888 
Q 1116 3141 1344 3267 
Q 1572 3394 1897 3394 
Q 2322 3394 2647 3175 
Q 2972 2956 3137 2557 
Q 3303 2159 3303 1684 
Q 3303 1175 3120 767 
Q 2938 359 2589 142 
Q 2241 -75 1856 -75 
Q 1575 -75 1351 44 
Q 1128 163 984 344 
L 984 -1272 
L 422 -1272 
z
M 931 1641 
Q 931 1000 1190 694 
Q 1450 388 1819 388 
Q 2194 388 2461 705 
Q 2728 1022 2728 1688 
Q 2728 2322 2467 2637 
Q 2206 2953 1844 2953 
Q 1484 2953 1207 2617 
Q 931 2281 931 1641 
z
" id="ArialMT-70" transform="scale(0.015625)"/>
       <path d="M 2597 0 
L 2597 488 
Q 2209 -75 1544 -75 
Q 1250 -75 995 37 
Q 741 150 617 320 
Q 494 491 444 738 
Q 409 903 409 1263 
L 409 3319 
L 972 3319 
L 972 1478 
Q 972 1038 1006 884 
Q 1059 663 1231 536 
Q 1403 409 1656 409 
Q 1909 409 2131 539 
Q 2353 669 2445 892 
Q 2538 1116 2538 1541 
L 2538 3319 
L 3100 3319 
L 3100 0 
L 2597 0 
z
" id="ArialMT-75" transform="scale(0.015625)"/>
       <path d="M 409 0 
L 409 4581 
L 972 4581 
L 972 0 
L 409 0 
z
" id="ArialMT-6c" transform="scale(0.015625)"/>
       <path d="M 1650 503 
L 1731 6 
Q 1494 -44 1306 -44 
Q 1000 -44 831 53 
Q 663 150 594 308 
Q 525 466 525 972 
L 525 2881 
L 113 2881 
L 113 3319 
L 525 3319 
L 525 4141 
L 1084 4478 
L 1084 3319 
L 1650 3319 
L 1650 2881 
L 1084 2881 
L 1084 941 
Q 1084 700 1114 631 
Q 1144 563 1211 522 
Q 1278 481 1403 481 
Q 1497 481 1650 503 
z
" id="ArialMT-74" transform="scale(0.015625)"/>
       <path d="M 425 3934 
L 425 4581 
L 988 4581 
L 988 3934 
L 425 3934 
z
M 425 0 
L 425 3319 
L 988 3319 
L 988 0 
L 425 0 
z
" id="ArialMT-69" transform="scale(0.015625)"/>
       <path d="M 422 0 
L 422 3319 
L 928 3319 
L 928 2847 
Q 1294 3394 1984 3394 
Q 2284 3394 2536 3286 
Q 2788 3178 2913 3003 
Q 3038 2828 3088 2588 
Q 3119 2431 3119 2041 
L 3119 0 
L 2556 0 
L 2556 2019 
Q 2556 2363 2490 2533 
Q 2425 2703 2258 2804 
Q 2091 2906 1866 2906 
Q 1506 2906 1245 2678 
Q 984 2450 984 1813 
L 984 0 
L 422 0 
z
" id="ArialMT-6e" transform="scale(0.015625)"/>
       <path id="ArialMT-20" transform="scale(0.015625)"/>
       <path d="M 1497 -1347 
Q 1031 -759 709 28 
Q 388 816 388 1659 
Q 388 2403 628 3084 
Q 909 3875 1497 4659 
L 1900 4659 
Q 1522 4009 1400 3731 
Q 1209 3300 1100 2831 
Q 966 2247 966 1656 
Q 966 153 1900 -1347 
L 1497 -1347 
z
" id="ArialMT-28" transform="scale(0.015625)"/>
       <path d="M 422 0 
L 422 3319 
L 925 3319 
L 925 2853 
Q 1081 3097 1340 3245 
Q 1600 3394 1931 3394 
Q 2300 3394 2536 3241 
Q 2772 3088 2869 2813 
Q 3263 3394 3894 3394 
Q 4388 3394 4653 3120 
Q 4919 2847 4919 2278 
L 4919 0 
L 4359 0 
L 4359 2091 
Q 4359 2428 4304 2576 
Q 4250 2725 4106 2815 
Q 3963 2906 3769 2906 
Q 3419 2906 3187 2673 
Q 2956 2441 2956 1928 
L 2956 0 
L 2394 0 
L 2394 2156 
Q 2394 2531 2256 2718 
Q 2119 2906 1806 2906 
Q 1569 2906 1367 2781 
Q 1166 2656 1075 2415 
Q 984 2175 984 1722 
L 984 0 
L 422 0 
z
" id="ArialMT-6d" transform="scale(0.015625)"/>
       <path d="M 791 -1347 
L 388 -1347 
Q 1322 153 1322 1656 
Q 1322 2244 1188 2822 
Q 1081 3291 891 3722 
Q 769 4003 388 4659 
L 791 4659 
Q 1378 3875 1659 3084 
Q 1900 2403 1900 1659 
Q 1900 816 1576 28 
Q 1253 -759 791 -1347 
z
" id="ArialMT-29" transform="scale(0.015625)"/>
      </defs>
      <use xlink:href="#ArialMT-50"/>
      <use x="66.699219" xlink:href="#ArialMT-6f"/>
      <use x="122.314453" xlink:href="#ArialMT-70"/>
      <use x="177.929688" xlink:href="#ArialMT-75"/>
      <use x="233.544922" xlink:href="#ArialMT-6c"/>
      <use x="255.761719" xlink:href="#ArialMT-61"/>
      <use x="311.376953" xlink:href="#ArialMT-74"/>
      <use x="339.160156" xlink:href="#ArialMT-69"/>
      <use x="361.376953" xlink:href="#ArialMT-6f"/>
      <use x="416.992188" xlink:href="#ArialMT-6e"/>
      <use x="472.607422" xlink:href="#ArialMT-20"/>
      <use x="500.390625" xlink:href="#ArialMT-28"/>
      <use x="533.691406" xlink:href="#ArialMT-6d"/>
      <use x="616.992188" xlink:href="#ArialMT-69"/>
      <use x="639.208984" xlink:href="#ArialMT-6c"/>
      <use x="661.425781" xlink:href="#ArialMT-6c"/>
      <use x="683.642578" xlink:href="#ArialMT-69"/>
      <use x="705.859375" xlink:href="#ArialMT-6f"/>
      <use x="761.474609" xlink:href="#ArialMT-6e"/>
      <use x="817.089844" xlink:href="#ArialMT-73"/>
      <use x="867.089844" xlink:href="#ArialMT-29"/>
     </g>
    </g>
   </g>
   <g id="line2d_6">
    <path clip-path="url(#pcfd8ea52d9)" d="M 48.152193 142.262166 
L 48.972052 142.513207 
L 49.518625 142.635854 
L 51.431629 142.478768 
L 62.363082 141.671842 
L 67.555522 141.047531 
L 71.928103 140.288448 
L 76.027398 139.347197 
L 81.219838 137.89709 
L 88.871855 135.742094 
L 92.97115 134.840647 
L 97.070444 134.182362 
L 101.443026 133.715454 
L 106.908752 133.375706 
L 114.287483 133.162165 
L 126.858653 133.053434 
L 129.864803 133.044971 
L 129.864803 133.044971 
" style="fill:none;stroke:#482475;stroke-linecap:round;stroke-width:1.5;"/>
   </g>
   <g id="line2d_7">
    <path clip-path="url(#pcfd8ea52d9)" d="M 48.152193 142.262166 
L 48.698766 142.365312 
L 49.245338 142.718641 
L 50.065197 142.805624 
L 53.617919 142.982491 
L 57.990501 142.923504 
L 62.909654 142.633215 
L 67.282235 142.166307 
L 71.108244 141.553979 
L 75.207539 140.664334 
L 79.853406 139.402569 
L 90.784859 136.311033 
L 94.884154 135.451676 
L 99.256735 134.761464 
L 104.449175 134.172239 
L 111.008047 133.665654 
L 118.386777 133.322143 
L 127.678512 133.12427 
L 129.864803 133.100962 
L 129.864803 133.100962 
" style="fill:none;stroke:#355f8d;stroke-linecap:round;stroke-width:1.5;"/>
   </g>
   <g id="line2d_8">
    <path clip-path="url(#pcfd8ea52d9)" d="M 48.152193 142.262166 
L 48.698766 142.365312 
L 49.245338 142.811939 
L 50.065197 142.986181 
L 51.978201 143.148133 
L 55.257637 143.123445 
L 60.723364 142.840566 
L 65.642518 142.386654 
L 70.015099 141.76234 
L 74.114393 140.943372 
L 78.486975 139.827358 
L 91.604718 136.267195 
L 95.430727 135.571331 
L 99.530021 135.048166 
L 104.449175 134.656751 
L 110.734761 134.394826 
L 120.573068 134.236851 
L 129.864803 134.183208 
L 129.864803 134.183208 
" style="fill:none;stroke:#21918c;stroke-linecap:round;stroke-width:1.5;"/>
   </g>
   <g id="line2d_9">
    <path clip-path="url(#pcfd8ea52d9)" d="M 48.152193 142.262166 
L 48.698766 142.365312 
L 49.245338 142.898999 
L 49.791911 143.072548 
L 51.431629 143.22016 
L 54.711065 143.160655 
L 60.99665 142.821633 
L 65.915804 142.354479 
L 70.288385 141.71507 
L 74.38768 140.880481 
L 78.760261 139.751032 
L 91.331432 136.325267 
L 95.15744 135.614266 
L 99.256735 135.07714 
L 104.175889 134.67398 
L 110.461474 134.404145 
L 120.026495 134.246881 
L 129.864803 134.200779 
L 129.864803 134.200779 
" style="fill:none;stroke:#44bf70;stroke-linecap:round;stroke-width:1.5;"/>
   </g>
   <g id="line2d_10">
    <path clip-path="url(#pcfd8ea52d9)" d="M 48.152193 142.262166 
L 48.698766 142.365312 
L 49.245338 142.979819 
L 49.791911 143.163416 
L 51.158343 143.257196 
L 55.257637 143.14109 
L 61.816509 142.758763 
L 66.735663 142.252676 
L 70.834958 141.617405 
L 74.934252 140.751674 
L 79.58012 139.518616 
L 90.238286 136.567705 
L 94.064295 135.795594 
L 98.16359 135.199839 
L 102.809457 134.764603 
L 108.54847 134.465607 
L 116.74706 134.280954 
L 129.864803 134.200785 
L 129.864803 134.200785 
" style="fill:none;stroke:#bddf26;stroke-linecap:round;stroke-width:1.5;"/>
   </g>
   <g id="patch_3">
    <path d="M 44.066563 143.581935 
L 44.066563 53.698065 
" style="fill:none;stroke:#cccccc;stroke-linecap:square;stroke-linejoin:miter;"/>
   </g>
   <g id="patch_4">
    <path d="M 133.950433 143.581935 
L 133.950433 53.698065 
" style="fill:none;stroke:#cccccc;stroke-linecap:square;stroke-linejoin:miter;"/>
   </g>
   <g id="patch_5">
    <path d="M 44.066563 143.581935 
L 133.950433 143.581935 
" style="fill:none;stroke:#cccccc;stroke-linecap:square;stroke-linejoin:miter;"/>
   </g>
   <g id="patch_6">
    <path d="M 44.066563 53.698065 
L 133.950433 53.698065 
" style="fill:none;stroke:#cccccc;stroke-linecap:square;stroke-linejoin:miter;"/>
   </g>
   <g id="text_8">
    <!-- Starved Rock -->
    <g style="fill:#262626;" transform="translate(43.992092 47.698065)scale(0.15 -0.15)">
     <defs>
      <path d="M 288 1472 
L 859 1522 
Q 900 1178 1048 958 
Q 1197 738 1509 602 
Q 1822 466 2213 466 
Q 2559 466 2825 569 
Q 3091 672 3220 851 
Q 3350 1031 3350 1244 
Q 3350 1459 3225 1620 
Q 3100 1781 2813 1891 
Q 2628 1963 1997 2114 
Q 1366 2266 1113 2400 
Q 784 2572 623 2826 
Q 463 3081 463 3397 
Q 463 3744 659 4045 
Q 856 4347 1234 4503 
Q 1613 4659 2075 4659 
Q 2584 4659 2973 4495 
Q 3363 4331 3572 4012 
Q 3781 3694 3797 3291 
L 3216 3247 
Q 3169 3681 2898 3903 
Q 2628 4125 2100 4125 
Q 1550 4125 1298 3923 
Q 1047 3722 1047 3438 
Q 1047 3191 1225 3031 
Q 1400 2872 2139 2705 
Q 2878 2538 3153 2413 
Q 3553 2228 3743 1945 
Q 3934 1663 3934 1294 
Q 3934 928 3725 604 
Q 3516 281 3123 101 
Q 2731 -78 2241 -78 
Q 1619 -78 1198 103 
Q 778 284 539 648 
Q 300 1013 288 1472 
z
" id="ArialMT-53" transform="scale(0.015625)"/>
      <path d="M 1344 0 
L 81 3319 
L 675 3319 
L 1388 1331 
Q 1503 1009 1600 663 
Q 1675 925 1809 1294 
L 2547 3319 
L 3125 3319 
L 1869 0 
L 1344 0 
z
" id="ArialMT-76" transform="scale(0.015625)"/>
      <path d="M 2575 0 
L 2575 419 
Q 2259 -75 1647 -75 
Q 1250 -75 917 144 
Q 584 363 401 755 
Q 219 1147 219 1656 
Q 219 2153 384 2558 
Q 550 2963 881 3178 
Q 1213 3394 1622 3394 
Q 1922 3394 2156 3267 
Q 2391 3141 2538 2938 
L 2538 4581 
L 3097 4581 
L 3097 0 
L 2575 0 
z
M 797 1656 
Q 797 1019 1065 703 
Q 1334 388 1700 388 
Q 2069 388 2326 689 
Q 2584 991 2584 1609 
Q 2584 2291 2321 2609 
Q 2059 2928 1675 2928 
Q 1300 2928 1048 2622 
Q 797 2316 797 1656 
z
" id="ArialMT-64" transform="scale(0.015625)"/>
      <path d="M 503 0 
L 503 4581 
L 2534 4581 
Q 3147 4581 3465 4457 
Q 3784 4334 3975 4021 
Q 4166 3709 4166 3331 
Q 4166 2844 3850 2509 
Q 3534 2175 2875 2084 
Q 3116 1969 3241 1856 
Q 3506 1613 3744 1247 
L 4541 0 
L 3778 0 
L 3172 953 
Q 2906 1366 2734 1584 
Q 2563 1803 2427 1890 
Q 2291 1978 2150 2013 
Q 2047 2034 1813 2034 
L 1109 2034 
L 1109 0 
L 503 0 
z
M 1109 2559 
L 2413 2559 
Q 2828 2559 3062 2645 
Q 3297 2731 3419 2920 
Q 3541 3109 3541 3331 
Q 3541 3656 3305 3865 
Q 3069 4075 2559 4075 
L 1109 4075 
L 1109 2559 
z
" id="ArialMT-52" transform="scale(0.015625)"/>
      <path d="M 2588 1216 
L 3141 1144 
Q 3050 572 2676 248 
Q 2303 -75 1759 -75 
Q 1078 -75 664 370 
Q 250 816 250 1647 
Q 250 2184 428 2587 
Q 606 2991 970 3192 
Q 1334 3394 1763 3394 
Q 2303 3394 2647 3120 
Q 2991 2847 3088 2344 
L 2541 2259 
Q 2463 2594 2264 2762 
Q 2066 2931 1784 2931 
Q 1359 2931 1093 2626 
Q 828 2322 828 1663 
Q 828 994 1084 691 
Q 1341 388 1753 388 
Q 2084 388 2306 591 
Q 2528 794 2588 1216 
z
" id="ArialMT-63" transform="scale(0.015625)"/>
      <path d="M 425 0 
L 425 4581 
L 988 4581 
L 988 1969 
L 2319 3319 
L 3047 3319 
L 1778 2088 
L 3175 0 
L 2481 0 
L 1384 1697 
L 988 1316 
L 988 0 
L 425 0 
z
" id="ArialMT-6b" transform="scale(0.015625)"/>
     </defs>
     <use xlink:href="#ArialMT-53"/>
     <use x="66.699219" xlink:href="#ArialMT-74"/>
     <use x="94.482422" xlink:href="#ArialMT-61"/>
     <use x="150.097656" xlink:href="#ArialMT-72"/>
     <use x="183.398438" xlink:href="#ArialMT-76"/>
     <use x="233.398438" xlink:href="#ArialMT-65"/>
     <use x="289.013672" xlink:href="#ArialMT-64"/>
     <use x="344.628906" xlink:href="#ArialMT-20"/>
     <use x="372.412109" xlink:href="#ArialMT-52"/>
     <use x="444.628906" xlink:href="#ArialMT-6f"/>
     <use x="500.244141" xlink:href="#ArialMT-63"/>
     <use x="550.244141" xlink:href="#ArialMT-6b"/>
    </g>
   </g>
  </g>
  <g id="axes_2">
   <g id="patch_7">
    <path d="M 138.444627 143.581935 
L 228.328498 143.581935 
L 228.328498 53.698065 
L 138.444627 53.698065 
z
" style="fill:#ffffff;"/>
   </g>
   <g id="matplotlib.axis_3">
    <g id="xtick_3">
     <g id="line2d_11">
      <path clip-path="url(#pf30c88f41c)" d="M 142.530258 143.581935 
L 142.530258 53.698065 
" style="fill:none;stroke:#cccccc;stroke-linecap:round;"/>
     </g>
     <g id="text_9">
      <!-- 0 -->
      <g style="fill:#262626;" transform="translate(139.471742 154.955529)scale(0.11 -0.11)">
       <use xlink:href="#ArialMT-30"/>
      </g>
     </g>
    </g>
    <g id="xtick_4">
     <g id="line2d_12">
      <path clip-path="url(#pf30c88f41c)" d="M 197.187522 143.581935 
L 197.187522 53.698065 
" style="fill:none;stroke:#cccccc;stroke-linecap:round;"/>
     </g>
     <g id="text_10">
      <!-- 200 -->
      <g style="fill:#262626;" transform="translate(188.011975 154.955529)scale(0.11 -0.11)">
       <use xlink:href="#ArialMT-32"/>
       <use x="55.615234" xlink:href="#ArialMT-30"/>
       <use x="111.230469" xlink:href="#ArialMT-30"/>
      </g>
     </g>
    </g>
    <g id="text_11">
     <!-- Years -->
     <g style="fill:#262626;" transform="translate(164.479531 171.878498)scale(0.15 -0.15)">
      <use xlink:href="#ArialMT-59"/>
      <use x="57.574219" xlink:href="#ArialMT-65"/>
      <use x="113.189453" xlink:href="#ArialMT-61"/>
      <use x="168.804688" xlink:href="#ArialMT-72"/>
      <use x="202.105469" xlink:href="#ArialMT-73"/>
     </g>
    </g>
   </g>
   <g id="matplotlib.axis_4">
    <g id="ytick_4">
     <g id="line2d_13">
      <path clip-path="url(#pf30c88f41c)" d="M 138.444627 143.581935 
L 228.328498 143.581935 
" style="fill:none;stroke:#cccccc;stroke-linecap:round;"/>
     </g>
    </g>
    <g id="ytick_5">
     <g id="line2d_14">
      <path clip-path="url(#pf30c88f41c)" d="M 138.444627 107.628387 
L 228.328498 107.628387 
" style="fill:none;stroke:#cccccc;stroke-linecap:round;"/>
     </g>
    </g>
    <g id="ytick_6">
     <g id="line2d_15">
      <path clip-path="url(#pf30c88f41c)" d="M 138.444627 71.674839 
L 228.328498 71.674839 
" style="fill:none;stroke:#cccccc;stroke-linecap:round;"/>
     </g>
    </g>
   </g>
   <g id="line2d_16">
    <path clip-path="url(#pf30c88f41c)" d="M 142.530258 143.374439 
L 146.356266 143.364374 
L 154.008283 143.063845 
L 159.474009 142.632455 
L 163.846591 142.075965 
L 167.945885 141.336247 
L 172.318467 140.312948 
L 187.075928 136.611757 
L 191.175223 135.977901 
L 195.547804 135.526129 
L 201.01353 135.196239 
L 208.665547 134.983809 
L 221.783291 134.879829 
L 224.242867 134.873558 
L 224.242867 134.873558 
" style="fill:none;stroke:#482475;stroke-linecap:round;stroke-width:1.5;"/>
   </g>
   <g id="line2d_17">
    <path clip-path="url(#pf30c88f41c)" d="M 142.530258 143.374439 
L 146.356266 143.366417 
L 154.008283 143.067719 
L 159.474009 142.63681 
L 163.846591 142.080508 
L 167.945885 141.340841 
L 172.318467 140.317541 
L 187.075928 136.615852 
L 191.175223 135.981644 
L 195.547804 135.529362 
L 201.01353 135.198684 
L 208.665547 134.985154 
L 221.783291 134.880143 
L 224.242867 134.87379 
L 224.242867 134.87379 
" style="fill:none;stroke:#355f8d;stroke-linecap:round;stroke-width:1.5;"/>
   </g>
   <g id="line2d_18">
    <path clip-path="url(#pf30c88f41c)" d="M 142.530258 143.374439 
L 146.356266 143.367287 
L 154.008283 143.067976 
L 159.474009 142.636899 
L 163.846591 142.080552 
L 167.945885 141.340914 
L 172.318467 140.317665 
L 187.075928 136.616531 
L 191.175223 135.982677 
L 195.547804 135.530907 
L 201.01353 135.201017 
L 208.665547 134.988582 
L 221.783291 134.884558 
L 224.242867 134.878269 
L 224.242867 134.878269 
" style="fill:none;stroke:#21918c;stroke-linecap:round;stroke-width:1.5;"/>
   </g>
   <g id="line2d_19">
    <path clip-path="url(#pf30c88f41c)" d="M 142.530258 143.374439 
L 146.356266 143.367605 
L 154.008283 143.067982 
L 159.474009 142.636899 
L 163.846591 142.080552 
L 167.945885 141.340914 
L 172.318467 140.317665 
L 187.075928 136.616531 
L 191.175223 135.982679 
L 195.547804 135.53091 
L 201.01353 135.201021 
L 208.665547 134.988592 
L 221.783291 134.884612 
L 224.242867 134.878341 
L 224.242867 134.878341 
" style="fill:none;stroke:#44bf70;stroke-linecap:round;stroke-width:1.5;"/>
   </g>
   <g id="line2d_20">
    <path clip-path="url(#pf30c88f41c)" d="M 142.530258 143.374439 
L 146.356266 143.367704 
L 154.008283 143.067982 
L 159.474009 142.636899 
L 163.846591 142.080552 
L 167.945885 141.340914 
L 172.318467 140.317665 
L 187.075928 136.616531 
L 191.175223 135.982679 
L 195.547804 135.53091 
L 201.01353 135.201021 
L 208.665547 134.988592 
L 221.783291 134.884612 
L 224.242867 134.878341 
L 224.242867 134.878341 
" style="fill:none;stroke:#bddf26;stroke-linecap:round;stroke-width:1.5;"/>
   </g>
   <g id="patch_8">
    <path d="M 138.444627 143.581935 
L 138.444627 53.698065 
" style="fill:none;stroke:#cccccc;stroke-linecap:square;stroke-linejoin:miter;"/>
   </g>
   <g id="patch_9">
    <path d="M 228.328498 143.581935 
L 228.328498 53.698065 
" style="fill:none;stroke:#cccccc;stroke-linecap:square;stroke-linejoin:miter;"/>
   </g>
   <g id="patch_10">
    <path d="M 138.444627 143.581935 
L 228.328498 143.581935 
" style="fill:none;stroke:#cccccc;stroke-linecap:square;stroke-linejoin:miter;"/>
   </g>
   <g id="patch_11">
    <path d="M 138.444627 53.698065 
L 228.328498 53.698065 
" style="fill:none;stroke:#cccccc;stroke-linecap:square;stroke-linejoin:miter;"/>
   </g>
   <g id="text_12">
    <!-- Marseilles -->
    <g style="fill:#262626;" transform="translate(149.630703 47.698065)scale(0.15 -0.15)">
     <defs>
      <path d="M 475 0 
L 475 4581 
L 1388 4581 
L 2472 1338 
Q 2622 884 2691 659 
Q 2769 909 2934 1394 
L 4031 4581 
L 4847 4581 
L 4847 0 
L 4263 0 
L 4263 3834 
L 2931 0 
L 2384 0 
L 1059 3900 
L 1059 0 
L 475 0 
z
" id="ArialMT-4d" transform="scale(0.015625)"/>
     </defs>
     <use xlink:href="#ArialMT-4d"/>
     <use x="83.300781" xlink:href="#ArialMT-61"/>
     <use x="138.916016" xlink:href="#ArialMT-72"/>
     <use x="172.216797" xlink:href="#ArialMT-73"/>
     <use x="222.216797" xlink:href="#ArialMT-65"/>
     <use x="277.832031" xlink:href="#ArialMT-69"/>
     <use x="300.048828" xlink:href="#ArialMT-6c"/>
     <use x="322.265625" xlink:href="#ArialMT-6c"/>
     <use x="344.482422" xlink:href="#ArialMT-65"/>
     <use x="400.097656" xlink:href="#ArialMT-73"/>
    </g>
   </g>
  </g>
  <g id="axes_3">
   <g id="patch_12">
    <path d="M 232.822692 143.581935 
L 322.706563 143.581935 
L 322.706563 53.698065 
L 232.822692 53.698065 
z
" style="fill:#ffffff;"/>
   </g>
   <g id="matplotlib.axis_5">
    <g id="xtick_5">
     <g id="line2d_21">
      <path clip-path="url(#p78758ab568)" d="M 236.908322 143.581935 
L 236.908322 53.698065 
" style="fill:none;stroke:#cccccc;stroke-linecap:round;"/>
     </g>
     <g id="text_13">
      <!-- 0 -->
      <g style="fill:#262626;" transform="translate(233.849806 154.955529)scale(0.11 -0.11)">
       <use xlink:href="#ArialMT-30"/>
      </g>
     </g>
    </g>
    <g id="xtick_6">
     <g id="line2d_22">
      <path clip-path="url(#p78758ab568)" d="M 291.565586 143.581935 
L 291.565586 53.698065 
" style="fill:none;stroke:#cccccc;stroke-linecap:round;"/>
     </g>
     <g id="text_14">
      <!-- 200 -->
      <g style="fill:#262626;" transform="translate(282.390039 154.955529)scale(0.11 -0.11)">
       <use xlink:href="#ArialMT-32"/>
       <use x="55.615234" xlink:href="#ArialMT-30"/>
       <use x="111.230469" xlink:href="#ArialMT-30"/>
      </g>
     </g>
    </g>
    <g id="text_15">
     <!-- Years -->
     <g style="fill:#262626;" transform="translate(258.857596 171.878498)scale(0.15 -0.15)">
      <use xlink:href="#ArialMT-59"/>
      <use x="57.574219" xlink:href="#ArialMT-65"/>
      <use x="113.189453" xlink:href="#ArialMT-61"/>
      <use x="168.804688" xlink:href="#ArialMT-72"/>
      <use x="202.105469" xlink:href="#ArialMT-73"/>
     </g>
    </g>
   </g>
   <g id="matplotlib.axis_6">
    <g id="ytick_7">
     <g id="line2d_23">
      <path clip-path="url(#p78758ab568)" d="M 232.822692 143.581935 
L 322.706563 143.581935 
" style="fill:none;stroke:#cccccc;stroke-linecap:round;"/>
     </g>
    </g>
    <g id="ytick_8">
     <g id="line2d_24">
      <path clip-path="url(#p78758ab568)" d="M 232.822692 107.628387 
L 322.706563 107.628387 
" style="fill:none;stroke:#cccccc;stroke-linecap:round;"/>
     </g>
    </g>
    <g id="ytick_9">
     <g id="line2d_25">
      <path clip-path="url(#p78758ab568)" d="M 232.822692 71.674839 
L 322.706563 71.674839 
" style="fill:none;stroke:#cccccc;stroke-linecap:round;"/>
     </g>
    </g>
   </g>
   <g id="line2d_26">
    <path clip-path="url(#p78758ab568)" d="M 236.908322 140.794776 
L 237.454895 141.006148 
L 238.001467 141.531651 
L 238.274754 141.552292 
L 239.367899 141.259368 
L 241.554189 140.857298 
L 245.106912 140.025029 
L 248.113061 139.097743 
L 250.572638 138.124217 
L 252.758929 137.047494 
L 254.945219 135.726392 
L 257.13151 134.117238 
L 259.044514 132.442571 
L 260.957518 130.49992 
L 263.143809 127.944754 
L 265.330099 125.050636 
L 268.062963 121.040639 
L 277.627984 106.523542 
L 279.814274 103.785601 
L 282.000565 101.415799 
L 283.913569 99.650884 
L 285.826573 98.16157 
L 287.739578 96.924568 
L 289.925868 95.782214 
L 292.112159 94.884744 
L 294.571736 94.112354 
L 297.304599 93.483267 
L 300.584035 92.961543 
L 304.68333 92.551043 
L 310.149056 92.252898 
L 318.074359 92.068359 
L 318.620932 92.061382 
L 318.620932 92.061382 
" style="fill:none;stroke:#482475;stroke-linecap:round;stroke-width:1.5;"/>
   </g>
   <g id="line2d_27">
    <path clip-path="url(#p78758ab568)" d="M 236.908322 140.794776 
L 237.454895 141.006148 
L 238.001467 141.577062 
L 238.54804 141.548266 
L 239.367899 141.410298 
L 241.280903 141.162102 
L 244.287053 140.587797 
L 247.293202 139.786472 
L 249.752779 138.918258 
L 252.212356 137.805976 
L 254.398647 136.565512 
L 256.584937 135.043658 
L 258.497941 133.449149 
L 260.410946 131.587463 
L 262.597236 129.123207 
L 264.783527 126.310817 
L 267.243104 122.787013 
L 270.795826 117.267874 
L 275.71498 109.673983 
L 278.174556 106.279672 
L 280.360847 103.61736 
L 282.547138 101.324798 
L 284.460142 99.622399 
L 286.373146 98.186857 
L 288.559437 96.84011 
L 290.745727 95.763759 
L 293.205304 94.819412 
L 295.938167 94.031956 
L 298.944317 93.406053 
L 302.497039 92.899108 
L 306.86962 92.507392 
L 312.608633 92.227396 
L 318.620932 92.086926 
L 318.620932 92.086926 
" style="fill:none;stroke:#355f8d;stroke-linecap:round;stroke-width:1.5;"/>
   </g>
   <g id="line2d_28">
    <path clip-path="url(#p78758ab568)" d="M 236.908322 140.794776 
L 237.454895 141.006148 
L 238.001467 141.619626 
L 238.54804 141.619475 
L 239.367899 141.504182 
L 241.007617 141.297871 
L 244.013766 140.71159 
L 247.019916 139.906782 
L 249.752779 138.940005 
L 252.212356 137.819483 
L 254.398647 136.574346 
L 256.584937 135.049436 
L 258.497941 133.454155 
L 260.410946 131.593814 
L 262.597236 129.131497 
L 264.783527 126.321626 
L 267.243104 122.801557 
L 270.795826 117.290108 
L 275.441693 110.111678 
L 277.90127 106.687849 
L 280.087561 103.99476 
L 282.273851 101.672452 
L 284.186856 99.948167 
L 286.09986 98.496644 
L 288.012864 97.293473 
L 290.199155 96.184325 
L 292.385445 95.314256 
L 294.845022 94.566348 
L 297.577885 93.957768 
L 300.857321 93.453336 
L 304.956616 93.056366 
L 310.422342 92.767198 
L 318.620932 92.580668 
L 318.620932 92.580668 
" style="fill:none;stroke:#21918c;stroke-linecap:round;stroke-width:1.5;"/>
   </g>
   <g id="line2d_29">
    <path clip-path="url(#p78758ab568)" d="M 236.908322 140.794776 
L 237.454895 141.006148 
L 238.001467 141.659344 
L 238.274754 141.724995 
L 245.926771 140.229754 
L 248.659634 139.358525 
L 251.119211 138.350902 
L 253.305501 137.229237 
L 255.491792 135.849523 
L 257.404796 134.397097 
L 259.3178 132.690184 
L 261.230805 130.712519 
L 263.417095 128.116947 
L 265.876672 124.798756 
L 268.882822 120.297905 
L 276.534839 108.543965 
L 278.994415 105.296524 
L 281.180706 102.786383 
L 283.09371 100.898963 
L 285.006715 99.294064 
L 286.919719 97.952409 
L 289.106009 96.706331 
L 291.2923 95.722541 
L 293.751877 94.872419 
L 296.48474 94.177645 
L 299.49089 93.639453 
L 303.316898 93.192016 
L 308.236052 92.861513 
L 315.06821 92.644438 
L 318.620932 92.588684 
L 318.620932 92.588684 
" style="fill:none;stroke:#44bf70;stroke-linecap:round;stroke-width:1.5;"/>
   </g>
   <g id="line2d_30">
    <path clip-path="url(#p78758ab568)" d="M 236.908322 140.794776 
L 237.454895 141.006148 
L 238.001467 141.696216 
L 238.274754 141.766024 
L 245.380198 140.378671 
L 248.386348 139.456315 
L 250.845924 138.475156 
L 253.032215 137.382656 
L 255.218506 136.037589 
L 257.13151 134.619666 
L 259.044514 132.950341 
L 260.957518 131.011922 
L 263.143809 128.46051 
L 265.330099 125.569242 
L 268.062963 121.561853 
L 277.627984 107.049117 
L 279.814274 104.311612 
L 282.000565 101.942135 
L 283.913569 100.177438 
L 285.826573 98.688294 
L 287.739578 97.451423 
L 289.925868 96.309183 
L 292.112159 95.411799 
L 294.571736 94.639481 
L 297.304599 94.01045 
L 300.584035 93.488771 
L 304.68333 93.078306 
L 310.149056 92.780187 
L 318.074359 92.595662 
L 318.620932 92.588686 
L 318.620932 92.588686 
" style="fill:none;stroke:#bddf26;stroke-linecap:round;stroke-width:1.5;"/>
   </g>
   <g id="patch_13">
    <path d="M 232.822692 143.581935 
L 232.822692 53.698065 
" style="fill:none;stroke:#cccccc;stroke-linecap:square;stroke-linejoin:miter;"/>
   </g>
   <g id="patch_14">
    <path d="M 322.706563 143.581935 
L 322.706563 53.698065 
" style="fill:none;stroke:#cccccc;stroke-linecap:square;stroke-linejoin:miter;"/>
   </g>
   <g id="patch_15">
    <path d="M 232.822692 143.581935 
L 322.706563 143.581935 
" style="fill:none;stroke:#cccccc;stroke-linecap:square;stroke-linejoin:miter;"/>
   </g>
   <g id="patch_16">
    <path d="M 232.822692 53.698065 
L 322.706563 53.698065 
" style="fill:none;stroke:#cccccc;stroke-linecap:square;stroke-linejoin:miter;"/>
   </g>
   <g id="text_16">
    <!-- Dresden Island -->
    <g style="fill:#262626;" transform="translate(227.32244 47.698065)scale(0.15 -0.15)">
     <defs>
      <path d="M 494 0 
L 494 4581 
L 2072 4581 
Q 2606 4581 2888 4516 
Q 3281 4425 3559 4188 
Q 3922 3881 4101 3404 
Q 4281 2928 4281 2316 
Q 4281 1794 4159 1391 
Q 4038 988 3847 723 
Q 3656 459 3429 307 
Q 3203 156 2883 78 
Q 2563 0 2147 0 
L 494 0 
z
M 1100 541 
L 2078 541 
Q 2531 541 2789 625 
Q 3047 709 3200 863 
Q 3416 1078 3536 1442 
Q 3656 1806 3656 2325 
Q 3656 3044 3420 3430 
Q 3184 3816 2847 3947 
Q 2603 4041 2063 4041 
L 1100 4041 
L 1100 541 
z
" id="ArialMT-44" transform="scale(0.015625)"/>
      <path d="M 597 0 
L 597 4581 
L 1203 4581 
L 1203 0 
L 597 0 
z
" id="ArialMT-49" transform="scale(0.015625)"/>
     </defs>
     <use xlink:href="#ArialMT-44"/>
     <use x="72.216797" xlink:href="#ArialMT-72"/>
     <use x="105.517578" xlink:href="#ArialMT-65"/>
     <use x="161.132812" xlink:href="#ArialMT-73"/>
     <use x="211.132812" xlink:href="#ArialMT-64"/>
     <use x="266.748047" xlink:href="#ArialMT-65"/>
     <use x="322.363281" xlink:href="#ArialMT-6e"/>
     <use x="377.978516" xlink:href="#ArialMT-20"/>
     <use x="405.761719" xlink:href="#ArialMT-49"/>
     <use x="433.544922" xlink:href="#ArialMT-73"/>
     <use x="483.544922" xlink:href="#ArialMT-6c"/>
     <use x="505.761719" xlink:href="#ArialMT-61"/>
     <use x="561.376953" xlink:href="#ArialMT-6e"/>
     <use x="616.992188" xlink:href="#ArialMT-64"/>
    </g>
   </g>
  </g>
  <g id="text_17">
   <!-- Impacts of harvesting Starved Rock -->
   <g style="fill:#262626;" transform="translate(48.229062 21.759375)scale(0.2 -0.2)">
    <defs>
     <path d="M 556 0 
L 556 2881 
L 59 2881 
L 59 3319 
L 556 3319 
L 556 3672 
Q 556 4006 616 4169 
Q 697 4388 901 4523 
Q 1106 4659 1475 4659 
Q 1713 4659 2000 4603 
L 1916 4113 
Q 1741 4144 1584 4144 
Q 1328 4144 1222 4034 
Q 1116 3925 1116 3625 
L 1116 3319 
L 1763 3319 
L 1763 2881 
L 1116 2881 
L 1116 0 
L 556 0 
z
" id="ArialMT-66" transform="scale(0.015625)"/>
     <path d="M 422 0 
L 422 4581 
L 984 4581 
L 984 2938 
Q 1378 3394 1978 3394 
Q 2347 3394 2619 3248 
Q 2891 3103 3008 2847 
Q 3125 2591 3125 2103 
L 3125 0 
L 2563 0 
L 2563 2103 
Q 2563 2525 2380 2717 
Q 2197 2909 1863 2909 
Q 1613 2909 1392 2779 
Q 1172 2650 1078 2428 
Q 984 2206 984 1816 
L 984 0 
L 422 0 
z
" id="ArialMT-68" transform="scale(0.015625)"/>
     <path d="M 319 -275 
L 866 -356 
Q 900 -609 1056 -725 
Q 1266 -881 1628 -881 
Q 2019 -881 2231 -725 
Q 2444 -569 2519 -288 
Q 2563 -116 2559 434 
Q 2191 0 1641 0 
Q 956 0 581 494 
Q 206 988 206 1678 
Q 206 2153 378 2554 
Q 550 2956 876 3175 
Q 1203 3394 1644 3394 
Q 2231 3394 2613 2919 
L 2613 3319 
L 3131 3319 
L 3131 450 
Q 3131 -325 2973 -648 
Q 2816 -972 2473 -1159 
Q 2131 -1347 1631 -1347 
Q 1038 -1347 672 -1080 
Q 306 -813 319 -275 
z
M 784 1719 
Q 784 1066 1043 766 
Q 1303 466 1694 466 
Q 2081 466 2343 764 
Q 2606 1063 2606 1700 
Q 2606 2309 2336 2618 
Q 2066 2928 1684 2928 
Q 1309 2928 1046 2623 
Q 784 2319 784 1719 
z
" id="ArialMT-67" transform="scale(0.015625)"/>
    </defs>
    <use xlink:href="#ArialMT-49"/>
    <use x="27.783203" xlink:href="#ArialMT-6d"/>
    <use x="111.083984" xlink:href="#ArialMT-70"/>
    <use x="166.699219" xlink:href="#ArialMT-61"/>
    <use x="222.314453" xlink:href="#ArialMT-63"/>
    <use x="272.314453" xlink:href="#ArialMT-74"/>
    <use x="300.097656" xlink:href="#ArialMT-73"/>
    <use x="350.097656" xlink:href="#ArialMT-20"/>
    <use x="377.880859" xlink:href="#ArialMT-6f"/>
    <use x="433.496094" xlink:href="#ArialMT-66"/>
    <use x="461.279297" xlink:href="#ArialMT-20"/>
    <use x="489.0625" xlink:href="#ArialMT-68"/>
    <use x="544.677734" xlink:href="#ArialMT-61"/>
    <use x="600.292969" xlink:href="#ArialMT-72"/>
    <use x="633.59375" xlink:href="#ArialMT-76"/>
    <use x="683.59375" xlink:href="#ArialMT-65"/>
    <use x="739.208984" xlink:href="#ArialMT-73"/>
    <use x="789.208984" xlink:href="#ArialMT-74"/>
    <use x="816.992188" xlink:href="#ArialMT-69"/>
    <use x="839.208984" xlink:href="#ArialMT-6e"/>
    <use x="894.824219" xlink:href="#ArialMT-67"/>
    <use x="950.439453" xlink:href="#ArialMT-20"/>
    <use x="978.222656" xlink:href="#ArialMT-53"/>
    <use x="1044.921875" xlink:href="#ArialMT-74"/>
    <use x="1072.705078" xlink:href="#ArialMT-61"/>
    <use x="1128.320312" xlink:href="#ArialMT-72"/>
    <use x="1161.621094" xlink:href="#ArialMT-76"/>
    <use x="1211.621094" xlink:href="#ArialMT-65"/>
    <use x="1267.236328" xlink:href="#ArialMT-64"/>
    <use x="1322.851562" xlink:href="#ArialMT-20"/>
    <use x="1350.634766" xlink:href="#ArialMT-52"/>
    <use x="1422.851562" xlink:href="#ArialMT-6f"/>
    <use x="1478.466797" xlink:href="#ArialMT-63"/>
    <use x="1528.466797" xlink:href="#ArialMT-6b"/>
   </g>
  </g>
  <g id="legend_1">
   <g id="patch_17">
    <path d="M 341.644687 149.500195 
L 416.066562 149.500195 
Q 418.266562 149.500195 418.266562 147.300195 
L 418.266562 54.126602 
Q 418.266562 51.926602 416.066562 51.926602 
L 341.644687 51.926602 
Q 339.444687 51.926602 339.444687 54.126602 
L 339.444687 147.300195 
Q 339.444687 149.500195 341.644687 149.500195 
z
" style="fill:#ffffff;opacity:0.8;stroke:#cccccc;stroke-linejoin:miter;"/>
   </g>
   <g id="text_18">
    <!-- Harvest Rate -->
    <g style="fill:#262626;" transform="translate(343.844687 64.915977)scale(0.12 -0.12)">
     <defs>
      <path d="M 513 0 
L 513 4581 
L 1119 4581 
L 1119 2700 
L 3500 2700 
L 3500 4581 
L 4106 4581 
L 4106 0 
L 3500 0 
L 3500 2159 
L 1119 2159 
L 1119 0 
L 513 0 
z
" id="ArialMT-48" transform="scale(0.015625)"/>
     </defs>
     <use xlink:href="#ArialMT-48"/>
     <use x="72.216797" xlink:href="#ArialMT-61"/>
     <use x="127.832031" xlink:href="#ArialMT-72"/>
     <use x="161.132812" xlink:href="#ArialMT-76"/>
     <use x="211.132812" xlink:href="#ArialMT-65"/>
     <use x="266.748047" xlink:href="#ArialMT-73"/>
     <use x="316.748047" xlink:href="#ArialMT-74"/>
     <use x="344.53125" xlink:href="#ArialMT-20"/>
     <use x="372.314453" xlink:href="#ArialMT-52"/>
     <use x="444.53125" xlink:href="#ArialMT-61"/>
     <use x="500.146484" xlink:href="#ArialMT-74"/>
     <use x="527.929688" xlink:href="#ArialMT-65"/>
    </g>
   </g>
   <g id="line2d_31">
    <path d="M 347.861406 76.82457 
L 369.861406 76.82457 
" style="fill:none;stroke:#482475;stroke-linecap:round;stroke-width:1.5;"/>
   </g>
   <g id="line2d_32"/>
   <g id="text_19">
    <!-- 0% -->
    <g style="fill:#262626;" transform="translate(378.661406 80.67457)scale(0.11 -0.11)">
     <defs>
      <path d="M 372 3481 
Q 372 3972 619 4315 
Q 866 4659 1334 4659 
Q 1766 4659 2048 4351 
Q 2331 4044 2331 3447 
Q 2331 2866 2045 2552 
Q 1759 2238 1341 2238 
Q 925 2238 648 2547 
Q 372 2856 372 3481 
z
M 1350 4272 
Q 1141 4272 1002 4090 
Q 863 3909 863 3425 
Q 863 2984 1003 2804 
Q 1144 2625 1350 2625 
Q 1563 2625 1702 2806 
Q 1841 2988 1841 3469 
Q 1841 3913 1700 4092 
Q 1559 4272 1350 4272 
z
M 1353 -169 
L 3859 4659 
L 4316 4659 
L 1819 -169 
L 1353 -169 
z
M 3334 1075 
Q 3334 1569 3581 1911 
Q 3828 2253 4300 2253 
Q 4731 2253 5014 1945 
Q 5297 1638 5297 1041 
Q 5297 459 5011 145 
Q 4725 -169 4303 -169 
Q 3888 -169 3611 142 
Q 3334 453 3334 1075 
z
M 4316 1866 
Q 4103 1866 3964 1684 
Q 3825 1503 3825 1019 
Q 3825 581 3965 400 
Q 4106 219 4313 219 
Q 4528 219 4667 400 
Q 4806 581 4806 1063 
Q 4806 1506 4665 1686 
Q 4525 1866 4316 1866 
z
" id="ArialMT-25" transform="scale(0.015625)"/>
     </defs>
     <use xlink:href="#ArialMT-30"/>
     <use x="55.615234" xlink:href="#ArialMT-25"/>
    </g>
   </g>
   <g id="line2d_33">
    <path d="M 347.861406 92.384414 
L 369.861406 92.384414 
" style="fill:none;stroke:#355f8d;stroke-linecap:round;stroke-width:1.5;"/>
   </g>
   <g id="line2d_34"/>
   <g id="text_20">
    <!-- 10.0% -->
    <g style="fill:#262626;" transform="translate(378.661406 96.234414)scale(0.11 -0.11)">
     <use xlink:href="#ArialMT-31"/>
     <use x="55.615234" xlink:href="#ArialMT-30"/>
     <use x="111.230469" xlink:href="#ArialMT-2e"/>
     <use x="139.013672" xlink:href="#ArialMT-30"/>
     <use x="194.628906" xlink:href="#ArialMT-25"/>
    </g>
   </g>
   <g id="line2d_35">
    <path d="M 347.861406 107.944258 
L 369.861406 107.944258 
" style="fill:none;stroke:#21918c;stroke-linecap:round;stroke-width:1.5;"/>
   </g>
   <g id="line2d_36"/>
   <g id="text_21">
    <!-- 20.0% -->
    <g style="fill:#262626;" transform="translate(378.661406 111.794258)scale(0.11 -0.11)">
     <use xlink:href="#ArialMT-32"/>
     <use x="55.615234" xlink:href="#ArialMT-30"/>
     <use x="111.230469" xlink:href="#ArialMT-2e"/>
     <use x="139.013672" xlink:href="#ArialMT-30"/>
     <use x="194.628906" xlink:href="#ArialMT-25"/>
    </g>
   </g>
   <g id="line2d_37">
    <path d="M 347.861406 123.504102 
L 369.861406 123.504102 
" style="fill:none;stroke:#44bf70;stroke-linecap:round;stroke-width:1.5;"/>
   </g>
   <g id="line2d_38"/>
   <g id="text_22">
    <!-- 30.0% -->
    <g style="fill:#262626;" transform="translate(378.661406 127.354102)scale(0.11 -0.11)">
     <defs>
      <path d="M 269 1209 
L 831 1284 
Q 928 806 1161 595 
Q 1394 384 1728 384 
Q 2125 384 2398 659 
Q 2672 934 2672 1341 
Q 2672 1728 2419 1979 
Q 2166 2231 1775 2231 
Q 1616 2231 1378 2169 
L 1441 2663 
Q 1497 2656 1531 2656 
Q 1891 2656 2178 2843 
Q 2466 3031 2466 3422 
Q 2466 3731 2256 3934 
Q 2047 4138 1716 4138 
Q 1388 4138 1169 3931 
Q 950 3725 888 3313 
L 325 3413 
Q 428 3978 793 4289 
Q 1159 4600 1703 4600 
Q 2078 4600 2393 4439 
Q 2709 4278 2876 4000 
Q 3044 3722 3044 3409 
Q 3044 3113 2884 2869 
Q 2725 2625 2413 2481 
Q 2819 2388 3044 2092 
Q 3269 1797 3269 1353 
Q 3269 753 2831 336 
Q 2394 -81 1725 -81 
Q 1122 -81 723 278 
Q 325 638 269 1209 
z
" id="ArialMT-33" transform="scale(0.015625)"/>
     </defs>
     <use xlink:href="#ArialMT-33"/>
     <use x="55.615234" xlink:href="#ArialMT-30"/>
     <use x="111.230469" xlink:href="#ArialMT-2e"/>
     <use x="139.013672" xlink:href="#ArialMT-30"/>
     <use x="194.628906" xlink:href="#ArialMT-25"/>
    </g>
   </g>
   <g id="line2d_39">
    <path d="M 347.861406 139.063945 
L 369.861406 139.063945 
" style="fill:none;stroke:#bddf26;stroke-linecap:round;stroke-width:1.5;"/>
   </g>
   <g id="line2d_40"/>
   <g id="text_23">
    <!-- 40.0% -->
    <g style="fill:#262626;" transform="translate(378.661406 142.913945)scale(0.11 -0.11)">
     <defs>
      <path d="M 2069 0 
L 2069 1097 
L 81 1097 
L 81 1613 
L 2172 4581 
L 2631 4581 
L 2631 1613 
L 3250 1613 
L 3250 1097 
L 2631 1097 
L 2631 0 
L 2069 0 
z
M 2069 1613 
L 2069 3678 
L 634 1613 
L 2069 1613 
z
" id="ArialMT-34" transform="scale(0.015625)"/>
     </defs>
     <use xlink:href="#ArialMT-34"/>
     <use x="55.615234" xlink:href="#ArialMT-30"/>
     <use x="111.230469" xlink:href="#ArialMT-2e"/>
     <use x="139.013672" xlink:href="#ArialMT-30"/>
     <use x="194.628906" xlink:href="#ArialMT-25"/>
    </g>
   </g>
  </g>
 </g>
 <defs>
  <clipPath id="pcfd8ea52d9">
   <rect height="89.883871" width="89.883871" x="44.066563" y="53.698065"/>
  </clipPath>
  <clipPath id="pf30c88f41c">
   <rect height="89.883871" width="89.883871" x="138.444627" y="53.698065"/>
  </clipPath>
  <clipPath id="p78758ab568">
   <rect height="89.883871" width="89.883871" x="232.822692" y="53.698065"/>
  </clipPath>
 </defs>
</svg>
