<?xml version="1.0" encoding="utf-8" standalone="no"?>
<!DOCTYPE svg PUBLIC "-//W3C//DTD SVG 1.1//EN"
  "http://www.w3.org/Graphics/SVG/1.1/DTD/svg11.dtd">
<svg xmlns:xlink="http://www.w3.org/1999/xlink" width="423.766562pt" height="196.411978pt" viewBox="0 0 423.766562 196.411978" xmlns="http://www.w3.org/2000/svg" version="1.1">
 <metadata>
  <rdf:RDF xmlns:dc="http://purl.org/dc/elements/1.1/" xmlns:cc="http://creativecommons.org/ns#" xmlns:rdf="http://www.w3.org/1999/02/22-rdf-syntax-ns#">
   <cc:Work>
    <dc:type rdf:resource="http://purl.org/dc/dcmitype/StillImage"/>
    <dc:date>2022-11-10T14:28:36.209621</dc:date>
    <dc:format>image/svg+xml</dc:format>
    <dc:creator>
     <cc:Agent>
      <dc:title>Matplotlib v3.5.1, https://matplotlib.org/</dc:title>
     </cc:Agent>
    </dc:creator>
   </cc:Work>
  </rdf:RDF>
 </metadata>
 <defs>
  <style type="text/css">*{stroke-linejoin: round; stroke-linecap: butt}</style>
 </defs>
 <g id="figure_1">
  <g id="patch_1">
   <path d="M 0 196.411978 
L 423.766562 196.411978 
L 423.766562 0 
L 0 0 
z
" style="fill: #ffffff"/>
  </g>
  <g id="axes_1">
   <g id="patch_2">
    <path d="M 44.066563 157.934165 
L 177.881197 157.934165 
L 177.881197 24.119531 
L 44.066563 24.119531 
z
" style="fill: #ffffff"/>
   </g>
   <g id="matplotlib.axis_1">
    <g id="xtick_1">
     <g id="line2d_1">
      <path d="M 50.149046 157.934165 
L 50.149046 24.119531 
" clip-path="url(#pdabeb9f274)" style="fill: none; stroke: #cccccc; stroke-linecap: round"/>
     </g>
     <g id="text_1">
      <!-- 0 -->
      <g style="fill: #262626" transform="translate(47.09053 169.307759)scale(0.11 -0.11)">
       <defs>
        <path id="ArialMT-30" d="M 266 2259 
Q 266 3072 433 3567 
Q 600 4063 929 4331 
Q 1259 4600 1759 4600 
Q 2128 4600 2406 4451 
Q 2684 4303 2865 4023 
Q 3047 3744 3150 3342 
Q 3253 2941 3253 2259 
Q 3253 1453 3087 958 
Q 2922 463 2592 192 
Q 2263 -78 1759 -78 
Q 1097 -78 719 397 
Q 266 969 266 2259 
z
M 844 2259 
Q 844 1131 1108 757 
Q 1372 384 1759 384 
Q 2147 384 2411 759 
Q 2675 1134 2675 2259 
Q 2675 3391 2411 3762 
Q 2147 4134 1753 4134 
Q 1366 4134 1134 3806 
Q 844 3388 844 2259 
z
" transform="scale(0.015625)"/>
       </defs>
       <use xlink:href="#ArialMT-30"/>
      </g>
     </g>
    </g>
    <g id="xtick_2">
     <g id="line2d_2">
      <path d="M 91.246906 157.934165 
L 91.246906 24.119531 
" clip-path="url(#pdabeb9f274)" style="fill: none; stroke: #cccccc; stroke-linecap: round"/>
     </g>
     <g id="text_2">
      <!-- 25 -->
      <g style="fill: #262626" transform="translate(85.129875 169.307759)scale(0.11 -0.11)">
       <defs>
        <path id="ArialMT-32" d="M 3222 541 
L 3222 0 
L 194 0 
Q 188 203 259 391 
Q 375 700 629 1000 
Q 884 1300 1366 1694 
Q 2113 2306 2375 2664 
Q 2638 3022 2638 3341 
Q 2638 3675 2398 3904 
Q 2159 4134 1775 4134 
Q 1369 4134 1125 3890 
Q 881 3647 878 3216 
L 300 3275 
Q 359 3922 746 4261 
Q 1134 4600 1788 4600 
Q 2447 4600 2831 4234 
Q 3216 3869 3216 3328 
Q 3216 3053 3103 2787 
Q 2991 2522 2730 2228 
Q 2469 1934 1863 1422 
Q 1356 997 1212 845 
Q 1069 694 975 541 
L 3222 541 
z
" transform="scale(0.015625)"/>
        <path id="ArialMT-35" d="M 266 1200 
L 856 1250 
Q 922 819 1161 601 
Q 1400 384 1738 384 
Q 2144 384 2425 690 
Q 2706 997 2706 1503 
Q 2706 1984 2436 2262 
Q 2166 2541 1728 2541 
Q 1456 2541 1237 2417 
Q 1019 2294 894 2097 
L 366 2166 
L 809 4519 
L 3088 4519 
L 3088 3981 
L 1259 3981 
L 1013 2750 
Q 1425 3038 1878 3038 
Q 2478 3038 2890 2622 
Q 3303 2206 3303 1553 
Q 3303 931 2941 478 
Q 2500 -78 1738 -78 
Q 1113 -78 717 272 
Q 322 622 266 1200 
z
" transform="scale(0.015625)"/>
       </defs>
       <use xlink:href="#ArialMT-32"/>
       <use xlink:href="#ArialMT-35" x="55.615234"/>
      </g>
     </g>
    </g>
    <g id="xtick_3">
     <g id="line2d_3">
      <path d="M 132.344767 157.934165 
L 132.344767 24.119531 
" clip-path="url(#pdabeb9f274)" style="fill: none; stroke: #cccccc; stroke-linecap: round"/>
     </g>
     <g id="text_3">
      <!-- 50 -->
      <g style="fill: #262626" transform="translate(126.227736 169.307759)scale(0.11 -0.11)">
       <use xlink:href="#ArialMT-35"/>
       <use xlink:href="#ArialMT-30" x="55.615234"/>
      </g>
     </g>
    </g>
    <g id="xtick_4">
     <g id="line2d_4">
      <path d="M 173.442628 157.934165 
L 173.442628 24.119531 
" clip-path="url(#pdabeb9f274)" style="fill: none; stroke: #cccccc; stroke-linecap: round"/>
     </g>
     <g id="text_4">
      <!-- 75 -->
      <g style="fill: #262626" transform="translate(167.325596 169.307759)scale(0.11 -0.11)">
       <defs>
        <path id="ArialMT-37" d="M 303 3981 
L 303 4522 
L 3269 4522 
L 3269 4084 
Q 2831 3619 2401 2847 
Q 1972 2075 1738 1259 
Q 1569 684 1522 0 
L 944 0 
Q 953 541 1156 1306 
Q 1359 2072 1739 2783 
Q 2119 3494 2547 3981 
L 303 3981 
z
" transform="scale(0.015625)"/>
       </defs>
       <use xlink:href="#ArialMT-37"/>
       <use xlink:href="#ArialMT-35" x="55.615234"/>
      </g>
     </g>
    </g>
    <g id="text_5">
     <!-- Years -->
     <g style="fill: #262626" transform="translate(92.066848 186.230728)scale(0.15 -0.15)">
      <defs>
       <path id="ArialMT-59" d="M 1784 0 
L 1784 1941 
L 19 4581 
L 756 4581 
L 1659 3200 
Q 1909 2813 2125 2425 
Q 2331 2784 2625 3234 
L 3513 4581 
L 4219 4581 
L 2391 1941 
L 2391 0 
L 1784 0 
z
" transform="scale(0.015625)"/>
       <path id="ArialMT-65" d="M 2694 1069 
L 3275 997 
Q 3138 488 2766 206 
Q 2394 -75 1816 -75 
Q 1088 -75 661 373 
Q 234 822 234 1631 
Q 234 2469 665 2931 
Q 1097 3394 1784 3394 
Q 2450 3394 2872 2941 
Q 3294 2488 3294 1666 
Q 3294 1616 3291 1516 
L 816 1516 
Q 847 969 1125 678 
Q 1403 388 1819 388 
Q 2128 388 2347 550 
Q 2566 713 2694 1069 
z
M 847 1978 
L 2700 1978 
Q 2663 2397 2488 2606 
Q 2219 2931 1791 2931 
Q 1403 2931 1139 2672 
Q 875 2413 847 1978 
z
" transform="scale(0.015625)"/>
       <path id="ArialMT-61" d="M 2588 409 
Q 2275 144 1986 34 
Q 1697 -75 1366 -75 
Q 819 -75 525 192 
Q 231 459 231 875 
Q 231 1119 342 1320 
Q 453 1522 633 1644 
Q 813 1766 1038 1828 
Q 1203 1872 1538 1913 
Q 2219 1994 2541 2106 
Q 2544 2222 2544 2253 
Q 2544 2597 2384 2738 
Q 2169 2928 1744 2928 
Q 1347 2928 1158 2789 
Q 969 2650 878 2297 
L 328 2372 
Q 403 2725 575 2942 
Q 747 3159 1072 3276 
Q 1397 3394 1825 3394 
Q 2250 3394 2515 3294 
Q 2781 3194 2906 3042 
Q 3031 2891 3081 2659 
Q 3109 2516 3109 2141 
L 3109 1391 
Q 3109 606 3145 398 
Q 3181 191 3288 0 
L 2700 0 
Q 2613 175 2588 409 
z
M 2541 1666 
Q 2234 1541 1622 1453 
Q 1275 1403 1131 1340 
Q 988 1278 909 1158 
Q 831 1038 831 891 
Q 831 666 1001 516 
Q 1172 366 1500 366 
Q 1825 366 2078 508 
Q 2331 650 2450 897 
Q 2541 1088 2541 1459 
L 2541 1666 
z
" transform="scale(0.015625)"/>
       <path id="ArialMT-72" d="M 416 0 
L 416 3319 
L 922 3319 
L 922 2816 
Q 1116 3169 1280 3281 
Q 1444 3394 1641 3394 
Q 1925 3394 2219 3213 
L 2025 2691 
Q 1819 2813 1613 2813 
Q 1428 2813 1281 2702 
Q 1134 2591 1072 2394 
Q 978 2094 978 1738 
L 978 0 
L 416 0 
z
" transform="scale(0.015625)"/>
       <path id="ArialMT-73" d="M 197 991 
L 753 1078 
Q 800 744 1014 566 
Q 1228 388 1613 388 
Q 2000 388 2187 545 
Q 2375 703 2375 916 
Q 2375 1106 2209 1216 
Q 2094 1291 1634 1406 
Q 1016 1563 777 1677 
Q 538 1791 414 1992 
Q 291 2194 291 2438 
Q 291 2659 392 2848 
Q 494 3038 669 3163 
Q 800 3259 1026 3326 
Q 1253 3394 1513 3394 
Q 1903 3394 2198 3281 
Q 2494 3169 2634 2976 
Q 2775 2784 2828 2463 
L 2278 2388 
Q 2241 2644 2061 2787 
Q 1881 2931 1553 2931 
Q 1166 2931 1000 2803 
Q 834 2675 834 2503 
Q 834 2394 903 2306 
Q 972 2216 1119 2156 
Q 1203 2125 1616 2013 
Q 2213 1853 2448 1751 
Q 2684 1650 2818 1456 
Q 2953 1263 2953 975 
Q 2953 694 2789 445 
Q 2625 197 2315 61 
Q 2006 -75 1616 -75 
Q 969 -75 630 194 
Q 291 463 197 991 
z
" transform="scale(0.015625)"/>
      </defs>
      <use xlink:href="#ArialMT-59"/>
      <use xlink:href="#ArialMT-65" x="57.574219"/>
      <use xlink:href="#ArialMT-61" x="113.189453"/>
      <use xlink:href="#ArialMT-72" x="168.804688"/>
      <use xlink:href="#ArialMT-73" x="202.105469"/>
     </g>
    </g>
   </g>
   <g id="matplotlib.axis_2">
    <g id="ytick_1">
     <g id="line2d_5">
      <path d="M 44.066563 157.934165 
L 177.881197 157.934165 
" clip-path="url(#pdabeb9f274)" style="fill: none; stroke: #cccccc; stroke-linecap: round"/>
     </g>
     <g id="text_6">
      <!-- 0.0 -->
      <g style="fill: #262626" transform="translate(25.276563 161.870962)scale(0.11 -0.11)">
       <defs>
        <path id="ArialMT-2e" d="M 581 0 
L 581 641 
L 1222 641 
L 1222 0 
L 581 0 
z
" transform="scale(0.015625)"/>
       </defs>
       <use xlink:href="#ArialMT-30"/>
       <use xlink:href="#ArialMT-2e" x="55.615234"/>
       <use xlink:href="#ArialMT-30" x="83.398438"/>
      </g>
     </g>
    </g>
    <g id="ytick_2">
     <g id="line2d_6">
      <path d="M 44.066563 131.171239 
L 177.881197 131.171239 
" clip-path="url(#pdabeb9f274)" style="fill: none; stroke: #cccccc; stroke-linecap: round"/>
     </g>
     <g id="text_7">
      <!-- 0.2 -->
      <g style="fill: #262626" transform="translate(25.276563 135.108035)scale(0.11 -0.11)">
       <use xlink:href="#ArialMT-30"/>
       <use xlink:href="#ArialMT-2e" x="55.615234"/>
       <use xlink:href="#ArialMT-32" x="83.398438"/>
      </g>
     </g>
    </g>
    <g id="ytick_3">
     <g id="line2d_7">
      <path d="M 44.066563 104.408312 
L 177.881197 104.408312 
" clip-path="url(#pdabeb9f274)" style="fill: none; stroke: #cccccc; stroke-linecap: round"/>
     </g>
     <g id="text_8">
      <!-- 0.4 -->
      <g style="fill: #262626" transform="translate(25.276563 108.345109)scale(0.11 -0.11)">
       <defs>
        <path id="ArialMT-34" d="M 2069 0 
L 2069 1097 
L 81 1097 
L 81 1613 
L 2172 4581 
L 2631 4581 
L 2631 1613 
L 3250 1613 
L 3250 1097 
L 2631 1097 
L 2631 0 
L 2069 0 
z
M 2069 1613 
L 2069 3678 
L 634 1613 
L 2069 1613 
z
" transform="scale(0.015625)"/>
       </defs>
       <use xlink:href="#ArialMT-30"/>
       <use xlink:href="#ArialMT-2e" x="55.615234"/>
       <use xlink:href="#ArialMT-34" x="83.398438"/>
      </g>
     </g>
    </g>
    <g id="ytick_4">
     <g id="line2d_8">
      <path d="M 44.066563 77.645385 
L 177.881197 77.645385 
" clip-path="url(#pdabeb9f274)" style="fill: none; stroke: #cccccc; stroke-linecap: round"/>
     </g>
     <g id="text_9">
      <!-- 0.6 -->
      <g style="fill: #262626" transform="translate(25.276563 81.582182)scale(0.11 -0.11)">
       <defs>
        <path id="ArialMT-36" d="M 3184 3459 
L 2625 3416 
Q 2550 3747 2413 3897 
Q 2184 4138 1850 4138 
Q 1581 4138 1378 3988 
Q 1113 3794 959 3422 
Q 806 3050 800 2363 
Q 1003 2672 1297 2822 
Q 1591 2972 1913 2972 
Q 2475 2972 2870 2558 
Q 3266 2144 3266 1488 
Q 3266 1056 3080 686 
Q 2894 316 2569 119 
Q 2244 -78 1831 -78 
Q 1128 -78 684 439 
Q 241 956 241 2144 
Q 241 3472 731 4075 
Q 1159 4600 1884 4600 
Q 2425 4600 2770 4297 
Q 3116 3994 3184 3459 
z
M 888 1484 
Q 888 1194 1011 928 
Q 1134 663 1356 523 
Q 1578 384 1822 384 
Q 2178 384 2434 671 
Q 2691 959 2691 1453 
Q 2691 1928 2437 2201 
Q 2184 2475 1800 2475 
Q 1419 2475 1153 2201 
Q 888 1928 888 1484 
z
" transform="scale(0.015625)"/>
       </defs>
       <use xlink:href="#ArialMT-30"/>
       <use xlink:href="#ArialMT-2e" x="55.615234"/>
       <use xlink:href="#ArialMT-36" x="83.398438"/>
      </g>
     </g>
    </g>
    <g id="ytick_5">
     <g id="line2d_9">
      <path d="M 44.066563 50.882458 
L 177.881197 50.882458 
" clip-path="url(#pdabeb9f274)" style="fill: none; stroke: #cccccc; stroke-linecap: round"/>
     </g>
     <g id="text_10">
      <!-- 0.8 -->
      <g style="fill: #262626" transform="translate(25.276563 54.819255)scale(0.11 -0.11)">
       <defs>
        <path id="ArialMT-38" d="M 1131 2484 
Q 781 2613 612 2850 
Q 444 3088 444 3419 
Q 444 3919 803 4259 
Q 1163 4600 1759 4600 
Q 2359 4600 2725 4251 
Q 3091 3903 3091 3403 
Q 3091 3084 2923 2848 
Q 2756 2613 2416 2484 
Q 2838 2347 3058 2040 
Q 3278 1734 3278 1309 
Q 3278 722 2862 322 
Q 2447 -78 1769 -78 
Q 1091 -78 675 323 
Q 259 725 259 1325 
Q 259 1772 486 2073 
Q 713 2375 1131 2484 
z
M 1019 3438 
Q 1019 3113 1228 2906 
Q 1438 2700 1772 2700 
Q 2097 2700 2305 2904 
Q 2513 3109 2513 3406 
Q 2513 3716 2298 3927 
Q 2084 4138 1766 4138 
Q 1444 4138 1231 3931 
Q 1019 3725 1019 3438 
z
M 838 1322 
Q 838 1081 952 856 
Q 1066 631 1291 507 
Q 1516 384 1775 384 
Q 2178 384 2440 643 
Q 2703 903 2703 1303 
Q 2703 1709 2433 1975 
Q 2163 2241 1756 2241 
Q 1359 2241 1098 1978 
Q 838 1716 838 1322 
z
" transform="scale(0.015625)"/>
       </defs>
       <use xlink:href="#ArialMT-30"/>
       <use xlink:href="#ArialMT-2e" x="55.615234"/>
       <use xlink:href="#ArialMT-38" x="83.398438"/>
      </g>
     </g>
    </g>
    <g id="ytick_6">
     <g id="line2d_10">
      <path d="M 44.066563 24.119531 
L 177.881197 24.119531 
" clip-path="url(#pdabeb9f274)" style="fill: none; stroke: #cccccc; stroke-linecap: round"/>
     </g>
     <g id="text_11">
      <!-- 1.0 -->
      <g style="fill: #262626" transform="translate(25.276563 28.056328)scale(0.11 -0.11)">
       <defs>
        <path id="ArialMT-31" d="M 2384 0 
L 1822 0 
L 1822 3584 
Q 1619 3391 1289 3197 
Q 959 3003 697 2906 
L 697 3450 
Q 1169 3672 1522 3987 
Q 1875 4303 2022 4600 
L 2384 4600 
L 2384 0 
z
" transform="scale(0.015625)"/>
       </defs>
       <use xlink:href="#ArialMT-31"/>
       <use xlink:href="#ArialMT-2e" x="55.615234"/>
       <use xlink:href="#ArialMT-30" x="83.398438"/>
      </g>
     </g>
    </g>
    <g id="text_12">
     <!-- Population (millions) -->
     <g style="fill: #262626" transform="translate(18.119531 158.55263)rotate(-90)scale(0.15 -0.15)">
      <defs>
       <path id="ArialMT-50" d="M 494 0 
L 494 4581 
L 2222 4581 
Q 2678 4581 2919 4538 
Q 3256 4481 3484 4323 
Q 3713 4166 3852 3881 
Q 3991 3597 3991 3256 
Q 3991 2672 3619 2267 
Q 3247 1863 2275 1863 
L 1100 1863 
L 1100 0 
L 494 0 
z
M 1100 2403 
L 2284 2403 
Q 2872 2403 3119 2622 
Q 3366 2841 3366 3238 
Q 3366 3525 3220 3729 
Q 3075 3934 2838 4000 
Q 2684 4041 2272 4041 
L 1100 4041 
L 1100 2403 
z
" transform="scale(0.015625)"/>
       <path id="ArialMT-6f" d="M 213 1659 
Q 213 2581 725 3025 
Q 1153 3394 1769 3394 
Q 2453 3394 2887 2945 
Q 3322 2497 3322 1706 
Q 3322 1066 3130 698 
Q 2938 331 2570 128 
Q 2203 -75 1769 -75 
Q 1072 -75 642 372 
Q 213 819 213 1659 
z
M 791 1659 
Q 791 1022 1069 705 
Q 1347 388 1769 388 
Q 2188 388 2466 706 
Q 2744 1025 2744 1678 
Q 2744 2294 2464 2611 
Q 2184 2928 1769 2928 
Q 1347 2928 1069 2612 
Q 791 2297 791 1659 
z
" transform="scale(0.015625)"/>
       <path id="ArialMT-70" d="M 422 -1272 
L 422 3319 
L 934 3319 
L 934 2888 
Q 1116 3141 1344 3267 
Q 1572 3394 1897 3394 
Q 2322 3394 2647 3175 
Q 2972 2956 3137 2557 
Q 3303 2159 3303 1684 
Q 3303 1175 3120 767 
Q 2938 359 2589 142 
Q 2241 -75 1856 -75 
Q 1575 -75 1351 44 
Q 1128 163 984 344 
L 984 -1272 
L 422 -1272 
z
M 931 1641 
Q 931 1000 1190 694 
Q 1450 388 1819 388 
Q 2194 388 2461 705 
Q 2728 1022 2728 1688 
Q 2728 2322 2467 2637 
Q 2206 2953 1844 2953 
Q 1484 2953 1207 2617 
Q 931 2281 931 1641 
z
" transform="scale(0.015625)"/>
       <path id="ArialMT-75" d="M 2597 0 
L 2597 488 
Q 2209 -75 1544 -75 
Q 1250 -75 995 37 
Q 741 150 617 320 
Q 494 491 444 738 
Q 409 903 409 1263 
L 409 3319 
L 972 3319 
L 972 1478 
Q 972 1038 1006 884 
Q 1059 663 1231 536 
Q 1403 409 1656 409 
Q 1909 409 2131 539 
Q 2353 669 2445 892 
Q 2538 1116 2538 1541 
L 2538 3319 
L 3100 3319 
L 3100 0 
L 2597 0 
z
" transform="scale(0.015625)"/>
       <path id="ArialMT-6c" d="M 409 0 
L 409 4581 
L 972 4581 
L 972 0 
L 409 0 
z
" transform="scale(0.015625)"/>
       <path id="ArialMT-74" d="M 1650 503 
L 1731 6 
Q 1494 -44 1306 -44 
Q 1000 -44 831 53 
Q 663 150 594 308 
Q 525 466 525 972 
L 525 2881 
L 113 2881 
L 113 3319 
L 525 3319 
L 525 4141 
L 1084 4478 
L 1084 3319 
L 1650 3319 
L 1650 2881 
L 1084 2881 
L 1084 941 
Q 1084 700 1114 631 
Q 1144 563 1211 522 
Q 1278 481 1403 481 
Q 1497 481 1650 503 
z
" transform="scale(0.015625)"/>
       <path id="ArialMT-69" d="M 425 3934 
L 425 4581 
L 988 4581 
L 988 3934 
L 425 3934 
z
M 425 0 
L 425 3319 
L 988 3319 
L 988 0 
L 425 0 
z
" transform="scale(0.015625)"/>
       <path id="ArialMT-6e" d="M 422 0 
L 422 3319 
L 928 3319 
L 928 2847 
Q 1294 3394 1984 3394 
Q 2284 3394 2536 3286 
Q 2788 3178 2913 3003 
Q 3038 2828 3088 2588 
Q 3119 2431 3119 2041 
L 3119 0 
L 2556 0 
L 2556 2019 
Q 2556 2363 2490 2533 
Q 2425 2703 2258 2804 
Q 2091 2906 1866 2906 
Q 1506 2906 1245 2678 
Q 984 2450 984 1813 
L 984 0 
L 422 0 
z
" transform="scale(0.015625)"/>
       <path id="ArialMT-20" transform="scale(0.015625)"/>
       <path id="ArialMT-28" d="M 1497 -1347 
Q 1031 -759 709 28 
Q 388 816 388 1659 
Q 388 2403 628 3084 
Q 909 3875 1497 4659 
L 1900 4659 
Q 1522 4009 1400 3731 
Q 1209 3300 1100 2831 
Q 966 2247 966 1656 
Q 966 153 1900 -1347 
L 1497 -1347 
z
" transform="scale(0.015625)"/>
       <path id="ArialMT-6d" d="M 422 0 
L 422 3319 
L 925 3319 
L 925 2853 
Q 1081 3097 1340 3245 
Q 1600 3394 1931 3394 
Q 2300 3394 2536 3241 
Q 2772 3088 2869 2813 
Q 3263 3394 3894 3394 
Q 4388 3394 4653 3120 
Q 4919 2847 4919 2278 
L 4919 0 
L 4359 0 
L 4359 2091 
Q 4359 2428 4304 2576 
Q 4250 2725 4106 2815 
Q 3963 2906 3769 2906 
Q 3419 2906 3187 2673 
Q 2956 2441 2956 1928 
L 2956 0 
L 2394 0 
L 2394 2156 
Q 2394 2531 2256 2718 
Q 2119 2906 1806 2906 
Q 1569 2906 1367 2781 
Q 1166 2656 1075 2415 
Q 984 2175 984 1722 
L 984 0 
L 422 0 
z
" transform="scale(0.015625)"/>
       <path id="ArialMT-29" d="M 791 -1347 
L 388 -1347 
Q 1322 153 1322 1656 
Q 1322 2244 1188 2822 
Q 1081 3291 891 3722 
Q 769 4003 388 4659 
L 791 4659 
Q 1378 3875 1659 3084 
Q 1900 2403 1900 1659 
Q 1900 816 1576 28 
Q 1253 -759 791 -1347 
z
" transform="scale(0.015625)"/>
      </defs>
      <use xlink:href="#ArialMT-50"/>
      <use xlink:href="#ArialMT-6f" x="66.699219"/>
      <use xlink:href="#ArialMT-70" x="122.314453"/>
      <use xlink:href="#ArialMT-75" x="177.929688"/>
      <use xlink:href="#ArialMT-6c" x="233.544922"/>
      <use xlink:href="#ArialMT-61" x="255.761719"/>
      <use xlink:href="#ArialMT-74" x="311.376953"/>
      <use xlink:href="#ArialMT-69" x="339.160156"/>
      <use xlink:href="#ArialMT-6f" x="361.376953"/>
      <use xlink:href="#ArialMT-6e" x="416.992188"/>
      <use xlink:href="#ArialMT-20" x="472.607422"/>
      <use xlink:href="#ArialMT-28" x="500.390625"/>
      <use xlink:href="#ArialMT-6d" x="533.691406"/>
      <use xlink:href="#ArialMT-69" x="616.992188"/>
      <use xlink:href="#ArialMT-6c" x="639.208984"/>
      <use xlink:href="#ArialMT-6c" x="661.425781"/>
      <use xlink:href="#ArialMT-69" x="683.642578"/>
      <use xlink:href="#ArialMT-6f" x="705.859375"/>
      <use xlink:href="#ArialMT-6e" x="761.474609"/>
      <use xlink:href="#ArialMT-73" x="817.089844"/>
      <use xlink:href="#ArialMT-29" x="867.089844"/>
     </g>
    </g>
   </g>
   <g id="line2d_11">
    <path d="M 50.149046 146.771349 
L 51.79296 146.821458 
L 53.436875 147.169612 
L 55.080789 146.661092 
L 56.724704 145.35288 
L 58.368618 144.400119 
L 60.012532 143.181799 
L 61.656447 141.398584 
L 63.300361 139.268553 
L 64.944276 136.92209 
L 66.58819 134.396515 
L 68.232105 131.786641 
L 69.876019 129.222662 
L 71.519933 126.821887 
L 73.163848 124.677037 
L 74.807762 122.84828 
L 76.451677 121.357579 
L 78.095591 120.192308 
L 79.739506 119.315501 
L 81.38342 118.677927 
L 83.027334 118.228344 
L 84.671249 117.92021 
L 86.315163 117.714858 
L 87.959078 117.582126 
L 89.602992 117.499523 
L 91.246906 117.450825 
L 92.890821 117.424612 
L 94.534735 117.412992 
L 96.17865 117.410595 
L 97.822564 117.413815 
L 99.466479 117.420265 
L 101.110393 117.428387 
L 102.754307 117.437182 
L 104.398222 117.446031 
L 106.042136 117.45456 
L 107.686051 117.462561 
L 109.329965 117.469929 
L 110.97388 117.476629 
L 112.617794 117.482665 
L 114.261708 117.488067 
L 115.905623 117.492878 
L 117.549537 117.497146 
L 119.193452 117.500922 
L 120.837366 117.504255 
L 122.481281 117.507193 
L 124.125195 117.509779 
L 125.769109 117.512053 
L 127.413024 117.514052 
L 129.056938 117.515808 
L 130.700853 117.517349 
L 132.344767 117.518702 
L 133.988682 117.519889 
L 135.632596 117.52093 
L 137.27651 117.521844 
L 138.920425 117.522645 
L 140.564339 117.523347 
L 142.208254 117.523963 
L 143.852168 117.524504 
L 145.496082 117.524977 
L 147.139997 117.525393 
L 148.783911 117.525757 
L 150.427826 117.526076 
L 152.07174 117.526356 
L 153.715655 117.526601 
L 155.359569 117.526817 
L 157.003483 117.527005 
L 158.647398 117.527171 
L 160.291312 117.527316 
L 161.935227 117.527443 
L 163.579141 117.527554 
L 165.223056 117.527652 
L 166.86697 117.527738 
L 168.510884 117.527813 
L 170.154799 117.527879 
L 171.798713 117.527936 
" clip-path="url(#pdabeb9f274)" style="fill: none; stroke: #482475; stroke-width: 1.5; stroke-linecap: round"/>
   </g>
   <g id="line2d_12">
    <path d="M 50.149046 146.216687 
L 51.79296 146.269286 
L 53.436875 146.63474 
L 55.080789 146.374838 
L 56.724704 145.728867 
L 58.368618 145.475531 
L 60.012532 144.889968 
L 61.656447 143.808916 
L 63.300361 142.445269 
L 64.944276 140.886122 
L 66.58819 139.161219 
L 68.232105 137.349982 
L 69.876019 135.553535 
L 71.519933 133.862166 
L 73.163848 132.348078 
L 74.807762 131.058574 
L 76.451677 130.011834 
L 78.095591 129.19987 
L 79.739506 128.596234 
L 81.38342 128.165082 
L 83.027334 127.868905 
L 84.671249 127.673591 
L 86.315163 127.550825 
L 87.959078 127.478573 
L 89.602992 127.440479 
L 91.246906 127.424816 
L 92.890821 127.423401 
L 94.534735 127.430648 
L 96.17865 127.442819 
L 97.822564 127.457462 
L 99.466479 127.473004 
L 101.110393 127.488469 
L 102.754307 127.503276 
L 104.398222 127.517103 
L 106.042136 127.529799 
L 107.686051 127.541318 
L 109.329965 127.551679 
L 110.97388 127.560941 
L 112.617794 127.569181 
L 114.261708 127.576487 
L 115.905623 127.582946 
L 117.549537 127.588646 
L 119.193452 127.593669 
L 120.837366 127.598089 
L 122.481281 127.601975 
L 124.125195 127.60539 
L 125.769109 127.608389 
L 127.413024 127.611022 
L 129.056938 127.613332 
L 130.700853 127.61536 
L 132.344767 127.617138 
L 133.988682 127.618698 
L 135.632596 127.620066 
L 137.27651 127.621265 
L 138.920425 127.622317 
L 140.564339 127.62324 
L 142.208254 127.624048 
L 143.852168 127.624757 
L 145.496082 127.625379 
L 147.139997 127.625924 
L 148.783911 127.626402 
L 150.427826 127.626821 
L 152.07174 127.627189 
L 153.715655 127.627511 
L 155.359569 127.627793 
L 157.003483 127.628041 
L 158.647398 127.628258 
L 160.291312 127.628448 
L 161.935227 127.628615 
L 163.579141 127.628761 
L 165.223056 127.62889 
L 166.86697 127.629002 
L 168.510884 127.629101 
L 170.154799 127.629187 
L 171.798713 127.629263 
" clip-path="url(#pdabeb9f274)" style="fill: none; stroke: #355f8d; stroke-width: 1.5; stroke-linecap: round"/>
   </g>
   <g id="line2d_13">
    <path d="M 50.149046 145.662025 
L 51.79296 145.717114 
L 53.436875 146.099867 
L 55.080789 146.088583 
L 56.724704 146.104855 
L 58.368618 146.550942 
L 60.012532 146.598136 
L 61.656447 146.219248 
L 63.300361 145.621985 
L 64.944276 144.850154 
L 66.58819 143.925923 
L 68.232105 142.913323 
L 69.876019 141.884408 
L 71.519933 140.902445 
L 73.163848 140.01912 
L 74.807762 139.268869 
L 76.451677 138.666089 
L 78.095591 138.207431 
L 79.739506 137.876967 
L 81.38342 137.652236 
L 83.027334 137.509466 
L 84.671249 137.426972 
L 86.315163 137.386792 
L 87.959078 137.375021 
L 89.602992 137.381436 
L 91.246906 137.398807 
L 92.890821 137.42219 
L 94.534735 137.448304 
L 96.17865 137.475044 
L 97.822564 137.501109 
L 99.466479 137.525744 
L 101.110393 137.548552 
L 102.754307 137.569369 
L 104.398222 137.588175 
L 106.042136 137.605037 
L 107.686051 137.620075 
L 109.329965 137.63343 
L 110.97388 137.645253 
L 112.617794 137.655697 
L 114.261708 137.664906 
L 115.905623 137.673014 
L 117.549537 137.680147 
L 119.193452 137.686416 
L 120.837366 137.691923 
L 122.481281 137.696758 
L 124.125195 137.701001 
L 125.769109 137.704725 
L 127.413024 137.707992 
L 129.056938 137.710857 
L 130.700853 137.71337 
L 132.344767 137.715574 
L 133.988682 137.717506 
L 135.632596 137.719201 
L 137.27651 137.720687 
L 138.920425 137.721989 
L 140.564339 137.723132 
L 142.208254 137.724133 
L 143.852168 137.725011 
L 145.496082 137.725781 
L 147.139997 137.726456 
L 148.783911 137.727048 
L 150.427826 137.727566 
L 152.07174 137.728021 
L 153.715655 137.72842 
L 155.359569 137.72877 
L 157.003483 137.729076 
L 158.647398 137.729345 
L 160.291312 137.729581 
L 161.935227 137.729787 
L 163.579141 137.729968 
L 165.223056 137.730127 
L 166.86697 137.730266 
L 168.510884 137.730388 
L 170.154799 137.730495 
L 171.798713 137.730589 
" clip-path="url(#pdabeb9f274)" style="fill: none; stroke: #21918c; stroke-width: 1.5; stroke-linecap: round"/>
   </g>
   <g id="line2d_14">
    <path d="M 50.149046 145.107364 
L 51.79296 145.164942 
L 53.436875 145.564994 
L 55.080789 145.802328 
L 56.724704 146.480843 
L 58.368618 147.626354 
L 60.012532 148.306305 
L 61.656447 148.62958 
L 63.300361 148.798701 
L 64.944276 148.814186 
L 66.58819 148.690626 
L 68.232105 148.476664 
L 69.876019 148.215282 
L 71.519933 147.942725 
L 73.163848 147.690161 
L 74.807762 147.479164 
L 76.451677 147.320344 
L 78.095591 147.214993 
L 79.739506 147.1577 
L 81.38342 147.139391 
L 83.027334 147.150026 
L 84.671249 147.180354 
L 86.315163 147.222758 
L 87.959078 147.271469 
L 89.602992 147.322393 
L 91.246906 147.372798 
L 92.890821 147.420979 
L 94.534735 147.465961 
L 96.17865 147.507268 
L 97.822564 147.544755 
L 99.466479 147.578483 
L 101.110393 147.608635 
L 102.754307 147.635462 
L 104.398222 147.659246 
L 106.042136 147.680276 
L 107.686051 147.698832 
L 109.329965 147.71518 
L 110.97388 147.729566 
L 112.617794 147.742213 
L 114.261708 147.753325 
L 115.905623 147.763083 
L 117.549537 147.771647 
L 119.193452 147.779163 
L 120.837366 147.785757 
L 122.481281 147.79154 
L 124.125195 147.796613 
L 125.769109 147.801061 
L 127.413024 147.804961 
L 129.056938 147.808382 
L 130.700853 147.81138 
L 132.344767 147.81401 
L 133.988682 147.816315 
L 135.632596 147.818336 
L 137.27651 147.820108 
L 138.920425 147.821662 
L 140.564339 147.823024 
L 142.208254 147.824218 
L 143.852168 147.825265 
L 145.496082 147.826183 
L 147.139997 147.826988 
L 148.783911 147.827693 
L 150.427826 147.828312 
L 152.07174 147.828854 
L 153.715655 147.829329 
L 155.359569 147.829746 
L 157.003483 147.830112 
L 158.647398 147.830432 
L 160.291312 147.830713 
L 161.935227 147.830959 
L 163.579141 147.831175 
L 165.223056 147.831364 
L 166.86697 147.83153 
L 168.510884 147.831676 
L 170.154799 147.831803 
L 171.798713 147.831915 
" clip-path="url(#pdabeb9f274)" style="fill: none; stroke: #44bf70; stroke-width: 1.5; stroke-linecap: round"/>
   </g>
   <g id="line2d_15">
    <path d="M 50.149046 144.552702 
L 51.79296 144.612771 
L 53.436875 145.030122 
L 55.080789 145.516074 
L 56.724704 146.85683 
L 58.368618 148.701766 
L 60.012532 150.014474 
L 61.656447 151.039912 
L 63.300361 151.975417 
L 64.944276 152.778218 
L 66.58819 153.45533 
L 68.232105 154.040005 
L 69.876019 154.546155 
L 71.519933 154.983004 
L 73.163848 155.361202 
L 74.807762 155.689459 
L 76.451677 155.974599 
L 78.095591 156.222555 
L 79.739506 156.438432 
L 81.38342 156.626546 
L 83.027334 156.790587 
L 84.671249 156.933735 
L 86.315163 157.058725 
L 87.959078 157.167917 
L 89.602992 157.263349 
L 91.246906 157.346789 
L 92.890821 157.419768 
L 94.534735 157.483617 
L 96.17865 157.539493 
L 97.822564 157.588402 
L 99.466479 157.631222 
L 101.110393 157.668717 
L 102.754307 157.701555 
L 104.398222 157.730318 
L 106.042136 157.755515 
L 107.686051 157.777589 
L 109.329965 157.79693 
L 110.97388 157.813878 
L 112.617794 157.828729 
L 114.261708 157.841744 
L 115.905623 157.853151 
L 117.549537 157.863148 
L 119.193452 157.87191 
L 120.837366 157.879591 
L 122.481281 157.886323 
L 124.125195 157.892224 
L 125.769109 157.897397 
L 127.413024 157.901931 
L 129.056938 157.905906 
L 130.700853 157.909391 
L 132.344767 157.912446 
L 133.988682 157.915124 
L 135.632596 157.917472 
L 137.27651 157.91953 
L 138.920425 157.921334 
L 140.564339 157.922916 
L 142.208254 157.924303 
L 143.852168 157.925519 
L 145.496082 157.926585 
L 147.139997 157.927519 
L 148.783911 157.928339 
L 150.427826 157.929057 
L 152.07174 157.929687 
L 153.715655 157.930239 
L 155.359569 157.930723 
L 157.003483 157.931147 
L 158.647398 157.931519 
L 160.291312 157.931845 
L 161.935227 157.932131 
L 163.579141 157.932382 
L 165.223056 157.932602 
L 166.86697 157.932795 
L 168.510884 157.932964 
L 170.154799 157.933112 
L 171.798713 157.933242 
" clip-path="url(#pdabeb9f274)" style="fill: none; stroke: #bddf26; stroke-width: 1.5; stroke-linecap: round"/>
   </g>
   <g id="patch_3">
    <path d="M 44.066563 157.934165 
L 44.066563 24.119531 
" style="fill: none; stroke: #cccccc; stroke-linejoin: miter; stroke-linecap: square"/>
   </g>
   <g id="patch_4">
    <path d="M 177.881197 157.934165 
L 177.881197 24.119531 
" style="fill: none; stroke: #cccccc; stroke-linejoin: miter; stroke-linecap: square"/>
   </g>
   <g id="patch_5">
    <path d="M 44.066563 157.934165 
L 177.881197 157.934165 
" style="fill: none; stroke: #cccccc; stroke-linejoin: miter; stroke-linecap: square"/>
   </g>
   <g id="patch_6">
    <path d="M 44.066563 24.119531 
L 177.881197 24.119531 
" style="fill: none; stroke: #cccccc; stroke-linejoin: miter; stroke-linecap: square"/>
   </g>
   <g id="text_13">
    <!-- La Grange -->
    <g style="fill: #262626" transform="translate(75.535208 18.119531)scale(0.15 -0.15)">
     <defs>
      <path id="ArialMT-4c" d="M 469 0 
L 469 4581 
L 1075 4581 
L 1075 541 
L 3331 541 
L 3331 0 
L 469 0 
z
" transform="scale(0.015625)"/>
      <path id="ArialMT-47" d="M 2638 1797 
L 2638 2334 
L 4578 2338 
L 4578 638 
Q 4131 281 3656 101 
Q 3181 -78 2681 -78 
Q 2006 -78 1454 211 
Q 903 500 622 1047 
Q 341 1594 341 2269 
Q 341 2938 620 3517 
Q 900 4097 1425 4378 
Q 1950 4659 2634 4659 
Q 3131 4659 3532 4498 
Q 3934 4338 4162 4050 
Q 4391 3763 4509 3300 
L 3963 3150 
Q 3859 3500 3706 3700 
Q 3553 3900 3268 4020 
Q 2984 4141 2638 4141 
Q 2222 4141 1919 4014 
Q 1616 3888 1430 3681 
Q 1244 3475 1141 3228 
Q 966 2803 966 2306 
Q 966 1694 1177 1281 
Q 1388 869 1791 669 
Q 2194 469 2647 469 
Q 3041 469 3416 620 
Q 3791 772 3984 944 
L 3984 1797 
L 2638 1797 
z
" transform="scale(0.015625)"/>
      <path id="ArialMT-67" d="M 319 -275 
L 866 -356 
Q 900 -609 1056 -725 
Q 1266 -881 1628 -881 
Q 2019 -881 2231 -725 
Q 2444 -569 2519 -288 
Q 2563 -116 2559 434 
Q 2191 0 1641 0 
Q 956 0 581 494 
Q 206 988 206 1678 
Q 206 2153 378 2554 
Q 550 2956 876 3175 
Q 1203 3394 1644 3394 
Q 2231 3394 2613 2919 
L 2613 3319 
L 3131 3319 
L 3131 450 
Q 3131 -325 2973 -648 
Q 2816 -972 2473 -1159 
Q 2131 -1347 1631 -1347 
Q 1038 -1347 672 -1080 
Q 306 -813 319 -275 
z
M 784 1719 
Q 784 1066 1043 766 
Q 1303 466 1694 466 
Q 2081 466 2343 764 
Q 2606 1063 2606 1700 
Q 2606 2309 2336 2618 
Q 2066 2928 1684 2928 
Q 1309 2928 1046 2623 
Q 784 2319 784 1719 
z
" transform="scale(0.015625)"/>
     </defs>
     <use xlink:href="#ArialMT-4c"/>
     <use xlink:href="#ArialMT-61" x="55.615234"/>
     <use xlink:href="#ArialMT-20" x="111.230469"/>
     <use xlink:href="#ArialMT-47" x="139.013672"/>
     <use xlink:href="#ArialMT-72" x="216.796875"/>
     <use xlink:href="#ArialMT-61" x="250.097656"/>
     <use xlink:href="#ArialMT-6e" x="305.712891"/>
     <use xlink:href="#ArialMT-67" x="361.328125"/>
     <use xlink:href="#ArialMT-65" x="416.943359"/>
    </g>
   </g>
  </g>
  <g id="axes_2">
   <g id="patch_7">
    <path d="M 184.571928 157.934165 
L 318.386563 157.934165 
L 318.386563 24.119531 
L 184.571928 24.119531 
z
" style="fill: #ffffff"/>
   </g>
   <g id="matplotlib.axis_3">
    <g id="xtick_5">
     <g id="line2d_16">
      <path d="M 190.654412 157.934165 
L 190.654412 24.119531 
" clip-path="url(#p53a5ea1fce)" style="fill: none; stroke: #cccccc; stroke-linecap: round"/>
     </g>
     <g id="text_14">
      <!-- 0 -->
      <g style="fill: #262626" transform="translate(187.595896 169.307759)scale(0.11 -0.11)">
       <use xlink:href="#ArialMT-30"/>
      </g>
     </g>
    </g>
    <g id="xtick_6">
     <g id="line2d_17">
      <path d="M 231.752272 157.934165 
L 231.752272 24.119531 
" clip-path="url(#p53a5ea1fce)" style="fill: none; stroke: #cccccc; stroke-linecap: round"/>
     </g>
     <g id="text_15">
      <!-- 25 -->
      <g style="fill: #262626" transform="translate(225.635241 169.307759)scale(0.11 -0.11)">
       <use xlink:href="#ArialMT-32"/>
       <use xlink:href="#ArialMT-35" x="55.615234"/>
      </g>
     </g>
    </g>
    <g id="xtick_7">
     <g id="line2d_18">
      <path d="M 272.850133 157.934165 
L 272.850133 24.119531 
" clip-path="url(#p53a5ea1fce)" style="fill: none; stroke: #cccccc; stroke-linecap: round"/>
     </g>
     <g id="text_16">
      <!-- 50 -->
      <g style="fill: #262626" transform="translate(266.733102 169.307759)scale(0.11 -0.11)">
       <use xlink:href="#ArialMT-35"/>
       <use xlink:href="#ArialMT-30" x="55.615234"/>
      </g>
     </g>
    </g>
    <g id="xtick_8">
     <g id="line2d_19">
      <path d="M 313.947994 157.934165 
L 313.947994 24.119531 
" clip-path="url(#p53a5ea1fce)" style="fill: none; stroke: #cccccc; stroke-linecap: round"/>
     </g>
     <g id="text_17">
      <!-- 75 -->
      <g style="fill: #262626" transform="translate(307.830962 169.307759)scale(0.11 -0.11)">
       <use xlink:href="#ArialMT-37"/>
       <use xlink:href="#ArialMT-35" x="55.615234"/>
      </g>
     </g>
    </g>
    <g id="text_18">
     <!-- Years -->
     <g style="fill: #262626" transform="translate(232.572214 186.230728)scale(0.15 -0.15)">
      <use xlink:href="#ArialMT-59"/>
      <use xlink:href="#ArialMT-65" x="57.574219"/>
      <use xlink:href="#ArialMT-61" x="113.189453"/>
      <use xlink:href="#ArialMT-72" x="168.804688"/>
      <use xlink:href="#ArialMT-73" x="202.105469"/>
     </g>
    </g>
   </g>
   <g id="matplotlib.axis_4">
    <g id="ytick_7">
     <g id="line2d_20">
      <path d="M 184.571928 157.934165 
L 318.386563 157.934165 
" clip-path="url(#p53a5ea1fce)" style="fill: none; stroke: #cccccc; stroke-linecap: round"/>
     </g>
    </g>
    <g id="ytick_8">
     <g id="line2d_21">
      <path d="M 184.571928 131.171239 
L 318.386563 131.171239 
" clip-path="url(#p53a5ea1fce)" style="fill: none; stroke: #cccccc; stroke-linecap: round"/>
     </g>
    </g>
    <g id="ytick_9">
     <g id="line2d_22">
      <path d="M 184.571928 104.408312 
L 318.386563 104.408312 
" clip-path="url(#p53a5ea1fce)" style="fill: none; stroke: #cccccc; stroke-linecap: round"/>
     </g>
    </g>
    <g id="ytick_10">
     <g id="line2d_23">
      <path d="M 184.571928 77.645385 
L 318.386563 77.645385 
" clip-path="url(#p53a5ea1fce)" style="fill: none; stroke: #cccccc; stroke-linecap: round"/>
     </g>
    </g>
    <g id="ytick_11">
     <g id="line2d_24">
      <path d="M 184.571928 50.882458 
L 318.386563 50.882458 
" clip-path="url(#p53a5ea1fce)" style="fill: none; stroke: #cccccc; stroke-linecap: round"/>
     </g>
    </g>
    <g id="ytick_12">
     <g id="line2d_25">
      <path d="M 184.571928 24.119531 
L 318.386563 24.119531 
" clip-path="url(#p53a5ea1fce)" style="fill: none; stroke: #cccccc; stroke-linecap: round"/>
     </g>
    </g>
   </g>
   <g id="line2d_26">
    <path d="M 190.654412 142.334055 
L 192.298326 142.404083 
L 193.942241 142.890631 
L 195.586155 142.025313 
L 197.230069 139.786416 
L 198.873984 138.033241 
L 200.517898 135.939141 
L 202.161813 133.000554 
L 203.805727 129.531294 
L 205.449642 125.741676 
L 207.093556 121.689181 
L 208.73747 117.517661 
L 210.381385 113.429131 
L 212.025299 109.606082 
L 213.669214 106.192281 
L 215.313128 103.280763 
L 216.957043 100.904975 
L 218.600957 99.0443 
L 220.244871 97.640101 
L 221.888786 96.614635 
L 223.5327 95.887101 
L 225.176615 95.384127 
L 226.820529 95.04475 
L 228.464443 94.821379 
L 230.108358 94.67849 
L 231.752272 94.590415 
L 233.396187 94.539043 
L 235.040101 94.511824 
L 236.684016 94.500181 
L 238.32793 94.498322 
L 239.971844 94.502382 
L 241.615759 94.509813 
L 243.259673 94.518958 
L 244.903588 94.528761 
L 246.547502 94.538567 
L 248.191417 94.547985 
L 249.835331 94.556799 
L 251.479245 94.564903 
L 253.12316 94.572264 
L 254.767074 94.578891 
L 256.410989 94.584817 
L 258.054903 94.590093 
L 259.698818 94.594771 
L 261.342732 94.598909 
L 262.986646 94.602562 
L 264.630561 94.605781 
L 266.274475 94.608614 
L 267.91839 94.611105 
L 269.562304 94.613295 
L 271.206219 94.615218 
L 272.850133 94.616906 
L 274.494047 94.618388 
L 276.137962 94.619688 
L 277.781876 94.620828 
L 279.425791 94.621829 
L 281.069705 94.622706 
L 282.713619 94.623475 
L 284.357534 94.62415 
L 286.001448 94.624742 
L 287.645363 94.625261 
L 289.289277 94.625715 
L 290.933192 94.626114 
L 292.577106 94.626464 
L 294.22102 94.62677 
L 295.864935 94.627039 
L 297.508849 94.627275 
L 299.152764 94.627482 
L 300.796678 94.627663 
L 302.440593 94.627822 
L 304.084507 94.627961 
L 305.728421 94.628083 
L 307.372336 94.62819 
L 309.01625 94.628284 
L 310.660165 94.628366 
L 312.304079 94.628438 
" clip-path="url(#p53a5ea1fce)" style="fill: none; stroke: #482475; stroke-width: 1.5; stroke-linecap: round"/>
   </g>
   <g id="line2d_27">
    <path d="M 190.654412 142.888717 
L 192.298326 142.956255 
L 193.942241 143.425504 
L 195.586155 142.311568 
L 197.230069 139.410428 
L 198.873984 136.957829 
L 200.517898 134.230973 
L 202.161813 130.590221 
L 203.805727 126.354578 
L 205.449642 121.777644 
L 207.093556 116.924478 
L 208.73747 111.954319 
L 210.381385 107.098258 
L 212.025299 102.565803 
L 213.669214 98.52124 
L 215.313128 95.070468 
L 216.957043 92.25072 
L 218.600957 90.036738 
L 220.244871 88.359369 
L 221.888786 87.127481 
L 223.5327 86.24654 
L 225.176615 85.630746 
L 226.820529 85.208784 
L 228.464443 84.924932 
L 230.108358 84.737534 
L 231.752272 84.616424 
L 233.396187 84.540254 
L 235.040101 84.494168 
L 236.684016 84.467956 
L 238.32793 84.454675 
L 239.971844 84.449643 
L 241.615759 84.44973 
L 243.259673 84.452865 
L 244.903588 84.457689 
L 246.547502 84.463328 
L 248.191417 84.469228 
L 249.835331 84.475048 
L 251.479245 84.480591 
L 253.12316 84.485748 
L 254.767074 84.490471 
L 256.410989 84.494749 
L 258.054903 84.498592 
L 259.698818 84.502024 
L 261.342732 84.505075 
L 262.986646 84.507779 
L 264.630561 84.510169 
L 266.274475 84.512278 
L 267.91839 84.514136 
L 269.562304 84.51577 
L 271.206219 84.517207 
L 272.850133 84.51847 
L 274.494047 84.519579 
L 276.137962 84.520552 
L 277.781876 84.521407 
L 279.425791 84.522156 
L 281.069705 84.522814 
L 282.713619 84.523391 
L 284.357534 84.523896 
L 286.001448 84.52434 
L 287.645363 84.524729 
L 289.289277 84.52507 
L 290.933192 84.525369 
L 292.577106 84.525631 
L 294.22102 84.525861 
L 295.864935 84.526063 
L 297.508849 84.52624 
L 299.152764 84.526394 
L 300.796678 84.52653 
L 302.440593 84.526649 
L 304.084507 84.526754 
L 305.728421 84.526845 
L 307.372336 84.526926 
L 309.01625 84.526996 
L 310.660165 84.527058 
L 312.304079 84.527112 
" clip-path="url(#p53a5ea1fce)" style="fill: none; stroke: #355f8d; stroke-width: 1.5; stroke-linecap: round"/>
   </g>
   <g id="line2d_28">
    <path d="M 190.654412 143.443379 
L 192.298326 143.508427 
L 193.942241 143.960377 
L 195.586155 142.597823 
L 197.230069 139.03444 
L 198.873984 135.882417 
L 200.517898 132.522804 
L 202.161813 128.179889 
L 203.805727 123.177862 
L 205.449642 117.813612 
L 207.093556 112.159774 
L 208.73747 106.390978 
L 210.381385 100.767384 
L 212.025299 95.525524 
L 213.669214 90.850198 
L 215.313128 86.860173 
L 216.957043 83.596465 
L 218.600957 81.029176 
L 220.244871 79.078636 
L 221.888786 77.640326 
L 223.5327 76.605979 
L 225.176615 75.877364 
L 226.820529 75.372817 
L 228.464443 75.028484 
L 230.108358 74.796577 
L 231.752272 74.642433 
L 233.396187 74.541465 
L 235.040101 74.476512 
L 236.684016 74.435732 
L 238.32793 74.411028 
L 239.971844 74.396904 
L 241.615759 74.389648 
L 243.259673 74.386771 
L 244.903588 74.386617 
L 246.547502 74.388089 
L 248.191417 74.39047 
L 249.835331 74.393298 
L 251.479245 74.396279 
L 253.12316 74.399232 
L 254.767074 74.402052 
L 256.410989 74.404681 
L 258.054903 74.407092 
L 259.698818 74.409277 
L 261.342732 74.411242 
L 262.986646 74.412997 
L 264.630561 74.414558 
L 266.274475 74.415942 
L 267.91839 74.417166 
L 269.562304 74.418246 
L 271.206219 74.419197 
L 272.850133 74.420034 
L 274.494047 74.42077 
L 276.137962 74.421417 
L 277.781876 74.421985 
L 279.425791 74.422484 
L 281.069705 74.422922 
L 282.713619 74.423306 
L 284.357534 74.423643 
L 286.001448 74.423938 
L 287.645363 74.424197 
L 289.289277 74.424425 
L 290.933192 74.424624 
L 292.577106 74.424799 
L 294.22102 74.424952 
L 295.864935 74.425086 
L 297.508849 74.425204 
L 299.152764 74.425307 
L 300.796678 74.425398 
L 302.440593 74.425477 
L 304.084507 74.425547 
L 305.728421 74.425608 
L 307.372336 74.425662 
L 309.01625 74.425708 
L 310.660165 74.42575 
L 312.304079 74.425786 
" clip-path="url(#p53a5ea1fce)" style="fill: none; stroke: #21918c; stroke-width: 1.5; stroke-linecap: round"/>
   </g>
   <g id="line2d_29">
    <path d="M 190.654412 143.99804 
L 192.298326 144.060599 
L 193.942241 144.495249 
L 195.586155 142.884078 
L 197.230069 138.658453 
L 198.873984 134.807005 
L 200.517898 130.814635 
L 202.161813 125.769557 
L 203.805727 120.001146 
L 205.449642 113.84958 
L 207.093556 107.39507 
L 208.73747 100.827637 
L 210.381385 94.436511 
L 212.025299 88.485245 
L 213.669214 83.179157 
L 215.313128 78.649878 
L 216.957043 74.94221 
L 218.600957 72.021614 
L 220.244871 69.797903 
L 221.888786 68.153171 
L 223.5327 66.965419 
L 225.176615 66.123983 
L 226.820529 65.53685 
L 228.464443 65.132036 
L 230.108358 64.85562 
L 231.752272 64.668442 
L 233.396187 64.542676 
L 235.040101 64.458855 
L 236.684016 64.403507 
L 238.32793 64.367382 
L 239.971844 64.344165 
L 241.615759 64.329565 
L 243.259673 64.320678 
L 244.903588 64.315545 
L 246.547502 64.312851 
L 248.191417 64.311713 
L 249.835331 64.311548 
L 251.479245 64.311966 
L 253.12316 64.312716 
L 254.767074 64.313633 
L 256.410989 64.314613 
L 258.054903 64.315591 
L 259.698818 64.31653 
L 261.342732 64.317408 
L 262.986646 64.318214 
L 264.630561 64.318947 
L 266.274475 64.319606 
L 267.91839 64.320196 
L 269.562304 64.320721 
L 271.206219 64.321186 
L 272.850133 64.321598 
L 274.494047 64.321962 
L 276.137962 64.322282 
L 277.781876 64.322564 
L 279.425791 64.322812 
L 281.069705 64.323029 
L 282.713619 64.323221 
L 284.357534 64.323389 
L 286.001448 64.323536 
L 287.645363 64.323666 
L 289.289277 64.323779 
L 290.933192 64.323879 
L 292.577106 64.323966 
L 294.22102 64.324043 
L 295.864935 64.32411 
L 297.508849 64.324169 
L 299.152764 64.32422 
L 300.796678 64.324266 
L 302.440593 64.324305 
L 304.084507 64.32434 
L 305.728421 64.324371 
L 307.372336 64.324397 
L 309.01625 64.324421 
L 310.660165 64.324441 
L 312.304079 64.324459 
" clip-path="url(#p53a5ea1fce)" style="fill: none; stroke: #44bf70; stroke-width: 1.5; stroke-linecap: round"/>
   </g>
   <g id="line2d_30">
    <path d="M 190.654412 144.552702 
L 192.298326 144.612771 
L 193.942241 145.030122 
L 195.586155 143.170332 
L 197.230069 138.282465 
L 198.873984 133.731593 
L 200.517898 129.106467 
L 202.161813 123.359225 
L 203.805727 116.82443 
L 205.449642 109.885548 
L 207.093556 102.630366 
L 208.73747 95.264296 
L 210.381385 88.105638 
L 212.025299 81.444965 
L 213.669214 75.508116 
L 215.313128 70.439584 
L 216.957043 66.287955 
L 218.600957 63.014052 
L 220.244871 60.51717 
L 221.888786 58.666016 
L 223.5327 57.324858 
L 225.176615 56.370602 
L 226.820529 55.700883 
L 228.464443 55.235588 
L 230.108358 54.914664 
L 231.752272 54.694451 
L 233.396187 54.543887 
L 235.040101 54.441199 
L 236.684016 54.371283 
L 238.32793 54.323735 
L 239.971844 54.291425 
L 241.615759 54.269482 
L 243.259673 54.254585 
L 244.903588 54.244474 
L 246.547502 54.237612 
L 248.191417 54.232956 
L 249.835331 54.229797 
L 251.479245 54.227654 
L 253.12316 54.2262 
L 254.767074 54.225214 
L 256.410989 54.224544 
L 258.054903 54.224091 
L 259.698818 54.223783 
L 261.342732 54.223574 
L 262.986646 54.223432 
L 264.630561 54.223336 
L 266.274475 54.223271 
L 267.91839 54.223226 
L 269.562304 54.223196 
L 271.206219 54.223176 
L 272.850133 54.223162 
L 274.494047 54.223153 
L 276.137962 54.223146 
L 277.781876 54.223142 
L 279.425791 54.223139 
L 281.069705 54.223137 
L 282.713619 54.223136 
L 284.357534 54.223135 
L 286.001448 54.223134 
L 287.645363 54.223134 
L 289.289277 54.223134 
L 290.933192 54.223133 
L 292.577106 54.223133 
L 294.22102 54.223133 
L 295.864935 54.223133 
L 297.508849 54.223133 
L 299.152764 54.223133 
L 300.796678 54.223133 
L 302.440593 54.223133 
L 304.084507 54.223133 
L 305.728421 54.223133 
L 307.372336 54.223133 
L 309.01625 54.223133 
L 310.660165 54.223133 
L 312.304079 54.223133 
" clip-path="url(#p53a5ea1fce)" style="fill: none; stroke: #bddf26; stroke-width: 1.5; stroke-linecap: round"/>
   </g>
   <g id="patch_8">
    <path d="M 184.571928 157.934165 
L 184.571928 24.119531 
" style="fill: none; stroke: #cccccc; stroke-linejoin: miter; stroke-linecap: square"/>
   </g>
   <g id="patch_9">
    <path d="M 318.386563 157.934165 
L 318.386563 24.119531 
" style="fill: none; stroke: #cccccc; stroke-linejoin: miter; stroke-linecap: square"/>
   </g>
   <g id="patch_10">
    <path d="M 184.571928 157.934165 
L 318.386563 157.934165 
" style="fill: none; stroke: #cccccc; stroke-linejoin: miter; stroke-linecap: square"/>
   </g>
   <g id="patch_11">
    <path d="M 184.571928 24.119531 
L 318.386563 24.119531 
" style="fill: none; stroke: #cccccc; stroke-linejoin: miter; stroke-linecap: square"/>
   </g>
   <g id="text_19">
    <!-- Peoria -->
    <g style="fill: #262626" transform="translate(229.80073 18.119531)scale(0.15 -0.15)">
     <use xlink:href="#ArialMT-50"/>
     <use xlink:href="#ArialMT-65" x="66.699219"/>
     <use xlink:href="#ArialMT-6f" x="122.314453"/>
     <use xlink:href="#ArialMT-72" x="177.929688"/>
     <use xlink:href="#ArialMT-69" x="211.230469"/>
     <use xlink:href="#ArialMT-61" x="233.447266"/>
    </g>
   </g>
  </g>
  <g id="legend_1">
   <g id="patch_12">
    <path d="M 326.969062 146.992786 
L 416.066562 146.992786 
Q 418.266562 146.992786 418.266562 144.792786 
L 418.266562 51.619192 
Q 418.266562 49.419192 416.066562 49.419192 
L 326.969062 49.419192 
Q 324.769062 49.419192 324.769062 51.619192 
L 324.769062 144.792786 
Q 324.769062 146.992786 326.969062 146.992786 
z
" style="fill: #ffffff; opacity: 0.8; stroke: #cccccc; stroke-linejoin: miter"/>
   </g>
   <g id="text_20">
    <!-- Movement Rate -->
    <g style="fill: #262626" transform="translate(329.169062 62.408567)scale(0.12 -0.12)">
     <defs>
      <path id="ArialMT-4d" d="M 475 0 
L 475 4581 
L 1388 4581 
L 2472 1338 
Q 2622 884 2691 659 
Q 2769 909 2934 1394 
L 4031 4581 
L 4847 4581 
L 4847 0 
L 4263 0 
L 4263 3834 
L 2931 0 
L 2384 0 
L 1059 3900 
L 1059 0 
L 475 0 
z
" transform="scale(0.015625)"/>
      <path id="ArialMT-76" d="M 1344 0 
L 81 3319 
L 675 3319 
L 1388 1331 
Q 1503 1009 1600 663 
Q 1675 925 1809 1294 
L 2547 3319 
L 3125 3319 
L 1869 0 
L 1344 0 
z
" transform="scale(0.015625)"/>
      <path id="ArialMT-52" d="M 503 0 
L 503 4581 
L 2534 4581 
Q 3147 4581 3465 4457 
Q 3784 4334 3975 4021 
Q 4166 3709 4166 3331 
Q 4166 2844 3850 2509 
Q 3534 2175 2875 2084 
Q 3116 1969 3241 1856 
Q 3506 1613 3744 1247 
L 4541 0 
L 3778 0 
L 3172 953 
Q 2906 1366 2734 1584 
Q 2563 1803 2427 1890 
Q 2291 1978 2150 2013 
Q 2047 2034 1813 2034 
L 1109 2034 
L 1109 0 
L 503 0 
z
M 1109 2559 
L 2413 2559 
Q 2828 2559 3062 2645 
Q 3297 2731 3419 2920 
Q 3541 3109 3541 3331 
Q 3541 3656 3305 3865 
Q 3069 4075 2559 4075 
L 1109 4075 
L 1109 2559 
z
" transform="scale(0.015625)"/>
     </defs>
     <use xlink:href="#ArialMT-4d"/>
     <use xlink:href="#ArialMT-6f" x="83.300781"/>
     <use xlink:href="#ArialMT-76" x="138.916016"/>
     <use xlink:href="#ArialMT-65" x="188.916016"/>
     <use xlink:href="#ArialMT-6d" x="244.53125"/>
     <use xlink:href="#ArialMT-65" x="327.832031"/>
     <use xlink:href="#ArialMT-6e" x="383.447266"/>
     <use xlink:href="#ArialMT-74" x="439.0625"/>
     <use xlink:href="#ArialMT-20" x="466.845703"/>
     <use xlink:href="#ArialMT-52" x="494.628906"/>
     <use xlink:href="#ArialMT-61" x="566.845703"/>
     <use xlink:href="#ArialMT-74" x="622.460938"/>
     <use xlink:href="#ArialMT-65" x="650.244141"/>
    </g>
   </g>
   <g id="line2d_31">
    <path d="M 342.051562 74.317161 
L 353.051562 74.317161 
L 364.051562 74.317161 
" style="fill: none; stroke: #482475; stroke-width: 1.5; stroke-linecap: round"/>
   </g>
   <g id="text_21">
    <!-- 100% -->
    <g style="fill: #262626" transform="translate(372.851562 78.167161)scale(0.11 -0.11)">
     <defs>
      <path id="ArialMT-25" d="M 372 3481 
Q 372 3972 619 4315 
Q 866 4659 1334 4659 
Q 1766 4659 2048 4351 
Q 2331 4044 2331 3447 
Q 2331 2866 2045 2552 
Q 1759 2238 1341 2238 
Q 925 2238 648 2547 
Q 372 2856 372 3481 
z
M 1350 4272 
Q 1141 4272 1002 4090 
Q 863 3909 863 3425 
Q 863 2984 1003 2804 
Q 1144 2625 1350 2625 
Q 1563 2625 1702 2806 
Q 1841 2988 1841 3469 
Q 1841 3913 1700 4092 
Q 1559 4272 1350 4272 
z
M 1353 -169 
L 3859 4659 
L 4316 4659 
L 1819 -169 
L 1353 -169 
z
M 3334 1075 
Q 3334 1569 3581 1911 
Q 3828 2253 4300 2253 
Q 4731 2253 5014 1945 
Q 5297 1638 5297 1041 
Q 5297 459 5011 145 
Q 4725 -169 4303 -169 
Q 3888 -169 3611 142 
Q 3334 453 3334 1075 
z
M 4316 1866 
Q 4103 1866 3964 1684 
Q 3825 1503 3825 1019 
Q 3825 581 3965 400 
Q 4106 219 4313 219 
Q 4528 219 4667 400 
Q 4806 581 4806 1063 
Q 4806 1506 4665 1686 
Q 4525 1866 4316 1866 
z
" transform="scale(0.015625)"/>
     </defs>
     <use xlink:href="#ArialMT-31"/>
     <use xlink:href="#ArialMT-30" x="55.615234"/>
     <use xlink:href="#ArialMT-30" x="111.230469"/>
     <use xlink:href="#ArialMT-25" x="166.845703"/>
    </g>
   </g>
   <g id="line2d_32">
    <path d="M 342.051562 89.877005 
L 353.051562 89.877005 
L 364.051562 89.877005 
" style="fill: none; stroke: #355f8d; stroke-width: 1.5; stroke-linecap: round"/>
   </g>
   <g id="text_22">
    <!-- 75% -->
    <g style="fill: #262626" transform="translate(372.851562 93.727005)scale(0.11 -0.11)">
     <use xlink:href="#ArialMT-37"/>
     <use xlink:href="#ArialMT-35" x="55.615234"/>
     <use xlink:href="#ArialMT-25" x="111.230469"/>
    </g>
   </g>
   <g id="line2d_33">
    <path d="M 342.051562 105.436848 
L 353.051562 105.436848 
L 364.051562 105.436848 
" style="fill: none; stroke: #21918c; stroke-width: 1.5; stroke-linecap: round"/>
   </g>
   <g id="text_23">
    <!-- 50% -->
    <g style="fill: #262626" transform="translate(372.851562 109.286848)scale(0.11 -0.11)">
     <use xlink:href="#ArialMT-35"/>
     <use xlink:href="#ArialMT-30" x="55.615234"/>
     <use xlink:href="#ArialMT-25" x="111.230469"/>
    </g>
   </g>
   <g id="line2d_34">
    <path d="M 342.051562 120.996692 
L 353.051562 120.996692 
L 364.051562 120.996692 
" style="fill: none; stroke: #44bf70; stroke-width: 1.5; stroke-linecap: round"/>
   </g>
   <g id="text_24">
    <!-- 25% -->
    <g style="fill: #262626" transform="translate(372.851562 124.846692)scale(0.11 -0.11)">
     <use xlink:href="#ArialMT-32"/>
     <use xlink:href="#ArialMT-35" x="55.615234"/>
     <use xlink:href="#ArialMT-25" x="111.230469"/>
    </g>
   </g>
   <g id="line2d_35">
    <path d="M 342.051562 136.556536 
L 353.051562 136.556536 
L 364.051562 136.556536 
" style="fill: none; stroke: #bddf26; stroke-width: 1.5; stroke-linecap: round"/>
   </g>
   <g id="text_25">
    <!-- 0% -->
    <g style="fill: #262626" transform="translate(372.851562 140.406536)scale(0.11 -0.11)">
     <use xlink:href="#ArialMT-30"/>
     <use xlink:href="#ArialMT-25" x="55.615234"/>
    </g>
   </g>
  </g>
 </g>
 <defs>
  <clipPath id="pdabeb9f274">
   <rect x="44.066563" y="24.119531" width="133.814634" height="133.814634"/>
  </clipPath>
  <clipPath id="p53a5ea1fce">
   <rect x="184.571928" y="24.119531" width="133.814634" height="133.814634"/>
  </clipPath>
 </defs>
</svg>
