<?xml version="1.0" encoding="utf-8" standalone="no"?>
<!DOCTYPE svg PUBLIC "-//W3C//DTD SVG 1.1//EN"
  "http://www.w3.org/Graphics/SVG/1.1/DTD/svg11.dtd">
<svg xmlns:xlink="http://www.w3.org/1999/xlink" width="423.766562pt" height="196.411978pt" viewBox="0 0 423.766562 196.411978" xmlns="http://www.w3.org/2000/svg" version="1.1">
 <metadata>
  <rdf:RDF xmlns:dc="http://purl.org/dc/elements/1.1/" xmlns:cc="http://creativecommons.org/ns#" xmlns:rdf="http://www.w3.org/1999/02/22-rdf-syntax-ns#">
   <cc:Work>
    <dc:type rdf:resource="http://purl.org/dc/dcmitype/StillImage"/>
    <dc:date>2022-11-10T14:28:26.981964</dc:date>
    <dc:format>image/svg+xml</dc:format>
    <dc:creator>
     <cc:Agent>
      <dc:title>Matplotlib v3.5.1, https://matplotlib.org/</dc:title>
     </cc:Agent>
    </dc:creator>
   </cc:Work>
  </rdf:RDF>
 </metadata>
 <defs>
  <style type="text/css">*{stroke-linejoin: round; stroke-linecap: butt}</style>
 </defs>
 <g id="figure_1">
  <g id="patch_1">
   <path d="M 0 196.411978 
L 423.766562 196.411978 
L 423.766562 0 
L 0 0 
z
" style="fill: #ffffff"/>
  </g>
  <g id="axes_1">
   <g id="patch_2">
    <path d="M 44.066563 157.934165 
L 177.881197 157.934165 
L 177.881197 24.119531 
L 44.066563 24.119531 
z
" style="fill: #ffffff"/>
   </g>
   <g id="matplotlib.axis_1">
    <g id="xtick_1">
     <g id="line2d_1">
      <path d="M 50.149046 157.934165 
L 50.149046 24.119531 
" clip-path="url(#p459b7b642e)" style="fill: none; stroke: #cccccc; stroke-linecap: round"/>
     </g>
     <g id="text_1">
      <!-- 0 -->
      <g style="fill: #262626" transform="translate(47.09053 169.307759)scale(0.11 -0.11)">
       <defs>
        <path id="ArialMT-30" d="M 266 2259 
Q 266 3072 433 3567 
Q 600 4063 929 4331 
Q 1259 4600 1759 4600 
Q 2128 4600 2406 4451 
Q 2684 4303 2865 4023 
Q 3047 3744 3150 3342 
Q 3253 2941 3253 2259 
Q 3253 1453 3087 958 
Q 2922 463 2592 192 
Q 2263 -78 1759 -78 
Q 1097 -78 719 397 
Q 266 969 266 2259 
z
M 844 2259 
Q 844 1131 1108 757 
Q 1372 384 1759 384 
Q 2147 384 2411 759 
Q 2675 1134 2675 2259 
Q 2675 3391 2411 3762 
Q 2147 4134 1753 4134 
Q 1366 4134 1134 3806 
Q 844 3388 844 2259 
z
" transform="scale(0.015625)"/>
       </defs>
       <use xlink:href="#ArialMT-30"/>
      </g>
     </g>
    </g>
    <g id="xtick_2">
     <g id="line2d_2">
      <path d="M 91.246906 157.934165 
L 91.246906 24.119531 
" clip-path="url(#p459b7b642e)" style="fill: none; stroke: #cccccc; stroke-linecap: round"/>
     </g>
     <g id="text_2">
      <!-- 25 -->
      <g style="fill: #262626" transform="translate(85.129875 169.307759)scale(0.11 -0.11)">
       <defs>
        <path id="ArialMT-32" d="M 3222 541 
L 3222 0 
L 194 0 
Q 188 203 259 391 
Q 375 700 629 1000 
Q 884 1300 1366 1694 
Q 2113 2306 2375 2664 
Q 2638 3022 2638 3341 
Q 2638 3675 2398 3904 
Q 2159 4134 1775 4134 
Q 1369 4134 1125 3890 
Q 881 3647 878 3216 
L 300 3275 
Q 359 3922 746 4261 
Q 1134 4600 1788 4600 
Q 2447 4600 2831 4234 
Q 3216 3869 3216 3328 
Q 3216 3053 3103 2787 
Q 2991 2522 2730 2228 
Q 2469 1934 1863 1422 
Q 1356 997 1212 845 
Q 1069 694 975 541 
L 3222 541 
z
" transform="scale(0.015625)"/>
        <path id="ArialMT-35" d="M 266 1200 
L 856 1250 
Q 922 819 1161 601 
Q 1400 384 1738 384 
Q 2144 384 2425 690 
Q 2706 997 2706 1503 
Q 2706 1984 2436 2262 
Q 2166 2541 1728 2541 
Q 1456 2541 1237 2417 
Q 1019 2294 894 2097 
L 366 2166 
L 809 4519 
L 3088 4519 
L 3088 3981 
L 1259 3981 
L 1013 2750 
Q 1425 3038 1878 3038 
Q 2478 3038 2890 2622 
Q 3303 2206 3303 1553 
Q 3303 931 2941 478 
Q 2500 -78 1738 -78 
Q 1113 -78 717 272 
Q 322 622 266 1200 
z
" transform="scale(0.015625)"/>
       </defs>
       <use xlink:href="#ArialMT-32"/>
       <use xlink:href="#ArialMT-35" x="55.615234"/>
      </g>
     </g>
    </g>
    <g id="xtick_3">
     <g id="line2d_3">
      <path d="M 132.344767 157.934165 
L 132.344767 24.119531 
" clip-path="url(#p459b7b642e)" style="fill: none; stroke: #cccccc; stroke-linecap: round"/>
     </g>
     <g id="text_3">
      <!-- 50 -->
      <g style="fill: #262626" transform="translate(126.227736 169.307759)scale(0.11 -0.11)">
       <use xlink:href="#ArialMT-35"/>
       <use xlink:href="#ArialMT-30" x="55.615234"/>
      </g>
     </g>
    </g>
    <g id="xtick_4">
     <g id="line2d_4">
      <path d="M 173.442628 157.934165 
L 173.442628 24.119531 
" clip-path="url(#p459b7b642e)" style="fill: none; stroke: #cccccc; stroke-linecap: round"/>
     </g>
     <g id="text_4">
      <!-- 75 -->
      <g style="fill: #262626" transform="translate(167.325596 169.307759)scale(0.11 -0.11)">
       <defs>
        <path id="ArialMT-37" d="M 303 3981 
L 303 4522 
L 3269 4522 
L 3269 4084 
Q 2831 3619 2401 2847 
Q 1972 2075 1738 1259 
Q 1569 684 1522 0 
L 944 0 
Q 953 541 1156 1306 
Q 1359 2072 1739 2783 
Q 2119 3494 2547 3981 
L 303 3981 
z
" transform="scale(0.015625)"/>
       </defs>
       <use xlink:href="#ArialMT-37"/>
       <use xlink:href="#ArialMT-35" x="55.615234"/>
      </g>
     </g>
    </g>
    <g id="text_5">
     <!-- Years -->
     <g style="fill: #262626" transform="translate(92.066848 186.230728)scale(0.15 -0.15)">
      <defs>
       <path id="ArialMT-59" d="M 1784 0 
L 1784 1941 
L 19 4581 
L 756 4581 
L 1659 3200 
Q 1909 2813 2125 2425 
Q 2331 2784 2625 3234 
L 3513 4581 
L 4219 4581 
L 2391 1941 
L 2391 0 
L 1784 0 
z
" transform="scale(0.015625)"/>
       <path id="ArialMT-65" d="M 2694 1069 
L 3275 997 
Q 3138 488 2766 206 
Q 2394 -75 1816 -75 
Q 1088 -75 661 373 
Q 234 822 234 1631 
Q 234 2469 665 2931 
Q 1097 3394 1784 3394 
Q 2450 3394 2872 2941 
Q 3294 2488 3294 1666 
Q 3294 1616 3291 1516 
L 816 1516 
Q 847 969 1125 678 
Q 1403 388 1819 388 
Q 2128 388 2347 550 
Q 2566 713 2694 1069 
z
M 847 1978 
L 2700 1978 
Q 2663 2397 2488 2606 
Q 2219 2931 1791 2931 
Q 1403 2931 1139 2672 
Q 875 2413 847 1978 
z
" transform="scale(0.015625)"/>
       <path id="ArialMT-61" d="M 2588 409 
Q 2275 144 1986 34 
Q 1697 -75 1366 -75 
Q 819 -75 525 192 
Q 231 459 231 875 
Q 231 1119 342 1320 
Q 453 1522 633 1644 
Q 813 1766 1038 1828 
Q 1203 1872 1538 1913 
Q 2219 1994 2541 2106 
Q 2544 2222 2544 2253 
Q 2544 2597 2384 2738 
Q 2169 2928 1744 2928 
Q 1347 2928 1158 2789 
Q 969 2650 878 2297 
L 328 2372 
Q 403 2725 575 2942 
Q 747 3159 1072 3276 
Q 1397 3394 1825 3394 
Q 2250 3394 2515 3294 
Q 2781 3194 2906 3042 
Q 3031 2891 3081 2659 
Q 3109 2516 3109 2141 
L 3109 1391 
Q 3109 606 3145 398 
Q 3181 191 3288 0 
L 2700 0 
Q 2613 175 2588 409 
z
M 2541 1666 
Q 2234 1541 1622 1453 
Q 1275 1403 1131 1340 
Q 988 1278 909 1158 
Q 831 1038 831 891 
Q 831 666 1001 516 
Q 1172 366 1500 366 
Q 1825 366 2078 508 
Q 2331 650 2450 897 
Q 2541 1088 2541 1459 
L 2541 1666 
z
" transform="scale(0.015625)"/>
       <path id="ArialMT-72" d="M 416 0 
L 416 3319 
L 922 3319 
L 922 2816 
Q 1116 3169 1280 3281 
Q 1444 3394 1641 3394 
Q 1925 3394 2219 3213 
L 2025 2691 
Q 1819 2813 1613 2813 
Q 1428 2813 1281 2702 
Q 1134 2591 1072 2394 
Q 978 2094 978 1738 
L 978 0 
L 416 0 
z
" transform="scale(0.015625)"/>
       <path id="ArialMT-73" d="M 197 991 
L 753 1078 
Q 800 744 1014 566 
Q 1228 388 1613 388 
Q 2000 388 2187 545 
Q 2375 703 2375 916 
Q 2375 1106 2209 1216 
Q 2094 1291 1634 1406 
Q 1016 1563 777 1677 
Q 538 1791 414 1992 
Q 291 2194 291 2438 
Q 291 2659 392 2848 
Q 494 3038 669 3163 
Q 800 3259 1026 3326 
Q 1253 3394 1513 3394 
Q 1903 3394 2198 3281 
Q 2494 3169 2634 2976 
Q 2775 2784 2828 2463 
L 2278 2388 
Q 2241 2644 2061 2787 
Q 1881 2931 1553 2931 
Q 1166 2931 1000 2803 
Q 834 2675 834 2503 
Q 834 2394 903 2306 
Q 972 2216 1119 2156 
Q 1203 2125 1616 2013 
Q 2213 1853 2448 1751 
Q 2684 1650 2818 1456 
Q 2953 1263 2953 975 
Q 2953 694 2789 445 
Q 2625 197 2315 61 
Q 2006 -75 1616 -75 
Q 969 -75 630 194 
Q 291 463 197 991 
z
" transform="scale(0.015625)"/>
      </defs>
      <use xlink:href="#ArialMT-59"/>
      <use xlink:href="#ArialMT-65" x="57.574219"/>
      <use xlink:href="#ArialMT-61" x="113.189453"/>
      <use xlink:href="#ArialMT-72" x="168.804688"/>
      <use xlink:href="#ArialMT-73" x="202.105469"/>
     </g>
    </g>
   </g>
   <g id="matplotlib.axis_2">
    <g id="ytick_1">
     <g id="line2d_5">
      <path d="M 44.066563 157.934165 
L 177.881197 157.934165 
" clip-path="url(#p459b7b642e)" style="fill: none; stroke: #cccccc; stroke-linecap: round"/>
     </g>
     <g id="text_6">
      <!-- 0.0 -->
      <g style="fill: #262626" transform="translate(25.276563 161.870962)scale(0.11 -0.11)">
       <defs>
        <path id="ArialMT-2e" d="M 581 0 
L 581 641 
L 1222 641 
L 1222 0 
L 581 0 
z
" transform="scale(0.015625)"/>
       </defs>
       <use xlink:href="#ArialMT-30"/>
       <use xlink:href="#ArialMT-2e" x="55.615234"/>
       <use xlink:href="#ArialMT-30" x="83.398438"/>
      </g>
     </g>
    </g>
    <g id="ytick_2">
     <g id="line2d_6">
      <path d="M 44.066563 131.171239 
L 177.881197 131.171239 
" clip-path="url(#p459b7b642e)" style="fill: none; stroke: #cccccc; stroke-linecap: round"/>
     </g>
     <g id="text_7">
      <!-- 0.2 -->
      <g style="fill: #262626" transform="translate(25.276563 135.108035)scale(0.11 -0.11)">
       <use xlink:href="#ArialMT-30"/>
       <use xlink:href="#ArialMT-2e" x="55.615234"/>
       <use xlink:href="#ArialMT-32" x="83.398438"/>
      </g>
     </g>
    </g>
    <g id="ytick_3">
     <g id="line2d_7">
      <path d="M 44.066563 104.408312 
L 177.881197 104.408312 
" clip-path="url(#p459b7b642e)" style="fill: none; stroke: #cccccc; stroke-linecap: round"/>
     </g>
     <g id="text_8">
      <!-- 0.4 -->
      <g style="fill: #262626" transform="translate(25.276563 108.345109)scale(0.11 -0.11)">
       <defs>
        <path id="ArialMT-34" d="M 2069 0 
L 2069 1097 
L 81 1097 
L 81 1613 
L 2172 4581 
L 2631 4581 
L 2631 1613 
L 3250 1613 
L 3250 1097 
L 2631 1097 
L 2631 0 
L 2069 0 
z
M 2069 1613 
L 2069 3678 
L 634 1613 
L 2069 1613 
z
" transform="scale(0.015625)"/>
       </defs>
       <use xlink:href="#ArialMT-30"/>
       <use xlink:href="#ArialMT-2e" x="55.615234"/>
       <use xlink:href="#ArialMT-34" x="83.398438"/>
      </g>
     </g>
    </g>
    <g id="ytick_4">
     <g id="line2d_8">
      <path d="M 44.066563 77.645385 
L 177.881197 77.645385 
" clip-path="url(#p459b7b642e)" style="fill: none; stroke: #cccccc; stroke-linecap: round"/>
     </g>
     <g id="text_9">
      <!-- 0.6 -->
      <g style="fill: #262626" transform="translate(25.276563 81.582182)scale(0.11 -0.11)">
       <defs>
        <path id="ArialMT-36" d="M 3184 3459 
L 2625 3416 
Q 2550 3747 2413 3897 
Q 2184 4138 1850 4138 
Q 1581 4138 1378 3988 
Q 1113 3794 959 3422 
Q 806 3050 800 2363 
Q 1003 2672 1297 2822 
Q 1591 2972 1913 2972 
Q 2475 2972 2870 2558 
Q 3266 2144 3266 1488 
Q 3266 1056 3080 686 
Q 2894 316 2569 119 
Q 2244 -78 1831 -78 
Q 1128 -78 684 439 
Q 241 956 241 2144 
Q 241 3472 731 4075 
Q 1159 4600 1884 4600 
Q 2425 4600 2770 4297 
Q 3116 3994 3184 3459 
z
M 888 1484 
Q 888 1194 1011 928 
Q 1134 663 1356 523 
Q 1578 384 1822 384 
Q 2178 384 2434 671 
Q 2691 959 2691 1453 
Q 2691 1928 2437 2201 
Q 2184 2475 1800 2475 
Q 1419 2475 1153 2201 
Q 888 1928 888 1484 
z
" transform="scale(0.015625)"/>
       </defs>
       <use xlink:href="#ArialMT-30"/>
       <use xlink:href="#ArialMT-2e" x="55.615234"/>
       <use xlink:href="#ArialMT-36" x="83.398438"/>
      </g>
     </g>
    </g>
    <g id="ytick_5">
     <g id="line2d_9">
      <path d="M 44.066563 50.882458 
L 177.881197 50.882458 
" clip-path="url(#p459b7b642e)" style="fill: none; stroke: #cccccc; stroke-linecap: round"/>
     </g>
     <g id="text_10">
      <!-- 0.8 -->
      <g style="fill: #262626" transform="translate(25.276563 54.819255)scale(0.11 -0.11)">
       <defs>
        <path id="ArialMT-38" d="M 1131 2484 
Q 781 2613 612 2850 
Q 444 3088 444 3419 
Q 444 3919 803 4259 
Q 1163 4600 1759 4600 
Q 2359 4600 2725 4251 
Q 3091 3903 3091 3403 
Q 3091 3084 2923 2848 
Q 2756 2613 2416 2484 
Q 2838 2347 3058 2040 
Q 3278 1734 3278 1309 
Q 3278 722 2862 322 
Q 2447 -78 1769 -78 
Q 1091 -78 675 323 
Q 259 725 259 1325 
Q 259 1772 486 2073 
Q 713 2375 1131 2484 
z
M 1019 3438 
Q 1019 3113 1228 2906 
Q 1438 2700 1772 2700 
Q 2097 2700 2305 2904 
Q 2513 3109 2513 3406 
Q 2513 3716 2298 3927 
Q 2084 4138 1766 4138 
Q 1444 4138 1231 3931 
Q 1019 3725 1019 3438 
z
M 838 1322 
Q 838 1081 952 856 
Q 1066 631 1291 507 
Q 1516 384 1775 384 
Q 2178 384 2440 643 
Q 2703 903 2703 1303 
Q 2703 1709 2433 1975 
Q 2163 2241 1756 2241 
Q 1359 2241 1098 1978 
Q 838 1716 838 1322 
z
" transform="scale(0.015625)"/>
       </defs>
       <use xlink:href="#ArialMT-30"/>
       <use xlink:href="#ArialMT-2e" x="55.615234"/>
       <use xlink:href="#ArialMT-38" x="83.398438"/>
      </g>
     </g>
    </g>
    <g id="ytick_6">
     <g id="line2d_10">
      <path d="M 44.066563 24.119531 
L 177.881197 24.119531 
" clip-path="url(#p459b7b642e)" style="fill: none; stroke: #cccccc; stroke-linecap: round"/>
     </g>
     <g id="text_11">
      <!-- 1.0 -->
      <g style="fill: #262626" transform="translate(25.276563 28.056328)scale(0.11 -0.11)">
       <defs>
        <path id="ArialMT-31" d="M 2384 0 
L 1822 0 
L 1822 3584 
Q 1619 3391 1289 3197 
Q 959 3003 697 2906 
L 697 3450 
Q 1169 3672 1522 3987 
Q 1875 4303 2022 4600 
L 2384 4600 
L 2384 0 
z
" transform="scale(0.015625)"/>
       </defs>
       <use xlink:href="#ArialMT-31"/>
       <use xlink:href="#ArialMT-2e" x="55.615234"/>
       <use xlink:href="#ArialMT-30" x="83.398438"/>
      </g>
     </g>
    </g>
    <g id="text_12">
     <!-- Population (millions) -->
     <g style="fill: #262626" transform="translate(18.119531 158.55263)rotate(-90)scale(0.15 -0.15)">
      <defs>
       <path id="ArialMT-50" d="M 494 0 
L 494 4581 
L 2222 4581 
Q 2678 4581 2919 4538 
Q 3256 4481 3484 4323 
Q 3713 4166 3852 3881 
Q 3991 3597 3991 3256 
Q 3991 2672 3619 2267 
Q 3247 1863 2275 1863 
L 1100 1863 
L 1100 0 
L 494 0 
z
M 1100 2403 
L 2284 2403 
Q 2872 2403 3119 2622 
Q 3366 2841 3366 3238 
Q 3366 3525 3220 3729 
Q 3075 3934 2838 4000 
Q 2684 4041 2272 4041 
L 1100 4041 
L 1100 2403 
z
" transform="scale(0.015625)"/>
       <path id="ArialMT-6f" d="M 213 1659 
Q 213 2581 725 3025 
Q 1153 3394 1769 3394 
Q 2453 3394 2887 2945 
Q 3322 2497 3322 1706 
Q 3322 1066 3130 698 
Q 2938 331 2570 128 
Q 2203 -75 1769 -75 
Q 1072 -75 642 372 
Q 213 819 213 1659 
z
M 791 1659 
Q 791 1022 1069 705 
Q 1347 388 1769 388 
Q 2188 388 2466 706 
Q 2744 1025 2744 1678 
Q 2744 2294 2464 2611 
Q 2184 2928 1769 2928 
Q 1347 2928 1069 2612 
Q 791 2297 791 1659 
z
" transform="scale(0.015625)"/>
       <path id="ArialMT-70" d="M 422 -1272 
L 422 3319 
L 934 3319 
L 934 2888 
Q 1116 3141 1344 3267 
Q 1572 3394 1897 3394 
Q 2322 3394 2647 3175 
Q 2972 2956 3137 2557 
Q 3303 2159 3303 1684 
Q 3303 1175 3120 767 
Q 2938 359 2589 142 
Q 2241 -75 1856 -75 
Q 1575 -75 1351 44 
Q 1128 163 984 344 
L 984 -1272 
L 422 -1272 
z
M 931 1641 
Q 931 1000 1190 694 
Q 1450 388 1819 388 
Q 2194 388 2461 705 
Q 2728 1022 2728 1688 
Q 2728 2322 2467 2637 
Q 2206 2953 1844 2953 
Q 1484 2953 1207 2617 
Q 931 2281 931 1641 
z
" transform="scale(0.015625)"/>
       <path id="ArialMT-75" d="M 2597 0 
L 2597 488 
Q 2209 -75 1544 -75 
Q 1250 -75 995 37 
Q 741 150 617 320 
Q 494 491 444 738 
Q 409 903 409 1263 
L 409 3319 
L 972 3319 
L 972 1478 
Q 972 1038 1006 884 
Q 1059 663 1231 536 
Q 1403 409 1656 409 
Q 1909 409 2131 539 
Q 2353 669 2445 892 
Q 2538 1116 2538 1541 
L 2538 3319 
L 3100 3319 
L 3100 0 
L 2597 0 
z
" transform="scale(0.015625)"/>
       <path id="ArialMT-6c" d="M 409 0 
L 409 4581 
L 972 4581 
L 972 0 
L 409 0 
z
" transform="scale(0.015625)"/>
       <path id="ArialMT-74" d="M 1650 503 
L 1731 6 
Q 1494 -44 1306 -44 
Q 1000 -44 831 53 
Q 663 150 594 308 
Q 525 466 525 972 
L 525 2881 
L 113 2881 
L 113 3319 
L 525 3319 
L 525 4141 
L 1084 4478 
L 1084 3319 
L 1650 3319 
L 1650 2881 
L 1084 2881 
L 1084 941 
Q 1084 700 1114 631 
Q 1144 563 1211 522 
Q 1278 481 1403 481 
Q 1497 481 1650 503 
z
" transform="scale(0.015625)"/>
       <path id="ArialMT-69" d="M 425 3934 
L 425 4581 
L 988 4581 
L 988 3934 
L 425 3934 
z
M 425 0 
L 425 3319 
L 988 3319 
L 988 0 
L 425 0 
z
" transform="scale(0.015625)"/>
       <path id="ArialMT-6e" d="M 422 0 
L 422 3319 
L 928 3319 
L 928 2847 
Q 1294 3394 1984 3394 
Q 2284 3394 2536 3286 
Q 2788 3178 2913 3003 
Q 3038 2828 3088 2588 
Q 3119 2431 3119 2041 
L 3119 0 
L 2556 0 
L 2556 2019 
Q 2556 2363 2490 2533 
Q 2425 2703 2258 2804 
Q 2091 2906 1866 2906 
Q 1506 2906 1245 2678 
Q 984 2450 984 1813 
L 984 0 
L 422 0 
z
" transform="scale(0.015625)"/>
       <path id="ArialMT-20" transform="scale(0.015625)"/>
       <path id="ArialMT-28" d="M 1497 -1347 
Q 1031 -759 709 28 
Q 388 816 388 1659 
Q 388 2403 628 3084 
Q 909 3875 1497 4659 
L 1900 4659 
Q 1522 4009 1400 3731 
Q 1209 3300 1100 2831 
Q 966 2247 966 1656 
Q 966 153 1900 -1347 
L 1497 -1347 
z
" transform="scale(0.015625)"/>
       <path id="ArialMT-6d" d="M 422 0 
L 422 3319 
L 925 3319 
L 925 2853 
Q 1081 3097 1340 3245 
Q 1600 3394 1931 3394 
Q 2300 3394 2536 3241 
Q 2772 3088 2869 2813 
Q 3263 3394 3894 3394 
Q 4388 3394 4653 3120 
Q 4919 2847 4919 2278 
L 4919 0 
L 4359 0 
L 4359 2091 
Q 4359 2428 4304 2576 
Q 4250 2725 4106 2815 
Q 3963 2906 3769 2906 
Q 3419 2906 3187 2673 
Q 2956 2441 2956 1928 
L 2956 0 
L 2394 0 
L 2394 2156 
Q 2394 2531 2256 2718 
Q 2119 2906 1806 2906 
Q 1569 2906 1367 2781 
Q 1166 2656 1075 2415 
Q 984 2175 984 1722 
L 984 0 
L 422 0 
z
" transform="scale(0.015625)"/>
       <path id="ArialMT-29" d="M 791 -1347 
L 388 -1347 
Q 1322 153 1322 1656 
Q 1322 2244 1188 2822 
Q 1081 3291 891 3722 
Q 769 4003 388 4659 
L 791 4659 
Q 1378 3875 1659 3084 
Q 1900 2403 1900 1659 
Q 1900 816 1576 28 
Q 1253 -759 791 -1347 
z
" transform="scale(0.015625)"/>
      </defs>
      <use xlink:href="#ArialMT-50"/>
      <use xlink:href="#ArialMT-6f" x="66.699219"/>
      <use xlink:href="#ArialMT-70" x="122.314453"/>
      <use xlink:href="#ArialMT-75" x="177.929688"/>
      <use xlink:href="#ArialMT-6c" x="233.544922"/>
      <use xlink:href="#ArialMT-61" x="255.761719"/>
      <use xlink:href="#ArialMT-74" x="311.376953"/>
      <use xlink:href="#ArialMT-69" x="339.160156"/>
      <use xlink:href="#ArialMT-6f" x="361.376953"/>
      <use xlink:href="#ArialMT-6e" x="416.992188"/>
      <use xlink:href="#ArialMT-20" x="472.607422"/>
      <use xlink:href="#ArialMT-28" x="500.390625"/>
      <use xlink:href="#ArialMT-6d" x="533.691406"/>
      <use xlink:href="#ArialMT-69" x="616.992188"/>
      <use xlink:href="#ArialMT-6c" x="639.208984"/>
      <use xlink:href="#ArialMT-6c" x="661.425781"/>
      <use xlink:href="#ArialMT-69" x="683.642578"/>
      <use xlink:href="#ArialMT-6f" x="705.859375"/>
      <use xlink:href="#ArialMT-6e" x="761.474609"/>
      <use xlink:href="#ArialMT-73" x="817.089844"/>
      <use xlink:href="#ArialMT-29" x="867.089844"/>
     </g>
    </g>
   </g>
   <g id="line2d_11">
    <path d="M 50.149046 146.771349 
L 51.79296 146.821458 
L 53.436875 147.169612 
L 55.080789 146.596585 
L 56.724704 145.21572 
L 58.368618 144.734252 
L 60.012532 144.320575 
L 61.656447 143.654813 
L 63.300361 143.009016 
L 64.944276 142.414777 
L 66.58819 141.804161 
L 68.232105 141.183557 
L 69.876019 140.570752 
L 71.519933 139.964031 
L 73.163848 139.36215 
L 74.807762 138.768242 
L 76.451677 138.184531 
L 78.095591 137.612244 
L 79.739506 137.05281 
L 81.38342 136.507664 
L 83.027334 135.978003 
L 84.671249 135.464843 
L 86.315163 134.969065 
L 87.959078 134.491384 
L 89.602992 134.032351 
L 91.246906 133.592359 
L 92.890821 133.171655 
L 94.534735 132.77034 
L 96.17865 132.388385 
L 97.822564 132.025642 
L 99.466479 131.681855 
L 101.110393 131.356671 
L 102.754307 131.049659 
L 104.398222 130.760314 
L 106.042136 130.488075 
L 107.686051 130.232335 
L 109.329965 129.992451 
L 110.97388 129.767755 
L 112.617794 129.557562 
L 114.261708 129.361178 
L 115.905623 129.177909 
L 117.549537 129.007063 
L 119.193452 128.847958 
L 120.837366 128.699928 
L 122.481281 128.562322 
L 124.125195 128.434512 
L 125.769109 128.315889 
L 127.413024 128.205873 
L 129.056938 128.103904 
L 130.700853 128.009453 
L 132.344767 127.922015 
L 133.988682 127.84111 
L 135.632596 127.766288 
L 137.27651 127.697123 
L 138.920425 127.633212 
L 140.564339 127.574181 
L 142.208254 127.519675 
L 143.852168 127.469364 
L 145.496082 127.42294 
L 147.139997 127.380114 
L 148.783911 127.340617 
L 150.427826 127.3042 
L 152.07174 127.27063 
L 153.715655 127.23969 
L 155.359569 127.211179 
L 157.003483 127.184912 
L 158.647398 127.160716 
L 160.291312 127.138431 
L 161.935227 127.117908 
L 163.579141 127.099011 
L 165.223056 127.081613 
L 166.86697 127.065597 
L 168.510884 127.050853 
L 170.154799 127.037283 
L 171.798713 127.024794 
" clip-path="url(#p459b7b642e)" style="fill: none; stroke-dasharray: 1.5,2.475; stroke-dashoffset: 0; stroke: #000000; stroke-width: 1.5"/>
   </g>
   <g id="line2d_12">
    <path d="M 50.149046 146.771349 
L 51.79296 146.821458 
L 53.436875 147.169612 
L 55.080789 146.586223 
L 56.724704 145.19751 
L 58.368618 144.705628 
L 60.012532 144.28013 
L 61.656447 143.602262 
L 63.300361 142.94363 
L 64.944276 142.336016 
L 66.58819 141.711574 
L 68.232105 141.07667 
L 69.876019 140.449197 
L 71.519933 139.827555 
L 73.163848 139.210566 
L 74.807762 138.601443 
L 76.451677 138.002504 
L 78.095591 137.415063 
L 79.739506 136.840628 
L 81.38342 136.280715 
L 83.027334 135.736591 
L 84.671249 135.209339 
L 86.315163 134.699898 
L 87.959078 134.209036 
L 89.602992 133.737344 
L 91.246906 133.285253 
L 92.890821 132.853031 
L 94.534735 132.440801 
L 96.17865 132.048544 
L 97.822564 131.676117 
L 99.466479 131.32326 
L 101.110393 130.989614 
L 102.754307 130.674733 
L 104.398222 130.378097 
L 106.042136 130.099124 
L 107.686051 129.837186 
L 109.329965 129.591614 
L 110.97388 129.361713 
L 112.617794 129.146771 
L 114.261708 128.946068 
L 115.905623 128.758879 
L 117.549537 128.584487 
L 119.193452 128.422184 
L 120.837366 128.271275 
L 122.481281 128.131086 
L 124.125195 128.000963 
L 125.769109 127.880278 
L 127.413024 127.768424 
L 129.056938 127.664826 
L 130.700853 127.568932 
L 132.344767 127.480221 
L 133.988682 127.398199 
L 135.632596 127.322397 
L 137.27651 127.252376 
L 138.920425 127.187722 
L 140.564339 127.128048 
L 142.208254 127.072988 
L 143.852168 127.022204 
L 145.496082 126.975376 
L 147.139997 126.932211 
L 148.783911 126.89243 
L 150.427826 126.855778 
L 152.07174 126.822016 
L 153.715655 126.790922 
L 155.359569 126.762291 
L 157.003483 126.735932 
L 158.647398 126.71167 
L 160.291312 126.68934 
L 161.935227 126.668791 
L 163.579141 126.649883 
L 165.223056 126.632488 
L 166.86697 126.616487 
L 168.510884 126.601768 
L 170.154799 126.58823 
L 171.798713 126.57578 
" clip-path="url(#p459b7b642e)" style="fill: none; stroke: #482475; stroke-width: 1.5; stroke-linecap: round"/>
   </g>
   <g id="line2d_13">
    <path d="M 50.149046 146.771349 
L 51.79296 146.821458 
L 53.436875 147.169612 
L 55.080789 146.499658 
L 56.724704 145.034781 
L 58.368618 144.429078 
L 60.012532 143.877688 
L 61.656447 143.07162 
L 63.300361 142.277462 
L 64.944276 141.528058 
L 66.58819 140.756624 
L 68.232105 139.970129 
L 69.876019 139.187632 
L 71.519933 138.408635 
L 73.163848 137.632946 
L 74.807762 136.864861 
L 76.451677 136.107809 
L 78.095591 135.364159 
L 79.739506 134.636413 
L 81.38342 133.92702 
L 83.027334 133.238097 
L 84.671249 132.571474 
L 86.315163 131.928727 
L 87.959078 131.311147 
L 89.602992 130.719736 
L 91.246906 130.155212 
L 92.890821 129.618028 
L 94.534735 129.108381 
L 96.17865 128.626233 
L 97.822564 128.171334 
L 99.466479 127.743247 
L 101.110393 127.341372 
L 102.754307 126.964968 
L 104.398222 126.613184 
L 106.042136 126.285075 
L 107.686051 125.979631 
L 109.329965 125.695792 
L 110.97388 125.432466 
L 112.617794 125.188549 
L 114.261708 124.962934 
L 115.905623 124.754526 
L 117.549537 124.562251 
L 119.193452 124.385062 
L 120.837366 124.221948 
L 122.481281 124.071937 
L 124.125195 123.9341 
L 125.769109 123.807554 
L 127.413024 123.691463 
L 129.056938 123.585037 
L 130.700853 123.487534 
L 132.344767 123.398258 
L 133.988682 123.31656 
L 135.632596 123.241833 
L 137.27651 123.173514 
L 138.920425 123.111078 
L 140.564339 123.054041 
L 142.208254 123.001954 
L 143.852168 122.954402 
L 145.496082 122.911003 
L 147.139997 122.871406 
L 148.783911 122.835284 
L 150.427826 122.802342 
L 152.07174 122.772305 
L 153.715655 122.744921 
L 155.359569 122.719961 
L 157.003483 122.697213 
L 158.647398 122.676485 
L 160.291312 122.657599 
L 161.935227 122.640394 
L 163.579141 122.624722 
L 165.223056 122.610447 
L 166.86697 122.597446 
L 168.510884 122.585606 
L 170.154799 122.574825 
L 171.798713 122.565008 
" clip-path="url(#p459b7b642e)" style="fill: none; stroke: #21918c; stroke-width: 1.5; stroke-linecap: round"/>
   </g>
   <g id="line2d_14">
    <path d="M 50.149046 146.771349 
L 51.79296 146.821458 
L 53.436875 147.169612 
L 55.080789 146.28679 
L 56.724704 144.592141 
L 58.368618 143.614152 
L 60.012532 142.65867 
L 61.656447 141.435612 
L 63.300361 140.194111 
L 64.944276 138.96875 
L 66.58819 137.699149 
L 68.232105 136.397412 
L 69.876019 135.087233 
L 71.519933 133.773446 
L 73.163848 132.461856 
L 74.807762 131.162706 
L 76.451677 129.885182 
L 78.095591 128.637183 
L 79.739506 127.426273 
L 81.38342 126.259319 
L 83.027334 125.142119 
L 84.671249 124.079376 
L 86.315163 123.074682 
L 87.959078 122.130499 
L 89.602992 121.248196 
L 91.246906 120.428132 
L 92.890821 119.669759 
L 94.534735 118.971746 
L 96.17865 118.332112 
L 97.822564 117.748361 
L 99.466479 117.21761 
L 101.110393 116.736707 
L 102.754307 116.302343 
L 104.398222 115.911138 
L 106.042136 115.559718 
L 107.686051 115.244778 
L 109.329965 114.963131 
L 110.97388 114.711734 
L 112.617794 114.487724 
L 114.261708 114.28842 
L 115.905623 114.11134 
L 117.549537 113.954198 
L 119.193452 113.814898 
L 120.837366 113.691536 
L 122.481281 113.582379 
L 124.125195 113.485866 
L 125.769109 113.400589 
L 127.413024 113.325285 
L 129.056938 113.258823 
L 130.700853 113.200192 
L 132.344767 113.148489 
L 133.988682 113.102913 
L 135.632596 113.062751 
L 137.27651 113.02737 
L 138.920425 112.996208 
L 140.564339 112.968768 
L 142.208254 112.94461 
L 143.852168 112.923345 
L 145.496082 112.90463 
L 147.139997 112.88816 
L 148.783911 112.873669 
L 150.427826 112.86092 
L 152.07174 112.849704 
L 153.715655 112.839838 
L 155.359569 112.83116 
L 157.003483 112.823528 
L 158.647398 112.816815 
L 160.291312 112.810911 
L 161.935227 112.80572 
L 163.579141 112.801154 
L 165.223056 112.79714 
L 166.86697 112.793609 
L 168.510884 112.790505 
L 170.154799 112.787776 
L 171.798713 112.785376 
" clip-path="url(#p459b7b642e)" style="fill: none; stroke: #bddf26; stroke-width: 1.5; stroke-linecap: round"/>
   </g>
   <g id="patch_3">
    <path d="M 44.066563 157.934165 
L 44.066563 24.119531 
" style="fill: none; stroke: #cccccc; stroke-linejoin: miter; stroke-linecap: square"/>
   </g>
   <g id="patch_4">
    <path d="M 177.881197 157.934165 
L 177.881197 24.119531 
" style="fill: none; stroke: #cccccc; stroke-linejoin: miter; stroke-linecap: square"/>
   </g>
   <g id="patch_5">
    <path d="M 44.066563 157.934165 
L 177.881197 157.934165 
" style="fill: none; stroke: #cccccc; stroke-linejoin: miter; stroke-linecap: square"/>
   </g>
   <g id="patch_6">
    <path d="M 44.066563 24.119531 
L 177.881197 24.119531 
" style="fill: none; stroke: #cccccc; stroke-linejoin: miter; stroke-linecap: square"/>
   </g>
   <g id="text_13">
    <!-- La Grange -->
    <g style="fill: #262626" transform="translate(75.535208 18.119531)scale(0.15 -0.15)">
     <defs>
      <path id="ArialMT-4c" d="M 469 0 
L 469 4581 
L 1075 4581 
L 1075 541 
L 3331 541 
L 3331 0 
L 469 0 
z
" transform="scale(0.015625)"/>
      <path id="ArialMT-47" d="M 2638 1797 
L 2638 2334 
L 4578 2338 
L 4578 638 
Q 4131 281 3656 101 
Q 3181 -78 2681 -78 
Q 2006 -78 1454 211 
Q 903 500 622 1047 
Q 341 1594 341 2269 
Q 341 2938 620 3517 
Q 900 4097 1425 4378 
Q 1950 4659 2634 4659 
Q 3131 4659 3532 4498 
Q 3934 4338 4162 4050 
Q 4391 3763 4509 3300 
L 3963 3150 
Q 3859 3500 3706 3700 
Q 3553 3900 3268 4020 
Q 2984 4141 2638 4141 
Q 2222 4141 1919 4014 
Q 1616 3888 1430 3681 
Q 1244 3475 1141 3228 
Q 966 2803 966 2306 
Q 966 1694 1177 1281 
Q 1388 869 1791 669 
Q 2194 469 2647 469 
Q 3041 469 3416 620 
Q 3791 772 3984 944 
L 3984 1797 
L 2638 1797 
z
" transform="scale(0.015625)"/>
      <path id="ArialMT-67" d="M 319 -275 
L 866 -356 
Q 900 -609 1056 -725 
Q 1266 -881 1628 -881 
Q 2019 -881 2231 -725 
Q 2444 -569 2519 -288 
Q 2563 -116 2559 434 
Q 2191 0 1641 0 
Q 956 0 581 494 
Q 206 988 206 1678 
Q 206 2153 378 2554 
Q 550 2956 876 3175 
Q 1203 3394 1644 3394 
Q 2231 3394 2613 2919 
L 2613 3319 
L 3131 3319 
L 3131 450 
Q 3131 -325 2973 -648 
Q 2816 -972 2473 -1159 
Q 2131 -1347 1631 -1347 
Q 1038 -1347 672 -1080 
Q 306 -813 319 -275 
z
M 784 1719 
Q 784 1066 1043 766 
Q 1303 466 1694 466 
Q 2081 466 2343 764 
Q 2606 1063 2606 1700 
Q 2606 2309 2336 2618 
Q 2066 2928 1684 2928 
Q 1309 2928 1046 2623 
Q 784 2319 784 1719 
z
" transform="scale(0.015625)"/>
     </defs>
     <use xlink:href="#ArialMT-4c"/>
     <use xlink:href="#ArialMT-61" x="55.615234"/>
     <use xlink:href="#ArialMT-20" x="111.230469"/>
     <use xlink:href="#ArialMT-47" x="139.013672"/>
     <use xlink:href="#ArialMT-72" x="216.796875"/>
     <use xlink:href="#ArialMT-61" x="250.097656"/>
     <use xlink:href="#ArialMT-6e" x="305.712891"/>
     <use xlink:href="#ArialMT-67" x="361.328125"/>
     <use xlink:href="#ArialMT-65" x="416.943359"/>
    </g>
   </g>
  </g>
  <g id="axes_2">
   <g id="patch_7">
    <path d="M 184.571928 157.934165 
L 318.386563 157.934165 
L 318.386563 24.119531 
L 184.571928 24.119531 
z
" style="fill: #ffffff"/>
   </g>
   <g id="matplotlib.axis_3">
    <g id="xtick_5">
     <g id="line2d_15">
      <path d="M 190.654412 157.934165 
L 190.654412 24.119531 
" clip-path="url(#p562adbe42e)" style="fill: none; stroke: #cccccc; stroke-linecap: round"/>
     </g>
     <g id="text_14">
      <!-- 0 -->
      <g style="fill: #262626" transform="translate(187.595896 169.307759)scale(0.11 -0.11)">
       <use xlink:href="#ArialMT-30"/>
      </g>
     </g>
    </g>
    <g id="xtick_6">
     <g id="line2d_16">
      <path d="M 231.752272 157.934165 
L 231.752272 24.119531 
" clip-path="url(#p562adbe42e)" style="fill: none; stroke: #cccccc; stroke-linecap: round"/>
     </g>
     <g id="text_15">
      <!-- 25 -->
      <g style="fill: #262626" transform="translate(225.635241 169.307759)scale(0.11 -0.11)">
       <use xlink:href="#ArialMT-32"/>
       <use xlink:href="#ArialMT-35" x="55.615234"/>
      </g>
     </g>
    </g>
    <g id="xtick_7">
     <g id="line2d_17">
      <path d="M 272.850133 157.934165 
L 272.850133 24.119531 
" clip-path="url(#p562adbe42e)" style="fill: none; stroke: #cccccc; stroke-linecap: round"/>
     </g>
     <g id="text_16">
      <!-- 50 -->
      <g style="fill: #262626" transform="translate(266.733102 169.307759)scale(0.11 -0.11)">
       <use xlink:href="#ArialMT-35"/>
       <use xlink:href="#ArialMT-30" x="55.615234"/>
      </g>
     </g>
    </g>
    <g id="xtick_8">
     <g id="line2d_18">
      <path d="M 313.947994 157.934165 
L 313.947994 24.119531 
" clip-path="url(#p562adbe42e)" style="fill: none; stroke: #cccccc; stroke-linecap: round"/>
     </g>
     <g id="text_17">
      <!-- 75 -->
      <g style="fill: #262626" transform="translate(307.830962 169.307759)scale(0.11 -0.11)">
       <use xlink:href="#ArialMT-37"/>
       <use xlink:href="#ArialMT-35" x="55.615234"/>
      </g>
     </g>
    </g>
    <g id="text_18">
     <!-- Years -->
     <g style="fill: #262626" transform="translate(232.572214 186.230728)scale(0.15 -0.15)">
      <use xlink:href="#ArialMT-59"/>
      <use xlink:href="#ArialMT-65" x="57.574219"/>
      <use xlink:href="#ArialMT-61" x="113.189453"/>
      <use xlink:href="#ArialMT-72" x="168.804688"/>
      <use xlink:href="#ArialMT-73" x="202.105469"/>
     </g>
    </g>
   </g>
   <g id="matplotlib.axis_4">
    <g id="ytick_7">
     <g id="line2d_19">
      <path d="M 184.571928 157.934165 
L 318.386563 157.934165 
" clip-path="url(#p562adbe42e)" style="fill: none; stroke: #cccccc; stroke-linecap: round"/>
     </g>
    </g>
    <g id="ytick_8">
     <g id="line2d_20">
      <path d="M 184.571928 131.171239 
L 318.386563 131.171239 
" clip-path="url(#p562adbe42e)" style="fill: none; stroke: #cccccc; stroke-linecap: round"/>
     </g>
    </g>
    <g id="ytick_9">
     <g id="line2d_21">
      <path d="M 184.571928 104.408312 
L 318.386563 104.408312 
" clip-path="url(#p562adbe42e)" style="fill: none; stroke: #cccccc; stroke-linecap: round"/>
     </g>
    </g>
    <g id="ytick_10">
     <g id="line2d_22">
      <path d="M 184.571928 77.645385 
L 318.386563 77.645385 
" clip-path="url(#p562adbe42e)" style="fill: none; stroke: #cccccc; stroke-linecap: round"/>
     </g>
    </g>
    <g id="ytick_11">
     <g id="line2d_23">
      <path d="M 184.571928 50.882458 
L 318.386563 50.882458 
" clip-path="url(#p562adbe42e)" style="fill: none; stroke: #cccccc; stroke-linecap: round"/>
     </g>
    </g>
    <g id="ytick_12">
     <g id="line2d_24">
      <path d="M 184.571928 24.119531 
L 318.386563 24.119531 
" clip-path="url(#p562adbe42e)" style="fill: none; stroke: #cccccc; stroke-linecap: round"/>
     </g>
    </g>
   </g>
   <g id="line2d_25">
    <path d="M 190.654412 142.334055 
L 192.298326 142.404083 
L 193.942241 142.890631 
L 195.586155 142.089821 
L 197.230069 140.160055 
L 198.873984 139.4872 
L 200.517898 138.909083 
L 202.161813 137.978677 
L 203.805727 137.076171 
L 205.449642 136.245717 
L 207.093556 135.392379 
L 208.73747 134.52508 
L 210.381385 133.668681 
L 212.025299 132.820784 
L 213.669214 131.979652 
L 215.313128 131.149662 
L 216.957043 130.333921 
L 218.600957 129.534147 
L 220.244871 128.752333 
L 221.888786 127.990489 
L 223.5327 127.250284 
L 225.176615 126.53314 
L 226.820529 125.840286 
L 228.464443 125.172723 
L 230.108358 124.531222 
L 231.752272 123.916331 
L 233.396187 123.328394 
L 235.040101 122.767553 
L 236.684016 122.233769 
L 238.32793 121.726833 
L 239.971844 121.246388 
L 241.615759 120.791942 
L 243.259673 120.36289 
L 244.903588 119.958529 
L 246.547502 119.578073 
L 248.191417 119.220674 
L 249.835331 118.885435 
L 251.479245 118.571421 
L 253.12316 118.277675 
L 254.767074 118.003228 
L 256.410989 117.747107 
L 258.054903 117.508348 
L 259.698818 117.285999 
L 261.342732 117.079126 
L 262.986646 116.886821 
L 264.630561 116.708205 
L 266.274475 116.542429 
L 267.91839 116.38868 
L 269.562304 116.246179 
L 271.206219 116.114183 
L 272.850133 115.991987 
L 274.494047 115.878923 
L 276.137962 115.774358 
L 277.781876 115.677699 
L 279.425791 115.588384 
L 281.069705 115.505887 
L 282.713619 115.429714 
L 284.357534 115.359405 
L 286.001448 115.294526 
L 287.645363 115.234677 
L 289.289277 115.17948 
L 290.933192 115.128587 
L 292.577106 115.081672 
L 294.22102 115.038433 
L 295.864935 114.99859 
L 297.508849 114.961882 
L 299.152764 114.928068 
L 300.796678 114.896924 
L 302.440593 114.868243 
L 304.084507 114.841834 
L 305.728421 114.81752 
L 307.372336 114.795137 
L 309.01625 114.774533 
L 310.660165 114.755569 
L 312.304079 114.738116 
" clip-path="url(#p562adbe42e)" style="fill: none; stroke-dasharray: 1.5,2.475; stroke-dashoffset: 0; stroke: #000000; stroke-width: 1.5"/>
   </g>
   <g id="line2d_26">
    <path d="M 190.654412 142.334055 
L 192.298326 142.404083 
L 193.942241 142.890631 
L 195.586155 142.075341 
L 197.230069 140.134605 
L 198.873984 139.447197 
L 200.517898 138.852561 
L 202.161813 137.905235 
L 203.805727 136.984794 
L 205.449642 136.135649 
L 207.093556 135.262986 
L 208.73747 134.375704 
L 210.381385 133.498807 
L 212.025299 132.630057 
L 213.669214 131.767811 
L 215.313128 130.916559 
L 216.957043 130.079537 
L 218.600957 129.258585 
L 220.244871 128.455808 
L 221.888786 127.673326 
L 223.5327 126.912909 
L 225.176615 126.176071 
L 226.820529 125.464124 
L 228.464443 124.77814 
L 230.108358 124.118948 
L 231.752272 123.487147 
L 233.396187 122.883115 
L 235.040101 122.307021 
L 236.684016 121.758839 
L 238.32793 121.238369 
L 239.971844 120.745249 
L 241.615759 120.278977 
L 243.259673 119.838929 
L 244.903588 119.424378 
L 246.547502 119.034512 
L 248.191417 118.668451 
L 249.835331 118.325262 
L 251.479245 118.003974 
L 253.12316 117.703592 
L 254.767074 117.423108 
L 256.410989 117.161511 
L 258.054903 116.917797 
L 259.698818 116.690976 
L 261.342732 116.48008 
L 262.986646 116.284166 
L 264.630561 116.102318 
L 266.274475 115.933659 
L 267.91839 115.777343 
L 269.562304 115.632564 
L 271.206219 115.498552 
L 272.850133 115.374578 
L 274.494047 115.25995 
L 276.137962 115.154017 
L 277.781876 115.056162 
L 279.425791 114.965808 
L 281.069705 114.882413 
L 282.713619 114.805467 
L 284.357534 114.734495 
L 286.001448 114.669054 
L 287.645363 114.608729 
L 289.289277 114.553135 
L 290.933192 114.501914 
L 292.577106 114.454731 
L 294.22102 114.411277 
L 295.864935 114.371265 
L 297.508849 114.334429 
L 299.152764 114.300522 
L 300.796678 114.269315 
L 302.440593 114.240598 
L 304.084507 114.214175 
L 305.728421 114.189866 
L 307.372336 114.167503 
L 309.01625 114.146933 
L 310.660165 114.128015 
L 312.304079 114.110616 
" clip-path="url(#p562adbe42e)" style="fill: none; stroke: #482475; stroke-width: 1.5; stroke-linecap: round"/>
   </g>
   <g id="line2d_27">
    <path d="M 190.654412 142.334055 
L 192.298326 142.404083 
L 193.942241 142.890631 
L 195.586155 141.954366 
L 197.230069 139.907191 
L 198.873984 139.060717 
L 200.517898 138.290146 
L 202.161813 137.16366 
L 203.805727 136.053819 
L 205.449642 135.006522 
L 207.093556 133.928438 
L 208.73747 132.829306 
L 210.381385 131.735761 
L 212.025299 130.647108 
L 213.669214 129.563077 
L 215.313128 128.489673 
L 216.957043 127.431688 
L 218.600957 126.392432 
L 220.244871 125.375403 
L 221.888786 124.384022 
L 223.5327 123.421247 
L 225.176615 122.489637 
L 226.820529 121.591394 
L 228.464443 120.728322 
L 230.108358 119.901821 
L 231.752272 119.112896 
L 233.396187 118.362177 
L 235.040101 117.649942 
L 236.684016 116.976136 
L 238.32793 116.340412 
L 239.971844 115.742158 
L 241.615759 115.180534 
L 243.259673 114.654508 
L 244.903588 114.162887 
L 246.547502 113.704353 
L 248.191417 113.277493 
L 249.835331 112.880826 
L 251.479245 112.512826 
L 253.12316 112.17195 
L 254.767074 111.856652 
L 256.410989 111.565401 
L 258.054903 111.296695 
L 259.698818 111.049072 
L 261.342732 110.821119 
L 262.986646 110.611477 
L 264.630561 110.41885 
L 266.274475 110.242001 
L 267.91839 110.079763 
L 269.562304 109.931032 
L 271.206219 109.794771 
L 272.850133 109.670008 
L 274.494047 109.555834 
L 276.137962 109.451403 
L 277.781876 109.355926 
L 279.425791 109.268671 
L 281.069705 109.188961 
L 282.713619 109.116169 
L 284.357534 109.049715 
L 286.001448 108.989066 
L 287.645363 108.933727 
L 289.289277 108.883248 
L 290.933192 108.837211 
L 292.577106 108.795233 
L 294.22102 108.756964 
L 295.864935 108.722082 
L 297.508849 108.690293 
L 299.152764 108.661325 
L 300.796678 108.634932 
L 302.440593 108.610887 
L 304.084507 108.588985 
L 305.728421 108.569036 
L 307.372336 108.550867 
L 309.01625 108.534321 
L 310.660165 108.519254 
L 312.304079 108.505535 
" clip-path="url(#p562adbe42e)" style="fill: none; stroke: #21918c; stroke-width: 1.5; stroke-linecap: round"/>
   </g>
   <g id="line2d_28">
    <path d="M 190.654412 142.334055 
L 192.298326 142.404083 
L 193.942241 142.890631 
L 195.586155 141.656881 
L 197.230069 139.288598 
L 198.873984 137.921853 
L 200.517898 136.58656 
L 202.161813 134.877328 
L 203.805727 133.142323 
L 205.449642 131.429872 
L 207.093556 129.655597 
L 208.73747 127.836411 
L 210.381385 126.005426 
L 212.025299 124.169401 
L 213.669214 122.336446 
L 215.313128 120.520875 
L 216.957043 118.735526 
L 218.600957 116.991439 
L 220.244871 115.299185 
L 221.888786 113.668359 
L 223.5327 112.107065 
L 225.176615 110.621874 
L 226.820529 109.217807 
L 228.464443 107.898305 
L 230.108358 106.665281 
L 231.752272 105.519236 
L 233.396187 104.459405 
L 235.040101 103.483927 
L 236.684016 102.590035 
L 238.32793 101.774239 
L 239.971844 101.03251 
L 241.615759 100.360446 
L 243.259673 99.75342 
L 244.903588 99.206707 
L 246.547502 98.715595 
L 248.191417 98.275466 
L 249.835331 97.881861 
L 251.479245 97.530533 
L 253.12316 97.217476 
L 254.767074 96.938948 
L 256.410989 96.691478 
L 258.054903 96.47187 
L 259.698818 96.277199 
L 261.342732 96.104799 
L 262.986646 95.952252 
L 264.630561 95.817374 
L 266.274475 95.698199 
L 267.91839 95.592962 
L 269.562304 95.50008 
L 271.206219 95.418142 
L 272.850133 95.345887 
L 274.494047 95.282195 
L 276.137962 95.226069 
L 277.781876 95.176623 
L 279.425791 95.133073 
L 281.069705 95.094726 
L 282.713619 95.060965 
L 284.357534 95.031247 
L 286.001448 95.005092 
L 287.645363 94.982076 
L 289.289277 94.961825 
L 290.933192 94.944008 
L 292.577106 94.928334 
L 294.22102 94.914546 
L 295.864935 94.902418 
L 297.508849 94.891752 
L 299.152764 94.88237 
L 300.796678 94.87412 
L 302.440593 94.866865 
L 304.084507 94.860485 
L 305.728421 94.854874 
L 307.372336 94.849941 
L 309.01625 94.845603 
L 310.660165 94.841789 
L 312.304079 94.838435 
" clip-path="url(#p562adbe42e)" style="fill: none; stroke: #bddf26; stroke-width: 1.5; stroke-linecap: round"/>
   </g>
   <g id="patch_8">
    <path d="M 184.571928 157.934165 
L 184.571928 24.119531 
" style="fill: none; stroke: #cccccc; stroke-linejoin: miter; stroke-linecap: square"/>
   </g>
   <g id="patch_9">
    <path d="M 318.386563 157.934165 
L 318.386563 24.119531 
" style="fill: none; stroke: #cccccc; stroke-linejoin: miter; stroke-linecap: square"/>
   </g>
   <g id="patch_10">
    <path d="M 184.571928 157.934165 
L 318.386563 157.934165 
" style="fill: none; stroke: #cccccc; stroke-linejoin: miter; stroke-linecap: square"/>
   </g>
   <g id="patch_11">
    <path d="M 184.571928 24.119531 
L 318.386563 24.119531 
" style="fill: none; stroke: #cccccc; stroke-linejoin: miter; stroke-linecap: square"/>
   </g>
   <g id="text_19">
    <!-- Peoria -->
    <g style="fill: #262626" transform="translate(229.80073 18.119531)scale(0.15 -0.15)">
     <use xlink:href="#ArialMT-50"/>
     <use xlink:href="#ArialMT-65" x="66.699219"/>
     <use xlink:href="#ArialMT-6f" x="122.314453"/>
     <use xlink:href="#ArialMT-72" x="177.929688"/>
     <use xlink:href="#ArialMT-69" x="211.230469"/>
     <use xlink:href="#ArialMT-61" x="233.447266"/>
    </g>
   </g>
  </g>
  <g id="legend_1">
   <g id="patch_12">
    <path d="M 325.852812 145.030145 
L 416.066562 145.030145 
Q 418.266562 145.030145 418.266562 142.830145 
L 418.266562 53.581833 
Q 418.266562 51.381833 416.066562 51.381833 
L 325.852812 51.381833 
Q 323.652812 51.381833 323.652812 53.581833 
L 323.652812 142.830145 
Q 323.652812 145.030145 325.852812 145.030145 
z
" style="fill: #ffffff; opacity: 0.8; stroke: #cccccc; stroke-linejoin: miter"/>
   </g>
   <g id="text_20">
    <!-- Harvest Cutoff -->
    <g style="fill: #262626" transform="translate(332.72 64.371208)scale(0.12 -0.12)">
     <defs>
      <path id="ArialMT-48" d="M 513 0 
L 513 4581 
L 1119 4581 
L 1119 2700 
L 3500 2700 
L 3500 4581 
L 4106 4581 
L 4106 0 
L 3500 0 
L 3500 2159 
L 1119 2159 
L 1119 0 
L 513 0 
z
" transform="scale(0.015625)"/>
      <path id="ArialMT-76" d="M 1344 0 
L 81 3319 
L 675 3319 
L 1388 1331 
Q 1503 1009 1600 663 
Q 1675 925 1809 1294 
L 2547 3319 
L 3125 3319 
L 1869 0 
L 1344 0 
z
" transform="scale(0.015625)"/>
      <path id="ArialMT-43" d="M 3763 1606 
L 4369 1453 
Q 4178 706 3683 314 
Q 3188 -78 2472 -78 
Q 1731 -78 1267 223 
Q 803 525 561 1097 
Q 319 1669 319 2325 
Q 319 3041 592 3573 
Q 866 4106 1370 4382 
Q 1875 4659 2481 4659 
Q 3169 4659 3637 4309 
Q 4106 3959 4291 3325 
L 3694 3184 
Q 3534 3684 3231 3912 
Q 2928 4141 2469 4141 
Q 1941 4141 1586 3887 
Q 1231 3634 1087 3207 
Q 944 2781 944 2328 
Q 944 1744 1114 1308 
Q 1284 872 1643 656 
Q 2003 441 2422 441 
Q 2931 441 3284 734 
Q 3638 1028 3763 1606 
z
" transform="scale(0.015625)"/>
      <path id="ArialMT-66" d="M 556 0 
L 556 2881 
L 59 2881 
L 59 3319 
L 556 3319 
L 556 3672 
Q 556 4006 616 4169 
Q 697 4388 901 4523 
Q 1106 4659 1475 4659 
Q 1713 4659 2000 4603 
L 1916 4113 
Q 1741 4144 1584 4144 
Q 1328 4144 1222 4034 
Q 1116 3925 1116 3625 
L 1116 3319 
L 1763 3319 
L 1763 2881 
L 1116 2881 
L 1116 0 
L 556 0 
z
" transform="scale(0.015625)"/>
     </defs>
     <use xlink:href="#ArialMT-48"/>
     <use xlink:href="#ArialMT-61" x="72.216797"/>
     <use xlink:href="#ArialMT-72" x="127.832031"/>
     <use xlink:href="#ArialMT-76" x="161.132812"/>
     <use xlink:href="#ArialMT-65" x="211.132812"/>
     <use xlink:href="#ArialMT-73" x="266.748047"/>
     <use xlink:href="#ArialMT-74" x="316.748047"/>
     <use xlink:href="#ArialMT-20" x="344.53125"/>
     <use xlink:href="#ArialMT-43" x="372.314453"/>
     <use xlink:href="#ArialMT-75" x="444.53125"/>
     <use xlink:href="#ArialMT-74" x="500.146484"/>
     <use xlink:href="#ArialMT-6f" x="527.929688"/>
     <use xlink:href="#ArialMT-66" x="583.544922"/>
     <use xlink:href="#ArialMT-66" x="609.578125"/>
    </g>
   </g>
   <g id="line2d_29">
    <path d="M 328.052812 83.190208 
L 339.052812 83.190208 
L 350.052812 83.190208 
" style="fill: none; stroke-dasharray: 1.5,2.475; stroke-dashoffset: 0; stroke: #000000; stroke-width: 1.5"/>
   </g>
   <g id="text_21">
    <!-- No Harvest -->
    <g style="fill: #262626" transform="translate(358.852812 80.129801)scale(0.11 -0.11)">
     <defs>
      <path id="ArialMT-4e" d="M 488 0 
L 488 4581 
L 1109 4581 
L 3516 984 
L 3516 4581 
L 4097 4581 
L 4097 0 
L 3475 0 
L 1069 3600 
L 1069 0 
L 488 0 
z
" transform="scale(0.015625)"/>
     </defs>
     <use xlink:href="#ArialMT-4e"/>
     <use xlink:href="#ArialMT-6f" x="72.216797"/>
     <use xlink:href="#ArialMT-20" x="127.832031"/>
     <use xlink:href="#ArialMT-48" x="155.615234"/>
     <use xlink:href="#ArialMT-61" x="227.832031"/>
     <use xlink:href="#ArialMT-72" x="283.447266"/>
     <use xlink:href="#ArialMT-76" x="316.748047"/>
     <use xlink:href="#ArialMT-65" x="366.748047"/>
     <use xlink:href="#ArialMT-73" x="422.363281"/>
     <use xlink:href="#ArialMT-74" x="472.363281"/>
    </g>
    <!-- Minimum -->
    <g style="fill: #262626" transform="translate(358.852812 91.764364)scale(0.11 -0.11)">
     <defs>
      <path id="ArialMT-4d" d="M 475 0 
L 475 4581 
L 1388 4581 
L 2472 1338 
Q 2622 884 2691 659 
Q 2769 909 2934 1394 
L 4031 4581 
L 4847 4581 
L 4847 0 
L 4263 0 
L 4263 3834 
L 2931 0 
L 2384 0 
L 1059 3900 
L 1059 0 
L 475 0 
z
" transform="scale(0.015625)"/>
     </defs>
     <use xlink:href="#ArialMT-4d"/>
     <use xlink:href="#ArialMT-69" x="83.300781"/>
     <use xlink:href="#ArialMT-6e" x="105.517578"/>
     <use xlink:href="#ArialMT-69" x="161.132812"/>
     <use xlink:href="#ArialMT-6d" x="183.349609"/>
     <use xlink:href="#ArialMT-75" x="266.650391"/>
     <use xlink:href="#ArialMT-6d" x="322.265625"/>
    </g>
   </g>
   <g id="line2d_30">
    <path d="M 328.052812 103.474208 
L 339.052812 103.474208 
L 350.052812 103.474208 
" style="fill: none; stroke: #482475; stroke-width: 1.5; stroke-linecap: round"/>
   </g>
   <g id="text_22">
    <!-- 450 -->
    <g style="fill: #262626" transform="translate(358.852812 107.324208)scale(0.11 -0.11)">
     <use xlink:href="#ArialMT-34"/>
     <use xlink:href="#ArialMT-35" x="55.615234"/>
     <use xlink:href="#ArialMT-30" x="111.230469"/>
    </g>
   </g>
   <g id="line2d_31">
    <path d="M 328.052812 119.034051 
L 339.052812 119.034051 
L 350.052812 119.034051 
" style="fill: none; stroke: #21918c; stroke-width: 1.5; stroke-linecap: round"/>
   </g>
   <g id="text_23">
    <!-- 500 -->
    <g style="fill: #262626" transform="translate(358.852812 122.884051)scale(0.11 -0.11)">
     <use xlink:href="#ArialMT-35"/>
     <use xlink:href="#ArialMT-30" x="55.615234"/>
     <use xlink:href="#ArialMT-30" x="111.230469"/>
    </g>
   </g>
   <g id="line2d_32">
    <path d="M 328.052812 134.593895 
L 339.052812 134.593895 
L 350.052812 134.593895 
" style="fill: none; stroke: #bddf26; stroke-width: 1.5; stroke-linecap: round"/>
   </g>
   <g id="text_24">
    <!-- 550 -->
    <g style="fill: #262626" transform="translate(358.852812 138.443895)scale(0.11 -0.11)">
     <use xlink:href="#ArialMT-35"/>
     <use xlink:href="#ArialMT-35" x="55.615234"/>
     <use xlink:href="#ArialMT-30" x="111.230469"/>
    </g>
   </g>
  </g>
 </g>
 <defs>
  <clipPath id="p459b7b642e">
   <rect x="44.066563" y="24.119531" width="133.814634" height="133.814634"/>
  </clipPath>
  <clipPath id="p562adbe42e">
   <rect x="184.571928" y="24.119531" width="133.814634" height="133.814634"/>
  </clipPath>
 </defs>
</svg>
