<?xml version="1.0" encoding="utf-8" standalone="no"?>
<!DOCTYPE svg PUBLIC "-//W3C//DTD SVG 1.1//EN"
  "http://www.w3.org/Graphics/SVG/1.1/DTD/svg11.dtd">
<svg xmlns:xlink="http://www.w3.org/1999/xlink" width="429.766562pt" height="202.411978pt" viewBox="0 0 429.766562 202.411978" xmlns="http://www.w3.org/2000/svg" version="1.1">
 <metadata>
  <rdf:RDF xmlns:dc="http://purl.org/dc/elements/1.1/" xmlns:cc="http://creativecommons.org/ns#" xmlns:rdf="http://www.w3.org/1999/02/22-rdf-syntax-ns#">
   <cc:Work>
    <dc:type rdf:resource="http://purl.org/dc/dcmitype/StillImage"/>
    <dc:date>2022-11-10T14:28:19.236506</dc:date>
    <dc:format>image/svg+xml</dc:format>
    <dc:creator>
     <cc:Agent>
      <dc:title>Matplotlib v3.5.1, https://matplotlib.org/</dc:title>
     </cc:Agent>
    </dc:creator>
   </cc:Work>
  </rdf:RDF>
 </metadata>
 <defs>
  <style type="text/css">*{stroke-linejoin: round; stroke-linecap: butt}</style>
 </defs>
 <g id="figure_1">
  <g id="patch_1">
   <path d="M 0 202.411978 
L 429.766562 202.411978 
L 429.766562 0 
L 0 0 
z
" style="fill: #ffffff"/>
  </g>
  <g id="axes_1">
   <g id="patch_2">
    <path d="M 50.066563 157.934165 
L 183.881197 157.934165 
L 183.881197 24.119531 
L 50.066563 24.119531 
L 50.066563 157.934165 
z
" style="fill: none"/>
   </g>
   <g id="matplotlib.axis_1">
    <g id="xtick_1">
     <g id="text_1">
      <!-- 0 -->
      <g style="fill: #262626" transform="translate(53.09053 175.307759)scale(0.11 -0.11)">
       <defs>
        <path id="ArialMT-30" d="M 266 2259 
Q 266 3072 433 3567 
Q 600 4063 929 4331 
Q 1259 4600 1759 4600 
Q 2128 4600 2406 4451 
Q 2684 4303 2865 4023 
Q 3047 3744 3150 3342 
Q 3253 2941 3253 2259 
Q 3253 1453 3087 958 
Q 2922 463 2592 192 
Q 2263 -78 1759 -78 
Q 1097 -78 719 397 
Q 266 969 266 2259 
z
M 844 2259 
Q 844 1131 1108 757 
Q 1372 384 1759 384 
Q 2147 384 2411 759 
Q 2675 1134 2675 2259 
Q 2675 3391 2411 3762 
Q 2147 4134 1753 4134 
Q 1366 4134 1134 3806 
Q 844 3388 844 2259 
z
" transform="scale(0.015625)"/>
       </defs>
       <use xlink:href="#ArialMT-30"/>
      </g>
     </g>
    </g>
    <g id="xtick_2">
     <g id="text_2">
      <!-- 25 -->
      <g style="fill: #262626" transform="translate(91.129875 175.307759)scale(0.11 -0.11)">
       <defs>
        <path id="ArialMT-32" d="M 3222 541 
L 3222 0 
L 194 0 
Q 188 203 259 391 
Q 375 700 629 1000 
Q 884 1300 1366 1694 
Q 2113 2306 2375 2664 
Q 2638 3022 2638 3341 
Q 2638 3675 2398 3904 
Q 2159 4134 1775 4134 
Q 1369 4134 1125 3890 
Q 881 3647 878 3216 
L 300 3275 
Q 359 3922 746 4261 
Q 1134 4600 1788 4600 
Q 2447 4600 2831 4234 
Q 3216 3869 3216 3328 
Q 3216 3053 3103 2787 
Q 2991 2522 2730 2228 
Q 2469 1934 1863 1422 
Q 1356 997 1212 845 
Q 1069 694 975 541 
L 3222 541 
z
" transform="scale(0.015625)"/>
        <path id="ArialMT-35" d="M 266 1200 
L 856 1250 
Q 922 819 1161 601 
Q 1400 384 1738 384 
Q 2144 384 2425 690 
Q 2706 997 2706 1503 
Q 2706 1984 2436 2262 
Q 2166 2541 1728 2541 
Q 1456 2541 1237 2417 
Q 1019 2294 894 2097 
L 366 2166 
L 809 4519 
L 3088 4519 
L 3088 3981 
L 1259 3981 
L 1013 2750 
Q 1425 3038 1878 3038 
Q 2478 3038 2890 2622 
Q 3303 2206 3303 1553 
Q 3303 931 2941 478 
Q 2500 -78 1738 -78 
Q 1113 -78 717 272 
Q 322 622 266 1200 
z
" transform="scale(0.015625)"/>
       </defs>
       <use xlink:href="#ArialMT-32"/>
       <use xlink:href="#ArialMT-35" x="55.615234"/>
      </g>
     </g>
    </g>
    <g id="xtick_3">
     <g id="text_3">
      <!-- 50 -->
      <g style="fill: #262626" transform="translate(132.227736 175.307759)scale(0.11 -0.11)">
       <use xlink:href="#ArialMT-35"/>
       <use xlink:href="#ArialMT-30" x="55.615234"/>
      </g>
     </g>
    </g>
    <g id="xtick_4">
     <g id="text_4">
      <!-- 75 -->
      <g style="fill: #262626" transform="translate(173.325596 175.307759)scale(0.11 -0.11)">
       <defs>
        <path id="ArialMT-37" d="M 303 3981 
L 303 4522 
L 3269 4522 
L 3269 4084 
Q 2831 3619 2401 2847 
Q 1972 2075 1738 1259 
Q 1569 684 1522 0 
L 944 0 
Q 953 541 1156 1306 
Q 1359 2072 1739 2783 
Q 2119 3494 2547 3981 
L 303 3981 
z
" transform="scale(0.015625)"/>
       </defs>
       <use xlink:href="#ArialMT-37"/>
       <use xlink:href="#ArialMT-35" x="55.615234"/>
      </g>
     </g>
    </g>
    <g id="text_5">
     <!-- Years -->
     <g style="fill: #262626" transform="translate(98.066848 192.230728)scale(0.15 -0.15)">
      <defs>
       <path id="ArialMT-59" d="M 1784 0 
L 1784 1941 
L 19 4581 
L 756 4581 
L 1659 3200 
Q 1909 2813 2125 2425 
Q 2331 2784 2625 3234 
L 3513 4581 
L 4219 4581 
L 2391 1941 
L 2391 0 
L 1784 0 
z
" transform="scale(0.015625)"/>
       <path id="ArialMT-65" d="M 2694 1069 
L 3275 997 
Q 3138 488 2766 206 
Q 2394 -75 1816 -75 
Q 1088 -75 661 373 
Q 234 822 234 1631 
Q 234 2469 665 2931 
Q 1097 3394 1784 3394 
Q 2450 3394 2872 2941 
Q 3294 2488 3294 1666 
Q 3294 1616 3291 1516 
L 816 1516 
Q 847 969 1125 678 
Q 1403 388 1819 388 
Q 2128 388 2347 550 
Q 2566 713 2694 1069 
z
M 847 1978 
L 2700 1978 
Q 2663 2397 2488 2606 
Q 2219 2931 1791 2931 
Q 1403 2931 1139 2672 
Q 875 2413 847 1978 
z
" transform="scale(0.015625)"/>
       <path id="ArialMT-61" d="M 2588 409 
Q 2275 144 1986 34 
Q 1697 -75 1366 -75 
Q 819 -75 525 192 
Q 231 459 231 875 
Q 231 1119 342 1320 
Q 453 1522 633 1644 
Q 813 1766 1038 1828 
Q 1203 1872 1538 1913 
Q 2219 1994 2541 2106 
Q 2544 2222 2544 2253 
Q 2544 2597 2384 2738 
Q 2169 2928 1744 2928 
Q 1347 2928 1158 2789 
Q 969 2650 878 2297 
L 328 2372 
Q 403 2725 575 2942 
Q 747 3159 1072 3276 
Q 1397 3394 1825 3394 
Q 2250 3394 2515 3294 
Q 2781 3194 2906 3042 
Q 3031 2891 3081 2659 
Q 3109 2516 3109 2141 
L 3109 1391 
Q 3109 606 3145 398 
Q 3181 191 3288 0 
L 2700 0 
Q 2613 175 2588 409 
z
M 2541 1666 
Q 2234 1541 1622 1453 
Q 1275 1403 1131 1340 
Q 988 1278 909 1158 
Q 831 1038 831 891 
Q 831 666 1001 516 
Q 1172 366 1500 366 
Q 1825 366 2078 508 
Q 2331 650 2450 897 
Q 2541 1088 2541 1459 
L 2541 1666 
z
" transform="scale(0.015625)"/>
       <path id="ArialMT-72" d="M 416 0 
L 416 3319 
L 922 3319 
L 922 2816 
Q 1116 3169 1280 3281 
Q 1444 3394 1641 3394 
Q 1925 3394 2219 3213 
L 2025 2691 
Q 1819 2813 1613 2813 
Q 1428 2813 1281 2702 
Q 1134 2591 1072 2394 
Q 978 2094 978 1738 
L 978 0 
L 416 0 
z
" transform="scale(0.015625)"/>
       <path id="ArialMT-73" d="M 197 991 
L 753 1078 
Q 800 744 1014 566 
Q 1228 388 1613 388 
Q 2000 388 2187 545 
Q 2375 703 2375 916 
Q 2375 1106 2209 1216 
Q 2094 1291 1634 1406 
Q 1016 1563 777 1677 
Q 538 1791 414 1992 
Q 291 2194 291 2438 
Q 291 2659 392 2848 
Q 494 3038 669 3163 
Q 800 3259 1026 3326 
Q 1253 3394 1513 3394 
Q 1903 3394 2198 3281 
Q 2494 3169 2634 2976 
Q 2775 2784 2828 2463 
L 2278 2388 
Q 2241 2644 2061 2787 
Q 1881 2931 1553 2931 
Q 1166 2931 1000 2803 
Q 834 2675 834 2503 
Q 834 2394 903 2306 
Q 972 2216 1119 2156 
Q 1203 2125 1616 2013 
Q 2213 1853 2448 1751 
Q 2684 1650 2818 1456 
Q 2953 1263 2953 975 
Q 2953 694 2789 445 
Q 2625 197 2315 61 
Q 2006 -75 1616 -75 
Q 969 -75 630 194 
Q 291 463 197 991 
z
" transform="scale(0.015625)"/>
      </defs>
      <use xlink:href="#ArialMT-59"/>
      <use xlink:href="#ArialMT-65" x="57.574219"/>
      <use xlink:href="#ArialMT-61" x="113.189453"/>
      <use xlink:href="#ArialMT-72" x="168.804688"/>
      <use xlink:href="#ArialMT-73" x="202.105469"/>
     </g>
    </g>
   </g>
   <g id="matplotlib.axis_2">
    <g id="ytick_1">
     <g id="text_6">
      <!-- 0.0 -->
      <g style="fill: #262626" transform="translate(25.276563 161.870962)scale(0.11 -0.11)">
       <defs>
        <path id="ArialMT-2e" d="M 581 0 
L 581 641 
L 1222 641 
L 1222 0 
L 581 0 
z
" transform="scale(0.015625)"/>
       </defs>
       <use xlink:href="#ArialMT-30"/>
       <use xlink:href="#ArialMT-2e" x="55.615234"/>
       <use xlink:href="#ArialMT-30" x="83.398438"/>
      </g>
     </g>
    </g>
    <g id="ytick_2">
     <g id="text_7">
      <!-- 0.2 -->
      <g style="fill: #262626" transform="translate(25.276563 135.108035)scale(0.11 -0.11)">
       <use xlink:href="#ArialMT-30"/>
       <use xlink:href="#ArialMT-2e" x="55.615234"/>
       <use xlink:href="#ArialMT-32" x="83.398438"/>
      </g>
     </g>
    </g>
    <g id="ytick_3">
     <g id="text_8">
      <!-- 0.4 -->
      <g style="fill: #262626" transform="translate(25.276563 108.345109)scale(0.11 -0.11)">
       <defs>
        <path id="ArialMT-34" d="M 2069 0 
L 2069 1097 
L 81 1097 
L 81 1613 
L 2172 4581 
L 2631 4581 
L 2631 1613 
L 3250 1613 
L 3250 1097 
L 2631 1097 
L 2631 0 
L 2069 0 
z
M 2069 1613 
L 2069 3678 
L 634 1613 
L 2069 1613 
z
" transform="scale(0.015625)"/>
       </defs>
       <use xlink:href="#ArialMT-30"/>
       <use xlink:href="#ArialMT-2e" x="55.615234"/>
       <use xlink:href="#ArialMT-34" x="83.398438"/>
      </g>
     </g>
    </g>
    <g id="ytick_4">
     <g id="text_9">
      <!-- 0.6 -->
      <g style="fill: #262626" transform="translate(25.276563 81.582182)scale(0.11 -0.11)">
       <defs>
        <path id="ArialMT-36" d="M 3184 3459 
L 2625 3416 
Q 2550 3747 2413 3897 
Q 2184 4138 1850 4138 
Q 1581 4138 1378 3988 
Q 1113 3794 959 3422 
Q 806 3050 800 2363 
Q 1003 2672 1297 2822 
Q 1591 2972 1913 2972 
Q 2475 2972 2870 2558 
Q 3266 2144 3266 1488 
Q 3266 1056 3080 686 
Q 2894 316 2569 119 
Q 2244 -78 1831 -78 
Q 1128 -78 684 439 
Q 241 956 241 2144 
Q 241 3472 731 4075 
Q 1159 4600 1884 4600 
Q 2425 4600 2770 4297 
Q 3116 3994 3184 3459 
z
M 888 1484 
Q 888 1194 1011 928 
Q 1134 663 1356 523 
Q 1578 384 1822 384 
Q 2178 384 2434 671 
Q 2691 959 2691 1453 
Q 2691 1928 2437 2201 
Q 2184 2475 1800 2475 
Q 1419 2475 1153 2201 
Q 888 1928 888 1484 
z
" transform="scale(0.015625)"/>
       </defs>
       <use xlink:href="#ArialMT-30"/>
       <use xlink:href="#ArialMT-2e" x="55.615234"/>
       <use xlink:href="#ArialMT-36" x="83.398438"/>
      </g>
     </g>
    </g>
    <g id="ytick_5">
     <g id="text_10">
      <!-- 0.8 -->
      <g style="fill: #262626" transform="translate(25.276563 54.819255)scale(0.11 -0.11)">
       <defs>
        <path id="ArialMT-38" d="M 1131 2484 
Q 781 2613 612 2850 
Q 444 3088 444 3419 
Q 444 3919 803 4259 
Q 1163 4600 1759 4600 
Q 2359 4600 2725 4251 
Q 3091 3903 3091 3403 
Q 3091 3084 2923 2848 
Q 2756 2613 2416 2484 
Q 2838 2347 3058 2040 
Q 3278 1734 3278 1309 
Q 3278 722 2862 322 
Q 2447 -78 1769 -78 
Q 1091 -78 675 323 
Q 259 725 259 1325 
Q 259 1772 486 2073 
Q 713 2375 1131 2484 
z
M 1019 3438 
Q 1019 3113 1228 2906 
Q 1438 2700 1772 2700 
Q 2097 2700 2305 2904 
Q 2513 3109 2513 3406 
Q 2513 3716 2298 3927 
Q 2084 4138 1766 4138 
Q 1444 4138 1231 3931 
Q 1019 3725 1019 3438 
z
M 838 1322 
Q 838 1081 952 856 
Q 1066 631 1291 507 
Q 1516 384 1775 384 
Q 2178 384 2440 643 
Q 2703 903 2703 1303 
Q 2703 1709 2433 1975 
Q 2163 2241 1756 2241 
Q 1359 2241 1098 1978 
Q 838 1716 838 1322 
z
" transform="scale(0.015625)"/>
       </defs>
       <use xlink:href="#ArialMT-30"/>
       <use xlink:href="#ArialMT-2e" x="55.615234"/>
       <use xlink:href="#ArialMT-38" x="83.398438"/>
      </g>
     </g>
    </g>
    <g id="ytick_6">
     <g id="text_11">
      <!-- 1.0 -->
      <g style="fill: #262626" transform="translate(25.276563 28.056328)scale(0.11 -0.11)">
       <defs>
        <path id="ArialMT-31" d="M 2384 0 
L 1822 0 
L 1822 3584 
Q 1619 3391 1289 3197 
Q 959 3003 697 2906 
L 697 3450 
Q 1169 3672 1522 3987 
Q 1875 4303 2022 4600 
L 2384 4600 
L 2384 0 
z
" transform="scale(0.015625)"/>
       </defs>
       <use xlink:href="#ArialMT-31"/>
       <use xlink:href="#ArialMT-2e" x="55.615234"/>
       <use xlink:href="#ArialMT-30" x="83.398438"/>
      </g>
     </g>
    </g>
    <g id="text_12">
     <!-- Population (millions) -->
     <g style="fill: #262626" transform="translate(18.119531 158.55263)rotate(-90)scale(0.15 -0.15)">
      <defs>
       <path id="ArialMT-50" d="M 494 0 
L 494 4581 
L 2222 4581 
Q 2678 4581 2919 4538 
Q 3256 4481 3484 4323 
Q 3713 4166 3852 3881 
Q 3991 3597 3991 3256 
Q 3991 2672 3619 2267 
Q 3247 1863 2275 1863 
L 1100 1863 
L 1100 0 
L 494 0 
z
M 1100 2403 
L 2284 2403 
Q 2872 2403 3119 2622 
Q 3366 2841 3366 3238 
Q 3366 3525 3220 3729 
Q 3075 3934 2838 4000 
Q 2684 4041 2272 4041 
L 1100 4041 
L 1100 2403 
z
" transform="scale(0.015625)"/>
       <path id="ArialMT-6f" d="M 213 1659 
Q 213 2581 725 3025 
Q 1153 3394 1769 3394 
Q 2453 3394 2887 2945 
Q 3322 2497 3322 1706 
Q 3322 1066 3130 698 
Q 2938 331 2570 128 
Q 2203 -75 1769 -75 
Q 1072 -75 642 372 
Q 213 819 213 1659 
z
M 791 1659 
Q 791 1022 1069 705 
Q 1347 388 1769 388 
Q 2188 388 2466 706 
Q 2744 1025 2744 1678 
Q 2744 2294 2464 2611 
Q 2184 2928 1769 2928 
Q 1347 2928 1069 2612 
Q 791 2297 791 1659 
z
" transform="scale(0.015625)"/>
       <path id="ArialMT-70" d="M 422 -1272 
L 422 3319 
L 934 3319 
L 934 2888 
Q 1116 3141 1344 3267 
Q 1572 3394 1897 3394 
Q 2322 3394 2647 3175 
Q 2972 2956 3137 2557 
Q 3303 2159 3303 1684 
Q 3303 1175 3120 767 
Q 2938 359 2589 142 
Q 2241 -75 1856 -75 
Q 1575 -75 1351 44 
Q 1128 163 984 344 
L 984 -1272 
L 422 -1272 
z
M 931 1641 
Q 931 1000 1190 694 
Q 1450 388 1819 388 
Q 2194 388 2461 705 
Q 2728 1022 2728 1688 
Q 2728 2322 2467 2637 
Q 2206 2953 1844 2953 
Q 1484 2953 1207 2617 
Q 931 2281 931 1641 
z
" transform="scale(0.015625)"/>
       <path id="ArialMT-75" d="M 2597 0 
L 2597 488 
Q 2209 -75 1544 -75 
Q 1250 -75 995 37 
Q 741 150 617 320 
Q 494 491 444 738 
Q 409 903 409 1263 
L 409 3319 
L 972 3319 
L 972 1478 
Q 972 1038 1006 884 
Q 1059 663 1231 536 
Q 1403 409 1656 409 
Q 1909 409 2131 539 
Q 2353 669 2445 892 
Q 2538 1116 2538 1541 
L 2538 3319 
L 3100 3319 
L 3100 0 
L 2597 0 
z
" transform="scale(0.015625)"/>
       <path id="ArialMT-6c" d="M 409 0 
L 409 4581 
L 972 4581 
L 972 0 
L 409 0 
z
" transform="scale(0.015625)"/>
       <path id="ArialMT-74" d="M 1650 503 
L 1731 6 
Q 1494 -44 1306 -44 
Q 1000 -44 831 53 
Q 663 150 594 308 
Q 525 466 525 972 
L 525 2881 
L 113 2881 
L 113 3319 
L 525 3319 
L 525 4141 
L 1084 4478 
L 1084 3319 
L 1650 3319 
L 1650 2881 
L 1084 2881 
L 1084 941 
Q 1084 700 1114 631 
Q 1144 563 1211 522 
Q 1278 481 1403 481 
Q 1497 481 1650 503 
z
" transform="scale(0.015625)"/>
       <path id="ArialMT-69" d="M 425 3934 
L 425 4581 
L 988 4581 
L 988 3934 
L 425 3934 
z
M 425 0 
L 425 3319 
L 988 3319 
L 988 0 
L 425 0 
z
" transform="scale(0.015625)"/>
       <path id="ArialMT-6e" d="M 422 0 
L 422 3319 
L 928 3319 
L 928 2847 
Q 1294 3394 1984 3394 
Q 2284 3394 2536 3286 
Q 2788 3178 2913 3003 
Q 3038 2828 3088 2588 
Q 3119 2431 3119 2041 
L 3119 0 
L 2556 0 
L 2556 2019 
Q 2556 2363 2490 2533 
Q 2425 2703 2258 2804 
Q 2091 2906 1866 2906 
Q 1506 2906 1245 2678 
Q 984 2450 984 1813 
L 984 0 
L 422 0 
z
" transform="scale(0.015625)"/>
       <path id="ArialMT-20" transform="scale(0.015625)"/>
       <path id="ArialMT-28" d="M 1497 -1347 
Q 1031 -759 709 28 
Q 388 816 388 1659 
Q 388 2403 628 3084 
Q 909 3875 1497 4659 
L 1900 4659 
Q 1522 4009 1400 3731 
Q 1209 3300 1100 2831 
Q 966 2247 966 1656 
Q 966 153 1900 -1347 
L 1497 -1347 
z
" transform="scale(0.015625)"/>
       <path id="ArialMT-6d" d="M 422 0 
L 422 3319 
L 925 3319 
L 925 2853 
Q 1081 3097 1340 3245 
Q 1600 3394 1931 3394 
Q 2300 3394 2536 3241 
Q 2772 3088 2869 2813 
Q 3263 3394 3894 3394 
Q 4388 3394 4653 3120 
Q 4919 2847 4919 2278 
L 4919 0 
L 4359 0 
L 4359 2091 
Q 4359 2428 4304 2576 
Q 4250 2725 4106 2815 
Q 3963 2906 3769 2906 
Q 3419 2906 3187 2673 
Q 2956 2441 2956 1928 
L 2956 0 
L 2394 0 
L 2394 2156 
Q 2394 2531 2256 2718 
Q 2119 2906 1806 2906 
Q 1569 2906 1367 2781 
Q 1166 2656 1075 2415 
Q 984 2175 984 1722 
L 984 0 
L 422 0 
z
" transform="scale(0.015625)"/>
       <path id="ArialMT-29" d="M 791 -1347 
L 388 -1347 
Q 1322 153 1322 1656 
Q 1322 2244 1188 2822 
Q 1081 3291 891 3722 
Q 769 4003 388 4659 
L 791 4659 
Q 1378 3875 1659 3084 
Q 1900 2403 1900 1659 
Q 1900 816 1576 28 
Q 1253 -759 791 -1347 
z
" transform="scale(0.015625)"/>
      </defs>
      <use xlink:href="#ArialMT-50"/>
      <use xlink:href="#ArialMT-6f" x="66.699219"/>
      <use xlink:href="#ArialMT-70" x="122.314453"/>
      <use xlink:href="#ArialMT-75" x="177.929688"/>
      <use xlink:href="#ArialMT-6c" x="233.544922"/>
      <use xlink:href="#ArialMT-61" x="255.761719"/>
      <use xlink:href="#ArialMT-74" x="311.376953"/>
      <use xlink:href="#ArialMT-69" x="339.160156"/>
      <use xlink:href="#ArialMT-6f" x="361.376953"/>
      <use xlink:href="#ArialMT-6e" x="416.992188"/>
      <use xlink:href="#ArialMT-20" x="472.607422"/>
      <use xlink:href="#ArialMT-28" x="500.390625"/>
      <use xlink:href="#ArialMT-6d" x="533.691406"/>
      <use xlink:href="#ArialMT-69" x="616.992188"/>
      <use xlink:href="#ArialMT-6c" x="639.208984"/>
      <use xlink:href="#ArialMT-6c" x="661.425781"/>
      <use xlink:href="#ArialMT-69" x="683.642578"/>
      <use xlink:href="#ArialMT-6f" x="705.859375"/>
      <use xlink:href="#ArialMT-6e" x="761.474609"/>
      <use xlink:href="#ArialMT-73" x="817.089844"/>
      <use xlink:href="#ArialMT-29" x="867.089844"/>
     </g>
    </g>
   </g>
   <g id="line2d_1">
    <path d="M 56.149046 146.771349 
L 57.79296 146.821458 
L 59.436875 147.169612 
L 61.080789 145.618176 
L 62.724704 141.540717 
L 64.368618 137.74438 
L 66.012532 133.886099 
L 67.656447 129.09175 
L 69.300361 123.640424 
L 70.944276 117.852009 
L 72.58819 111.799736 
L 74.232105 105.65496 
L 75.876019 99.683208 
L 77.519933 94.126875 
L 79.163848 89.174355 
L 80.807762 84.946185 
L 82.451677 81.482896 
L 84.095591 78.751807 
L 85.739506 76.668908 
L 87.38342 75.124675 
L 89.027334 74.005881 
L 90.671249 73.20984 
L 92.315163 72.651161 
L 93.959078 72.263012 
L 95.602992 71.995297 
L 97.246906 71.811596 
L 98.890821 71.685996 
L 100.534735 71.600333 
L 102.17865 71.542009 
L 103.822564 71.502344 
L 105.466479 71.475392 
L 107.110393 71.457087 
L 108.754307 71.444659 
L 110.398222 71.436225 
L 112.042136 71.430501 
L 113.686051 71.426617 
L 115.329965 71.423981 
L 116.97388 71.422194 
L 118.617794 71.420981 
L 120.261708 71.420158 
L 121.905623 71.4196 
L 123.549537 71.419221 
L 125.193452 71.418964 
L 126.837366 71.41879 
L 128.481281 71.418672 
L 130.125195 71.418591 
L 131.769109 71.418537 
L 133.413024 71.4185 
L 135.056938 71.418475 
L 136.700853 71.418458 
L 138.344767 71.418447 
L 139.988682 71.418439 
L 141.632596 71.418433 
L 143.27651 71.41843 
L 144.920425 71.418427 
L 146.564339 71.418426 
L 148.208254 71.418425 
L 149.852168 71.418424 
L 151.496082 71.418423 
L 153.139997 71.418423 
L 154.783911 71.418423 
L 156.427826 71.418423 
L 158.07174 71.418422 
L 159.715655 71.418422 
L 161.359569 71.418422 
L 163.003483 71.418422 
L 164.647398 71.418422 
L 166.291312 71.418422 
L 167.935227 71.418422 
L 169.579141 71.418422 
L 171.223056 71.418422 
L 172.86697 71.418422 
L 174.510884 71.418422 
L 176.154799 71.418422 
L 177.798713 71.418422 
" clip-path="url(#pfc16678572)" style="fill: none; stroke-dasharray: 1.5,2.475; stroke-dashoffset: 0; stroke: #000000; stroke-width: 1.5"/>
   </g>
   <g id="line2d_2">
    <path d="M 56.149046 146.771349 
L 57.79296 146.821458 
L 59.436875 147.169612 
L 61.080789 146.661092 
L 62.724704 145.35288 
L 64.368618 144.400119 
L 66.012532 143.181799 
L 67.656447 141.398584 
L 69.300361 139.268553 
L 70.944276 136.92209 
L 72.58819 134.396515 
L 74.232105 131.786641 
L 75.876019 129.222662 
L 77.519933 126.821887 
L 79.163848 124.677037 
L 80.807762 122.84828 
L 82.451677 121.357579 
L 84.095591 120.192308 
L 85.739506 119.315501 
L 87.38342 118.677927 
L 89.027334 118.228344 
L 90.671249 117.92021 
L 92.315163 117.714858 
L 93.959078 117.582126 
L 95.602992 117.499523 
L 97.246906 117.450825 
L 98.890821 117.424612 
L 100.534735 117.412992 
L 102.17865 117.410595 
L 103.822564 117.413815 
L 105.466479 117.420265 
L 107.110393 117.428387 
L 108.754307 117.437182 
L 110.398222 117.446031 
L 112.042136 117.45456 
L 113.686051 117.462561 
L 115.329965 117.469929 
L 116.97388 117.476629 
L 118.617794 117.482665 
L 120.261708 117.488067 
L 121.905623 117.492878 
L 123.549537 117.497146 
L 125.193452 117.500922 
L 126.837366 117.504255 
L 128.481281 117.507193 
L 130.125195 117.509779 
L 131.769109 117.512053 
L 133.413024 117.514052 
L 135.056938 117.515808 
L 136.700853 117.517349 
L 138.344767 117.518702 
L 139.988682 117.519889 
L 141.632596 117.52093 
L 143.27651 117.521844 
L 144.920425 117.522645 
L 146.564339 117.523347 
L 148.208254 117.523963 
L 149.852168 117.524504 
L 151.496082 117.524977 
L 153.139997 117.525393 
L 154.783911 117.525757 
L 156.427826 117.526076 
L 158.07174 117.526356 
L 159.715655 117.526601 
L 161.359569 117.526817 
L 163.003483 117.527005 
L 164.647398 117.527171 
L 166.291312 117.527316 
L 167.935227 117.527443 
L 169.579141 117.527554 
L 171.223056 117.527652 
L 172.86697 117.527738 
L 174.510884 117.527813 
L 176.154799 117.527879 
L 177.798713 117.527936 
" clip-path="url(#pfc16678572)" style="fill: none; stroke: #482475; stroke-width: 1.5; stroke-linecap: round"/>
   </g>
   <g id="line2d_3">
    <path d="M 56.149046 146.771349 
L 57.79296 146.821458 
L 59.436875 147.169612 
L 61.080789 146.889568 
L 62.724704 146.222546 
L 64.368618 146.119802 
L 66.012532 145.83365 
L 67.656447 145.195678 
L 69.300361 144.429556 
L 70.944276 143.581187 
L 72.58819 142.62598 
L 74.232105 141.587774 
L 75.876019 140.503288 
L 77.519933 139.398059 
L 79.163848 138.295483 
L 80.807762 137.219559 
L 82.451677 136.191368 
L 84.095591 135.227598 
L 85.739506 134.34045 
L 87.38342 133.537573 
L 89.027334 132.822251 
L 90.671249 132.193971 
L 92.315163 131.649209 
L 93.959078 131.182274 
L 95.602992 130.78611 
L 97.246906 130.452989 
L 98.890821 130.175065 
L 100.534735 129.944769 
L 102.17865 129.755069 
L 103.822564 129.599615 
L 105.466479 129.472801 
L 107.110393 129.369767 
L 108.754307 129.286354 
L 110.398222 129.219046 
L 112.042136 129.1649 
L 113.686051 129.121468 
L 115.329965 129.086727 
L 116.97388 129.059017 
L 118.617794 129.036978 
L 120.261708 129.019502 
L 121.905623 129.00569 
L 123.549537 128.994811 
L 125.193452 128.986275 
L 126.837366 128.979608 
L 128.481281 128.974426 
L 130.125195 128.970422 
L 131.769109 128.96735 
L 133.413024 128.965012 
L 135.056938 128.96325 
L 136.700853 128.961939 
L 138.344767 128.96098 
L 139.988682 128.960293 
L 141.632596 128.959815 
L 143.27651 128.959497 
L 144.920425 128.959301 
L 146.564339 128.959195 
L 148.208254 128.959156 
L 149.852168 128.959165 
L 151.496082 128.959209 
L 153.139997 128.959275 
L 154.783911 128.959357 
L 156.427826 128.959448 
L 158.07174 128.959542 
L 159.715655 128.959637 
L 161.359569 128.959731 
L 163.003483 128.959821 
L 164.647398 128.959907 
L 166.291312 128.959987 
L 167.935227 128.960062 
L 169.579141 128.960131 
L 171.223056 128.960194 
L 172.86697 128.960252 
L 174.510884 128.960304 
L 176.154799 128.960352 
L 177.798713 128.960395 
" clip-path="url(#pfc16678572)" style="fill: none; stroke: #355f8d; stroke-width: 1.5; stroke-linecap: round"/>
   </g>
   <g id="line2d_4">
    <path d="M 56.149046 146.771349 
L 57.79296 146.821458 
L 59.436875 147.169612 
L 61.080789 147.118043 
L 62.724704 147.069232 
L 64.368618 147.664629 
L 66.012532 148.055057 
L 67.656447 148.200033 
L 69.300361 148.314349 
L 70.944276 148.393744 
L 72.58819 148.40961 
L 74.232105 148.379714 
L 75.876019 148.318547 
L 77.519933 148.22941 
L 79.163848 148.116458 
L 80.807762 147.985026 
L 82.451677 147.839186 
L 84.095591 147.68215 
L 85.739506 147.516854 
L 87.38342 147.345887 
L 89.027334 147.17145 
L 90.671249 146.99543 
L 92.315163 146.819455 
L 93.959078 146.644908 
L 95.602992 146.472953 
L 97.246906 146.30456 
L 98.890821 146.140523 
L 100.534735 145.981482 
L 102.17865 145.827939 
L 103.822564 145.68027 
L 105.466479 145.538748 
L 107.110393 145.403546 
L 108.754307 145.274761 
L 110.398222 145.152415 
L 112.042136 145.036472 
L 113.686051 144.926847 
L 115.329965 144.823412 
L 116.97388 144.726006 
L 118.617794 144.634442 
L 120.261708 144.548511 
L 121.905623 144.467989 
L 123.549537 144.392642 
L 125.193452 144.322231 
L 126.837366 144.25651 
L 128.481281 144.195237 
L 130.125195 144.138168 
L 131.769109 144.085068 
L 133.413024 144.035702 
L 135.056938 143.989847 
L 136.700853 143.947284 
L 138.344767 143.907805 
L 139.988682 143.871211 
L 141.632596 143.83731 
L 143.27651 143.805923 
L 144.920425 143.776877 
L 146.564339 143.75001 
L 148.208254 143.725171 
L 149.852168 143.702214 
L 151.496082 143.681007 
L 153.139997 143.661421 
L 154.783911 143.643339 
L 156.427826 143.62665 
L 158.07174 143.611252 
L 159.715655 143.597047 
L 161.359569 143.583947 
L 163.003483 143.571868 
L 164.647398 143.560733 
L 166.291312 143.55047 
L 167.935227 143.541013 
L 169.579141 143.532298 
L 171.223056 143.524271 
L 172.86697 143.516876 
L 174.510884 143.510066 
L 176.154799 143.503794 
L 177.798713 143.498019 
" clip-path="url(#pfc16678572)" style="fill: none; stroke: #21918c; stroke-width: 1.5; stroke-linecap: round"/>
   </g>
   <g id="line2d_5">
    <path d="M 56.149046 146.771349 
L 57.79296 146.821458 
L 59.436875 147.169612 
L 61.080789 147.346518 
L 62.724704 147.892885 
L 64.368618 149.03527 
L 66.012532 149.875546 
L 67.656447 150.497624 
L 69.300361 151.092806 
L 70.944276 151.628847 
L 72.58819 152.090983 
L 74.232105 152.501524 
L 75.876019 152.87025 
L 77.519933 153.199996 
L 79.163848 153.495908 
L 80.807762 153.762896 
L 82.451677 154.004465 
L 84.095591 154.223615 
L 85.739506 154.423063 
L 87.38342 154.605119 
L 89.027334 154.771761 
L 90.671249 154.924713 
L 92.315163 155.065478 
L 93.959078 155.195368 
L 95.602992 155.315529 
L 97.246906 155.426967 
L 98.890821 155.530565 
L 100.534735 155.627102 
L 102.17865 155.717265 
L 103.822564 155.801662 
L 105.466479 155.88083 
L 107.110393 155.955246 
L 108.754307 156.025335 
L 110.398222 156.091474 
L 112.042136 156.153999 
L 113.686051 156.213212 
L 115.329965 156.269382 
L 116.97388 156.322749 
L 118.617794 156.37353 
L 120.261708 156.421919 
L 121.905623 156.468091 
L 123.549537 156.512206 
L 125.193452 156.554405 
L 126.837366 156.594818 
L 128.481281 156.633563 
L 130.125195 156.670746 
L 131.769109 156.706464 
L 133.413024 156.740806 
L 135.056938 156.773854 
L 136.700853 156.80568 
L 138.344767 156.836354 
L 139.988682 156.865937 
L 141.632596 156.894488 
L 143.27651 156.922059 
L 144.920425 156.9487 
L 146.564339 156.974457 
L 148.208254 156.99937 
L 149.852168 157.023481 
L 151.496082 157.046825 
L 153.139997 157.069436 
L 154.783911 157.091347 
L 156.427826 157.112587 
L 158.07174 157.133185 
L 159.715655 157.153165 
L 161.359569 157.172554 
L 163.003483 157.191375 
L 164.647398 157.209649 
L 166.291312 157.227398 
L 167.935227 157.24464 
L 169.579141 157.261395 
L 171.223056 157.27768 
L 172.86697 157.293512 
L 174.510884 157.308907 
L 176.154799 157.32388 
L 177.798713 157.338446 
" clip-path="url(#pfc16678572)" style="fill: none; stroke: #44bf70; stroke-width: 1.5; stroke-linecap: round"/>
   </g>
   <g id="line2d_6">
    <path d="M 56.149046 146.771349 
L 57.79296 146.821458 
L 59.436875 147.169612 
L 61.080789 147.574993 
L 62.724704 148.693452 
L 64.368618 150.232498 
L 66.012532 151.327559 
L 67.656447 152.182979 
L 69.300361 152.963377 
L 70.944276 153.633074 
L 72.58819 154.197921 
L 74.232105 154.685657 
L 75.876019 155.107887 
L 77.519933 155.472306 
L 79.163848 155.7878 
L 80.807762 156.061631 
L 82.451677 156.299495 
L 84.095591 156.50634 
L 85.739506 156.686425 
L 87.38342 156.843349 
L 89.027334 156.980192 
L 90.671249 157.099606 
L 92.315163 157.203873 
L 93.959078 157.294961 
L 95.602992 157.37457 
L 97.246906 157.444176 
L 98.890821 157.505055 
L 100.534735 157.558318 
L 102.17865 157.604929 
L 103.822564 157.64573 
L 105.466479 157.68145 
L 107.110393 157.712729 
L 108.754307 157.740122 
L 110.398222 157.764116 
L 112.042136 157.785135 
L 113.686051 157.80355 
L 115.329965 157.819684 
L 116.97388 157.833822 
L 118.617794 157.846211 
L 120.261708 157.857068 
L 121.905623 157.866583 
L 123.549537 157.874923 
L 125.193452 157.882232 
L 126.837366 157.888639 
L 128.481281 157.894255 
L 130.125195 157.899178 
L 131.769109 157.903493 
L 133.413024 157.907276 
L 135.056938 157.910592 
L 136.700853 157.913499 
L 138.344767 157.916047 
L 139.988682 157.918281 
L 141.632596 157.920239 
L 143.27651 157.921956 
L 144.920425 157.923462 
L 146.564339 157.924781 
L 148.208254 157.925938 
L 149.852168 157.926952 
L 151.496082 157.927842 
L 153.139997 157.928621 
L 154.783911 157.929305 
L 156.427826 157.929904 
L 158.07174 157.930429 
L 159.715655 157.93089 
L 161.359569 157.931294 
L 163.003483 157.931648 
L 164.647398 157.931958 
L 166.291312 157.93223 
L 167.935227 157.932469 
L 169.579141 157.932678 
L 171.223056 157.932861 
L 172.86697 157.933022 
L 174.510884 157.933163 
L 176.154799 157.933286 
L 177.798713 157.933395 
" clip-path="url(#pfc16678572)" style="fill: none; stroke: #bddf26; stroke-width: 1.5; stroke-linecap: round"/>
   </g>
   <g id="patch_3">
    <path d="M 50.066563 157.934165 
L 50.066563 24.119531 
" style="fill: none; stroke: #262626; stroke-width: 1.25; stroke-linejoin: miter; stroke-linecap: square"/>
   </g>
   <g id="patch_4">
    <path d="M 183.881197 157.934165 
L 183.881197 24.119531 
" style="fill: none; stroke: #262626; stroke-width: 1.25; stroke-linejoin: miter; stroke-linecap: square"/>
   </g>
   <g id="patch_5">
    <path d="M 50.066563 157.934165 
L 183.881197 157.934165 
" style="fill: none; stroke: #262626; stroke-width: 1.25; stroke-linejoin: miter; stroke-linecap: square"/>
   </g>
   <g id="patch_6">
    <path d="M 50.066563 24.119531 
L 183.881197 24.119531 
" style="fill: none; stroke: #262626; stroke-width: 1.25; stroke-linejoin: miter; stroke-linecap: square"/>
   </g>
   <g id="text_13">
    <!-- La Grange -->
    <g style="fill: #262626" transform="translate(81.535208 18.119531)scale(0.15 -0.15)">
     <defs>
      <path id="ArialMT-4c" d="M 469 0 
L 469 4581 
L 1075 4581 
L 1075 541 
L 3331 541 
L 3331 0 
L 469 0 
z
" transform="scale(0.015625)"/>
      <path id="ArialMT-47" d="M 2638 1797 
L 2638 2334 
L 4578 2338 
L 4578 638 
Q 4131 281 3656 101 
Q 3181 -78 2681 -78 
Q 2006 -78 1454 211 
Q 903 500 622 1047 
Q 341 1594 341 2269 
Q 341 2938 620 3517 
Q 900 4097 1425 4378 
Q 1950 4659 2634 4659 
Q 3131 4659 3532 4498 
Q 3934 4338 4162 4050 
Q 4391 3763 4509 3300 
L 3963 3150 
Q 3859 3500 3706 3700 
Q 3553 3900 3268 4020 
Q 2984 4141 2638 4141 
Q 2222 4141 1919 4014 
Q 1616 3888 1430 3681 
Q 1244 3475 1141 3228 
Q 966 2803 966 2306 
Q 966 1694 1177 1281 
Q 1388 869 1791 669 
Q 2194 469 2647 469 
Q 3041 469 3416 620 
Q 3791 772 3984 944 
L 3984 1797 
L 2638 1797 
z
" transform="scale(0.015625)"/>
      <path id="ArialMT-67" d="M 319 -275 
L 866 -356 
Q 900 -609 1056 -725 
Q 1266 -881 1628 -881 
Q 2019 -881 2231 -725 
Q 2444 -569 2519 -288 
Q 2563 -116 2559 434 
Q 2191 0 1641 0 
Q 956 0 581 494 
Q 206 988 206 1678 
Q 206 2153 378 2554 
Q 550 2956 876 3175 
Q 1203 3394 1644 3394 
Q 2231 3394 2613 2919 
L 2613 3319 
L 3131 3319 
L 3131 450 
Q 3131 -325 2973 -648 
Q 2816 -972 2473 -1159 
Q 2131 -1347 1631 -1347 
Q 1038 -1347 672 -1080 
Q 306 -813 319 -275 
z
M 784 1719 
Q 784 1066 1043 766 
Q 1303 466 1694 466 
Q 2081 466 2343 764 
Q 2606 1063 2606 1700 
Q 2606 2309 2336 2618 
Q 2066 2928 1684 2928 
Q 1309 2928 1046 2623 
Q 784 2319 784 1719 
z
" transform="scale(0.015625)"/>
     </defs>
     <use xlink:href="#ArialMT-4c"/>
     <use xlink:href="#ArialMT-61" x="55.615234"/>
     <use xlink:href="#ArialMT-20" x="111.230469"/>
     <use xlink:href="#ArialMT-47" x="139.013672"/>
     <use xlink:href="#ArialMT-72" x="216.796875"/>
     <use xlink:href="#ArialMT-61" x="250.097656"/>
     <use xlink:href="#ArialMT-6e" x="305.712891"/>
     <use xlink:href="#ArialMT-67" x="361.328125"/>
     <use xlink:href="#ArialMT-65" x="416.943359"/>
    </g>
   </g>
  </g>
  <g id="axes_2">
   <g id="patch_7">
    <path d="M 190.571928 157.934165 
L 324.386563 157.934165 
L 324.386563 24.119531 
L 190.571928 24.119531 
L 190.571928 157.934165 
z
" style="fill: none"/>
   </g>
   <g id="matplotlib.axis_3">
    <g id="xtick_5">
     <g id="text_14">
      <!-- 0 -->
      <g style="fill: #262626" transform="translate(193.595896 175.307759)scale(0.11 -0.11)">
       <use xlink:href="#ArialMT-30"/>
      </g>
     </g>
    </g>
    <g id="xtick_6">
     <g id="text_15">
      <!-- 25 -->
      <g style="fill: #262626" transform="translate(231.635241 175.307759)scale(0.11 -0.11)">
       <use xlink:href="#ArialMT-32"/>
       <use xlink:href="#ArialMT-35" x="55.615234"/>
      </g>
     </g>
    </g>
    <g id="xtick_7">
     <g id="text_16">
      <!-- 50 -->
      <g style="fill: #262626" transform="translate(272.733102 175.307759)scale(0.11 -0.11)">
       <use xlink:href="#ArialMT-35"/>
       <use xlink:href="#ArialMT-30" x="55.615234"/>
      </g>
     </g>
    </g>
    <g id="xtick_8">
     <g id="text_17">
      <!-- 75 -->
      <g style="fill: #262626" transform="translate(313.830962 175.307759)scale(0.11 -0.11)">
       <use xlink:href="#ArialMT-37"/>
       <use xlink:href="#ArialMT-35" x="55.615234"/>
      </g>
     </g>
    </g>
    <g id="text_18">
     <!-- Years -->
     <g style="fill: #262626" transform="translate(238.572214 192.230728)scale(0.15 -0.15)">
      <use xlink:href="#ArialMT-59"/>
      <use xlink:href="#ArialMT-65" x="57.574219"/>
      <use xlink:href="#ArialMT-61" x="113.189453"/>
      <use xlink:href="#ArialMT-72" x="168.804688"/>
      <use xlink:href="#ArialMT-73" x="202.105469"/>
     </g>
    </g>
   </g>
   <g id="matplotlib.axis_4">
    <g id="ytick_7"/>
    <g id="ytick_8"/>
    <g id="ytick_9"/>
    <g id="ytick_10"/>
    <g id="ytick_11"/>
    <g id="ytick_12"/>
   </g>
   <g id="line2d_7">
    <path d="M 196.654412 142.334055 
L 198.298326 142.404083 
L 199.942241 142.890631 
L 201.586155 140.722489 
L 203.230069 135.024213 
L 204.873984 129.718807 
L 206.517898 124.326834 
L 208.161813 117.6267 
L 209.805727 110.008436 
L 211.449642 101.919088 
L 213.093556 93.460997 
L 214.73747 84.873632 
L 216.381385 76.528068 
L 218.025299 68.763056 
L 219.669214 61.841877 
L 221.313128 55.932982 
L 222.957043 51.093013 
L 224.600957 47.276298 
L 226.244871 44.365432 
L 227.888786 42.207357 
L 229.5327 40.643835 
L 231.176615 39.531363 
L 232.820529 38.750605 
L 234.464443 38.208164 
L 236.108358 37.83403 
L 237.752272 37.577307 
L 239.396187 37.401779 
L 241.040101 37.282065 
L 242.684016 37.200557 
L 244.32793 37.145126 
L 245.971844 37.107459 
L 247.615759 37.081878 
L 249.259673 37.06451 
L 250.903588 37.052723 
L 252.547502 37.044723 
L 254.191417 37.039296 
L 255.835331 37.035613 
L 257.479245 37.033114 
L 259.12316 37.031419 
L 260.767074 37.030269 
L 262.410989 37.029489 
L 264.054903 37.02896 
L 265.698818 37.028601 
L 267.342732 37.028358 
L 268.986646 37.028192 
L 270.630561 37.02808 
L 272.274475 37.028004 
L 273.91839 37.027953 
L 275.562304 37.027918 
L 277.206219 37.027894 
L 278.850133 37.027878 
L 280.494047 37.027867 
L 282.137962 37.02786 
L 283.781876 37.027855 
L 285.425791 37.027851 
L 287.069705 37.027849 
L 288.713619 37.027847 
L 290.357534 37.027846 
L 292.001448 37.027845 
L 293.645363 37.027845 
L 295.289277 37.027845 
L 296.933192 37.027844 
L 298.577106 37.027844 
L 300.22102 37.027844 
L 301.864935 37.027844 
L 303.508849 37.027844 
L 305.152764 37.027844 
L 306.796678 37.027844 
L 308.440593 37.027844 
L 310.084507 37.027844 
L 311.728421 37.027844 
L 313.372336 37.027844 
L 315.01625 37.027844 
L 316.660165 37.027844 
L 318.304079 37.027844 
" clip-path="url(#p2775da3c8c)" style="fill: none; stroke-dasharray: 1.5,2.475; stroke-dashoffset: 0; stroke: #000000; stroke-width: 1.5"/>
   </g>
   <g id="line2d_8">
    <path d="M 196.654412 142.334055 
L 198.298326 142.404083 
L 199.942241 142.890631 
L 201.586155 142.025313 
L 203.230069 139.786416 
L 204.873984 138.033241 
L 206.517898 135.939141 
L 208.161813 133.000554 
L 209.805727 129.531294 
L 211.449642 125.741676 
L 213.093556 121.689181 
L 214.73747 117.517661 
L 216.381385 113.429131 
L 218.025299 109.606082 
L 219.669214 106.192281 
L 221.313128 103.280763 
L 222.957043 100.904975 
L 224.600957 99.0443 
L 226.244871 97.640101 
L 227.888786 96.614635 
L 229.5327 95.887101 
L 231.176615 95.384127 
L 232.820529 95.04475 
L 234.464443 94.821379 
L 236.108358 94.67849 
L 237.752272 94.590415 
L 239.396187 94.539043 
L 241.040101 94.511824 
L 242.684016 94.500181 
L 244.32793 94.498322 
L 245.971844 94.502382 
L 247.615759 94.509813 
L 249.259673 94.518958 
L 250.903588 94.528761 
L 252.547502 94.538567 
L 254.191417 94.547985 
L 255.835331 94.556799 
L 257.479245 94.564903 
L 259.12316 94.572264 
L 260.767074 94.578891 
L 262.410989 94.584817 
L 264.054903 94.590093 
L 265.698818 94.594771 
L 267.342732 94.598909 
L 268.986646 94.602562 
L 270.630561 94.605781 
L 272.274475 94.608614 
L 273.91839 94.611105 
L 275.562304 94.613295 
L 277.206219 94.615218 
L 278.850133 94.616906 
L 280.494047 94.618388 
L 282.137962 94.619688 
L 283.781876 94.620828 
L 285.425791 94.621829 
L 287.069705 94.622706 
L 288.713619 94.623475 
L 290.357534 94.62415 
L 292.001448 94.624742 
L 293.645363 94.625261 
L 295.289277 94.625715 
L 296.933192 94.626114 
L 298.577106 94.626464 
L 300.22102 94.62677 
L 301.864935 94.627039 
L 303.508849 94.627275 
L 305.152764 94.627482 
L 306.796678 94.627663 
L 308.440593 94.627822 
L 310.084507 94.627961 
L 311.728421 94.628083 
L 313.372336 94.62819 
L 315.01625 94.628284 
L 316.660165 94.628366 
L 318.304079 94.628438 
" clip-path="url(#p2775da3c8c)" style="fill: none; stroke: #482475; stroke-width: 1.5; stroke-linecap: round"/>
   </g>
   <g id="line2d_9">
    <path d="M 196.654412 142.334055 
L 198.298326 142.404083 
L 199.942241 142.890631 
L 201.586155 142.383274 
L 203.230069 141.148953 
L 204.873984 140.727529 
L 206.517898 140.093889 
L 208.161813 138.949594 
L 209.805727 137.617218 
L 211.449642 136.174717 
L 213.093556 134.582572 
L 214.73747 132.873441 
L 216.381385 131.102884 
L 218.025299 129.309613 
L 219.669214 127.528778 
L 221.313128 125.79675 
L 222.957043 124.145595 
L 224.600957 122.600618 
L 226.244871 121.180216 
L 227.888786 119.895764 
L 229.5327 118.751886 
L 231.176615 117.74733 
L 232.820529 116.876188 
L 234.464443 116.12921 
L 236.108358 115.495053 
L 237.752272 114.961361 
L 239.396187 114.515626 
L 241.040101 114.1458 
L 242.684016 113.840701 
L 244.32793 113.590241 
L 245.971844 113.385514 
L 247.615759 113.218793 
L 249.259673 113.083471 
L 250.903588 112.973957 
L 252.547502 112.885568 
L 254.191417 112.814404 
L 255.835331 112.757244 
L 257.479245 112.711437 
L 259.12316 112.674812 
L 260.767074 112.645595 
L 262.410989 112.622344 
L 264.054903 112.603888 
L 265.698818 112.589278 
L 267.342732 112.577748 
L 268.986646 112.568679 
L 270.630561 112.561573 
L 272.274475 112.556029 
L 273.91839 112.551726 
L 275.562304 112.548404 
L 277.206219 112.545859 
L 278.850133 112.543925 
L 280.494047 112.54247 
L 282.137962 112.54139 
L 283.781876 112.540602 
L 285.425791 112.540039 
L 287.069705 112.53965 
L 288.713619 112.539393 
L 290.357534 112.539236 
L 292.001448 112.539153 
L 293.645363 112.539126 
L 295.289277 112.539138 
L 296.933192 112.539179 
L 298.577106 112.539238 
L 300.22102 112.539309 
L 301.864935 112.539388 
L 303.508849 112.539469 
L 305.152764 112.53955 
L 306.796678 112.53963 
L 308.440593 112.539707 
L 310.084507 112.539779 
L 311.728421 112.539848 
L 313.372336 112.539911 
L 315.01625 112.539969 
L 316.660165 112.540023 
L 318.304079 112.540072 
" clip-path="url(#p2775da3c8c)" style="fill: none; stroke: #355f8d; stroke-width: 1.5; stroke-linecap: round"/>
   </g>
   <g id="line2d_10">
    <path d="M 196.654412 142.334055 
L 198.298326 142.404083 
L 199.942241 142.890631 
L 201.586155 142.741234 
L 203.230069 142.475485 
L 204.873984 143.147863 
L 206.517898 143.574246 
L 208.161813 143.656624 
L 209.805727 143.703661 
L 211.449642 143.71472 
L 213.093556 143.64399 
L 214.73747 143.51461 
L 216.381385 143.347325 
L 218.025299 143.146001 
L 219.669214 142.915645 
L 221.313128 142.663385 
L 222.957043 142.394639 
L 224.600957 142.113601 
L 226.244871 141.82415 
L 227.888786 141.529735 
L 229.5327 141.23328 
L 231.176615 140.937296 
L 232.820529 140.643945 
L 234.464443 140.355062 
L 236.108358 140.072182 
L 237.752272 139.796574 
L 239.396187 139.529269 
L 241.040101 139.271081 
L 242.684016 139.022631 
L 244.32793 138.784369 
L 245.971844 138.556596 
L 247.615759 138.339478 
L 249.259673 138.133069 
L 250.903588 137.937325 
L 252.547502 137.752116 
L 254.191417 137.577247 
L 255.835331 137.412461 
L 257.479245 137.25746 
L 259.12316 137.111906 
L 260.767074 136.975437 
L 262.410989 136.84767 
L 264.054903 136.728211 
L 265.698818 136.616658 
L 267.342732 136.512607 
L 268.986646 136.415657 
L 270.630561 136.325414 
L 272.274475 136.241488 
L 273.91839 136.163506 
L 275.562304 136.091101 
L 277.206219 136.023925 
L 278.850133 135.961641 
L 280.494047 135.903929 
L 282.137962 135.850485 
L 283.781876 135.801018 
L 285.425791 135.755256 
L 287.069705 135.71294 
L 288.713619 135.673827 
L 290.357534 135.637689 
L 292.001448 135.604311 
L 293.645363 135.573494 
L 295.289277 135.545048 
L 296.933192 135.5188 
L 298.577106 135.494586 
L 300.22102 135.472253 
L 301.864935 135.45166 
L 303.508849 135.432676 
L 305.152764 135.415178 
L 306.796678 135.399053 
L 308.440593 135.384195 
L 310.084507 135.370507 
L 311.728421 135.357898 
L 313.372336 135.346285 
L 315.01625 135.335591 
L 316.660165 135.325744 
L 318.304079 135.316678 
" clip-path="url(#p2775da3c8c)" style="fill: none; stroke: #21918c; stroke-width: 1.5; stroke-linecap: round"/>
   </g>
   <g id="line2d_11">
    <path d="M 196.654412 142.334055 
L 198.298326 142.404083 
L 199.942241 142.890631 
L 201.586155 143.099194 
L 203.230069 143.765931 
L 204.873984 145.295296 
L 206.517898 146.426469 
L 208.161813 147.256339 
L 209.805727 148.056766 
L 211.449642 148.783269 
L 213.093556 149.411725 
L 214.73747 149.972395 
L 216.381385 150.478638 
L 218.025299 150.933593 
L 219.669214 151.343817 
L 221.313128 151.715778 
L 222.957043 152.053998 
L 224.600957 152.362344 
L 226.244871 152.644351 
L 227.888786 152.903029 
L 229.5327 153.140955 
L 231.176615 153.360381 
L 232.820529 153.563279 
L 234.464443 153.751368 
L 236.108358 153.926156 
L 237.752272 154.088969 
L 239.396187 154.240978 
L 241.040101 154.383212 
L 242.684016 154.516586 
L 244.32793 154.641909 
L 245.971844 154.759899 
L 247.615759 154.871196 
L 249.259673 154.976371 
L 250.903588 155.075933 
L 252.547502 155.170337 
L 254.191417 155.259992 
L 255.835331 155.345264 
L 257.479245 155.426483 
L 259.12316 155.503947 
L 260.767074 155.577923 
L 262.410989 155.648653 
L 264.054903 155.716357 
L 265.698818 155.781235 
L 267.342732 155.843468 
L 268.986646 155.90322 
L 270.630561 155.960643 
L 272.274475 156.015873 
L 273.91839 156.069039 
L 275.562304 156.120254 
L 277.206219 156.169625 
L 278.850133 156.217251 
L 280.494047 156.263223 
L 282.137962 156.307623 
L 283.781876 156.350529 
L 285.425791 156.392014 
L 287.069705 156.432144 
L 288.713619 156.470982 
L 290.357534 156.508585 
L 292.001448 156.545008 
L 293.645363 156.580302 
L 295.289277 156.614515 
L 296.933192 156.647691 
L 298.577106 156.679873 
L 300.22102 156.7111 
L 301.864935 156.741409 
L 303.508849 156.770836 
L 305.152764 156.799414 
L 306.796678 156.827175 
L 308.440593 156.854149 
L 310.084507 156.880364 
L 311.728421 156.905848 
L 313.372336 156.930625 
L 315.01625 156.954721 
L 316.660165 156.978159 
L 318.304079 157.000961 
" clip-path="url(#p2775da3c8c)" style="fill: none; stroke: #44bf70; stroke-width: 1.5; stroke-linecap: round"/>
   </g>
   <g id="line2d_12">
    <path d="M 196.654412 142.334055 
L 198.298326 142.404083 
L 199.942241 142.890631 
L 201.586155 143.457154 
L 203.230069 145.020208 
L 204.873984 147.171034 
L 206.517898 148.701389 
L 208.161813 149.896845 
L 209.805727 150.987456 
L 211.449642 151.923361 
L 213.093556 152.712739 
L 214.73747 153.394353 
L 216.381385 153.984423 
L 218.025299 154.493701 
L 219.669214 154.934605 
L 221.313128 155.317286 
L 222.957043 155.649703 
L 224.600957 155.93877 
L 226.244871 156.19044 
L 227.888786 156.409742 
L 229.5327 156.600982 
L 231.176615 156.767864 
L 232.820529 156.913577 
L 234.464443 157.040873 
L 236.108358 157.152128 
L 237.752272 157.249402 
L 239.396187 157.334481 
L 241.040101 157.408916 
L 242.684016 157.474056 
L 244.32793 157.531074 
L 245.971844 157.580994 
L 247.615759 157.624706 
L 249.259673 157.662989 
L 250.903588 157.69652 
L 252.547502 157.725894 
L 254.191417 157.751629 
L 255.835331 157.774177 
L 257.479245 157.793934 
L 259.12316 157.811248 
L 260.767074 157.826421 
L 262.410989 157.839719 
L 264.054903 157.851373 
L 265.698818 157.861588 
L 267.342732 157.870542 
L 268.986646 157.87839 
L 270.630561 157.88527 
L 272.274475 157.8913 
L 273.91839 157.896587 
L 275.562304 157.901221 
L 277.206219 157.905283 
L 278.850133 157.908845 
L 280.494047 157.911967 
L 282.137962 157.914704 
L 283.781876 157.917103 
L 285.425791 157.919207 
L 287.069705 157.921051 
L 288.713619 157.922668 
L 290.357534 157.924085 
L 292.001448 157.925328 
L 293.645363 157.926417 
L 295.289277 157.927372 
L 296.933192 157.92821 
L 298.577106 157.928944 
L 300.22102 157.929588 
L 301.864935 157.930152 
L 303.508849 157.930647 
L 305.152764 157.93108 
L 306.796678 157.931461 
L 308.440593 157.931794 
L 310.084507 157.932086 
L 311.728421 157.932343 
L 313.372336 157.932567 
L 315.01625 157.932764 
L 316.660165 157.932937 
L 318.304079 157.933088 
" clip-path="url(#p2775da3c8c)" style="fill: none; stroke: #bddf26; stroke-width: 1.5; stroke-linecap: round"/>
   </g>
   <g id="patch_8">
    <path d="M 190.571928 157.934165 
L 190.571928 24.119531 
" style="fill: none; stroke: #262626; stroke-width: 1.25; stroke-linejoin: miter; stroke-linecap: square"/>
   </g>
   <g id="patch_9">
    <path d="M 324.386563 157.934165 
L 324.386563 24.119531 
" style="fill: none; stroke: #262626; stroke-width: 1.25; stroke-linejoin: miter; stroke-linecap: square"/>
   </g>
   <g id="patch_10">
    <path d="M 190.571928 157.934165 
L 324.386563 157.934165 
" style="fill: none; stroke: #262626; stroke-width: 1.25; stroke-linejoin: miter; stroke-linecap: square"/>
   </g>
   <g id="patch_11">
    <path d="M 190.571928 24.119531 
L 324.386563 24.119531 
" style="fill: none; stroke: #262626; stroke-width: 1.25; stroke-linejoin: miter; stroke-linecap: square"/>
   </g>
   <g id="text_19">
    <!-- Peoria -->
    <g style="fill: #262626" transform="translate(235.80073 18.119531)scale(0.15 -0.15)">
     <use xlink:href="#ArialMT-50"/>
     <use xlink:href="#ArialMT-65" x="66.699219"/>
     <use xlink:href="#ArialMT-6f" x="122.314453"/>
     <use xlink:href="#ArialMT-72" x="177.929688"/>
     <use xlink:href="#ArialMT-69" x="211.230469"/>
     <use xlink:href="#ArialMT-61" x="233.447266"/>
    </g>
   </g>
  </g>
  <g id="legend_1">
   <g id="patch_12">
    <path d="M 339.779687 157.772708 
L 422.066562 157.772708 
Q 424.266562 157.772708 424.266562 155.572708 
L 424.266562 46.83927 
Q 424.266562 44.63927 422.066562 44.63927 
L 339.779687 44.63927 
Q 337.579687 44.63927 337.579687 46.83927 
L 337.579687 155.572708 
Q 337.579687 157.772708 339.779687 157.772708 
z
" style="fill: #ffffff; opacity: 0.8; stroke: #cccccc; stroke-linejoin: miter"/>
   </g>
   <g id="text_20">
    <!-- Harvest Rate -->
    <g style="fill: #262626" transform="translate(345.912187 57.628645)scale(0.12 -0.12)">
     <defs>
      <path id="ArialMT-48" d="M 513 0 
L 513 4581 
L 1119 4581 
L 1119 2700 
L 3500 2700 
L 3500 4581 
L 4106 4581 
L 4106 0 
L 3500 0 
L 3500 2159 
L 1119 2159 
L 1119 0 
L 513 0 
z
" transform="scale(0.015625)"/>
      <path id="ArialMT-76" d="M 1344 0 
L 81 3319 
L 675 3319 
L 1388 1331 
Q 1503 1009 1600 663 
Q 1675 925 1809 1294 
L 2547 3319 
L 3125 3319 
L 1869 0 
L 1344 0 
z
" transform="scale(0.015625)"/>
      <path id="ArialMT-52" d="M 503 0 
L 503 4581 
L 2534 4581 
Q 3147 4581 3465 4457 
Q 3784 4334 3975 4021 
Q 4166 3709 4166 3331 
Q 4166 2844 3850 2509 
Q 3534 2175 2875 2084 
Q 3116 1969 3241 1856 
Q 3506 1613 3744 1247 
L 4541 0 
L 3778 0 
L 3172 953 
Q 2906 1366 2734 1584 
Q 2563 1803 2427 1890 
Q 2291 1978 2150 2013 
Q 2047 2034 1813 2034 
L 1109 2034 
L 1109 0 
L 503 0 
z
M 1109 2559 
L 2413 2559 
Q 2828 2559 3062 2645 
Q 3297 2731 3419 2920 
Q 3541 3109 3541 3331 
Q 3541 3656 3305 3865 
Q 3069 4075 2559 4075 
L 1109 4075 
L 1109 2559 
z
" transform="scale(0.015625)"/>
     </defs>
     <use xlink:href="#ArialMT-48"/>
     <use xlink:href="#ArialMT-61" x="72.216797"/>
     <use xlink:href="#ArialMT-72" x="127.832031"/>
     <use xlink:href="#ArialMT-76" x="161.132812"/>
     <use xlink:href="#ArialMT-65" x="211.132812"/>
     <use xlink:href="#ArialMT-73" x="266.748047"/>
     <use xlink:href="#ArialMT-74" x="316.748047"/>
     <use xlink:href="#ArialMT-20" x="344.53125"/>
     <use xlink:href="#ArialMT-52" x="372.314453"/>
     <use xlink:href="#ArialMT-61" x="444.53125"/>
     <use xlink:href="#ArialMT-74" x="500.146484"/>
     <use xlink:href="#ArialMT-65" x="527.929688"/>
    </g>
   </g>
   <g id="line2d_13">
    <path d="M 341.979687 69.537239 
L 352.979687 69.537239 
L 363.979687 69.537239 
" style="fill: none; stroke-dasharray: 1.5,2.475; stroke-dashoffset: 0; stroke: #000000; stroke-width: 1.5"/>
   </g>
   <g id="text_21">
    <!-- 0%/0% -->
    <g style="fill: #262626" transform="translate(372.779687 73.387239)scale(0.11 -0.11)">
     <defs>
      <path id="ArialMT-25" d="M 372 3481 
Q 372 3972 619 4315 
Q 866 4659 1334 4659 
Q 1766 4659 2048 4351 
Q 2331 4044 2331 3447 
Q 2331 2866 2045 2552 
Q 1759 2238 1341 2238 
Q 925 2238 648 2547 
Q 372 2856 372 3481 
z
M 1350 4272 
Q 1141 4272 1002 4090 
Q 863 3909 863 3425 
Q 863 2984 1003 2804 
Q 1144 2625 1350 2625 
Q 1563 2625 1702 2806 
Q 1841 2988 1841 3469 
Q 1841 3913 1700 4092 
Q 1559 4272 1350 4272 
z
M 1353 -169 
L 3859 4659 
L 4316 4659 
L 1819 -169 
L 1353 -169 
z
M 3334 1075 
Q 3334 1569 3581 1911 
Q 3828 2253 4300 2253 
Q 4731 2253 5014 1945 
Q 5297 1638 5297 1041 
Q 5297 459 5011 145 
Q 4725 -169 4303 -169 
Q 3888 -169 3611 142 
Q 3334 453 3334 1075 
z
M 4316 1866 
Q 4103 1866 3964 1684 
Q 3825 1503 3825 1019 
Q 3825 581 3965 400 
Q 4106 219 4313 219 
Q 4528 219 4667 400 
Q 4806 581 4806 1063 
Q 4806 1506 4665 1686 
Q 4525 1866 4316 1866 
z
" transform="scale(0.015625)"/>
      <path id="ArialMT-2f" d="M 0 -78 
L 1328 4659 
L 1778 4659 
L 453 -78 
L 0 -78 
z
" transform="scale(0.015625)"/>
     </defs>
     <use xlink:href="#ArialMT-30"/>
     <use xlink:href="#ArialMT-25" x="55.615234"/>
     <use xlink:href="#ArialMT-2f" x="144.53125"/>
     <use xlink:href="#ArialMT-30" x="172.314453"/>
     <use xlink:href="#ArialMT-25" x="227.929688"/>
    </g>
   </g>
   <g id="line2d_14">
    <path d="M 341.979687 85.097083 
L 352.979687 85.097083 
L 363.979687 85.097083 
" style="fill: none; stroke: #482475; stroke-width: 1.5; stroke-linecap: round"/>
   </g>
   <g id="text_22">
    <!-- 40%/0% -->
    <g style="fill: #262626" transform="translate(372.779687 88.947083)scale(0.11 -0.11)">
     <use xlink:href="#ArialMT-34"/>
     <use xlink:href="#ArialMT-30" x="55.615234"/>
     <use xlink:href="#ArialMT-25" x="111.230469"/>
     <use xlink:href="#ArialMT-2f" x="200.146484"/>
     <use xlink:href="#ArialMT-30" x="227.929688"/>
     <use xlink:href="#ArialMT-25" x="283.544922"/>
    </g>
   </g>
   <g id="line2d_15">
    <path d="M 341.979687 100.656926 
L 352.979687 100.656926 
L 363.979687 100.656926 
" style="fill: none; stroke: #355f8d; stroke-width: 1.5; stroke-linecap: round"/>
   </g>
   <g id="text_23">
    <!-- 40%/10% -->
    <g style="fill: #262626" transform="translate(372.779687 104.506926)scale(0.11 -0.11)">
     <use xlink:href="#ArialMT-34"/>
     <use xlink:href="#ArialMT-30" x="55.615234"/>
     <use xlink:href="#ArialMT-25" x="111.230469"/>
     <use xlink:href="#ArialMT-2f" x="200.146484"/>
     <use xlink:href="#ArialMT-31" x="227.929688"/>
     <use xlink:href="#ArialMT-30" x="283.544922"/>
     <use xlink:href="#ArialMT-25" x="339.160156"/>
    </g>
   </g>
   <g id="line2d_16">
    <path d="M 341.979687 116.21677 
L 352.979687 116.21677 
L 363.979687 116.21677 
" style="fill: none; stroke: #21918c; stroke-width: 1.5; stroke-linecap: round"/>
   </g>
   <g id="text_24">
    <!-- 40%/20% -->
    <g style="fill: #262626" transform="translate(372.779687 120.06677)scale(0.11 -0.11)">
     <use xlink:href="#ArialMT-34"/>
     <use xlink:href="#ArialMT-30" x="55.615234"/>
     <use xlink:href="#ArialMT-25" x="111.230469"/>
     <use xlink:href="#ArialMT-2f" x="200.146484"/>
     <use xlink:href="#ArialMT-32" x="227.929688"/>
     <use xlink:href="#ArialMT-30" x="283.544922"/>
     <use xlink:href="#ArialMT-25" x="339.160156"/>
    </g>
   </g>
   <g id="line2d_17">
    <path d="M 341.979687 131.776614 
L 352.979687 131.776614 
L 363.979687 131.776614 
" style="fill: none; stroke: #44bf70; stroke-width: 1.5; stroke-linecap: round"/>
   </g>
   <g id="text_25">
    <!-- 40%/30% -->
    <g style="fill: #262626" transform="translate(372.779687 135.626614)scale(0.11 -0.11)">
     <defs>
      <path id="ArialMT-33" d="M 269 1209 
L 831 1284 
Q 928 806 1161 595 
Q 1394 384 1728 384 
Q 2125 384 2398 659 
Q 2672 934 2672 1341 
Q 2672 1728 2419 1979 
Q 2166 2231 1775 2231 
Q 1616 2231 1378 2169 
L 1441 2663 
Q 1497 2656 1531 2656 
Q 1891 2656 2178 2843 
Q 2466 3031 2466 3422 
Q 2466 3731 2256 3934 
Q 2047 4138 1716 4138 
Q 1388 4138 1169 3931 
Q 950 3725 888 3313 
L 325 3413 
Q 428 3978 793 4289 
Q 1159 4600 1703 4600 
Q 2078 4600 2393 4439 
Q 2709 4278 2876 4000 
Q 3044 3722 3044 3409 
Q 3044 3113 2884 2869 
Q 2725 2625 2413 2481 
Q 2819 2388 3044 2092 
Q 3269 1797 3269 1353 
Q 3269 753 2831 336 
Q 2394 -81 1725 -81 
Q 1122 -81 723 278 
Q 325 638 269 1209 
z
" transform="scale(0.015625)"/>
     </defs>
     <use xlink:href="#ArialMT-34"/>
     <use xlink:href="#ArialMT-30" x="55.615234"/>
     <use xlink:href="#ArialMT-25" x="111.230469"/>
     <use xlink:href="#ArialMT-2f" x="200.146484"/>
     <use xlink:href="#ArialMT-33" x="227.929688"/>
     <use xlink:href="#ArialMT-30" x="283.544922"/>
     <use xlink:href="#ArialMT-25" x="339.160156"/>
    </g>
   </g>
   <g id="line2d_18">
    <path d="M 341.979687 147.336458 
L 352.979687 147.336458 
L 363.979687 147.336458 
" style="fill: none; stroke: #bddf26; stroke-width: 1.5; stroke-linecap: round"/>
   </g>
   <g id="text_26">
    <!-- 40%/40% -->
    <g style="fill: #262626" transform="translate(372.779687 151.186458)scale(0.11 -0.11)">
     <use xlink:href="#ArialMT-34"/>
     <use xlink:href="#ArialMT-30" x="55.615234"/>
     <use xlink:href="#ArialMT-25" x="111.230469"/>
     <use xlink:href="#ArialMT-2f" x="200.146484"/>
     <use xlink:href="#ArialMT-34" x="227.929688"/>
     <use xlink:href="#ArialMT-30" x="283.544922"/>
     <use xlink:href="#ArialMT-25" x="339.160156"/>
    </g>
   </g>
  </g>
 </g>
 <defs>
  <clipPath id="pfc16678572">
   <rect x="50.066563" y="24.119531" width="133.814634" height="133.814634"/>
  </clipPath>
  <clipPath id="p2775da3c8c">
   <rect x="190.571928" y="24.119531" width="133.814634" height="133.814634"/>
  </clipPath>
 </defs>
</svg>
