<?xml version="1.0" encoding="utf-8" standalone="no"?>
<!DOCTYPE svg PUBLIC "-//W3C//DTD SVG 1.1//EN"
  "http://www.w3.org/Graphics/SVG/1.1/DTD/svg11.dtd">
<svg xmlns:xlink="http://www.w3.org/1999/xlink" width="423.766562pt" height="232.82513pt" viewBox="0 0 423.766562 232.82513" xmlns="http://www.w3.org/2000/svg" version="1.1">
 <metadata>
  <rdf:RDF xmlns:dc="http://purl.org/dc/elements/1.1/" xmlns:cc="http://creativecommons.org/ns#" xmlns:rdf="http://www.w3.org/1999/02/22-rdf-syntax-ns#">
   <cc:Work>
    <dc:type rdf:resource="http://purl.org/dc/dcmitype/StillImage"/>
    <dc:date>2022-10-12T14:37:23.811406</dc:date>
    <dc:format>image/svg+xml</dc:format>
    <dc:creator>
     <cc:Agent>
      <dc:title>Matplotlib v3.5.1, https://matplotlib.org/</dc:title>
     </cc:Agent>
    </dc:creator>
   </cc:Work>
  </rdf:RDF>
 </metadata>
 <defs>
  <style type="text/css">*{stroke-linejoin: round; stroke-linecap: butt}</style>
 </defs>
 <g id="figure_1">
  <g id="patch_1">
   <path d="M 0 232.82513 
L 423.766562 232.82513 
L 423.766562 0 
L 0 0 
z
" style="fill: #ffffff"/>
  </g>
  <g id="axes_1">
   <g id="patch_2">
    <path d="M 44.066563 194.347317 
L 177.881197 194.347317 
L 177.881197 60.532683 
L 44.066563 60.532683 
z
" style="fill: #ffffff"/>
   </g>
   <g id="matplotlib.axis_1">
    <g id="xtick_1">
     <g id="line2d_1">
      <path d="M 50.149046 194.347317 
L 50.149046 60.532683 
" clip-path="url(#p39c1c2e8e3)" style="fill: none; stroke: #cccccc; stroke-linecap: round"/>
     </g>
     <g id="text_1">
      <!-- 0 -->
      <g style="fill: #262626" transform="translate(47.09053 205.720911)scale(0.11 -0.11)">
       <defs>
        <path id="ArialMT-30" d="M 266 2259 
Q 266 3072 433 3567 
Q 600 4063 929 4331 
Q 1259 4600 1759 4600 
Q 2128 4600 2406 4451 
Q 2684 4303 2865 4023 
Q 3047 3744 3150 3342 
Q 3253 2941 3253 2259 
Q 3253 1453 3087 958 
Q 2922 463 2592 192 
Q 2263 -78 1759 -78 
Q 1097 -78 719 397 
Q 266 969 266 2259 
z
M 844 2259 
Q 844 1131 1108 757 
Q 1372 384 1759 384 
Q 2147 384 2411 759 
Q 2675 1134 2675 2259 
Q 2675 3391 2411 3762 
Q 2147 4134 1753 4134 
Q 1366 4134 1134 3806 
Q 844 3388 844 2259 
z
" transform="scale(0.015625)"/>
       </defs>
       <use xlink:href="#ArialMT-30"/>
      </g>
     </g>
    </g>
    <g id="xtick_2">
     <g id="line2d_2">
      <path d="M 91.246906 194.347317 
L 91.246906 60.532683 
" clip-path="url(#p39c1c2e8e3)" style="fill: none; stroke: #cccccc; stroke-linecap: round"/>
     </g>
     <g id="text_2">
      <!-- 25 -->
      <g style="fill: #262626" transform="translate(85.129875 205.720911)scale(0.11 -0.11)">
       <defs>
        <path id="ArialMT-32" d="M 3222 541 
L 3222 0 
L 194 0 
Q 188 203 259 391 
Q 375 700 629 1000 
Q 884 1300 1366 1694 
Q 2113 2306 2375 2664 
Q 2638 3022 2638 3341 
Q 2638 3675 2398 3904 
Q 2159 4134 1775 4134 
Q 1369 4134 1125 3890 
Q 881 3647 878 3216 
L 300 3275 
Q 359 3922 746 4261 
Q 1134 4600 1788 4600 
Q 2447 4600 2831 4234 
Q 3216 3869 3216 3328 
Q 3216 3053 3103 2787 
Q 2991 2522 2730 2228 
Q 2469 1934 1863 1422 
Q 1356 997 1212 845 
Q 1069 694 975 541 
L 3222 541 
z
" transform="scale(0.015625)"/>
        <path id="ArialMT-35" d="M 266 1200 
L 856 1250 
Q 922 819 1161 601 
Q 1400 384 1738 384 
Q 2144 384 2425 690 
Q 2706 997 2706 1503 
Q 2706 1984 2436 2262 
Q 2166 2541 1728 2541 
Q 1456 2541 1237 2417 
Q 1019 2294 894 2097 
L 366 2166 
L 809 4519 
L 3088 4519 
L 3088 3981 
L 1259 3981 
L 1013 2750 
Q 1425 3038 1878 3038 
Q 2478 3038 2890 2622 
Q 3303 2206 3303 1553 
Q 3303 931 2941 478 
Q 2500 -78 1738 -78 
Q 1113 -78 717 272 
Q 322 622 266 1200 
z
" transform="scale(0.015625)"/>
       </defs>
       <use xlink:href="#ArialMT-32"/>
       <use xlink:href="#ArialMT-35" x="55.615234"/>
      </g>
     </g>
    </g>
    <g id="xtick_3">
     <g id="line2d_3">
      <path d="M 132.344767 194.347317 
L 132.344767 60.532683 
" clip-path="url(#p39c1c2e8e3)" style="fill: none; stroke: #cccccc; stroke-linecap: round"/>
     </g>
     <g id="text_3">
      <!-- 50 -->
      <g style="fill: #262626" transform="translate(126.227736 205.720911)scale(0.11 -0.11)">
       <use xlink:href="#ArialMT-35"/>
       <use xlink:href="#ArialMT-30" x="55.615234"/>
      </g>
     </g>
    </g>
    <g id="xtick_4">
     <g id="line2d_4">
      <path d="M 173.442628 194.347317 
L 173.442628 60.532683 
" clip-path="url(#p39c1c2e8e3)" style="fill: none; stroke: #cccccc; stroke-linecap: round"/>
     </g>
     <g id="text_4">
      <!-- 75 -->
      <g style="fill: #262626" transform="translate(167.325596 205.720911)scale(0.11 -0.11)">
       <defs>
        <path id="ArialMT-37" d="M 303 3981 
L 303 4522 
L 3269 4522 
L 3269 4084 
Q 2831 3619 2401 2847 
Q 1972 2075 1738 1259 
Q 1569 684 1522 0 
L 944 0 
Q 953 541 1156 1306 
Q 1359 2072 1739 2783 
Q 2119 3494 2547 3981 
L 303 3981 
z
" transform="scale(0.015625)"/>
       </defs>
       <use xlink:href="#ArialMT-37"/>
       <use xlink:href="#ArialMT-35" x="55.615234"/>
      </g>
     </g>
    </g>
    <g id="text_5">
     <!-- Years -->
     <g style="fill: #262626" transform="translate(92.066848 222.64388)scale(0.15 -0.15)">
      <defs>
       <path id="ArialMT-59" d="M 1784 0 
L 1784 1941 
L 19 4581 
L 756 4581 
L 1659 3200 
Q 1909 2813 2125 2425 
Q 2331 2784 2625 3234 
L 3513 4581 
L 4219 4581 
L 2391 1941 
L 2391 0 
L 1784 0 
z
" transform="scale(0.015625)"/>
       <path id="ArialMT-65" d="M 2694 1069 
L 3275 997 
Q 3138 488 2766 206 
Q 2394 -75 1816 -75 
Q 1088 -75 661 373 
Q 234 822 234 1631 
Q 234 2469 665 2931 
Q 1097 3394 1784 3394 
Q 2450 3394 2872 2941 
Q 3294 2488 3294 1666 
Q 3294 1616 3291 1516 
L 816 1516 
Q 847 969 1125 678 
Q 1403 388 1819 388 
Q 2128 388 2347 550 
Q 2566 713 2694 1069 
z
M 847 1978 
L 2700 1978 
Q 2663 2397 2488 2606 
Q 2219 2931 1791 2931 
Q 1403 2931 1139 2672 
Q 875 2413 847 1978 
z
" transform="scale(0.015625)"/>
       <path id="ArialMT-61" d="M 2588 409 
Q 2275 144 1986 34 
Q 1697 -75 1366 -75 
Q 819 -75 525 192 
Q 231 459 231 875 
Q 231 1119 342 1320 
Q 453 1522 633 1644 
Q 813 1766 1038 1828 
Q 1203 1872 1538 1913 
Q 2219 1994 2541 2106 
Q 2544 2222 2544 2253 
Q 2544 2597 2384 2738 
Q 2169 2928 1744 2928 
Q 1347 2928 1158 2789 
Q 969 2650 878 2297 
L 328 2372 
Q 403 2725 575 2942 
Q 747 3159 1072 3276 
Q 1397 3394 1825 3394 
Q 2250 3394 2515 3294 
Q 2781 3194 2906 3042 
Q 3031 2891 3081 2659 
Q 3109 2516 3109 2141 
L 3109 1391 
Q 3109 606 3145 398 
Q 3181 191 3288 0 
L 2700 0 
Q 2613 175 2588 409 
z
M 2541 1666 
Q 2234 1541 1622 1453 
Q 1275 1403 1131 1340 
Q 988 1278 909 1158 
Q 831 1038 831 891 
Q 831 666 1001 516 
Q 1172 366 1500 366 
Q 1825 366 2078 508 
Q 2331 650 2450 897 
Q 2541 1088 2541 1459 
L 2541 1666 
z
" transform="scale(0.015625)"/>
       <path id="ArialMT-72" d="M 416 0 
L 416 3319 
L 922 3319 
L 922 2816 
Q 1116 3169 1280 3281 
Q 1444 3394 1641 3394 
Q 1925 3394 2219 3213 
L 2025 2691 
Q 1819 2813 1613 2813 
Q 1428 2813 1281 2702 
Q 1134 2591 1072 2394 
Q 978 2094 978 1738 
L 978 0 
L 416 0 
z
" transform="scale(0.015625)"/>
       <path id="ArialMT-73" d="M 197 991 
L 753 1078 
Q 800 744 1014 566 
Q 1228 388 1613 388 
Q 2000 388 2187 545 
Q 2375 703 2375 916 
Q 2375 1106 2209 1216 
Q 2094 1291 1634 1406 
Q 1016 1563 777 1677 
Q 538 1791 414 1992 
Q 291 2194 291 2438 
Q 291 2659 392 2848 
Q 494 3038 669 3163 
Q 800 3259 1026 3326 
Q 1253 3394 1513 3394 
Q 1903 3394 2198 3281 
Q 2494 3169 2634 2976 
Q 2775 2784 2828 2463 
L 2278 2388 
Q 2241 2644 2061 2787 
Q 1881 2931 1553 2931 
Q 1166 2931 1000 2803 
Q 834 2675 834 2503 
Q 834 2394 903 2306 
Q 972 2216 1119 2156 
Q 1203 2125 1616 2013 
Q 2213 1853 2448 1751 
Q 2684 1650 2818 1456 
Q 2953 1263 2953 975 
Q 2953 694 2789 445 
Q 2625 197 2315 61 
Q 2006 -75 1616 -75 
Q 969 -75 630 194 
Q 291 463 197 991 
z
" transform="scale(0.015625)"/>
      </defs>
      <use xlink:href="#ArialMT-59"/>
      <use xlink:href="#ArialMT-65" x="57.574219"/>
      <use xlink:href="#ArialMT-61" x="113.189453"/>
      <use xlink:href="#ArialMT-72" x="168.804688"/>
      <use xlink:href="#ArialMT-73" x="202.105469"/>
     </g>
    </g>
   </g>
   <g id="matplotlib.axis_2">
    <g id="ytick_1">
     <g id="line2d_5">
      <path d="M 44.066563 194.347317 
L 177.881197 194.347317 
" clip-path="url(#p39c1c2e8e3)" style="fill: none; stroke: #cccccc; stroke-linecap: round"/>
     </g>
     <g id="text_6">
      <!-- 0.0 -->
      <g style="fill: #262626" transform="translate(25.276563 198.284114)scale(0.11 -0.11)">
       <defs>
        <path id="ArialMT-2e" d="M 581 0 
L 581 641 
L 1222 641 
L 1222 0 
L 581 0 
z
" transform="scale(0.015625)"/>
       </defs>
       <use xlink:href="#ArialMT-30"/>
       <use xlink:href="#ArialMT-2e" x="55.615234"/>
       <use xlink:href="#ArialMT-30" x="83.398438"/>
      </g>
     </g>
    </g>
    <g id="ytick_2">
     <g id="line2d_6">
      <path d="M 44.066563 167.58439 
L 177.881197 167.58439 
" clip-path="url(#p39c1c2e8e3)" style="fill: none; stroke: #cccccc; stroke-linecap: round"/>
     </g>
     <g id="text_7">
      <!-- 0.2 -->
      <g style="fill: #262626" transform="translate(25.276563 171.521187)scale(0.11 -0.11)">
       <use xlink:href="#ArialMT-30"/>
       <use xlink:href="#ArialMT-2e" x="55.615234"/>
       <use xlink:href="#ArialMT-32" x="83.398438"/>
      </g>
     </g>
    </g>
    <g id="ytick_3">
     <g id="line2d_7">
      <path d="M 44.066563 140.821463 
L 177.881197 140.821463 
" clip-path="url(#p39c1c2e8e3)" style="fill: none; stroke: #cccccc; stroke-linecap: round"/>
     </g>
     <g id="text_8">
      <!-- 0.4 -->
      <g style="fill: #262626" transform="translate(25.276563 144.75826)scale(0.11 -0.11)">
       <defs>
        <path id="ArialMT-34" d="M 2069 0 
L 2069 1097 
L 81 1097 
L 81 1613 
L 2172 4581 
L 2631 4581 
L 2631 1613 
L 3250 1613 
L 3250 1097 
L 2631 1097 
L 2631 0 
L 2069 0 
z
M 2069 1613 
L 2069 3678 
L 634 1613 
L 2069 1613 
z
" transform="scale(0.015625)"/>
       </defs>
       <use xlink:href="#ArialMT-30"/>
       <use xlink:href="#ArialMT-2e" x="55.615234"/>
       <use xlink:href="#ArialMT-34" x="83.398438"/>
      </g>
     </g>
    </g>
    <g id="ytick_4">
     <g id="line2d_8">
      <path d="M 44.066563 114.058537 
L 177.881197 114.058537 
" clip-path="url(#p39c1c2e8e3)" style="fill: none; stroke: #cccccc; stroke-linecap: round"/>
     </g>
     <g id="text_9">
      <!-- 0.6 -->
      <g style="fill: #262626" transform="translate(25.276563 117.995333)scale(0.11 -0.11)">
       <defs>
        <path id="ArialMT-36" d="M 3184 3459 
L 2625 3416 
Q 2550 3747 2413 3897 
Q 2184 4138 1850 4138 
Q 1581 4138 1378 3988 
Q 1113 3794 959 3422 
Q 806 3050 800 2363 
Q 1003 2672 1297 2822 
Q 1591 2972 1913 2972 
Q 2475 2972 2870 2558 
Q 3266 2144 3266 1488 
Q 3266 1056 3080 686 
Q 2894 316 2569 119 
Q 2244 -78 1831 -78 
Q 1128 -78 684 439 
Q 241 956 241 2144 
Q 241 3472 731 4075 
Q 1159 4600 1884 4600 
Q 2425 4600 2770 4297 
Q 3116 3994 3184 3459 
z
M 888 1484 
Q 888 1194 1011 928 
Q 1134 663 1356 523 
Q 1578 384 1822 384 
Q 2178 384 2434 671 
Q 2691 959 2691 1453 
Q 2691 1928 2437 2201 
Q 2184 2475 1800 2475 
Q 1419 2475 1153 2201 
Q 888 1928 888 1484 
z
" transform="scale(0.015625)"/>
       </defs>
       <use xlink:href="#ArialMT-30"/>
       <use xlink:href="#ArialMT-2e" x="55.615234"/>
       <use xlink:href="#ArialMT-36" x="83.398438"/>
      </g>
     </g>
    </g>
    <g id="ytick_5">
     <g id="line2d_9">
      <path d="M 44.066563 87.29561 
L 177.881197 87.29561 
" clip-path="url(#p39c1c2e8e3)" style="fill: none; stroke: #cccccc; stroke-linecap: round"/>
     </g>
     <g id="text_10">
      <!-- 0.8 -->
      <g style="fill: #262626" transform="translate(25.276563 91.232407)scale(0.11 -0.11)">
       <defs>
        <path id="ArialMT-38" d="M 1131 2484 
Q 781 2613 612 2850 
Q 444 3088 444 3419 
Q 444 3919 803 4259 
Q 1163 4600 1759 4600 
Q 2359 4600 2725 4251 
Q 3091 3903 3091 3403 
Q 3091 3084 2923 2848 
Q 2756 2613 2416 2484 
Q 2838 2347 3058 2040 
Q 3278 1734 3278 1309 
Q 3278 722 2862 322 
Q 2447 -78 1769 -78 
Q 1091 -78 675 323 
Q 259 725 259 1325 
Q 259 1772 486 2073 
Q 713 2375 1131 2484 
z
M 1019 3438 
Q 1019 3113 1228 2906 
Q 1438 2700 1772 2700 
Q 2097 2700 2305 2904 
Q 2513 3109 2513 3406 
Q 2513 3716 2298 3927 
Q 2084 4138 1766 4138 
Q 1444 4138 1231 3931 
Q 1019 3725 1019 3438 
z
M 838 1322 
Q 838 1081 952 856 
Q 1066 631 1291 507 
Q 1516 384 1775 384 
Q 2178 384 2440 643 
Q 2703 903 2703 1303 
Q 2703 1709 2433 1975 
Q 2163 2241 1756 2241 
Q 1359 2241 1098 1978 
Q 838 1716 838 1322 
z
" transform="scale(0.015625)"/>
       </defs>
       <use xlink:href="#ArialMT-30"/>
       <use xlink:href="#ArialMT-2e" x="55.615234"/>
       <use xlink:href="#ArialMT-38" x="83.398438"/>
      </g>
     </g>
    </g>
    <g id="ytick_6">
     <g id="line2d_10">
      <path d="M 44.066563 60.532683 
L 177.881197 60.532683 
" clip-path="url(#p39c1c2e8e3)" style="fill: none; stroke: #cccccc; stroke-linecap: round"/>
     </g>
     <g id="text_11">
      <!-- 1.0 -->
      <g style="fill: #262626" transform="translate(25.276563 64.46948)scale(0.11 -0.11)">
       <defs>
        <path id="ArialMT-31" d="M 2384 0 
L 1822 0 
L 1822 3584 
Q 1619 3391 1289 3197 
Q 959 3003 697 2906 
L 697 3450 
Q 1169 3672 1522 3987 
Q 1875 4303 2022 4600 
L 2384 4600 
L 2384 0 
z
" transform="scale(0.015625)"/>
       </defs>
       <use xlink:href="#ArialMT-31"/>
       <use xlink:href="#ArialMT-2e" x="55.615234"/>
       <use xlink:href="#ArialMT-30" x="83.398438"/>
      </g>
     </g>
    </g>
    <g id="text_12">
     <!-- Population (millions) -->
     <g style="fill: #262626" transform="translate(18.119531 194.965781)rotate(-90)scale(0.15 -0.15)">
      <defs>
       <path id="ArialMT-50" d="M 494 0 
L 494 4581 
L 2222 4581 
Q 2678 4581 2919 4538 
Q 3256 4481 3484 4323 
Q 3713 4166 3852 3881 
Q 3991 3597 3991 3256 
Q 3991 2672 3619 2267 
Q 3247 1863 2275 1863 
L 1100 1863 
L 1100 0 
L 494 0 
z
M 1100 2403 
L 2284 2403 
Q 2872 2403 3119 2622 
Q 3366 2841 3366 3238 
Q 3366 3525 3220 3729 
Q 3075 3934 2838 4000 
Q 2684 4041 2272 4041 
L 1100 4041 
L 1100 2403 
z
" transform="scale(0.015625)"/>
       <path id="ArialMT-6f" d="M 213 1659 
Q 213 2581 725 3025 
Q 1153 3394 1769 3394 
Q 2453 3394 2887 2945 
Q 3322 2497 3322 1706 
Q 3322 1066 3130 698 
Q 2938 331 2570 128 
Q 2203 -75 1769 -75 
Q 1072 -75 642 372 
Q 213 819 213 1659 
z
M 791 1659 
Q 791 1022 1069 705 
Q 1347 388 1769 388 
Q 2188 388 2466 706 
Q 2744 1025 2744 1678 
Q 2744 2294 2464 2611 
Q 2184 2928 1769 2928 
Q 1347 2928 1069 2612 
Q 791 2297 791 1659 
z
" transform="scale(0.015625)"/>
       <path id="ArialMT-70" d="M 422 -1272 
L 422 3319 
L 934 3319 
L 934 2888 
Q 1116 3141 1344 3267 
Q 1572 3394 1897 3394 
Q 2322 3394 2647 3175 
Q 2972 2956 3137 2557 
Q 3303 2159 3303 1684 
Q 3303 1175 3120 767 
Q 2938 359 2589 142 
Q 2241 -75 1856 -75 
Q 1575 -75 1351 44 
Q 1128 163 984 344 
L 984 -1272 
L 422 -1272 
z
M 931 1641 
Q 931 1000 1190 694 
Q 1450 388 1819 388 
Q 2194 388 2461 705 
Q 2728 1022 2728 1688 
Q 2728 2322 2467 2637 
Q 2206 2953 1844 2953 
Q 1484 2953 1207 2617 
Q 931 2281 931 1641 
z
" transform="scale(0.015625)"/>
       <path id="ArialMT-75" d="M 2597 0 
L 2597 488 
Q 2209 -75 1544 -75 
Q 1250 -75 995 37 
Q 741 150 617 320 
Q 494 491 444 738 
Q 409 903 409 1263 
L 409 3319 
L 972 3319 
L 972 1478 
Q 972 1038 1006 884 
Q 1059 663 1231 536 
Q 1403 409 1656 409 
Q 1909 409 2131 539 
Q 2353 669 2445 892 
Q 2538 1116 2538 1541 
L 2538 3319 
L 3100 3319 
L 3100 0 
L 2597 0 
z
" transform="scale(0.015625)"/>
       <path id="ArialMT-6c" d="M 409 0 
L 409 4581 
L 972 4581 
L 972 0 
L 409 0 
z
" transform="scale(0.015625)"/>
       <path id="ArialMT-74" d="M 1650 503 
L 1731 6 
Q 1494 -44 1306 -44 
Q 1000 -44 831 53 
Q 663 150 594 308 
Q 525 466 525 972 
L 525 2881 
L 113 2881 
L 113 3319 
L 525 3319 
L 525 4141 
L 1084 4478 
L 1084 3319 
L 1650 3319 
L 1650 2881 
L 1084 2881 
L 1084 941 
Q 1084 700 1114 631 
Q 1144 563 1211 522 
Q 1278 481 1403 481 
Q 1497 481 1650 503 
z
" transform="scale(0.015625)"/>
       <path id="ArialMT-69" d="M 425 3934 
L 425 4581 
L 988 4581 
L 988 3934 
L 425 3934 
z
M 425 0 
L 425 3319 
L 988 3319 
L 988 0 
L 425 0 
z
" transform="scale(0.015625)"/>
       <path id="ArialMT-6e" d="M 422 0 
L 422 3319 
L 928 3319 
L 928 2847 
Q 1294 3394 1984 3394 
Q 2284 3394 2536 3286 
Q 2788 3178 2913 3003 
Q 3038 2828 3088 2588 
Q 3119 2431 3119 2041 
L 3119 0 
L 2556 0 
L 2556 2019 
Q 2556 2363 2490 2533 
Q 2425 2703 2258 2804 
Q 2091 2906 1866 2906 
Q 1506 2906 1245 2678 
Q 984 2450 984 1813 
L 984 0 
L 422 0 
z
" transform="scale(0.015625)"/>
       <path id="ArialMT-20" transform="scale(0.015625)"/>
       <path id="ArialMT-28" d="M 1497 -1347 
Q 1031 -759 709 28 
Q 388 816 388 1659 
Q 388 2403 628 3084 
Q 909 3875 1497 4659 
L 1900 4659 
Q 1522 4009 1400 3731 
Q 1209 3300 1100 2831 
Q 966 2247 966 1656 
Q 966 153 1900 -1347 
L 1497 -1347 
z
" transform="scale(0.015625)"/>
       <path id="ArialMT-6d" d="M 422 0 
L 422 3319 
L 925 3319 
L 925 2853 
Q 1081 3097 1340 3245 
Q 1600 3394 1931 3394 
Q 2300 3394 2536 3241 
Q 2772 3088 2869 2813 
Q 3263 3394 3894 3394 
Q 4388 3394 4653 3120 
Q 4919 2847 4919 2278 
L 4919 0 
L 4359 0 
L 4359 2091 
Q 4359 2428 4304 2576 
Q 4250 2725 4106 2815 
Q 3963 2906 3769 2906 
Q 3419 2906 3187 2673 
Q 2956 2441 2956 1928 
L 2956 0 
L 2394 0 
L 2394 2156 
Q 2394 2531 2256 2718 
Q 2119 2906 1806 2906 
Q 1569 2906 1367 2781 
Q 1166 2656 1075 2415 
Q 984 2175 984 1722 
L 984 0 
L 422 0 
z
" transform="scale(0.015625)"/>
       <path id="ArialMT-29" d="M 791 -1347 
L 388 -1347 
Q 1322 153 1322 1656 
Q 1322 2244 1188 2822 
Q 1081 3291 891 3722 
Q 769 4003 388 4659 
L 791 4659 
Q 1378 3875 1659 3084 
Q 1900 2403 1900 1659 
Q 1900 816 1576 28 
Q 1253 -759 791 -1347 
z
" transform="scale(0.015625)"/>
      </defs>
      <use xlink:href="#ArialMT-50"/>
      <use xlink:href="#ArialMT-6f" x="66.699219"/>
      <use xlink:href="#ArialMT-70" x="122.314453"/>
      <use xlink:href="#ArialMT-75" x="177.929688"/>
      <use xlink:href="#ArialMT-6c" x="233.544922"/>
      <use xlink:href="#ArialMT-61" x="255.761719"/>
      <use xlink:href="#ArialMT-74" x="311.376953"/>
      <use xlink:href="#ArialMT-69" x="339.160156"/>
      <use xlink:href="#ArialMT-6f" x="361.376953"/>
      <use xlink:href="#ArialMT-6e" x="416.992188"/>
      <use xlink:href="#ArialMT-20" x="472.607422"/>
      <use xlink:href="#ArialMT-28" x="500.390625"/>
      <use xlink:href="#ArialMT-6d" x="533.691406"/>
      <use xlink:href="#ArialMT-69" x="616.992188"/>
      <use xlink:href="#ArialMT-6c" x="639.208984"/>
      <use xlink:href="#ArialMT-6c" x="661.425781"/>
      <use xlink:href="#ArialMT-69" x="683.642578"/>
      <use xlink:href="#ArialMT-6f" x="705.859375"/>
      <use xlink:href="#ArialMT-6e" x="761.474609"/>
      <use xlink:href="#ArialMT-73" x="817.089844"/>
      <use xlink:href="#ArialMT-29" x="867.089844"/>
     </g>
    </g>
   </g>
   <g id="line2d_11">
    <path d="M 50.149046 183.1845 
L 51.79296 183.23461 
L 53.436875 183.582764 
L 55.080789 183.074244 
L 56.724704 181.766031 
L 58.368618 180.81327 
L 60.012532 179.594951 
L 61.656447 177.811735 
L 63.300361 175.681705 
L 64.944276 173.335241 
L 66.58819 170.809667 
L 68.232105 168.199792 
L 69.876019 165.635813 
L 71.519933 163.235038 
L 73.163848 161.090189 
L 74.807762 159.261431 
L 76.451677 157.77073 
L 78.095591 156.605459 
L 79.739506 155.728653 
L 81.38342 155.091078 
L 83.027334 154.641496 
L 84.671249 154.333361 
L 86.315163 154.12801 
L 87.959078 153.995277 
L 89.602992 153.912674 
L 91.246906 153.863977 
L 92.890821 153.837764 
L 94.534735 153.826144 
L 96.17865 153.823747 
L 97.822564 153.826967 
L 99.466479 153.833417 
L 101.110393 153.841538 
L 102.754307 153.850334 
L 104.398222 153.859183 
L 106.042136 153.867712 
L 107.686051 153.875712 
L 109.329965 153.883081 
L 110.97388 153.88978 
L 112.617794 153.895817 
L 114.261708 153.901219 
L 115.905623 153.90603 
L 117.549537 153.910298 
L 119.193452 153.914073 
L 120.837366 153.917407 
L 122.481281 153.920344 
L 124.125195 153.922931 
L 125.769109 153.925205 
L 127.413024 153.927204 
L 129.056938 153.92896 
L 130.700853 153.930501 
L 132.344767 153.931854 
L 133.988682 153.933041 
L 135.632596 153.934082 
L 137.27651 153.934995 
L 138.920425 153.935797 
L 140.564339 153.936499 
L 142.208254 153.937115 
L 143.852168 153.937655 
L 145.496082 153.938129 
L 147.139997 153.938544 
L 148.783911 153.938908 
L 150.427826 153.939228 
L 152.07174 153.939508 
L 153.715655 153.939753 
L 155.359569 153.939968 
L 157.003483 153.940157 
L 158.647398 153.940322 
L 160.291312 153.940467 
L 161.935227 153.940595 
L 163.579141 153.940706 
L 165.223056 153.940804 
L 166.86697 153.940889 
L 168.510884 153.940965 
L 170.154799 153.94103 
L 171.798713 153.941088 
" clip-path="url(#p39c1c2e8e3)" style="fill: none; stroke: #482475; stroke-width: 1.5; stroke-linecap: round"/>
   </g>
   <g id="line2d_12">
    <path d="M 50.149046 182.629839 
L 51.79296 182.682438 
L 53.436875 183.047891 
L 55.080789 182.787989 
L 56.724704 182.142019 
L 58.368618 181.888682 
L 60.012532 181.303119 
L 61.656447 180.222067 
L 63.300361 178.858421 
L 64.944276 177.299273 
L 66.58819 175.574371 
L 68.232105 173.763133 
L 69.876019 171.966687 
L 71.519933 170.275318 
L 73.163848 168.76123 
L 74.807762 167.471726 
L 76.451677 166.424985 
L 78.095591 165.613021 
L 79.739506 165.009386 
L 81.38342 164.578233 
L 83.027334 164.282057 
L 84.671249 164.086743 
L 86.315163 163.963976 
L 87.959078 163.891725 
L 89.602992 163.853631 
L 91.246906 163.837968 
L 92.890821 163.836553 
L 94.534735 163.8438 
L 96.17865 163.855971 
L 97.822564 163.870614 
L 99.466479 163.886156 
L 101.110393 163.901621 
L 102.754307 163.916427 
L 104.398222 163.930255 
L 106.042136 163.94295 
L 107.686051 163.954469 
L 109.329965 163.964831 
L 110.97388 163.974093 
L 112.617794 163.982333 
L 114.261708 163.989638 
L 115.905623 163.996098 
L 117.549537 164.001798 
L 119.193452 164.006821 
L 120.837366 164.011241 
L 122.481281 164.015127 
L 124.125195 164.018542 
L 125.769109 164.021541 
L 127.413024 164.024174 
L 129.056938 164.026484 
L 130.700853 164.028511 
L 132.344767 164.03029 
L 133.988682 164.031849 
L 135.632596 164.033217 
L 137.27651 164.034417 
L 138.920425 164.035469 
L 140.564339 164.036391 
L 142.208254 164.0372 
L 143.852168 164.037909 
L 145.496082 164.038531 
L 147.139997 164.039076 
L 148.783911 164.039554 
L 150.427826 164.039973 
L 152.07174 164.04034 
L 153.715655 164.040662 
L 155.359569 164.040945 
L 157.003483 164.041192 
L 158.647398 164.04141 
L 160.291312 164.0416 
L 161.935227 164.041767 
L 163.579141 164.041913 
L 165.223056 164.042041 
L 166.86697 164.042154 
L 168.510884 164.042252 
L 170.154799 164.042339 
L 171.798713 164.042414 
" clip-path="url(#p39c1c2e8e3)" style="fill: none; stroke: #355f8d; stroke-width: 1.5; stroke-linecap: round"/>
   </g>
   <g id="line2d_13">
    <path d="M 50.149046 182.075177 
L 51.79296 182.130266 
L 53.436875 182.513019 
L 55.080789 182.501735 
L 56.724704 182.518007 
L 58.368618 182.964094 
L 60.012532 183.011288 
L 61.656447 182.632399 
L 63.300361 182.035137 
L 64.944276 181.263305 
L 66.58819 180.339074 
L 68.232105 179.326475 
L 69.876019 178.29756 
L 71.519933 177.315597 
L 73.163848 176.432271 
L 74.807762 175.682021 
L 76.451677 175.079241 
L 78.095591 174.620583 
L 79.739506 174.290118 
L 81.38342 174.065388 
L 83.027334 173.922617 
L 84.671249 173.840124 
L 86.315163 173.799943 
L 87.959078 173.788173 
L 89.602992 173.794588 
L 91.246906 173.811959 
L 92.890821 173.835342 
L 94.534735 173.861456 
L 96.17865 173.888195 
L 97.822564 173.91426 
L 99.466479 173.938895 
L 101.110393 173.961704 
L 102.754307 173.982521 
L 104.398222 174.001326 
L 106.042136 174.018189 
L 107.686051 174.033227 
L 109.329965 174.046581 
L 110.97388 174.058405 
L 112.617794 174.068849 
L 114.261708 174.078058 
L 115.905623 174.086166 
L 117.549537 174.093299 
L 119.193452 174.099568 
L 120.837366 174.105074 
L 122.481281 174.109909 
L 124.125195 174.114153 
L 125.769109 174.117877 
L 127.413024 174.121143 
L 129.056938 174.124009 
L 130.700853 174.126522 
L 132.344767 174.128726 
L 133.988682 174.130658 
L 135.632596 174.132353 
L 137.27651 174.133838 
L 138.920425 174.135141 
L 140.564339 174.136283 
L 142.208254 174.137285 
L 143.852168 174.138163 
L 145.496082 174.138933 
L 147.139997 174.139608 
L 148.783911 174.140199 
L 150.427826 174.140718 
L 152.07174 174.141173 
L 153.715655 174.141572 
L 155.359569 174.141921 
L 157.003483 174.142228 
L 158.647398 174.142497 
L 160.291312 174.142732 
L 161.935227 174.142939 
L 163.579141 174.14312 
L 165.223056 174.143279 
L 166.86697 174.143418 
L 168.510884 174.14354 
L 170.154799 174.143647 
L 171.798713 174.143741 
" clip-path="url(#p39c1c2e8e3)" style="fill: none; stroke: #21918c; stroke-width: 1.5; stroke-linecap: round"/>
   </g>
   <g id="line2d_14">
    <path d="M 50.149046 181.520515 
L 51.79296 181.578094 
L 53.436875 181.978146 
L 55.080789 182.21548 
L 56.724704 182.893994 
L 58.368618 184.039506 
L 60.012532 184.719457 
L 61.656447 185.042732 
L 63.300361 185.211853 
L 64.944276 185.227337 
L 66.58819 185.103778 
L 68.232105 184.889816 
L 69.876019 184.628433 
L 71.519933 184.355876 
L 73.163848 184.103313 
L 74.807762 183.892316 
L 76.451677 183.733496 
L 78.095591 183.628145 
L 79.739506 183.570851 
L 81.38342 183.552543 
L 83.027334 183.563178 
L 84.671249 183.593505 
L 86.315163 183.63591 
L 87.959078 183.684621 
L 89.602992 183.735544 
L 91.246906 183.78595 
L 92.890821 183.834131 
L 94.534735 183.879112 
L 96.17865 183.92042 
L 97.822564 183.957907 
L 99.466479 183.991634 
L 101.110393 184.021786 
L 102.754307 184.048614 
L 104.398222 184.072398 
L 106.042136 184.093428 
L 107.686051 184.111984 
L 109.329965 184.128332 
L 110.97388 184.142717 
L 112.617794 184.155365 
L 114.261708 184.166477 
L 115.905623 184.176234 
L 117.549537 184.184799 
L 119.193452 184.192315 
L 120.837366 184.198908 
L 122.481281 184.204692 
L 124.125195 184.209764 
L 125.769109 184.214213 
L 127.413024 184.218113 
L 129.056938 184.221533 
L 130.700853 184.224532 
L 132.344767 184.227161 
L 133.988682 184.229467 
L 135.632596 184.231488 
L 137.27651 184.23326 
L 138.920425 184.234814 
L 140.564339 184.236176 
L 142.208254 184.23737 
L 143.852168 184.238417 
L 145.496082 184.239335 
L 147.139997 184.240139 
L 148.783911 184.240845 
L 150.427826 184.241463 
L 152.07174 184.242006 
L 153.715655 184.242481 
L 155.359569 184.242898 
L 157.003483 184.243263 
L 158.647398 184.243584 
L 160.291312 184.243865 
L 161.935227 184.244111 
L 163.579141 184.244327 
L 165.223056 184.244516 
L 166.86697 184.244682 
L 168.510884 184.244828 
L 170.154799 184.244955 
L 171.798713 184.245067 
" clip-path="url(#p39c1c2e8e3)" style="fill: none; stroke: #44bf70; stroke-width: 1.5; stroke-linecap: round"/>
   </g>
   <g id="line2d_15">
    <path d="M 50.149046 180.965854 
L 51.79296 181.025922 
L 53.436875 181.443273 
L 55.080789 181.929225 
L 56.724704 183.269982 
L 58.368618 185.114918 
L 60.012532 186.427625 
L 61.656447 187.453064 
L 63.300361 188.388569 
L 64.944276 189.191369 
L 66.58819 189.868482 
L 68.232105 190.453157 
L 69.876019 190.959307 
L 71.519933 191.396156 
L 73.163848 191.774354 
L 74.807762 192.10261 
L 76.451677 192.387751 
L 78.095591 192.635707 
L 79.739506 192.851584 
L 81.38342 193.039697 
L 83.027334 193.203739 
L 84.671249 193.346887 
L 86.315163 193.471877 
L 87.959078 193.581069 
L 89.602992 193.676501 
L 91.246906 193.759941 
L 92.890821 193.83292 
L 94.534735 193.896769 
L 96.17865 193.952644 
L 97.822564 194.001554 
L 99.466479 194.044374 
L 101.110393 194.081869 
L 102.754307 194.114707 
L 104.398222 194.14347 
L 106.042136 194.168666 
L 107.686051 194.190741 
L 109.329965 194.210082 
L 110.97388 194.22703 
L 112.617794 194.241881 
L 114.261708 194.254896 
L 115.905623 194.266303 
L 117.549537 194.2763 
L 119.193452 194.285062 
L 120.837366 194.292742 
L 122.481281 194.299474 
L 124.125195 194.305376 
L 125.769109 194.310548 
L 127.413024 194.315083 
L 129.056938 194.319058 
L 130.700853 194.322543 
L 132.344767 194.325597 
L 133.988682 194.328275 
L 135.632596 194.330623 
L 137.27651 194.332681 
L 138.920425 194.334486 
L 140.564339 194.336068 
L 142.208254 194.337455 
L 143.852168 194.33867 
L 145.496082 194.339736 
L 147.139997 194.340671 
L 148.783911 194.34149 
L 150.427826 194.342209 
L 152.07174 194.342838 
L 153.715655 194.34339 
L 155.359569 194.343874 
L 157.003483 194.344299 
L 158.647398 194.344671 
L 160.291312 194.344997 
L 161.935227 194.345283 
L 163.579141 194.345534 
L 165.223056 194.345754 
L 166.86697 194.345946 
L 168.510884 194.346115 
L 170.154799 194.346263 
L 171.798713 194.346393 
" clip-path="url(#p39c1c2e8e3)" style="fill: none; stroke: #bddf26; stroke-width: 1.5; stroke-linecap: round"/>
   </g>
   <g id="patch_3">
    <path d="M 44.066563 194.347317 
L 44.066563 60.532683 
" style="fill: none; stroke: #cccccc; stroke-linejoin: miter; stroke-linecap: square"/>
   </g>
   <g id="patch_4">
    <path d="M 177.881197 194.347317 
L 177.881197 60.532683 
" style="fill: none; stroke: #cccccc; stroke-linejoin: miter; stroke-linecap: square"/>
   </g>
   <g id="patch_5">
    <path d="M 44.066563 194.347317 
L 177.881197 194.347317 
" style="fill: none; stroke: #cccccc; stroke-linejoin: miter; stroke-linecap: square"/>
   </g>
   <g id="patch_6">
    <path d="M 44.066563 60.532683 
L 177.881197 60.532683 
" style="fill: none; stroke: #cccccc; stroke-linejoin: miter; stroke-linecap: square"/>
   </g>
   <g id="text_13">
    <!-- La Grange -->
    <g style="fill: #262626" transform="translate(75.535208 54.532683)scale(0.15 -0.15)">
     <defs>
      <path id="ArialMT-4c" d="M 469 0 
L 469 4581 
L 1075 4581 
L 1075 541 
L 3331 541 
L 3331 0 
L 469 0 
z
" transform="scale(0.015625)"/>
      <path id="ArialMT-47" d="M 2638 1797 
L 2638 2334 
L 4578 2338 
L 4578 638 
Q 4131 281 3656 101 
Q 3181 -78 2681 -78 
Q 2006 -78 1454 211 
Q 903 500 622 1047 
Q 341 1594 341 2269 
Q 341 2938 620 3517 
Q 900 4097 1425 4378 
Q 1950 4659 2634 4659 
Q 3131 4659 3532 4498 
Q 3934 4338 4162 4050 
Q 4391 3763 4509 3300 
L 3963 3150 
Q 3859 3500 3706 3700 
Q 3553 3900 3268 4020 
Q 2984 4141 2638 4141 
Q 2222 4141 1919 4014 
Q 1616 3888 1430 3681 
Q 1244 3475 1141 3228 
Q 966 2803 966 2306 
Q 966 1694 1177 1281 
Q 1388 869 1791 669 
Q 2194 469 2647 469 
Q 3041 469 3416 620 
Q 3791 772 3984 944 
L 3984 1797 
L 2638 1797 
z
" transform="scale(0.015625)"/>
      <path id="ArialMT-67" d="M 319 -275 
L 866 -356 
Q 900 -609 1056 -725 
Q 1266 -881 1628 -881 
Q 2019 -881 2231 -725 
Q 2444 -569 2519 -288 
Q 2563 -116 2559 434 
Q 2191 0 1641 0 
Q 956 0 581 494 
Q 206 988 206 1678 
Q 206 2153 378 2554 
Q 550 2956 876 3175 
Q 1203 3394 1644 3394 
Q 2231 3394 2613 2919 
L 2613 3319 
L 3131 3319 
L 3131 450 
Q 3131 -325 2973 -648 
Q 2816 -972 2473 -1159 
Q 2131 -1347 1631 -1347 
Q 1038 -1347 672 -1080 
Q 306 -813 319 -275 
z
M 784 1719 
Q 784 1066 1043 766 
Q 1303 466 1694 466 
Q 2081 466 2343 764 
Q 2606 1063 2606 1700 
Q 2606 2309 2336 2618 
Q 2066 2928 1684 2928 
Q 1309 2928 1046 2623 
Q 784 2319 784 1719 
z
" transform="scale(0.015625)"/>
     </defs>
     <use xlink:href="#ArialMT-4c"/>
     <use xlink:href="#ArialMT-61" x="55.615234"/>
     <use xlink:href="#ArialMT-20" x="111.230469"/>
     <use xlink:href="#ArialMT-47" x="139.013672"/>
     <use xlink:href="#ArialMT-72" x="216.796875"/>
     <use xlink:href="#ArialMT-61" x="250.097656"/>
     <use xlink:href="#ArialMT-6e" x="305.712891"/>
     <use xlink:href="#ArialMT-67" x="361.328125"/>
     <use xlink:href="#ArialMT-65" x="416.943359"/>
    </g>
   </g>
  </g>
  <g id="axes_2">
   <g id="patch_7">
    <path d="M 184.571928 194.347317 
L 318.386563 194.347317 
L 318.386563 60.532683 
L 184.571928 60.532683 
z
" style="fill: #ffffff"/>
   </g>
   <g id="matplotlib.axis_3">
    <g id="xtick_5">
     <g id="line2d_16">
      <path d="M 190.654412 194.347317 
L 190.654412 60.532683 
" clip-path="url(#p19fa6c68a4)" style="fill: none; stroke: #cccccc; stroke-linecap: round"/>
     </g>
     <g id="text_14">
      <!-- 0 -->
      <g style="fill: #262626" transform="translate(187.595896 205.720911)scale(0.11 -0.11)">
       <use xlink:href="#ArialMT-30"/>
      </g>
     </g>
    </g>
    <g id="xtick_6">
     <g id="line2d_17">
      <path d="M 231.752272 194.347317 
L 231.752272 60.532683 
" clip-path="url(#p19fa6c68a4)" style="fill: none; stroke: #cccccc; stroke-linecap: round"/>
     </g>
     <g id="text_15">
      <!-- 25 -->
      <g style="fill: #262626" transform="translate(225.635241 205.720911)scale(0.11 -0.11)">
       <use xlink:href="#ArialMT-32"/>
       <use xlink:href="#ArialMT-35" x="55.615234"/>
      </g>
     </g>
    </g>
    <g id="xtick_7">
     <g id="line2d_18">
      <path d="M 272.850133 194.347317 
L 272.850133 60.532683 
" clip-path="url(#p19fa6c68a4)" style="fill: none; stroke: #cccccc; stroke-linecap: round"/>
     </g>
     <g id="text_16">
      <!-- 50 -->
      <g style="fill: #262626" transform="translate(266.733102 205.720911)scale(0.11 -0.11)">
       <use xlink:href="#ArialMT-35"/>
       <use xlink:href="#ArialMT-30" x="55.615234"/>
      </g>
     </g>
    </g>
    <g id="xtick_8">
     <g id="line2d_19">
      <path d="M 313.947994 194.347317 
L 313.947994 60.532683 
" clip-path="url(#p19fa6c68a4)" style="fill: none; stroke: #cccccc; stroke-linecap: round"/>
     </g>
     <g id="text_17">
      <!-- 75 -->
      <g style="fill: #262626" transform="translate(307.830962 205.720911)scale(0.11 -0.11)">
       <use xlink:href="#ArialMT-37"/>
       <use xlink:href="#ArialMT-35" x="55.615234"/>
      </g>
     </g>
    </g>
    <g id="text_18">
     <!-- Years -->
     <g style="fill: #262626" transform="translate(232.572214 222.64388)scale(0.15 -0.15)">
      <use xlink:href="#ArialMT-59"/>
      <use xlink:href="#ArialMT-65" x="57.574219"/>
      <use xlink:href="#ArialMT-61" x="113.189453"/>
      <use xlink:href="#ArialMT-72" x="168.804688"/>
      <use xlink:href="#ArialMT-73" x="202.105469"/>
     </g>
    </g>
   </g>
   <g id="matplotlib.axis_4">
    <g id="ytick_7">
     <g id="line2d_20">
      <path d="M 184.571928 194.347317 
L 318.386563 194.347317 
" clip-path="url(#p19fa6c68a4)" style="fill: none; stroke: #cccccc; stroke-linecap: round"/>
     </g>
    </g>
    <g id="ytick_8">
     <g id="line2d_21">
      <path d="M 184.571928 167.58439 
L 318.386563 167.58439 
" clip-path="url(#p19fa6c68a4)" style="fill: none; stroke: #cccccc; stroke-linecap: round"/>
     </g>
    </g>
    <g id="ytick_9">
     <g id="line2d_22">
      <path d="M 184.571928 140.821463 
L 318.386563 140.821463 
" clip-path="url(#p19fa6c68a4)" style="fill: none; stroke: #cccccc; stroke-linecap: round"/>
     </g>
    </g>
    <g id="ytick_10">
     <g id="line2d_23">
      <path d="M 184.571928 114.058537 
L 318.386563 114.058537 
" clip-path="url(#p19fa6c68a4)" style="fill: none; stroke: #cccccc; stroke-linecap: round"/>
     </g>
    </g>
    <g id="ytick_11">
     <g id="line2d_24">
      <path d="M 184.571928 87.29561 
L 318.386563 87.29561 
" clip-path="url(#p19fa6c68a4)" style="fill: none; stroke: #cccccc; stroke-linecap: round"/>
     </g>
    </g>
    <g id="ytick_12">
     <g id="line2d_25">
      <path d="M 184.571928 60.532683 
L 318.386563 60.532683 
" clip-path="url(#p19fa6c68a4)" style="fill: none; stroke: #cccccc; stroke-linecap: round"/>
     </g>
    </g>
   </g>
   <g id="line2d_26">
    <path d="M 190.654412 178.747207 
L 192.298326 178.817235 
L 193.942241 179.303783 
L 195.586155 178.438465 
L 197.230069 176.199567 
L 198.873984 174.446393 
L 200.517898 172.352293 
L 202.161813 169.413705 
L 203.805727 165.944446 
L 205.449642 162.154828 
L 207.093556 158.102333 
L 208.73747 153.930812 
L 210.381385 149.842283 
L 212.025299 146.019234 
L 213.669214 142.605433 
L 215.313128 139.693914 
L 216.957043 137.318127 
L 218.600957 135.457452 
L 220.244871 134.053253 
L 221.888786 133.027787 
L 223.5327 132.300252 
L 225.176615 131.797279 
L 226.820529 131.457902 
L 228.464443 131.234531 
L 230.108358 131.091642 
L 231.752272 131.003567 
L 233.396187 130.952195 
L 235.040101 130.924976 
L 236.684016 130.913332 
L 238.32793 130.911473 
L 239.971844 130.915534 
L 241.615759 130.922965 
L 243.259673 130.93211 
L 244.903588 130.941913 
L 246.547502 130.951718 
L 248.191417 130.961137 
L 249.835331 130.96995 
L 251.479245 130.978055 
L 253.12316 130.985416 
L 254.767074 130.992042 
L 256.410989 130.997969 
L 258.054903 131.003244 
L 259.698818 131.007923 
L 261.342732 131.012061 
L 262.986646 131.015714 
L 264.630561 131.018932 
L 266.274475 131.021766 
L 267.91839 131.024257 
L 269.562304 131.026446 
L 271.206219 131.028369 
L 272.850133 131.030058 
L 274.494047 131.031539 
L 276.137962 131.032839 
L 277.781876 131.03398 
L 279.425791 131.03498 
L 281.069705 131.035858 
L 282.713619 131.036627 
L 284.357534 131.037302 
L 286.001448 131.037893 
L 287.645363 131.038412 
L 289.289277 131.038867 
L 290.933192 131.039266 
L 292.577106 131.039616 
L 294.22102 131.039922 
L 295.864935 131.040191 
L 297.508849 131.040427 
L 299.152764 131.040633 
L 300.796678 131.040814 
L 302.440593 131.040973 
L 304.084507 131.041113 
L 305.728421 131.041235 
L 307.372336 131.041342 
L 309.01625 131.041435 
L 310.660165 131.041518 
L 312.304079 131.04159 
" clip-path="url(#p19fa6c68a4)" style="fill: none; stroke: #482475; stroke-width: 1.5; stroke-linecap: round"/>
   </g>
   <g id="line2d_27">
    <path d="M 190.654412 179.301869 
L 192.298326 179.369407 
L 193.942241 179.838656 
L 195.586155 178.72472 
L 197.230069 175.82358 
L 198.873984 173.370981 
L 200.517898 170.644124 
L 202.161813 167.003373 
L 203.805727 162.76773 
L 205.449642 158.190796 
L 207.093556 153.337629 
L 208.73747 148.367471 
L 210.381385 143.511409 
L 212.025299 138.978955 
L 213.669214 134.934391 
L 215.313128 131.48362 
L 216.957043 128.663872 
L 218.600957 126.44989 
L 220.244871 124.77252 
L 221.888786 123.540632 
L 223.5327 122.659692 
L 225.176615 122.043897 
L 226.820529 121.621935 
L 228.464443 121.338083 
L 230.108358 121.150685 
L 231.752272 121.029576 
L 233.396187 120.953406 
L 235.040101 120.90732 
L 236.684016 120.881108 
L 238.32793 120.867827 
L 239.971844 120.862795 
L 241.615759 120.862882 
L 243.259673 120.866016 
L 244.903588 120.870841 
L 246.547502 120.87648 
L 248.191417 120.882379 
L 249.835331 120.8882 
L 251.479245 120.893743 
L 253.12316 120.8989 
L 254.767074 120.903623 
L 256.410989 120.907901 
L 258.054903 120.911744 
L 259.698818 120.915176 
L 261.342732 120.918227 
L 262.986646 120.920931 
L 264.630561 120.923321 
L 266.274475 120.92543 
L 267.91839 120.927287 
L 269.562304 120.928922 
L 271.206219 120.930359 
L 272.850133 120.931622 
L 274.494047 120.932731 
L 276.137962 120.933704 
L 277.781876 120.934558 
L 279.425791 120.935308 
L 281.069705 120.935965 
L 282.713619 120.936542 
L 284.357534 120.937048 
L 286.001448 120.937492 
L 287.645363 120.937881 
L 289.289277 120.938222 
L 290.933192 120.938521 
L 292.577106 120.938783 
L 294.22102 120.939013 
L 295.864935 120.939214 
L 297.508849 120.939391 
L 299.152764 120.939546 
L 300.796678 120.939682 
L 302.440593 120.939801 
L 304.084507 120.939906 
L 305.728421 120.939997 
L 307.372336 120.940077 
L 309.01625 120.940148 
L 310.660165 120.940209 
L 312.304079 120.940264 
" clip-path="url(#p19fa6c68a4)" style="fill: none; stroke: #355f8d; stroke-width: 1.5; stroke-linecap: round"/>
   </g>
   <g id="line2d_28">
    <path d="M 190.654412 179.85653 
L 192.298326 179.921579 
L 193.942241 180.373528 
L 195.586155 179.010975 
L 197.230069 175.447592 
L 198.873984 172.295569 
L 200.517898 168.935956 
L 202.161813 164.593041 
L 203.805727 159.591014 
L 205.449642 154.226764 
L 207.093556 148.572926 
L 208.73747 142.80413 
L 210.381385 137.180536 
L 212.025299 131.938676 
L 213.669214 127.26335 
L 215.313128 123.273325 
L 216.957043 120.009617 
L 218.600957 117.442328 
L 220.244871 115.491787 
L 221.888786 114.053477 
L 223.5327 113.019131 
L 225.176615 112.290516 
L 226.820529 111.785968 
L 228.464443 111.441635 
L 230.108358 111.209729 
L 231.752272 111.055585 
L 233.396187 110.954617 
L 235.040101 110.889663 
L 236.684016 110.848883 
L 238.32793 110.82418 
L 239.971844 110.810055 
L 241.615759 110.802799 
L 243.259673 110.799923 
L 244.903588 110.799769 
L 246.547502 110.801241 
L 248.191417 110.803622 
L 249.835331 110.80645 
L 251.479245 110.80943 
L 253.12316 110.812384 
L 254.767074 110.815204 
L 256.410989 110.817833 
L 258.054903 110.820243 
L 259.698818 110.822429 
L 261.342732 110.824393 
L 262.986646 110.826149 
L 264.630561 110.82771 
L 266.274475 110.829094 
L 267.91839 110.830318 
L 269.562304 110.831397 
L 271.206219 110.832349 
L 272.850133 110.833186 
L 274.494047 110.833922 
L 276.137962 110.834569 
L 277.781876 110.835137 
L 279.425791 110.835636 
L 281.069705 110.836073 
L 282.713619 110.836457 
L 284.357534 110.836794 
L 286.001448 110.83709 
L 287.645363 110.837349 
L 289.289277 110.837576 
L 290.933192 110.837776 
L 292.577106 110.83795 
L 294.22102 110.838104 
L 295.864935 110.838238 
L 297.508849 110.838356 
L 299.152764 110.838459 
L 300.796678 110.83855 
L 302.440593 110.838629 
L 304.084507 110.838699 
L 305.728421 110.83876 
L 307.372336 110.838813 
L 309.01625 110.83886 
L 310.660165 110.838901 
L 312.304079 110.838937 
" clip-path="url(#p19fa6c68a4)" style="fill: none; stroke: #21918c; stroke-width: 1.5; stroke-linecap: round"/>
   </g>
   <g id="line2d_29">
    <path d="M 190.654412 180.411192 
L 192.298326 180.47375 
L 193.942241 180.908401 
L 195.586155 179.297229 
L 197.230069 175.071604 
L 198.873984 171.220157 
L 200.517898 167.227787 
L 202.161813 162.182709 
L 203.805727 156.414298 
L 205.449642 150.262732 
L 207.093556 143.808222 
L 208.73747 137.240789 
L 210.381385 130.849663 
L 212.025299 124.898396 
L 213.669214 119.592309 
L 215.313128 115.06303 
L 216.957043 111.355361 
L 218.600957 108.434766 
L 220.244871 106.211055 
L 221.888786 104.566323 
L 223.5327 103.37857 
L 225.176615 102.537135 
L 226.820529 101.950001 
L 228.464443 101.545188 
L 230.108358 101.268772 
L 231.752272 101.081594 
L 233.396187 100.955828 
L 235.040101 100.872007 
L 236.684016 100.816659 
L 238.32793 100.780533 
L 239.971844 100.757316 
L 241.615759 100.742717 
L 243.259673 100.73383 
L 244.903588 100.728697 
L 246.547502 100.726002 
L 248.191417 100.724865 
L 249.835331 100.724699 
L 251.479245 100.725118 
L 253.12316 100.725868 
L 254.767074 100.726785 
L 256.410989 100.727764 
L 258.054903 100.728743 
L 259.698818 100.729681 
L 261.342732 100.730559 
L 262.986646 100.731366 
L 264.630561 100.732099 
L 266.274475 100.732758 
L 267.91839 100.733348 
L 269.562304 100.733873 
L 271.206219 100.734338 
L 272.850133 100.73475 
L 274.494047 100.735113 
L 276.137962 100.735433 
L 277.781876 100.735715 
L 279.425791 100.735963 
L 281.069705 100.736181 
L 282.713619 100.736372 
L 284.357534 100.73654 
L 286.001448 100.736688 
L 287.645363 100.736817 
L 289.289277 100.736931 
L 290.933192 100.73703 
L 292.577106 100.737118 
L 294.22102 100.737194 
L 295.864935 100.737261 
L 297.508849 100.73732 
L 299.152764 100.737372 
L 300.796678 100.737417 
L 302.440593 100.737457 
L 304.084507 100.737492 
L 305.728421 100.737522 
L 307.372336 100.737549 
L 309.01625 100.737572 
L 310.660165 100.737593 
L 312.304079 100.737611 
" clip-path="url(#p19fa6c68a4)" style="fill: none; stroke: #44bf70; stroke-width: 1.5; stroke-linecap: round"/>
   </g>
   <g id="line2d_30">
    <path d="M 190.654412 180.965854 
L 192.298326 181.025922 
L 193.942241 181.443273 
L 195.586155 179.583484 
L 197.230069 174.695617 
L 198.873984 170.144745 
L 200.517898 165.519618 
L 202.161813 159.772377 
L 203.805727 153.237582 
L 205.449642 146.2987 
L 207.093556 139.043518 
L 208.73747 131.677448 
L 210.381385 124.518789 
L 212.025299 117.858117 
L 213.669214 111.921268 
L 215.313128 106.852735 
L 216.957043 102.701106 
L 218.600957 99.427204 
L 220.244871 96.930322 
L 221.888786 95.079168 
L 223.5327 93.73801 
L 225.176615 92.783753 
L 226.820529 92.114035 
L 228.464443 91.64874 
L 230.108358 91.327815 
L 231.752272 91.107603 
L 233.396187 90.957039 
L 235.040101 90.854351 
L 236.684016 90.784434 
L 238.32793 90.736887 
L 239.971844 90.704577 
L 241.615759 90.682634 
L 243.259673 90.667737 
L 244.903588 90.657625 
L 246.547502 90.650764 
L 248.191417 90.646108 
L 249.835331 90.642949 
L 251.479245 90.640806 
L 253.12316 90.639352 
L 254.767074 90.638365 
L 256.410989 90.637696 
L 258.054903 90.637242 
L 259.698818 90.636934 
L 261.342732 90.636725 
L 262.986646 90.636584 
L 264.630561 90.636488 
L 266.274475 90.636422 
L 267.91839 90.636378 
L 269.562304 90.636348 
L 271.206219 90.636328 
L 272.850133 90.636314 
L 274.494047 90.636305 
L 276.137962 90.636298 
L 277.781876 90.636294 
L 279.425791 90.636291 
L 281.069705 90.636289 
L 282.713619 90.636288 
L 284.357534 90.636287 
L 286.001448 90.636286 
L 287.645363 90.636286 
L 289.289277 90.636285 
L 290.933192 90.636285 
L 292.577106 90.636285 
L 294.22102 90.636285 
L 295.864935 90.636285 
L 297.508849 90.636285 
L 299.152764 90.636285 
L 300.796678 90.636285 
L 302.440593 90.636285 
L 304.084507 90.636285 
L 305.728421 90.636285 
L 307.372336 90.636285 
L 309.01625 90.636285 
L 310.660165 90.636285 
L 312.304079 90.636285 
" clip-path="url(#p19fa6c68a4)" style="fill: none; stroke: #bddf26; stroke-width: 1.5; stroke-linecap: round"/>
   </g>
   <g id="patch_8">
    <path d="M 184.571928 194.347317 
L 184.571928 60.532683 
" style="fill: none; stroke: #cccccc; stroke-linejoin: miter; stroke-linecap: square"/>
   </g>
   <g id="patch_9">
    <path d="M 318.386563 194.347317 
L 318.386563 60.532683 
" style="fill: none; stroke: #cccccc; stroke-linejoin: miter; stroke-linecap: square"/>
   </g>
   <g id="patch_10">
    <path d="M 184.571928 194.347317 
L 318.386563 194.347317 
" style="fill: none; stroke: #cccccc; stroke-linejoin: miter; stroke-linecap: square"/>
   </g>
   <g id="patch_11">
    <path d="M 184.571928 60.532683 
L 318.386563 60.532683 
" style="fill: none; stroke: #cccccc; stroke-linejoin: miter; stroke-linecap: square"/>
   </g>
   <g id="text_19">
    <!-- Peoria -->
    <g style="fill: #262626" transform="translate(229.80073 54.532683)scale(0.15 -0.15)">
     <use xlink:href="#ArialMT-50"/>
     <use xlink:href="#ArialMT-65" x="66.699219"/>
     <use xlink:href="#ArialMT-6f" x="122.314453"/>
     <use xlink:href="#ArialMT-72" x="177.929688"/>
     <use xlink:href="#ArialMT-69" x="211.230469"/>
     <use xlink:href="#ArialMT-61" x="233.447266"/>
    </g>
   </g>
  </g>
  <g id="text_20">
   <!-- Effects of reducing migration -->
   <g style="fill: #262626" transform="translate(79.52125 21.759375)scale(0.2 -0.2)">
    <defs>
     <path id="ArialMT-45" d="M 506 0 
L 506 4581 
L 3819 4581 
L 3819 4041 
L 1113 4041 
L 1113 2638 
L 3647 2638 
L 3647 2100 
L 1113 2100 
L 1113 541 
L 3925 541 
L 3925 0 
L 506 0 
z
" transform="scale(0.015625)"/>
     <path id="ArialMT-66" d="M 556 0 
L 556 2881 
L 59 2881 
L 59 3319 
L 556 3319 
L 556 3672 
Q 556 4006 616 4169 
Q 697 4388 901 4523 
Q 1106 4659 1475 4659 
Q 1713 4659 2000 4603 
L 1916 4113 
Q 1741 4144 1584 4144 
Q 1328 4144 1222 4034 
Q 1116 3925 1116 3625 
L 1116 3319 
L 1763 3319 
L 1763 2881 
L 1116 2881 
L 1116 0 
L 556 0 
z
" transform="scale(0.015625)"/>
     <path id="ArialMT-63" d="M 2588 1216 
L 3141 1144 
Q 3050 572 2676 248 
Q 2303 -75 1759 -75 
Q 1078 -75 664 370 
Q 250 816 250 1647 
Q 250 2184 428 2587 
Q 606 2991 970 3192 
Q 1334 3394 1763 3394 
Q 2303 3394 2647 3120 
Q 2991 2847 3088 2344 
L 2541 2259 
Q 2463 2594 2264 2762 
Q 2066 2931 1784 2931 
Q 1359 2931 1093 2626 
Q 828 2322 828 1663 
Q 828 994 1084 691 
Q 1341 388 1753 388 
Q 2084 388 2306 591 
Q 2528 794 2588 1216 
z
" transform="scale(0.015625)"/>
     <path id="ArialMT-64" d="M 2575 0 
L 2575 419 
Q 2259 -75 1647 -75 
Q 1250 -75 917 144 
Q 584 363 401 755 
Q 219 1147 219 1656 
Q 219 2153 384 2558 
Q 550 2963 881 3178 
Q 1213 3394 1622 3394 
Q 1922 3394 2156 3267 
Q 2391 3141 2538 2938 
L 2538 4581 
L 3097 4581 
L 3097 0 
L 2575 0 
z
M 797 1656 
Q 797 1019 1065 703 
Q 1334 388 1700 388 
Q 2069 388 2326 689 
Q 2584 991 2584 1609 
Q 2584 2291 2321 2609 
Q 2059 2928 1675 2928 
Q 1300 2928 1048 2622 
Q 797 2316 797 1656 
z
" transform="scale(0.015625)"/>
    </defs>
    <use xlink:href="#ArialMT-45"/>
    <use xlink:href="#ArialMT-66" x="66.699219"/>
    <use xlink:href="#ArialMT-66" x="92.732422"/>
    <use xlink:href="#ArialMT-65" x="120.515625"/>
    <use xlink:href="#ArialMT-63" x="176.130859"/>
    <use xlink:href="#ArialMT-74" x="226.130859"/>
    <use xlink:href="#ArialMT-73" x="253.914062"/>
    <use xlink:href="#ArialMT-20" x="303.914062"/>
    <use xlink:href="#ArialMT-6f" x="331.697266"/>
    <use xlink:href="#ArialMT-66" x="387.3125"/>
    <use xlink:href="#ArialMT-20" x="415.095703"/>
    <use xlink:href="#ArialMT-72" x="442.878906"/>
    <use xlink:href="#ArialMT-65" x="476.179688"/>
    <use xlink:href="#ArialMT-64" x="531.794922"/>
    <use xlink:href="#ArialMT-75" x="587.410156"/>
    <use xlink:href="#ArialMT-63" x="643.025391"/>
    <use xlink:href="#ArialMT-69" x="693.025391"/>
    <use xlink:href="#ArialMT-6e" x="715.242188"/>
    <use xlink:href="#ArialMT-67" x="770.857422"/>
    <use xlink:href="#ArialMT-20" x="826.472656"/>
    <use xlink:href="#ArialMT-6d" x="854.255859"/>
    <use xlink:href="#ArialMT-69" x="937.556641"/>
    <use xlink:href="#ArialMT-67" x="959.773438"/>
    <use xlink:href="#ArialMT-72" x="1015.388672"/>
    <use xlink:href="#ArialMT-61" x="1048.689453"/>
    <use xlink:href="#ArialMT-74" x="1104.304688"/>
    <use xlink:href="#ArialMT-69" x="1132.087891"/>
    <use xlink:href="#ArialMT-6f" x="1154.304688"/>
    <use xlink:href="#ArialMT-6e" x="1209.919922"/>
   </g>
  </g>
  <g id="legend_1">
   <g id="patch_12">
    <path d="M 333.636562 165.269674 
L 416.066562 165.269674 
Q 418.266562 165.269674 418.266562 163.069674 
L 418.266562 69.755455 
Q 418.266562 67.555455 416.066562 67.555455 
L 333.636562 67.555455 
Q 331.436562 67.555455 331.436562 69.755455 
L 331.436562 163.069674 
Q 331.436562 165.269674 333.636562 165.269674 
z
" style="fill: #ffffff; opacity: 0.8; stroke: #cccccc; stroke-linejoin: miter"/>
   </g>
   <g id="text_21">
    <!-- Migration Rate -->
    <g style="fill: #262626" transform="translate(335.836562 80.54483)scale(0.12 -0.12)">
     <defs>
      <path id="ArialMT-4d" d="M 475 0 
L 475 4581 
L 1388 4581 
L 2472 1338 
Q 2622 884 2691 659 
Q 2769 909 2934 1394 
L 4031 4581 
L 4847 4581 
L 4847 0 
L 4263 0 
L 4263 3834 
L 2931 0 
L 2384 0 
L 1059 3900 
L 1059 0 
L 475 0 
z
" transform="scale(0.015625)"/>
      <path id="ArialMT-52" d="M 503 0 
L 503 4581 
L 2534 4581 
Q 3147 4581 3465 4457 
Q 3784 4334 3975 4021 
Q 4166 3709 4166 3331 
Q 4166 2844 3850 2509 
Q 3534 2175 2875 2084 
Q 3116 1969 3241 1856 
Q 3506 1613 3744 1247 
L 4541 0 
L 3778 0 
L 3172 953 
Q 2906 1366 2734 1584 
Q 2563 1803 2427 1890 
Q 2291 1978 2150 2013 
Q 2047 2034 1813 2034 
L 1109 2034 
L 1109 0 
L 503 0 
z
M 1109 2559 
L 2413 2559 
Q 2828 2559 3062 2645 
Q 3297 2731 3419 2920 
Q 3541 3109 3541 3331 
Q 3541 3656 3305 3865 
Q 3069 4075 2559 4075 
L 1109 4075 
L 1109 2559 
z
" transform="scale(0.015625)"/>
     </defs>
     <use xlink:href="#ArialMT-4d"/>
     <use xlink:href="#ArialMT-69" x="83.300781"/>
     <use xlink:href="#ArialMT-67" x="105.517578"/>
     <use xlink:href="#ArialMT-72" x="161.132812"/>
     <use xlink:href="#ArialMT-61" x="194.433594"/>
     <use xlink:href="#ArialMT-74" x="250.048828"/>
     <use xlink:href="#ArialMT-69" x="277.832031"/>
     <use xlink:href="#ArialMT-6f" x="300.048828"/>
     <use xlink:href="#ArialMT-6e" x="355.664062"/>
     <use xlink:href="#ArialMT-20" x="411.279297"/>
     <use xlink:href="#ArialMT-52" x="439.0625"/>
     <use xlink:href="#ArialMT-61" x="511.279297"/>
     <use xlink:href="#ArialMT-74" x="566.894531"/>
     <use xlink:href="#ArialMT-65" x="594.677734"/>
    </g>
   </g>
   <g id="line2d_31">
    <path d="M 345.385312 92.594049 
L 356.385312 92.594049 
L 367.385312 92.594049 
" style="fill: none; stroke: #482475; stroke-width: 1.5; stroke-linecap: round"/>
   </g>
   <g id="text_22">
    <!-- 100% -->
    <g style="fill: #262626" transform="translate(376.185312 96.444049)scale(0.11 -0.11)">
     <defs>
      <path id="ArialMT-25" d="M 372 3481 
Q 372 3972 619 4315 
Q 866 4659 1334 4659 
Q 1766 4659 2048 4351 
Q 2331 4044 2331 3447 
Q 2331 2866 2045 2552 
Q 1759 2238 1341 2238 
Q 925 2238 648 2547 
Q 372 2856 372 3481 
z
M 1350 4272 
Q 1141 4272 1002 4090 
Q 863 3909 863 3425 
Q 863 2984 1003 2804 
Q 1144 2625 1350 2625 
Q 1563 2625 1702 2806 
Q 1841 2988 1841 3469 
Q 1841 3913 1700 4092 
Q 1559 4272 1350 4272 
z
M 1353 -169 
L 3859 4659 
L 4316 4659 
L 1819 -169 
L 1353 -169 
z
M 3334 1075 
Q 3334 1569 3581 1911 
Q 3828 2253 4300 2253 
Q 4731 2253 5014 1945 
Q 5297 1638 5297 1041 
Q 5297 459 5011 145 
Q 4725 -169 4303 -169 
Q 3888 -169 3611 142 
Q 3334 453 3334 1075 
z
M 4316 1866 
Q 4103 1866 3964 1684 
Q 3825 1503 3825 1019 
Q 3825 581 3965 400 
Q 4106 219 4313 219 
Q 4528 219 4667 400 
Q 4806 581 4806 1063 
Q 4806 1506 4665 1686 
Q 4525 1866 4316 1866 
z
" transform="scale(0.015625)"/>
     </defs>
     <use xlink:href="#ArialMT-31"/>
     <use xlink:href="#ArialMT-30" x="55.615234"/>
     <use xlink:href="#ArialMT-30" x="111.230469"/>
     <use xlink:href="#ArialMT-25" x="166.845703"/>
    </g>
   </g>
   <g id="line2d_32">
    <path d="M 345.385312 108.153893 
L 356.385312 108.153893 
L 367.385312 108.153893 
" style="fill: none; stroke: #355f8d; stroke-width: 1.5; stroke-linecap: round"/>
   </g>
   <g id="text_23">
    <!-- 75% -->
    <g style="fill: #262626" transform="translate(376.185312 112.003893)scale(0.11 -0.11)">
     <use xlink:href="#ArialMT-37"/>
     <use xlink:href="#ArialMT-35" x="55.615234"/>
     <use xlink:href="#ArialMT-25" x="111.230469"/>
    </g>
   </g>
   <g id="line2d_33">
    <path d="M 345.385312 123.713737 
L 356.385312 123.713737 
L 367.385312 123.713737 
" style="fill: none; stroke: #21918c; stroke-width: 1.5; stroke-linecap: round"/>
   </g>
   <g id="text_24">
    <!-- 50% -->
    <g style="fill: #262626" transform="translate(376.185312 127.563737)scale(0.11 -0.11)">
     <use xlink:href="#ArialMT-35"/>
     <use xlink:href="#ArialMT-30" x="55.615234"/>
     <use xlink:href="#ArialMT-25" x="111.230469"/>
    </g>
   </g>
   <g id="line2d_34">
    <path d="M 345.385312 139.27358 
L 356.385312 139.27358 
L 367.385312 139.27358 
" style="fill: none; stroke: #44bf70; stroke-width: 1.5; stroke-linecap: round"/>
   </g>
   <g id="text_25">
    <!-- 25% -->
    <g style="fill: #262626" transform="translate(376.185312 143.12358)scale(0.11 -0.11)">
     <use xlink:href="#ArialMT-32"/>
     <use xlink:href="#ArialMT-35" x="55.615234"/>
     <use xlink:href="#ArialMT-25" x="111.230469"/>
    </g>
   </g>
   <g id="line2d_35">
    <path d="M 345.385312 154.833424 
L 356.385312 154.833424 
L 367.385312 154.833424 
" style="fill: none; stroke: #bddf26; stroke-width: 1.5; stroke-linecap: round"/>
   </g>
   <g id="text_26">
    <!-- 0% -->
    <g style="fill: #262626" transform="translate(376.185312 158.683424)scale(0.11 -0.11)">
     <use xlink:href="#ArialMT-30"/>
     <use xlink:href="#ArialMT-25" x="55.615234"/>
    </g>
   </g>
  </g>
 </g>
 <defs>
  <clipPath id="p39c1c2e8e3">
   <rect x="44.066563" y="60.532683" width="133.814634" height="133.814634"/>
  </clipPath>
  <clipPath id="p19fa6c68a4">
   <rect x="184.571928" y="60.532683" width="133.814634" height="133.814634"/>
  </clipPath>
 </defs>
</svg>
