<?xml version="1.0" encoding="utf-8" standalone="no"?>
<!DOCTYPE svg PUBLIC "-//W3C//DTD SVG 1.1//EN"
  "http://www.w3.org/Graphics/SVG/1.1/DTD/svg11.dtd">
<svg xmlns:xlink="http://www.w3.org/1999/xlink" width="423.766562pt" height="192.197344pt" viewBox="0 0 423.766562 192.197344" xmlns="http://www.w3.org/2000/svg" version="1.1">
 <metadata>
  <rdf:RDF xmlns:dc="http://purl.org/dc/elements/1.1/" xmlns:cc="http://creativecommons.org/ns#" xmlns:rdf="http://www.w3.org/1999/02/22-rdf-syntax-ns#">
   <cc:Work>
    <dc:type rdf:resource="http://purl.org/dc/dcmitype/StillImage"/>
    <dc:date>2022-12-28T14:01:49.798748</dc:date>
    <dc:format>image/svg+xml</dc:format>
    <dc:creator>
     <cc:Agent>
      <dc:title>Matplotlib v3.5.1, https://matplotlib.org/</dc:title>
     </cc:Agent>
    </dc:creator>
   </cc:Work>
  </rdf:RDF>
 </metadata>
 <defs>
  <style type="text/css">*{stroke-linejoin: round; stroke-linecap: butt}</style>
 </defs>
 <g id="figure_1">
  <g id="patch_1">
   <path d="M 0 192.197344 
L 423.766562 192.197344 
L 423.766562 0 
L 0 0 
z
" style="fill: #ffffff"/>
  </g>
  <g id="axes_1">
   <g id="patch_2">
    <path d="M 44.066563 153.719531 
L 173.666563 153.719531 
L 173.666563 24.119531 
L 44.066563 24.119531 
z
" style="fill: #ffffff"/>
   </g>
   <g id="matplotlib.axis_1">
    <g id="xtick_1">
     <g id="line2d_1">
      <path d="M 49.957472 153.719531 
L 49.957472 24.119531 
" clip-path="url(#p77857c4a7f)" style="fill: none; stroke: #cccccc; stroke-linecap: round"/>
     </g>
     <g id="text_1">
      <!-- 0 -->
      <g style="fill: #262626" transform="translate(46.898956 165.093125)scale(0.11 -0.11)">
       <defs>
        <path id="ArialMT-30" d="M 266 2259 
Q 266 3072 433 3567 
Q 600 4063 929 4331 
Q 1259 4600 1759 4600 
Q 2128 4600 2406 4451 
Q 2684 4303 2865 4023 
Q 3047 3744 3150 3342 
Q 3253 2941 3253 2259 
Q 3253 1453 3087 958 
Q 2922 463 2592 192 
Q 2263 -78 1759 -78 
Q 1097 -78 719 397 
Q 266 969 266 2259 
z
M 844 2259 
Q 844 1131 1108 757 
Q 1372 384 1759 384 
Q 2147 384 2411 759 
Q 2675 1134 2675 2259 
Q 2675 3391 2411 3762 
Q 2147 4134 1753 4134 
Q 1366 4134 1134 3806 
Q 844 3388 844 2259 
z
" transform="scale(0.015625)"/>
       </defs>
       <use xlink:href="#ArialMT-30"/>
      </g>
     </g>
    </g>
    <g id="xtick_2">
     <g id="line2d_2">
      <path d="M 129.564351 153.719531 
L 129.564351 24.119531 
" clip-path="url(#p77857c4a7f)" style="fill: none; stroke: #cccccc; stroke-linecap: round"/>
     </g>
     <g id="text_2">
      <!-- 50 -->
      <g style="fill: #262626" transform="translate(123.44732 165.093125)scale(0.11 -0.11)">
       <defs>
        <path id="ArialMT-35" d="M 266 1200 
L 856 1250 
Q 922 819 1161 601 
Q 1400 384 1738 384 
Q 2144 384 2425 690 
Q 2706 997 2706 1503 
Q 2706 1984 2436 2262 
Q 2166 2541 1728 2541 
Q 1456 2541 1237 2417 
Q 1019 2294 894 2097 
L 366 2166 
L 809 4519 
L 3088 4519 
L 3088 3981 
L 1259 3981 
L 1013 2750 
Q 1425 3038 1878 3038 
Q 2478 3038 2890 2622 
Q 3303 2206 3303 1553 
Q 3303 931 2941 478 
Q 2500 -78 1738 -78 
Q 1113 -78 717 272 
Q 322 622 266 1200 
z
" transform="scale(0.015625)"/>
       </defs>
       <use xlink:href="#ArialMT-35"/>
       <use xlink:href="#ArialMT-30" x="55.615234"/>
      </g>
     </g>
    </g>
    <g id="text_3">
     <!-- Years -->
     <g style="fill: #262626" transform="translate(89.959531 182.016094)scale(0.15 -0.15)">
      <defs>
       <path id="ArialMT-59" d="M 1784 0 
L 1784 1941 
L 19 4581 
L 756 4581 
L 1659 3200 
Q 1909 2813 2125 2425 
Q 2331 2784 2625 3234 
L 3513 4581 
L 4219 4581 
L 2391 1941 
L 2391 0 
L 1784 0 
z
" transform="scale(0.015625)"/>
       <path id="ArialMT-65" d="M 2694 1069 
L 3275 997 
Q 3138 488 2766 206 
Q 2394 -75 1816 -75 
Q 1088 -75 661 373 
Q 234 822 234 1631 
Q 234 2469 665 2931 
Q 1097 3394 1784 3394 
Q 2450 3394 2872 2941 
Q 3294 2488 3294 1666 
Q 3294 1616 3291 1516 
L 816 1516 
Q 847 969 1125 678 
Q 1403 388 1819 388 
Q 2128 388 2347 550 
Q 2566 713 2694 1069 
z
M 847 1978 
L 2700 1978 
Q 2663 2397 2488 2606 
Q 2219 2931 1791 2931 
Q 1403 2931 1139 2672 
Q 875 2413 847 1978 
z
" transform="scale(0.015625)"/>
       <path id="ArialMT-61" d="M 2588 409 
Q 2275 144 1986 34 
Q 1697 -75 1366 -75 
Q 819 -75 525 192 
Q 231 459 231 875 
Q 231 1119 342 1320 
Q 453 1522 633 1644 
Q 813 1766 1038 1828 
Q 1203 1872 1538 1913 
Q 2219 1994 2541 2106 
Q 2544 2222 2544 2253 
Q 2544 2597 2384 2738 
Q 2169 2928 1744 2928 
Q 1347 2928 1158 2789 
Q 969 2650 878 2297 
L 328 2372 
Q 403 2725 575 2942 
Q 747 3159 1072 3276 
Q 1397 3394 1825 3394 
Q 2250 3394 2515 3294 
Q 2781 3194 2906 3042 
Q 3031 2891 3081 2659 
Q 3109 2516 3109 2141 
L 3109 1391 
Q 3109 606 3145 398 
Q 3181 191 3288 0 
L 2700 0 
Q 2613 175 2588 409 
z
M 2541 1666 
Q 2234 1541 1622 1453 
Q 1275 1403 1131 1340 
Q 988 1278 909 1158 
Q 831 1038 831 891 
Q 831 666 1001 516 
Q 1172 366 1500 366 
Q 1825 366 2078 508 
Q 2331 650 2450 897 
Q 2541 1088 2541 1459 
L 2541 1666 
z
" transform="scale(0.015625)"/>
       <path id="ArialMT-72" d="M 416 0 
L 416 3319 
L 922 3319 
L 922 2816 
Q 1116 3169 1280 3281 
Q 1444 3394 1641 3394 
Q 1925 3394 2219 3213 
L 2025 2691 
Q 1819 2813 1613 2813 
Q 1428 2813 1281 2702 
Q 1134 2591 1072 2394 
Q 978 2094 978 1738 
L 978 0 
L 416 0 
z
" transform="scale(0.015625)"/>
       <path id="ArialMT-73" d="M 197 991 
L 753 1078 
Q 800 744 1014 566 
Q 1228 388 1613 388 
Q 2000 388 2187 545 
Q 2375 703 2375 916 
Q 2375 1106 2209 1216 
Q 2094 1291 1634 1406 
Q 1016 1563 777 1677 
Q 538 1791 414 1992 
Q 291 2194 291 2438 
Q 291 2659 392 2848 
Q 494 3038 669 3163 
Q 800 3259 1026 3326 
Q 1253 3394 1513 3394 
Q 1903 3394 2198 3281 
Q 2494 3169 2634 2976 
Q 2775 2784 2828 2463 
L 2278 2388 
Q 2241 2644 2061 2787 
Q 1881 2931 1553 2931 
Q 1166 2931 1000 2803 
Q 834 2675 834 2503 
Q 834 2394 903 2306 
Q 972 2216 1119 2156 
Q 1203 2125 1616 2013 
Q 2213 1853 2448 1751 
Q 2684 1650 2818 1456 
Q 2953 1263 2953 975 
Q 2953 694 2789 445 
Q 2625 197 2315 61 
Q 2006 -75 1616 -75 
Q 969 -75 630 194 
Q 291 463 197 991 
z
" transform="scale(0.015625)"/>
      </defs>
      <use xlink:href="#ArialMT-59"/>
      <use xlink:href="#ArialMT-65" x="57.574219"/>
      <use xlink:href="#ArialMT-61" x="113.189453"/>
      <use xlink:href="#ArialMT-72" x="168.804688"/>
      <use xlink:href="#ArialMT-73" x="202.105469"/>
     </g>
    </g>
   </g>
   <g id="matplotlib.axis_2">
    <g id="ytick_1">
     <g id="line2d_3">
      <path d="M 44.066563 153.719531 
L 173.666563 153.719531 
" clip-path="url(#p77857c4a7f)" style="fill: none; stroke: #cccccc; stroke-linecap: round"/>
     </g>
     <g id="text_4">
      <!-- 0.0 -->
      <g style="fill: #262626" transform="translate(25.276563 157.656328)scale(0.11 -0.11)">
       <defs>
        <path id="ArialMT-2e" d="M 581 0 
L 581 641 
L 1222 641 
L 1222 0 
L 581 0 
z
" transform="scale(0.015625)"/>
       </defs>
       <use xlink:href="#ArialMT-30"/>
       <use xlink:href="#ArialMT-2e" x="55.615234"/>
       <use xlink:href="#ArialMT-30" x="83.398438"/>
      </g>
     </g>
    </g>
    <g id="ytick_2">
     <g id="line2d_4">
      <path d="M 44.066563 127.799531 
L 173.666563 127.799531 
" clip-path="url(#p77857c4a7f)" style="fill: none; stroke: #cccccc; stroke-linecap: round"/>
     </g>
     <g id="text_5">
      <!-- 0.2 -->
      <g style="fill: #262626" transform="translate(25.276563 131.736328)scale(0.11 -0.11)">
       <defs>
        <path id="ArialMT-32" d="M 3222 541 
L 3222 0 
L 194 0 
Q 188 203 259 391 
Q 375 700 629 1000 
Q 884 1300 1366 1694 
Q 2113 2306 2375 2664 
Q 2638 3022 2638 3341 
Q 2638 3675 2398 3904 
Q 2159 4134 1775 4134 
Q 1369 4134 1125 3890 
Q 881 3647 878 3216 
L 300 3275 
Q 359 3922 746 4261 
Q 1134 4600 1788 4600 
Q 2447 4600 2831 4234 
Q 3216 3869 3216 3328 
Q 3216 3053 3103 2787 
Q 2991 2522 2730 2228 
Q 2469 1934 1863 1422 
Q 1356 997 1212 845 
Q 1069 694 975 541 
L 3222 541 
z
" transform="scale(0.015625)"/>
       </defs>
       <use xlink:href="#ArialMT-30"/>
       <use xlink:href="#ArialMT-2e" x="55.615234"/>
       <use xlink:href="#ArialMT-32" x="83.398438"/>
      </g>
     </g>
    </g>
    <g id="ytick_3">
     <g id="line2d_5">
      <path d="M 44.066563 101.879531 
L 173.666563 101.879531 
" clip-path="url(#p77857c4a7f)" style="fill: none; stroke: #cccccc; stroke-linecap: round"/>
     </g>
     <g id="text_6">
      <!-- 0.4 -->
      <g style="fill: #262626" transform="translate(25.276563 105.816328)scale(0.11 -0.11)">
       <defs>
        <path id="ArialMT-34" d="M 2069 0 
L 2069 1097 
L 81 1097 
L 81 1613 
L 2172 4581 
L 2631 4581 
L 2631 1613 
L 3250 1613 
L 3250 1097 
L 2631 1097 
L 2631 0 
L 2069 0 
z
M 2069 1613 
L 2069 3678 
L 634 1613 
L 2069 1613 
z
" transform="scale(0.015625)"/>
       </defs>
       <use xlink:href="#ArialMT-30"/>
       <use xlink:href="#ArialMT-2e" x="55.615234"/>
       <use xlink:href="#ArialMT-34" x="83.398438"/>
      </g>
     </g>
    </g>
    <g id="ytick_4">
     <g id="line2d_6">
      <path d="M 44.066563 75.959531 
L 173.666563 75.959531 
" clip-path="url(#p77857c4a7f)" style="fill: none; stroke: #cccccc; stroke-linecap: round"/>
     </g>
     <g id="text_7">
      <!-- 0.6 -->
      <g style="fill: #262626" transform="translate(25.276563 79.896328)scale(0.11 -0.11)">
       <defs>
        <path id="ArialMT-36" d="M 3184 3459 
L 2625 3416 
Q 2550 3747 2413 3897 
Q 2184 4138 1850 4138 
Q 1581 4138 1378 3988 
Q 1113 3794 959 3422 
Q 806 3050 800 2363 
Q 1003 2672 1297 2822 
Q 1591 2972 1913 2972 
Q 2475 2972 2870 2558 
Q 3266 2144 3266 1488 
Q 3266 1056 3080 686 
Q 2894 316 2569 119 
Q 2244 -78 1831 -78 
Q 1128 -78 684 439 
Q 241 956 241 2144 
Q 241 3472 731 4075 
Q 1159 4600 1884 4600 
Q 2425 4600 2770 4297 
Q 3116 3994 3184 3459 
z
M 888 1484 
Q 888 1194 1011 928 
Q 1134 663 1356 523 
Q 1578 384 1822 384 
Q 2178 384 2434 671 
Q 2691 959 2691 1453 
Q 2691 1928 2437 2201 
Q 2184 2475 1800 2475 
Q 1419 2475 1153 2201 
Q 888 1928 888 1484 
z
" transform="scale(0.015625)"/>
       </defs>
       <use xlink:href="#ArialMT-30"/>
       <use xlink:href="#ArialMT-2e" x="55.615234"/>
       <use xlink:href="#ArialMT-36" x="83.398438"/>
      </g>
     </g>
    </g>
    <g id="ytick_5">
     <g id="line2d_7">
      <path d="M 44.066563 50.039531 
L 173.666563 50.039531 
" clip-path="url(#p77857c4a7f)" style="fill: none; stroke: #cccccc; stroke-linecap: round"/>
     </g>
     <g id="text_8">
      <!-- 0.8 -->
      <g style="fill: #262626" transform="translate(25.276563 53.976328)scale(0.11 -0.11)">
       <defs>
        <path id="ArialMT-38" d="M 1131 2484 
Q 781 2613 612 2850 
Q 444 3088 444 3419 
Q 444 3919 803 4259 
Q 1163 4600 1759 4600 
Q 2359 4600 2725 4251 
Q 3091 3903 3091 3403 
Q 3091 3084 2923 2848 
Q 2756 2613 2416 2484 
Q 2838 2347 3058 2040 
Q 3278 1734 3278 1309 
Q 3278 722 2862 322 
Q 2447 -78 1769 -78 
Q 1091 -78 675 323 
Q 259 725 259 1325 
Q 259 1772 486 2073 
Q 713 2375 1131 2484 
z
M 1019 3438 
Q 1019 3113 1228 2906 
Q 1438 2700 1772 2700 
Q 2097 2700 2305 2904 
Q 2513 3109 2513 3406 
Q 2513 3716 2298 3927 
Q 2084 4138 1766 4138 
Q 1444 4138 1231 3931 
Q 1019 3725 1019 3438 
z
M 838 1322 
Q 838 1081 952 856 
Q 1066 631 1291 507 
Q 1516 384 1775 384 
Q 2178 384 2440 643 
Q 2703 903 2703 1303 
Q 2703 1709 2433 1975 
Q 2163 2241 1756 2241 
Q 1359 2241 1098 1978 
Q 838 1716 838 1322 
z
" transform="scale(0.015625)"/>
       </defs>
       <use xlink:href="#ArialMT-30"/>
       <use xlink:href="#ArialMT-2e" x="55.615234"/>
       <use xlink:href="#ArialMT-38" x="83.398438"/>
      </g>
     </g>
    </g>
    <g id="ytick_6">
     <g id="line2d_8">
      <path d="M 44.066563 24.119531 
L 173.666563 24.119531 
" clip-path="url(#p77857c4a7f)" style="fill: none; stroke: #cccccc; stroke-linecap: round"/>
     </g>
     <g id="text_9">
      <!-- 1.0 -->
      <g style="fill: #262626" transform="translate(25.276563 28.056328)scale(0.11 -0.11)">
       <defs>
        <path id="ArialMT-31" d="M 2384 0 
L 1822 0 
L 1822 3584 
Q 1619 3391 1289 3197 
Q 959 3003 697 2906 
L 697 3450 
Q 1169 3672 1522 3987 
Q 1875 4303 2022 4600 
L 2384 4600 
L 2384 0 
z
" transform="scale(0.015625)"/>
       </defs>
       <use xlink:href="#ArialMT-31"/>
       <use xlink:href="#ArialMT-2e" x="55.615234"/>
       <use xlink:href="#ArialMT-30" x="83.398438"/>
      </g>
     </g>
    </g>
    <g id="text_10">
     <!-- Population (millions) -->
     <g style="fill: #262626" transform="translate(18.119531 156.445313)rotate(-90)scale(0.15 -0.15)">
      <defs>
       <path id="ArialMT-50" d="M 494 0 
L 494 4581 
L 2222 4581 
Q 2678 4581 2919 4538 
Q 3256 4481 3484 4323 
Q 3713 4166 3852 3881 
Q 3991 3597 3991 3256 
Q 3991 2672 3619 2267 
Q 3247 1863 2275 1863 
L 1100 1863 
L 1100 0 
L 494 0 
z
M 1100 2403 
L 2284 2403 
Q 2872 2403 3119 2622 
Q 3366 2841 3366 3238 
Q 3366 3525 3220 3729 
Q 3075 3934 2838 4000 
Q 2684 4041 2272 4041 
L 1100 4041 
L 1100 2403 
z
" transform="scale(0.015625)"/>
       <path id="ArialMT-6f" d="M 213 1659 
Q 213 2581 725 3025 
Q 1153 3394 1769 3394 
Q 2453 3394 2887 2945 
Q 3322 2497 3322 1706 
Q 3322 1066 3130 698 
Q 2938 331 2570 128 
Q 2203 -75 1769 -75 
Q 1072 -75 642 372 
Q 213 819 213 1659 
z
M 791 1659 
Q 791 1022 1069 705 
Q 1347 388 1769 388 
Q 2188 388 2466 706 
Q 2744 1025 2744 1678 
Q 2744 2294 2464 2611 
Q 2184 2928 1769 2928 
Q 1347 2928 1069 2612 
Q 791 2297 791 1659 
z
" transform="scale(0.015625)"/>
       <path id="ArialMT-70" d="M 422 -1272 
L 422 3319 
L 934 3319 
L 934 2888 
Q 1116 3141 1344 3267 
Q 1572 3394 1897 3394 
Q 2322 3394 2647 3175 
Q 2972 2956 3137 2557 
Q 3303 2159 3303 1684 
Q 3303 1175 3120 767 
Q 2938 359 2589 142 
Q 2241 -75 1856 -75 
Q 1575 -75 1351 44 
Q 1128 163 984 344 
L 984 -1272 
L 422 -1272 
z
M 931 1641 
Q 931 1000 1190 694 
Q 1450 388 1819 388 
Q 2194 388 2461 705 
Q 2728 1022 2728 1688 
Q 2728 2322 2467 2637 
Q 2206 2953 1844 2953 
Q 1484 2953 1207 2617 
Q 931 2281 931 1641 
z
" transform="scale(0.015625)"/>
       <path id="ArialMT-75" d="M 2597 0 
L 2597 488 
Q 2209 -75 1544 -75 
Q 1250 -75 995 37 
Q 741 150 617 320 
Q 494 491 444 738 
Q 409 903 409 1263 
L 409 3319 
L 972 3319 
L 972 1478 
Q 972 1038 1006 884 
Q 1059 663 1231 536 
Q 1403 409 1656 409 
Q 1909 409 2131 539 
Q 2353 669 2445 892 
Q 2538 1116 2538 1541 
L 2538 3319 
L 3100 3319 
L 3100 0 
L 2597 0 
z
" transform="scale(0.015625)"/>
       <path id="ArialMT-6c" d="M 409 0 
L 409 4581 
L 972 4581 
L 972 0 
L 409 0 
z
" transform="scale(0.015625)"/>
       <path id="ArialMT-74" d="M 1650 503 
L 1731 6 
Q 1494 -44 1306 -44 
Q 1000 -44 831 53 
Q 663 150 594 308 
Q 525 466 525 972 
L 525 2881 
L 113 2881 
L 113 3319 
L 525 3319 
L 525 4141 
L 1084 4478 
L 1084 3319 
L 1650 3319 
L 1650 2881 
L 1084 2881 
L 1084 941 
Q 1084 700 1114 631 
Q 1144 563 1211 522 
Q 1278 481 1403 481 
Q 1497 481 1650 503 
z
" transform="scale(0.015625)"/>
       <path id="ArialMT-69" d="M 425 3934 
L 425 4581 
L 988 4581 
L 988 3934 
L 425 3934 
z
M 425 0 
L 425 3319 
L 988 3319 
L 988 0 
L 425 0 
z
" transform="scale(0.015625)"/>
       <path id="ArialMT-6e" d="M 422 0 
L 422 3319 
L 928 3319 
L 928 2847 
Q 1294 3394 1984 3394 
Q 2284 3394 2536 3286 
Q 2788 3178 2913 3003 
Q 3038 2828 3088 2588 
Q 3119 2431 3119 2041 
L 3119 0 
L 2556 0 
L 2556 2019 
Q 2556 2363 2490 2533 
Q 2425 2703 2258 2804 
Q 2091 2906 1866 2906 
Q 1506 2906 1245 2678 
Q 984 2450 984 1813 
L 984 0 
L 422 0 
z
" transform="scale(0.015625)"/>
       <path id="ArialMT-20" transform="scale(0.015625)"/>
       <path id="ArialMT-28" d="M 1497 -1347 
Q 1031 -759 709 28 
Q 388 816 388 1659 
Q 388 2403 628 3084 
Q 909 3875 1497 4659 
L 1900 4659 
Q 1522 4009 1400 3731 
Q 1209 3300 1100 2831 
Q 966 2247 966 1656 
Q 966 153 1900 -1347 
L 1497 -1347 
z
" transform="scale(0.015625)"/>
       <path id="ArialMT-6d" d="M 422 0 
L 422 3319 
L 925 3319 
L 925 2853 
Q 1081 3097 1340 3245 
Q 1600 3394 1931 3394 
Q 2300 3394 2536 3241 
Q 2772 3088 2869 2813 
Q 3263 3394 3894 3394 
Q 4388 3394 4653 3120 
Q 4919 2847 4919 2278 
L 4919 0 
L 4359 0 
L 4359 2091 
Q 4359 2428 4304 2576 
Q 4250 2725 4106 2815 
Q 3963 2906 3769 2906 
Q 3419 2906 3187 2673 
Q 2956 2441 2956 1928 
L 2956 0 
L 2394 0 
L 2394 2156 
Q 2394 2531 2256 2718 
Q 2119 2906 1806 2906 
Q 1569 2906 1367 2781 
Q 1166 2656 1075 2415 
Q 984 2175 984 1722 
L 984 0 
L 422 0 
z
" transform="scale(0.015625)"/>
       <path id="ArialMT-29" d="M 791 -1347 
L 388 -1347 
Q 1322 153 1322 1656 
Q 1322 2244 1188 2822 
Q 1081 3291 891 3722 
Q 769 4003 388 4659 
L 791 4659 
Q 1378 3875 1659 3084 
Q 1900 2403 1900 1659 
Q 1900 816 1576 28 
Q 1253 -759 791 -1347 
z
" transform="scale(0.015625)"/>
      </defs>
      <use xlink:href="#ArialMT-50"/>
      <use xlink:href="#ArialMT-6f" x="66.699219"/>
      <use xlink:href="#ArialMT-70" x="122.314453"/>
      <use xlink:href="#ArialMT-75" x="177.929688"/>
      <use xlink:href="#ArialMT-6c" x="233.544922"/>
      <use xlink:href="#ArialMT-61" x="255.761719"/>
      <use xlink:href="#ArialMT-74" x="311.376953"/>
      <use xlink:href="#ArialMT-69" x="339.160156"/>
      <use xlink:href="#ArialMT-6f" x="361.376953"/>
      <use xlink:href="#ArialMT-6e" x="416.992188"/>
      <use xlink:href="#ArialMT-20" x="472.607422"/>
      <use xlink:href="#ArialMT-28" x="500.390625"/>
      <use xlink:href="#ArialMT-6d" x="533.691406"/>
      <use xlink:href="#ArialMT-69" x="616.992188"/>
      <use xlink:href="#ArialMT-6c" x="639.208984"/>
      <use xlink:href="#ArialMT-6c" x="661.425781"/>
      <use xlink:href="#ArialMT-69" x="683.642578"/>
      <use xlink:href="#ArialMT-6f" x="705.859375"/>
      <use xlink:href="#ArialMT-6e" x="761.474609"/>
      <use xlink:href="#ArialMT-73" x="817.089844"/>
      <use xlink:href="#ArialMT-29" x="867.089844"/>
     </g>
    </g>
   </g>
   <g id="line2d_9">
    <path d="M 49.957472 142.908299 
L 51.549609 142.95683 
L 53.141747 143.294019 
L 54.733884 141.791447 
L 56.326022 137.842412 
L 57.91816 134.165645 
L 59.510297 130.428884 
L 61.102435 125.785539 
L 62.694572 120.505908 
L 64.28671 114.899805 
L 65.878848 109.038155 
L 67.470985 103.086915 
L 69.063123 97.303249 
L 70.65526 91.921919 
L 72.247398 87.125384 
L 73.839535 83.030385 
L 75.431673 79.676176 
L 77.023811 77.031106 
L 78.615948 75.013809 
L 80.208086 73.518214 
L 81.800223 72.434658 
L 83.392361 71.663689 
L 84.984499 71.122606 
L 86.576636 70.746682 
L 88.168774 70.487399 
L 89.760911 70.309484 
L 91.353049 70.187839 
L 92.945187 70.104875 
L 94.537324 70.048387 
L 96.129462 70.009972 
L 97.721599 69.983869 
L 99.313737 69.96614 
L 100.905875 69.954104 
L 102.498012 69.945935 
L 104.09015 69.940391 
L 105.682287 69.93663 
L 107.274425 69.934077 
L 108.866563 69.932346 
L 110.4587 69.931171 
L 112.050838 69.930374 
L 113.642975 69.929834 
L 115.235113 69.929467 
L 116.82725 69.929218 
L 118.419388 69.929049 
L 120.011526 69.928935 
L 121.603663 69.928857 
L 123.195801 69.928805 
L 124.787938 69.928769 
L 126.380076 69.928745 
L 127.972214 69.928728 
L 129.564351 69.928717 
L 131.156489 69.928709 
L 132.748626 69.928704 
L 134.340764 69.928701 
L 135.932902 69.928698 
L 137.525039 69.928697 
L 139.117177 69.928696 
L 140.709314 69.928695 
L 142.301452 69.928694 
L 143.89359 69.928694 
L 145.485727 69.928694 
L 147.077865 69.928694 
L 148.670002 69.928694 
L 150.26214 69.928694 
L 151.854277 69.928693 
L 153.446415 69.928693 
L 155.038553 69.928693 
L 156.63069 69.928693 
L 158.222828 69.928693 
L 159.814965 69.928693 
L 161.407103 69.928693 
L 162.999241 69.928693 
L 164.591378 69.928693 
L 166.183516 69.928693 
L 167.775653 69.928693 
" clip-path="url(#p77857c4a7f)" style="fill: none; stroke-dasharray: 1.5,2.475; stroke-dashoffset: 0; stroke: #000000; stroke-width: 1.5"/>
   </g>
   <g id="line2d_10">
    <path d="M 49.957472 142.908299 
L 51.549609 142.95683 
L 53.141747 143.294019 
L 54.733884 142.801516 
L 56.326022 141.534507 
L 57.91816 140.611754 
L 59.510297 139.431806 
L 61.102435 137.704755 
L 62.694572 135.641812 
L 64.28671 133.369253 
L 65.878848 130.923224 
L 67.470985 128.395551 
L 69.063123 125.912327 
L 70.65526 123.587167 
L 72.247398 121.509872 
L 73.839535 119.738713 
L 75.431673 118.294963 
L 77.023811 117.166393 
L 78.615948 116.317203 
L 80.208086 115.69971 
L 81.800223 115.264287 
L 83.392361 114.965857 
L 84.984499 114.766974 
L 86.576636 114.638422 
L 88.168774 114.558421 
L 89.760911 114.511257 
L 91.353049 114.485869 
L 92.945187 114.474615 
L 94.537324 114.472294 
L 96.129462 114.475413 
L 97.721599 114.481659 
L 99.313737 114.489525 
L 100.905875 114.498044 
L 102.498012 114.506614 
L 104.09015 114.514874 
L 105.682287 114.522623 
L 107.274425 114.529759 
L 108.866563 114.536248 
L 110.4587 114.542094 
L 112.050838 114.547326 
L 113.642975 114.551985 
L 115.235113 114.556119 
L 116.82725 114.559776 
L 118.419388 114.563004 
L 120.011526 114.565849 
L 121.603663 114.568354 
L 123.195801 114.570557 
L 124.787938 114.572493 
L 126.380076 114.574193 
L 127.972214 114.575686 
L 129.564351 114.576996 
L 131.156489 114.578145 
L 132.748626 114.579154 
L 134.340764 114.580039 
L 135.932902 114.580814 
L 137.525039 114.581495 
L 139.117177 114.582092 
L 140.709314 114.582615 
L 142.301452 114.583074 
L 143.89359 114.583476 
L 145.485727 114.583828 
L 147.077865 114.584138 
L 148.670002 114.584409 
L 150.26214 114.584646 
L 151.854277 114.584855 
L 153.446415 114.585038 
L 155.038553 114.585198 
L 156.63069 114.585338 
L 158.222828 114.585461 
L 159.814965 114.585569 
L 161.407103 114.585664 
L 162.999241 114.585747 
L 164.591378 114.58582 
L 166.183516 114.585884 
L 167.775653 114.585939 
" clip-path="url(#p77857c4a7f)" style="fill: none; stroke: #482475; stroke-width: 1.5; stroke-linecap: round"/>
   </g>
   <g id="line2d_11">
    <path d="M 49.957472 142.908299 
L 51.549609 142.95683 
L 53.141747 143.294019 
L 54.733884 143.022795 
L 56.326022 142.376782 
L 57.91816 142.277273 
L 59.510297 142.000134 
L 61.102435 141.382256 
L 62.694572 140.640264 
L 64.28671 139.818615 
L 65.878848 138.893493 
L 67.470985 137.887987 
L 69.063123 136.837657 
L 70.65526 135.767239 
L 72.247398 134.69939 
L 73.839535 133.657353 
L 75.431673 132.661547 
L 77.023811 131.728132 
L 78.615948 130.868925 
L 80.208086 130.091335 
L 81.800223 129.398543 
L 83.392361 128.790052 
L 84.984499 128.262448 
L 86.576636 127.810219 
L 88.168774 127.426532 
L 89.760911 127.103904 
L 91.353049 126.834734 
L 92.945187 126.611691 
L 94.537324 126.427965 
L 96.129462 126.277407 
L 97.721599 126.154588 
L 99.313737 126.054799 
L 100.905875 125.974013 
L 102.498012 125.908825 
L 104.09015 125.856385 
L 105.682287 125.81432 
L 107.274425 125.780674 
L 108.866563 125.753836 
L 110.4587 125.732492 
L 112.050838 125.715566 
L 113.642975 125.702189 
L 115.235113 125.691652 
L 116.82725 125.683386 
L 118.419388 125.676929 
L 120.011526 125.67191 
L 121.603663 125.668032 
L 123.195801 125.665056 
L 124.787938 125.662792 
L 126.380076 125.661086 
L 127.972214 125.659816 
L 129.564351 125.658887 
L 131.156489 125.658222 
L 132.748626 125.657759 
L 134.340764 125.657451 
L 135.932902 125.657261 
L 137.525039 125.657158 
L 139.117177 125.65712 
L 140.709314 125.657129 
L 142.301452 125.657171 
L 143.89359 125.657236 
L 145.485727 125.657315 
L 147.077865 125.657403 
L 148.670002 125.657495 
L 150.26214 125.657587 
L 151.854277 125.657677 
L 153.446415 125.657765 
L 155.038553 125.657847 
L 156.63069 125.657925 
L 158.222828 125.657998 
L 159.814965 125.658064 
L 161.407103 125.658126 
L 162.999241 125.658182 
L 164.591378 125.658233 
L 166.183516 125.658279 
L 167.775653 125.65832 
" clip-path="url(#p77857c4a7f)" style="fill: none; stroke: #355f8d; stroke-width: 1.5; stroke-linecap: round"/>
   </g>
   <g id="line2d_12">
    <path d="M 49.957472 142.908299 
L 51.549609 142.95683 
L 53.141747 143.294019 
L 54.733884 143.244074 
L 56.326022 143.196801 
L 57.91816 143.773445 
L 59.510297 144.151576 
L 61.102435 144.291986 
L 62.694572 144.402701 
L 64.28671 144.479596 
L 65.878848 144.494962 
L 67.470985 144.466007 
L 69.063123 144.406767 
L 70.65526 144.320438 
L 72.247398 144.211043 
L 73.839535 144.08375 
L 75.431673 143.942504 
L 77.023811 143.790414 
L 78.615948 143.630324 
L 80.208086 143.464742 
L 81.800223 143.295799 
L 83.392361 143.125323 
L 84.984499 142.954891 
L 86.576636 142.785841 
L 88.168774 142.619302 
L 89.760911 142.456213 
L 91.353049 142.297342 
L 92.945187 142.143311 
L 94.537324 141.994603 
L 96.129462 141.851586 
L 97.721599 141.71452 
L 99.313737 141.583577 
L 100.905875 141.458848 
L 102.498012 141.340355 
L 104.09015 141.228064 
L 105.682287 141.121892 
L 107.274425 141.021715 
L 108.866563 140.927377 
L 110.4587 140.838697 
L 112.050838 140.755472 
L 113.642975 140.677486 
L 115.235113 140.604513 
L 116.82725 140.536319 
L 118.419388 140.472668 
L 120.011526 140.413325 
L 121.603663 140.358054 
L 123.195801 140.306626 
L 124.787938 140.258815 
L 126.380076 140.214404 
L 127.972214 140.173182 
L 129.564351 140.134946 
L 131.156489 140.099505 
L 132.748626 140.066672 
L 134.340764 140.036273 
L 135.932902 140.008141 
L 137.525039 139.982121 
L 139.117177 139.958064 
L 140.709314 139.935831 
L 142.301452 139.915291 
L 143.89359 139.896322 
L 145.485727 139.878809 
L 147.077865 139.862646 
L 148.670002 139.847733 
L 150.26214 139.833976 
L 151.854277 139.821288 
L 153.446415 139.80959 
L 155.038553 139.798806 
L 156.63069 139.788866 
L 158.222828 139.779706 
L 159.814965 139.771266 
L 161.407103 139.763491 
L 162.999241 139.75633 
L 164.591378 139.749734 
L 166.183516 139.74366 
L 167.775653 139.738066 
" clip-path="url(#p77857c4a7f)" style="fill: none; stroke: #21918c; stroke-width: 1.5; stroke-linecap: round"/>
   </g>
   <g id="line2d_13">
    <path d="M 49.957472 142.908299 
L 51.549609 142.95683 
L 53.141747 143.294019 
L 54.733884 143.465353 
L 56.326022 143.994512 
L 57.91816 145.100916 
L 59.510297 145.914726 
L 61.102435 146.517211 
L 62.694572 147.093647 
L 64.28671 147.612806 
L 65.878848 148.060386 
L 67.470985 148.457996 
L 69.063123 148.815109 
L 70.65526 149.13447 
L 72.247398 149.421061 
L 73.839535 149.679641 
L 75.431673 149.913601 
L 77.023811 150.125848 
L 78.615948 150.319014 
L 80.208086 150.495337 
L 81.800223 150.65673 
L 83.392361 150.804864 
L 84.984499 150.941196 
L 86.576636 151.066996 
L 88.168774 151.183372 
L 89.760911 151.291299 
L 91.353049 151.391635 
L 92.945187 151.485131 
L 94.537324 151.572455 
L 96.129462 151.654193 
L 97.721599 151.730867 
L 99.313737 151.80294 
L 100.905875 151.870821 
L 102.498012 151.934877 
L 104.09015 151.995433 
L 105.682287 152.052782 
L 107.274425 152.107182 
L 108.866563 152.158868 
L 110.4587 152.208049 
L 112.050838 152.254914 
L 113.642975 152.299633 
L 115.235113 152.342358 
L 116.82725 152.383228 
L 118.419388 152.422368 
L 120.011526 152.459893 
L 121.603663 152.495905 
L 123.195801 152.530498 
L 124.787938 152.563758 
L 126.380076 152.595765 
L 127.972214 152.626589 
L 129.564351 152.656296 
L 131.156489 152.684948 
L 132.748626 152.712599 
L 134.340764 152.739302 
L 135.932902 152.765104 
L 137.525039 152.790049 
L 139.117177 152.814179 
L 140.709314 152.83753 
L 142.301452 152.860139 
L 143.89359 152.882038 
L 145.485727 152.903259 
L 147.077865 152.92383 
L 148.670002 152.943778 
L 150.26214 152.96313 
L 151.854277 152.981908 
L 153.446415 153.000136 
L 155.038553 153.017835 
L 156.63069 153.035024 
L 158.222828 153.051723 
L 159.814965 153.067951 
L 161.407103 153.083723 
L 162.999241 153.099056 
L 164.591378 153.113966 
L 166.183516 153.128468 
L 167.775653 153.142575 
" clip-path="url(#p77857c4a7f)" style="fill: none; stroke: #44bf70; stroke-width: 1.5; stroke-linecap: round"/>
   </g>
   <g id="line2d_14">
    <path d="M 49.957472 142.908299 
L 51.549609 142.95683 
L 53.141747 143.294019 
L 54.733884 143.686632 
L 56.326022 144.769864 
L 57.91816 146.260436 
L 59.510297 147.321006 
L 61.102435 148.149485 
L 62.694572 148.905304 
L 64.28671 149.553907 
L 65.878848 150.100964 
L 67.470985 150.573338 
L 69.063123 150.98227 
L 70.65526 151.335211 
L 72.247398 151.640767 
L 73.839535 151.905974 
L 75.431673 152.136347 
L 77.023811 152.336677 
L 78.615948 152.51109 
L 80.208086 152.663071 
L 81.800223 152.795604 
L 83.392361 152.911257 
L 84.984499 153.01224 
L 86.576636 153.100459 
L 88.168774 153.177561 
L 89.760911 153.244974 
L 91.353049 153.303936 
L 92.945187 153.355521 
L 94.537324 153.400665 
L 96.129462 153.44018 
L 97.721599 153.474775 
L 99.313737 153.505069 
L 100.905875 153.5316 
L 102.498012 153.554838 
L 104.09015 153.575195 
L 105.682287 153.593029 
L 107.274425 153.608656 
L 108.866563 153.622348 
L 110.4587 153.634347 
L 112.050838 153.644862 
L 113.642975 153.654078 
L 115.235113 153.662154 
L 116.82725 153.669234 
L 118.419388 153.675439 
L 120.011526 153.680878 
L 121.603663 153.685646 
L 123.195801 153.689825 
L 124.787938 153.693488 
L 126.380076 153.6967 
L 127.972214 153.699515 
L 129.564351 153.701983 
L 131.156489 153.704147 
L 132.748626 153.706044 
L 134.340764 153.707707 
L 135.932902 153.709165 
L 137.525039 153.710443 
L 139.117177 153.711563 
L 140.709314 153.712545 
L 142.301452 153.713407 
L 143.89359 153.714162 
L 145.485727 153.714824 
L 147.077865 153.715404 
L 148.670002 153.715913 
L 150.26214 153.716359 
L 151.854277 153.71675 
L 153.446415 153.717093 
L 155.038553 153.717393 
L 156.63069 153.717657 
L 158.222828 153.717888 
L 159.814965 153.71809 
L 161.407103 153.718268 
L 162.999241 153.718424 
L 164.591378 153.71856 
L 166.183516 153.71868 
L 167.775653 153.718785 
" clip-path="url(#p77857c4a7f)" style="fill: none; stroke: #bddf26; stroke-width: 1.5; stroke-linecap: round"/>
   </g>
   <g id="patch_3">
    <path d="M 44.066563 153.719531 
L 44.066563 24.119531 
" style="fill: none; stroke: #cccccc; stroke-linejoin: miter; stroke-linecap: square"/>
   </g>
   <g id="patch_4">
    <path d="M 173.666563 153.719531 
L 173.666563 24.119531 
" style="fill: none; stroke: #cccccc; stroke-linejoin: miter; stroke-linecap: square"/>
   </g>
   <g id="patch_5">
    <path d="M 44.066563 153.719531 
L 173.666563 153.719531 
" style="fill: none; stroke: #cccccc; stroke-linejoin: miter; stroke-linecap: square"/>
   </g>
   <g id="patch_6">
    <path d="M 44.066563 24.119531 
L 173.666563 24.119531 
" style="fill: none; stroke: #cccccc; stroke-linejoin: miter; stroke-linecap: square"/>
   </g>
   <g id="text_11">
    <!-- La Grange -->
    <g style="fill: #262626" transform="translate(73.427891 18.119531)scale(0.15 -0.15)">
     <defs>
      <path id="ArialMT-4c" d="M 469 0 
L 469 4581 
L 1075 4581 
L 1075 541 
L 3331 541 
L 3331 0 
L 469 0 
z
" transform="scale(0.015625)"/>
      <path id="ArialMT-47" d="M 2638 1797 
L 2638 2334 
L 4578 2338 
L 4578 638 
Q 4131 281 3656 101 
Q 3181 -78 2681 -78 
Q 2006 -78 1454 211 
Q 903 500 622 1047 
Q 341 1594 341 2269 
Q 341 2938 620 3517 
Q 900 4097 1425 4378 
Q 1950 4659 2634 4659 
Q 3131 4659 3532 4498 
Q 3934 4338 4162 4050 
Q 4391 3763 4509 3300 
L 3963 3150 
Q 3859 3500 3706 3700 
Q 3553 3900 3268 4020 
Q 2984 4141 2638 4141 
Q 2222 4141 1919 4014 
Q 1616 3888 1430 3681 
Q 1244 3475 1141 3228 
Q 966 2803 966 2306 
Q 966 1694 1177 1281 
Q 1388 869 1791 669 
Q 2194 469 2647 469 
Q 3041 469 3416 620 
Q 3791 772 3984 944 
L 3984 1797 
L 2638 1797 
z
" transform="scale(0.015625)"/>
      <path id="ArialMT-67" d="M 319 -275 
L 866 -356 
Q 900 -609 1056 -725 
Q 1266 -881 1628 -881 
Q 2019 -881 2231 -725 
Q 2444 -569 2519 -288 
Q 2563 -116 2559 434 
Q 2191 0 1641 0 
Q 956 0 581 494 
Q 206 988 206 1678 
Q 206 2153 378 2554 
Q 550 2956 876 3175 
Q 1203 3394 1644 3394 
Q 2231 3394 2613 2919 
L 2613 3319 
L 3131 3319 
L 3131 450 
Q 3131 -325 2973 -648 
Q 2816 -972 2473 -1159 
Q 2131 -1347 1631 -1347 
Q 1038 -1347 672 -1080 
Q 306 -813 319 -275 
z
M 784 1719 
Q 784 1066 1043 766 
Q 1303 466 1694 466 
Q 2081 466 2343 764 
Q 2606 1063 2606 1700 
Q 2606 2309 2336 2618 
Q 2066 2928 1684 2928 
Q 1309 2928 1046 2623 
Q 784 2319 784 1719 
z
" transform="scale(0.015625)"/>
     </defs>
     <use xlink:href="#ArialMT-4c"/>
     <use xlink:href="#ArialMT-61" x="55.615234"/>
     <use xlink:href="#ArialMT-20" x="111.230469"/>
     <use xlink:href="#ArialMT-47" x="139.013672"/>
     <use xlink:href="#ArialMT-72" x="216.796875"/>
     <use xlink:href="#ArialMT-61" x="250.097656"/>
     <use xlink:href="#ArialMT-6e" x="305.712891"/>
     <use xlink:href="#ArialMT-67" x="361.328125"/>
     <use xlink:href="#ArialMT-65" x="416.943359"/>
    </g>
   </g>
  </g>
  <g id="axes_2">
   <g id="patch_7">
    <path d="M 180.146563 153.719531 
L 309.746563 153.719531 
L 309.746563 24.119531 
L 180.146563 24.119531 
z
" style="fill: #ffffff"/>
   </g>
   <g id="matplotlib.axis_3">
    <g id="xtick_3">
     <g id="line2d_15">
      <path d="M 186.037472 153.719531 
L 186.037472 24.119531 
" clip-path="url(#p0c3c1bfd69)" style="fill: none; stroke: #cccccc; stroke-linecap: round"/>
     </g>
     <g id="text_12">
      <!-- 0 -->
      <g style="fill: #262626" transform="translate(182.978956 165.093125)scale(0.11 -0.11)">
       <use xlink:href="#ArialMT-30"/>
      </g>
     </g>
    </g>
    <g id="xtick_4">
     <g id="line2d_16">
      <path d="M 265.644351 153.719531 
L 265.644351 24.119531 
" clip-path="url(#p0c3c1bfd69)" style="fill: none; stroke: #cccccc; stroke-linecap: round"/>
     </g>
     <g id="text_13">
      <!-- 50 -->
      <g style="fill: #262626" transform="translate(259.52732 165.093125)scale(0.11 -0.11)">
       <use xlink:href="#ArialMT-35"/>
       <use xlink:href="#ArialMT-30" x="55.615234"/>
      </g>
     </g>
    </g>
    <g id="text_14">
     <!-- Years -->
     <g style="fill: #262626" transform="translate(226.039531 182.016094)scale(0.15 -0.15)">
      <use xlink:href="#ArialMT-59"/>
      <use xlink:href="#ArialMT-65" x="57.574219"/>
      <use xlink:href="#ArialMT-61" x="113.189453"/>
      <use xlink:href="#ArialMT-72" x="168.804688"/>
      <use xlink:href="#ArialMT-73" x="202.105469"/>
     </g>
    </g>
   </g>
   <g id="matplotlib.axis_4">
    <g id="ytick_7">
     <g id="line2d_17">
      <path d="M 180.146563 153.719531 
L 309.746563 153.719531 
" clip-path="url(#p0c3c1bfd69)" style="fill: none; stroke: #cccccc; stroke-linecap: round"/>
     </g>
    </g>
    <g id="ytick_8">
     <g id="line2d_18">
      <path d="M 180.146563 127.799531 
L 309.746563 127.799531 
" clip-path="url(#p0c3c1bfd69)" style="fill: none; stroke: #cccccc; stroke-linecap: round"/>
     </g>
    </g>
    <g id="ytick_9">
     <g id="line2d_19">
      <path d="M 180.146563 101.879531 
L 309.746563 101.879531 
" clip-path="url(#p0c3c1bfd69)" style="fill: none; stroke: #cccccc; stroke-linecap: round"/>
     </g>
    </g>
    <g id="ytick_10">
     <g id="line2d_20">
      <path d="M 180.146563 75.959531 
L 309.746563 75.959531 
" clip-path="url(#p0c3c1bfd69)" style="fill: none; stroke: #cccccc; stroke-linecap: round"/>
     </g>
    </g>
    <g id="ytick_11">
     <g id="line2d_21">
      <path d="M 180.146563 50.039531 
L 309.746563 50.039531 
" clip-path="url(#p0c3c1bfd69)" style="fill: none; stroke: #cccccc; stroke-linecap: round"/>
     </g>
    </g>
    <g id="ytick_12">
     <g id="line2d_22">
      <path d="M 180.146563 24.119531 
L 309.746563 24.119531 
" clip-path="url(#p0c3c1bfd69)" style="fill: none; stroke: #cccccc; stroke-linecap: round"/>
     </g>
    </g>
   </g>
   <g id="line2d_23">
    <path d="M 186.037472 138.610763 
L 187.629609 138.678586 
L 189.221747 139.149809 
L 190.813884 137.049955 
L 192.406022 131.531152 
L 193.99816 126.392846 
L 195.590297 121.170699 
L 197.182435 114.681592 
L 198.774572 107.303274 
L 200.36671 99.468708 
L 201.958848 91.277013 
L 203.550985 82.960117 
L 205.143123 74.877405 
L 206.73526 67.356961 
L 208.327398 60.653771 
L 209.919535 54.930984 
L 211.511673 50.243454 
L 213.103811 46.546951 
L 214.695948 43.727766 
L 216.288086 41.637662 
L 217.880223 40.123385 
L 219.472361 39.045951 
L 221.064499 38.289784 
L 222.656636 37.764428 
L 224.248774 37.402078 
L 225.840911 37.15344 
L 227.433049 36.983441 
L 229.025187 36.867497 
L 230.617324 36.788556 
L 232.209462 36.734871 
L 233.801599 36.698391 
L 235.393737 36.673615 
L 236.985875 36.656795 
L 238.578012 36.645378 
L 240.17015 36.637631 
L 241.762287 36.632374 
L 243.354425 36.628807 
L 244.946563 36.626387 
L 246.5387 36.624746 
L 248.130838 36.623632 
L 249.722975 36.622876 
L 251.315113 36.622364 
L 252.90725 36.622016 
L 254.499388 36.62178 
L 256.091526 36.62162 
L 257.683663 36.621512 
L 259.275801 36.621438 
L 260.867938 36.621388 
L 262.460076 36.621354 
L 264.052214 36.621331 
L 265.644351 36.621316 
L 267.236489 36.621305 
L 268.828626 36.621298 
L 270.420764 36.621293 
L 272.012902 36.62129 
L 273.605039 36.621288 
L 275.197177 36.621286 
L 276.789314 36.621285 
L 278.381452 36.621284 
L 279.97359 36.621284 
L 281.565727 36.621284 
L 283.157865 36.621283 
L 284.750002 36.621283 
L 286.34214 36.621283 
L 287.934277 36.621283 
L 289.526415 36.621283 
L 291.118553 36.621283 
L 292.71069 36.621283 
L 294.302828 36.621283 
L 295.894965 36.621283 
L 297.487103 36.621283 
L 299.079241 36.621283 
L 300.671378 36.621283 
L 302.263516 36.621283 
L 303.855653 36.621283 
" clip-path="url(#p0c3c1bfd69)" style="fill: none; stroke-dasharray: 1.5,2.475; stroke-dashoffset: 0; stroke: #000000; stroke-width: 1.5"/>
   </g>
   <g id="line2d_24">
    <path d="M 186.037472 138.610763 
L 187.629609 138.678586 
L 189.221747 139.149809 
L 190.813884 138.311746 
L 192.406022 136.143364 
L 193.99816 134.445408 
L 195.590297 132.417264 
L 197.182435 129.57123 
L 198.774572 126.211239 
L 200.36671 122.540979 
L 201.958848 118.616122 
L 203.550985 114.575987 
L 205.143123 110.61623 
L 206.73526 106.913593 
L 208.327398 103.607312 
L 209.919535 100.787495 
L 211.511673 98.486536 
L 213.103811 96.684465 
L 214.695948 95.324493 
L 216.288086 94.331325 
L 217.880223 93.626705 
L 219.472361 93.139573 
L 221.064499 92.810885 
L 222.656636 92.59455 
L 224.248774 92.456161 
L 225.840911 92.37086 
L 227.433049 92.321106 
L 229.025187 92.294744 
L 230.617324 92.283467 
L 232.209462 92.281667 
L 233.801599 92.285599 
L 235.393737 92.292796 
L 236.985875 92.301653 
L 238.578012 92.311147 
L 240.17015 92.320644 
L 241.762287 92.329766 
L 243.354425 92.338302 
L 244.946563 92.346151 
L 246.5387 92.35328 
L 248.130838 92.359698 
L 249.722975 92.365438 
L 251.315113 92.370547 
L 252.90725 92.375079 
L 254.499388 92.379086 
L 256.091526 92.382624 
L 257.683663 92.385741 
L 259.275801 92.388485 
L 260.867938 92.390898 
L 262.460076 92.393019 
L 264.052214 92.394881 
L 265.644351 92.396516 
L 267.236489 92.397951 
L 268.828626 92.39921 
L 270.420764 92.400315 
L 272.012902 92.401284 
L 273.605039 92.402134 
L 275.197177 92.402879 
L 276.789314 92.403532 
L 278.381452 92.404105 
L 279.97359 92.404608 
L 281.565727 92.405048 
L 283.157865 92.405434 
L 284.750002 92.405773 
L 286.34214 92.40607 
L 287.934277 92.40633 
L 289.526415 92.406559 
L 291.118553 92.406759 
L 292.71069 92.406934 
L 294.302828 92.407088 
L 295.894965 92.407223 
L 297.487103 92.407341 
L 299.079241 92.407445 
L 300.671378 92.407536 
L 302.263516 92.407615 
L 303.855653 92.407685 
" clip-path="url(#p0c3c1bfd69)" style="fill: none; stroke: #482475; stroke-width: 1.5; stroke-linecap: round"/>
   </g>
   <g id="line2d_25">
    <path d="M 186.037472 138.610763 
L 187.629609 138.678586 
L 189.221747 139.149809 
L 190.813884 138.658431 
L 192.406022 137.462987 
L 193.99816 137.054836 
L 195.590297 136.441153 
L 197.182435 135.332899 
L 198.774572 134.042488 
L 200.36671 132.64542 
L 201.958848 131.103421 
L 203.550985 129.448121 
L 205.143123 127.733329 
L 206.73526 125.99654 
L 208.327398 124.271794 
L 209.919535 122.594318 
L 211.511673 120.995168 
L 213.103811 119.498852 
L 214.695948 118.123187 
L 216.288086 116.87919 
L 217.880223 115.77134 
L 219.472361 114.798423 
L 221.064499 113.954719 
L 222.656636 113.231267 
L 224.248774 112.617083 
L 225.840911 112.100201 
L 227.433049 111.668505 
L 229.025187 111.310327 
L 230.617324 111.014838 
L 232.209462 110.772266 
L 233.801599 110.573987 
L 235.393737 110.412517 
L 236.985875 110.281457 
L 238.578012 110.175393 
L 240.17015 110.089787 
L 241.762287 110.020865 
L 243.354425 109.965505 
L 244.946563 109.921141 
L 246.5387 109.885669 
L 248.130838 109.857372 
L 249.722975 109.834854 
L 251.315113 109.816979 
L 252.90725 109.80283 
L 254.499388 109.791663 
L 256.091526 109.782879 
L 257.683663 109.775997 
L 259.275801 109.770628 
L 260.867938 109.76646 
L 262.460076 109.763243 
L 264.052214 109.760778 
L 265.644351 109.758905 
L 267.236489 109.757496 
L 268.828626 109.75645 
L 270.420764 109.755686 
L 272.012902 109.755141 
L 273.605039 109.754764 
L 275.197177 109.754515 
L 276.789314 109.754363 
L 278.381452 109.754283 
L 279.97359 109.754257 
L 281.565727 109.754269 
L 283.157865 109.754308 
L 284.750002 109.754365 
L 286.34214 109.754434 
L 287.934277 109.75451 
L 289.526415 109.754589 
L 291.118553 109.754668 
L 292.71069 109.754745 
L 294.302828 109.754819 
L 295.894965 109.75489 
L 297.487103 109.754956 
L 299.079241 109.755017 
L 300.671378 109.755074 
L 302.263516 109.755126 
L 303.855653 109.755173 
" clip-path="url(#p0c3c1bfd69)" style="fill: none; stroke: #355f8d; stroke-width: 1.5; stroke-linecap: round"/>
   </g>
   <g id="line2d_26">
    <path d="M 186.037472 138.610763 
L 187.629609 138.678586 
L 189.221747 139.149809 
L 190.813884 139.005117 
L 192.406022 138.747739 
L 193.99816 139.39894 
L 195.590297 139.811893 
L 197.182435 139.891676 
L 198.774572 139.937232 
L 200.36671 139.947943 
L 201.958848 139.87944 
L 203.550985 139.754136 
L 205.143123 139.592119 
L 206.73526 139.397136 
L 208.327398 139.174035 
L 209.919535 138.92972 
L 211.511673 138.669439 
L 213.103811 138.397253 
L 214.695948 138.116918 
L 216.288086 137.831776 
L 217.880223 137.544658 
L 219.472361 137.257997 
L 221.064499 136.973885 
L 222.656636 136.6941 
L 224.248774 136.42013 
L 225.840911 136.153203 
L 227.433049 135.894317 
L 229.025187 135.644261 
L 230.617324 135.403636 
L 232.209462 135.172878 
L 233.801599 134.952279 
L 235.393737 134.741999 
L 236.985875 134.542092 
L 238.578012 134.352512 
L 240.17015 134.173137 
L 241.762287 134.003775 
L 243.354425 133.84418 
L 244.946563 133.69406 
L 246.5387 133.553091 
L 248.130838 133.42092 
L 249.722975 133.297178 
L 251.315113 133.181481 
L 252.90725 133.073441 
L 254.499388 132.972668 
L 256.091526 132.878772 
L 257.683663 132.79137 
L 259.275801 132.710088 
L 260.867938 132.634561 
L 262.460076 132.564437 
L 264.052214 132.499377 
L 265.644351 132.439055 
L 267.236489 132.383161 
L 268.828626 132.331399 
L 270.420764 132.283491 
L 272.012902 132.23917 
L 273.605039 132.198187 
L 275.197177 132.160306 
L 276.789314 132.125306 
L 278.381452 132.09298 
L 279.97359 132.063132 
L 281.565727 132.035583 
L 283.157865 132.010162 
L 284.750002 131.98671 
L 286.34214 131.965081 
L 287.934277 131.945137 
L 289.526415 131.92675 
L 291.118553 131.909803 
L 292.71069 131.894186 
L 294.302828 131.879796 
L 295.894965 131.866539 
L 297.487103 131.854327 
L 299.079241 131.843081 
L 300.671378 131.832723 
L 302.263516 131.823186 
L 303.855653 131.814406 
" clip-path="url(#p0c3c1bfd69)" style="fill: none; stroke: #21918c; stroke-width: 1.5; stroke-linecap: round"/>
   </g>
   <g id="line2d_27">
    <path d="M 186.037472 138.610763 
L 187.629609 138.678586 
L 189.221747 139.149809 
L 190.813884 139.351803 
L 192.406022 139.997541 
L 193.99816 141.478736 
L 195.590297 142.574282 
L 197.182435 143.378015 
L 198.774572 144.153231 
L 200.36671 144.856852 
L 201.958848 145.465514 
L 203.550985 146.008526 
L 205.143123 146.498823 
L 206.73526 146.93945 
L 208.327398 147.336753 
L 209.919535 147.696998 
L 211.511673 148.024566 
L 213.103811 148.323201 
L 214.695948 148.596325 
L 216.288086 148.846856 
L 217.880223 149.077288 
L 219.472361 149.289803 
L 221.064499 149.48631 
L 222.656636 149.668475 
L 224.248774 149.837758 
L 225.840911 149.995444 
L 227.433049 150.142664 
L 229.025187 150.280419 
L 230.617324 150.409592 
L 232.209462 150.530968 
L 233.801599 150.645241 
L 235.393737 150.753033 
L 236.985875 150.854896 
L 238.578012 150.951322 
L 240.17015 151.042752 
L 241.762287 151.129584 
L 243.354425 151.21217 
L 244.946563 151.290831 
L 246.5387 151.365855 
L 248.130838 151.437501 
L 249.722975 151.506003 
L 251.315113 151.571575 
L 252.90725 151.63441 
L 254.499388 151.694682 
L 256.091526 151.752553 
L 257.683663 151.808167 
L 259.275801 151.861658 
L 260.867938 151.913149 
L 262.460076 151.962751 
L 264.052214 152.010567 
L 265.644351 152.056693 
L 267.236489 152.101217 
L 268.828626 152.144218 
L 270.420764 152.185773 
L 272.012902 152.225951 
L 273.605039 152.264818 
L 275.197177 152.302432 
L 276.789314 152.338851 
L 278.381452 152.374127 
L 279.97359 152.40831 
L 281.565727 152.441445 
L 283.157865 152.473576 
L 284.750002 152.504744 
L 286.34214 152.534987 
L 287.934277 152.564342 
L 289.526415 152.592842 
L 291.118553 152.62052 
L 292.71069 152.647407 
L 294.302828 152.673531 
L 295.894965 152.698921 
L 297.487103 152.723602 
L 299.079241 152.747599 
L 300.671378 152.770936 
L 302.263516 152.793636 
L 303.855653 152.815719 
" clip-path="url(#p0c3c1bfd69)" style="fill: none; stroke: #44bf70; stroke-width: 1.5; stroke-linecap: round"/>
   </g>
   <g id="line2d_28">
    <path d="M 186.037472 138.610763 
L 187.629609 138.678586 
L 189.221747 139.149809 
L 190.813884 139.698489 
L 192.406022 141.212313 
L 193.99816 143.295396 
L 195.590297 144.777551 
L 197.182435 145.935355 
L 198.774572 146.991616 
L 200.36671 147.898044 
L 201.958848 148.662559 
L 203.550985 149.322705 
L 205.143123 149.89419 
L 206.73526 150.387428 
L 208.327398 150.814445 
L 209.919535 151.185074 
L 211.511673 151.507021 
L 213.103811 151.786983 
L 214.695948 152.030726 
L 216.288086 152.243122 
L 217.880223 152.428337 
L 219.472361 152.589963 
L 221.064499 152.731088 
L 222.656636 152.854374 
L 224.248774 152.962125 
L 225.840911 153.056335 
L 227.433049 153.138734 
L 229.025187 153.210825 
L 230.617324 153.273913 
L 232.209462 153.329136 
L 233.801599 153.377483 
L 235.393737 153.419819 
L 236.985875 153.456895 
L 238.578012 153.489371 
L 240.17015 153.51782 
L 241.762287 153.542744 
L 243.354425 153.564582 
L 244.946563 153.583717 
L 246.5387 153.600485 
L 248.130838 153.61518 
L 249.722975 153.628059 
L 251.315113 153.639347 
L 252.90725 153.64924 
L 254.499388 153.657912 
L 256.091526 153.665513 
L 257.683663 153.672176 
L 259.275801 153.678016 
L 260.867938 153.683136 
L 262.460076 153.687624 
L 264.052214 153.691559 
L 265.644351 153.695008 
L 267.236489 153.698032 
L 268.828626 153.700683 
L 270.420764 153.703006 
L 272.012902 153.705044 
L 273.605039 153.70683 
L 275.197177 153.708396 
L 276.789314 153.709769 
L 278.381452 153.710972 
L 279.97359 153.712027 
L 281.565727 153.712952 
L 283.157865 153.713763 
L 284.750002 153.714474 
L 286.34214 153.715098 
L 287.934277 153.715644 
L 289.526415 153.716123 
L 291.118553 153.716543 
L 292.71069 153.716912 
L 294.302828 153.717235 
L 295.894965 153.717518 
L 297.487103 153.717766 
L 299.079241 153.717984 
L 300.671378 153.718174 
L 302.263516 153.718342 
L 303.855653 153.718488 
" clip-path="url(#p0c3c1bfd69)" style="fill: none; stroke: #bddf26; stroke-width: 1.5; stroke-linecap: round"/>
   </g>
   <g id="patch_8">
    <path d="M 180.146563 153.719531 
L 180.146563 24.119531 
" style="fill: none; stroke: #cccccc; stroke-linejoin: miter; stroke-linecap: square"/>
   </g>
   <g id="patch_9">
    <path d="M 309.746563 153.719531 
L 309.746563 24.119531 
" style="fill: none; stroke: #cccccc; stroke-linejoin: miter; stroke-linecap: square"/>
   </g>
   <g id="patch_10">
    <path d="M 180.146563 153.719531 
L 309.746563 153.719531 
" style="fill: none; stroke: #cccccc; stroke-linejoin: miter; stroke-linecap: square"/>
   </g>
   <g id="patch_11">
    <path d="M 180.146563 24.119531 
L 309.746563 24.119531 
" style="fill: none; stroke: #cccccc; stroke-linejoin: miter; stroke-linecap: square"/>
   </g>
   <g id="text_15">
    <!-- Peoria -->
    <g style="fill: #262626" transform="translate(223.268047 18.119531)scale(0.15 -0.15)">
     <use xlink:href="#ArialMT-50"/>
     <use xlink:href="#ArialMT-65" x="66.699219"/>
     <use xlink:href="#ArialMT-6f" x="122.314453"/>
     <use xlink:href="#ArialMT-72" x="177.929688"/>
     <use xlink:href="#ArialMT-69" x="211.230469"/>
     <use xlink:href="#ArialMT-61" x="233.447266"/>
    </g>
   </g>
  </g>
  <g id="legend_1">
   <g id="patch_12">
    <path d="M 316.945312 159.169578 
L 416.066562 159.169578 
Q 418.266562 159.169578 418.266562 156.969578 
L 418.266562 35.227766 
Q 418.266562 33.027766 416.066562 33.027766 
L 316.945312 33.027766 
Q 314.745312 33.027766 314.745312 35.227766 
L 314.745312 156.969578 
Q 314.745312 159.169578 316.945312 159.169578 
z
" style="fill: #ffffff; opacity: 0.8; stroke: #cccccc; stroke-linejoin: miter"/>
   </g>
   <g id="text_16">
    <!-- Harvest Rate in  -->
    <g style="fill: #262626" transform="translate(319.145312 46.017141)scale(0.12 -0.12)">
     <defs>
      <path id="ArialMT-48" d="M 513 0 
L 513 4581 
L 1119 4581 
L 1119 2700 
L 3500 2700 
L 3500 4581 
L 4106 4581 
L 4106 0 
L 3500 0 
L 3500 2159 
L 1119 2159 
L 1119 0 
L 513 0 
z
" transform="scale(0.015625)"/>
      <path id="ArialMT-76" d="M 1344 0 
L 81 3319 
L 675 3319 
L 1388 1331 
Q 1503 1009 1600 663 
Q 1675 925 1809 1294 
L 2547 3319 
L 3125 3319 
L 1869 0 
L 1344 0 
z
" transform="scale(0.015625)"/>
      <path id="ArialMT-52" d="M 503 0 
L 503 4581 
L 2534 4581 
Q 3147 4581 3465 4457 
Q 3784 4334 3975 4021 
Q 4166 3709 4166 3331 
Q 4166 2844 3850 2509 
Q 3534 2175 2875 2084 
Q 3116 1969 3241 1856 
Q 3506 1613 3744 1247 
L 4541 0 
L 3778 0 
L 3172 953 
Q 2906 1366 2734 1584 
Q 2563 1803 2427 1890 
Q 2291 1978 2150 2013 
Q 2047 2034 1813 2034 
L 1109 2034 
L 1109 0 
L 503 0 
z
M 1109 2559 
L 2413 2559 
Q 2828 2559 3062 2645 
Q 3297 2731 3419 2920 
Q 3541 3109 3541 3331 
Q 3541 3656 3305 3865 
Q 3069 4075 2559 4075 
L 1109 4075 
L 1109 2559 
z
" transform="scale(0.015625)"/>
     </defs>
     <use xlink:href="#ArialMT-48"/>
     <use xlink:href="#ArialMT-61" x="72.216797"/>
     <use xlink:href="#ArialMT-72" x="127.832031"/>
     <use xlink:href="#ArialMT-76" x="161.132812"/>
     <use xlink:href="#ArialMT-65" x="211.132812"/>
     <use xlink:href="#ArialMT-73" x="266.748047"/>
     <use xlink:href="#ArialMT-74" x="316.748047"/>
     <use xlink:href="#ArialMT-20" x="344.53125"/>
     <use xlink:href="#ArialMT-52" x="372.314453"/>
     <use xlink:href="#ArialMT-61" x="444.53125"/>
     <use xlink:href="#ArialMT-74" x="500.146484"/>
     <use xlink:href="#ArialMT-65" x="527.929688"/>
     <use xlink:href="#ArialMT-20" x="583.544922"/>
     <use xlink:href="#ArialMT-69" x="611.328125"/>
     <use xlink:href="#ArialMT-6e" x="633.544922"/>
     <use xlink:href="#ArialMT-20" x="689.160156"/>
    </g>
    <!-- La Grange/Peoria -->
    <g style="fill: #262626" transform="translate(319.145312 58.884891)scale(0.12 -0.12)">
     <defs>
      <path id="ArialMT-2f" d="M 0 -78 
L 1328 4659 
L 1778 4659 
L 453 -78 
L 0 -78 
z
" transform="scale(0.015625)"/>
     </defs>
     <use xlink:href="#ArialMT-4c"/>
     <use xlink:href="#ArialMT-61" x="55.615234"/>
     <use xlink:href="#ArialMT-20" x="111.230469"/>
     <use xlink:href="#ArialMT-47" x="139.013672"/>
     <use xlink:href="#ArialMT-72" x="216.796875"/>
     <use xlink:href="#ArialMT-61" x="250.097656"/>
     <use xlink:href="#ArialMT-6e" x="305.712891"/>
     <use xlink:href="#ArialMT-67" x="361.328125"/>
     <use xlink:href="#ArialMT-65" x="416.943359"/>
     <use xlink:href="#ArialMT-2f" x="472.558594"/>
     <use xlink:href="#ArialMT-50" x="500.341797"/>
     <use xlink:href="#ArialMT-65" x="567.041016"/>
     <use xlink:href="#ArialMT-6f" x="622.65625"/>
     <use xlink:href="#ArialMT-72" x="678.271484"/>
     <use xlink:href="#ArialMT-69" x="711.572266"/>
     <use xlink:href="#ArialMT-61" x="733.789062"/>
    </g>
   </g>
   <g id="line2d_29">
    <path d="M 327.5625 70.934109 
L 338.5625 70.934109 
L 349.5625 70.934109 
" style="fill: none; stroke-dasharray: 1.5,2.475; stroke-dashoffset: 0; stroke: #000000; stroke-width: 1.5"/>
   </g>
   <g id="text_17">
    <!-- 0%/0% -->
    <g style="fill: #262626" transform="translate(358.3625 74.784109)scale(0.11 -0.11)">
     <defs>
      <path id="ArialMT-25" d="M 372 3481 
Q 372 3972 619 4315 
Q 866 4659 1334 4659 
Q 1766 4659 2048 4351 
Q 2331 4044 2331 3447 
Q 2331 2866 2045 2552 
Q 1759 2238 1341 2238 
Q 925 2238 648 2547 
Q 372 2856 372 3481 
z
M 1350 4272 
Q 1141 4272 1002 4090 
Q 863 3909 863 3425 
Q 863 2984 1003 2804 
Q 1144 2625 1350 2625 
Q 1563 2625 1702 2806 
Q 1841 2988 1841 3469 
Q 1841 3913 1700 4092 
Q 1559 4272 1350 4272 
z
M 1353 -169 
L 3859 4659 
L 4316 4659 
L 1819 -169 
L 1353 -169 
z
M 3334 1075 
Q 3334 1569 3581 1911 
Q 3828 2253 4300 2253 
Q 4731 2253 5014 1945 
Q 5297 1638 5297 1041 
Q 5297 459 5011 145 
Q 4725 -169 4303 -169 
Q 3888 -169 3611 142 
Q 3334 453 3334 1075 
z
M 4316 1866 
Q 4103 1866 3964 1684 
Q 3825 1503 3825 1019 
Q 3825 581 3965 400 
Q 4106 219 4313 219 
Q 4528 219 4667 400 
Q 4806 581 4806 1063 
Q 4806 1506 4665 1686 
Q 4525 1866 4316 1866 
z
" transform="scale(0.015625)"/>
     </defs>
     <use xlink:href="#ArialMT-30"/>
     <use xlink:href="#ArialMT-25" x="55.615234"/>
     <use xlink:href="#ArialMT-2f" x="144.53125"/>
     <use xlink:href="#ArialMT-30" x="172.314453"/>
     <use xlink:href="#ArialMT-25" x="227.929688"/>
    </g>
   </g>
   <g id="line2d_30">
    <path d="M 327.5625 86.493953 
L 338.5625 86.493953 
L 349.5625 86.493953 
" style="fill: none; stroke: #482475; stroke-width: 1.5; stroke-linecap: round"/>
   </g>
   <g id="text_18">
    <!-- 40%/0% -->
    <g style="fill: #262626" transform="translate(358.3625 90.343953)scale(0.11 -0.11)">
     <use xlink:href="#ArialMT-34"/>
     <use xlink:href="#ArialMT-30" x="55.615234"/>
     <use xlink:href="#ArialMT-25" x="111.230469"/>
     <use xlink:href="#ArialMT-2f" x="200.146484"/>
     <use xlink:href="#ArialMT-30" x="227.929688"/>
     <use xlink:href="#ArialMT-25" x="283.544922"/>
    </g>
   </g>
   <g id="line2d_31">
    <path d="M 327.5625 102.053797 
L 338.5625 102.053797 
L 349.5625 102.053797 
" style="fill: none; stroke: #355f8d; stroke-width: 1.5; stroke-linecap: round"/>
   </g>
   <g id="text_19">
    <!-- 40%/10% -->
    <g style="fill: #262626" transform="translate(358.3625 105.903797)scale(0.11 -0.11)">
     <use xlink:href="#ArialMT-34"/>
     <use xlink:href="#ArialMT-30" x="55.615234"/>
     <use xlink:href="#ArialMT-25" x="111.230469"/>
     <use xlink:href="#ArialMT-2f" x="200.146484"/>
     <use xlink:href="#ArialMT-31" x="227.929688"/>
     <use xlink:href="#ArialMT-30" x="283.544922"/>
     <use xlink:href="#ArialMT-25" x="339.160156"/>
    </g>
   </g>
   <g id="line2d_32">
    <path d="M 327.5625 117.613641 
L 338.5625 117.613641 
L 349.5625 117.613641 
" style="fill: none; stroke: #21918c; stroke-width: 1.5; stroke-linecap: round"/>
   </g>
   <g id="text_20">
    <!-- 40%/20% -->
    <g style="fill: #262626" transform="translate(358.3625 121.463641)scale(0.11 -0.11)">
     <use xlink:href="#ArialMT-34"/>
     <use xlink:href="#ArialMT-30" x="55.615234"/>
     <use xlink:href="#ArialMT-25" x="111.230469"/>
     <use xlink:href="#ArialMT-2f" x="200.146484"/>
     <use xlink:href="#ArialMT-32" x="227.929688"/>
     <use xlink:href="#ArialMT-30" x="283.544922"/>
     <use xlink:href="#ArialMT-25" x="339.160156"/>
    </g>
   </g>
   <g id="line2d_33">
    <path d="M 327.5625 133.173484 
L 338.5625 133.173484 
L 349.5625 133.173484 
" style="fill: none; stroke: #44bf70; stroke-width: 1.5; stroke-linecap: round"/>
   </g>
   <g id="text_21">
    <!-- 40%/30% -->
    <g style="fill: #262626" transform="translate(358.3625 137.023484)scale(0.11 -0.11)">
     <defs>
      <path id="ArialMT-33" d="M 269 1209 
L 831 1284 
Q 928 806 1161 595 
Q 1394 384 1728 384 
Q 2125 384 2398 659 
Q 2672 934 2672 1341 
Q 2672 1728 2419 1979 
Q 2166 2231 1775 2231 
Q 1616 2231 1378 2169 
L 1441 2663 
Q 1497 2656 1531 2656 
Q 1891 2656 2178 2843 
Q 2466 3031 2466 3422 
Q 2466 3731 2256 3934 
Q 2047 4138 1716 4138 
Q 1388 4138 1169 3931 
Q 950 3725 888 3313 
L 325 3413 
Q 428 3978 793 4289 
Q 1159 4600 1703 4600 
Q 2078 4600 2393 4439 
Q 2709 4278 2876 4000 
Q 3044 3722 3044 3409 
Q 3044 3113 2884 2869 
Q 2725 2625 2413 2481 
Q 2819 2388 3044 2092 
Q 3269 1797 3269 1353 
Q 3269 753 2831 336 
Q 2394 -81 1725 -81 
Q 1122 -81 723 278 
Q 325 638 269 1209 
z
" transform="scale(0.015625)"/>
     </defs>
     <use xlink:href="#ArialMT-34"/>
     <use xlink:href="#ArialMT-30" x="55.615234"/>
     <use xlink:href="#ArialMT-25" x="111.230469"/>
     <use xlink:href="#ArialMT-2f" x="200.146484"/>
     <use xlink:href="#ArialMT-33" x="227.929688"/>
     <use xlink:href="#ArialMT-30" x="283.544922"/>
     <use xlink:href="#ArialMT-25" x="339.160156"/>
    </g>
   </g>
   <g id="line2d_34">
    <path d="M 327.5625 148.733328 
L 338.5625 148.733328 
L 349.5625 148.733328 
" style="fill: none; stroke: #bddf26; stroke-width: 1.5; stroke-linecap: round"/>
   </g>
   <g id="text_22">
    <!-- 40%/40% -->
    <g style="fill: #262626" transform="translate(358.3625 152.583328)scale(0.11 -0.11)">
     <use xlink:href="#ArialMT-34"/>
     <use xlink:href="#ArialMT-30" x="55.615234"/>
     <use xlink:href="#ArialMT-25" x="111.230469"/>
     <use xlink:href="#ArialMT-2f" x="200.146484"/>
     <use xlink:href="#ArialMT-34" x="227.929688"/>
     <use xlink:href="#ArialMT-30" x="283.544922"/>
     <use xlink:href="#ArialMT-25" x="339.160156"/>
    </g>
   </g>
  </g>
 </g>
 <defs>
  <clipPath id="p77857c4a7f">
   <rect x="44.066563" y="24.119531" width="129.6" height="129.6"/>
  </clipPath>
  <clipPath id="p0c3c1bfd69">
   <rect x="180.146563" y="24.119531" width="129.6" height="129.6"/>
  </clipPath>
 </defs>
</svg>
