<?xml version="1.0" encoding="utf-8" standalone="no"?>
<!DOCTYPE svg PUBLIC "-//W3C//DTD SVG 1.1//EN"
  "http://www.w3.org/Graphics/SVG/1.1/DTD/svg11.dtd">
<svg xmlns:xlink="http://www.w3.org/1999/xlink" width="430.814687pt" height="204.841246pt" viewBox="0 0 430.814687 204.841246" xmlns="http://www.w3.org/2000/svg" version="1.1">
 <metadata>
  <rdf:RDF xmlns:dc="http://purl.org/dc/elements/1.1/" xmlns:cc="http://creativecommons.org/ns#" xmlns:rdf="http://www.w3.org/1999/02/22-rdf-syntax-ns#">
   <cc:Work>
    <dc:type rdf:resource="http://purl.org/dc/dcmitype/StillImage"/>
    <dc:date>2022-10-12T15:03:30.426170</dc:date>
    <dc:format>image/svg+xml</dc:format>
    <dc:creator>
     <cc:Agent>
      <dc:title>Matplotlib v3.5.1, https://matplotlib.org/</dc:title>
     </cc:Agent>
    </dc:creator>
   </cc:Work>
  </rdf:RDF>
 </metadata>
 <defs>
  <style type="text/css">*{stroke-linejoin: round; stroke-linecap: butt}</style>
 </defs>
 <g id="figure_1">
  <g id="patch_1">
   <path d="M 0 204.841246 
L 430.814687 204.841246 
L 430.814687 0 
L 0 0 
z
" style="fill: #ffffff"/>
  </g>
  <g id="axes_1">
   <g id="patch_2">
    <path d="M 51.114688 166.363434 
L 193.35859 166.363434 
L 193.35859 24.119531 
L 51.114688 24.119531 
z
" style="fill: #ffffff"/>
   </g>
   <g id="matplotlib.axis_1">
    <g id="xtick_1">
     <g id="line2d_1">
      <path d="M 78.106135 166.363434 
L 78.106135 24.119531 
" clip-path="url(#p345a934816)" style="fill: none; stroke: #cccccc; stroke-linecap: round"/>
     </g>
     <g id="text_1">
      <!-- 20 -->
      <g style="fill: #262626" transform="translate(71.989104 177.737027)scale(0.11 -0.11)">
       <defs>
        <path id="ArialMT-32" d="M 3222 541 
L 3222 0 
L 194 0 
Q 188 203 259 391 
Q 375 700 629 1000 
Q 884 1300 1366 1694 
Q 2113 2306 2375 2664 
Q 2638 3022 2638 3341 
Q 2638 3675 2398 3904 
Q 2159 4134 1775 4134 
Q 1369 4134 1125 3890 
Q 881 3647 878 3216 
L 300 3275 
Q 359 3922 746 4261 
Q 1134 4600 1788 4600 
Q 2447 4600 2831 4234 
Q 3216 3869 3216 3328 
Q 3216 3053 3103 2787 
Q 2991 2522 2730 2228 
Q 2469 1934 1863 1422 
Q 1356 997 1212 845 
Q 1069 694 975 541 
L 3222 541 
z
" transform="scale(0.015625)"/>
        <path id="ArialMT-30" d="M 266 2259 
Q 266 3072 433 3567 
Q 600 4063 929 4331 
Q 1259 4600 1759 4600 
Q 2128 4600 2406 4451 
Q 2684 4303 2865 4023 
Q 3047 3744 3150 3342 
Q 3253 2941 3253 2259 
Q 3253 1453 3087 958 
Q 2922 463 2592 192 
Q 2263 -78 1759 -78 
Q 1097 -78 719 397 
Q 266 969 266 2259 
z
M 844 2259 
Q 844 1131 1108 757 
Q 1372 384 1759 384 
Q 2147 384 2411 759 
Q 2675 1134 2675 2259 
Q 2675 3391 2411 3762 
Q 2147 4134 1753 4134 
Q 1366 4134 1134 3806 
Q 844 3388 844 2259 
z
" transform="scale(0.015625)"/>
       </defs>
       <use xlink:href="#ArialMT-32"/>
       <use xlink:href="#ArialMT-30" x="55.615234"/>
      </g>
     </g>
    </g>
    <g id="xtick_2">
     <g id="line2d_2">
      <path d="M 119.157766 166.363434 
L 119.157766 24.119531 
" clip-path="url(#p345a934816)" style="fill: none; stroke: #cccccc; stroke-linecap: round"/>
     </g>
     <g id="text_2">
      <!-- 40 -->
      <g style="fill: #262626" transform="translate(113.040735 177.737027)scale(0.11 -0.11)">
       <defs>
        <path id="ArialMT-34" d="M 2069 0 
L 2069 1097 
L 81 1097 
L 81 1613 
L 2172 4581 
L 2631 4581 
L 2631 1613 
L 3250 1613 
L 3250 1097 
L 2631 1097 
L 2631 0 
L 2069 0 
z
M 2069 1613 
L 2069 3678 
L 634 1613 
L 2069 1613 
z
" transform="scale(0.015625)"/>
       </defs>
       <use xlink:href="#ArialMT-34"/>
       <use xlink:href="#ArialMT-30" x="55.615234"/>
      </g>
     </g>
    </g>
    <g id="xtick_3">
     <g id="line2d_3">
      <path d="M 160.209398 166.363434 
L 160.209398 24.119531 
" clip-path="url(#p345a934816)" style="fill: none; stroke: #cccccc; stroke-linecap: round"/>
     </g>
     <g id="text_3">
      <!-- 60 -->
      <g style="fill: #262626" transform="translate(154.092366 177.737027)scale(0.11 -0.11)">
       <defs>
        <path id="ArialMT-36" d="M 3184 3459 
L 2625 3416 
Q 2550 3747 2413 3897 
Q 2184 4138 1850 4138 
Q 1581 4138 1378 3988 
Q 1113 3794 959 3422 
Q 806 3050 800 2363 
Q 1003 2672 1297 2822 
Q 1591 2972 1913 2972 
Q 2475 2972 2870 2558 
Q 3266 2144 3266 1488 
Q 3266 1056 3080 686 
Q 2894 316 2569 119 
Q 2244 -78 1831 -78 
Q 1128 -78 684 439 
Q 241 956 241 2144 
Q 241 3472 731 4075 
Q 1159 4600 1884 4600 
Q 2425 4600 2770 4297 
Q 3116 3994 3184 3459 
z
M 888 1484 
Q 888 1194 1011 928 
Q 1134 663 1356 523 
Q 1578 384 1822 384 
Q 2178 384 2434 671 
Q 2691 959 2691 1453 
Q 2691 1928 2437 2201 
Q 2184 2475 1800 2475 
Q 1419 2475 1153 2201 
Q 888 1928 888 1484 
z
" transform="scale(0.015625)"/>
       </defs>
       <use xlink:href="#ArialMT-36"/>
       <use xlink:href="#ArialMT-30" x="55.615234"/>
      </g>
     </g>
    </g>
    <g id="text_4">
     <!-- Years -->
     <g style="fill: #262626" transform="translate(103.329607 194.659996)scale(0.15 -0.15)">
      <defs>
       <path id="ArialMT-59" d="M 1784 0 
L 1784 1941 
L 19 4581 
L 756 4581 
L 1659 3200 
Q 1909 2813 2125 2425 
Q 2331 2784 2625 3234 
L 3513 4581 
L 4219 4581 
L 2391 1941 
L 2391 0 
L 1784 0 
z
" transform="scale(0.015625)"/>
       <path id="ArialMT-65" d="M 2694 1069 
L 3275 997 
Q 3138 488 2766 206 
Q 2394 -75 1816 -75 
Q 1088 -75 661 373 
Q 234 822 234 1631 
Q 234 2469 665 2931 
Q 1097 3394 1784 3394 
Q 2450 3394 2872 2941 
Q 3294 2488 3294 1666 
Q 3294 1616 3291 1516 
L 816 1516 
Q 847 969 1125 678 
Q 1403 388 1819 388 
Q 2128 388 2347 550 
Q 2566 713 2694 1069 
z
M 847 1978 
L 2700 1978 
Q 2663 2397 2488 2606 
Q 2219 2931 1791 2931 
Q 1403 2931 1139 2672 
Q 875 2413 847 1978 
z
" transform="scale(0.015625)"/>
       <path id="ArialMT-61" d="M 2588 409 
Q 2275 144 1986 34 
Q 1697 -75 1366 -75 
Q 819 -75 525 192 
Q 231 459 231 875 
Q 231 1119 342 1320 
Q 453 1522 633 1644 
Q 813 1766 1038 1828 
Q 1203 1872 1538 1913 
Q 2219 1994 2541 2106 
Q 2544 2222 2544 2253 
Q 2544 2597 2384 2738 
Q 2169 2928 1744 2928 
Q 1347 2928 1158 2789 
Q 969 2650 878 2297 
L 328 2372 
Q 403 2725 575 2942 
Q 747 3159 1072 3276 
Q 1397 3394 1825 3394 
Q 2250 3394 2515 3294 
Q 2781 3194 2906 3042 
Q 3031 2891 3081 2659 
Q 3109 2516 3109 2141 
L 3109 1391 
Q 3109 606 3145 398 
Q 3181 191 3288 0 
L 2700 0 
Q 2613 175 2588 409 
z
M 2541 1666 
Q 2234 1541 1622 1453 
Q 1275 1403 1131 1340 
Q 988 1278 909 1158 
Q 831 1038 831 891 
Q 831 666 1001 516 
Q 1172 366 1500 366 
Q 1825 366 2078 508 
Q 2331 650 2450 897 
Q 2541 1088 2541 1459 
L 2541 1666 
z
" transform="scale(0.015625)"/>
       <path id="ArialMT-72" d="M 416 0 
L 416 3319 
L 922 3319 
L 922 2816 
Q 1116 3169 1280 3281 
Q 1444 3394 1641 3394 
Q 1925 3394 2219 3213 
L 2025 2691 
Q 1819 2813 1613 2813 
Q 1428 2813 1281 2702 
Q 1134 2591 1072 2394 
Q 978 2094 978 1738 
L 978 0 
L 416 0 
z
" transform="scale(0.015625)"/>
       <path id="ArialMT-73" d="M 197 991 
L 753 1078 
Q 800 744 1014 566 
Q 1228 388 1613 388 
Q 2000 388 2187 545 
Q 2375 703 2375 916 
Q 2375 1106 2209 1216 
Q 2094 1291 1634 1406 
Q 1016 1563 777 1677 
Q 538 1791 414 1992 
Q 291 2194 291 2438 
Q 291 2659 392 2848 
Q 494 3038 669 3163 
Q 800 3259 1026 3326 
Q 1253 3394 1513 3394 
Q 1903 3394 2198 3281 
Q 2494 3169 2634 2976 
Q 2775 2784 2828 2463 
L 2278 2388 
Q 2241 2644 2061 2787 
Q 1881 2931 1553 2931 
Q 1166 2931 1000 2803 
Q 834 2675 834 2503 
Q 834 2394 903 2306 
Q 972 2216 1119 2156 
Q 1203 2125 1616 2013 
Q 2213 1853 2448 1751 
Q 2684 1650 2818 1456 
Q 2953 1263 2953 975 
Q 2953 694 2789 445 
Q 2625 197 2315 61 
Q 2006 -75 1616 -75 
Q 969 -75 630 194 
Q 291 463 197 991 
z
" transform="scale(0.015625)"/>
      </defs>
      <use xlink:href="#ArialMT-59"/>
      <use xlink:href="#ArialMT-65" x="57.574219"/>
      <use xlink:href="#ArialMT-61" x="113.189453"/>
      <use xlink:href="#ArialMT-72" x="168.804688"/>
      <use xlink:href="#ArialMT-73" x="202.105469"/>
     </g>
    </g>
   </g>
   <g id="matplotlib.axis_2">
    <g id="ytick_1">
     <g id="line2d_4">
      <path d="M 51.114688 153.703335 
L 193.35859 153.703335 
" clip-path="url(#p345a934816)" style="fill: none; stroke: #cccccc; stroke-linecap: round"/>
     </g>
     <g id="text_5">
      <!-- −1.0 -->
      <g style="fill: #262626" transform="translate(25.9 157.640132)scale(0.11 -0.11)">
       <defs>
        <path id="ArialMT-2212" d="M 3381 1997 
L 356 1997 
L 356 2522 
L 3381 2522 
L 3381 1997 
z
" transform="scale(0.015625)"/>
        <path id="ArialMT-31" d="M 2384 0 
L 1822 0 
L 1822 3584 
Q 1619 3391 1289 3197 
Q 959 3003 697 2906 
L 697 3450 
Q 1169 3672 1522 3987 
Q 1875 4303 2022 4600 
L 2384 4600 
L 2384 0 
z
" transform="scale(0.015625)"/>
        <path id="ArialMT-2e" d="M 581 0 
L 581 641 
L 1222 641 
L 1222 0 
L 581 0 
z
" transform="scale(0.015625)"/>
       </defs>
       <use xlink:href="#ArialMT-2212"/>
       <use xlink:href="#ArialMT-31" x="58.398438"/>
       <use xlink:href="#ArialMT-2e" x="114.013672"/>
       <use xlink:href="#ArialMT-30" x="141.796875"/>
      </g>
     </g>
    </g>
    <g id="ytick_2">
     <g id="line2d_5">
      <path d="M 51.114688 124.317381 
L 193.35859 124.317381 
" clip-path="url(#p345a934816)" style="fill: none; stroke: #cccccc; stroke-linecap: round"/>
     </g>
     <g id="text_6">
      <!-- −0.5 -->
      <g style="fill: #262626" transform="translate(25.9 128.254178)scale(0.11 -0.11)">
       <defs>
        <path id="ArialMT-35" d="M 266 1200 
L 856 1250 
Q 922 819 1161 601 
Q 1400 384 1738 384 
Q 2144 384 2425 690 
Q 2706 997 2706 1503 
Q 2706 1984 2436 2262 
Q 2166 2541 1728 2541 
Q 1456 2541 1237 2417 
Q 1019 2294 894 2097 
L 366 2166 
L 809 4519 
L 3088 4519 
L 3088 3981 
L 1259 3981 
L 1013 2750 
Q 1425 3038 1878 3038 
Q 2478 3038 2890 2622 
Q 3303 2206 3303 1553 
Q 3303 931 2941 478 
Q 2500 -78 1738 -78 
Q 1113 -78 717 272 
Q 322 622 266 1200 
z
" transform="scale(0.015625)"/>
       </defs>
       <use xlink:href="#ArialMT-2212"/>
       <use xlink:href="#ArialMT-30" x="58.398438"/>
       <use xlink:href="#ArialMT-2e" x="114.013672"/>
       <use xlink:href="#ArialMT-35" x="141.796875"/>
      </g>
     </g>
    </g>
    <g id="ytick_3">
     <g id="line2d_6">
      <path d="M 51.114688 94.931428 
L 193.35859 94.931428 
" clip-path="url(#p345a934816)" style="fill: none; stroke: #cccccc; stroke-linecap: round"/>
     </g>
     <g id="text_7">
      <!-- 0.0 -->
      <g style="fill: #262626" transform="translate(32.324688 98.868225)scale(0.11 -0.11)">
       <use xlink:href="#ArialMT-30"/>
       <use xlink:href="#ArialMT-2e" x="55.615234"/>
       <use xlink:href="#ArialMT-30" x="83.398438"/>
      </g>
     </g>
    </g>
    <g id="ytick_4">
     <g id="line2d_7">
      <path d="M 51.114688 65.545475 
L 193.35859 65.545475 
" clip-path="url(#p345a934816)" style="fill: none; stroke: #cccccc; stroke-linecap: round"/>
     </g>
     <g id="text_8">
      <!-- 0.5 -->
      <g style="fill: #262626" transform="translate(32.324688 69.482272)scale(0.11 -0.11)">
       <use xlink:href="#ArialMT-30"/>
       <use xlink:href="#ArialMT-2e" x="55.615234"/>
       <use xlink:href="#ArialMT-35" x="83.398438"/>
      </g>
     </g>
    </g>
    <g id="ytick_5">
     <g id="line2d_8">
      <path d="M 51.114688 36.159521 
L 193.35859 36.159521 
" clip-path="url(#p345a934816)" style="fill: none; stroke: #cccccc; stroke-linecap: round"/>
     </g>
     <g id="text_9">
      <!-- 1.0 -->
      <g style="fill: #262626" transform="translate(32.324688 40.096318)scale(0.11 -0.11)">
       <use xlink:href="#ArialMT-31"/>
       <use xlink:href="#ArialMT-2e" x="55.615234"/>
       <use xlink:href="#ArialMT-30" x="83.398438"/>
      </g>
     </g>
    </g>
    <g id="text_10">
     <!-- Sensitivity of $\lambda$ -->
     <g style="fill: #262626" transform="translate(18.6 143.916482)rotate(-90)scale(0.15 -0.15)">
      <defs>
       <path id="ArialMT-53" d="M 288 1472 
L 859 1522 
Q 900 1178 1048 958 
Q 1197 738 1509 602 
Q 1822 466 2213 466 
Q 2559 466 2825 569 
Q 3091 672 3220 851 
Q 3350 1031 3350 1244 
Q 3350 1459 3225 1620 
Q 3100 1781 2813 1891 
Q 2628 1963 1997 2114 
Q 1366 2266 1113 2400 
Q 784 2572 623 2826 
Q 463 3081 463 3397 
Q 463 3744 659 4045 
Q 856 4347 1234 4503 
Q 1613 4659 2075 4659 
Q 2584 4659 2973 4495 
Q 3363 4331 3572 4012 
Q 3781 3694 3797 3291 
L 3216 3247 
Q 3169 3681 2898 3903 
Q 2628 4125 2100 4125 
Q 1550 4125 1298 3923 
Q 1047 3722 1047 3438 
Q 1047 3191 1225 3031 
Q 1400 2872 2139 2705 
Q 2878 2538 3153 2413 
Q 3553 2228 3743 1945 
Q 3934 1663 3934 1294 
Q 3934 928 3725 604 
Q 3516 281 3123 101 
Q 2731 -78 2241 -78 
Q 1619 -78 1198 103 
Q 778 284 539 648 
Q 300 1013 288 1472 
z
" transform="scale(0.015625)"/>
       <path id="ArialMT-6e" d="M 422 0 
L 422 3319 
L 928 3319 
L 928 2847 
Q 1294 3394 1984 3394 
Q 2284 3394 2536 3286 
Q 2788 3178 2913 3003 
Q 3038 2828 3088 2588 
Q 3119 2431 3119 2041 
L 3119 0 
L 2556 0 
L 2556 2019 
Q 2556 2363 2490 2533 
Q 2425 2703 2258 2804 
Q 2091 2906 1866 2906 
Q 1506 2906 1245 2678 
Q 984 2450 984 1813 
L 984 0 
L 422 0 
z
" transform="scale(0.015625)"/>
       <path id="ArialMT-69" d="M 425 3934 
L 425 4581 
L 988 4581 
L 988 3934 
L 425 3934 
z
M 425 0 
L 425 3319 
L 988 3319 
L 988 0 
L 425 0 
z
" transform="scale(0.015625)"/>
       <path id="ArialMT-74" d="M 1650 503 
L 1731 6 
Q 1494 -44 1306 -44 
Q 1000 -44 831 53 
Q 663 150 594 308 
Q 525 466 525 972 
L 525 2881 
L 113 2881 
L 113 3319 
L 525 3319 
L 525 4141 
L 1084 4478 
L 1084 3319 
L 1650 3319 
L 1650 2881 
L 1084 2881 
L 1084 941 
Q 1084 700 1114 631 
Q 1144 563 1211 522 
Q 1278 481 1403 481 
Q 1497 481 1650 503 
z
" transform="scale(0.015625)"/>
       <path id="ArialMT-76" d="M 1344 0 
L 81 3319 
L 675 3319 
L 1388 1331 
Q 1503 1009 1600 663 
Q 1675 925 1809 1294 
L 2547 3319 
L 3125 3319 
L 1869 0 
L 1344 0 
z
" transform="scale(0.015625)"/>
       <path id="ArialMT-79" d="M 397 -1278 
L 334 -750 
Q 519 -800 656 -800 
Q 844 -800 956 -737 
Q 1069 -675 1141 -563 
Q 1194 -478 1313 -144 
Q 1328 -97 1363 -6 
L 103 3319 
L 709 3319 
L 1400 1397 
Q 1534 1031 1641 628 
Q 1738 1016 1872 1384 
L 2581 3319 
L 3144 3319 
L 1881 -56 
Q 1678 -603 1566 -809 
Q 1416 -1088 1222 -1217 
Q 1028 -1347 759 -1347 
Q 597 -1347 397 -1278 
z
" transform="scale(0.015625)"/>
       <path id="ArialMT-20" transform="scale(0.015625)"/>
       <path id="ArialMT-6f" d="M 213 1659 
Q 213 2581 725 3025 
Q 1153 3394 1769 3394 
Q 2453 3394 2887 2945 
Q 3322 2497 3322 1706 
Q 3322 1066 3130 698 
Q 2938 331 2570 128 
Q 2203 -75 1769 -75 
Q 1072 -75 642 372 
Q 213 819 213 1659 
z
M 791 1659 
Q 791 1022 1069 705 
Q 1347 388 1769 388 
Q 2188 388 2466 706 
Q 2744 1025 2744 1678 
Q 2744 2294 2464 2611 
Q 2184 2928 1769 2928 
Q 1347 2928 1069 2612 
Q 791 2297 791 1659 
z
" transform="scale(0.015625)"/>
       <path id="ArialMT-66" d="M 556 0 
L 556 2881 
L 59 2881 
L 59 3319 
L 556 3319 
L 556 3672 
Q 556 4006 616 4169 
Q 697 4388 901 4523 
Q 1106 4659 1475 4659 
Q 1713 4659 2000 4603 
L 1916 4113 
Q 1741 4144 1584 4144 
Q 1328 4144 1222 4034 
Q 1116 3925 1116 3625 
L 1116 3319 
L 1763 3319 
L 1763 2881 
L 1116 2881 
L 1116 0 
L 556 0 
z
" transform="scale(0.015625)"/>
       <path id="DejaVuSans-Oblique-3bb" d="M 2350 4316 
L 3125 0 
L 2516 0 
L 2038 2588 
L 328 0 
L -281 0 
L 1903 3356 
L 1794 3975 
Q 1725 4369 1391 4369 
L 1091 4369 
L 1184 4863 
L 1550 4856 
Q 2253 4847 2350 4316 
z
" transform="scale(0.015625)"/>
      </defs>
      <use xlink:href="#ArialMT-53" transform="translate(0 0.015625)"/>
      <use xlink:href="#ArialMT-65" transform="translate(66.699219 0.015625)"/>
      <use xlink:href="#ArialMT-6e" transform="translate(122.314453 0.015625)"/>
      <use xlink:href="#ArialMT-73" transform="translate(177.929688 0.015625)"/>
      <use xlink:href="#ArialMT-69" transform="translate(227.929688 0.015625)"/>
      <use xlink:href="#ArialMT-74" transform="translate(250.146484 0.015625)"/>
      <use xlink:href="#ArialMT-69" transform="translate(277.929688 0.015625)"/>
      <use xlink:href="#ArialMT-76" transform="translate(300.146484 0.015625)"/>
      <use xlink:href="#ArialMT-69" transform="translate(350.146484 0.015625)"/>
      <use xlink:href="#ArialMT-74" transform="translate(372.363281 0.015625)"/>
      <use xlink:href="#ArialMT-79" transform="translate(400.146484 0.015625)"/>
      <use xlink:href="#ArialMT-20" transform="translate(450.146484 0.015625)"/>
      <use xlink:href="#ArialMT-6f" transform="translate(477.929688 0.015625)"/>
      <use xlink:href="#ArialMT-66" transform="translate(533.544922 0.015625)"/>
      <use xlink:href="#ArialMT-20" transform="translate(561.328125 0.015625)"/>
      <use xlink:href="#DejaVuSans-Oblique-3bb" transform="translate(589.111328 0.015625)"/>
     </g>
    </g>
    <g id="text_11">
     <!-- 1e−7 -->
     <g style="fill: #262626" transform="translate(51.114688 21.119531)scale(0.11 -0.11)">
      <defs>
       <path id="ArialMT-37" d="M 303 3981 
L 303 4522 
L 3269 4522 
L 3269 4084 
Q 2831 3619 2401 2847 
Q 1972 2075 1738 1259 
Q 1569 684 1522 0 
L 944 0 
Q 953 541 1156 1306 
Q 1359 2072 1739 2783 
Q 2119 3494 2547 3981 
L 303 3981 
z
" transform="scale(0.015625)"/>
      </defs>
      <use xlink:href="#ArialMT-31"/>
      <use xlink:href="#ArialMT-65" x="55.615234"/>
      <use xlink:href="#ArialMT-2212" x="111.230469"/>
      <use xlink:href="#ArialMT-37" x="169.628906"/>
     </g>
    </g>
   </g>
   <g id="line2d_9">
    <path d="M 57.580319 30.585163 
L 59.632901 52.70828 
L 61.685483 74.196813 
L 63.738064 94.469135 
L 65.790646 112.600851 
L 67.843227 127.645759 
L 69.895809 139.07311 
L 71.94839 146.725406 
L 74.000972 150.766687 
L 76.053554 151.645935 
L 78.106135 149.998804 
L 80.158717 146.527697 
L 82.211298 141.903098 
L 84.26388 136.698704 
L 86.316461 131.360475 
L 88.369043 126.203573 
L 90.421624 121.42747 
L 92.474206 117.139508 
L 94.526788 113.379766 
L 96.579369 110.143114 
L 98.631951 107.39677 
L 100.684532 105.093186 
L 102.737114 103.178887 
L 104.789695 101.600118 
L 106.842277 100.306192 
L 108.894859 99.251228 
L 110.94744 98.394858 
L 113.000022 97.702282 
L 115.052603 97.143962 
L 117.105185 96.695118 
L 119.157766 96.33516 
L 121.210348 96.047102 
L 123.26293 95.817022 
L 125.315511 95.633566 
L 127.368093 95.487511 
L 129.420674 95.371395 
L 131.473256 95.279201 
L 133.525837 95.206086 
L 135.578419 95.148165 
L 137.631 95.102328 
L 139.683582 95.066087 
L 141.736164 95.037459 
L 143.788745 95.014864 
L 145.841327 94.997043 
L 147.893908 94.982999 
L 149.94649 94.971938 
L 151.999071 94.963233 
L 154.051653 94.956386 
L 156.104235 94.951004 
L 158.156816 94.946775 
L 160.209398 94.943454 
L 162.261979 94.940848 
L 164.314561 94.938804 
L 166.367142 94.937201 
L 168.419724 94.935945 
L 170.472305 94.934961 
L 172.524887 94.93419 
L 174.577469 94.933587 
L 176.63005 94.933115 
L 178.682632 94.932746 
L 180.735213 94.932457 
L 182.787795 94.932231 
L 184.840376 94.932055 
L 186.892958 94.931917 
" clip-path="url(#p345a934816)" style="fill: none; stroke: #482475; stroke-width: 1.5; stroke-linecap: round"/>
   </g>
   <g id="line2d_10">
    <path d="M 57.580319 56.282034 
L 59.632901 80.486578 
L 61.685483 102.803873 
L 63.738064 122.263044 
L 65.790646 137.639727 
L 67.843227 148.130273 
L 69.895809 153.677289 
L 71.94839 154.798749 
L 74.000972 152.400378 
L 76.053554 147.569867 
L 78.106135 141.365198 
L 80.158717 134.665711 
L 82.211298 128.108103 
L 84.26388 122.090107 
L 86.316461 116.813081 
L 88.369043 112.337733 
L 90.421624 108.636144 
L 92.474206 105.632401 
L 94.526788 103.230587 
L 96.579369 101.332073 
L 98.631951 99.845021 
L 100.684532 98.688757 
L 102.737114 97.795044 
L 104.789695 97.107659 
L 106.842277 96.581144 
L 108.894859 96.17926 
L 110.94744 95.873429 
L 113.000022 95.641303 
L 115.052603 95.465525 
L 117.105185 95.33269 
L 119.157766 95.232491 
L 121.210348 95.157036 
L 123.26293 95.100301 
L 125.315511 95.0577 
L 127.368093 95.025753 
L 129.420674 95.001824 
L 131.473256 94.98392 
L 133.525837 94.970538 
L 135.578419 94.960545 
L 137.631 94.95309 
L 139.683582 94.947532 
L 141.736164 94.943393 
L 143.788745 94.940312 
L 145.841327 94.938021 
L 147.893908 94.936318 
L 149.94649 94.935053 
L 151.999071 94.934113 
L 154.051653 94.933417 
L 156.104235 94.9329 
L 158.156816 94.932517 
L 160.209398 94.932234 
L 162.261979 94.932024 
L 164.314561 94.931868 
L 166.367142 94.931753 
L 168.419724 94.931668 
L 170.472305 94.931605 
L 172.524887 94.931559 
L 174.577469 94.931525 
L 176.63005 94.931499 
L 178.682632 94.931481 
L 180.735213 94.931467 
L 182.787795 94.931457 
L 184.840376 94.931449 
L 186.892958 94.931444 
" clip-path="url(#p345a934816)" style="fill: none; stroke: #355f8d; stroke-width: 1.5; stroke-linecap: round"/>
   </g>
   <g id="line2d_11">
    <path d="M 57.580319 79.191771 
L 59.632901 104.2224 
L 61.685483 125.629708 
L 63.738064 142.148876 
L 65.790646 152.660291 
L 67.843227 157.014993 
L 69.895809 156.05978 
L 71.94839 151.213501 
L 74.000972 144.05974 
L 76.053554 136.012282 
L 78.106135 128.117958 
L 80.158717 121.01383 
L 82.211298 114.99055 
L 84.26388 110.098006 
L 86.316461 106.247038 
L 88.369043 103.285932 
L 90.421624 101.048681 
L 92.474206 99.380757 
L 94.526788 98.150045 
L 96.579369 97.249276 
L 98.631951 96.594266 
L 100.684532 96.120484 
L 102.737114 95.779298 
L 104.789695 95.534514 
L 106.842277 95.359455 
L 108.894859 95.234611 
L 110.94744 95.145797 
L 113.000022 95.082754 
L 115.052603 95.038092 
L 117.105185 95.006508 
L 119.157766 94.984209 
L 121.210348 94.96849 
L 123.26293 94.957423 
L 125.315511 94.949643 
L 127.368093 94.944179 
L 129.420674 94.940346 
L 131.473256 94.93766 
L 133.525837 94.935779 
L 135.578419 94.934464 
L 137.631 94.933545 
L 139.683582 94.932903 
L 141.736164 94.932455 
L 143.788745 94.932143 
L 145.841327 94.931925 
L 147.893908 94.931774 
L 149.94649 94.931668 
L 151.999071 94.931595 
L 154.051653 94.931544 
L 156.104235 94.931508 
L 158.156816 94.931484 
L 160.209398 94.931467 
L 162.261979 94.931455 
L 164.314561 94.931447 
L 166.367142 94.931441 
L 168.419724 94.931437 
L 170.472305 94.931434 
L 172.524887 94.931432 
L 174.577469 94.931431 
L 176.63005 94.93143 
L 178.682632 94.931429 
L 180.735213 94.931429 
L 182.787795 94.931429 
L 184.840376 94.931429 
L 186.892958 94.931428 
" clip-path="url(#p345a934816)" style="fill: none; stroke: #21918c; stroke-width: 1.5; stroke-linecap: round"/>
   </g>
   <g id="line2d_12">
    <path d="M 57.580319 99.23685 
L 59.632901 123.722022 
L 61.685483 142.525118 
L 63.738064 154.39258 
L 65.790646 158.857918 
L 67.843227 156.875508 
L 69.895809 150.359512 
L 71.94839 141.460588 
L 74.000972 132.019111 
L 76.053554 123.28603 
L 78.106135 115.903966 
L 80.158717 110.048311 
L 82.211298 105.61264 
L 84.26388 102.363913 
L 86.316461 100.042651 
L 88.369043 98.414155 
L 90.421624 97.287249 
L 92.474206 96.515578 
L 94.526788 95.991478 
L 96.579369 95.637853 
L 98.631951 95.400533 
L 100.684532 95.241982 
L 102.737114 95.136462 
L 104.789695 95.066468 
L 106.842277 95.020176 
L 108.894859 94.989639 
L 110.94744 94.96954 
L 113.000022 94.956341 
L 115.052603 94.947688 
L 117.105185 94.942026 
L 119.157766 94.938327 
L 121.210348 94.935913 
L 123.26293 94.934341 
L 125.315511 94.933318 
L 127.368093 94.932653 
L 129.420674 94.932221 
L 131.473256 94.931941 
L 133.525837 94.93176 
L 135.578419 94.931642 
L 137.631 94.931566 
L 139.683582 94.931517 
L 141.736164 94.931486 
L 143.788745 94.931465 
L 145.841327 94.931452 
L 147.893908 94.931443 
L 149.94649 94.931438 
L 151.999071 94.931434 
L 154.051653 94.931432 
L 156.104235 94.931431 
L 158.156816 94.93143 
L 160.209398 94.931429 
L 162.261979 94.931429 
L 164.314561 94.931429 
L 166.367142 94.931428 
L 168.419724 94.931428 
L 170.472305 94.931428 
L 172.524887 94.931428 
L 174.577469 94.931428 
L 176.63005 94.931428 
L 178.682632 94.931428 
L 180.735213 94.931428 
L 182.787795 94.931428 
L 184.840376 94.931428 
L 186.892958 94.931428 
" clip-path="url(#p345a934816)" style="fill: none; stroke: #44bf70; stroke-width: 1.5; stroke-linecap: round"/>
   </g>
   <g id="line2d_13">
    <path d="M 57.580319 116.350998 
L 59.632901 138.939224 
L 61.685483 153.715973 
L 63.738064 159.897802 
L 65.790646 158.182524 
L 67.843227 150.808647 
L 69.895809 140.556559 
L 71.94839 129.84539 
L 74.000972 120.264471 
L 76.053554 112.539943 
L 78.106135 106.76153 
L 80.158717 102.671687 
L 82.211298 99.893469 
L 84.26388 98.062854 
L 86.316461 96.883648 
L 88.369043 96.136863 
L 90.421624 95.670027 
L 92.474206 95.381133 
L 94.526788 95.203794 
L 96.579369 95.095648 
L 98.631951 95.03006 
L 100.684532 94.990467 
L 102.737114 94.966662 
L 104.789695 94.952399 
L 106.842277 94.94388 
L 108.894859 94.938806 
L 110.94744 94.935791 
L 113.000022 94.934004 
L 115.052603 94.932946 
L 117.105185 94.932321 
L 119.157766 94.931953 
L 121.210348 94.931736 
L 123.26293 94.931609 
L 125.315511 94.931534 
L 127.368093 94.93149 
L 129.420674 94.931464 
L 131.473256 94.931449 
L 133.525837 94.93144 
L 135.578419 94.931435 
L 137.631 94.931432 
L 139.683582 94.93143 
L 141.736164 94.931429 
L 143.788745 94.931429 
L 145.841327 94.931429 
L 147.893908 94.931428 
L 149.94649 94.931428 
L 151.999071 94.931428 
L 154.051653 94.931428 
L 156.104235 94.931428 
L 158.156816 94.931428 
L 160.209398 94.931428 
L 162.261979 94.931428 
L 164.314561 94.931428 
L 166.367142 94.931428 
L 168.419724 94.931428 
L 170.472305 94.931428 
L 172.524887 94.931428 
L 174.577469 94.931428 
L 176.63005 94.931428 
L 178.682632 94.931428 
L 180.735213 94.931428 
L 182.787795 94.931428 
L 184.840376 94.931428 
L 186.892958 94.931428 
" clip-path="url(#p345a934816)" style="fill: none; stroke: #bddf26; stroke-width: 1.5; stroke-linecap: round"/>
   </g>
   <g id="patch_3">
    <path d="M 51.114688 166.363434 
L 51.114688 24.119531 
" style="fill: none; stroke: #cccccc; stroke-linejoin: miter; stroke-linecap: square"/>
   </g>
   <g id="patch_4">
    <path d="M 193.35859 166.363434 
L 193.35859 24.119531 
" style="fill: none; stroke: #cccccc; stroke-linejoin: miter; stroke-linecap: square"/>
   </g>
   <g id="patch_5">
    <path d="M 51.114688 166.363434 
L 193.35859 166.363434 
" style="fill: none; stroke: #cccccc; stroke-linejoin: miter; stroke-linecap: square"/>
   </g>
   <g id="patch_6">
    <path d="M 51.114688 24.119531 
L 193.35859 24.119531 
" style="fill: none; stroke: #cccccc; stroke-linejoin: miter; stroke-linecap: square"/>
   </g>
   <g id="text_12">
    <!-- La Grange -->
    <g style="fill: #262626" transform="translate(86.797967 18.119531)scale(0.15 -0.15)">
     <defs>
      <path id="ArialMT-4c" d="M 469 0 
L 469 4581 
L 1075 4581 
L 1075 541 
L 3331 541 
L 3331 0 
L 469 0 
z
" transform="scale(0.015625)"/>
      <path id="ArialMT-47" d="M 2638 1797 
L 2638 2334 
L 4578 2338 
L 4578 638 
Q 4131 281 3656 101 
Q 3181 -78 2681 -78 
Q 2006 -78 1454 211 
Q 903 500 622 1047 
Q 341 1594 341 2269 
Q 341 2938 620 3517 
Q 900 4097 1425 4378 
Q 1950 4659 2634 4659 
Q 3131 4659 3532 4498 
Q 3934 4338 4162 4050 
Q 4391 3763 4509 3300 
L 3963 3150 
Q 3859 3500 3706 3700 
Q 3553 3900 3268 4020 
Q 2984 4141 2638 4141 
Q 2222 4141 1919 4014 
Q 1616 3888 1430 3681 
Q 1244 3475 1141 3228 
Q 966 2803 966 2306 
Q 966 1694 1177 1281 
Q 1388 869 1791 669 
Q 2194 469 2647 469 
Q 3041 469 3416 620 
Q 3791 772 3984 944 
L 3984 1797 
L 2638 1797 
z
" transform="scale(0.015625)"/>
      <path id="ArialMT-67" d="M 319 -275 
L 866 -356 
Q 900 -609 1056 -725 
Q 1266 -881 1628 -881 
Q 2019 -881 2231 -725 
Q 2444 -569 2519 -288 
Q 2563 -116 2559 434 
Q 2191 0 1641 0 
Q 956 0 581 494 
Q 206 988 206 1678 
Q 206 2153 378 2554 
Q 550 2956 876 3175 
Q 1203 3394 1644 3394 
Q 2231 3394 2613 2919 
L 2613 3319 
L 3131 3319 
L 3131 450 
Q 3131 -325 2973 -648 
Q 2816 -972 2473 -1159 
Q 2131 -1347 1631 -1347 
Q 1038 -1347 672 -1080 
Q 306 -813 319 -275 
z
M 784 1719 
Q 784 1066 1043 766 
Q 1303 466 1694 466 
Q 2081 466 2343 764 
Q 2606 1063 2606 1700 
Q 2606 2309 2336 2618 
Q 2066 2928 1684 2928 
Q 1309 2928 1046 2623 
Q 784 2319 784 1719 
z
" transform="scale(0.015625)"/>
     </defs>
     <use xlink:href="#ArialMT-4c"/>
     <use xlink:href="#ArialMT-61" x="55.615234"/>
     <use xlink:href="#ArialMT-20" x="111.230469"/>
     <use xlink:href="#ArialMT-47" x="139.013672"/>
     <use xlink:href="#ArialMT-72" x="216.796875"/>
     <use xlink:href="#ArialMT-61" x="250.097656"/>
     <use xlink:href="#ArialMT-6e" x="305.712891"/>
     <use xlink:href="#ArialMT-67" x="361.328125"/>
     <use xlink:href="#ArialMT-65" x="416.943359"/>
    </g>
   </g>
  </g>
  <g id="axes_2">
   <g id="patch_7">
    <path d="M 200.470785 166.363434 
L 342.714688 166.363434 
L 342.714688 24.119531 
L 200.470785 24.119531 
z
" style="fill: #ffffff"/>
   </g>
   <g id="matplotlib.axis_3">
    <g id="xtick_4">
     <g id="line2d_14">
      <path d="M 227.462233 166.363434 
L 227.462233 24.119531 
" clip-path="url(#p667da938f4)" style="fill: none; stroke: #cccccc; stroke-linecap: round"/>
     </g>
     <g id="text_13">
      <!-- 20 -->
      <g style="fill: #262626" transform="translate(221.345201 177.737027)scale(0.11 -0.11)">
       <use xlink:href="#ArialMT-32"/>
       <use xlink:href="#ArialMT-30" x="55.615234"/>
      </g>
     </g>
    </g>
    <g id="xtick_5">
     <g id="line2d_15">
      <path d="M 268.513864 166.363434 
L 268.513864 24.119531 
" clip-path="url(#p667da938f4)" style="fill: none; stroke: #cccccc; stroke-linecap: round"/>
     </g>
     <g id="text_14">
      <!-- 40 -->
      <g style="fill: #262626" transform="translate(262.396833 177.737027)scale(0.11 -0.11)">
       <use xlink:href="#ArialMT-34"/>
       <use xlink:href="#ArialMT-30" x="55.615234"/>
      </g>
     </g>
    </g>
    <g id="xtick_6">
     <g id="line2d_16">
      <path d="M 309.565495 166.363434 
L 309.565495 24.119531 
" clip-path="url(#p667da938f4)" style="fill: none; stroke: #cccccc; stroke-linecap: round"/>
     </g>
     <g id="text_15">
      <!-- 60 -->
      <g style="fill: #262626" transform="translate(303.448464 177.737027)scale(0.11 -0.11)">
       <use xlink:href="#ArialMT-36"/>
       <use xlink:href="#ArialMT-30" x="55.615234"/>
      </g>
     </g>
    </g>
    <g id="text_16">
     <!-- Years -->
     <g style="fill: #262626" transform="translate(252.685705 194.659996)scale(0.15 -0.15)">
      <use xlink:href="#ArialMT-59"/>
      <use xlink:href="#ArialMT-65" x="57.574219"/>
      <use xlink:href="#ArialMT-61" x="113.189453"/>
      <use xlink:href="#ArialMT-72" x="168.804688"/>
      <use xlink:href="#ArialMT-73" x="202.105469"/>
     </g>
    </g>
   </g>
   <g id="matplotlib.axis_4">
    <g id="ytick_6">
     <g id="line2d_17">
      <path d="M 200.470785 153.703335 
L 342.714688 153.703335 
" clip-path="url(#p667da938f4)" style="fill: none; stroke: #cccccc; stroke-linecap: round"/>
     </g>
    </g>
    <g id="ytick_7">
     <g id="line2d_18">
      <path d="M 200.470785 124.317381 
L 342.714688 124.317381 
" clip-path="url(#p667da938f4)" style="fill: none; stroke: #cccccc; stroke-linecap: round"/>
     </g>
    </g>
    <g id="ytick_8">
     <g id="line2d_19">
      <path d="M 200.470785 94.931428 
L 342.714688 94.931428 
" clip-path="url(#p667da938f4)" style="fill: none; stroke: #cccccc; stroke-linecap: round"/>
     </g>
    </g>
    <g id="ytick_9">
     <g id="line2d_20">
      <path d="M 200.470785 65.545475 
L 342.714688 65.545475 
" clip-path="url(#p667da938f4)" style="fill: none; stroke: #cccccc; stroke-linecap: round"/>
     </g>
    </g>
    <g id="ytick_10">
     <g id="line2d_21">
      <path d="M 200.470785 36.159521 
L 342.714688 36.159521 
" clip-path="url(#p667da938f4)" style="fill: none; stroke: #cccccc; stroke-linecap: round"/>
     </g>
    </g>
   </g>
   <g id="line2d_22">
    <path d="M 206.936417 30.585163 
L 208.988999 52.70828 
L 211.04158 74.196813 
L 213.094162 94.469135 
L 215.146743 112.600851 
L 217.199325 127.645759 
L 219.251906 139.07311 
L 221.304488 146.725406 
L 223.35707 150.766687 
L 225.409651 151.645935 
L 227.462233 149.998804 
L 229.514814 146.527697 
L 231.567396 141.903098 
L 233.619977 136.698704 
L 235.672559 131.360475 
L 237.72514 126.203573 
L 239.777722 121.42747 
L 241.830304 117.139508 
L 243.882885 113.379766 
L 245.935467 110.143114 
L 247.988048 107.39677 
L 250.04063 105.093186 
L 252.093211 103.178887 
L 254.145793 101.600118 
L 256.198375 100.306192 
L 258.250956 99.251228 
L 260.303538 98.394858 
L 262.356119 97.702282 
L 264.408701 97.143962 
L 266.461282 96.695118 
L 268.513864 96.33516 
L 270.566445 96.047102 
L 272.619027 95.817022 
L 274.671609 95.633566 
L 276.72419 95.487511 
L 278.776772 95.371395 
L 280.829353 95.279201 
L 282.881935 95.206086 
L 284.934516 95.148165 
L 286.987098 95.102328 
L 289.03968 95.066087 
L 291.092261 95.037459 
L 293.144843 95.014864 
L 295.197424 94.997043 
L 297.250006 94.982999 
L 299.302587 94.971938 
L 301.355169 94.963233 
L 303.407751 94.956386 
L 305.460332 94.951004 
L 307.512914 94.946775 
L 309.565495 94.943454 
L 311.618077 94.940848 
L 313.670658 94.938804 
L 315.72324 94.937201 
L 317.775821 94.935945 
L 319.828403 94.934961 
L 321.880985 94.93419 
L 323.933566 94.933587 
L 325.986148 94.933115 
L 328.038729 94.932746 
L 330.091311 94.932457 
L 332.143892 94.932231 
L 334.196474 94.932055 
L 336.249056 94.931917 
" clip-path="url(#p667da938f4)" style="fill: none; stroke: #482475; stroke-width: 1.5; stroke-linecap: round"/>
   </g>
   <g id="line2d_23">
    <path d="M 206.936417 56.282034 
L 208.988999 80.486578 
L 211.04158 102.803873 
L 213.094162 122.263044 
L 215.146743 137.639727 
L 217.199325 148.130273 
L 219.251906 153.677289 
L 221.304488 154.798749 
L 223.35707 152.400378 
L 225.409651 147.569867 
L 227.462233 141.365198 
L 229.514814 134.665711 
L 231.567396 128.108103 
L 233.619977 122.090107 
L 235.672559 116.813081 
L 237.72514 112.337733 
L 239.777722 108.636144 
L 241.830304 105.632401 
L 243.882885 103.230587 
L 245.935467 101.332073 
L 247.988048 99.845021 
L 250.04063 98.688757 
L 252.093211 97.795044 
L 254.145793 97.107659 
L 256.198375 96.581144 
L 258.250956 96.17926 
L 260.303538 95.873429 
L 262.356119 95.641303 
L 264.408701 95.465525 
L 266.461282 95.33269 
L 268.513864 95.232491 
L 270.566445 95.157036 
L 272.619027 95.100301 
L 274.671609 95.0577 
L 276.72419 95.025753 
L 278.776772 95.001824 
L 280.829353 94.98392 
L 282.881935 94.970538 
L 284.934516 94.960545 
L 286.987098 94.95309 
L 289.03968 94.947532 
L 291.092261 94.943393 
L 293.144843 94.940312 
L 295.197424 94.938021 
L 297.250006 94.936318 
L 299.302587 94.935053 
L 301.355169 94.934113 
L 303.407751 94.933417 
L 305.460332 94.9329 
L 307.512914 94.932517 
L 309.565495 94.932234 
L 311.618077 94.932024 
L 313.670658 94.931868 
L 315.72324 94.931753 
L 317.775821 94.931668 
L 319.828403 94.931605 
L 321.880985 94.931559 
L 323.933566 94.931525 
L 325.986148 94.931499 
L 328.038729 94.931481 
L 330.091311 94.931467 
L 332.143892 94.931457 
L 334.196474 94.931449 
L 336.249056 94.931444 
" clip-path="url(#p667da938f4)" style="fill: none; stroke: #355f8d; stroke-width: 1.5; stroke-linecap: round"/>
   </g>
   <g id="line2d_24">
    <path d="M 206.936417 79.191771 
L 208.988999 104.2224 
L 211.04158 125.629708 
L 213.094162 142.148876 
L 215.146743 152.660291 
L 217.199325 157.014993 
L 219.251906 156.05978 
L 221.304488 151.213501 
L 223.35707 144.05974 
L 225.409651 136.012282 
L 227.462233 128.117958 
L 229.514814 121.01383 
L 231.567396 114.99055 
L 233.619977 110.098006 
L 235.672559 106.247038 
L 237.72514 103.285932 
L 239.777722 101.048681 
L 241.830304 99.380757 
L 243.882885 98.150045 
L 245.935467 97.249276 
L 247.988048 96.594266 
L 250.04063 96.120484 
L 252.093211 95.779298 
L 254.145793 95.534514 
L 256.198375 95.359455 
L 258.250956 95.234611 
L 260.303538 95.145797 
L 262.356119 95.082754 
L 264.408701 95.038092 
L 266.461282 95.006508 
L 268.513864 94.984209 
L 270.566445 94.96849 
L 272.619027 94.957423 
L 274.671609 94.949643 
L 276.72419 94.944179 
L 278.776772 94.940346 
L 280.829353 94.93766 
L 282.881935 94.935779 
L 284.934516 94.934464 
L 286.987098 94.933545 
L 289.03968 94.932903 
L 291.092261 94.932455 
L 293.144843 94.932143 
L 295.197424 94.931925 
L 297.250006 94.931774 
L 299.302587 94.931668 
L 301.355169 94.931595 
L 303.407751 94.931544 
L 305.460332 94.931508 
L 307.512914 94.931484 
L 309.565495 94.931467 
L 311.618077 94.931455 
L 313.670658 94.931447 
L 315.72324 94.931441 
L 317.775821 94.931437 
L 319.828403 94.931434 
L 321.880985 94.931432 
L 323.933566 94.931431 
L 325.986148 94.93143 
L 328.038729 94.931429 
L 330.091311 94.931429 
L 332.143892 94.931429 
L 334.196474 94.931429 
L 336.249056 94.931428 
" clip-path="url(#p667da938f4)" style="fill: none; stroke: #21918c; stroke-width: 1.5; stroke-linecap: round"/>
   </g>
   <g id="line2d_25">
    <path d="M 206.936417 99.23685 
L 208.988999 123.722022 
L 211.04158 142.525118 
L 213.094162 154.39258 
L 215.146743 158.857918 
L 217.199325 156.875508 
L 219.251906 150.359512 
L 221.304488 141.460588 
L 223.35707 132.019111 
L 225.409651 123.28603 
L 227.462233 115.903966 
L 229.514814 110.048311 
L 231.567396 105.61264 
L 233.619977 102.363913 
L 235.672559 100.042651 
L 237.72514 98.414155 
L 239.777722 97.287249 
L 241.830304 96.515578 
L 243.882885 95.991478 
L 245.935467 95.637853 
L 247.988048 95.400533 
L 250.04063 95.241982 
L 252.093211 95.136462 
L 254.145793 95.066468 
L 256.198375 95.020176 
L 258.250956 94.989639 
L 260.303538 94.96954 
L 262.356119 94.956341 
L 264.408701 94.947688 
L 266.461282 94.942026 
L 268.513864 94.938327 
L 270.566445 94.935913 
L 272.619027 94.934341 
L 274.671609 94.933318 
L 276.72419 94.932653 
L 278.776772 94.932221 
L 280.829353 94.931941 
L 282.881935 94.93176 
L 284.934516 94.931642 
L 286.987098 94.931566 
L 289.03968 94.931517 
L 291.092261 94.931486 
L 293.144843 94.931465 
L 295.197424 94.931452 
L 297.250006 94.931443 
L 299.302587 94.931438 
L 301.355169 94.931434 
L 303.407751 94.931432 
L 305.460332 94.931431 
L 307.512914 94.93143 
L 309.565495 94.931429 
L 311.618077 94.931429 
L 313.670658 94.931429 
L 315.72324 94.931428 
L 317.775821 94.931428 
L 319.828403 94.931428 
L 321.880985 94.931428 
L 323.933566 94.931428 
L 325.986148 94.931428 
L 328.038729 94.931428 
L 330.091311 94.931428 
L 332.143892 94.931428 
L 334.196474 94.931428 
L 336.249056 94.931428 
" clip-path="url(#p667da938f4)" style="fill: none; stroke: #44bf70; stroke-width: 1.5; stroke-linecap: round"/>
   </g>
   <g id="line2d_26">
    <path d="M 206.936417 116.350998 
L 208.988999 138.939224 
L 211.04158 153.715973 
L 213.094162 159.897802 
L 215.146743 158.182524 
L 217.199325 150.808647 
L 219.251906 140.556559 
L 221.304488 129.84539 
L 223.35707 120.264471 
L 225.409651 112.539943 
L 227.462233 106.76153 
L 229.514814 102.671687 
L 231.567396 99.893469 
L 233.619977 98.062854 
L 235.672559 96.883648 
L 237.72514 96.136863 
L 239.777722 95.670027 
L 241.830304 95.381133 
L 243.882885 95.203794 
L 245.935467 95.095648 
L 247.988048 95.03006 
L 250.04063 94.990467 
L 252.093211 94.966662 
L 254.145793 94.952399 
L 256.198375 94.94388 
L 258.250956 94.938806 
L 260.303538 94.935791 
L 262.356119 94.934004 
L 264.408701 94.932946 
L 266.461282 94.932321 
L 268.513864 94.931953 
L 270.566445 94.931736 
L 272.619027 94.931609 
L 274.671609 94.931534 
L 276.72419 94.93149 
L 278.776772 94.931464 
L 280.829353 94.931449 
L 282.881935 94.93144 
L 284.934516 94.931435 
L 286.987098 94.931432 
L 289.03968 94.93143 
L 291.092261 94.931429 
L 293.144843 94.931429 
L 295.197424 94.931429 
L 297.250006 94.931428 
L 299.302587 94.931428 
L 301.355169 94.931428 
L 303.407751 94.931428 
L 305.460332 94.931428 
L 307.512914 94.931428 
L 309.565495 94.931428 
L 311.618077 94.931428 
L 313.670658 94.931428 
L 315.72324 94.931428 
L 317.775821 94.931428 
L 319.828403 94.931428 
L 321.880985 94.931428 
L 323.933566 94.931428 
L 325.986148 94.931428 
L 328.038729 94.931428 
L 330.091311 94.931428 
L 332.143892 94.931428 
L 334.196474 94.931428 
L 336.249056 94.931428 
" clip-path="url(#p667da938f4)" style="fill: none; stroke: #bddf26; stroke-width: 1.5; stroke-linecap: round"/>
   </g>
   <g id="patch_8">
    <path d="M 200.470785 166.363434 
L 200.470785 24.119531 
" style="fill: none; stroke: #cccccc; stroke-linejoin: miter; stroke-linecap: square"/>
   </g>
   <g id="patch_9">
    <path d="M 342.714688 166.363434 
L 342.714688 24.119531 
" style="fill: none; stroke: #cccccc; stroke-linejoin: miter; stroke-linecap: square"/>
   </g>
   <g id="patch_10">
    <path d="M 200.470785 166.363434 
L 342.714688 166.363434 
" style="fill: none; stroke: #cccccc; stroke-linejoin: miter; stroke-linecap: square"/>
   </g>
   <g id="patch_11">
    <path d="M 200.470785 24.119531 
L 342.714688 24.119531 
" style="fill: none; stroke: #cccccc; stroke-linejoin: miter; stroke-linecap: square"/>
   </g>
   <g id="text_17">
    <!-- Peoria -->
    <g style="fill: #262626" transform="translate(249.914221 18.119531)scale(0.15 -0.15)">
     <defs>
      <path id="ArialMT-50" d="M 494 0 
L 494 4581 
L 2222 4581 
Q 2678 4581 2919 4538 
Q 3256 4481 3484 4323 
Q 3713 4166 3852 3881 
Q 3991 3597 3991 3256 
Q 3991 2672 3619 2267 
Q 3247 1863 2275 1863 
L 1100 1863 
L 1100 0 
L 494 0 
z
M 1100 2403 
L 2284 2403 
Q 2872 2403 3119 2622 
Q 3366 2841 3366 3238 
Q 3366 3525 3220 3729 
Q 3075 3934 2838 4000 
Q 2684 4041 2272 4041 
L 1100 4041 
L 1100 2403 
z
" transform="scale(0.015625)"/>
     </defs>
     <use xlink:href="#ArialMT-50"/>
     <use xlink:href="#ArialMT-65" x="66.699219"/>
     <use xlink:href="#ArialMT-6f" x="122.314453"/>
     <use xlink:href="#ArialMT-72" x="177.929688"/>
     <use xlink:href="#ArialMT-69" x="211.230469"/>
     <use xlink:href="#ArialMT-61" x="233.447266"/>
    </g>
   </g>
  </g>
  <g id="legend_1">
   <g id="patch_12">
    <path d="M 345.095469 151.20742 
L 423.114688 151.20742 
Q 425.314687 151.20742 425.314687 149.00742 
L 425.314687 55.833826 
Q 425.314687 53.633826 423.114688 53.633826 
L 345.095469 53.633826 
Q 342.895469 53.633826 342.895469 55.833826 
L 342.895469 149.00742 
Q 342.895469 151.20742 345.095469 151.20742 
z
" style="fill: #ffffff; opacity: 0.8; stroke: #cccccc; stroke-linejoin: miter"/>
   </g>
   <g id="text_18">
    <!-- $e_{max}$ -->
    <g style="fill: #262626" transform="translate(371.085078 66.623201)scale(0.12 -0.12)">
     <defs>
      <path id="DejaVuSans-Oblique-65" d="M 3078 2063 
Q 3088 2113 3092 2166 
Q 3097 2219 3097 2272 
Q 3097 2653 2873 2875 
Q 2650 3097 2266 3097 
Q 1838 3097 1509 2826 
Q 1181 2556 1013 2059 
L 3078 2063 
z
M 3578 1613 
L 903 1613 
Q 884 1494 878 1425 
Q 872 1356 872 1306 
Q 872 872 1139 634 
Q 1406 397 1894 397 
Q 2269 397 2603 481 
Q 2938 566 3225 728 
L 3116 159 
Q 2806 34 2476 -28 
Q 2147 -91 1806 -91 
Q 1078 -91 686 257 
Q 294 606 294 1247 
Q 294 1794 489 2264 
Q 684 2734 1063 3103 
Q 1306 3334 1642 3459 
Q 1978 3584 2356 3584 
Q 2950 3584 3301 3228 
Q 3653 2872 3653 2272 
Q 3653 2128 3634 1964 
Q 3616 1800 3578 1613 
z
" transform="scale(0.015625)"/>
      <path id="DejaVuSans-Oblique-6d" d="M 5747 2113 
L 5338 0 
L 4763 0 
L 5166 2094 
Q 5191 2228 5203 2325 
Q 5216 2422 5216 2491 
Q 5216 2772 5059 2928 
Q 4903 3084 4622 3084 
Q 4203 3084 3875 2770 
Q 3547 2456 3450 1953 
L 3066 0 
L 2491 0 
L 2900 2094 
Q 2925 2209 2937 2307 
Q 2950 2406 2950 2484 
Q 2950 2769 2794 2926 
Q 2638 3084 2363 3084 
Q 1938 3084 1609 2770 
Q 1281 2456 1184 1953 
L 800 0 
L 225 0 
L 909 3500 
L 1484 3500 
L 1375 2956 
Q 1609 3263 1923 3423 
Q 2238 3584 2597 3584 
Q 2978 3584 3223 3384 
Q 3469 3184 3519 2828 
Q 3781 3197 4126 3390 
Q 4472 3584 4856 3584 
Q 5306 3584 5551 3325 
Q 5797 3066 5797 2591 
Q 5797 2488 5784 2364 
Q 5772 2241 5747 2113 
z
" transform="scale(0.015625)"/>
      <path id="DejaVuSans-Oblique-61" d="M 3438 1997 
L 3047 0 
L 2472 0 
L 2578 531 
Q 2325 219 2001 64 
Q 1678 -91 1281 -91 
Q 834 -91 548 182 
Q 263 456 263 884 
Q 263 1497 752 1853 
Q 1241 2209 2100 2209 
L 2900 2209 
L 2931 2363 
Q 2938 2388 2941 2417 
Q 2944 2447 2944 2509 
Q 2944 2788 2717 2942 
Q 2491 3097 2081 3097 
Q 1800 3097 1504 3025 
Q 1209 2953 897 2809 
L 997 3341 
Q 1322 3463 1633 3523 
Q 1944 3584 2234 3584 
Q 2853 3584 3176 3315 
Q 3500 3047 3500 2534 
Q 3500 2431 3484 2292 
Q 3469 2153 3438 1997 
z
M 2816 1759 
L 2241 1759 
Q 1534 1759 1195 1570 
Q 856 1381 856 984 
Q 856 709 1029 553 
Q 1203 397 1509 397 
Q 1978 397 2328 733 
Q 2678 1069 2791 1631 
L 2816 1759 
z
" transform="scale(0.015625)"/>
      <path id="DejaVuSans-Oblique-78" d="M 3841 3500 
L 2234 1784 
L 3219 0 
L 2559 0 
L 1819 1388 
L 531 0 
L -166 0 
L 1556 1844 
L 641 3500 
L 1300 3500 
L 1972 2234 
L 3144 3500 
L 3841 3500 
z
" transform="scale(0.015625)"/>
     </defs>
     <use xlink:href="#DejaVuSans-Oblique-65"/>
     <use xlink:href="#DejaVuSans-Oblique-6d" transform="translate(61.523438 -16.40625)scale(0.7)"/>
     <use xlink:href="#DejaVuSans-Oblique-61" transform="translate(129.711914 -16.40625)scale(0.7)"/>
     <use xlink:href="#DejaVuSans-Oblique-78" transform="translate(172.607422 -16.40625)scale(0.7)"/>
    </g>
   </g>
   <g id="line2d_27">
    <path d="M 347.295469 78.531795 
L 358.295469 78.531795 
L 369.295469 78.531795 
" style="fill: none; stroke: #482475; stroke-width: 1.5; stroke-linecap: round"/>
   </g>
   <g id="text_19">
    <!-- 972198 -->
    <g style="fill: #262626" transform="translate(378.095469 82.381795)scale(0.11 -0.11)">
     <defs>
      <path id="ArialMT-39" d="M 350 1059 
L 891 1109 
Q 959 728 1153 556 
Q 1347 384 1650 384 
Q 1909 384 2104 503 
Q 2300 622 2425 820 
Q 2550 1019 2634 1356 
Q 2719 1694 2719 2044 
Q 2719 2081 2716 2156 
Q 2547 1888 2255 1720 
Q 1963 1553 1622 1553 
Q 1053 1553 659 1965 
Q 266 2378 266 3053 
Q 266 3750 677 4175 
Q 1088 4600 1706 4600 
Q 2153 4600 2523 4359 
Q 2894 4119 3086 3673 
Q 3278 3228 3278 2384 
Q 3278 1506 3087 986 
Q 2897 466 2520 194 
Q 2144 -78 1638 -78 
Q 1100 -78 759 220 
Q 419 519 350 1059 
z
M 2653 3081 
Q 2653 3566 2395 3850 
Q 2138 4134 1775 4134 
Q 1400 4134 1122 3828 
Q 844 3522 844 3034 
Q 844 2597 1108 2323 
Q 1372 2050 1759 2050 
Q 2150 2050 2401 2323 
Q 2653 2597 2653 3081 
z
" transform="scale(0.015625)"/>
      <path id="ArialMT-38" d="M 1131 2484 
Q 781 2613 612 2850 
Q 444 3088 444 3419 
Q 444 3919 803 4259 
Q 1163 4600 1759 4600 
Q 2359 4600 2725 4251 
Q 3091 3903 3091 3403 
Q 3091 3084 2923 2848 
Q 2756 2613 2416 2484 
Q 2838 2347 3058 2040 
Q 3278 1734 3278 1309 
Q 3278 722 2862 322 
Q 2447 -78 1769 -78 
Q 1091 -78 675 323 
Q 259 725 259 1325 
Q 259 1772 486 2073 
Q 713 2375 1131 2484 
z
M 1019 3438 
Q 1019 3113 1228 2906 
Q 1438 2700 1772 2700 
Q 2097 2700 2305 2904 
Q 2513 3109 2513 3406 
Q 2513 3716 2298 3927 
Q 2084 4138 1766 4138 
Q 1444 4138 1231 3931 
Q 1019 3725 1019 3438 
z
M 838 1322 
Q 838 1081 952 856 
Q 1066 631 1291 507 
Q 1516 384 1775 384 
Q 2178 384 2440 643 
Q 2703 903 2703 1303 
Q 2703 1709 2433 1975 
Q 2163 2241 1756 2241 
Q 1359 2241 1098 1978 
Q 838 1716 838 1322 
z
" transform="scale(0.015625)"/>
     </defs>
     <use xlink:href="#ArialMT-39"/>
     <use xlink:href="#ArialMT-37" x="55.615234"/>
     <use xlink:href="#ArialMT-32" x="111.230469"/>
     <use xlink:href="#ArialMT-31" x="166.845703"/>
     <use xlink:href="#ArialMT-39" x="222.460938"/>
     <use xlink:href="#ArialMT-38" x="278.076172"/>
    </g>
   </g>
   <g id="line2d_28">
    <path d="M 347.295469 94.091639 
L 358.295469 94.091639 
L 369.295469 94.091639 
" style="fill: none; stroke: #355f8d; stroke-width: 1.5; stroke-linecap: round"/>
   </g>
   <g id="text_20">
    <!-- 1072198 -->
    <g style="fill: #262626" transform="translate(378.095469 97.941639)scale(0.11 -0.11)">
     <use xlink:href="#ArialMT-31"/>
     <use xlink:href="#ArialMT-30" x="55.615234"/>
     <use xlink:href="#ArialMT-37" x="111.230469"/>
     <use xlink:href="#ArialMT-32" x="166.845703"/>
     <use xlink:href="#ArialMT-31" x="222.460938"/>
     <use xlink:href="#ArialMT-39" x="278.076172"/>
     <use xlink:href="#ArialMT-38" x="333.691406"/>
    </g>
   </g>
   <g id="line2d_29">
    <path d="M 347.295469 109.651482 
L 358.295469 109.651482 
L 369.295469 109.651482 
" style="fill: none; stroke: #21918c; stroke-width: 1.5; stroke-linecap: round"/>
   </g>
   <g id="text_21">
    <!-- 1172198 -->
    <g style="fill: #262626" transform="translate(378.095469 113.501482)scale(0.11 -0.11)">
     <use xlink:href="#ArialMT-31"/>
     <use xlink:href="#ArialMT-31" x="48.240234"/>
     <use xlink:href="#ArialMT-37" x="103.855469"/>
     <use xlink:href="#ArialMT-32" x="159.470703"/>
     <use xlink:href="#ArialMT-31" x="215.085938"/>
     <use xlink:href="#ArialMT-39" x="270.701172"/>
     <use xlink:href="#ArialMT-38" x="326.316406"/>
    </g>
   </g>
   <g id="line2d_30">
    <path d="M 347.295469 125.211326 
L 358.295469 125.211326 
L 369.295469 125.211326 
" style="fill: none; stroke: #44bf70; stroke-width: 1.5; stroke-linecap: round"/>
   </g>
   <g id="text_22">
    <!-- 1272198 -->
    <g style="fill: #262626" transform="translate(378.095469 129.061326)scale(0.11 -0.11)">
     <use xlink:href="#ArialMT-31"/>
     <use xlink:href="#ArialMT-32" x="55.615234"/>
     <use xlink:href="#ArialMT-37" x="111.230469"/>
     <use xlink:href="#ArialMT-32" x="166.845703"/>
     <use xlink:href="#ArialMT-31" x="222.460938"/>
     <use xlink:href="#ArialMT-39" x="278.076172"/>
     <use xlink:href="#ArialMT-38" x="333.691406"/>
    </g>
   </g>
   <g id="line2d_31">
    <path d="M 347.295469 140.77117 
L 358.295469 140.77117 
L 369.295469 140.77117 
" style="fill: none; stroke: #bddf26; stroke-width: 1.5; stroke-linecap: round"/>
   </g>
   <g id="text_23">
    <!-- 1372198 -->
    <g style="fill: #262626" transform="translate(378.095469 144.62117)scale(0.11 -0.11)">
     <defs>
      <path id="ArialMT-33" d="M 269 1209 
L 831 1284 
Q 928 806 1161 595 
Q 1394 384 1728 384 
Q 2125 384 2398 659 
Q 2672 934 2672 1341 
Q 2672 1728 2419 1979 
Q 2166 2231 1775 2231 
Q 1616 2231 1378 2169 
L 1441 2663 
Q 1497 2656 1531 2656 
Q 1891 2656 2178 2843 
Q 2466 3031 2466 3422 
Q 2466 3731 2256 3934 
Q 2047 4138 1716 4138 
Q 1388 4138 1169 3931 
Q 950 3725 888 3313 
L 325 3413 
Q 428 3978 793 4289 
Q 1159 4600 1703 4600 
Q 2078 4600 2393 4439 
Q 2709 4278 2876 4000 
Q 3044 3722 3044 3409 
Q 3044 3113 2884 2869 
Q 2725 2625 2413 2481 
Q 2819 2388 3044 2092 
Q 3269 1797 3269 1353 
Q 3269 753 2831 336 
Q 2394 -81 1725 -81 
Q 1122 -81 723 278 
Q 325 638 269 1209 
z
" transform="scale(0.015625)"/>
     </defs>
     <use xlink:href="#ArialMT-31"/>
     <use xlink:href="#ArialMT-33" x="55.615234"/>
     <use xlink:href="#ArialMT-37" x="111.230469"/>
     <use xlink:href="#ArialMT-32" x="166.845703"/>
     <use xlink:href="#ArialMT-31" x="222.460938"/>
     <use xlink:href="#ArialMT-39" x="278.076172"/>
     <use xlink:href="#ArialMT-38" x="333.691406"/>
    </g>
   </g>
  </g>
 </g>
 <defs>
  <clipPath id="p345a934816">
   <rect x="51.114688" y="24.119531" width="142.243902" height="142.243902"/>
  </clipPath>
  <clipPath id="p667da938f4">
   <rect x="200.470785" y="24.119531" width="142.243902" height="142.243902"/>
  </clipPath>
 </defs>
</svg>
