<?xml version="1.0" encoding="utf-8" standalone="no"?>
<!DOCTYPE svg PUBLIC "-//W3C//DTD SVG 1.1//EN"
  "http://www.w3.org/Graphics/SVG/1.1/DTD/svg11.dtd">
<svg xmlns:xlink="http://www.w3.org/1999/xlink" width="455.282812pt" height="204.841246pt" viewBox="0 0 455.282812 204.841246" xmlns="http://www.w3.org/2000/svg" version="1.1">
 <metadata>
  <rdf:RDF xmlns:dc="http://purl.org/dc/elements/1.1/" xmlns:cc="http://creativecommons.org/ns#" xmlns:rdf="http://www.w3.org/1999/02/22-rdf-syntax-ns#">
   <cc:Work>
    <dc:type rdf:resource="http://purl.org/dc/dcmitype/StillImage"/>
    <dc:date>2022-10-12T15:02:58.019566</dc:date>
    <dc:format>image/svg+xml</dc:format>
    <dc:creator>
     <cc:Agent>
      <dc:title>Matplotlib v3.5.1, https://matplotlib.org/</dc:title>
     </cc:Agent>
    </dc:creator>
   </cc:Work>
  </rdf:RDF>
 </metadata>
 <defs>
  <style type="text/css">*{stroke-linejoin: round; stroke-linecap: butt}</style>
 </defs>
 <g id="figure_1">
  <g id="patch_1">
   <path d="M 0 204.841246 
L 455.282812 204.841246 
L 455.282812 0 
L 0 0 
z
" style="fill: #ffffff"/>
  </g>
  <g id="axes_1">
   <g id="patch_2">
    <path d="M 75.582812 166.363434 
L 217.826715 166.363434 
L 217.826715 24.119531 
L 75.582812 24.119531 
z
" style="fill: #ffffff"/>
   </g>
   <g id="matplotlib.axis_1">
    <g id="xtick_1">
     <g id="line2d_1">
      <path d="M 102.57426 166.363434 
L 102.57426 24.119531 
" clip-path="url(#p88f309e0c6)" style="fill: none; stroke: #cccccc; stroke-linecap: round"/>
     </g>
     <g id="text_1">
      <!-- 20 -->
      <g style="fill: #262626" transform="translate(96.457229 177.737027)scale(0.11 -0.11)">
       <defs>
        <path id="ArialMT-32" d="M 3222 541 
L 3222 0 
L 194 0 
Q 188 203 259 391 
Q 375 700 629 1000 
Q 884 1300 1366 1694 
Q 2113 2306 2375 2664 
Q 2638 3022 2638 3341 
Q 2638 3675 2398 3904 
Q 2159 4134 1775 4134 
Q 1369 4134 1125 3890 
Q 881 3647 878 3216 
L 300 3275 
Q 359 3922 746 4261 
Q 1134 4600 1788 4600 
Q 2447 4600 2831 4234 
Q 3216 3869 3216 3328 
Q 3216 3053 3103 2787 
Q 2991 2522 2730 2228 
Q 2469 1934 1863 1422 
Q 1356 997 1212 845 
Q 1069 694 975 541 
L 3222 541 
z
" transform="scale(0.015625)"/>
        <path id="ArialMT-30" d="M 266 2259 
Q 266 3072 433 3567 
Q 600 4063 929 4331 
Q 1259 4600 1759 4600 
Q 2128 4600 2406 4451 
Q 2684 4303 2865 4023 
Q 3047 3744 3150 3342 
Q 3253 2941 3253 2259 
Q 3253 1453 3087 958 
Q 2922 463 2592 192 
Q 2263 -78 1759 -78 
Q 1097 -78 719 397 
Q 266 969 266 2259 
z
M 844 2259 
Q 844 1131 1108 757 
Q 1372 384 1759 384 
Q 2147 384 2411 759 
Q 2675 1134 2675 2259 
Q 2675 3391 2411 3762 
Q 2147 4134 1753 4134 
Q 1366 4134 1134 3806 
Q 844 3388 844 2259 
z
" transform="scale(0.015625)"/>
       </defs>
       <use xlink:href="#ArialMT-32"/>
       <use xlink:href="#ArialMT-30" x="55.615234"/>
      </g>
     </g>
    </g>
    <g id="xtick_2">
     <g id="line2d_2">
      <path d="M 143.625891 166.363434 
L 143.625891 24.119531 
" clip-path="url(#p88f309e0c6)" style="fill: none; stroke: #cccccc; stroke-linecap: round"/>
     </g>
     <g id="text_2">
      <!-- 40 -->
      <g style="fill: #262626" transform="translate(137.50886 177.737027)scale(0.11 -0.11)">
       <defs>
        <path id="ArialMT-34" d="M 2069 0 
L 2069 1097 
L 81 1097 
L 81 1613 
L 2172 4581 
L 2631 4581 
L 2631 1613 
L 3250 1613 
L 3250 1097 
L 2631 1097 
L 2631 0 
L 2069 0 
z
M 2069 1613 
L 2069 3678 
L 634 1613 
L 2069 1613 
z
" transform="scale(0.015625)"/>
       </defs>
       <use xlink:href="#ArialMT-34"/>
       <use xlink:href="#ArialMT-30" x="55.615234"/>
      </g>
     </g>
    </g>
    <g id="xtick_3">
     <g id="line2d_3">
      <path d="M 184.677523 166.363434 
L 184.677523 24.119531 
" clip-path="url(#p88f309e0c6)" style="fill: none; stroke: #cccccc; stroke-linecap: round"/>
     </g>
     <g id="text_3">
      <!-- 60 -->
      <g style="fill: #262626" transform="translate(178.560491 177.737027)scale(0.11 -0.11)">
       <defs>
        <path id="ArialMT-36" d="M 3184 3459 
L 2625 3416 
Q 2550 3747 2413 3897 
Q 2184 4138 1850 4138 
Q 1581 4138 1378 3988 
Q 1113 3794 959 3422 
Q 806 3050 800 2363 
Q 1003 2672 1297 2822 
Q 1591 2972 1913 2972 
Q 2475 2972 2870 2558 
Q 3266 2144 3266 1488 
Q 3266 1056 3080 686 
Q 2894 316 2569 119 
Q 2244 -78 1831 -78 
Q 1128 -78 684 439 
Q 241 956 241 2144 
Q 241 3472 731 4075 
Q 1159 4600 1884 4600 
Q 2425 4600 2770 4297 
Q 3116 3994 3184 3459 
z
M 888 1484 
Q 888 1194 1011 928 
Q 1134 663 1356 523 
Q 1578 384 1822 384 
Q 2178 384 2434 671 
Q 2691 959 2691 1453 
Q 2691 1928 2437 2201 
Q 2184 2475 1800 2475 
Q 1419 2475 1153 2201 
Q 888 1928 888 1484 
z
" transform="scale(0.015625)"/>
       </defs>
       <use xlink:href="#ArialMT-36"/>
       <use xlink:href="#ArialMT-30" x="55.615234"/>
      </g>
     </g>
    </g>
    <g id="text_4">
     <!-- Years -->
     <g style="fill: #262626" transform="translate(127.797732 194.659996)scale(0.15 -0.15)">
      <defs>
       <path id="ArialMT-59" d="M 1784 0 
L 1784 1941 
L 19 4581 
L 756 4581 
L 1659 3200 
Q 1909 2813 2125 2425 
Q 2331 2784 2625 3234 
L 3513 4581 
L 4219 4581 
L 2391 1941 
L 2391 0 
L 1784 0 
z
" transform="scale(0.015625)"/>
       <path id="ArialMT-65" d="M 2694 1069 
L 3275 997 
Q 3138 488 2766 206 
Q 2394 -75 1816 -75 
Q 1088 -75 661 373 
Q 234 822 234 1631 
Q 234 2469 665 2931 
Q 1097 3394 1784 3394 
Q 2450 3394 2872 2941 
Q 3294 2488 3294 1666 
Q 3294 1616 3291 1516 
L 816 1516 
Q 847 969 1125 678 
Q 1403 388 1819 388 
Q 2128 388 2347 550 
Q 2566 713 2694 1069 
z
M 847 1978 
L 2700 1978 
Q 2663 2397 2488 2606 
Q 2219 2931 1791 2931 
Q 1403 2931 1139 2672 
Q 875 2413 847 1978 
z
" transform="scale(0.015625)"/>
       <path id="ArialMT-61" d="M 2588 409 
Q 2275 144 1986 34 
Q 1697 -75 1366 -75 
Q 819 -75 525 192 
Q 231 459 231 875 
Q 231 1119 342 1320 
Q 453 1522 633 1644 
Q 813 1766 1038 1828 
Q 1203 1872 1538 1913 
Q 2219 1994 2541 2106 
Q 2544 2222 2544 2253 
Q 2544 2597 2384 2738 
Q 2169 2928 1744 2928 
Q 1347 2928 1158 2789 
Q 969 2650 878 2297 
L 328 2372 
Q 403 2725 575 2942 
Q 747 3159 1072 3276 
Q 1397 3394 1825 3394 
Q 2250 3394 2515 3294 
Q 2781 3194 2906 3042 
Q 3031 2891 3081 2659 
Q 3109 2516 3109 2141 
L 3109 1391 
Q 3109 606 3145 398 
Q 3181 191 3288 0 
L 2700 0 
Q 2613 175 2588 409 
z
M 2541 1666 
Q 2234 1541 1622 1453 
Q 1275 1403 1131 1340 
Q 988 1278 909 1158 
Q 831 1038 831 891 
Q 831 666 1001 516 
Q 1172 366 1500 366 
Q 1825 366 2078 508 
Q 2331 650 2450 897 
Q 2541 1088 2541 1459 
L 2541 1666 
z
" transform="scale(0.015625)"/>
       <path id="ArialMT-72" d="M 416 0 
L 416 3319 
L 922 3319 
L 922 2816 
Q 1116 3169 1280 3281 
Q 1444 3394 1641 3394 
Q 1925 3394 2219 3213 
L 2025 2691 
Q 1819 2813 1613 2813 
Q 1428 2813 1281 2702 
Q 1134 2591 1072 2394 
Q 978 2094 978 1738 
L 978 0 
L 416 0 
z
" transform="scale(0.015625)"/>
       <path id="ArialMT-73" d="M 197 991 
L 753 1078 
Q 800 744 1014 566 
Q 1228 388 1613 388 
Q 2000 388 2187 545 
Q 2375 703 2375 916 
Q 2375 1106 2209 1216 
Q 2094 1291 1634 1406 
Q 1016 1563 777 1677 
Q 538 1791 414 1992 
Q 291 2194 291 2438 
Q 291 2659 392 2848 
Q 494 3038 669 3163 
Q 800 3259 1026 3326 
Q 1253 3394 1513 3394 
Q 1903 3394 2198 3281 
Q 2494 3169 2634 2976 
Q 2775 2784 2828 2463 
L 2278 2388 
Q 2241 2644 2061 2787 
Q 1881 2931 1553 2931 
Q 1166 2931 1000 2803 
Q 834 2675 834 2503 
Q 834 2394 903 2306 
Q 972 2216 1119 2156 
Q 1203 2125 1616 2013 
Q 2213 1853 2448 1751 
Q 2684 1650 2818 1456 
Q 2953 1263 2953 975 
Q 2953 694 2789 445 
Q 2625 197 2315 61 
Q 2006 -75 1616 -75 
Q 969 -75 630 194 
Q 291 463 197 991 
z
" transform="scale(0.015625)"/>
      </defs>
      <use xlink:href="#ArialMT-59"/>
      <use xlink:href="#ArialMT-65" x="57.574219"/>
      <use xlink:href="#ArialMT-61" x="113.189453"/>
      <use xlink:href="#ArialMT-72" x="168.804688"/>
      <use xlink:href="#ArialMT-73" x="202.105469"/>
     </g>
    </g>
   </g>
   <g id="matplotlib.axis_2">
    <g id="ytick_1">
     <g id="line2d_4">
      <path d="M 75.582812 152.786293 
L 217.826715 152.786293 
" clip-path="url(#p88f309e0c6)" style="fill: none; stroke: #cccccc; stroke-linecap: round"/>
     </g>
     <g id="text_5">
      <!-- −0.00010 -->
      <g style="fill: #262626" transform="translate(25.9 156.72309)scale(0.11 -0.11)">
       <defs>
        <path id="ArialMT-2212" d="M 3381 1997 
L 356 1997 
L 356 2522 
L 3381 2522 
L 3381 1997 
z
" transform="scale(0.015625)"/>
        <path id="ArialMT-2e" d="M 581 0 
L 581 641 
L 1222 641 
L 1222 0 
L 581 0 
z
" transform="scale(0.015625)"/>
        <path id="ArialMT-31" d="M 2384 0 
L 1822 0 
L 1822 3584 
Q 1619 3391 1289 3197 
Q 959 3003 697 2906 
L 697 3450 
Q 1169 3672 1522 3987 
Q 1875 4303 2022 4600 
L 2384 4600 
L 2384 0 
z
" transform="scale(0.015625)"/>
       </defs>
       <use xlink:href="#ArialMT-2212"/>
       <use xlink:href="#ArialMT-30" x="58.398438"/>
       <use xlink:href="#ArialMT-2e" x="114.013672"/>
       <use xlink:href="#ArialMT-30" x="141.796875"/>
       <use xlink:href="#ArialMT-30" x="197.412109"/>
       <use xlink:href="#ArialMT-30" x="253.027344"/>
       <use xlink:href="#ArialMT-31" x="308.642578"/>
       <use xlink:href="#ArialMT-30" x="364.257812"/>
      </g>
     </g>
    </g>
    <g id="ytick_2">
     <g id="line2d_5">
      <path d="M 75.582812 118.745379 
L 217.826715 118.745379 
" clip-path="url(#p88f309e0c6)" style="fill: none; stroke: #cccccc; stroke-linecap: round"/>
     </g>
     <g id="text_6">
      <!-- −0.00005 -->
      <g style="fill: #262626" transform="translate(25.9 122.682175)scale(0.11 -0.11)">
       <defs>
        <path id="ArialMT-35" d="M 266 1200 
L 856 1250 
Q 922 819 1161 601 
Q 1400 384 1738 384 
Q 2144 384 2425 690 
Q 2706 997 2706 1503 
Q 2706 1984 2436 2262 
Q 2166 2541 1728 2541 
Q 1456 2541 1237 2417 
Q 1019 2294 894 2097 
L 366 2166 
L 809 4519 
L 3088 4519 
L 3088 3981 
L 1259 3981 
L 1013 2750 
Q 1425 3038 1878 3038 
Q 2478 3038 2890 2622 
Q 3303 2206 3303 1553 
Q 3303 931 2941 478 
Q 2500 -78 1738 -78 
Q 1113 -78 717 272 
Q 322 622 266 1200 
z
" transform="scale(0.015625)"/>
       </defs>
       <use xlink:href="#ArialMT-2212"/>
       <use xlink:href="#ArialMT-30" x="58.398438"/>
       <use xlink:href="#ArialMT-2e" x="114.013672"/>
       <use xlink:href="#ArialMT-30" x="141.796875"/>
       <use xlink:href="#ArialMT-30" x="197.412109"/>
       <use xlink:href="#ArialMT-30" x="253.027344"/>
       <use xlink:href="#ArialMT-30" x="308.642578"/>
       <use xlink:href="#ArialMT-35" x="364.257812"/>
      </g>
     </g>
    </g>
    <g id="ytick_3">
     <g id="line2d_6">
      <path d="M 75.582812 84.704464 
L 217.826715 84.704464 
" clip-path="url(#p88f309e0c6)" style="fill: none; stroke: #cccccc; stroke-linecap: round"/>
     </g>
     <g id="text_7">
      <!-- 0.00000 -->
      <g style="fill: #262626" transform="translate(32.324687 88.641261)scale(0.11 -0.11)">
       <use xlink:href="#ArialMT-30"/>
       <use xlink:href="#ArialMT-2e" x="55.615234"/>
       <use xlink:href="#ArialMT-30" x="83.398438"/>
       <use xlink:href="#ArialMT-30" x="139.013672"/>
       <use xlink:href="#ArialMT-30" x="194.628906"/>
       <use xlink:href="#ArialMT-30" x="250.244141"/>
       <use xlink:href="#ArialMT-30" x="305.859375"/>
      </g>
     </g>
    </g>
    <g id="ytick_4">
     <g id="line2d_7">
      <path d="M 75.582812 50.663549 
L 217.826715 50.663549 
" clip-path="url(#p88f309e0c6)" style="fill: none; stroke: #cccccc; stroke-linecap: round"/>
     </g>
     <g id="text_8">
      <!-- 0.00005 -->
      <g style="fill: #262626" transform="translate(32.324687 54.600346)scale(0.11 -0.11)">
       <use xlink:href="#ArialMT-30"/>
       <use xlink:href="#ArialMT-2e" x="55.615234"/>
       <use xlink:href="#ArialMT-30" x="83.398438"/>
       <use xlink:href="#ArialMT-30" x="139.013672"/>
       <use xlink:href="#ArialMT-30" x="194.628906"/>
       <use xlink:href="#ArialMT-30" x="250.244141"/>
       <use xlink:href="#ArialMT-35" x="305.859375"/>
      </g>
     </g>
    </g>
    <g id="text_9">
     <!-- Sensitivity of $\lambda$ -->
     <g style="fill: #262626" transform="translate(18.6 143.916482)rotate(-90)scale(0.15 -0.15)">
      <defs>
       <path id="ArialMT-53" d="M 288 1472 
L 859 1522 
Q 900 1178 1048 958 
Q 1197 738 1509 602 
Q 1822 466 2213 466 
Q 2559 466 2825 569 
Q 3091 672 3220 851 
Q 3350 1031 3350 1244 
Q 3350 1459 3225 1620 
Q 3100 1781 2813 1891 
Q 2628 1963 1997 2114 
Q 1366 2266 1113 2400 
Q 784 2572 623 2826 
Q 463 3081 463 3397 
Q 463 3744 659 4045 
Q 856 4347 1234 4503 
Q 1613 4659 2075 4659 
Q 2584 4659 2973 4495 
Q 3363 4331 3572 4012 
Q 3781 3694 3797 3291 
L 3216 3247 
Q 3169 3681 2898 3903 
Q 2628 4125 2100 4125 
Q 1550 4125 1298 3923 
Q 1047 3722 1047 3438 
Q 1047 3191 1225 3031 
Q 1400 2872 2139 2705 
Q 2878 2538 3153 2413 
Q 3553 2228 3743 1945 
Q 3934 1663 3934 1294 
Q 3934 928 3725 604 
Q 3516 281 3123 101 
Q 2731 -78 2241 -78 
Q 1619 -78 1198 103 
Q 778 284 539 648 
Q 300 1013 288 1472 
z
" transform="scale(0.015625)"/>
       <path id="ArialMT-6e" d="M 422 0 
L 422 3319 
L 928 3319 
L 928 2847 
Q 1294 3394 1984 3394 
Q 2284 3394 2536 3286 
Q 2788 3178 2913 3003 
Q 3038 2828 3088 2588 
Q 3119 2431 3119 2041 
L 3119 0 
L 2556 0 
L 2556 2019 
Q 2556 2363 2490 2533 
Q 2425 2703 2258 2804 
Q 2091 2906 1866 2906 
Q 1506 2906 1245 2678 
Q 984 2450 984 1813 
L 984 0 
L 422 0 
z
" transform="scale(0.015625)"/>
       <path id="ArialMT-69" d="M 425 3934 
L 425 4581 
L 988 4581 
L 988 3934 
L 425 3934 
z
M 425 0 
L 425 3319 
L 988 3319 
L 988 0 
L 425 0 
z
" transform="scale(0.015625)"/>
       <path id="ArialMT-74" d="M 1650 503 
L 1731 6 
Q 1494 -44 1306 -44 
Q 1000 -44 831 53 
Q 663 150 594 308 
Q 525 466 525 972 
L 525 2881 
L 113 2881 
L 113 3319 
L 525 3319 
L 525 4141 
L 1084 4478 
L 1084 3319 
L 1650 3319 
L 1650 2881 
L 1084 2881 
L 1084 941 
Q 1084 700 1114 631 
Q 1144 563 1211 522 
Q 1278 481 1403 481 
Q 1497 481 1650 503 
z
" transform="scale(0.015625)"/>
       <path id="ArialMT-76" d="M 1344 0 
L 81 3319 
L 675 3319 
L 1388 1331 
Q 1503 1009 1600 663 
Q 1675 925 1809 1294 
L 2547 3319 
L 3125 3319 
L 1869 0 
L 1344 0 
z
" transform="scale(0.015625)"/>
       <path id="ArialMT-79" d="M 397 -1278 
L 334 -750 
Q 519 -800 656 -800 
Q 844 -800 956 -737 
Q 1069 -675 1141 -563 
Q 1194 -478 1313 -144 
Q 1328 -97 1363 -6 
L 103 3319 
L 709 3319 
L 1400 1397 
Q 1534 1031 1641 628 
Q 1738 1016 1872 1384 
L 2581 3319 
L 3144 3319 
L 1881 -56 
Q 1678 -603 1566 -809 
Q 1416 -1088 1222 -1217 
Q 1028 -1347 759 -1347 
Q 597 -1347 397 -1278 
z
" transform="scale(0.015625)"/>
       <path id="ArialMT-20" transform="scale(0.015625)"/>
       <path id="ArialMT-6f" d="M 213 1659 
Q 213 2581 725 3025 
Q 1153 3394 1769 3394 
Q 2453 3394 2887 2945 
Q 3322 2497 3322 1706 
Q 3322 1066 3130 698 
Q 2938 331 2570 128 
Q 2203 -75 1769 -75 
Q 1072 -75 642 372 
Q 213 819 213 1659 
z
M 791 1659 
Q 791 1022 1069 705 
Q 1347 388 1769 388 
Q 2188 388 2466 706 
Q 2744 1025 2744 1678 
Q 2744 2294 2464 2611 
Q 2184 2928 1769 2928 
Q 1347 2928 1069 2612 
Q 791 2297 791 1659 
z
" transform="scale(0.015625)"/>
       <path id="ArialMT-66" d="M 556 0 
L 556 2881 
L 59 2881 
L 59 3319 
L 556 3319 
L 556 3672 
Q 556 4006 616 4169 
Q 697 4388 901 4523 
Q 1106 4659 1475 4659 
Q 1713 4659 2000 4603 
L 1916 4113 
Q 1741 4144 1584 4144 
Q 1328 4144 1222 4034 
Q 1116 3925 1116 3625 
L 1116 3319 
L 1763 3319 
L 1763 2881 
L 1116 2881 
L 1116 0 
L 556 0 
z
" transform="scale(0.015625)"/>
       <path id="DejaVuSans-Oblique-3bb" d="M 2350 4316 
L 3125 0 
L 2516 0 
L 2038 2588 
L 328 0 
L -281 0 
L 1903 3356 
L 1794 3975 
Q 1725 4369 1391 4369 
L 1091 4369 
L 1184 4863 
L 1550 4856 
Q 2253 4847 2350 4316 
z
" transform="scale(0.015625)"/>
      </defs>
      <use xlink:href="#ArialMT-53" transform="translate(0 0.015625)"/>
      <use xlink:href="#ArialMT-65" transform="translate(66.699219 0.015625)"/>
      <use xlink:href="#ArialMT-6e" transform="translate(122.314453 0.015625)"/>
      <use xlink:href="#ArialMT-73" transform="translate(177.929688 0.015625)"/>
      <use xlink:href="#ArialMT-69" transform="translate(227.929688 0.015625)"/>
      <use xlink:href="#ArialMT-74" transform="translate(250.146484 0.015625)"/>
      <use xlink:href="#ArialMT-69" transform="translate(277.929688 0.015625)"/>
      <use xlink:href="#ArialMT-76" transform="translate(300.146484 0.015625)"/>
      <use xlink:href="#ArialMT-69" transform="translate(350.146484 0.015625)"/>
      <use xlink:href="#ArialMT-74" transform="translate(372.363281 0.015625)"/>
      <use xlink:href="#ArialMT-79" transform="translate(400.146484 0.015625)"/>
      <use xlink:href="#ArialMT-20" transform="translate(450.146484 0.015625)"/>
      <use xlink:href="#ArialMT-6f" transform="translate(477.929688 0.015625)"/>
      <use xlink:href="#ArialMT-66" transform="translate(533.544922 0.015625)"/>
      <use xlink:href="#ArialMT-20" transform="translate(561.328125 0.015625)"/>
      <use xlink:href="#DejaVuSans-Oblique-3bb" transform="translate(589.111328 0.015625)"/>
     </g>
    </g>
   </g>
   <g id="line2d_8">
    <path d="M 82.048444 40.074249 
L 84.101026 30.585163 
L 86.153608 37.027509 
L 88.206189 51.301263 
L 90.258771 64.975111 
L 92.311352 74.986792 
L 94.363934 80.718674 
L 96.416515 83.56273 
L 98.469097 84.621058 
L 100.521679 84.932237 
L 102.57426 84.907247 
L 104.626842 84.842571 
L 106.679423 84.76779 
L 108.732005 84.734503 
L 110.784586 84.710526 
L 112.837168 84.70648 
L 114.889749 84.701992 
L 116.942331 84.703853 
L 118.994913 84.703025 
L 121.047494 84.704431 
L 123.100076 84.703983 
L 125.152657 84.704629 
L 127.205239 84.7043 
L 129.25782 84.70459 
L 131.310402 84.704387 
L 133.362984 84.704532 
L 135.415565 84.704421 
L 137.468147 84.704499 
L 139.520728 84.70444 
L 141.57331 84.704482 
L 143.625891 84.704451 
L 145.678473 84.704474 
L 147.731055 84.704457 
L 149.783636 84.704469 
L 151.836218 84.70446 
L 153.888799 84.704467 
L 155.941381 84.704462 
L 157.993962 84.704465 
L 160.046544 84.704463 
L 162.099125 84.704465 
L 164.151707 84.704463 
L 166.204289 84.704464 
L 168.25687 84.704464 
L 170.309452 84.704464 
L 172.362033 84.704464 
L 174.414615 84.704464 
L 176.467196 84.704464 
L 178.519778 84.704464 
L 180.57236 84.704464 
L 182.624941 84.704464 
L 184.677523 84.704464 
L 186.730104 84.704464 
L 188.782686 84.704464 
L 190.835267 84.704464 
L 192.887849 84.704464 
L 194.94043 84.704464 
L 196.993012 84.704464 
L 199.045594 84.704464 
L 201.098175 84.704464 
L 203.150757 84.704464 
L 205.203338 84.704464 
L 207.25592 84.704464 
L 209.308501 84.704464 
L 211.361083 84.704464 
" clip-path="url(#p88f309e0c6)" style="fill: none; stroke: #482475; stroke-width: 1.5; stroke-linecap: round"/>
   </g>
   <g id="line2d_9">
    <path d="M 82.048444 85.541678 
L 84.101026 59.183215 
L 86.153608 42.660162 
L 88.206189 37.091383 
L 90.258771 40.234364 
L 92.311352 48.373643 
L 94.363934 57.931381 
L 96.416515 66.554929 
L 98.469097 73.217994 
L 100.521679 77.841285 
L 102.57426 80.799021 
L 104.626842 82.574603 
L 106.679423 83.586327 
L 108.732005 84.137903 
L 110.784586 84.427015 
L 112.837168 84.573165 
L 114.889749 84.644498 
L 116.942331 84.678115 
L 118.994913 84.693385 
L 121.047494 84.70005 
L 123.100076 84.702827 
L 125.152657 84.70392 
L 127.205239 84.704318 
L 129.25782 84.704446 
L 131.310402 84.704477 
L 133.362984 84.704479 
L 135.415565 84.704475 
L 137.468147 84.70447 
L 139.520728 84.704467 
L 141.57331 84.704466 
L 143.625891 84.704465 
L 145.678473 84.704464 
L 147.731055 84.704464 
L 149.783636 84.704464 
L 151.836218 84.704464 
L 153.888799 84.704464 
L 155.941381 84.704464 
L 157.993962 84.704464 
L 160.046544 84.704464 
L 162.099125 84.704464 
L 164.151707 84.704464 
L 166.204289 84.704464 
L 168.25687 84.704464 
L 170.309452 84.704464 
L 172.362033 84.704464 
L 174.414615 84.704464 
L 176.467196 84.704464 
L 178.519778 84.704464 
L 180.57236 84.704464 
L 182.624941 84.704464 
L 184.677523 84.704464 
L 186.730104 84.704464 
L 188.782686 84.704464 
L 190.835267 84.704464 
L 192.887849 84.704464 
L 194.94043 84.704464 
L 196.993012 84.704464 
L 199.045594 84.704464 
L 201.098175 84.704464 
L 203.150757 84.704464 
L 205.203338 84.704464 
L 207.25592 84.704464 
L 209.308501 84.704464 
L 211.361083 84.704464 
" clip-path="url(#p88f309e0c6)" style="fill: none; stroke: #355f8d; stroke-width: 1.5; stroke-linecap: round"/>
   </g>
   <g id="line2d_10">
    <path d="M 82.048444 128.993119 
L 84.101026 107.406689 
L 86.153608 88.547283 
L 88.206189 72.774507 
L 90.258771 61.093842 
L 92.311352 54.032302 
L 94.363934 51.237465 
L 96.416515 51.818139 
L 98.469097 54.671216 
L 100.521679 58.739588 
L 102.57426 63.183138 
L 104.626842 67.439984 
L 106.679423 71.202327 
L 108.732005 74.351419 
L 110.784586 76.887498 
L 112.837168 78.873344 
L 114.889749 80.396246 
L 116.942331 81.545854 
L 118.994913 82.4032 
L 121.047494 83.036524 
L 123.100076 83.500817 
L 125.152657 83.839091 
L 127.205239 84.08429 
L 129.25782 84.261256 
L 131.310402 84.388508 
L 133.362984 84.479719 
L 135.415565 84.544914 
L 137.468147 84.5914 
L 139.520728 84.624471 
L 141.57331 84.647953 
L 143.625891 84.664596 
L 145.678473 84.676372 
L 147.731055 84.684693 
L 149.783636 84.690564 
L 151.836218 84.694701 
L 153.888799 84.697614 
L 155.941381 84.699661 
L 157.993962 84.7011 
L 160.046544 84.702109 
L 162.099125 84.702817 
L 164.151707 84.703312 
L 166.204289 84.703659 
L 168.25687 84.703902 
L 170.309452 84.704072 
L 172.362033 84.704191 
L 174.414615 84.704273 
L 176.467196 84.704331 
L 178.519778 84.704371 
L 180.57236 84.7044 
L 182.624941 84.704419 
L 184.677523 84.704433 
L 186.730104 84.704442 
L 188.782686 84.704449 
L 190.835267 84.704453 
L 192.887849 84.704457 
L 194.94043 84.704459 
L 196.993012 84.70446 
L 199.045594 84.704462 
L 201.098175 84.704462 
L 203.150757 84.704463 
L 205.203338 84.704463 
L 207.25592 84.704463 
L 209.308501 84.704464 
L 211.361083 84.704464 
" clip-path="url(#p88f309e0c6)" style="fill: none; stroke: #21918c; stroke-width: 1.5; stroke-linecap: round"/>
   </g>
   <g id="line2d_11">
    <path d="M 82.048444 153.276255 
L 84.101026 141.886411 
L 86.153608 129.481313 
L 88.206189 118.352476 
L 90.258771 108.087157 
L 92.311352 98.45352 
L 94.363934 89.861237 
L 96.416515 82.633019 
L 98.469097 76.830708 
L 100.521679 72.410756 
L 102.57426 69.288125 
L 104.626842 67.327556 
L 106.679423 66.351892 
L 108.732005 66.167948 
L 110.784586 66.587887 
L 112.837168 67.441433 
L 114.889749 68.582305 
L 116.942331 69.890932 
L 118.994913 71.274136 
L 121.047494 72.662684 
L 123.100076 74.007731 
L 125.152657 75.276976 
L 127.205239 76.45101 
L 129.25782 77.520094 
L 131.310402 78.481462 
L 133.362984 79.337167 
L 135.415565 80.092409 
L 137.468147 80.75429 
L 139.520728 81.330898 
L 141.57331 81.830669 
L 143.625891 82.261953 
L 145.678473 82.632727 
L 147.731055 82.950428 
L 149.783636 83.221863 
L 151.836218 83.453175 
L 153.888799 83.649844 
L 155.941381 83.816717 
L 157.993962 83.958047 
L 160.046544 84.077545 
L 162.099125 84.17843 
L 164.151707 84.263485 
L 166.204289 84.335102 
L 168.25687 84.395335 
L 170.309452 84.445938 
L 172.362033 84.488408 
L 174.414615 84.524021 
L 176.467196 84.553857 
L 178.519778 84.578833 
L 180.57236 84.599725 
L 182.624941 84.617188 
L 184.677523 84.631776 
L 186.730104 84.643954 
L 188.782686 84.654115 
L 190.835267 84.662587 
L 192.887849 84.669648 
L 194.94043 84.675529 
L 196.993012 84.680426 
L 199.045594 84.684501 
L 201.098175 84.687891 
L 203.150757 84.69071 
L 205.203338 84.693053 
L 207.25592 84.694999 
L 209.308501 84.696616 
L 211.361083 84.697958 
" clip-path="url(#p88f309e0c6)" style="fill: none; stroke: #44bf70; stroke-width: 1.5; stroke-linecap: round"/>
   </g>
   <g id="line2d_12">
    <path d="M 82.048444 159.897802 
L 84.101026 158.307774 
L 86.153608 153.593401 
L 88.206189 147.540592 
L 90.258771 142.304761 
L 92.311352 137.782155 
L 94.363934 133.254135 
L 96.416515 128.624078 
L 98.469097 124.137657 
L 100.521679 119.911012 
L 102.57426 115.914707 
L 104.626842 112.122485 
L 106.679423 108.551129 
L 108.732005 105.222696 
L 110.784586 102.143021 
L 112.837168 99.308574 
L 114.889749 96.715171 
L 116.942331 94.358399 
L 118.994913 92.23145 
L 121.047494 90.324856 
L 123.100076 88.627502 
L 125.152657 87.127364 
L 127.205239 85.811771 
L 129.25782 84.667582 
L 131.310402 83.681451 
L 133.362984 82.840103 
L 135.415565 82.130538 
L 137.468147 81.540182 
L 139.520728 81.057003 
L 141.57331 80.669596 
L 143.625891 80.367255 
L 145.678473 80.140004 
L 147.731055 79.978619 
L 149.783636 79.874624 
L 151.836218 79.820281 
L 153.888799 79.808568 
L 155.941381 79.833145 
L 157.993962 79.888322 
L 160.046544 79.969013 
L 162.099125 80.070702 
L 164.151707 80.18939 
L 166.204289 80.321564 
L 168.25687 80.464144 
L 170.309452 80.614449 
L 172.362033 80.77016 
L 174.414615 80.929277 
L 176.467196 81.090092 
L 178.519778 81.251155 
L 180.57236 81.411244 
L 182.624941 81.569339 
L 184.677523 81.724602 
L 186.730104 81.876348 
L 188.782686 82.02403 
L 190.835267 82.16722 
L 192.887849 82.305595 
L 194.94043 82.438918 
L 196.993012 82.56703 
L 199.045594 82.689838 
L 201.098175 82.807302 
L 203.150757 82.919431 
L 205.203338 83.02627 
L 207.25592 83.127897 
L 209.308501 83.224418 
L 211.361083 83.315959 
" clip-path="url(#p88f309e0c6)" style="fill: none; stroke: #bddf26; stroke-width: 1.5; stroke-linecap: round"/>
   </g>
   <g id="patch_3">
    <path d="M 75.582812 166.363434 
L 75.582812 24.119531 
" style="fill: none; stroke: #cccccc; stroke-linejoin: miter; stroke-linecap: square"/>
   </g>
   <g id="patch_4">
    <path d="M 217.826715 166.363434 
L 217.826715 24.119531 
" style="fill: none; stroke: #cccccc; stroke-linejoin: miter; stroke-linecap: square"/>
   </g>
   <g id="patch_5">
    <path d="M 75.582812 166.363434 
L 217.826715 166.363434 
" style="fill: none; stroke: #cccccc; stroke-linejoin: miter; stroke-linecap: square"/>
   </g>
   <g id="patch_6">
    <path d="M 75.582812 24.119531 
L 217.826715 24.119531 
" style="fill: none; stroke: #cccccc; stroke-linejoin: miter; stroke-linecap: square"/>
   </g>
   <g id="text_10">
    <!-- La Grange -->
    <g style="fill: #262626" transform="translate(111.266092 18.119531)scale(0.15 -0.15)">
     <defs>
      <path id="ArialMT-4c" d="M 469 0 
L 469 4581 
L 1075 4581 
L 1075 541 
L 3331 541 
L 3331 0 
L 469 0 
z
" transform="scale(0.015625)"/>
      <path id="ArialMT-47" d="M 2638 1797 
L 2638 2334 
L 4578 2338 
L 4578 638 
Q 4131 281 3656 101 
Q 3181 -78 2681 -78 
Q 2006 -78 1454 211 
Q 903 500 622 1047 
Q 341 1594 341 2269 
Q 341 2938 620 3517 
Q 900 4097 1425 4378 
Q 1950 4659 2634 4659 
Q 3131 4659 3532 4498 
Q 3934 4338 4162 4050 
Q 4391 3763 4509 3300 
L 3963 3150 
Q 3859 3500 3706 3700 
Q 3553 3900 3268 4020 
Q 2984 4141 2638 4141 
Q 2222 4141 1919 4014 
Q 1616 3888 1430 3681 
Q 1244 3475 1141 3228 
Q 966 2803 966 2306 
Q 966 1694 1177 1281 
Q 1388 869 1791 669 
Q 2194 469 2647 469 
Q 3041 469 3416 620 
Q 3791 772 3984 944 
L 3984 1797 
L 2638 1797 
z
" transform="scale(0.015625)"/>
      <path id="ArialMT-67" d="M 319 -275 
L 866 -356 
Q 900 -609 1056 -725 
Q 1266 -881 1628 -881 
Q 2019 -881 2231 -725 
Q 2444 -569 2519 -288 
Q 2563 -116 2559 434 
Q 2191 0 1641 0 
Q 956 0 581 494 
Q 206 988 206 1678 
Q 206 2153 378 2554 
Q 550 2956 876 3175 
Q 1203 3394 1644 3394 
Q 2231 3394 2613 2919 
L 2613 3319 
L 3131 3319 
L 3131 450 
Q 3131 -325 2973 -648 
Q 2816 -972 2473 -1159 
Q 2131 -1347 1631 -1347 
Q 1038 -1347 672 -1080 
Q 306 -813 319 -275 
z
M 784 1719 
Q 784 1066 1043 766 
Q 1303 466 1694 466 
Q 2081 466 2343 764 
Q 2606 1063 2606 1700 
Q 2606 2309 2336 2618 
Q 2066 2928 1684 2928 
Q 1309 2928 1046 2623 
Q 784 2319 784 1719 
z
" transform="scale(0.015625)"/>
     </defs>
     <use xlink:href="#ArialMT-4c"/>
     <use xlink:href="#ArialMT-61" x="55.615234"/>
     <use xlink:href="#ArialMT-20" x="111.230469"/>
     <use xlink:href="#ArialMT-47" x="139.013672"/>
     <use xlink:href="#ArialMT-72" x="216.796875"/>
     <use xlink:href="#ArialMT-61" x="250.097656"/>
     <use xlink:href="#ArialMT-6e" x="305.712891"/>
     <use xlink:href="#ArialMT-67" x="361.328125"/>
     <use xlink:href="#ArialMT-65" x="416.943359"/>
    </g>
   </g>
  </g>
  <g id="axes_2">
   <g id="patch_7">
    <path d="M 224.93891 166.363434 
L 367.182813 166.363434 
L 367.182813 24.119531 
L 224.93891 24.119531 
z
" style="fill: #ffffff"/>
   </g>
   <g id="matplotlib.axis_3">
    <g id="xtick_4">
     <g id="line2d_13">
      <path d="M 251.930358 166.363434 
L 251.930358 24.119531 
" clip-path="url(#p37883985b4)" style="fill: none; stroke: #cccccc; stroke-linecap: round"/>
     </g>
     <g id="text_11">
      <!-- 20 -->
      <g style="fill: #262626" transform="translate(245.813326 177.737027)scale(0.11 -0.11)">
       <use xlink:href="#ArialMT-32"/>
       <use xlink:href="#ArialMT-30" x="55.615234"/>
      </g>
     </g>
    </g>
    <g id="xtick_5">
     <g id="line2d_14">
      <path d="M 292.981989 166.363434 
L 292.981989 24.119531 
" clip-path="url(#p37883985b4)" style="fill: none; stroke: #cccccc; stroke-linecap: round"/>
     </g>
     <g id="text_12">
      <!-- 40 -->
      <g style="fill: #262626" transform="translate(286.864958 177.737027)scale(0.11 -0.11)">
       <use xlink:href="#ArialMT-34"/>
       <use xlink:href="#ArialMT-30" x="55.615234"/>
      </g>
     </g>
    </g>
    <g id="xtick_6">
     <g id="line2d_15">
      <path d="M 334.03362 166.363434 
L 334.03362 24.119531 
" clip-path="url(#p37883985b4)" style="fill: none; stroke: #cccccc; stroke-linecap: round"/>
     </g>
     <g id="text_13">
      <!-- 60 -->
      <g style="fill: #262626" transform="translate(327.916589 177.737027)scale(0.11 -0.11)">
       <use xlink:href="#ArialMT-36"/>
       <use xlink:href="#ArialMT-30" x="55.615234"/>
      </g>
     </g>
    </g>
    <g id="text_14">
     <!-- Years -->
     <g style="fill: #262626" transform="translate(277.15383 194.659996)scale(0.15 -0.15)">
      <use xlink:href="#ArialMT-59"/>
      <use xlink:href="#ArialMT-65" x="57.574219"/>
      <use xlink:href="#ArialMT-61" x="113.189453"/>
      <use xlink:href="#ArialMT-72" x="168.804688"/>
      <use xlink:href="#ArialMT-73" x="202.105469"/>
     </g>
    </g>
   </g>
   <g id="matplotlib.axis_4">
    <g id="ytick_5">
     <g id="line2d_16">
      <path d="M 224.93891 152.786293 
L 367.182813 152.786293 
" clip-path="url(#p37883985b4)" style="fill: none; stroke: #cccccc; stroke-linecap: round"/>
     </g>
    </g>
    <g id="ytick_6">
     <g id="line2d_17">
      <path d="M 224.93891 118.745379 
L 367.182813 118.745379 
" clip-path="url(#p37883985b4)" style="fill: none; stroke: #cccccc; stroke-linecap: round"/>
     </g>
    </g>
    <g id="ytick_7">
     <g id="line2d_18">
      <path d="M 224.93891 84.704464 
L 367.182813 84.704464 
" clip-path="url(#p37883985b4)" style="fill: none; stroke: #cccccc; stroke-linecap: round"/>
     </g>
    </g>
    <g id="ytick_8">
     <g id="line2d_19">
      <path d="M 224.93891 50.663549 
L 367.182813 50.663549 
" clip-path="url(#p37883985b4)" style="fill: none; stroke: #cccccc; stroke-linecap: round"/>
     </g>
    </g>
   </g>
   <g id="line2d_20">
    <path d="M 231.404542 40.074249 
L 233.457124 30.585163 
L 235.509705 37.027509 
L 237.562287 51.301263 
L 239.614868 64.975111 
L 241.66745 74.986792 
L 243.720031 80.718674 
L 245.772613 83.56273 
L 247.825195 84.621058 
L 249.877776 84.932237 
L 251.930358 84.907247 
L 253.982939 84.842571 
L 256.035521 84.76779 
L 258.088102 84.734503 
L 260.140684 84.710526 
L 262.193265 84.70648 
L 264.245847 84.701992 
L 266.298429 84.703853 
L 268.35101 84.703025 
L 270.403592 84.704431 
L 272.456173 84.703983 
L 274.508755 84.704629 
L 276.561336 84.7043 
L 278.613918 84.70459 
L 280.6665 84.704387 
L 282.719081 84.704532 
L 284.771663 84.704421 
L 286.824244 84.704499 
L 288.876826 84.70444 
L 290.929407 84.704482 
L 292.981989 84.704451 
L 295.03457 84.704474 
L 297.087152 84.704457 
L 299.139734 84.704469 
L 301.192315 84.70446 
L 303.244897 84.704467 
L 305.297478 84.704462 
L 307.35006 84.704465 
L 309.402641 84.704463 
L 311.455223 84.704465 
L 313.507805 84.704463 
L 315.560386 84.704464 
L 317.612968 84.704464 
L 319.665549 84.704464 
L 321.718131 84.704464 
L 323.770712 84.704464 
L 325.823294 84.704464 
L 327.875876 84.704464 
L 329.928457 84.704464 
L 331.981039 84.704464 
L 334.03362 84.704464 
L 336.086202 84.704464 
L 338.138783 84.704464 
L 340.191365 84.704464 
L 342.243946 84.704464 
L 344.296528 84.704464 
L 346.34911 84.704464 
L 348.401691 84.704464 
L 350.454273 84.704464 
L 352.506854 84.704464 
L 354.559436 84.704464 
L 356.612017 84.704464 
L 358.664599 84.704464 
L 360.717181 84.704464 
" clip-path="url(#p37883985b4)" style="fill: none; stroke: #482475; stroke-width: 1.5; stroke-linecap: round"/>
   </g>
   <g id="line2d_21">
    <path d="M 231.404542 85.541678 
L 233.457124 59.183215 
L 235.509705 42.660162 
L 237.562287 37.091383 
L 239.614868 40.234364 
L 241.66745 48.373643 
L 243.720031 57.931381 
L 245.772613 66.554929 
L 247.825195 73.217994 
L 249.877776 77.841285 
L 251.930358 80.799021 
L 253.982939 82.574603 
L 256.035521 83.586327 
L 258.088102 84.137903 
L 260.140684 84.427015 
L 262.193265 84.573165 
L 264.245847 84.644498 
L 266.298429 84.678115 
L 268.35101 84.693385 
L 270.403592 84.70005 
L 272.456173 84.702827 
L 274.508755 84.70392 
L 276.561336 84.704318 
L 278.613918 84.704446 
L 280.6665 84.704477 
L 282.719081 84.704479 
L 284.771663 84.704475 
L 286.824244 84.70447 
L 288.876826 84.704467 
L 290.929407 84.704466 
L 292.981989 84.704465 
L 295.03457 84.704464 
L 297.087152 84.704464 
L 299.139734 84.704464 
L 301.192315 84.704464 
L 303.244897 84.704464 
L 305.297478 84.704464 
L 307.35006 84.704464 
L 309.402641 84.704464 
L 311.455223 84.704464 
L 313.507805 84.704464 
L 315.560386 84.704464 
L 317.612968 84.704464 
L 319.665549 84.704464 
L 321.718131 84.704464 
L 323.770712 84.704464 
L 325.823294 84.704464 
L 327.875876 84.704464 
L 329.928457 84.704464 
L 331.981039 84.704464 
L 334.03362 84.704464 
L 336.086202 84.704464 
L 338.138783 84.704464 
L 340.191365 84.704464 
L 342.243946 84.704464 
L 344.296528 84.704464 
L 346.34911 84.704464 
L 348.401691 84.704464 
L 350.454273 84.704464 
L 352.506854 84.704464 
L 354.559436 84.704464 
L 356.612017 84.704464 
L 358.664599 84.704464 
L 360.717181 84.704464 
" clip-path="url(#p37883985b4)" style="fill: none; stroke: #355f8d; stroke-width: 1.5; stroke-linecap: round"/>
   </g>
   <g id="line2d_22">
    <path d="M 231.404542 128.993119 
L 233.457124 107.406689 
L 235.509705 88.547283 
L 237.562287 72.774507 
L 239.614868 61.093842 
L 241.66745 54.032302 
L 243.720031 51.237465 
L 245.772613 51.818139 
L 247.825195 54.671216 
L 249.877776 58.739588 
L 251.930358 63.183138 
L 253.982939 67.439984 
L 256.035521 71.202327 
L 258.088102 74.351419 
L 260.140684 76.887498 
L 262.193265 78.873344 
L 264.245847 80.396246 
L 266.298429 81.545854 
L 268.35101 82.4032 
L 270.403592 83.036524 
L 272.456173 83.500817 
L 274.508755 83.839091 
L 276.561336 84.08429 
L 278.613918 84.261256 
L 280.6665 84.388508 
L 282.719081 84.479719 
L 284.771663 84.544914 
L 286.824244 84.5914 
L 288.876826 84.624471 
L 290.929407 84.647953 
L 292.981989 84.664596 
L 295.03457 84.676372 
L 297.087152 84.684693 
L 299.139734 84.690564 
L 301.192315 84.694701 
L 303.244897 84.697614 
L 305.297478 84.699661 
L 307.35006 84.7011 
L 309.402641 84.702109 
L 311.455223 84.702817 
L 313.507805 84.703312 
L 315.560386 84.703659 
L 317.612968 84.703902 
L 319.665549 84.704072 
L 321.718131 84.704191 
L 323.770712 84.704273 
L 325.823294 84.704331 
L 327.875876 84.704371 
L 329.928457 84.7044 
L 331.981039 84.704419 
L 334.03362 84.704433 
L 336.086202 84.704442 
L 338.138783 84.704449 
L 340.191365 84.704453 
L 342.243946 84.704457 
L 344.296528 84.704459 
L 346.34911 84.70446 
L 348.401691 84.704462 
L 350.454273 84.704462 
L 352.506854 84.704463 
L 354.559436 84.704463 
L 356.612017 84.704463 
L 358.664599 84.704464 
L 360.717181 84.704464 
" clip-path="url(#p37883985b4)" style="fill: none; stroke: #21918c; stroke-width: 1.5; stroke-linecap: round"/>
   </g>
   <g id="line2d_23">
    <path d="M 231.404542 153.276255 
L 233.457124 141.886411 
L 235.509705 129.481313 
L 237.562287 118.352476 
L 239.614868 108.087157 
L 241.66745 98.45352 
L 243.720031 89.861237 
L 245.772613 82.633019 
L 247.825195 76.830708 
L 249.877776 72.410756 
L 251.930358 69.288125 
L 253.982939 67.327556 
L 256.035521 66.351892 
L 258.088102 66.167948 
L 260.140684 66.587887 
L 262.193265 67.441433 
L 264.245847 68.582305 
L 266.298429 69.890932 
L 268.35101 71.274136 
L 270.403592 72.662684 
L 272.456173 74.007731 
L 274.508755 75.276976 
L 276.561336 76.45101 
L 278.613918 77.520094 
L 280.6665 78.481462 
L 282.719081 79.337167 
L 284.771663 80.092409 
L 286.824244 80.75429 
L 288.876826 81.330898 
L 290.929407 81.830669 
L 292.981989 82.261953 
L 295.03457 82.632727 
L 297.087152 82.950428 
L 299.139734 83.221863 
L 301.192315 83.453175 
L 303.244897 83.649844 
L 305.297478 83.816717 
L 307.35006 83.958047 
L 309.402641 84.077545 
L 311.455223 84.17843 
L 313.507805 84.263485 
L 315.560386 84.335102 
L 317.612968 84.395335 
L 319.665549 84.445938 
L 321.718131 84.488408 
L 323.770712 84.524021 
L 325.823294 84.553857 
L 327.875876 84.578833 
L 329.928457 84.599725 
L 331.981039 84.617188 
L 334.03362 84.631776 
L 336.086202 84.643954 
L 338.138783 84.654115 
L 340.191365 84.662587 
L 342.243946 84.669648 
L 344.296528 84.675529 
L 346.34911 84.680426 
L 348.401691 84.684501 
L 350.454273 84.687891 
L 352.506854 84.69071 
L 354.559436 84.693053 
L 356.612017 84.694999 
L 358.664599 84.696616 
L 360.717181 84.697958 
" clip-path="url(#p37883985b4)" style="fill: none; stroke: #44bf70; stroke-width: 1.5; stroke-linecap: round"/>
   </g>
   <g id="line2d_24">
    <path d="M 231.404542 159.897802 
L 233.457124 158.307774 
L 235.509705 153.593401 
L 237.562287 147.540592 
L 239.614868 142.304761 
L 241.66745 137.782155 
L 243.720031 133.254135 
L 245.772613 128.624078 
L 247.825195 124.137657 
L 249.877776 119.911012 
L 251.930358 115.914707 
L 253.982939 112.122485 
L 256.035521 108.551129 
L 258.088102 105.222696 
L 260.140684 102.143021 
L 262.193265 99.308574 
L 264.245847 96.715171 
L 266.298429 94.358399 
L 268.35101 92.23145 
L 270.403592 90.324856 
L 272.456173 88.627502 
L 274.508755 87.127364 
L 276.561336 85.811771 
L 278.613918 84.667582 
L 280.6665 83.681451 
L 282.719081 82.840103 
L 284.771663 82.130538 
L 286.824244 81.540182 
L 288.876826 81.057003 
L 290.929407 80.669596 
L 292.981989 80.367255 
L 295.03457 80.140004 
L 297.087152 79.978619 
L 299.139734 79.874624 
L 301.192315 79.820281 
L 303.244897 79.808568 
L 305.297478 79.833145 
L 307.35006 79.888322 
L 309.402641 79.969013 
L 311.455223 80.070702 
L 313.507805 80.18939 
L 315.560386 80.321564 
L 317.612968 80.464144 
L 319.665549 80.614449 
L 321.718131 80.77016 
L 323.770712 80.929277 
L 325.823294 81.090092 
L 327.875876 81.251155 
L 329.928457 81.411244 
L 331.981039 81.569339 
L 334.03362 81.724602 
L 336.086202 81.876348 
L 338.138783 82.02403 
L 340.191365 82.16722 
L 342.243946 82.305595 
L 344.296528 82.438918 
L 346.34911 82.56703 
L 348.401691 82.689838 
L 350.454273 82.807302 
L 352.506854 82.919431 
L 354.559436 83.02627 
L 356.612017 83.127897 
L 358.664599 83.224418 
L 360.717181 83.315959 
" clip-path="url(#p37883985b4)" style="fill: none; stroke: #bddf26; stroke-width: 1.5; stroke-linecap: round"/>
   </g>
   <g id="patch_8">
    <path d="M 224.93891 166.363434 
L 224.93891 24.119531 
" style="fill: none; stroke: #cccccc; stroke-linejoin: miter; stroke-linecap: square"/>
   </g>
   <g id="patch_9">
    <path d="M 367.182813 166.363434 
L 367.182813 24.119531 
" style="fill: none; stroke: #cccccc; stroke-linejoin: miter; stroke-linecap: square"/>
   </g>
   <g id="patch_10">
    <path d="M 224.93891 166.363434 
L 367.182813 166.363434 
" style="fill: none; stroke: #cccccc; stroke-linejoin: miter; stroke-linecap: square"/>
   </g>
   <g id="patch_11">
    <path d="M 224.93891 24.119531 
L 367.182813 24.119531 
" style="fill: none; stroke: #cccccc; stroke-linejoin: miter; stroke-linecap: square"/>
   </g>
   <g id="text_15">
    <!-- Peoria -->
    <g style="fill: #262626" transform="translate(274.382346 18.119531)scale(0.15 -0.15)">
     <defs>
      <path id="ArialMT-50" d="M 494 0 
L 494 4581 
L 2222 4581 
Q 2678 4581 2919 4538 
Q 3256 4481 3484 4323 
Q 3713 4166 3852 3881 
Q 3991 3597 3991 3256 
Q 3991 2672 3619 2267 
Q 3247 1863 2275 1863 
L 1100 1863 
L 1100 0 
L 494 0 
z
M 1100 2403 
L 2284 2403 
Q 2872 2403 3119 2622 
Q 3366 2841 3366 3238 
Q 3366 3525 3220 3729 
Q 3075 3934 2838 4000 
Q 2684 4041 2272 4041 
L 1100 4041 
L 1100 2403 
z
" transform="scale(0.015625)"/>
     </defs>
     <use xlink:href="#ArialMT-50"/>
     <use xlink:href="#ArialMT-65" x="66.699219"/>
     <use xlink:href="#ArialMT-6f" x="122.314453"/>
     <use xlink:href="#ArialMT-72" x="177.929688"/>
     <use xlink:href="#ArialMT-69" x="211.230469"/>
     <use xlink:href="#ArialMT-61" x="233.447266"/>
    </g>
   </g>
  </g>
  <g id="legend_1">
   <g id="patch_12">
    <path d="M 387.914687 151.20742 
L 447.582812 151.20742 
Q 449.782812 151.20742 449.782812 149.00742 
L 449.782812 55.833826 
Q 449.782812 53.633826 447.582812 53.633826 
L 387.914687 53.633826 
Q 385.714687 53.633826 385.714687 55.833826 
L 385.714687 149.00742 
Q 385.714687 151.20742 387.914687 151.20742 
z
" style="fill: #ffffff; opacity: 0.8; stroke: #cccccc; stroke-linejoin: miter"/>
   </g>
   <g id="text_16">
    <!-- $\alpha_e$ -->
    <g style="fill: #262626" transform="translate(411.02875 66.623201)scale(0.12 -0.12)">
     <defs>
      <path id="DejaVuSans-Oblique-3b1" d="M 2619 1628 
L 2622 2350 
Q 2625 3088 2069 3091 
Q 1653 3094 1394 2747 
Q 1069 2319 959 1747 
Q 825 1059 994 731 
Q 1169 397 1547 397 
Q 1966 397 2319 1063 
L 2619 1628 
z
M 2166 3578 
Q 3141 3594 3128 2584 
Q 3128 2584 3616 3500 
L 4128 3500 
L 3119 1603 
L 3109 919 
Q 3109 766 3194 638 
Q 3291 488 3391 488 
L 3669 488 
L 3575 0 
L 3228 0 
Q 2934 0 2722 263 
Q 2622 394 2619 669 
Q 2416 334 2066 50 
Q 1900 -81 1453 -78 
Q 722 -72 456 397 
Q 184 884 353 1747 
Q 534 2675 1009 3097 
Q 1544 3569 2166 3578 
z
" transform="scale(0.015625)"/>
      <path id="DejaVuSans-Oblique-65" d="M 3078 2063 
Q 3088 2113 3092 2166 
Q 3097 2219 3097 2272 
Q 3097 2653 2873 2875 
Q 2650 3097 2266 3097 
Q 1838 3097 1509 2826 
Q 1181 2556 1013 2059 
L 3078 2063 
z
M 3578 1613 
L 903 1613 
Q 884 1494 878 1425 
Q 872 1356 872 1306 
Q 872 872 1139 634 
Q 1406 397 1894 397 
Q 2269 397 2603 481 
Q 2938 566 3225 728 
L 3116 159 
Q 2806 34 2476 -28 
Q 2147 -91 1806 -91 
Q 1078 -91 686 257 
Q 294 606 294 1247 
Q 294 1794 489 2264 
Q 684 2734 1063 3103 
Q 1306 3334 1642 3459 
Q 1978 3584 2356 3584 
Q 2950 3584 3301 3228 
Q 3653 2872 3653 2272 
Q 3653 2128 3634 1964 
Q 3616 1800 3578 1613 
z
" transform="scale(0.015625)"/>
     </defs>
     <use xlink:href="#DejaVuSans-Oblique-3b1" transform="translate(0 0.84375)"/>
     <use xlink:href="#DejaVuSans-Oblique-65" transform="translate(65.917969 -15.5625)scale(0.7)"/>
    </g>
   </g>
   <g id="line2d_25">
    <path d="M 390.114687 78.531795 
L 401.114687 78.531795 
L 412.114687 78.531795 
" style="fill: none; stroke: #482475; stroke-width: 1.5; stroke-linecap: round"/>
   </g>
   <g id="text_17">
    <!-- 2589 -->
    <g style="fill: #262626" transform="translate(420.914687 82.381795)scale(0.11 -0.11)">
     <defs>
      <path id="ArialMT-38" d="M 1131 2484 
Q 781 2613 612 2850 
Q 444 3088 444 3419 
Q 444 3919 803 4259 
Q 1163 4600 1759 4600 
Q 2359 4600 2725 4251 
Q 3091 3903 3091 3403 
Q 3091 3084 2923 2848 
Q 2756 2613 2416 2484 
Q 2838 2347 3058 2040 
Q 3278 1734 3278 1309 
Q 3278 722 2862 322 
Q 2447 -78 1769 -78 
Q 1091 -78 675 323 
Q 259 725 259 1325 
Q 259 1772 486 2073 
Q 713 2375 1131 2484 
z
M 1019 3438 
Q 1019 3113 1228 2906 
Q 1438 2700 1772 2700 
Q 2097 2700 2305 2904 
Q 2513 3109 2513 3406 
Q 2513 3716 2298 3927 
Q 2084 4138 1766 4138 
Q 1444 4138 1231 3931 
Q 1019 3725 1019 3438 
z
M 838 1322 
Q 838 1081 952 856 
Q 1066 631 1291 507 
Q 1516 384 1775 384 
Q 2178 384 2440 643 
Q 2703 903 2703 1303 
Q 2703 1709 2433 1975 
Q 2163 2241 1756 2241 
Q 1359 2241 1098 1978 
Q 838 1716 838 1322 
z
" transform="scale(0.015625)"/>
      <path id="ArialMT-39" d="M 350 1059 
L 891 1109 
Q 959 728 1153 556 
Q 1347 384 1650 384 
Q 1909 384 2104 503 
Q 2300 622 2425 820 
Q 2550 1019 2634 1356 
Q 2719 1694 2719 2044 
Q 2719 2081 2716 2156 
Q 2547 1888 2255 1720 
Q 1963 1553 1622 1553 
Q 1053 1553 659 1965 
Q 266 2378 266 3053 
Q 266 3750 677 4175 
Q 1088 4600 1706 4600 
Q 2153 4600 2523 4359 
Q 2894 4119 3086 3673 
Q 3278 3228 3278 2384 
Q 3278 1506 3087 986 
Q 2897 466 2520 194 
Q 2144 -78 1638 -78 
Q 1100 -78 759 220 
Q 419 519 350 1059 
z
M 2653 3081 
Q 2653 3566 2395 3850 
Q 2138 4134 1775 4134 
Q 1400 4134 1122 3828 
Q 844 3522 844 3034 
Q 844 2597 1108 2323 
Q 1372 2050 1759 2050 
Q 2150 2050 2401 2323 
Q 2653 2597 2653 3081 
z
" transform="scale(0.015625)"/>
     </defs>
     <use xlink:href="#ArialMT-32"/>
     <use xlink:href="#ArialMT-35" x="55.615234"/>
     <use xlink:href="#ArialMT-38" x="111.230469"/>
     <use xlink:href="#ArialMT-39" x="166.845703"/>
    </g>
   </g>
   <g id="line2d_26">
    <path d="M 390.114687 94.091639 
L 401.114687 94.091639 
L 412.114687 94.091639 
" style="fill: none; stroke: #355f8d; stroke-width: 1.5; stroke-linecap: round"/>
   </g>
   <g id="text_18">
    <!-- 3089 -->
    <g style="fill: #262626" transform="translate(420.914687 97.941639)scale(0.11 -0.11)">
     <defs>
      <path id="ArialMT-33" d="M 269 1209 
L 831 1284 
Q 928 806 1161 595 
Q 1394 384 1728 384 
Q 2125 384 2398 659 
Q 2672 934 2672 1341 
Q 2672 1728 2419 1979 
Q 2166 2231 1775 2231 
Q 1616 2231 1378 2169 
L 1441 2663 
Q 1497 2656 1531 2656 
Q 1891 2656 2178 2843 
Q 2466 3031 2466 3422 
Q 2466 3731 2256 3934 
Q 2047 4138 1716 4138 
Q 1388 4138 1169 3931 
Q 950 3725 888 3313 
L 325 3413 
Q 428 3978 793 4289 
Q 1159 4600 1703 4600 
Q 2078 4600 2393 4439 
Q 2709 4278 2876 4000 
Q 3044 3722 3044 3409 
Q 3044 3113 2884 2869 
Q 2725 2625 2413 2481 
Q 2819 2388 3044 2092 
Q 3269 1797 3269 1353 
Q 3269 753 2831 336 
Q 2394 -81 1725 -81 
Q 1122 -81 723 278 
Q 325 638 269 1209 
z
" transform="scale(0.015625)"/>
     </defs>
     <use xlink:href="#ArialMT-33"/>
     <use xlink:href="#ArialMT-30" x="55.615234"/>
     <use xlink:href="#ArialMT-38" x="111.230469"/>
     <use xlink:href="#ArialMT-39" x="166.845703"/>
    </g>
   </g>
   <g id="line2d_27">
    <path d="M 390.114687 109.651482 
L 401.114687 109.651482 
L 412.114687 109.651482 
" style="fill: none; stroke: #21918c; stroke-width: 1.5; stroke-linecap: round"/>
   </g>
   <g id="text_19">
    <!-- 3589 -->
    <g style="fill: #262626" transform="translate(420.914687 113.501482)scale(0.11 -0.11)">
     <use xlink:href="#ArialMT-33"/>
     <use xlink:href="#ArialMT-35" x="55.615234"/>
     <use xlink:href="#ArialMT-38" x="111.230469"/>
     <use xlink:href="#ArialMT-39" x="166.845703"/>
    </g>
   </g>
   <g id="line2d_28">
    <path d="M 390.114687 125.211326 
L 401.114687 125.211326 
L 412.114687 125.211326 
" style="fill: none; stroke: #44bf70; stroke-width: 1.5; stroke-linecap: round"/>
   </g>
   <g id="text_20">
    <!-- 4089 -->
    <g style="fill: #262626" transform="translate(420.914687 129.061326)scale(0.11 -0.11)">
     <use xlink:href="#ArialMT-34"/>
     <use xlink:href="#ArialMT-30" x="55.615234"/>
     <use xlink:href="#ArialMT-38" x="111.230469"/>
     <use xlink:href="#ArialMT-39" x="166.845703"/>
    </g>
   </g>
   <g id="line2d_29">
    <path d="M 390.114687 140.77117 
L 401.114687 140.77117 
L 412.114687 140.77117 
" style="fill: none; stroke: #bddf26; stroke-width: 1.5; stroke-linecap: round"/>
   </g>
   <g id="text_21">
    <!-- 4589 -->
    <g style="fill: #262626" transform="translate(420.914687 144.62117)scale(0.11 -0.11)">
     <use xlink:href="#ArialMT-34"/>
     <use xlink:href="#ArialMT-35" x="55.615234"/>
     <use xlink:href="#ArialMT-38" x="111.230469"/>
     <use xlink:href="#ArialMT-39" x="166.845703"/>
    </g>
   </g>
  </g>
 </g>
 <defs>
  <clipPath id="p88f309e0c6">
   <rect x="75.582812" y="24.119531" width="142.243902" height="142.243902"/>
  </clipPath>
  <clipPath id="p37883985b4">
   <rect x="224.93891" y="24.119531" width="142.243902" height="142.243902"/>
  </clipPath>
 </defs>
</svg>
