<?xml version="1.0" encoding="utf-8" standalone="no"?>
<!DOCTYPE svg PUBLIC "-//W3C//DTD SVG 1.1//EN"
  "http://www.w3.org/Graphics/SVG/1.1/DTD/svg11.dtd">
<svg xmlns:xlink="http://www.w3.org/1999/xlink" width="439.685156pt" height="204.841246pt" viewBox="0 0 439.685156 204.841246" xmlns="http://www.w3.org/2000/svg" version="1.1">
 <metadata>
  <rdf:RDF xmlns:dc="http://purl.org/dc/elements/1.1/" xmlns:cc="http://creativecommons.org/ns#" xmlns:rdf="http://www.w3.org/1999/02/22-rdf-syntax-ns#">
   <cc:Work>
    <dc:type rdf:resource="http://purl.org/dc/dcmitype/StillImage"/>
    <dc:date>2022-10-12T15:02:41.912778</dc:date>
    <dc:format>image/svg+xml</dc:format>
    <dc:creator>
     <cc:Agent>
      <dc:title>Matplotlib v3.5.1, https://matplotlib.org/</dc:title>
     </cc:Agent>
    </dc:creator>
   </cc:Work>
  </rdf:RDF>
 </metadata>
 <defs>
  <style type="text/css">*{stroke-linejoin: round; stroke-linecap: butt}</style>
 </defs>
 <g id="figure_1">
  <g id="patch_1">
   <path d="M 0 204.841246 
L 439.685156 204.841246 
L 439.685156 0 
L 0 0 
z
" style="fill: #ffffff"/>
  </g>
  <g id="axes_1">
   <g id="patch_2">
    <path d="M 59.985156 166.363434 
L 202.229059 166.363434 
L 202.229059 24.119531 
L 59.985156 24.119531 
z
" style="fill: #ffffff"/>
   </g>
   <g id="matplotlib.axis_1">
    <g id="xtick_1">
     <g id="line2d_1">
      <path d="M 66.450788 166.363434 
L 66.450788 24.119531 
" clip-path="url(#pc97bb5f647)" style="fill: none; stroke: #cccccc; stroke-linecap: round"/>
     </g>
     <g id="text_1">
      <!-- 0 -->
      <g style="fill: #262626" transform="translate(63.392273 177.737027)scale(0.11 -0.11)">
       <defs>
        <path id="ArialMT-30" d="M 266 2259 
Q 266 3072 433 3567 
Q 600 4063 929 4331 
Q 1259 4600 1759 4600 
Q 2128 4600 2406 4451 
Q 2684 4303 2865 4023 
Q 3047 3744 3150 3342 
Q 3253 2941 3253 2259 
Q 3253 1453 3087 958 
Q 2922 463 2592 192 
Q 2263 -78 1759 -78 
Q 1097 -78 719 397 
Q 266 969 266 2259 
z
M 844 2259 
Q 844 1131 1108 757 
Q 1372 384 1759 384 
Q 2147 384 2411 759 
Q 2675 1134 2675 2259 
Q 2675 3391 2411 3762 
Q 2147 4134 1753 4134 
Q 1366 4134 1134 3806 
Q 844 3388 844 2259 
z
" transform="scale(0.015625)"/>
       </defs>
       <use xlink:href="#ArialMT-30"/>
      </g>
     </g>
    </g>
    <g id="xtick_2">
     <g id="line2d_2">
      <path d="M 110.735938 166.363434 
L 110.735938 24.119531 
" clip-path="url(#pc97bb5f647)" style="fill: none; stroke: #cccccc; stroke-linecap: round"/>
     </g>
     <g id="text_2">
      <!-- 25 -->
      <g style="fill: #262626" transform="translate(104.618907 177.737027)scale(0.11 -0.11)">
       <defs>
        <path id="ArialMT-32" d="M 3222 541 
L 3222 0 
L 194 0 
Q 188 203 259 391 
Q 375 700 629 1000 
Q 884 1300 1366 1694 
Q 2113 2306 2375 2664 
Q 2638 3022 2638 3341 
Q 2638 3675 2398 3904 
Q 2159 4134 1775 4134 
Q 1369 4134 1125 3890 
Q 881 3647 878 3216 
L 300 3275 
Q 359 3922 746 4261 
Q 1134 4600 1788 4600 
Q 2447 4600 2831 4234 
Q 3216 3869 3216 3328 
Q 3216 3053 3103 2787 
Q 2991 2522 2730 2228 
Q 2469 1934 1863 1422 
Q 1356 997 1212 845 
Q 1069 694 975 541 
L 3222 541 
z
" transform="scale(0.015625)"/>
        <path id="ArialMT-35" d="M 266 1200 
L 856 1250 
Q 922 819 1161 601 
Q 1400 384 1738 384 
Q 2144 384 2425 690 
Q 2706 997 2706 1503 
Q 2706 1984 2436 2262 
Q 2166 2541 1728 2541 
Q 1456 2541 1237 2417 
Q 1019 2294 894 2097 
L 366 2166 
L 809 4519 
L 3088 4519 
L 3088 3981 
L 1259 3981 
L 1013 2750 
Q 1425 3038 1878 3038 
Q 2478 3038 2890 2622 
Q 3303 2206 3303 1553 
Q 3303 931 2941 478 
Q 2500 -78 1738 -78 
Q 1113 -78 717 272 
Q 322 622 266 1200 
z
" transform="scale(0.015625)"/>
       </defs>
       <use xlink:href="#ArialMT-32"/>
       <use xlink:href="#ArialMT-35" x="55.615234"/>
      </g>
     </g>
    </g>
    <g id="xtick_3">
     <g id="line2d_3">
      <path d="M 155.021089 166.363434 
L 155.021089 24.119531 
" clip-path="url(#pc97bb5f647)" style="fill: none; stroke: #cccccc; stroke-linecap: round"/>
     </g>
     <g id="text_3">
      <!-- 50 -->
      <g style="fill: #262626" transform="translate(148.904057 177.737027)scale(0.11 -0.11)">
       <use xlink:href="#ArialMT-35"/>
       <use xlink:href="#ArialMT-30" x="55.615234"/>
      </g>
     </g>
    </g>
    <g id="xtick_4">
     <g id="line2d_4">
      <path d="M 199.306239 166.363434 
L 199.306239 24.119531 
" clip-path="url(#pc97bb5f647)" style="fill: none; stroke: #cccccc; stroke-linecap: round"/>
     </g>
     <g id="text_4">
      <!-- 75 -->
      <g style="fill: #262626" transform="translate(193.189208 177.737027)scale(0.11 -0.11)">
       <defs>
        <path id="ArialMT-37" d="M 303 3981 
L 303 4522 
L 3269 4522 
L 3269 4084 
Q 2831 3619 2401 2847 
Q 1972 2075 1738 1259 
Q 1569 684 1522 0 
L 944 0 
Q 953 541 1156 1306 
Q 1359 2072 1739 2783 
Q 2119 3494 2547 3981 
L 303 3981 
z
" transform="scale(0.015625)"/>
       </defs>
       <use xlink:href="#ArialMT-37"/>
       <use xlink:href="#ArialMT-35" x="55.615234"/>
      </g>
     </g>
    </g>
    <g id="text_5">
     <!-- Years -->
     <g style="fill: #262626" transform="translate(112.200076 194.659996)scale(0.15 -0.15)">
      <defs>
       <path id="ArialMT-59" d="M 1784 0 
L 1784 1941 
L 19 4581 
L 756 4581 
L 1659 3200 
Q 1909 2813 2125 2425 
Q 2331 2784 2625 3234 
L 3513 4581 
L 4219 4581 
L 2391 1941 
L 2391 0 
L 1784 0 
z
" transform="scale(0.015625)"/>
       <path id="ArialMT-65" d="M 2694 1069 
L 3275 997 
Q 3138 488 2766 206 
Q 2394 -75 1816 -75 
Q 1088 -75 661 373 
Q 234 822 234 1631 
Q 234 2469 665 2931 
Q 1097 3394 1784 3394 
Q 2450 3394 2872 2941 
Q 3294 2488 3294 1666 
Q 3294 1616 3291 1516 
L 816 1516 
Q 847 969 1125 678 
Q 1403 388 1819 388 
Q 2128 388 2347 550 
Q 2566 713 2694 1069 
z
M 847 1978 
L 2700 1978 
Q 2663 2397 2488 2606 
Q 2219 2931 1791 2931 
Q 1403 2931 1139 2672 
Q 875 2413 847 1978 
z
" transform="scale(0.015625)"/>
       <path id="ArialMT-61" d="M 2588 409 
Q 2275 144 1986 34 
Q 1697 -75 1366 -75 
Q 819 -75 525 192 
Q 231 459 231 875 
Q 231 1119 342 1320 
Q 453 1522 633 1644 
Q 813 1766 1038 1828 
Q 1203 1872 1538 1913 
Q 2219 1994 2541 2106 
Q 2544 2222 2544 2253 
Q 2544 2597 2384 2738 
Q 2169 2928 1744 2928 
Q 1347 2928 1158 2789 
Q 969 2650 878 2297 
L 328 2372 
Q 403 2725 575 2942 
Q 747 3159 1072 3276 
Q 1397 3394 1825 3394 
Q 2250 3394 2515 3294 
Q 2781 3194 2906 3042 
Q 3031 2891 3081 2659 
Q 3109 2516 3109 2141 
L 3109 1391 
Q 3109 606 3145 398 
Q 3181 191 3288 0 
L 2700 0 
Q 2613 175 2588 409 
z
M 2541 1666 
Q 2234 1541 1622 1453 
Q 1275 1403 1131 1340 
Q 988 1278 909 1158 
Q 831 1038 831 891 
Q 831 666 1001 516 
Q 1172 366 1500 366 
Q 1825 366 2078 508 
Q 2331 650 2450 897 
Q 2541 1088 2541 1459 
L 2541 1666 
z
" transform="scale(0.015625)"/>
       <path id="ArialMT-72" d="M 416 0 
L 416 3319 
L 922 3319 
L 922 2816 
Q 1116 3169 1280 3281 
Q 1444 3394 1641 3394 
Q 1925 3394 2219 3213 
L 2025 2691 
Q 1819 2813 1613 2813 
Q 1428 2813 1281 2702 
Q 1134 2591 1072 2394 
Q 978 2094 978 1738 
L 978 0 
L 416 0 
z
" transform="scale(0.015625)"/>
       <path id="ArialMT-73" d="M 197 991 
L 753 1078 
Q 800 744 1014 566 
Q 1228 388 1613 388 
Q 2000 388 2187 545 
Q 2375 703 2375 916 
Q 2375 1106 2209 1216 
Q 2094 1291 1634 1406 
Q 1016 1563 777 1677 
Q 538 1791 414 1992 
Q 291 2194 291 2438 
Q 291 2659 392 2848 
Q 494 3038 669 3163 
Q 800 3259 1026 3326 
Q 1253 3394 1513 3394 
Q 1903 3394 2198 3281 
Q 2494 3169 2634 2976 
Q 2775 2784 2828 2463 
L 2278 2388 
Q 2241 2644 2061 2787 
Q 1881 2931 1553 2931 
Q 1166 2931 1000 2803 
Q 834 2675 834 2503 
Q 834 2394 903 2306 
Q 972 2216 1119 2156 
Q 1203 2125 1616 2013 
Q 2213 1853 2448 1751 
Q 2684 1650 2818 1456 
Q 2953 1263 2953 975 
Q 2953 694 2789 445 
Q 2625 197 2315 61 
Q 2006 -75 1616 -75 
Q 969 -75 630 194 
Q 291 463 197 991 
z
" transform="scale(0.015625)"/>
      </defs>
      <use xlink:href="#ArialMT-59"/>
      <use xlink:href="#ArialMT-65" x="57.574219"/>
      <use xlink:href="#ArialMT-61" x="113.189453"/>
      <use xlink:href="#ArialMT-72" x="168.804688"/>
      <use xlink:href="#ArialMT-73" x="202.105469"/>
     </g>
    </g>
   </g>
   <g id="matplotlib.axis_2">
    <g id="ytick_1">
     <g id="line2d_5">
      <path d="M 59.985156 139.730585 
L 202.229059 139.730585 
" clip-path="url(#pc97bb5f647)" style="fill: none; stroke: #cccccc; stroke-linecap: round"/>
     </g>
     <g id="text_6">
      <!-- 0 -->
      <g style="fill: #262626" transform="translate(50.368125 143.667382)scale(0.11 -0.11)">
       <use xlink:href="#ArialMT-30"/>
      </g>
     </g>
    </g>
    <g id="ytick_2">
     <g id="line2d_6">
      <path d="M 59.985156 93.957795 
L 202.229059 93.957795 
" clip-path="url(#pc97bb5f647)" style="fill: none; stroke: #cccccc; stroke-linecap: round"/>
     </g>
     <g id="text_7">
      <!-- 10000 -->
      <g style="fill: #262626" transform="translate(25.9 97.894592)scale(0.11 -0.11)">
       <defs>
        <path id="ArialMT-31" d="M 2384 0 
L 1822 0 
L 1822 3584 
Q 1619 3391 1289 3197 
Q 959 3003 697 2906 
L 697 3450 
Q 1169 3672 1522 3987 
Q 1875 4303 2022 4600 
L 2384 4600 
L 2384 0 
z
" transform="scale(0.015625)"/>
       </defs>
       <use xlink:href="#ArialMT-31"/>
       <use xlink:href="#ArialMT-30" x="55.615234"/>
       <use xlink:href="#ArialMT-30" x="111.230469"/>
       <use xlink:href="#ArialMT-30" x="166.845703"/>
       <use xlink:href="#ArialMT-30" x="222.460938"/>
      </g>
     </g>
    </g>
    <g id="ytick_3">
     <g id="line2d_7">
      <path d="M 59.985156 48.185006 
L 202.229059 48.185006 
" clip-path="url(#pc97bb5f647)" style="fill: none; stroke: #cccccc; stroke-linecap: round"/>
     </g>
     <g id="text_8">
      <!-- 20000 -->
      <g style="fill: #262626" transform="translate(25.9 52.121802)scale(0.11 -0.11)">
       <use xlink:href="#ArialMT-32"/>
       <use xlink:href="#ArialMT-30" x="55.615234"/>
       <use xlink:href="#ArialMT-30" x="111.230469"/>
       <use xlink:href="#ArialMT-30" x="166.845703"/>
       <use xlink:href="#ArialMT-30" x="222.460938"/>
      </g>
     </g>
    </g>
    <g id="text_9">
     <!-- Sensitivity of $\lambda$ -->
     <g style="fill: #262626" transform="translate(18.6 143.916482)rotate(-90)scale(0.15 -0.15)">
      <defs>
       <path id="ArialMT-53" d="M 288 1472 
L 859 1522 
Q 900 1178 1048 958 
Q 1197 738 1509 602 
Q 1822 466 2213 466 
Q 2559 466 2825 569 
Q 3091 672 3220 851 
Q 3350 1031 3350 1244 
Q 3350 1459 3225 1620 
Q 3100 1781 2813 1891 
Q 2628 1963 1997 2114 
Q 1366 2266 1113 2400 
Q 784 2572 623 2826 
Q 463 3081 463 3397 
Q 463 3744 659 4045 
Q 856 4347 1234 4503 
Q 1613 4659 2075 4659 
Q 2584 4659 2973 4495 
Q 3363 4331 3572 4012 
Q 3781 3694 3797 3291 
L 3216 3247 
Q 3169 3681 2898 3903 
Q 2628 4125 2100 4125 
Q 1550 4125 1298 3923 
Q 1047 3722 1047 3438 
Q 1047 3191 1225 3031 
Q 1400 2872 2139 2705 
Q 2878 2538 3153 2413 
Q 3553 2228 3743 1945 
Q 3934 1663 3934 1294 
Q 3934 928 3725 604 
Q 3516 281 3123 101 
Q 2731 -78 2241 -78 
Q 1619 -78 1198 103 
Q 778 284 539 648 
Q 300 1013 288 1472 
z
" transform="scale(0.015625)"/>
       <path id="ArialMT-6e" d="M 422 0 
L 422 3319 
L 928 3319 
L 928 2847 
Q 1294 3394 1984 3394 
Q 2284 3394 2536 3286 
Q 2788 3178 2913 3003 
Q 3038 2828 3088 2588 
Q 3119 2431 3119 2041 
L 3119 0 
L 2556 0 
L 2556 2019 
Q 2556 2363 2490 2533 
Q 2425 2703 2258 2804 
Q 2091 2906 1866 2906 
Q 1506 2906 1245 2678 
Q 984 2450 984 1813 
L 984 0 
L 422 0 
z
" transform="scale(0.015625)"/>
       <path id="ArialMT-69" d="M 425 3934 
L 425 4581 
L 988 4581 
L 988 3934 
L 425 3934 
z
M 425 0 
L 425 3319 
L 988 3319 
L 988 0 
L 425 0 
z
" transform="scale(0.015625)"/>
       <path id="ArialMT-74" d="M 1650 503 
L 1731 6 
Q 1494 -44 1306 -44 
Q 1000 -44 831 53 
Q 663 150 594 308 
Q 525 466 525 972 
L 525 2881 
L 113 2881 
L 113 3319 
L 525 3319 
L 525 4141 
L 1084 4478 
L 1084 3319 
L 1650 3319 
L 1650 2881 
L 1084 2881 
L 1084 941 
Q 1084 700 1114 631 
Q 1144 563 1211 522 
Q 1278 481 1403 481 
Q 1497 481 1650 503 
z
" transform="scale(0.015625)"/>
       <path id="ArialMT-76" d="M 1344 0 
L 81 3319 
L 675 3319 
L 1388 1331 
Q 1503 1009 1600 663 
Q 1675 925 1809 1294 
L 2547 3319 
L 3125 3319 
L 1869 0 
L 1344 0 
z
" transform="scale(0.015625)"/>
       <path id="ArialMT-79" d="M 397 -1278 
L 334 -750 
Q 519 -800 656 -800 
Q 844 -800 956 -737 
Q 1069 -675 1141 -563 
Q 1194 -478 1313 -144 
Q 1328 -97 1363 -6 
L 103 3319 
L 709 3319 
L 1400 1397 
Q 1534 1031 1641 628 
Q 1738 1016 1872 1384 
L 2581 3319 
L 3144 3319 
L 1881 -56 
Q 1678 -603 1566 -809 
Q 1416 -1088 1222 -1217 
Q 1028 -1347 759 -1347 
Q 597 -1347 397 -1278 
z
" transform="scale(0.015625)"/>
       <path id="ArialMT-20" transform="scale(0.015625)"/>
       <path id="ArialMT-6f" d="M 213 1659 
Q 213 2581 725 3025 
Q 1153 3394 1769 3394 
Q 2453 3394 2887 2945 
Q 3322 2497 3322 1706 
Q 3322 1066 3130 698 
Q 2938 331 2570 128 
Q 2203 -75 1769 -75 
Q 1072 -75 642 372 
Q 213 819 213 1659 
z
M 791 1659 
Q 791 1022 1069 705 
Q 1347 388 1769 388 
Q 2188 388 2466 706 
Q 2744 1025 2744 1678 
Q 2744 2294 2464 2611 
Q 2184 2928 1769 2928 
Q 1347 2928 1069 2612 
Q 791 2297 791 1659 
z
" transform="scale(0.015625)"/>
       <path id="ArialMT-66" d="M 556 0 
L 556 2881 
L 59 2881 
L 59 3319 
L 556 3319 
L 556 3672 
Q 556 4006 616 4169 
Q 697 4388 901 4523 
Q 1106 4659 1475 4659 
Q 1713 4659 2000 4603 
L 1916 4113 
Q 1741 4144 1584 4144 
Q 1328 4144 1222 4034 
Q 1116 3925 1116 3625 
L 1116 3319 
L 1763 3319 
L 1763 2881 
L 1116 2881 
L 1116 0 
L 556 0 
z
" transform="scale(0.015625)"/>
       <path id="DejaVuSans-Oblique-3bb" d="M 2350 4316 
L 3125 0 
L 2516 0 
L 2038 2588 
L 328 0 
L -281 0 
L 1903 3356 
L 1794 3975 
Q 1725 4369 1391 4369 
L 1091 4369 
L 1184 4863 
L 1550 4856 
Q 2253 4847 2350 4316 
z
" transform="scale(0.015625)"/>
      </defs>
      <use xlink:href="#ArialMT-53" transform="translate(0 0.015625)"/>
      <use xlink:href="#ArialMT-65" transform="translate(66.699219 0.015625)"/>
      <use xlink:href="#ArialMT-6e" transform="translate(122.314453 0.015625)"/>
      <use xlink:href="#ArialMT-73" transform="translate(177.929688 0.015625)"/>
      <use xlink:href="#ArialMT-69" transform="translate(227.929688 0.015625)"/>
      <use xlink:href="#ArialMT-74" transform="translate(250.146484 0.015625)"/>
      <use xlink:href="#ArialMT-69" transform="translate(277.929688 0.015625)"/>
      <use xlink:href="#ArialMT-76" transform="translate(300.146484 0.015625)"/>
      <use xlink:href="#ArialMT-69" transform="translate(350.146484 0.015625)"/>
      <use xlink:href="#ArialMT-74" transform="translate(372.363281 0.015625)"/>
      <use xlink:href="#ArialMT-79" transform="translate(400.146484 0.015625)"/>
      <use xlink:href="#ArialMT-20" transform="translate(450.146484 0.015625)"/>
      <use xlink:href="#ArialMT-6f" transform="translate(477.929688 0.015625)"/>
      <use xlink:href="#ArialMT-66" transform="translate(533.544922 0.015625)"/>
      <use xlink:href="#ArialMT-20" transform="translate(561.328125 0.015625)"/>
      <use xlink:href="#DejaVuSans-Oblique-3bb" transform="translate(589.111328 0.015625)"/>
     </g>
    </g>
   </g>
   <g id="line2d_8">
    <path d="M 66.450788 30.585163 
L 68.222194 64.447106 
L 69.9936 59.582431 
L 71.765006 36.167966 
L 73.536412 47.1308 
L 75.307818 52.200522 
L 77.079224 49.515509 
L 78.85063 49.378489 
L 80.622036 51.245534 
L 82.393442 52.101585 
L 84.164848 52.303046 
L 85.936254 52.712204 
L 87.70766 53.234086 
L 89.479066 53.633965 
L 91.250472 53.939419 
L 93.021878 54.220085 
L 94.793284 54.475688 
L 96.56469 54.69209 
L 98.336096 54.872657 
L 100.107502 55.024678 
L 101.878908 55.150742 
L 103.650314 55.251934 
L 105.42172 55.330219 
L 107.193126 55.387756 
L 108.964532 55.426284 
L 110.735938 55.447291 
L 112.507344 55.452193 
L 114.27875 55.44232 
L 116.050156 55.418878 
L 117.821562 55.382971 
L 119.592968 55.335619 
L 121.364374 55.277764 
L 123.13578 55.210275 
L 124.907186 55.133954 
L 126.678592 55.049545 
L 128.449998 54.957736 
L 130.221404 54.859164 
L 131.99281 54.754421 
L 133.764216 54.644057 
L 135.535622 54.528582 
L 137.307028 54.40847 
L 139.078435 54.284165 
L 140.849841 54.156076 
L 142.621247 54.024587 
L 144.392653 53.890056 
L 146.164059 53.752814 
L 147.935465 53.613173 
L 149.706871 53.471423 
L 151.478277 53.327833 
L 153.249683 53.182658 
L 155.021089 53.036132 
L 156.792495 52.888476 
L 158.563901 52.739897 
L 160.335307 52.590585 
L 162.106713 52.440721 
L 163.878119 52.290473 
L 165.649525 52.139996 
L 167.420931 51.989439 
L 169.192337 51.838936 
L 170.963743 51.688616 
L 172.735149 51.538597 
L 174.506555 51.388991 
L 176.277961 51.2399 
L 178.049367 51.091421 
L 179.820773 50.943642 
L 181.592179 50.796648 
L 183.363585 50.650516 
L 185.134991 50.505317 
L 186.906397 50.361117 
L 188.677803 50.217979 
L 190.449209 50.075958 
L 192.220615 49.935107 
L 193.992021 49.795475 
L 195.763427 49.657106 
" clip-path="url(#pc97bb5f647)" style="fill: none; stroke: #482475; stroke-width: 1.5; stroke-linecap: round"/>
   </g>
   <g id="line2d_9">
    <path d="M 66.450788 30.585163 
L 68.222194 119.298965 
L 69.9936 97.213937 
L 71.765006 80.81897 
L 73.536412 100.042633 
L 75.307818 102.7329 
L 77.079224 104.863651 
L 78.85063 112.377565 
L 80.622036 119.554197 
L 82.393442 126.886987 
L 84.164848 134.940838 
L 85.936254 142.557928 
L 87.70766 149.072402 
L 89.479066 154.099363 
L 91.250472 157.298099 
L 93.021878 158.623282 
L 94.793284 158.3326 
L 96.56469 156.857826 
L 98.336096 154.680859 
L 100.107502 152.231931 
L 101.878908 149.829603 
L 103.650314 147.667741 
L 105.42172 145.834792 
L 107.193126 144.345938 
L 108.964532 143.174047 
L 110.735938 142.27295 
L 112.507344 141.592131 
L 114.27875 141.084564 
L 116.050156 140.710045 
L 117.821562 140.435931 
L 119.592968 140.236604 
L 121.364374 140.092427 
L 123.13578 139.988601 
L 124.907186 139.91411 
L 126.678592 139.860838 
L 128.449998 139.822847 
L 130.221404 139.79582 
L 131.99281 139.776635 
L 133.764216 139.763044 
L 135.535622 139.753432 
L 137.307028 139.746647 
L 139.078435 139.741863 
L 140.849841 139.738495 
L 142.621247 139.736128 
L 144.392653 139.734465 
L 146.164059 139.733298 
L 147.935465 139.732481 
L 149.706871 139.731909 
L 151.478277 139.731509 
L 153.249683 139.731229 
L 155.021089 139.731034 
L 156.792495 139.730897 
L 158.563901 139.730802 
L 160.335307 139.730736 
L 162.106713 139.73069 
L 163.878119 139.730658 
L 165.649525 139.730635 
L 167.420931 139.73062 
L 169.192337 139.730609 
L 170.963743 139.730602 
L 172.735149 139.730596 
L 174.506555 139.730593 
L 176.277961 139.73059 
L 178.049367 139.730589 
L 179.820773 139.730587 
L 181.592179 139.730587 
L 183.363585 139.730586 
L 185.134991 139.730586 
L 186.906397 139.730585 
L 188.677803 139.730585 
L 190.449209 139.730585 
L 192.220615 139.730585 
L 193.992021 139.730585 
L 195.763427 139.730585 
" clip-path="url(#pc97bb5f647)" style="fill: none; stroke: #355f8d; stroke-width: 1.5; stroke-linecap: round"/>
   </g>
   <g id="line2d_10">
    <path d="M 66.450788 30.585163 
L 68.222194 130.390682 
L 69.9936 102.260317 
L 71.765006 98.752379 
L 73.536412 116.759278 
L 75.307818 118.160195 
L 77.079224 127.374178 
L 78.85063 138.818639 
L 80.622036 148.191762 
L 82.393442 156.235751 
L 84.164848 159.897802 
L 85.936254 158.932756 
L 87.70766 154.80361 
L 89.479066 149.615486 
L 91.250472 145.060252 
L 93.021878 141.914531 
L 94.793284 140.181063 
L 96.56469 139.464965 
L 98.336096 139.318362 
L 100.107502 139.407394 
L 101.878908 139.544575 
L 103.650314 139.651844 
L 105.42172 139.713438 
L 107.193126 139.739305 
L 108.964532 139.744734 
L 110.735938 139.741634 
L 112.507344 139.736819 
L 114.27875 139.733103 
L 116.050156 139.731029 
L 117.821562 139.730207 
L 119.592968 139.730075 
L 121.364374 139.730212 
L 123.13578 139.730387 
L 124.907186 139.730513 
L 126.678592 139.730578 
L 128.449998 139.730601 
L 130.221404 139.730603 
L 131.99281 139.730597 
L 133.764216 139.730591 
L 135.535622 139.730587 
L 137.307028 139.730585 
L 139.078435 139.730584 
L 140.849841 139.730584 
L 142.621247 139.730584 
L 144.392653 139.730585 
L 146.164059 139.730585 
L 147.935465 139.730585 
L 149.706871 139.730585 
L 151.478277 139.730585 
L 153.249683 139.730585 
L 155.021089 139.730585 
L 156.792495 139.730585 
L 158.563901 139.730585 
L 160.335307 139.730585 
L 162.106713 139.730585 
L 163.878119 139.730585 
L 165.649525 139.730585 
L 167.420931 139.730585 
L 169.192337 139.730585 
L 170.963743 139.730585 
L 172.735149 139.730585 
L 174.506555 139.730585 
L 176.277961 139.730585 
L 178.049367 139.730585 
L 179.820773 139.730585 
L 181.592179 139.730585 
L 183.363585 139.730585 
L 185.134991 139.730585 
L 186.906397 139.730585 
L 188.677803 139.730585 
L 190.449209 139.730585 
L 192.220615 139.730585 
L 193.992021 139.730585 
L 195.763427 139.730585 
" clip-path="url(#pc97bb5f647)" style="fill: none; stroke: #21918c; stroke-width: 1.5; stroke-linecap: round"/>
   </g>
   <g id="line2d_11">
    <path d="M 66.450788 30.585163 
L 68.222194 134.401639 
L 69.9936 103.850283 
L 71.765006 110.536551 
L 73.536412 124.573508 
L 75.307818 127.299532 
L 77.079224 141.461077 
L 78.85063 151.743473 
L 80.622036 157.947087 
L 82.393442 157.934335 
L 84.164848 152.727384 
L 85.936254 146.391509 
L 87.70766 141.344058 
L 89.479066 138.75658 
L 91.250472 138.034836 
L 93.021878 138.417168 
L 94.793284 139.045796 
L 96.56469 139.570995 
L 98.336096 139.830667 
L 100.107502 139.902917 
L 101.878908 139.860862 
L 103.650314 139.797396 
L 105.42172 139.744219 
L 107.193126 139.719415 
L 108.964532 139.712902 
L 110.735938 139.717904 
L 112.507344 139.724342 
L 114.27875 139.729632 
L 116.050156 139.731869 
L 117.821562 139.732389 
L 119.592968 139.731787 
L 121.364374 139.731144 
L 123.13578 139.730629 
L 124.907186 139.730439 
L 126.678592 139.730403 
L 128.449998 139.730474 
L 130.221404 139.730537 
L 131.99281 139.730586 
L 133.764216 139.730601 
L 135.535622 139.730603 
L 137.307028 139.730595 
L 139.078435 139.730589 
L 140.849841 139.730584 
L 142.621247 139.730583 
L 144.392653 139.730583 
L 146.164059 139.730584 
L 147.935465 139.730584 
L 149.706871 139.730585 
L 151.478277 139.730585 
L 153.249683 139.730585 
L 155.021089 139.730585 
L 156.792495 139.730585 
L 158.563901 139.730585 
L 160.335307 139.730585 
L 162.106713 139.730585 
L 163.878119 139.730585 
L 165.649525 139.730585 
L 167.420931 139.730585 
L 169.192337 139.730585 
L 170.963743 139.730585 
L 172.735149 139.730585 
L 174.506555 139.730585 
L 176.277961 139.730585 
L 178.049367 139.730585 
L 179.820773 139.730585 
L 181.592179 139.730585 
L 183.363585 139.730585 
L 185.134991 139.730585 
L 186.906397 139.730585 
L 188.677803 139.730585 
L 190.449209 139.730585 
L 192.220615 139.730585 
L 193.992021 139.730585 
L 195.763427 139.730585 
" clip-path="url(#pc97bb5f647)" style="fill: none; stroke: #44bf70; stroke-width: 1.5; stroke-linecap: round"/>
   </g>
   <g id="line2d_12">
    <path d="M 66.450788 30.585163 
L 68.222194 136.290664 
L 69.9936 104.548929 
L 71.765006 118.964712 
L 73.536412 128.873045 
L 75.307818 134.084184 
L 77.079224 149.874835 
L 78.85063 155.714452 
L 80.622036 156.520284 
L 82.393442 149.926459 
L 84.164848 143.801028 
L 85.936254 139.006949 
L 87.70766 137.672198 
L 89.479066 137.631585 
L 91.250472 138.732813 
L 93.021878 139.425422 
L 94.793284 139.985695 
L 96.56469 140.009916 
L 98.336096 139.983709 
L 100.107502 139.80671 
L 101.878908 139.746059 
L 103.650314 139.679708 
L 105.42172 139.699265 
L 107.193126 139.700978 
L 108.964532 139.728976 
L 110.735938 139.730149 
L 112.507344 139.739265 
L 114.27875 139.733021 
L 116.050156 139.734204 
L 117.821562 139.729534 
L 119.592968 139.730781 
L 121.364374 139.729148 
L 123.13578 139.73064 
L 124.907186 139.730058 
L 126.678592 139.730928 
L 128.449998 139.730472 
L 130.221404 139.730837 
L 131.99281 139.730499 
L 133.764216 139.730684 
L 135.535622 139.730501 
L 137.307028 139.730625 
L 139.078435 139.730535 
L 140.849841 139.730613 
L 142.621247 139.730562 
L 144.392653 139.730604 
L 146.164059 139.730573 
L 147.935465 139.730595 
L 149.706871 139.730577 
L 151.478277 139.73059 
L 153.249683 139.73058 
L 155.021089 139.730588 
L 156.792495 139.730582 
L 158.563901 139.730587 
L 160.335307 139.730583 
L 162.106713 139.730586 
L 163.878119 139.730584 
L 165.649525 139.730585 
L 167.420931 139.730584 
L 169.192337 139.730585 
L 170.963743 139.730584 
L 172.735149 139.730585 
L 174.506555 139.730585 
L 176.277961 139.730585 
L 178.049367 139.730585 
L 179.820773 139.730585 
L 181.592179 139.730585 
L 183.363585 139.730585 
L 185.134991 139.730585 
L 186.906397 139.730585 
L 188.677803 139.730585 
L 190.449209 139.730585 
L 192.220615 139.730585 
L 193.992021 139.730585 
L 195.763427 139.730585 
" clip-path="url(#pc97bb5f647)" style="fill: none; stroke: #bddf26; stroke-width: 1.5; stroke-linecap: round"/>
   </g>
   <g id="patch_3">
    <path d="M 59.985156 166.363434 
L 59.985156 24.119531 
" style="fill: none; stroke: #cccccc; stroke-linejoin: miter; stroke-linecap: square"/>
   </g>
   <g id="patch_4">
    <path d="M 202.229059 166.363434 
L 202.229059 24.119531 
" style="fill: none; stroke: #cccccc; stroke-linejoin: miter; stroke-linecap: square"/>
   </g>
   <g id="patch_5">
    <path d="M 59.985156 166.363434 
L 202.229059 166.363434 
" style="fill: none; stroke: #cccccc; stroke-linejoin: miter; stroke-linecap: square"/>
   </g>
   <g id="patch_6">
    <path d="M 59.985156 24.119531 
L 202.229059 24.119531 
" style="fill: none; stroke: #cccccc; stroke-linejoin: miter; stroke-linecap: square"/>
   </g>
   <g id="text_10">
    <!-- La Grange -->
    <g style="fill: #262626" transform="translate(95.668436 18.119531)scale(0.15 -0.15)">
     <defs>
      <path id="ArialMT-4c" d="M 469 0 
L 469 4581 
L 1075 4581 
L 1075 541 
L 3331 541 
L 3331 0 
L 469 0 
z
" transform="scale(0.015625)"/>
      <path id="ArialMT-47" d="M 2638 1797 
L 2638 2334 
L 4578 2338 
L 4578 638 
Q 4131 281 3656 101 
Q 3181 -78 2681 -78 
Q 2006 -78 1454 211 
Q 903 500 622 1047 
Q 341 1594 341 2269 
Q 341 2938 620 3517 
Q 900 4097 1425 4378 
Q 1950 4659 2634 4659 
Q 3131 4659 3532 4498 
Q 3934 4338 4162 4050 
Q 4391 3763 4509 3300 
L 3963 3150 
Q 3859 3500 3706 3700 
Q 3553 3900 3268 4020 
Q 2984 4141 2638 4141 
Q 2222 4141 1919 4014 
Q 1616 3888 1430 3681 
Q 1244 3475 1141 3228 
Q 966 2803 966 2306 
Q 966 1694 1177 1281 
Q 1388 869 1791 669 
Q 2194 469 2647 469 
Q 3041 469 3416 620 
Q 3791 772 3984 944 
L 3984 1797 
L 2638 1797 
z
" transform="scale(0.015625)"/>
      <path id="ArialMT-67" d="M 319 -275 
L 866 -356 
Q 900 -609 1056 -725 
Q 1266 -881 1628 -881 
Q 2019 -881 2231 -725 
Q 2444 -569 2519 -288 
Q 2563 -116 2559 434 
Q 2191 0 1641 0 
Q 956 0 581 494 
Q 206 988 206 1678 
Q 206 2153 378 2554 
Q 550 2956 876 3175 
Q 1203 3394 1644 3394 
Q 2231 3394 2613 2919 
L 2613 3319 
L 3131 3319 
L 3131 450 
Q 3131 -325 2973 -648 
Q 2816 -972 2473 -1159 
Q 2131 -1347 1631 -1347 
Q 1038 -1347 672 -1080 
Q 306 -813 319 -275 
z
M 784 1719 
Q 784 1066 1043 766 
Q 1303 466 1694 466 
Q 2081 466 2343 764 
Q 2606 1063 2606 1700 
Q 2606 2309 2336 2618 
Q 2066 2928 1684 2928 
Q 1309 2928 1046 2623 
Q 784 2319 784 1719 
z
" transform="scale(0.015625)"/>
     </defs>
     <use xlink:href="#ArialMT-4c"/>
     <use xlink:href="#ArialMT-61" x="55.615234"/>
     <use xlink:href="#ArialMT-20" x="111.230469"/>
     <use xlink:href="#ArialMT-47" x="139.013672"/>
     <use xlink:href="#ArialMT-72" x="216.796875"/>
     <use xlink:href="#ArialMT-61" x="250.097656"/>
     <use xlink:href="#ArialMT-6e" x="305.712891"/>
     <use xlink:href="#ArialMT-67" x="361.328125"/>
     <use xlink:href="#ArialMT-65" x="416.943359"/>
    </g>
   </g>
  </g>
  <g id="axes_2">
   <g id="patch_7">
    <path d="M 209.341254 166.363434 
L 351.585156 166.363434 
L 351.585156 24.119531 
L 209.341254 24.119531 
z
" style="fill: #ffffff"/>
   </g>
   <g id="matplotlib.axis_3">
    <g id="xtick_5">
     <g id="line2d_13">
      <path d="M 215.806886 166.363434 
L 215.806886 24.119531 
" clip-path="url(#p5cac3bf6ed)" style="fill: none; stroke: #cccccc; stroke-linecap: round"/>
     </g>
     <g id="text_11">
      <!-- 0 -->
      <g style="fill: #262626" transform="translate(212.74837 177.737027)scale(0.11 -0.11)">
       <use xlink:href="#ArialMT-30"/>
      </g>
     </g>
    </g>
    <g id="xtick_6">
     <g id="line2d_14">
      <path d="M 260.092036 166.363434 
L 260.092036 24.119531 
" clip-path="url(#p5cac3bf6ed)" style="fill: none; stroke: #cccccc; stroke-linecap: round"/>
     </g>
     <g id="text_12">
      <!-- 25 -->
      <g style="fill: #262626" transform="translate(253.975005 177.737027)scale(0.11 -0.11)">
       <use xlink:href="#ArialMT-32"/>
       <use xlink:href="#ArialMT-35" x="55.615234"/>
      </g>
     </g>
    </g>
    <g id="xtick_7">
     <g id="line2d_15">
      <path d="M 304.377186 166.363434 
L 304.377186 24.119531 
" clip-path="url(#p5cac3bf6ed)" style="fill: none; stroke: #cccccc; stroke-linecap: round"/>
     </g>
     <g id="text_13">
      <!-- 50 -->
      <g style="fill: #262626" transform="translate(298.260155 177.737027)scale(0.11 -0.11)">
       <use xlink:href="#ArialMT-35"/>
       <use xlink:href="#ArialMT-30" x="55.615234"/>
      </g>
     </g>
    </g>
    <g id="xtick_8">
     <g id="line2d_16">
      <path d="M 348.662336 166.363434 
L 348.662336 24.119531 
" clip-path="url(#p5cac3bf6ed)" style="fill: none; stroke: #cccccc; stroke-linecap: round"/>
     </g>
     <g id="text_14">
      <!-- 75 -->
      <g style="fill: #262626" transform="translate(342.545305 177.737027)scale(0.11 -0.11)">
       <use xlink:href="#ArialMT-37"/>
       <use xlink:href="#ArialMT-35" x="55.615234"/>
      </g>
     </g>
    </g>
    <g id="text_15">
     <!-- Years -->
     <g style="fill: #262626" transform="translate(261.556174 194.659996)scale(0.15 -0.15)">
      <use xlink:href="#ArialMT-59"/>
      <use xlink:href="#ArialMT-65" x="57.574219"/>
      <use xlink:href="#ArialMT-61" x="113.189453"/>
      <use xlink:href="#ArialMT-72" x="168.804688"/>
      <use xlink:href="#ArialMT-73" x="202.105469"/>
     </g>
    </g>
   </g>
   <g id="matplotlib.axis_4">
    <g id="ytick_4">
     <g id="line2d_17">
      <path d="M 209.341254 139.730585 
L 351.585156 139.730585 
" clip-path="url(#p5cac3bf6ed)" style="fill: none; stroke: #cccccc; stroke-linecap: round"/>
     </g>
    </g>
    <g id="ytick_5">
     <g id="line2d_18">
      <path d="M 209.341254 93.957795 
L 351.585156 93.957795 
" clip-path="url(#p5cac3bf6ed)" style="fill: none; stroke: #cccccc; stroke-linecap: round"/>
     </g>
    </g>
    <g id="ytick_6">
     <g id="line2d_19">
      <path d="M 209.341254 48.185006 
L 351.585156 48.185006 
" clip-path="url(#p5cac3bf6ed)" style="fill: none; stroke: #cccccc; stroke-linecap: round"/>
     </g>
    </g>
   </g>
   <g id="line2d_20">
    <path d="M 215.806886 30.585163 
L 217.578292 64.447106 
L 219.349698 59.582431 
L 221.121104 36.167966 
L 222.89251 47.1308 
L 224.663916 52.200522 
L 226.435322 49.515509 
L 228.206728 49.378489 
L 229.978134 51.245534 
L 231.74954 52.101585 
L 233.520946 52.303046 
L 235.292352 52.712204 
L 237.063758 53.234086 
L 238.835164 53.633965 
L 240.60657 53.939419 
L 242.377976 54.220085 
L 244.149382 54.475688 
L 245.920788 54.69209 
L 247.692194 54.872657 
L 249.4636 55.024678 
L 251.235006 55.150742 
L 253.006412 55.251934 
L 254.777818 55.330219 
L 256.549224 55.387756 
L 258.32063 55.426284 
L 260.092036 55.447291 
L 261.863442 55.452193 
L 263.634848 55.44232 
L 265.406254 55.418878 
L 267.17766 55.382971 
L 268.949066 55.335619 
L 270.720472 55.277764 
L 272.491878 55.210275 
L 274.263284 55.133954 
L 276.03469 55.049545 
L 277.806096 54.957736 
L 279.577502 54.859164 
L 281.348908 54.754421 
L 283.120314 54.644057 
L 284.89172 54.528582 
L 286.663126 54.40847 
L 288.434532 54.284165 
L 290.205938 54.156076 
L 291.977344 54.024587 
L 293.74875 53.890056 
L 295.520156 53.752814 
L 297.291562 53.613173 
L 299.062968 53.471423 
L 300.834374 53.327833 
L 302.60578 53.182658 
L 304.377186 53.036132 
L 306.148592 52.888476 
L 307.919998 52.739897 
L 309.691404 52.590585 
L 311.46281 52.440721 
L 313.234216 52.290473 
L 315.005622 52.139996 
L 316.777028 51.989439 
L 318.548434 51.838936 
L 320.31984 51.688616 
L 322.091246 51.538597 
L 323.862652 51.388991 
L 325.634058 51.2399 
L 327.405464 51.091421 
L 329.17687 50.943642 
L 330.948276 50.796648 
L 332.719682 50.650516 
L 334.491088 50.505317 
L 336.262494 50.361117 
L 338.0339 50.217979 
L 339.805306 50.075958 
L 341.576712 49.935107 
L 343.348118 49.795475 
L 345.119524 49.657106 
" clip-path="url(#p5cac3bf6ed)" style="fill: none; stroke: #482475; stroke-width: 1.5; stroke-linecap: round"/>
   </g>
   <g id="line2d_21">
    <path d="M 215.806886 30.585163 
L 217.578292 119.298965 
L 219.349698 97.213937 
L 221.121104 80.81897 
L 222.89251 100.042633 
L 224.663916 102.7329 
L 226.435322 104.863651 
L 228.206728 112.377565 
L 229.978134 119.554197 
L 231.74954 126.886987 
L 233.520946 134.940838 
L 235.292352 142.557928 
L 237.063758 149.072402 
L 238.835164 154.099363 
L 240.60657 157.298099 
L 242.377976 158.623282 
L 244.149382 158.3326 
L 245.920788 156.857826 
L 247.692194 154.680859 
L 249.4636 152.231931 
L 251.235006 149.829603 
L 253.006412 147.667741 
L 254.777818 145.834792 
L 256.549224 144.345938 
L 258.32063 143.174047 
L 260.092036 142.27295 
L 261.863442 141.592131 
L 263.634848 141.084564 
L 265.406254 140.710045 
L 267.17766 140.435931 
L 268.949066 140.236604 
L 270.720472 140.092427 
L 272.491878 139.988601 
L 274.263284 139.91411 
L 276.03469 139.860838 
L 277.806096 139.822847 
L 279.577502 139.79582 
L 281.348908 139.776635 
L 283.120314 139.763044 
L 284.89172 139.753432 
L 286.663126 139.746647 
L 288.434532 139.741863 
L 290.205938 139.738495 
L 291.977344 139.736128 
L 293.74875 139.734465 
L 295.520156 139.733298 
L 297.291562 139.732481 
L 299.062968 139.731909 
L 300.834374 139.731509 
L 302.60578 139.731229 
L 304.377186 139.731034 
L 306.148592 139.730897 
L 307.919998 139.730802 
L 309.691404 139.730736 
L 311.46281 139.73069 
L 313.234216 139.730658 
L 315.005622 139.730635 
L 316.777028 139.73062 
L 318.548434 139.730609 
L 320.31984 139.730602 
L 322.091246 139.730596 
L 323.862652 139.730593 
L 325.634058 139.73059 
L 327.405464 139.730589 
L 329.17687 139.730587 
L 330.948276 139.730587 
L 332.719682 139.730586 
L 334.491088 139.730586 
L 336.262494 139.730585 
L 338.0339 139.730585 
L 339.805306 139.730585 
L 341.576712 139.730585 
L 343.348118 139.730585 
L 345.119524 139.730585 
" clip-path="url(#p5cac3bf6ed)" style="fill: none; stroke: #355f8d; stroke-width: 1.5; stroke-linecap: round"/>
   </g>
   <g id="line2d_22">
    <path d="M 215.806886 30.585163 
L 217.578292 130.390682 
L 219.349698 102.260317 
L 221.121104 98.752379 
L 222.89251 116.759278 
L 224.663916 118.160195 
L 226.435322 127.374178 
L 228.206728 138.818639 
L 229.978134 148.191762 
L 231.74954 156.235751 
L 233.520946 159.897802 
L 235.292352 158.932756 
L 237.063758 154.80361 
L 238.835164 149.615486 
L 240.60657 145.060252 
L 242.377976 141.914531 
L 244.149382 140.181063 
L 245.920788 139.464965 
L 247.692194 139.318362 
L 249.4636 139.407394 
L 251.235006 139.544575 
L 253.006412 139.651844 
L 254.777818 139.713438 
L 256.549224 139.739305 
L 258.32063 139.744734 
L 260.092036 139.741634 
L 261.863442 139.736819 
L 263.634848 139.733103 
L 265.406254 139.731029 
L 267.17766 139.730207 
L 268.949066 139.730075 
L 270.720472 139.730212 
L 272.491878 139.730387 
L 274.263284 139.730513 
L 276.03469 139.730578 
L 277.806096 139.730601 
L 279.577502 139.730603 
L 281.348908 139.730597 
L 283.120314 139.730591 
L 284.89172 139.730587 
L 286.663126 139.730585 
L 288.434532 139.730584 
L 290.205938 139.730584 
L 291.977344 139.730584 
L 293.74875 139.730585 
L 295.520156 139.730585 
L 297.291562 139.730585 
L 299.062968 139.730585 
L 300.834374 139.730585 
L 302.60578 139.730585 
L 304.377186 139.730585 
L 306.148592 139.730585 
L 307.919998 139.730585 
L 309.691404 139.730585 
L 311.46281 139.730585 
L 313.234216 139.730585 
L 315.005622 139.730585 
L 316.777028 139.730585 
L 318.548434 139.730585 
L 320.31984 139.730585 
L 322.091246 139.730585 
L 323.862652 139.730585 
L 325.634058 139.730585 
L 327.405464 139.730585 
L 329.17687 139.730585 
L 330.948276 139.730585 
L 332.719682 139.730585 
L 334.491088 139.730585 
L 336.262494 139.730585 
L 338.0339 139.730585 
L 339.805306 139.730585 
L 341.576712 139.730585 
L 343.348118 139.730585 
L 345.119524 139.730585 
" clip-path="url(#p5cac3bf6ed)" style="fill: none; stroke: #21918c; stroke-width: 1.5; stroke-linecap: round"/>
   </g>
   <g id="line2d_23">
    <path d="M 215.806886 30.585163 
L 217.578292 134.401639 
L 219.349698 103.850283 
L 221.121104 110.536551 
L 222.89251 124.573508 
L 224.663916 127.299532 
L 226.435322 141.461077 
L 228.206728 151.743473 
L 229.978134 157.947087 
L 231.74954 157.934335 
L 233.520946 152.727384 
L 235.292352 146.391509 
L 237.063758 141.344058 
L 238.835164 138.75658 
L 240.60657 138.034836 
L 242.377976 138.417168 
L 244.149382 139.045796 
L 245.920788 139.570995 
L 247.692194 139.830667 
L 249.4636 139.902917 
L 251.235006 139.860862 
L 253.006412 139.797396 
L 254.777818 139.744219 
L 256.549224 139.719415 
L 258.32063 139.712902 
L 260.092036 139.717904 
L 261.863442 139.724342 
L 263.634848 139.729632 
L 265.406254 139.731869 
L 267.17766 139.732389 
L 268.949066 139.731787 
L 270.720472 139.731144 
L 272.491878 139.730629 
L 274.263284 139.730439 
L 276.03469 139.730403 
L 277.806096 139.730474 
L 279.577502 139.730537 
L 281.348908 139.730586 
L 283.120314 139.730601 
L 284.89172 139.730603 
L 286.663126 139.730595 
L 288.434532 139.730589 
L 290.205938 139.730584 
L 291.977344 139.730583 
L 293.74875 139.730583 
L 295.520156 139.730584 
L 297.291562 139.730584 
L 299.062968 139.730585 
L 300.834374 139.730585 
L 302.60578 139.730585 
L 304.377186 139.730585 
L 306.148592 139.730585 
L 307.919998 139.730585 
L 309.691404 139.730585 
L 311.46281 139.730585 
L 313.234216 139.730585 
L 315.005622 139.730585 
L 316.777028 139.730585 
L 318.548434 139.730585 
L 320.31984 139.730585 
L 322.091246 139.730585 
L 323.862652 139.730585 
L 325.634058 139.730585 
L 327.405464 139.730585 
L 329.17687 139.730585 
L 330.948276 139.730585 
L 332.719682 139.730585 
L 334.491088 139.730585 
L 336.262494 139.730585 
L 338.0339 139.730585 
L 339.805306 139.730585 
L 341.576712 139.730585 
L 343.348118 139.730585 
L 345.119524 139.730585 
" clip-path="url(#p5cac3bf6ed)" style="fill: none; stroke: #44bf70; stroke-width: 1.5; stroke-linecap: round"/>
   </g>
   <g id="line2d_24">
    <path d="M 215.806886 30.585163 
L 217.578292 136.290664 
L 219.349698 104.548929 
L 221.121104 118.964712 
L 222.89251 128.873045 
L 224.663916 134.084184 
L 226.435322 149.874835 
L 228.206728 155.714452 
L 229.978134 156.520284 
L 231.74954 149.926459 
L 233.520946 143.801028 
L 235.292352 139.006949 
L 237.063758 137.672198 
L 238.835164 137.631585 
L 240.60657 138.732813 
L 242.377976 139.425422 
L 244.149382 139.985695 
L 245.920788 140.009916 
L 247.692194 139.983709 
L 249.4636 139.80671 
L 251.235006 139.746059 
L 253.006412 139.679708 
L 254.777818 139.699265 
L 256.549224 139.700978 
L 258.32063 139.728976 
L 260.092036 139.730149 
L 261.863442 139.739265 
L 263.634848 139.733021 
L 265.406254 139.734204 
L 267.17766 139.729534 
L 268.949066 139.730781 
L 270.720472 139.729148 
L 272.491878 139.73064 
L 274.263284 139.730058 
L 276.03469 139.730928 
L 277.806096 139.730472 
L 279.577502 139.730837 
L 281.348908 139.730499 
L 283.120314 139.730684 
L 284.89172 139.730501 
L 286.663126 139.730625 
L 288.434532 139.730535 
L 290.205938 139.730613 
L 291.977344 139.730562 
L 293.74875 139.730604 
L 295.520156 139.730573 
L 297.291562 139.730595 
L 299.062968 139.730577 
L 300.834374 139.73059 
L 302.60578 139.73058 
L 304.377186 139.730588 
L 306.148592 139.730582 
L 307.919998 139.730587 
L 309.691404 139.730583 
L 311.46281 139.730586 
L 313.234216 139.730584 
L 315.005622 139.730585 
L 316.777028 139.730584 
L 318.548434 139.730585 
L 320.31984 139.730584 
L 322.091246 139.730585 
L 323.862652 139.730585 
L 325.634058 139.730585 
L 327.405464 139.730585 
L 329.17687 139.730585 
L 330.948276 139.730585 
L 332.719682 139.730585 
L 334.491088 139.730585 
L 336.262494 139.730585 
L 338.0339 139.730585 
L 339.805306 139.730585 
L 341.576712 139.730585 
L 343.348118 139.730585 
L 345.119524 139.730585 
" clip-path="url(#p5cac3bf6ed)" style="fill: none; stroke: #bddf26; stroke-width: 1.5; stroke-linecap: round"/>
   </g>
   <g id="patch_8">
    <path d="M 209.341254 166.363434 
L 209.341254 24.119531 
" style="fill: none; stroke: #cccccc; stroke-linejoin: miter; stroke-linecap: square"/>
   </g>
   <g id="patch_9">
    <path d="M 351.585156 166.363434 
L 351.585156 24.119531 
" style="fill: none; stroke: #cccccc; stroke-linejoin: miter; stroke-linecap: square"/>
   </g>
   <g id="patch_10">
    <path d="M 209.341254 166.363434 
L 351.585156 166.363434 
" style="fill: none; stroke: #cccccc; stroke-linejoin: miter; stroke-linecap: square"/>
   </g>
   <g id="patch_11">
    <path d="M 209.341254 24.119531 
L 351.585156 24.119531 
" style="fill: none; stroke: #cccccc; stroke-linejoin: miter; stroke-linecap: square"/>
   </g>
   <g id="text_16">
    <!-- Peoria -->
    <g style="fill: #262626" transform="translate(258.784689 18.119531)scale(0.15 -0.15)">
     <defs>
      <path id="ArialMT-50" d="M 494 0 
L 494 4581 
L 2222 4581 
Q 2678 4581 2919 4538 
Q 3256 4481 3484 4323 
Q 3713 4166 3852 3881 
Q 3991 3597 3991 3256 
Q 3991 2672 3619 2267 
Q 3247 1863 2275 1863 
L 1100 1863 
L 1100 0 
L 494 0 
z
M 1100 2403 
L 2284 2403 
Q 2872 2403 3119 2622 
Q 3366 2841 3366 3238 
Q 3366 3525 3220 3729 
Q 3075 3934 2838 4000 
Q 2684 4041 2272 4041 
L 1100 4041 
L 1100 2403 
z
" transform="scale(0.015625)"/>
     </defs>
     <use xlink:href="#ArialMT-50"/>
     <use xlink:href="#ArialMT-65" x="66.699219"/>
     <use xlink:href="#ArialMT-6f" x="122.314453"/>
     <use xlink:href="#ArialMT-72" x="177.929688"/>
     <use xlink:href="#ArialMT-69" x="211.230469"/>
     <use xlink:href="#ArialMT-61" x="233.447266"/>
    </g>
   </g>
  </g>
  <g id="legend_1">
   <g id="patch_12">
    <path d="M 368.654375 151.20742 
L 431.985156 151.20742 
Q 434.185156 151.20742 434.185156 149.00742 
L 434.185156 55.833826 
Q 434.185156 53.633826 431.985156 53.633826 
L 368.654375 53.633826 
Q 366.454375 53.633826 366.454375 55.833826 
L 366.454375 149.00742 
Q 366.454375 151.20742 368.654375 151.20742 
z
" style="fill: #ffffff; opacity: 0.8; stroke: #cccccc; stroke-linejoin: miter"/>
   </g>
   <g id="text_17">
    <!-- $v$ -->
    <g style="fill: #262626" transform="translate(396.719766 66.623201)scale(0.12 -0.12)">
     <defs>
      <path id="DejaVuSans-Oblique-76" d="M 459 3500 
L 1069 3500 
L 1581 525 
L 3256 3500 
L 3866 3500 
L 1875 0 
L 1100 0 
L 459 3500 
z
" transform="scale(0.015625)"/>
     </defs>
     <use xlink:href="#DejaVuSans-Oblique-76" transform="translate(0 0.3125)"/>
    </g>
   </g>
   <g id="line2d_25">
    <path d="M 370.854375 78.531795 
L 381.854375 78.531795 
L 392.854375 78.531795 
" style="fill: none; stroke: #482475; stroke-width: 1.5; stroke-linecap: round"/>
   </g>
   <g id="text_18">
    <!-- 1e-05 -->
    <g style="fill: #262626" transform="translate(401.654375 82.381795)scale(0.11 -0.11)">
     <defs>
      <path id="ArialMT-2d" d="M 203 1375 
L 203 1941 
L 1931 1941 
L 1931 1375 
L 203 1375 
z
" transform="scale(0.015625)"/>
     </defs>
     <use xlink:href="#ArialMT-31"/>
     <use xlink:href="#ArialMT-65" x="55.615234"/>
     <use xlink:href="#ArialMT-2d" x="111.230469"/>
     <use xlink:href="#ArialMT-30" x="144.53125"/>
     <use xlink:href="#ArialMT-35" x="200.146484"/>
    </g>
   </g>
   <g id="line2d_26">
    <path d="M 370.854375 94.091639 
L 381.854375 94.091639 
L 392.854375 94.091639 
" style="fill: none; stroke: #355f8d; stroke-width: 1.5; stroke-linecap: round"/>
   </g>
   <g id="text_19">
    <!-- 3e-05 -->
    <g style="fill: #262626" transform="translate(401.654375 97.941639)scale(0.11 -0.11)">
     <defs>
      <path id="ArialMT-33" d="M 269 1209 
L 831 1284 
Q 928 806 1161 595 
Q 1394 384 1728 384 
Q 2125 384 2398 659 
Q 2672 934 2672 1341 
Q 2672 1728 2419 1979 
Q 2166 2231 1775 2231 
Q 1616 2231 1378 2169 
L 1441 2663 
Q 1497 2656 1531 2656 
Q 1891 2656 2178 2843 
Q 2466 3031 2466 3422 
Q 2466 3731 2256 3934 
Q 2047 4138 1716 4138 
Q 1388 4138 1169 3931 
Q 950 3725 888 3313 
L 325 3413 
Q 428 3978 793 4289 
Q 1159 4600 1703 4600 
Q 2078 4600 2393 4439 
Q 2709 4278 2876 4000 
Q 3044 3722 3044 3409 
Q 3044 3113 2884 2869 
Q 2725 2625 2413 2481 
Q 2819 2388 3044 2092 
Q 3269 1797 3269 1353 
Q 3269 753 2831 336 
Q 2394 -81 1725 -81 
Q 1122 -81 723 278 
Q 325 638 269 1209 
z
" transform="scale(0.015625)"/>
     </defs>
     <use xlink:href="#ArialMT-33"/>
     <use xlink:href="#ArialMT-65" x="55.615234"/>
     <use xlink:href="#ArialMT-2d" x="111.230469"/>
     <use xlink:href="#ArialMT-30" x="144.53125"/>
     <use xlink:href="#ArialMT-35" x="200.146484"/>
    </g>
   </g>
   <g id="line2d_27">
    <path d="M 370.854375 109.651482 
L 381.854375 109.651482 
L 392.854375 109.651482 
" style="fill: none; stroke: #21918c; stroke-width: 1.5; stroke-linecap: round"/>
   </g>
   <g id="text_20">
    <!-- 5e-05 -->
    <g style="fill: #262626" transform="translate(401.654375 113.501482)scale(0.11 -0.11)">
     <use xlink:href="#ArialMT-35"/>
     <use xlink:href="#ArialMT-65" x="55.615234"/>
     <use xlink:href="#ArialMT-2d" x="111.230469"/>
     <use xlink:href="#ArialMT-30" x="144.53125"/>
     <use xlink:href="#ArialMT-35" x="200.146484"/>
    </g>
   </g>
   <g id="line2d_28">
    <path d="M 370.854375 125.211326 
L 381.854375 125.211326 
L 392.854375 125.211326 
" style="fill: none; stroke: #44bf70; stroke-width: 1.5; stroke-linecap: round"/>
   </g>
   <g id="text_21">
    <!-- 7e-05 -->
    <g style="fill: #262626" transform="translate(401.654375 129.061326)scale(0.11 -0.11)">
     <use xlink:href="#ArialMT-37"/>
     <use xlink:href="#ArialMT-65" x="55.615234"/>
     <use xlink:href="#ArialMT-2d" x="111.230469"/>
     <use xlink:href="#ArialMT-30" x="144.53125"/>
     <use xlink:href="#ArialMT-35" x="200.146484"/>
    </g>
   </g>
   <g id="line2d_29">
    <path d="M 370.854375 140.77117 
L 381.854375 140.77117 
L 392.854375 140.77117 
" style="fill: none; stroke: #bddf26; stroke-width: 1.5; stroke-linecap: round"/>
   </g>
   <g id="text_22">
    <!-- 9e-05 -->
    <g style="fill: #262626" transform="translate(401.654375 144.62117)scale(0.11 -0.11)">
     <defs>
      <path id="ArialMT-39" d="M 350 1059 
L 891 1109 
Q 959 728 1153 556 
Q 1347 384 1650 384 
Q 1909 384 2104 503 
Q 2300 622 2425 820 
Q 2550 1019 2634 1356 
Q 2719 1694 2719 2044 
Q 2719 2081 2716 2156 
Q 2547 1888 2255 1720 
Q 1963 1553 1622 1553 
Q 1053 1553 659 1965 
Q 266 2378 266 3053 
Q 266 3750 677 4175 
Q 1088 4600 1706 4600 
Q 2153 4600 2523 4359 
Q 2894 4119 3086 3673 
Q 3278 3228 3278 2384 
Q 3278 1506 3087 986 
Q 2897 466 2520 194 
Q 2144 -78 1638 -78 
Q 1100 -78 759 220 
Q 419 519 350 1059 
z
M 2653 3081 
Q 2653 3566 2395 3850 
Q 2138 4134 1775 4134 
Q 1400 4134 1122 3828 
Q 844 3522 844 3034 
Q 844 2597 1108 2323 
Q 1372 2050 1759 2050 
Q 2150 2050 2401 2323 
Q 2653 2597 2653 3081 
z
" transform="scale(0.015625)"/>
     </defs>
     <use xlink:href="#ArialMT-39"/>
     <use xlink:href="#ArialMT-65" x="55.615234"/>
     <use xlink:href="#ArialMT-2d" x="111.230469"/>
     <use xlink:href="#ArialMT-30" x="144.53125"/>
     <use xlink:href="#ArialMT-35" x="200.146484"/>
    </g>
   </g>
  </g>
 </g>
 <defs>
  <clipPath id="pc97bb5f647">
   <rect x="59.985156" y="24.119531" width="142.243902" height="142.243902"/>
  </clipPath>
  <clipPath id="p5cac3bf6ed">
   <rect x="209.341254" y="24.119531" width="142.243902" height="142.243902"/>
  </clipPath>
 </defs>
</svg>
