<?xml version="1.0" encoding="utf-8" standalone="no"?>
<!DOCTYPE svg PUBLIC "-//W3C//DTD SVG 1.1//EN"
  "http://www.w3.org/Graphics/SVG/1.1/DTD/svg11.dtd">
<svg xmlns:xlink="http://www.w3.org/1999/xlink" width="433.875781pt" height="204.841246pt" viewBox="0 0 433.875781 204.841246" xmlns="http://www.w3.org/2000/svg" version="1.1">
 <metadata>
  <rdf:RDF xmlns:dc="http://purl.org/dc/elements/1.1/" xmlns:cc="http://creativecommons.org/ns#" xmlns:rdf="http://www.w3.org/1999/02/22-rdf-syntax-ns#">
   <cc:Work>
    <dc:type rdf:resource="http://purl.org/dc/dcmitype/StillImage"/>
    <dc:date>2022-10-12T15:03:14.112084</dc:date>
    <dc:format>image/svg+xml</dc:format>
    <dc:creator>
     <cc:Agent>
      <dc:title>Matplotlib v3.5.1, https://matplotlib.org/</dc:title>
     </cc:Agent>
    </dc:creator>
   </cc:Work>
  </rdf:RDF>
 </metadata>
 <defs>
  <style type="text/css">*{stroke-linejoin: round; stroke-linecap: butt}</style>
 </defs>
 <g id="figure_1">
  <g id="patch_1">
   <path d="M 0 204.841246 
L 433.875781 204.841246 
L 433.875781 0 
L 0 0 
z
" style="fill: #ffffff"/>
  </g>
  <g id="axes_1">
   <g id="patch_2">
    <path d="M 54.175781 166.363434 
L 196.419684 166.363434 
L 196.419684 24.119531 
L 54.175781 24.119531 
z
" style="fill: #ffffff"/>
   </g>
   <g id="matplotlib.axis_1">
    <g id="xtick_1">
     <g id="line2d_1">
      <path d="M 81.167229 166.363434 
L 81.167229 24.119531 
" clip-path="url(#p6fb99576a3)" style="fill: none; stroke: #cccccc; stroke-linecap: round"/>
     </g>
     <g id="text_1">
      <!-- 20 -->
      <g style="fill: #262626" transform="translate(75.050198 177.737027)scale(0.11 -0.11)">
       <defs>
        <path id="ArialMT-32" d="M 3222 541 
L 3222 0 
L 194 0 
Q 188 203 259 391 
Q 375 700 629 1000 
Q 884 1300 1366 1694 
Q 2113 2306 2375 2664 
Q 2638 3022 2638 3341 
Q 2638 3675 2398 3904 
Q 2159 4134 1775 4134 
Q 1369 4134 1125 3890 
Q 881 3647 878 3216 
L 300 3275 
Q 359 3922 746 4261 
Q 1134 4600 1788 4600 
Q 2447 4600 2831 4234 
Q 3216 3869 3216 3328 
Q 3216 3053 3103 2787 
Q 2991 2522 2730 2228 
Q 2469 1934 1863 1422 
Q 1356 997 1212 845 
Q 1069 694 975 541 
L 3222 541 
z
" transform="scale(0.015625)"/>
        <path id="ArialMT-30" d="M 266 2259 
Q 266 3072 433 3567 
Q 600 4063 929 4331 
Q 1259 4600 1759 4600 
Q 2128 4600 2406 4451 
Q 2684 4303 2865 4023 
Q 3047 3744 3150 3342 
Q 3253 2941 3253 2259 
Q 3253 1453 3087 958 
Q 2922 463 2592 192 
Q 2263 -78 1759 -78 
Q 1097 -78 719 397 
Q 266 969 266 2259 
z
M 844 2259 
Q 844 1131 1108 757 
Q 1372 384 1759 384 
Q 2147 384 2411 759 
Q 2675 1134 2675 2259 
Q 2675 3391 2411 3762 
Q 2147 4134 1753 4134 
Q 1366 4134 1134 3806 
Q 844 3388 844 2259 
z
" transform="scale(0.015625)"/>
       </defs>
       <use xlink:href="#ArialMT-32"/>
       <use xlink:href="#ArialMT-30" x="55.615234"/>
      </g>
     </g>
    </g>
    <g id="xtick_2">
     <g id="line2d_2">
      <path d="M 122.21886 166.363434 
L 122.21886 24.119531 
" clip-path="url(#p6fb99576a3)" style="fill: none; stroke: #cccccc; stroke-linecap: round"/>
     </g>
     <g id="text_2">
      <!-- 40 -->
      <g style="fill: #262626" transform="translate(116.101829 177.737027)scale(0.11 -0.11)">
       <defs>
        <path id="ArialMT-34" d="M 2069 0 
L 2069 1097 
L 81 1097 
L 81 1613 
L 2172 4581 
L 2631 4581 
L 2631 1613 
L 3250 1613 
L 3250 1097 
L 2631 1097 
L 2631 0 
L 2069 0 
z
M 2069 1613 
L 2069 3678 
L 634 1613 
L 2069 1613 
z
" transform="scale(0.015625)"/>
       </defs>
       <use xlink:href="#ArialMT-34"/>
       <use xlink:href="#ArialMT-30" x="55.615234"/>
      </g>
     </g>
    </g>
    <g id="xtick_3">
     <g id="line2d_3">
      <path d="M 163.270491 166.363434 
L 163.270491 24.119531 
" clip-path="url(#p6fb99576a3)" style="fill: none; stroke: #cccccc; stroke-linecap: round"/>
     </g>
     <g id="text_3">
      <!-- 60 -->
      <g style="fill: #262626" transform="translate(157.15346 177.737027)scale(0.11 -0.11)">
       <defs>
        <path id="ArialMT-36" d="M 3184 3459 
L 2625 3416 
Q 2550 3747 2413 3897 
Q 2184 4138 1850 4138 
Q 1581 4138 1378 3988 
Q 1113 3794 959 3422 
Q 806 3050 800 2363 
Q 1003 2672 1297 2822 
Q 1591 2972 1913 2972 
Q 2475 2972 2870 2558 
Q 3266 2144 3266 1488 
Q 3266 1056 3080 686 
Q 2894 316 2569 119 
Q 2244 -78 1831 -78 
Q 1128 -78 684 439 
Q 241 956 241 2144 
Q 241 3472 731 4075 
Q 1159 4600 1884 4600 
Q 2425 4600 2770 4297 
Q 3116 3994 3184 3459 
z
M 888 1484 
Q 888 1194 1011 928 
Q 1134 663 1356 523 
Q 1578 384 1822 384 
Q 2178 384 2434 671 
Q 2691 959 2691 1453 
Q 2691 1928 2437 2201 
Q 2184 2475 1800 2475 
Q 1419 2475 1153 2201 
Q 888 1928 888 1484 
z
" transform="scale(0.015625)"/>
       </defs>
       <use xlink:href="#ArialMT-36"/>
       <use xlink:href="#ArialMT-30" x="55.615234"/>
      </g>
     </g>
    </g>
    <g id="text_4">
     <!-- Years -->
     <g style="fill: #262626" transform="translate(106.390701 194.659996)scale(0.15 -0.15)">
      <defs>
       <path id="ArialMT-59" d="M 1784 0 
L 1784 1941 
L 19 4581 
L 756 4581 
L 1659 3200 
Q 1909 2813 2125 2425 
Q 2331 2784 2625 3234 
L 3513 4581 
L 4219 4581 
L 2391 1941 
L 2391 0 
L 1784 0 
z
" transform="scale(0.015625)"/>
       <path id="ArialMT-65" d="M 2694 1069 
L 3275 997 
Q 3138 488 2766 206 
Q 2394 -75 1816 -75 
Q 1088 -75 661 373 
Q 234 822 234 1631 
Q 234 2469 665 2931 
Q 1097 3394 1784 3394 
Q 2450 3394 2872 2941 
Q 3294 2488 3294 1666 
Q 3294 1616 3291 1516 
L 816 1516 
Q 847 969 1125 678 
Q 1403 388 1819 388 
Q 2128 388 2347 550 
Q 2566 713 2694 1069 
z
M 847 1978 
L 2700 1978 
Q 2663 2397 2488 2606 
Q 2219 2931 1791 2931 
Q 1403 2931 1139 2672 
Q 875 2413 847 1978 
z
" transform="scale(0.015625)"/>
       <path id="ArialMT-61" d="M 2588 409 
Q 2275 144 1986 34 
Q 1697 -75 1366 -75 
Q 819 -75 525 192 
Q 231 459 231 875 
Q 231 1119 342 1320 
Q 453 1522 633 1644 
Q 813 1766 1038 1828 
Q 1203 1872 1538 1913 
Q 2219 1994 2541 2106 
Q 2544 2222 2544 2253 
Q 2544 2597 2384 2738 
Q 2169 2928 1744 2928 
Q 1347 2928 1158 2789 
Q 969 2650 878 2297 
L 328 2372 
Q 403 2725 575 2942 
Q 747 3159 1072 3276 
Q 1397 3394 1825 3394 
Q 2250 3394 2515 3294 
Q 2781 3194 2906 3042 
Q 3031 2891 3081 2659 
Q 3109 2516 3109 2141 
L 3109 1391 
Q 3109 606 3145 398 
Q 3181 191 3288 0 
L 2700 0 
Q 2613 175 2588 409 
z
M 2541 1666 
Q 2234 1541 1622 1453 
Q 1275 1403 1131 1340 
Q 988 1278 909 1158 
Q 831 1038 831 891 
Q 831 666 1001 516 
Q 1172 366 1500 366 
Q 1825 366 2078 508 
Q 2331 650 2450 897 
Q 2541 1088 2541 1459 
L 2541 1666 
z
" transform="scale(0.015625)"/>
       <path id="ArialMT-72" d="M 416 0 
L 416 3319 
L 922 3319 
L 922 2816 
Q 1116 3169 1280 3281 
Q 1444 3394 1641 3394 
Q 1925 3394 2219 3213 
L 2025 2691 
Q 1819 2813 1613 2813 
Q 1428 2813 1281 2702 
Q 1134 2591 1072 2394 
Q 978 2094 978 1738 
L 978 0 
L 416 0 
z
" transform="scale(0.015625)"/>
       <path id="ArialMT-73" d="M 197 991 
L 753 1078 
Q 800 744 1014 566 
Q 1228 388 1613 388 
Q 2000 388 2187 545 
Q 2375 703 2375 916 
Q 2375 1106 2209 1216 
Q 2094 1291 1634 1406 
Q 1016 1563 777 1677 
Q 538 1791 414 1992 
Q 291 2194 291 2438 
Q 291 2659 392 2848 
Q 494 3038 669 3163 
Q 800 3259 1026 3326 
Q 1253 3394 1513 3394 
Q 1903 3394 2198 3281 
Q 2494 3169 2634 2976 
Q 2775 2784 2828 2463 
L 2278 2388 
Q 2241 2644 2061 2787 
Q 1881 2931 1553 2931 
Q 1166 2931 1000 2803 
Q 834 2675 834 2503 
Q 834 2394 903 2306 
Q 972 2216 1119 2156 
Q 1203 2125 1616 2013 
Q 2213 1853 2448 1751 
Q 2684 1650 2818 1456 
Q 2953 1263 2953 975 
Q 2953 694 2789 445 
Q 2625 197 2315 61 
Q 2006 -75 1616 -75 
Q 969 -75 630 194 
Q 291 463 197 991 
z
" transform="scale(0.015625)"/>
      </defs>
      <use xlink:href="#ArialMT-59"/>
      <use xlink:href="#ArialMT-65" x="57.574219"/>
      <use xlink:href="#ArialMT-61" x="113.189453"/>
      <use xlink:href="#ArialMT-72" x="168.804688"/>
      <use xlink:href="#ArialMT-73" x="202.105469"/>
     </g>
    </g>
   </g>
   <g id="matplotlib.axis_2">
    <g id="ytick_1">
     <g id="line2d_4">
      <path d="M 54.175781 152.419337 
L 196.419684 152.419337 
" clip-path="url(#p6fb99576a3)" style="fill: none; stroke: #cccccc; stroke-linecap: round"/>
     </g>
     <g id="text_5">
      <!-- −100 -->
      <g style="fill: #262626" transform="translate(25.9 156.356134)scale(0.11 -0.11)">
       <defs>
        <path id="ArialMT-2212" d="M 3381 1997 
L 356 1997 
L 356 2522 
L 3381 2522 
L 3381 1997 
z
" transform="scale(0.015625)"/>
        <path id="ArialMT-31" d="M 2384 0 
L 1822 0 
L 1822 3584 
Q 1619 3391 1289 3197 
Q 959 3003 697 2906 
L 697 3450 
Q 1169 3672 1522 3987 
Q 1875 4303 2022 4600 
L 2384 4600 
L 2384 0 
z
" transform="scale(0.015625)"/>
       </defs>
       <use xlink:href="#ArialMT-2212"/>
       <use xlink:href="#ArialMT-31" x="58.398438"/>
       <use xlink:href="#ArialMT-30" x="114.013672"/>
       <use xlink:href="#ArialMT-30" x="169.628906"/>
      </g>
     </g>
    </g>
    <g id="ytick_2">
     <g id="line2d_5">
      <path d="M 54.175781 123.916555 
L 196.419684 123.916555 
" clip-path="url(#p6fb99576a3)" style="fill: none; stroke: #cccccc; stroke-linecap: round"/>
     </g>
     <g id="text_6">
      <!-- −75 -->
      <g style="fill: #262626" transform="translate(32.017031 127.853352)scale(0.11 -0.11)">
       <defs>
        <path id="ArialMT-37" d="M 303 3981 
L 303 4522 
L 3269 4522 
L 3269 4084 
Q 2831 3619 2401 2847 
Q 1972 2075 1738 1259 
Q 1569 684 1522 0 
L 944 0 
Q 953 541 1156 1306 
Q 1359 2072 1739 2783 
Q 2119 3494 2547 3981 
L 303 3981 
z
" transform="scale(0.015625)"/>
        <path id="ArialMT-35" d="M 266 1200 
L 856 1250 
Q 922 819 1161 601 
Q 1400 384 1738 384 
Q 2144 384 2425 690 
Q 2706 997 2706 1503 
Q 2706 1984 2436 2262 
Q 2166 2541 1728 2541 
Q 1456 2541 1237 2417 
Q 1019 2294 894 2097 
L 366 2166 
L 809 4519 
L 3088 4519 
L 3088 3981 
L 1259 3981 
L 1013 2750 
Q 1425 3038 1878 3038 
Q 2478 3038 2890 2622 
Q 3303 2206 3303 1553 
Q 3303 931 2941 478 
Q 2500 -78 1738 -78 
Q 1113 -78 717 272 
Q 322 622 266 1200 
z
" transform="scale(0.015625)"/>
       </defs>
       <use xlink:href="#ArialMT-2212"/>
       <use xlink:href="#ArialMT-37" x="58.398438"/>
       <use xlink:href="#ArialMT-35" x="114.013672"/>
      </g>
     </g>
    </g>
    <g id="ytick_3">
     <g id="line2d_6">
      <path d="M 54.175781 95.413773 
L 196.419684 95.413773 
" clip-path="url(#p6fb99576a3)" style="fill: none; stroke: #cccccc; stroke-linecap: round"/>
     </g>
     <g id="text_7">
      <!-- −50 -->
      <g style="fill: #262626" transform="translate(32.017031 99.350569)scale(0.11 -0.11)">
       <use xlink:href="#ArialMT-2212"/>
       <use xlink:href="#ArialMT-35" x="58.398438"/>
       <use xlink:href="#ArialMT-30" x="114.013672"/>
      </g>
     </g>
    </g>
    <g id="ytick_4">
     <g id="line2d_7">
      <path d="M 54.175781 66.91099 
L 196.419684 66.91099 
" clip-path="url(#p6fb99576a3)" style="fill: none; stroke: #cccccc; stroke-linecap: round"/>
     </g>
     <g id="text_8">
      <!-- −25 -->
      <g style="fill: #262626" transform="translate(32.017031 70.847787)scale(0.11 -0.11)">
       <use xlink:href="#ArialMT-2212"/>
       <use xlink:href="#ArialMT-32" x="58.398438"/>
       <use xlink:href="#ArialMT-35" x="114.013672"/>
      </g>
     </g>
    </g>
    <g id="ytick_5">
     <g id="line2d_8">
      <path d="M 54.175781 38.408208 
L 196.419684 38.408208 
" clip-path="url(#p6fb99576a3)" style="fill: none; stroke: #cccccc; stroke-linecap: round"/>
     </g>
     <g id="text_9">
      <!-- 0 -->
      <g style="fill: #262626" transform="translate(44.55875 42.345005)scale(0.11 -0.11)">
       <use xlink:href="#ArialMT-30"/>
      </g>
     </g>
    </g>
    <g id="text_10">
     <!-- Sensitivity of $\lambda$ -->
     <g style="fill: #262626" transform="translate(18.6 143.916482)rotate(-90)scale(0.15 -0.15)">
      <defs>
       <path id="ArialMT-53" d="M 288 1472 
L 859 1522 
Q 900 1178 1048 958 
Q 1197 738 1509 602 
Q 1822 466 2213 466 
Q 2559 466 2825 569 
Q 3091 672 3220 851 
Q 3350 1031 3350 1244 
Q 3350 1459 3225 1620 
Q 3100 1781 2813 1891 
Q 2628 1963 1997 2114 
Q 1366 2266 1113 2400 
Q 784 2572 623 2826 
Q 463 3081 463 3397 
Q 463 3744 659 4045 
Q 856 4347 1234 4503 
Q 1613 4659 2075 4659 
Q 2584 4659 2973 4495 
Q 3363 4331 3572 4012 
Q 3781 3694 3797 3291 
L 3216 3247 
Q 3169 3681 2898 3903 
Q 2628 4125 2100 4125 
Q 1550 4125 1298 3923 
Q 1047 3722 1047 3438 
Q 1047 3191 1225 3031 
Q 1400 2872 2139 2705 
Q 2878 2538 3153 2413 
Q 3553 2228 3743 1945 
Q 3934 1663 3934 1294 
Q 3934 928 3725 604 
Q 3516 281 3123 101 
Q 2731 -78 2241 -78 
Q 1619 -78 1198 103 
Q 778 284 539 648 
Q 300 1013 288 1472 
z
" transform="scale(0.015625)"/>
       <path id="ArialMT-6e" d="M 422 0 
L 422 3319 
L 928 3319 
L 928 2847 
Q 1294 3394 1984 3394 
Q 2284 3394 2536 3286 
Q 2788 3178 2913 3003 
Q 3038 2828 3088 2588 
Q 3119 2431 3119 2041 
L 3119 0 
L 2556 0 
L 2556 2019 
Q 2556 2363 2490 2533 
Q 2425 2703 2258 2804 
Q 2091 2906 1866 2906 
Q 1506 2906 1245 2678 
Q 984 2450 984 1813 
L 984 0 
L 422 0 
z
" transform="scale(0.015625)"/>
       <path id="ArialMT-69" d="M 425 3934 
L 425 4581 
L 988 4581 
L 988 3934 
L 425 3934 
z
M 425 0 
L 425 3319 
L 988 3319 
L 988 0 
L 425 0 
z
" transform="scale(0.015625)"/>
       <path id="ArialMT-74" d="M 1650 503 
L 1731 6 
Q 1494 -44 1306 -44 
Q 1000 -44 831 53 
Q 663 150 594 308 
Q 525 466 525 972 
L 525 2881 
L 113 2881 
L 113 3319 
L 525 3319 
L 525 4141 
L 1084 4478 
L 1084 3319 
L 1650 3319 
L 1650 2881 
L 1084 2881 
L 1084 941 
Q 1084 700 1114 631 
Q 1144 563 1211 522 
Q 1278 481 1403 481 
Q 1497 481 1650 503 
z
" transform="scale(0.015625)"/>
       <path id="ArialMT-76" d="M 1344 0 
L 81 3319 
L 675 3319 
L 1388 1331 
Q 1503 1009 1600 663 
Q 1675 925 1809 1294 
L 2547 3319 
L 3125 3319 
L 1869 0 
L 1344 0 
z
" transform="scale(0.015625)"/>
       <path id="ArialMT-79" d="M 397 -1278 
L 334 -750 
Q 519 -800 656 -800 
Q 844 -800 956 -737 
Q 1069 -675 1141 -563 
Q 1194 -478 1313 -144 
Q 1328 -97 1363 -6 
L 103 3319 
L 709 3319 
L 1400 1397 
Q 1534 1031 1641 628 
Q 1738 1016 1872 1384 
L 2581 3319 
L 3144 3319 
L 1881 -56 
Q 1678 -603 1566 -809 
Q 1416 -1088 1222 -1217 
Q 1028 -1347 759 -1347 
Q 597 -1347 397 -1278 
z
" transform="scale(0.015625)"/>
       <path id="ArialMT-20" transform="scale(0.015625)"/>
       <path id="ArialMT-6f" d="M 213 1659 
Q 213 2581 725 3025 
Q 1153 3394 1769 3394 
Q 2453 3394 2887 2945 
Q 3322 2497 3322 1706 
Q 3322 1066 3130 698 
Q 2938 331 2570 128 
Q 2203 -75 1769 -75 
Q 1072 -75 642 372 
Q 213 819 213 1659 
z
M 791 1659 
Q 791 1022 1069 705 
Q 1347 388 1769 388 
Q 2188 388 2466 706 
Q 2744 1025 2744 1678 
Q 2744 2294 2464 2611 
Q 2184 2928 1769 2928 
Q 1347 2928 1069 2612 
Q 791 2297 791 1659 
z
" transform="scale(0.015625)"/>
       <path id="ArialMT-66" d="M 556 0 
L 556 2881 
L 59 2881 
L 59 3319 
L 556 3319 
L 556 3672 
Q 556 4006 616 4169 
Q 697 4388 901 4523 
Q 1106 4659 1475 4659 
Q 1713 4659 2000 4603 
L 1916 4113 
Q 1741 4144 1584 4144 
Q 1328 4144 1222 4034 
Q 1116 3925 1116 3625 
L 1116 3319 
L 1763 3319 
L 1763 2881 
L 1116 2881 
L 1116 0 
L 556 0 
z
" transform="scale(0.015625)"/>
       <path id="DejaVuSans-Oblique-3bb" d="M 2350 4316 
L 3125 0 
L 2516 0 
L 2038 2588 
L 328 0 
L -281 0 
L 1903 3356 
L 1794 3975 
Q 1725 4369 1391 4369 
L 1091 4369 
L 1184 4863 
L 1550 4856 
Q 2253 4847 2350 4316 
z
" transform="scale(0.015625)"/>
      </defs>
      <use xlink:href="#ArialMT-53" transform="translate(0 0.015625)"/>
      <use xlink:href="#ArialMT-65" transform="translate(66.699219 0.015625)"/>
      <use xlink:href="#ArialMT-6e" transform="translate(122.314453 0.015625)"/>
      <use xlink:href="#ArialMT-73" transform="translate(177.929688 0.015625)"/>
      <use xlink:href="#ArialMT-69" transform="translate(227.929688 0.015625)"/>
      <use xlink:href="#ArialMT-74" transform="translate(250.146484 0.015625)"/>
      <use xlink:href="#ArialMT-69" transform="translate(277.929688 0.015625)"/>
      <use xlink:href="#ArialMT-76" transform="translate(300.146484 0.015625)"/>
      <use xlink:href="#ArialMT-69" transform="translate(350.146484 0.015625)"/>
      <use xlink:href="#ArialMT-74" transform="translate(372.363281 0.015625)"/>
      <use xlink:href="#ArialMT-79" transform="translate(400.146484 0.015625)"/>
      <use xlink:href="#ArialMT-20" transform="translate(450.146484 0.015625)"/>
      <use xlink:href="#ArialMT-6f" transform="translate(477.929688 0.015625)"/>
      <use xlink:href="#ArialMT-66" transform="translate(533.544922 0.015625)"/>
      <use xlink:href="#ArialMT-20" transform="translate(561.328125 0.015625)"/>
      <use xlink:href="#DejaVuSans-Oblique-3bb" transform="translate(589.111328 0.015625)"/>
     </g>
    </g>
   </g>
   <g id="line2d_9">
    <path d="M 60.641413 159.897802 
L 62.693995 88.24619 
L 64.746576 118.312738 
L 66.799158 82.202775 
L 68.851739 101.111393 
L 70.904321 76.3243 
L 72.956903 88.145706 
L 75.009484 67.929851 
L 77.062066 76.392945 
L 79.114647 59.253649 
L 81.167229 66.518219 
L 83.21981 51.90914 
L 85.272392 58.876017 
L 87.324974 46.365338 
L 89.377555 53.278877 
L 91.430137 42.479692 
L 93.482718 49.31338 
L 95.5353 39.904813 
L 97.587881 46.55165 
L 99.640463 38.28425 
L 101.693044 44.636973 
L 103.745626 37.322972 
L 105.798208 43.301177 
L 107.850789 36.799977 
L 109.903371 42.354301 
L 111.955952 36.558975 
L 114.008534 41.666765 
L 116.061115 36.493551 
L 118.113697 41.152372 
L 120.166279 36.533216 
L 122.21886 40.754731 
L 124.271442 36.63231 
L 126.324023 40.437322 
L 128.376605 36.761852 
L 130.429186 40.17659 
L 132.481768 36.90384 
L 134.53435 39.957302 
L 136.586931 37.047385 
L 138.639513 39.769506 
L 140.692094 37.18614 
L 142.744676 39.606573 
L 144.797257 37.316627 
L 146.849839 39.463959 
L 148.90242 37.437152 
L 150.955002 39.338425 
L 153.007584 37.547115 
L 155.060165 39.227563 
L 157.112747 37.64657 
L 159.165328 39.129495 
L 161.21791 37.735945 
L 163.270491 39.042695 
L 165.323073 37.815874 
L 167.375655 38.965878 
L 169.428236 37.887087 
L 171.480818 38.897938 
L 173.533399 37.950342 
L 175.585981 38.8379 
L 177.638562 38.00639 
L 179.691144 38.784898 
L 181.743726 38.055949 
L 183.796307 38.738159 
L 185.848889 38.099691 
L 187.90147 38.696987 
L 189.954052 38.138239 
" clip-path="url(#p6fb99576a3)" style="fill: none; stroke: #482475; stroke-width: 1.5; stroke-linecap: round"/>
   </g>
   <g id="line2d_10">
    <path d="M 60.641413 90.844674 
L 62.693995 69.644301 
L 64.746576 53.437186 
L 66.799158 42.906566 
L 68.851739 37.473212 
L 70.904321 35.736487 
L 72.956903 36.119142 
L 75.009484 37.342183 
L 77.062066 38.607805 
L 79.114647 39.549815 
L 81.167229 40.087373 
L 83.21981 40.282041 
L 85.272392 40.240327 
L 87.324974 40.062741 
L 89.377555 39.824997 
L 91.430137 39.576307 
L 93.482718 39.34454 
L 95.5353 39.142753 
L 97.587881 38.974786 
L 99.640463 38.839349 
L 101.693044 38.732686 
L 103.745626 38.650192 
L 105.798208 38.587293 
L 107.850789 38.539885 
L 109.903371 38.504487 
L 111.955952 38.478265 
L 114.008534 38.45897 
L 116.061115 38.444851 
L 118.113697 38.434572 
L 120.166279 38.42712 
L 122.21886 38.421739 
L 124.271442 38.417865 
L 126.324023 38.415086 
L 128.376605 38.413096 
L 130.429186 38.411676 
L 132.481768 38.410664 
L 134.53435 38.409945 
L 136.586931 38.409435 
L 138.639513 38.409073 
L 140.692094 38.408817 
L 142.744676 38.408637 
L 144.797257 38.408509 
L 146.849839 38.40842 
L 148.90242 38.408357 
L 150.955002 38.408312 
L 153.007584 38.408281 
L 155.060165 38.408259 
L 157.112747 38.408244 
L 159.165328 38.408233 
L 161.21791 38.408226 
L 163.270491 38.40822 
L 165.323073 38.408217 
L 167.375655 38.408214 
L 169.428236 38.408212 
L 171.480818 38.408211 
L 173.533399 38.40821 
L 175.585981 38.40821 
L 177.638562 38.408209 
L 179.691144 38.408209 
L 181.743726 38.408209 
L 183.796307 38.408209 
L 185.848889 38.408209 
L 187.90147 38.408208 
L 189.954052 38.408208 
" clip-path="url(#p6fb99576a3)" style="fill: none; stroke: #355f8d; stroke-width: 1.5; stroke-linecap: round"/>
   </g>
   <g id="line2d_11">
    <path d="M 60.641413 74.618666 
L 62.693995 62.465258 
L 64.746576 52.98613 
L 66.799158 44.585114 
L 68.851739 37.995301 
L 70.904321 33.672505 
L 72.956903 31.362342 
L 75.009484 30.585163 
L 77.062066 30.835908 
L 79.114647 31.664685 
L 81.167229 32.73058 
L 83.21981 33.814088 
L 85.272392 34.796738 
L 87.324974 35.629596 
L 89.377555 36.304954 
L 91.430137 36.836079 
L 93.482718 37.244653 
L 95.5353 37.553833 
L 97.587881 37.784885 
L 99.640463 37.95587 
L 101.693044 38.081419 
L 103.745626 38.173023 
L 105.798208 38.239509 
L 107.850789 38.28755 
L 109.903371 38.322132 
L 111.955952 38.346943 
L 114.008534 38.364693 
L 116.061115 38.377358 
L 118.113697 38.386375 
L 120.166279 38.39278 
L 122.21886 38.397322 
L 124.271442 38.400538 
L 126.324023 38.40281 
L 128.376605 38.404414 
L 130.429186 38.405544 
L 132.481768 38.406339 
L 134.53435 38.406898 
L 136.586931 38.407291 
L 138.639513 38.407567 
L 140.692094 38.40776 
L 142.744676 38.407895 
L 144.797257 38.40799 
L 146.849839 38.408056 
L 148.90242 38.408102 
L 150.955002 38.408134 
L 153.007584 38.408157 
L 155.060165 38.408172 
L 157.112747 38.408183 
L 159.165328 38.408191 
L 161.21791 38.408196 
L 163.270491 38.4082 
L 165.323073 38.408203 
L 167.375655 38.408204 
L 169.428236 38.408206 
L 171.480818 38.408206 
L 173.533399 38.408207 
L 175.585981 38.408207 
L 177.638562 38.408208 
L 179.691144 38.408208 
L 181.743726 38.408208 
L 183.796307 38.408208 
L 185.848889 38.408208 
L 187.90147 38.408208 
L 189.954052 38.408208 
" clip-path="url(#p6fb99576a3)" style="fill: none; stroke: #21918c; stroke-width: 1.5; stroke-linecap: round"/>
   </g>
   <g id="line2d_12">
    <path d="M 60.641413 61.773311 
L 62.693995 52.387407 
L 64.746576 47.784945 
L 66.799158 44.579814 
L 68.851739 40.923078 
L 70.904321 37.834908 
L 72.956903 35.895274 
L 75.009484 34.87041 
L 77.062066 34.459683 
L 79.114647 34.482314 
L 81.167229 34.791084 
L 83.21981 35.248933 
L 85.272392 35.751513 
L 87.324974 36.235213 
L 89.377555 36.667953 
L 91.430137 37.037337 
L 93.482718 37.342327 
L 95.5353 37.588038 
L 97.587881 37.78238 
L 99.640463 37.933952 
L 101.693044 38.050878 
L 103.745626 38.140284 
L 105.798208 38.208157 
L 107.850789 38.259374 
L 109.903371 38.297828 
L 111.955952 38.326576 
L 114.008534 38.347987 
L 116.061115 38.363882 
L 118.113697 38.375647 
L 120.166279 38.384334 
L 122.21886 38.390733 
L 124.271442 38.395437 
L 126.324023 38.398888 
L 128.376605 38.401415 
L 130.429186 38.403263 
L 132.481768 38.404613 
L 134.53435 38.405597 
L 136.586931 38.406314 
L 138.639513 38.406835 
L 140.692094 38.407214 
L 142.744676 38.407489 
L 144.797257 38.407688 
L 146.849839 38.407832 
L 148.90242 38.407937 
L 150.955002 38.408012 
L 153.007584 38.408067 
L 155.060165 38.408107 
L 157.112747 38.408135 
L 159.165328 38.408156 
L 161.21791 38.40817 
L 163.270491 38.408181 
L 165.323073 38.408189 
L 167.375655 38.408194 
L 169.428236 38.408198 
L 171.480818 38.408201 
L 173.533399 38.408203 
L 175.585981 38.408205 
L 177.638562 38.408206 
L 179.691144 38.408206 
L 181.743726 38.408207 
L 183.796307 38.408207 
L 185.848889 38.408208 
L 187.90147 38.408208 
L 189.954052 38.408208 
" clip-path="url(#p6fb99576a3)" style="fill: none; stroke: #44bf70; stroke-width: 1.5; stroke-linecap: round"/>
   </g>
   <g id="line2d_13">
    <path d="M 60.641413 53.913518 
L 62.693995 47.036787 
L 64.746576 43.428805 
L 66.799158 42.572488 
L 68.851739 41.183182 
L 70.904321 39.277837 
L 72.956903 37.902923 
L 75.009484 37.199634 
L 77.062066 36.857073 
L 79.114647 36.704503 
L 81.167229 36.708798 
L 83.21981 36.835874 
L 85.272392 37.028425 
L 87.324974 37.238096 
L 89.377555 37.438856 
L 91.430137 37.61989 
L 93.482718 37.776994 
L 95.5353 37.909103 
L 97.587881 38.017406 
L 99.640463 38.104569 
L 101.693044 38.173809 
L 103.745626 38.228263 
L 105.798208 38.270724 
L 107.850789 38.303592 
L 109.903371 38.328881 
L 111.955952 38.348243 
L 114.008534 38.363003 
L 116.061115 38.374214 
L 118.113697 38.382702 
L 120.166279 38.389108 
L 122.21886 38.393932 
L 124.271442 38.397555 
L 126.324023 38.400271 
L 128.376605 38.402303 
L 130.429186 38.40382 
L 132.481768 38.404952 
L 134.53435 38.405794 
L 136.586931 38.406421 
L 138.639513 38.406886 
L 140.692094 38.407231 
L 142.744676 38.407487 
L 144.797257 38.407676 
L 146.849839 38.407816 
L 148.90242 38.407919 
L 150.955002 38.407996 
L 153.007584 38.408052 
L 155.060165 38.408093 
L 157.112747 38.408124 
L 159.165328 38.408146 
L 161.21791 38.408163 
L 163.270491 38.408175 
L 165.323073 38.408184 
L 167.375655 38.40819 
L 169.428236 38.408195 
L 171.480818 38.408199 
L 173.533399 38.408201 
L 175.585981 38.408203 
L 177.638562 38.408205 
L 179.691144 38.408206 
L 181.743726 38.408206 
L 183.796307 38.408207 
L 185.848889 38.408207 
L 187.90147 38.408208 
L 189.954052 38.408208 
" clip-path="url(#p6fb99576a3)" style="fill: none; stroke: #bddf26; stroke-width: 1.5; stroke-linecap: round"/>
   </g>
   <g id="patch_3">
    <path d="M 54.175781 166.363434 
L 54.175781 24.119531 
" style="fill: none; stroke: #cccccc; stroke-linejoin: miter; stroke-linecap: square"/>
   </g>
   <g id="patch_4">
    <path d="M 196.419684 166.363434 
L 196.419684 24.119531 
" style="fill: none; stroke: #cccccc; stroke-linejoin: miter; stroke-linecap: square"/>
   </g>
   <g id="patch_5">
    <path d="M 54.175781 166.363434 
L 196.419684 166.363434 
" style="fill: none; stroke: #cccccc; stroke-linejoin: miter; stroke-linecap: square"/>
   </g>
   <g id="patch_6">
    <path d="M 54.175781 24.119531 
L 196.419684 24.119531 
" style="fill: none; stroke: #cccccc; stroke-linejoin: miter; stroke-linecap: square"/>
   </g>
   <g id="text_11">
    <!-- La Grange -->
    <g style="fill: #262626" transform="translate(89.859061 18.119531)scale(0.15 -0.15)">
     <defs>
      <path id="ArialMT-4c" d="M 469 0 
L 469 4581 
L 1075 4581 
L 1075 541 
L 3331 541 
L 3331 0 
L 469 0 
z
" transform="scale(0.015625)"/>
      <path id="ArialMT-47" d="M 2638 1797 
L 2638 2334 
L 4578 2338 
L 4578 638 
Q 4131 281 3656 101 
Q 3181 -78 2681 -78 
Q 2006 -78 1454 211 
Q 903 500 622 1047 
Q 341 1594 341 2269 
Q 341 2938 620 3517 
Q 900 4097 1425 4378 
Q 1950 4659 2634 4659 
Q 3131 4659 3532 4498 
Q 3934 4338 4162 4050 
Q 4391 3763 4509 3300 
L 3963 3150 
Q 3859 3500 3706 3700 
Q 3553 3900 3268 4020 
Q 2984 4141 2638 4141 
Q 2222 4141 1919 4014 
Q 1616 3888 1430 3681 
Q 1244 3475 1141 3228 
Q 966 2803 966 2306 
Q 966 1694 1177 1281 
Q 1388 869 1791 669 
Q 2194 469 2647 469 
Q 3041 469 3416 620 
Q 3791 772 3984 944 
L 3984 1797 
L 2638 1797 
z
" transform="scale(0.015625)"/>
      <path id="ArialMT-67" d="M 319 -275 
L 866 -356 
Q 900 -609 1056 -725 
Q 1266 -881 1628 -881 
Q 2019 -881 2231 -725 
Q 2444 -569 2519 -288 
Q 2563 -116 2559 434 
Q 2191 0 1641 0 
Q 956 0 581 494 
Q 206 988 206 1678 
Q 206 2153 378 2554 
Q 550 2956 876 3175 
Q 1203 3394 1644 3394 
Q 2231 3394 2613 2919 
L 2613 3319 
L 3131 3319 
L 3131 450 
Q 3131 -325 2973 -648 
Q 2816 -972 2473 -1159 
Q 2131 -1347 1631 -1347 
Q 1038 -1347 672 -1080 
Q 306 -813 319 -275 
z
M 784 1719 
Q 784 1066 1043 766 
Q 1303 466 1694 466 
Q 2081 466 2343 764 
Q 2606 1063 2606 1700 
Q 2606 2309 2336 2618 
Q 2066 2928 1684 2928 
Q 1309 2928 1046 2623 
Q 784 2319 784 1719 
z
" transform="scale(0.015625)"/>
     </defs>
     <use xlink:href="#ArialMT-4c"/>
     <use xlink:href="#ArialMT-61" x="55.615234"/>
     <use xlink:href="#ArialMT-20" x="111.230469"/>
     <use xlink:href="#ArialMT-47" x="139.013672"/>
     <use xlink:href="#ArialMT-72" x="216.796875"/>
     <use xlink:href="#ArialMT-61" x="250.097656"/>
     <use xlink:href="#ArialMT-6e" x="305.712891"/>
     <use xlink:href="#ArialMT-67" x="361.328125"/>
     <use xlink:href="#ArialMT-65" x="416.943359"/>
    </g>
   </g>
  </g>
  <g id="axes_2">
   <g id="patch_7">
    <path d="M 203.531879 166.363434 
L 345.775781 166.363434 
L 345.775781 24.119531 
L 203.531879 24.119531 
z
" style="fill: #ffffff"/>
   </g>
   <g id="matplotlib.axis_3">
    <g id="xtick_4">
     <g id="line2d_14">
      <path d="M 230.523326 166.363434 
L 230.523326 24.119531 
" clip-path="url(#pb41ba5dca8)" style="fill: none; stroke: #cccccc; stroke-linecap: round"/>
     </g>
     <g id="text_12">
      <!-- 20 -->
      <g style="fill: #262626" transform="translate(224.406295 177.737027)scale(0.11 -0.11)">
       <use xlink:href="#ArialMT-32"/>
       <use xlink:href="#ArialMT-30" x="55.615234"/>
      </g>
     </g>
    </g>
    <g id="xtick_5">
     <g id="line2d_15">
      <path d="M 271.574958 166.363434 
L 271.574958 24.119531 
" clip-path="url(#pb41ba5dca8)" style="fill: none; stroke: #cccccc; stroke-linecap: round"/>
     </g>
     <g id="text_13">
      <!-- 40 -->
      <g style="fill: #262626" transform="translate(265.457926 177.737027)scale(0.11 -0.11)">
       <use xlink:href="#ArialMT-34"/>
       <use xlink:href="#ArialMT-30" x="55.615234"/>
      </g>
     </g>
    </g>
    <g id="xtick_6">
     <g id="line2d_16">
      <path d="M 312.626589 166.363434 
L 312.626589 24.119531 
" clip-path="url(#pb41ba5dca8)" style="fill: none; stroke: #cccccc; stroke-linecap: round"/>
     </g>
     <g id="text_14">
      <!-- 60 -->
      <g style="fill: #262626" transform="translate(306.509558 177.737027)scale(0.11 -0.11)">
       <use xlink:href="#ArialMT-36"/>
       <use xlink:href="#ArialMT-30" x="55.615234"/>
      </g>
     </g>
    </g>
    <g id="text_15">
     <!-- Years -->
     <g style="fill: #262626" transform="translate(255.746799 194.659996)scale(0.15 -0.15)">
      <use xlink:href="#ArialMT-59"/>
      <use xlink:href="#ArialMT-65" x="57.574219"/>
      <use xlink:href="#ArialMT-61" x="113.189453"/>
      <use xlink:href="#ArialMT-72" x="168.804688"/>
      <use xlink:href="#ArialMT-73" x="202.105469"/>
     </g>
    </g>
   </g>
   <g id="matplotlib.axis_4">
    <g id="ytick_6">
     <g id="line2d_17">
      <path d="M 203.531879 152.419337 
L 345.775781 152.419337 
" clip-path="url(#pb41ba5dca8)" style="fill: none; stroke: #cccccc; stroke-linecap: round"/>
     </g>
    </g>
    <g id="ytick_7">
     <g id="line2d_18">
      <path d="M 203.531879 123.916555 
L 345.775781 123.916555 
" clip-path="url(#pb41ba5dca8)" style="fill: none; stroke: #cccccc; stroke-linecap: round"/>
     </g>
    </g>
    <g id="ytick_8">
     <g id="line2d_19">
      <path d="M 203.531879 95.413773 
L 345.775781 95.413773 
" clip-path="url(#pb41ba5dca8)" style="fill: none; stroke: #cccccc; stroke-linecap: round"/>
     </g>
    </g>
    <g id="ytick_9">
     <g id="line2d_20">
      <path d="M 203.531879 66.91099 
L 345.775781 66.91099 
" clip-path="url(#pb41ba5dca8)" style="fill: none; stroke: #cccccc; stroke-linecap: round"/>
     </g>
    </g>
    <g id="ytick_10">
     <g id="line2d_21">
      <path d="M 203.531879 38.408208 
L 345.775781 38.408208 
" clip-path="url(#pb41ba5dca8)" style="fill: none; stroke: #cccccc; stroke-linecap: round"/>
     </g>
    </g>
   </g>
   <g id="line2d_22">
    <path d="M 209.997511 159.897802 
L 212.050092 88.24619 
L 214.102674 118.312738 
L 216.155255 82.202775 
L 218.207837 101.111393 
L 220.260419 76.3243 
L 222.313 88.145706 
L 224.365582 67.929851 
L 226.418163 76.392945 
L 228.470745 59.253649 
L 230.523326 66.518219 
L 232.575908 51.90914 
L 234.62849 58.876017 
L 236.681071 46.365338 
L 238.733653 53.278877 
L 240.786234 42.479692 
L 242.838816 49.31338 
L 244.891397 39.904813 
L 246.943979 46.55165 
L 248.99656 38.28425 
L 251.049142 44.636973 
L 253.101724 37.322972 
L 255.154305 43.301177 
L 257.206887 36.799977 
L 259.259468 42.354301 
L 261.31205 36.558975 
L 263.364631 41.666765 
L 265.417213 36.493551 
L 267.469795 41.152372 
L 269.522376 36.533216 
L 271.574958 40.754731 
L 273.627539 36.63231 
L 275.680121 40.437322 
L 277.732702 36.761852 
L 279.785284 40.17659 
L 281.837866 36.90384 
L 283.890447 39.957302 
L 285.943029 37.047385 
L 287.99561 39.769506 
L 290.048192 37.18614 
L 292.100773 39.606573 
L 294.153355 37.316627 
L 296.205936 39.463959 
L 298.258518 37.437152 
L 300.3111 39.338425 
L 302.363681 37.547115 
L 304.416263 39.227563 
L 306.468844 37.64657 
L 308.521426 39.129495 
L 310.574007 37.735945 
L 312.626589 39.042695 
L 314.679171 37.815874 
L 316.731752 38.965878 
L 318.784334 37.887087 
L 320.836915 38.897938 
L 322.889497 37.950342 
L 324.942078 38.8379 
L 326.99466 38.00639 
L 329.047241 38.784898 
L 331.099823 38.055949 
L 333.152405 38.738159 
L 335.204986 38.099691 
L 337.257568 38.696987 
L 339.310149 38.138239 
" clip-path="url(#pb41ba5dca8)" style="fill: none; stroke: #482475; stroke-width: 1.5; stroke-linecap: round"/>
   </g>
   <g id="line2d_23">
    <path d="M 209.997511 90.844674 
L 212.050092 69.644301 
L 214.102674 53.437186 
L 216.155255 42.906566 
L 218.207837 37.473212 
L 220.260419 35.736487 
L 222.313 36.119142 
L 224.365582 37.342183 
L 226.418163 38.607805 
L 228.470745 39.549815 
L 230.523326 40.087373 
L 232.575908 40.282041 
L 234.62849 40.240327 
L 236.681071 40.062741 
L 238.733653 39.824997 
L 240.786234 39.576307 
L 242.838816 39.34454 
L 244.891397 39.142753 
L 246.943979 38.974786 
L 248.99656 38.839349 
L 251.049142 38.732686 
L 253.101724 38.650192 
L 255.154305 38.587293 
L 257.206887 38.539885 
L 259.259468 38.504487 
L 261.31205 38.478265 
L 263.364631 38.45897 
L 265.417213 38.444851 
L 267.469795 38.434572 
L 269.522376 38.42712 
L 271.574958 38.421739 
L 273.627539 38.417865 
L 275.680121 38.415086 
L 277.732702 38.413096 
L 279.785284 38.411676 
L 281.837866 38.410664 
L 283.890447 38.409945 
L 285.943029 38.409435 
L 287.99561 38.409073 
L 290.048192 38.408817 
L 292.100773 38.408637 
L 294.153355 38.408509 
L 296.205936 38.40842 
L 298.258518 38.408357 
L 300.3111 38.408312 
L 302.363681 38.408281 
L 304.416263 38.408259 
L 306.468844 38.408244 
L 308.521426 38.408233 
L 310.574007 38.408226 
L 312.626589 38.40822 
L 314.679171 38.408217 
L 316.731752 38.408214 
L 318.784334 38.408212 
L 320.836915 38.408211 
L 322.889497 38.40821 
L 324.942078 38.40821 
L 326.99466 38.408209 
L 329.047241 38.408209 
L 331.099823 38.408209 
L 333.152405 38.408209 
L 335.204986 38.408209 
L 337.257568 38.408208 
L 339.310149 38.408208 
" clip-path="url(#pb41ba5dca8)" style="fill: none; stroke: #355f8d; stroke-width: 1.5; stroke-linecap: round"/>
   </g>
   <g id="line2d_24">
    <path d="M 209.997511 74.618666 
L 212.050092 62.465258 
L 214.102674 52.98613 
L 216.155255 44.585114 
L 218.207837 37.995301 
L 220.260419 33.672505 
L 222.313 31.362342 
L 224.365582 30.585163 
L 226.418163 30.835908 
L 228.470745 31.664685 
L 230.523326 32.73058 
L 232.575908 33.814088 
L 234.62849 34.796738 
L 236.681071 35.629596 
L 238.733653 36.304954 
L 240.786234 36.836079 
L 242.838816 37.244653 
L 244.891397 37.553833 
L 246.943979 37.784885 
L 248.99656 37.95587 
L 251.049142 38.081419 
L 253.101724 38.173023 
L 255.154305 38.239509 
L 257.206887 38.28755 
L 259.259468 38.322132 
L 261.31205 38.346943 
L 263.364631 38.364693 
L 265.417213 38.377358 
L 267.469795 38.386375 
L 269.522376 38.39278 
L 271.574958 38.397322 
L 273.627539 38.400538 
L 275.680121 38.40281 
L 277.732702 38.404414 
L 279.785284 38.405544 
L 281.837866 38.406339 
L 283.890447 38.406898 
L 285.943029 38.407291 
L 287.99561 38.407567 
L 290.048192 38.40776 
L 292.100773 38.407895 
L 294.153355 38.40799 
L 296.205936 38.408056 
L 298.258518 38.408102 
L 300.3111 38.408134 
L 302.363681 38.408157 
L 304.416263 38.408172 
L 306.468844 38.408183 
L 308.521426 38.408191 
L 310.574007 38.408196 
L 312.626589 38.4082 
L 314.679171 38.408203 
L 316.731752 38.408204 
L 318.784334 38.408206 
L 320.836915 38.408206 
L 322.889497 38.408207 
L 324.942078 38.408207 
L 326.99466 38.408208 
L 329.047241 38.408208 
L 331.099823 38.408208 
L 333.152405 38.408208 
L 335.204986 38.408208 
L 337.257568 38.408208 
L 339.310149 38.408208 
" clip-path="url(#pb41ba5dca8)" style="fill: none; stroke: #21918c; stroke-width: 1.5; stroke-linecap: round"/>
   </g>
   <g id="line2d_25">
    <path d="M 209.997511 61.773311 
L 212.050092 52.387407 
L 214.102674 47.784945 
L 216.155255 44.579814 
L 218.207837 40.923078 
L 220.260419 37.834908 
L 222.313 35.895274 
L 224.365582 34.87041 
L 226.418163 34.459683 
L 228.470745 34.482314 
L 230.523326 34.791084 
L 232.575908 35.248933 
L 234.62849 35.751513 
L 236.681071 36.235213 
L 238.733653 36.667953 
L 240.786234 37.037337 
L 242.838816 37.342327 
L 244.891397 37.588038 
L 246.943979 37.78238 
L 248.99656 37.933952 
L 251.049142 38.050878 
L 253.101724 38.140284 
L 255.154305 38.208157 
L 257.206887 38.259374 
L 259.259468 38.297828 
L 261.31205 38.326576 
L 263.364631 38.347987 
L 265.417213 38.363882 
L 267.469795 38.375647 
L 269.522376 38.384334 
L 271.574958 38.390733 
L 273.627539 38.395437 
L 275.680121 38.398888 
L 277.732702 38.401415 
L 279.785284 38.403263 
L 281.837866 38.404613 
L 283.890447 38.405597 
L 285.943029 38.406314 
L 287.99561 38.406835 
L 290.048192 38.407214 
L 292.100773 38.407489 
L 294.153355 38.407688 
L 296.205936 38.407832 
L 298.258518 38.407937 
L 300.3111 38.408012 
L 302.363681 38.408067 
L 304.416263 38.408107 
L 306.468844 38.408135 
L 308.521426 38.408156 
L 310.574007 38.40817 
L 312.626589 38.408181 
L 314.679171 38.408189 
L 316.731752 38.408194 
L 318.784334 38.408198 
L 320.836915 38.408201 
L 322.889497 38.408203 
L 324.942078 38.408205 
L 326.99466 38.408206 
L 329.047241 38.408206 
L 331.099823 38.408207 
L 333.152405 38.408207 
L 335.204986 38.408208 
L 337.257568 38.408208 
L 339.310149 38.408208 
" clip-path="url(#pb41ba5dca8)" style="fill: none; stroke: #44bf70; stroke-width: 1.5; stroke-linecap: round"/>
   </g>
   <g id="line2d_26">
    <path d="M 209.997511 53.913518 
L 212.050092 47.036787 
L 214.102674 43.428805 
L 216.155255 42.572488 
L 218.207837 41.183182 
L 220.260419 39.277837 
L 222.313 37.902923 
L 224.365582 37.199634 
L 226.418163 36.857073 
L 228.470745 36.704503 
L 230.523326 36.708798 
L 232.575908 36.835874 
L 234.62849 37.028425 
L 236.681071 37.238096 
L 238.733653 37.438856 
L 240.786234 37.61989 
L 242.838816 37.776994 
L 244.891397 37.909103 
L 246.943979 38.017406 
L 248.99656 38.104569 
L 251.049142 38.173809 
L 253.101724 38.228263 
L 255.154305 38.270724 
L 257.206887 38.303592 
L 259.259468 38.328881 
L 261.31205 38.348243 
L 263.364631 38.363003 
L 265.417213 38.374214 
L 267.469795 38.382702 
L 269.522376 38.389108 
L 271.574958 38.393932 
L 273.627539 38.397555 
L 275.680121 38.400271 
L 277.732702 38.402303 
L 279.785284 38.40382 
L 281.837866 38.404952 
L 283.890447 38.405794 
L 285.943029 38.406421 
L 287.99561 38.406886 
L 290.048192 38.407231 
L 292.100773 38.407487 
L 294.153355 38.407676 
L 296.205936 38.407816 
L 298.258518 38.407919 
L 300.3111 38.407996 
L 302.363681 38.408052 
L 304.416263 38.408093 
L 306.468844 38.408124 
L 308.521426 38.408146 
L 310.574007 38.408163 
L 312.626589 38.408175 
L 314.679171 38.408184 
L 316.731752 38.40819 
L 318.784334 38.408195 
L 320.836915 38.408199 
L 322.889497 38.408201 
L 324.942078 38.408203 
L 326.99466 38.408205 
L 329.047241 38.408206 
L 331.099823 38.408206 
L 333.152405 38.408207 
L 335.204986 38.408207 
L 337.257568 38.408208 
L 339.310149 38.408208 
" clip-path="url(#pb41ba5dca8)" style="fill: none; stroke: #bddf26; stroke-width: 1.5; stroke-linecap: round"/>
   </g>
   <g id="patch_8">
    <path d="M 203.531879 166.363434 
L 203.531879 24.119531 
" style="fill: none; stroke: #cccccc; stroke-linejoin: miter; stroke-linecap: square"/>
   </g>
   <g id="patch_9">
    <path d="M 345.775781 166.363434 
L 345.775781 24.119531 
" style="fill: none; stroke: #cccccc; stroke-linejoin: miter; stroke-linecap: square"/>
   </g>
   <g id="patch_10">
    <path d="M 203.531879 166.363434 
L 345.775781 166.363434 
" style="fill: none; stroke: #cccccc; stroke-linejoin: miter; stroke-linecap: square"/>
   </g>
   <g id="patch_11">
    <path d="M 203.531879 24.119531 
L 345.775781 24.119531 
" style="fill: none; stroke: #cccccc; stroke-linejoin: miter; stroke-linecap: square"/>
   </g>
   <g id="text_16">
    <!-- Peoria -->
    <g style="fill: #262626" transform="translate(252.975314 18.119531)scale(0.15 -0.15)">
     <defs>
      <path id="ArialMT-50" d="M 494 0 
L 494 4581 
L 2222 4581 
Q 2678 4581 2919 4538 
Q 3256 4481 3484 4323 
Q 3713 4166 3852 3881 
Q 3991 3597 3991 3256 
Q 3991 2672 3619 2267 
Q 3247 1863 2275 1863 
L 1100 1863 
L 1100 0 
L 494 0 
z
M 1100 2403 
L 2284 2403 
Q 2872 2403 3119 2622 
Q 3366 2841 3366 3238 
Q 3366 3525 3220 3729 
Q 3075 3934 2838 4000 
Q 2684 4041 2272 4041 
L 1100 4041 
L 1100 2403 
z
" transform="scale(0.015625)"/>
     </defs>
     <use xlink:href="#ArialMT-50"/>
     <use xlink:href="#ArialMT-65" x="66.699219"/>
     <use xlink:href="#ArialMT-6f" x="122.314453"/>
     <use xlink:href="#ArialMT-72" x="177.929688"/>
     <use xlink:href="#ArialMT-69" x="211.230469"/>
     <use xlink:href="#ArialMT-61" x="233.447266"/>
    </g>
   </g>
  </g>
  <g id="legend_1">
   <g id="patch_12">
    <path d="M 357.334687 151.600232 
L 426.175781 151.600232 
Q 428.375781 151.600232 428.375781 149.400232 
L 428.375781 55.441014 
Q 428.375781 53.241014 426.175781 53.241014 
L 357.334687 53.241014 
Q 355.134687 53.241014 355.134687 55.441014 
L 355.134687 149.400232 
Q 355.134687 151.600232 357.334687 151.600232 
z
" style="fill: #ffffff; opacity: 0.8; stroke: #cccccc; stroke-linejoin: miter"/>
   </g>
   <g id="text_17">
    <!-- $\beta_e$ -->
    <g style="fill: #262626" transform="translate(385.155234 66.881014)scale(0.12 -0.12)">
     <defs>
      <path id="DejaVuSans-Oblique-3b2" d="M 872 216 
L 572 -1331 
L -6 -1331 
L 928 3478 
Q 1206 4903 2538 4903 
Q 3888 4903 3659 3700 
Q 3503 2844 2894 2531 
Q 3713 2250 3553 1416 
Q 3272 -69 1759 -66 
Q 1097 -63 872 216 
z
M 1019 966 
Q 1259 422 1875 425 
Q 2775 425 2966 1406 
Q 3138 2288 1675 2219 
L 1778 2750 
Q 2909 2731 3106 3750 
Q 3241 4438 2509 4434 
Q 1691 4434 1503 3459 
L 1019 966 
z
" transform="scale(0.015625)"/>
      <path id="DejaVuSans-Oblique-65" d="M 3078 2063 
Q 3088 2113 3092 2166 
Q 3097 2219 3097 2272 
Q 3097 2653 2873 2875 
Q 2650 3097 2266 3097 
Q 1838 3097 1509 2826 
Q 1181 2556 1013 2059 
L 3078 2063 
z
M 3578 1613 
L 903 1613 
Q 884 1494 878 1425 
Q 872 1356 872 1306 
Q 872 872 1139 634 
Q 1406 397 1894 397 
Q 2269 397 2603 481 
Q 2938 566 3225 728 
L 3116 159 
Q 2806 34 2476 -28 
Q 2147 -91 1806 -91 
Q 1078 -91 686 257 
Q 294 606 294 1247 
Q 294 1794 489 2264 
Q 684 2734 1063 3103 
Q 1306 3334 1642 3459 
Q 1978 3584 2356 3584 
Q 2950 3584 3301 3228 
Q 3653 2872 3653 2272 
Q 3653 2128 3634 1964 
Q 3616 1800 3578 1613 
z
" transform="scale(0.015625)"/>
     </defs>
     <use xlink:href="#DejaVuSans-Oblique-3b2" transform="translate(0 0.390625)"/>
     <use xlink:href="#DejaVuSans-Oblique-65" transform="translate(63.818359 -16.015625)scale(0.7)"/>
    </g>
   </g>
   <g id="line2d_27">
    <path d="M 359.534687 78.924607 
L 370.534687 78.924607 
L 381.534687 78.924607 
" style="fill: none; stroke: #482475; stroke-width: 1.5; stroke-linecap: round"/>
   </g>
   <g id="text_18">
    <!-- 0.0005 -->
    <g style="fill: #262626" transform="translate(390.334687 82.774607)scale(0.11 -0.11)">
     <defs>
      <path id="ArialMT-2e" d="M 581 0 
L 581 641 
L 1222 641 
L 1222 0 
L 581 0 
z
" transform="scale(0.015625)"/>
     </defs>
     <use xlink:href="#ArialMT-30"/>
     <use xlink:href="#ArialMT-2e" x="55.615234"/>
     <use xlink:href="#ArialMT-30" x="83.398438"/>
     <use xlink:href="#ArialMT-30" x="139.013672"/>
     <use xlink:href="#ArialMT-30" x="194.628906"/>
     <use xlink:href="#ArialMT-35" x="250.244141"/>
    </g>
   </g>
   <g id="line2d_28">
    <path d="M 359.534687 94.484451 
L 370.534687 94.484451 
L 381.534687 94.484451 
" style="fill: none; stroke: #355f8d; stroke-width: 1.5; stroke-linecap: round"/>
   </g>
   <g id="text_19">
    <!-- 0.001 -->
    <g style="fill: #262626" transform="translate(390.334687 98.334451)scale(0.11 -0.11)">
     <use xlink:href="#ArialMT-30"/>
     <use xlink:href="#ArialMT-2e" x="55.615234"/>
     <use xlink:href="#ArialMT-30" x="83.398438"/>
     <use xlink:href="#ArialMT-30" x="139.013672"/>
     <use xlink:href="#ArialMT-31" x="194.628906"/>
    </g>
   </g>
   <g id="line2d_29">
    <path d="M 359.534687 110.044295 
L 370.534687 110.044295 
L 381.534687 110.044295 
" style="fill: none; stroke: #21918c; stroke-width: 1.5; stroke-linecap: round"/>
   </g>
   <g id="text_20">
    <!-- 0.0015 -->
    <g style="fill: #262626" transform="translate(390.334687 113.894295)scale(0.11 -0.11)">
     <use xlink:href="#ArialMT-30"/>
     <use xlink:href="#ArialMT-2e" x="55.615234"/>
     <use xlink:href="#ArialMT-30" x="83.398438"/>
     <use xlink:href="#ArialMT-30" x="139.013672"/>
     <use xlink:href="#ArialMT-31" x="194.628906"/>
     <use xlink:href="#ArialMT-35" x="250.244141"/>
    </g>
   </g>
   <g id="line2d_30">
    <path d="M 359.534687 125.604139 
L 370.534687 125.604139 
L 381.534687 125.604139 
" style="fill: none; stroke: #44bf70; stroke-width: 1.5; stroke-linecap: round"/>
   </g>
   <g id="text_21">
    <!-- 0.002 -->
    <g style="fill: #262626" transform="translate(390.334687 129.454139)scale(0.11 -0.11)">
     <use xlink:href="#ArialMT-30"/>
     <use xlink:href="#ArialMT-2e" x="55.615234"/>
     <use xlink:href="#ArialMT-30" x="83.398438"/>
     <use xlink:href="#ArialMT-30" x="139.013672"/>
     <use xlink:href="#ArialMT-32" x="194.628906"/>
    </g>
   </g>
   <g id="line2d_31">
    <path d="M 359.534687 141.163982 
L 370.534687 141.163982 
L 381.534687 141.163982 
" style="fill: none; stroke: #bddf26; stroke-width: 1.5; stroke-linecap: round"/>
   </g>
   <g id="text_22">
    <!-- 0.0025 -->
    <g style="fill: #262626" transform="translate(390.334687 145.013982)scale(0.11 -0.11)">
     <use xlink:href="#ArialMT-30"/>
     <use xlink:href="#ArialMT-2e" x="55.615234"/>
     <use xlink:href="#ArialMT-30" x="83.398438"/>
     <use xlink:href="#ArialMT-30" x="139.013672"/>
     <use xlink:href="#ArialMT-32" x="194.628906"/>
     <use xlink:href="#ArialMT-35" x="250.244141"/>
    </g>
   </g>
  </g>
 </g>
 <defs>
  <clipPath id="p6fb99576a3">
   <rect x="54.175781" y="24.119531" width="142.243902" height="142.243902"/>
  </clipPath>
  <clipPath id="pb41ba5dca8">
   <rect x="203.531879" y="24.119531" width="142.243902" height="142.243902"/>
  </clipPath>
 </defs>
</svg>
