<?xml version="1.0" encoding="utf-8" standalone="no"?>
<!DOCTYPE svg PUBLIC "-//W3C//DTD SVG 1.1//EN"
  "http://www.w3.org/Graphics/SVG/1.1/DTD/svg11.dtd">
<svg xmlns:xlink="http://www.w3.org/1999/xlink" width="421.641719pt" height="204.841246pt" viewBox="0 0 421.641719 204.841246" xmlns="http://www.w3.org/2000/svg" version="1.1">
 <metadata>
  <rdf:RDF xmlns:dc="http://purl.org/dc/elements/1.1/" xmlns:cc="http://creativecommons.org/ns#" xmlns:rdf="http://www.w3.org/1999/02/22-rdf-syntax-ns#">
   <cc:Work>
    <dc:type rdf:resource="http://purl.org/dc/dcmitype/StillImage"/>
    <dc:date>2022-10-12T15:01:53.496561</dc:date>
    <dc:format>image/svg+xml</dc:format>
    <dc:creator>
     <cc:Agent>
      <dc:title>Matplotlib v3.5.1, https://matplotlib.org/</dc:title>
     </cc:Agent>
    </dc:creator>
   </cc:Work>
  </rdf:RDF>
 </metadata>
 <defs>
  <style type="text/css">*{stroke-linejoin: round; stroke-linecap: butt}</style>
 </defs>
 <g id="figure_1">
  <g id="patch_1">
   <path d="M 0 204.841246 
L 421.641719 204.841246 
L 421.641719 0 
L 0 0 
z
" style="fill: #ffffff"/>
  </g>
  <g id="axes_1">
   <g id="patch_2">
    <path d="M 41.941719 166.363434 
L 184.185621 166.363434 
L 184.185621 24.119531 
L 41.941719 24.119531 
z
" style="fill: #ffffff"/>
   </g>
   <g id="matplotlib.axis_1">
    <g id="xtick_1">
     <g id="line2d_1">
      <path d="M 48.407351 166.363434 
L 48.407351 24.119531 
" clip-path="url(#p881440f53e)" style="fill: none; stroke: #cccccc; stroke-linecap: round"/>
     </g>
     <g id="text_1">
      <!-- 0 -->
      <g style="fill: #262626" transform="translate(45.348835 177.737027)scale(0.11 -0.11)">
       <defs>
        <path id="ArialMT-30" d="M 266 2259 
Q 266 3072 433 3567 
Q 600 4063 929 4331 
Q 1259 4600 1759 4600 
Q 2128 4600 2406 4451 
Q 2684 4303 2865 4023 
Q 3047 3744 3150 3342 
Q 3253 2941 3253 2259 
Q 3253 1453 3087 958 
Q 2922 463 2592 192 
Q 2263 -78 1759 -78 
Q 1097 -78 719 397 
Q 266 969 266 2259 
z
M 844 2259 
Q 844 1131 1108 757 
Q 1372 384 1759 384 
Q 2147 384 2411 759 
Q 2675 1134 2675 2259 
Q 2675 3391 2411 3762 
Q 2147 4134 1753 4134 
Q 1366 4134 1134 3806 
Q 844 3388 844 2259 
z
" transform="scale(0.015625)"/>
       </defs>
       <use xlink:href="#ArialMT-30"/>
      </g>
     </g>
    </g>
    <g id="xtick_2">
     <g id="line2d_2">
      <path d="M 92.692501 166.363434 
L 92.692501 24.119531 
" clip-path="url(#p881440f53e)" style="fill: none; stroke: #cccccc; stroke-linecap: round"/>
     </g>
     <g id="text_2">
      <!-- 25 -->
      <g style="fill: #262626" transform="translate(86.57547 177.737027)scale(0.11 -0.11)">
       <defs>
        <path id="ArialMT-32" d="M 3222 541 
L 3222 0 
L 194 0 
Q 188 203 259 391 
Q 375 700 629 1000 
Q 884 1300 1366 1694 
Q 2113 2306 2375 2664 
Q 2638 3022 2638 3341 
Q 2638 3675 2398 3904 
Q 2159 4134 1775 4134 
Q 1369 4134 1125 3890 
Q 881 3647 878 3216 
L 300 3275 
Q 359 3922 746 4261 
Q 1134 4600 1788 4600 
Q 2447 4600 2831 4234 
Q 3216 3869 3216 3328 
Q 3216 3053 3103 2787 
Q 2991 2522 2730 2228 
Q 2469 1934 1863 1422 
Q 1356 997 1212 845 
Q 1069 694 975 541 
L 3222 541 
z
" transform="scale(0.015625)"/>
        <path id="ArialMT-35" d="M 266 1200 
L 856 1250 
Q 922 819 1161 601 
Q 1400 384 1738 384 
Q 2144 384 2425 690 
Q 2706 997 2706 1503 
Q 2706 1984 2436 2262 
Q 2166 2541 1728 2541 
Q 1456 2541 1237 2417 
Q 1019 2294 894 2097 
L 366 2166 
L 809 4519 
L 3088 4519 
L 3088 3981 
L 1259 3981 
L 1013 2750 
Q 1425 3038 1878 3038 
Q 2478 3038 2890 2622 
Q 3303 2206 3303 1553 
Q 3303 931 2941 478 
Q 2500 -78 1738 -78 
Q 1113 -78 717 272 
Q 322 622 266 1200 
z
" transform="scale(0.015625)"/>
       </defs>
       <use xlink:href="#ArialMT-32"/>
       <use xlink:href="#ArialMT-35" x="55.615234"/>
      </g>
     </g>
    </g>
    <g id="xtick_3">
     <g id="line2d_3">
      <path d="M 136.977651 166.363434 
L 136.977651 24.119531 
" clip-path="url(#p881440f53e)" style="fill: none; stroke: #cccccc; stroke-linecap: round"/>
     </g>
     <g id="text_3">
      <!-- 50 -->
      <g style="fill: #262626" transform="translate(130.86062 177.737027)scale(0.11 -0.11)">
       <use xlink:href="#ArialMT-35"/>
       <use xlink:href="#ArialMT-30" x="55.615234"/>
      </g>
     </g>
    </g>
    <g id="xtick_4">
     <g id="line2d_4">
      <path d="M 181.262801 166.363434 
L 181.262801 24.119531 
" clip-path="url(#p881440f53e)" style="fill: none; stroke: #cccccc; stroke-linecap: round"/>
     </g>
     <g id="text_4">
      <!-- 75 -->
      <g style="fill: #262626" transform="translate(175.14577 177.737027)scale(0.11 -0.11)">
       <defs>
        <path id="ArialMT-37" d="M 303 3981 
L 303 4522 
L 3269 4522 
L 3269 4084 
Q 2831 3619 2401 2847 
Q 1972 2075 1738 1259 
Q 1569 684 1522 0 
L 944 0 
Q 953 541 1156 1306 
Q 1359 2072 1739 2783 
Q 2119 3494 2547 3981 
L 303 3981 
z
" transform="scale(0.015625)"/>
       </defs>
       <use xlink:href="#ArialMT-37"/>
       <use xlink:href="#ArialMT-35" x="55.615234"/>
      </g>
     </g>
    </g>
    <g id="text_5">
     <!-- Years -->
     <g style="fill: #262626" transform="translate(94.156639 194.659996)scale(0.15 -0.15)">
      <defs>
       <path id="ArialMT-59" d="M 1784 0 
L 1784 1941 
L 19 4581 
L 756 4581 
L 1659 3200 
Q 1909 2813 2125 2425 
Q 2331 2784 2625 3234 
L 3513 4581 
L 4219 4581 
L 2391 1941 
L 2391 0 
L 1784 0 
z
" transform="scale(0.015625)"/>
       <path id="ArialMT-65" d="M 2694 1069 
L 3275 997 
Q 3138 488 2766 206 
Q 2394 -75 1816 -75 
Q 1088 -75 661 373 
Q 234 822 234 1631 
Q 234 2469 665 2931 
Q 1097 3394 1784 3394 
Q 2450 3394 2872 2941 
Q 3294 2488 3294 1666 
Q 3294 1616 3291 1516 
L 816 1516 
Q 847 969 1125 678 
Q 1403 388 1819 388 
Q 2128 388 2347 550 
Q 2566 713 2694 1069 
z
M 847 1978 
L 2700 1978 
Q 2663 2397 2488 2606 
Q 2219 2931 1791 2931 
Q 1403 2931 1139 2672 
Q 875 2413 847 1978 
z
" transform="scale(0.015625)"/>
       <path id="ArialMT-61" d="M 2588 409 
Q 2275 144 1986 34 
Q 1697 -75 1366 -75 
Q 819 -75 525 192 
Q 231 459 231 875 
Q 231 1119 342 1320 
Q 453 1522 633 1644 
Q 813 1766 1038 1828 
Q 1203 1872 1538 1913 
Q 2219 1994 2541 2106 
Q 2544 2222 2544 2253 
Q 2544 2597 2384 2738 
Q 2169 2928 1744 2928 
Q 1347 2928 1158 2789 
Q 969 2650 878 2297 
L 328 2372 
Q 403 2725 575 2942 
Q 747 3159 1072 3276 
Q 1397 3394 1825 3394 
Q 2250 3394 2515 3294 
Q 2781 3194 2906 3042 
Q 3031 2891 3081 2659 
Q 3109 2516 3109 2141 
L 3109 1391 
Q 3109 606 3145 398 
Q 3181 191 3288 0 
L 2700 0 
Q 2613 175 2588 409 
z
M 2541 1666 
Q 2234 1541 1622 1453 
Q 1275 1403 1131 1340 
Q 988 1278 909 1158 
Q 831 1038 831 891 
Q 831 666 1001 516 
Q 1172 366 1500 366 
Q 1825 366 2078 508 
Q 2331 650 2450 897 
Q 2541 1088 2541 1459 
L 2541 1666 
z
" transform="scale(0.015625)"/>
       <path id="ArialMT-72" d="M 416 0 
L 416 3319 
L 922 3319 
L 922 2816 
Q 1116 3169 1280 3281 
Q 1444 3394 1641 3394 
Q 1925 3394 2219 3213 
L 2025 2691 
Q 1819 2813 1613 2813 
Q 1428 2813 1281 2702 
Q 1134 2591 1072 2394 
Q 978 2094 978 1738 
L 978 0 
L 416 0 
z
" transform="scale(0.015625)"/>
       <path id="ArialMT-73" d="M 197 991 
L 753 1078 
Q 800 744 1014 566 
Q 1228 388 1613 388 
Q 2000 388 2187 545 
Q 2375 703 2375 916 
Q 2375 1106 2209 1216 
Q 2094 1291 1634 1406 
Q 1016 1563 777 1677 
Q 538 1791 414 1992 
Q 291 2194 291 2438 
Q 291 2659 392 2848 
Q 494 3038 669 3163 
Q 800 3259 1026 3326 
Q 1253 3394 1513 3394 
Q 1903 3394 2198 3281 
Q 2494 3169 2634 2976 
Q 2775 2784 2828 2463 
L 2278 2388 
Q 2241 2644 2061 2787 
Q 1881 2931 1553 2931 
Q 1166 2931 1000 2803 
Q 834 2675 834 2503 
Q 834 2394 903 2306 
Q 972 2216 1119 2156 
Q 1203 2125 1616 2013 
Q 2213 1853 2448 1751 
Q 2684 1650 2818 1456 
Q 2953 1263 2953 975 
Q 2953 694 2789 445 
Q 2625 197 2315 61 
Q 2006 -75 1616 -75 
Q 969 -75 630 194 
Q 291 463 197 991 
z
" transform="scale(0.015625)"/>
      </defs>
      <use xlink:href="#ArialMT-59"/>
      <use xlink:href="#ArialMT-65" x="57.574219"/>
      <use xlink:href="#ArialMT-61" x="113.189453"/>
      <use xlink:href="#ArialMT-72" x="168.804688"/>
      <use xlink:href="#ArialMT-73" x="202.105469"/>
     </g>
    </g>
   </g>
   <g id="matplotlib.axis_2">
    <g id="ytick_1">
     <g id="line2d_5">
      <path d="M 41.941719 160.130301 
L 184.185621 160.130301 
" clip-path="url(#p881440f53e)" style="fill: none; stroke: #cccccc; stroke-linecap: round"/>
     </g>
     <g id="text_6">
      <!-- −8 -->
      <g style="fill: #262626" transform="translate(25.9 164.067098)scale(0.11 -0.11)">
       <defs>
        <path id="ArialMT-2212" d="M 3381 1997 
L 356 1997 
L 356 2522 
L 3381 2522 
L 3381 1997 
z
" transform="scale(0.015625)"/>
        <path id="ArialMT-38" d="M 1131 2484 
Q 781 2613 612 2850 
Q 444 3088 444 3419 
Q 444 3919 803 4259 
Q 1163 4600 1759 4600 
Q 2359 4600 2725 4251 
Q 3091 3903 3091 3403 
Q 3091 3084 2923 2848 
Q 2756 2613 2416 2484 
Q 2838 2347 3058 2040 
Q 3278 1734 3278 1309 
Q 3278 722 2862 322 
Q 2447 -78 1769 -78 
Q 1091 -78 675 323 
Q 259 725 259 1325 
Q 259 1772 486 2073 
Q 713 2375 1131 2484 
z
M 1019 3438 
Q 1019 3113 1228 2906 
Q 1438 2700 1772 2700 
Q 2097 2700 2305 2904 
Q 2513 3109 2513 3406 
Q 2513 3716 2298 3927 
Q 2084 4138 1766 4138 
Q 1444 4138 1231 3931 
Q 1019 3725 1019 3438 
z
M 838 1322 
Q 838 1081 952 856 
Q 1066 631 1291 507 
Q 1516 384 1775 384 
Q 2178 384 2440 643 
Q 2703 903 2703 1303 
Q 2703 1709 2433 1975 
Q 2163 2241 1756 2241 
Q 1359 2241 1098 1978 
Q 838 1716 838 1322 
z
" transform="scale(0.015625)"/>
       </defs>
       <use xlink:href="#ArialMT-2212"/>
       <use xlink:href="#ArialMT-38" x="58.398438"/>
      </g>
     </g>
    </g>
    <g id="ytick_2">
     <g id="line2d_6">
      <path d="M 41.941719 127.744602 
L 184.185621 127.744602 
" clip-path="url(#p881440f53e)" style="fill: none; stroke: #cccccc; stroke-linecap: round"/>
     </g>
     <g id="text_7">
      <!-- −6 -->
      <g style="fill: #262626" transform="translate(25.9 131.681399)scale(0.11 -0.11)">
       <defs>
        <path id="ArialMT-36" d="M 3184 3459 
L 2625 3416 
Q 2550 3747 2413 3897 
Q 2184 4138 1850 4138 
Q 1581 4138 1378 3988 
Q 1113 3794 959 3422 
Q 806 3050 800 2363 
Q 1003 2672 1297 2822 
Q 1591 2972 1913 2972 
Q 2475 2972 2870 2558 
Q 3266 2144 3266 1488 
Q 3266 1056 3080 686 
Q 2894 316 2569 119 
Q 2244 -78 1831 -78 
Q 1128 -78 684 439 
Q 241 956 241 2144 
Q 241 3472 731 4075 
Q 1159 4600 1884 4600 
Q 2425 4600 2770 4297 
Q 3116 3994 3184 3459 
z
M 888 1484 
Q 888 1194 1011 928 
Q 1134 663 1356 523 
Q 1578 384 1822 384 
Q 2178 384 2434 671 
Q 2691 959 2691 1453 
Q 2691 1928 2437 2201 
Q 2184 2475 1800 2475 
Q 1419 2475 1153 2201 
Q 888 1928 888 1484 
z
" transform="scale(0.015625)"/>
       </defs>
       <use xlink:href="#ArialMT-2212"/>
       <use xlink:href="#ArialMT-36" x="58.398438"/>
      </g>
     </g>
    </g>
    <g id="ytick_3">
     <g id="line2d_7">
      <path d="M 41.941719 95.358903 
L 184.185621 95.358903 
" clip-path="url(#p881440f53e)" style="fill: none; stroke: #cccccc; stroke-linecap: round"/>
     </g>
     <g id="text_8">
      <!-- −4 -->
      <g style="fill: #262626" transform="translate(25.9 99.2957)scale(0.11 -0.11)">
       <defs>
        <path id="ArialMT-34" d="M 2069 0 
L 2069 1097 
L 81 1097 
L 81 1613 
L 2172 4581 
L 2631 4581 
L 2631 1613 
L 3250 1613 
L 3250 1097 
L 2631 1097 
L 2631 0 
L 2069 0 
z
M 2069 1613 
L 2069 3678 
L 634 1613 
L 2069 1613 
z
" transform="scale(0.015625)"/>
       </defs>
       <use xlink:href="#ArialMT-2212"/>
       <use xlink:href="#ArialMT-34" x="58.398438"/>
      </g>
     </g>
    </g>
    <g id="ytick_4">
     <g id="line2d_8">
      <path d="M 41.941719 62.973203 
L 184.185621 62.973203 
" clip-path="url(#p881440f53e)" style="fill: none; stroke: #cccccc; stroke-linecap: round"/>
     </g>
     <g id="text_9">
      <!-- −2 -->
      <g style="fill: #262626" transform="translate(25.9 66.91)scale(0.11 -0.11)">
       <use xlink:href="#ArialMT-2212"/>
       <use xlink:href="#ArialMT-32" x="58.398438"/>
      </g>
     </g>
    </g>
    <g id="ytick_5">
     <g id="line2d_9">
      <path d="M 41.941719 30.587504 
L 184.185621 30.587504 
" clip-path="url(#p881440f53e)" style="fill: none; stroke: #cccccc; stroke-linecap: round"/>
     </g>
     <g id="text_10">
      <!-- 0 -->
      <g style="fill: #262626" transform="translate(32.324688 34.524301)scale(0.11 -0.11)">
       <use xlink:href="#ArialMT-30"/>
      </g>
     </g>
    </g>
    <g id="text_11">
     <!-- Sensitivity of $\lambda$ -->
     <g style="fill: #262626" transform="translate(18.6 143.916482)rotate(-90)scale(0.15 -0.15)">
      <defs>
       <path id="ArialMT-53" d="M 288 1472 
L 859 1522 
Q 900 1178 1048 958 
Q 1197 738 1509 602 
Q 1822 466 2213 466 
Q 2559 466 2825 569 
Q 3091 672 3220 851 
Q 3350 1031 3350 1244 
Q 3350 1459 3225 1620 
Q 3100 1781 2813 1891 
Q 2628 1963 1997 2114 
Q 1366 2266 1113 2400 
Q 784 2572 623 2826 
Q 463 3081 463 3397 
Q 463 3744 659 4045 
Q 856 4347 1234 4503 
Q 1613 4659 2075 4659 
Q 2584 4659 2973 4495 
Q 3363 4331 3572 4012 
Q 3781 3694 3797 3291 
L 3216 3247 
Q 3169 3681 2898 3903 
Q 2628 4125 2100 4125 
Q 1550 4125 1298 3923 
Q 1047 3722 1047 3438 
Q 1047 3191 1225 3031 
Q 1400 2872 2139 2705 
Q 2878 2538 3153 2413 
Q 3553 2228 3743 1945 
Q 3934 1663 3934 1294 
Q 3934 928 3725 604 
Q 3516 281 3123 101 
Q 2731 -78 2241 -78 
Q 1619 -78 1198 103 
Q 778 284 539 648 
Q 300 1013 288 1472 
z
" transform="scale(0.015625)"/>
       <path id="ArialMT-6e" d="M 422 0 
L 422 3319 
L 928 3319 
L 928 2847 
Q 1294 3394 1984 3394 
Q 2284 3394 2536 3286 
Q 2788 3178 2913 3003 
Q 3038 2828 3088 2588 
Q 3119 2431 3119 2041 
L 3119 0 
L 2556 0 
L 2556 2019 
Q 2556 2363 2490 2533 
Q 2425 2703 2258 2804 
Q 2091 2906 1866 2906 
Q 1506 2906 1245 2678 
Q 984 2450 984 1813 
L 984 0 
L 422 0 
z
" transform="scale(0.015625)"/>
       <path id="ArialMT-69" d="M 425 3934 
L 425 4581 
L 988 4581 
L 988 3934 
L 425 3934 
z
M 425 0 
L 425 3319 
L 988 3319 
L 988 0 
L 425 0 
z
" transform="scale(0.015625)"/>
       <path id="ArialMT-74" d="M 1650 503 
L 1731 6 
Q 1494 -44 1306 -44 
Q 1000 -44 831 53 
Q 663 150 594 308 
Q 525 466 525 972 
L 525 2881 
L 113 2881 
L 113 3319 
L 525 3319 
L 525 4141 
L 1084 4478 
L 1084 3319 
L 1650 3319 
L 1650 2881 
L 1084 2881 
L 1084 941 
Q 1084 700 1114 631 
Q 1144 563 1211 522 
Q 1278 481 1403 481 
Q 1497 481 1650 503 
z
" transform="scale(0.015625)"/>
       <path id="ArialMT-76" d="M 1344 0 
L 81 3319 
L 675 3319 
L 1388 1331 
Q 1503 1009 1600 663 
Q 1675 925 1809 1294 
L 2547 3319 
L 3125 3319 
L 1869 0 
L 1344 0 
z
" transform="scale(0.015625)"/>
       <path id="ArialMT-79" d="M 397 -1278 
L 334 -750 
Q 519 -800 656 -800 
Q 844 -800 956 -737 
Q 1069 -675 1141 -563 
Q 1194 -478 1313 -144 
Q 1328 -97 1363 -6 
L 103 3319 
L 709 3319 
L 1400 1397 
Q 1534 1031 1641 628 
Q 1738 1016 1872 1384 
L 2581 3319 
L 3144 3319 
L 1881 -56 
Q 1678 -603 1566 -809 
Q 1416 -1088 1222 -1217 
Q 1028 -1347 759 -1347 
Q 597 -1347 397 -1278 
z
" transform="scale(0.015625)"/>
       <path id="ArialMT-20" transform="scale(0.015625)"/>
       <path id="ArialMT-6f" d="M 213 1659 
Q 213 2581 725 3025 
Q 1153 3394 1769 3394 
Q 2453 3394 2887 2945 
Q 3322 2497 3322 1706 
Q 3322 1066 3130 698 
Q 2938 331 2570 128 
Q 2203 -75 1769 -75 
Q 1072 -75 642 372 
Q 213 819 213 1659 
z
M 791 1659 
Q 791 1022 1069 705 
Q 1347 388 1769 388 
Q 2188 388 2466 706 
Q 2744 1025 2744 1678 
Q 2744 2294 2464 2611 
Q 2184 2928 1769 2928 
Q 1347 2928 1069 2612 
Q 791 2297 791 1659 
z
" transform="scale(0.015625)"/>
       <path id="ArialMT-66" d="M 556 0 
L 556 2881 
L 59 2881 
L 59 3319 
L 556 3319 
L 556 3672 
Q 556 4006 616 4169 
Q 697 4388 901 4523 
Q 1106 4659 1475 4659 
Q 1713 4659 2000 4603 
L 1916 4113 
Q 1741 4144 1584 4144 
Q 1328 4144 1222 4034 
Q 1116 3925 1116 3625 
L 1116 3319 
L 1763 3319 
L 1763 2881 
L 1116 2881 
L 1116 0 
L 556 0 
z
" transform="scale(0.015625)"/>
       <path id="DejaVuSans-Oblique-3bb" d="M 2350 4316 
L 3125 0 
L 2516 0 
L 2038 2588 
L 328 0 
L -281 0 
L 1903 3356 
L 1794 3975 
Q 1725 4369 1391 4369 
L 1091 4369 
L 1184 4863 
L 1550 4856 
Q 2253 4847 2350 4316 
z
" transform="scale(0.015625)"/>
      </defs>
      <use xlink:href="#ArialMT-53" transform="translate(0 0.015625)"/>
      <use xlink:href="#ArialMT-65" transform="translate(66.699219 0.015625)"/>
      <use xlink:href="#ArialMT-6e" transform="translate(122.314453 0.015625)"/>
      <use xlink:href="#ArialMT-73" transform="translate(177.929688 0.015625)"/>
      <use xlink:href="#ArialMT-69" transform="translate(227.929688 0.015625)"/>
      <use xlink:href="#ArialMT-74" transform="translate(250.146484 0.015625)"/>
      <use xlink:href="#ArialMT-69" transform="translate(277.929688 0.015625)"/>
      <use xlink:href="#ArialMT-76" transform="translate(300.146484 0.015625)"/>
      <use xlink:href="#ArialMT-69" transform="translate(350.146484 0.015625)"/>
      <use xlink:href="#ArialMT-74" transform="translate(372.363281 0.015625)"/>
      <use xlink:href="#ArialMT-79" transform="translate(400.146484 0.015625)"/>
      <use xlink:href="#ArialMT-20" transform="translate(450.146484 0.015625)"/>
      <use xlink:href="#ArialMT-6f" transform="translate(477.929688 0.015625)"/>
      <use xlink:href="#ArialMT-66" transform="translate(533.544922 0.015625)"/>
      <use xlink:href="#ArialMT-20" transform="translate(561.328125 0.015625)"/>
      <use xlink:href="#DejaVuSans-Oblique-3bb" transform="translate(589.111328 0.015625)"/>
     </g>
    </g>
    <g id="text_12">
     <!-- 1e10 -->
     <g style="fill: #262626" transform="translate(41.941719 21.119531)scale(0.11 -0.11)">
      <defs>
       <path id="ArialMT-31" d="M 2384 0 
L 1822 0 
L 1822 3584 
Q 1619 3391 1289 3197 
Q 959 3003 697 2906 
L 697 3450 
Q 1169 3672 1522 3987 
Q 1875 4303 2022 4600 
L 2384 4600 
L 2384 0 
z
" transform="scale(0.015625)"/>
      </defs>
      <use xlink:href="#ArialMT-31"/>
      <use xlink:href="#ArialMT-65" x="55.615234"/>
      <use xlink:href="#ArialMT-31" x="111.230469"/>
      <use xlink:href="#ArialMT-30" x="166.845703"/>
     </g>
    </g>
   </g>
   <g id="line2d_10">
    <path d="M 48.407351 30.652782 
L 50.178757 30.874151 
L 51.950163 31.054329 
L 53.721569 31.525332 
L 55.492975 31.335378 
L 57.264381 31.486895 
L 59.035787 31.952585 
L 60.807193 32.288332 
L 62.578599 32.642032 
L 64.350005 33.224561 
L 66.121411 33.961123 
L 67.892817 34.832507 
L 69.664223 35.942811 
L 71.435629 37.360739 
L 73.207035 39.13047 
L 74.978441 41.337734 
L 76.749847 44.093716 
L 78.521253 47.513463 
L 80.292659 51.726452 
L 82.064065 56.878781 
L 83.835471 63.118294 
L 85.606877 70.577219 
L 87.378283 79.348748 
L 89.149689 89.44892 
L 90.921095 100.764901 
L 92.692501 112.995271 
L 94.463907 125.592309 
L 96.235313 137.727206 
L 98.006719 148.30988 
L 99.778125 156.09626 
L 101.549531 159.897802 
L 103.320937 158.865039 
L 105.092343 152.760689 
L 106.863749 142.104557 
L 108.635155 128.102028 
L 110.406561 112.361999 
L 112.177967 96.513389 
L 113.949373 81.870726 
L 115.720779 69.255316 
L 117.492185 58.99013 
L 119.263591 51.014279 
L 121.034997 45.039272 
L 122.806403 40.686968 
L 124.577809 37.582364 
L 126.349215 35.401232 
L 128.120621 33.885387 
L 129.892027 32.839858 
L 131.663433 32.122498 
L 133.434839 31.632075 
L 135.206245 31.297627 
L 136.977651 31.069931 
L 138.749057 30.915091 
L 140.520463 30.809879 
L 142.291869 30.738425 
L 144.063275 30.689916 
L 145.834681 30.656992 
L 147.606087 30.634649 
L 149.377493 30.619489 
L 151.148899 30.609203 
L 152.920305 30.602225 
L 154.691711 30.597491 
L 156.463117 30.594279 
L 158.234523 30.5921 
L 160.005929 30.590622 
L 161.777335 30.589619 
L 163.548741 30.588939 
L 165.320147 30.588478 
L 167.091553 30.588165 
L 168.862959 30.587952 
L 170.634365 30.587808 
L 172.405771 30.58771 
L 174.177177 30.587644 
L 175.948583 30.587599 
L 177.719989 30.587569 
" clip-path="url(#p881440f53e)" style="fill: none; stroke: #482475; stroke-width: 1.5; stroke-linecap: round"/>
   </g>
   <g id="line2d_11">
    <path d="M 48.407351 30.652754 
L 50.178757 30.873858 
L 51.950163 31.05117 
L 53.721569 31.518533 
L 55.492975 31.327775 
L 57.264381 31.469209 
L 59.035787 31.913428 
L 60.807193 32.225321 
L 62.578599 32.54073 
L 64.350005 33.050458 
L 66.121411 33.672788 
L 67.892817 34.370035 
L 69.664223 35.202844 
L 71.435629 36.185525 
L 73.207035 37.290675 
L 74.978441 38.494739 
L 76.749847 39.757808 
L 78.521253 41.003868 
L 80.292659 42.128563 
L 82.064065 43.010428 
L 83.835471 43.525882 
L 85.606877 43.575702 
L 87.378283 43.114856 
L 89.149689 42.172198 
L 90.921095 40.850172 
L 92.692501 39.302159 
L 94.463907 37.69545 
L 96.235313 36.174618 
L 98.006719 34.838155 
L 99.778125 33.732968 
L 101.549531 32.863058 
L 103.320937 32.204731 
L 105.092343 31.721482 
L 106.863749 31.374798 
L 108.635155 31.130235 
L 110.406561 30.959774 
L 112.177967 30.841964 
L 113.949373 30.761019 
L 115.720779 30.705628 
L 117.492185 30.667829 
L 119.263591 30.642083 
L 121.034997 30.62457 
L 122.806403 30.612668 
L 124.577809 30.604583 
L 126.349215 30.599094 
L 128.120621 30.595368 
L 129.892027 30.59284 
L 131.663433 30.591124 
L 133.434839 30.58996 
L 135.206245 30.58917 
L 136.977651 30.588635 
L 138.749057 30.588271 
L 140.520463 30.588024 
L 142.291869 30.587857 
L 144.063275 30.587744 
L 145.834681 30.587667 
L 147.606087 30.587614 
L 149.377493 30.587579 
L 151.148899 30.587555 
L 152.920305 30.587539 
L 154.691711 30.587528 
L 156.463117 30.58752 
L 158.234523 30.587515 
L 160.005929 30.587512 
L 161.777335 30.587509 
L 163.548741 30.587508 
L 165.320147 30.587507 
L 167.091553 30.587506 
L 168.862959 30.587505 
L 170.634365 30.587505 
L 172.405771 30.587505 
L 174.177177 30.587505 
L 175.948583 30.587505 
L 177.719989 30.587504 
" clip-path="url(#p881440f53e)" style="fill: none; stroke: #355f8d; stroke-width: 1.5; stroke-linecap: round"/>
   </g>
   <g id="line2d_12">
    <path d="M 48.407351 30.652468 
L 50.178757 30.870922 
L 51.950163 31.020863 
L 53.721569 31.451953 
L 55.492975 31.254265 
L 57.264381 31.312565 
L 59.035787 31.583782 
L 60.807193 31.72042 
L 62.578599 31.793759 
L 64.350005 31.894588 
L 66.121411 31.964924 
L 67.892817 31.972108 
L 69.664223 31.924657 
L 71.435629 31.82827 
L 73.207035 31.690487 
L 74.978441 31.526963 
L 76.749847 31.355915 
L 78.521253 31.19306 
L 80.292659 31.049243 
L 82.064065 30.929827 
L 83.835471 30.835524 
L 85.606877 30.763974 
L 87.378283 30.711349 
L 89.149689 30.67354 
L 90.921095 30.64684 
L 92.692501 30.628217 
L 94.463907 30.615339 
L 96.235313 30.606487 
L 98.006719 30.600429 
L 99.778125 30.596293 
L 101.549531 30.593477 
L 103.320937 30.59156 
L 105.092343 30.590258 
L 106.863749 30.589373 
L 108.635155 30.588773 
L 110.406561 30.588365 
L 112.177967 30.588088 
L 113.949373 30.5879 
L 115.720779 30.587773 
L 117.492185 30.587687 
L 119.263591 30.587628 
L 121.034997 30.587588 
L 122.806403 30.587561 
L 124.577809 30.587543 
L 126.349215 30.58753 
L 128.120621 30.587522 
L 129.892027 30.587516 
L 131.663433 30.587512 
L 133.434839 30.58751 
L 135.206245 30.587508 
L 136.977651 30.587507 
L 138.749057 30.587506 
L 140.520463 30.587505 
L 142.291869 30.587505 
L 144.063275 30.587505 
L 145.834681 30.587505 
L 147.606087 30.587505 
L 149.377493 30.587504 
L 151.148899 30.587504 
L 152.920305 30.587504 
L 154.691711 30.587504 
L 156.463117 30.587504 
L 158.234523 30.587504 
L 160.005929 30.587504 
L 161.777335 30.587504 
L 163.548741 30.587504 
L 165.320147 30.587504 
L 167.091553 30.587504 
L 168.862959 30.587504 
L 170.634365 30.587504 
L 172.405771 30.587504 
L 174.177177 30.587504 
L 175.948583 30.587504 
L 177.719989 30.587504 
" clip-path="url(#p881440f53e)" style="fill: none; stroke: #21918c; stroke-width: 1.5; stroke-linecap: round"/>
   </g>
   <g id="line2d_13">
    <path d="M 48.407351 30.648863 
L 50.178757 30.840999 
L 51.950163 30.807189 
L 53.721569 30.997074 
L 55.492975 30.791459 
L 57.264381 30.72056 
L 59.035787 30.67055 
L 60.807193 30.648 
L 62.578599 30.628951 
L 64.350005 30.616024 
L 66.121411 30.606809 
L 67.892817 30.600637 
L 69.664223 30.59642 
L 71.435629 30.593563 
L 73.207035 30.591617 
L 74.978441 30.590296 
L 76.749847 30.589399 
L 78.521253 30.58879 
L 80.292659 30.588376 
L 82.064065 30.588096 
L 83.835471 30.587906 
L 85.606877 30.587777 
L 87.378283 30.587689 
L 89.149689 30.58763 
L 90.921095 30.587589 
L 92.692501 30.587562 
L 94.463907 30.587543 
L 96.235313 30.587531 
L 98.006719 30.587522 
L 99.778125 30.587517 
L 101.549531 30.587513 
L 103.320937 30.58751 
L 105.092343 30.587508 
L 106.863749 30.587507 
L 108.635155 30.587506 
L 110.406561 30.587505 
L 112.177967 30.587505 
L 113.949373 30.587505 
L 115.720779 30.587505 
L 117.492185 30.587505 
L 119.263591 30.587504 
L 121.034997 30.587504 
L 122.806403 30.587504 
L 124.577809 30.587504 
L 126.349215 30.587504 
L 128.120621 30.587504 
L 129.892027 30.587504 
L 131.663433 30.587504 
L 133.434839 30.587504 
L 135.206245 30.587504 
L 136.977651 30.587504 
L 138.749057 30.587504 
L 140.520463 30.587504 
L 142.291869 30.587504 
L 144.063275 30.587504 
L 145.834681 30.587504 
L 147.606087 30.587504 
L 149.377493 30.587504 
L 151.148899 30.587504 
L 152.920305 30.587504 
L 154.691711 30.587504 
L 156.463117 30.587504 
L 158.234523 30.587504 
L 160.005929 30.587504 
L 161.777335 30.587504 
L 163.548741 30.587504 
L 165.320147 30.587504 
L 167.091553 30.587504 
L 168.862959 30.587504 
L 170.634365 30.587504 
L 172.405771 30.587504 
L 174.177177 30.587504 
L 175.948583 30.587504 
L 177.719989 30.587504 
" clip-path="url(#p881440f53e)" style="fill: none; stroke: #44bf70; stroke-width: 1.5; stroke-linecap: round"/>
   </g>
   <g id="line2d_14">
    <path d="M 48.407351 30.603578 
L 50.178757 30.585647 
L 51.950163 30.608604 
L 53.721569 30.601141 
L 55.492975 30.587436 
L 57.264381 30.645968 
L 59.035787 30.590111 
L 60.807193 30.595525 
L 62.578599 30.585163 
L 64.350005 30.588113 
L 66.121411 30.587603 
L 67.892817 30.587812 
L 69.664223 30.587641 
L 71.435629 30.58761 
L 73.207035 30.587568 
L 74.978441 30.58755 
L 76.749847 30.587535 
L 78.521253 30.587525 
L 80.292659 30.587518 
L 82.064065 30.587514 
L 83.835471 30.587511 
L 85.606877 30.587509 
L 87.378283 30.587507 
L 89.149689 30.587506 
L 90.921095 30.587506 
L 92.692501 30.587505 
L 94.463907 30.587505 
L 96.235313 30.587505 
L 98.006719 30.587505 
L 99.778125 30.587504 
L 101.549531 30.587504 
L 103.320937 30.587504 
L 105.092343 30.587504 
L 106.863749 30.587504 
L 108.635155 30.587504 
L 110.406561 30.587504 
L 112.177967 30.587504 
L 113.949373 30.587504 
L 115.720779 30.587504 
L 117.492185 30.587504 
L 119.263591 30.587504 
L 121.034997 30.587504 
L 122.806403 30.587504 
L 124.577809 30.587504 
L 126.349215 30.587504 
L 128.120621 30.587504 
L 129.892027 30.587504 
L 131.663433 30.587504 
L 133.434839 30.587504 
L 135.206245 30.587504 
L 136.977651 30.587504 
L 138.749057 30.587504 
L 140.520463 30.587504 
L 142.291869 30.587504 
L 144.063275 30.587504 
L 145.834681 30.587504 
L 147.606087 30.587504 
L 149.377493 30.587504 
L 151.148899 30.587504 
L 152.920305 30.587504 
L 154.691711 30.587504 
L 156.463117 30.587504 
L 158.234523 30.587504 
L 160.005929 30.587504 
L 161.777335 30.587504 
L 163.548741 30.587504 
L 165.320147 30.587504 
L 167.091553 30.587504 
L 168.862959 30.587504 
L 170.634365 30.587504 
L 172.405771 30.587504 
L 174.177177 30.587504 
L 175.948583 30.587504 
L 177.719989 30.587504 
" clip-path="url(#p881440f53e)" style="fill: none; stroke: #bddf26; stroke-width: 1.5; stroke-linecap: round"/>
   </g>
   <g id="patch_3">
    <path d="M 41.941719 166.363434 
L 41.941719 24.119531 
" style="fill: none; stroke: #cccccc; stroke-linejoin: miter; stroke-linecap: square"/>
   </g>
   <g id="patch_4">
    <path d="M 184.185621 166.363434 
L 184.185621 24.119531 
" style="fill: none; stroke: #cccccc; stroke-linejoin: miter; stroke-linecap: square"/>
   </g>
   <g id="patch_5">
    <path d="M 41.941719 166.363434 
L 184.185621 166.363434 
" style="fill: none; stroke: #cccccc; stroke-linejoin: miter; stroke-linecap: square"/>
   </g>
   <g id="patch_6">
    <path d="M 41.941719 24.119531 
L 184.185621 24.119531 
" style="fill: none; stroke: #cccccc; stroke-linejoin: miter; stroke-linecap: square"/>
   </g>
   <g id="text_13">
    <!-- La Grange -->
    <g style="fill: #262626" transform="translate(77.624998 18.119531)scale(0.15 -0.15)">
     <defs>
      <path id="ArialMT-4c" d="M 469 0 
L 469 4581 
L 1075 4581 
L 1075 541 
L 3331 541 
L 3331 0 
L 469 0 
z
" transform="scale(0.015625)"/>
      <path id="ArialMT-47" d="M 2638 1797 
L 2638 2334 
L 4578 2338 
L 4578 638 
Q 4131 281 3656 101 
Q 3181 -78 2681 -78 
Q 2006 -78 1454 211 
Q 903 500 622 1047 
Q 341 1594 341 2269 
Q 341 2938 620 3517 
Q 900 4097 1425 4378 
Q 1950 4659 2634 4659 
Q 3131 4659 3532 4498 
Q 3934 4338 4162 4050 
Q 4391 3763 4509 3300 
L 3963 3150 
Q 3859 3500 3706 3700 
Q 3553 3900 3268 4020 
Q 2984 4141 2638 4141 
Q 2222 4141 1919 4014 
Q 1616 3888 1430 3681 
Q 1244 3475 1141 3228 
Q 966 2803 966 2306 
Q 966 1694 1177 1281 
Q 1388 869 1791 669 
Q 2194 469 2647 469 
Q 3041 469 3416 620 
Q 3791 772 3984 944 
L 3984 1797 
L 2638 1797 
z
" transform="scale(0.015625)"/>
      <path id="ArialMT-67" d="M 319 -275 
L 866 -356 
Q 900 -609 1056 -725 
Q 1266 -881 1628 -881 
Q 2019 -881 2231 -725 
Q 2444 -569 2519 -288 
Q 2563 -116 2559 434 
Q 2191 0 1641 0 
Q 956 0 581 494 
Q 206 988 206 1678 
Q 206 2153 378 2554 
Q 550 2956 876 3175 
Q 1203 3394 1644 3394 
Q 2231 3394 2613 2919 
L 2613 3319 
L 3131 3319 
L 3131 450 
Q 3131 -325 2973 -648 
Q 2816 -972 2473 -1159 
Q 2131 -1347 1631 -1347 
Q 1038 -1347 672 -1080 
Q 306 -813 319 -275 
z
M 784 1719 
Q 784 1066 1043 766 
Q 1303 466 1694 466 
Q 2081 466 2343 764 
Q 2606 1063 2606 1700 
Q 2606 2309 2336 2618 
Q 2066 2928 1684 2928 
Q 1309 2928 1046 2623 
Q 784 2319 784 1719 
z
" transform="scale(0.015625)"/>
     </defs>
     <use xlink:href="#ArialMT-4c"/>
     <use xlink:href="#ArialMT-61" x="55.615234"/>
     <use xlink:href="#ArialMT-20" x="111.230469"/>
     <use xlink:href="#ArialMT-47" x="139.013672"/>
     <use xlink:href="#ArialMT-72" x="216.796875"/>
     <use xlink:href="#ArialMT-61" x="250.097656"/>
     <use xlink:href="#ArialMT-6e" x="305.712891"/>
     <use xlink:href="#ArialMT-67" x="361.328125"/>
     <use xlink:href="#ArialMT-65" x="416.943359"/>
    </g>
   </g>
  </g>
  <g id="axes_2">
   <g id="patch_7">
    <path d="M 191.297816 166.363434 
L 333.541719 166.363434 
L 333.541719 24.119531 
L 191.297816 24.119531 
z
" style="fill: #ffffff"/>
   </g>
   <g id="matplotlib.axis_3">
    <g id="xtick_5">
     <g id="line2d_15">
      <path d="M 197.763448 166.363434 
L 197.763448 24.119531 
" clip-path="url(#pcfa29064c9)" style="fill: none; stroke: #cccccc; stroke-linecap: round"/>
     </g>
     <g id="text_14">
      <!-- 0 -->
      <g style="fill: #262626" transform="translate(194.704933 177.737027)scale(0.11 -0.11)">
       <use xlink:href="#ArialMT-30"/>
      </g>
     </g>
    </g>
    <g id="xtick_6">
     <g id="line2d_16">
      <path d="M 242.048598 166.363434 
L 242.048598 24.119531 
" clip-path="url(#pcfa29064c9)" style="fill: none; stroke: #cccccc; stroke-linecap: round"/>
     </g>
     <g id="text_15">
      <!-- 25 -->
      <g style="fill: #262626" transform="translate(235.931567 177.737027)scale(0.11 -0.11)">
       <use xlink:href="#ArialMT-32"/>
       <use xlink:href="#ArialMT-35" x="55.615234"/>
      </g>
     </g>
    </g>
    <g id="xtick_7">
     <g id="line2d_17">
      <path d="M 286.333749 166.363434 
L 286.333749 24.119531 
" clip-path="url(#pcfa29064c9)" style="fill: none; stroke: #cccccc; stroke-linecap: round"/>
     </g>
     <g id="text_16">
      <!-- 50 -->
      <g style="fill: #262626" transform="translate(280.216717 177.737027)scale(0.11 -0.11)">
       <use xlink:href="#ArialMT-35"/>
       <use xlink:href="#ArialMT-30" x="55.615234"/>
      </g>
     </g>
    </g>
    <g id="xtick_8">
     <g id="line2d_18">
      <path d="M 330.618899 166.363434 
L 330.618899 24.119531 
" clip-path="url(#pcfa29064c9)" style="fill: none; stroke: #cccccc; stroke-linecap: round"/>
     </g>
     <g id="text_17">
      <!-- 75 -->
      <g style="fill: #262626" transform="translate(324.501868 177.737027)scale(0.11 -0.11)">
       <use xlink:href="#ArialMT-37"/>
       <use xlink:href="#ArialMT-35" x="55.615234"/>
      </g>
     </g>
    </g>
    <g id="text_18">
     <!-- Years -->
     <g style="fill: #262626" transform="translate(243.512736 194.659996)scale(0.15 -0.15)">
      <use xlink:href="#ArialMT-59"/>
      <use xlink:href="#ArialMT-65" x="57.574219"/>
      <use xlink:href="#ArialMT-61" x="113.189453"/>
      <use xlink:href="#ArialMT-72" x="168.804688"/>
      <use xlink:href="#ArialMT-73" x="202.105469"/>
     </g>
    </g>
   </g>
   <g id="matplotlib.axis_4">
    <g id="ytick_6">
     <g id="line2d_19">
      <path d="M 191.297816 160.130301 
L 333.541719 160.130301 
" clip-path="url(#pcfa29064c9)" style="fill: none; stroke: #cccccc; stroke-linecap: round"/>
     </g>
    </g>
    <g id="ytick_7">
     <g id="line2d_20">
      <path d="M 191.297816 127.744602 
L 333.541719 127.744602 
" clip-path="url(#pcfa29064c9)" style="fill: none; stroke: #cccccc; stroke-linecap: round"/>
     </g>
    </g>
    <g id="ytick_8">
     <g id="line2d_21">
      <path d="M 191.297816 95.358903 
L 333.541719 95.358903 
" clip-path="url(#pcfa29064c9)" style="fill: none; stroke: #cccccc; stroke-linecap: round"/>
     </g>
    </g>
    <g id="ytick_9">
     <g id="line2d_22">
      <path d="M 191.297816 62.973203 
L 333.541719 62.973203 
" clip-path="url(#pcfa29064c9)" style="fill: none; stroke: #cccccc; stroke-linecap: round"/>
     </g>
    </g>
    <g id="ytick_10">
     <g id="line2d_23">
      <path d="M 191.297816 30.587504 
L 333.541719 30.587504 
" clip-path="url(#pcfa29064c9)" style="fill: none; stroke: #cccccc; stroke-linecap: round"/>
     </g>
    </g>
   </g>
   <g id="line2d_24">
    <path d="M 197.763448 30.652782 
L 199.534854 30.874151 
L 201.30626 31.054329 
L 203.077666 31.525332 
L 204.849072 31.335378 
L 206.620478 31.486895 
L 208.391884 31.952585 
L 210.16329 32.288332 
L 211.934696 32.642032 
L 213.706102 33.224561 
L 215.477508 33.961123 
L 217.248914 34.832507 
L 219.02032 35.942811 
L 220.791726 37.360739 
L 222.563132 39.13047 
L 224.334538 41.337734 
L 226.105944 44.093716 
L 227.87735 47.513463 
L 229.648756 51.726452 
L 231.420162 56.878781 
L 233.191568 63.118294 
L 234.962974 70.577219 
L 236.73438 79.348748 
L 238.505786 89.44892 
L 240.277192 100.764901 
L 242.048598 112.995271 
L 243.820004 125.592309 
L 245.59141 137.727206 
L 247.362816 148.30988 
L 249.134222 156.09626 
L 250.905628 159.897802 
L 252.677034 158.865039 
L 254.44844 152.760689 
L 256.219847 142.104557 
L 257.991253 128.102028 
L 259.762659 112.361999 
L 261.534065 96.513389 
L 263.305471 81.870726 
L 265.076877 69.255316 
L 266.848283 58.99013 
L 268.619689 51.014279 
L 270.391095 45.039272 
L 272.162501 40.686968 
L 273.933907 37.582364 
L 275.705313 35.401232 
L 277.476719 33.885387 
L 279.248125 32.839858 
L 281.019531 32.122498 
L 282.790937 31.632075 
L 284.562343 31.297627 
L 286.333749 31.069931 
L 288.105155 30.915091 
L 289.876561 30.809879 
L 291.647967 30.738425 
L 293.419373 30.689916 
L 295.190779 30.656992 
L 296.962185 30.634649 
L 298.733591 30.619489 
L 300.504997 30.609203 
L 302.276403 30.602225 
L 304.047809 30.597491 
L 305.819215 30.594279 
L 307.590621 30.5921 
L 309.362027 30.590622 
L 311.133433 30.589619 
L 312.904839 30.588939 
L 314.676245 30.588478 
L 316.447651 30.588165 
L 318.219057 30.587952 
L 319.990463 30.587808 
L 321.761869 30.58771 
L 323.533275 30.587644 
L 325.304681 30.587599 
L 327.076087 30.587569 
" clip-path="url(#pcfa29064c9)" style="fill: none; stroke: #482475; stroke-width: 1.5; stroke-linecap: round"/>
   </g>
   <g id="line2d_25">
    <path d="M 197.763448 30.652754 
L 199.534854 30.873858 
L 201.30626 31.05117 
L 203.077666 31.518533 
L 204.849072 31.327775 
L 206.620478 31.469209 
L 208.391884 31.913428 
L 210.16329 32.225321 
L 211.934696 32.54073 
L 213.706102 33.050458 
L 215.477508 33.672788 
L 217.248914 34.370035 
L 219.02032 35.202844 
L 220.791726 36.185525 
L 222.563132 37.290675 
L 224.334538 38.494739 
L 226.105944 39.757808 
L 227.87735 41.003868 
L 229.648756 42.128563 
L 231.420162 43.010428 
L 233.191568 43.525882 
L 234.962974 43.575702 
L 236.73438 43.114856 
L 238.505786 42.172198 
L 240.277192 40.850172 
L 242.048598 39.302159 
L 243.820004 37.69545 
L 245.59141 36.174618 
L 247.362816 34.838155 
L 249.134222 33.732968 
L 250.905628 32.863058 
L 252.677034 32.204731 
L 254.44844 31.721482 
L 256.219847 31.374798 
L 257.991253 31.130235 
L 259.762659 30.959774 
L 261.534065 30.841964 
L 263.305471 30.761019 
L 265.076877 30.705628 
L 266.848283 30.667829 
L 268.619689 30.642083 
L 270.391095 30.62457 
L 272.162501 30.612668 
L 273.933907 30.604583 
L 275.705313 30.599094 
L 277.476719 30.595368 
L 279.248125 30.59284 
L 281.019531 30.591124 
L 282.790937 30.58996 
L 284.562343 30.58917 
L 286.333749 30.588635 
L 288.105155 30.588271 
L 289.876561 30.588024 
L 291.647967 30.587857 
L 293.419373 30.587744 
L 295.190779 30.587667 
L 296.962185 30.587614 
L 298.733591 30.587579 
L 300.504997 30.587555 
L 302.276403 30.587539 
L 304.047809 30.587528 
L 305.819215 30.58752 
L 307.590621 30.587515 
L 309.362027 30.587512 
L 311.133433 30.587509 
L 312.904839 30.587508 
L 314.676245 30.587507 
L 316.447651 30.587506 
L 318.219057 30.587505 
L 319.990463 30.587505 
L 321.761869 30.587505 
L 323.533275 30.587505 
L 325.304681 30.587505 
L 327.076087 30.587504 
" clip-path="url(#pcfa29064c9)" style="fill: none; stroke: #355f8d; stroke-width: 1.5; stroke-linecap: round"/>
   </g>
   <g id="line2d_26">
    <path d="M 197.763448 30.652468 
L 199.534854 30.870922 
L 201.30626 31.020863 
L 203.077666 31.451953 
L 204.849072 31.254265 
L 206.620478 31.312565 
L 208.391884 31.583782 
L 210.16329 31.72042 
L 211.934696 31.793759 
L 213.706102 31.894588 
L 215.477508 31.964924 
L 217.248914 31.972108 
L 219.02032 31.924657 
L 220.791726 31.82827 
L 222.563132 31.690487 
L 224.334538 31.526963 
L 226.105944 31.355915 
L 227.87735 31.19306 
L 229.648756 31.049243 
L 231.420162 30.929827 
L 233.191568 30.835524 
L 234.962974 30.763974 
L 236.73438 30.711349 
L 238.505786 30.67354 
L 240.277192 30.64684 
L 242.048598 30.628217 
L 243.820004 30.615339 
L 245.59141 30.606487 
L 247.362816 30.600429 
L 249.134222 30.596293 
L 250.905628 30.593477 
L 252.677034 30.59156 
L 254.44844 30.590258 
L 256.219847 30.589373 
L 257.991253 30.588773 
L 259.762659 30.588365 
L 261.534065 30.588088 
L 263.305471 30.5879 
L 265.076877 30.587773 
L 266.848283 30.587687 
L 268.619689 30.587628 
L 270.391095 30.587588 
L 272.162501 30.587561 
L 273.933907 30.587543 
L 275.705313 30.58753 
L 277.476719 30.587522 
L 279.248125 30.587516 
L 281.019531 30.587512 
L 282.790937 30.58751 
L 284.562343 30.587508 
L 286.333749 30.587507 
L 288.105155 30.587506 
L 289.876561 30.587505 
L 291.647967 30.587505 
L 293.419373 30.587505 
L 295.190779 30.587505 
L 296.962185 30.587505 
L 298.733591 30.587504 
L 300.504997 30.587504 
L 302.276403 30.587504 
L 304.047809 30.587504 
L 305.819215 30.587504 
L 307.590621 30.587504 
L 309.362027 30.587504 
L 311.133433 30.587504 
L 312.904839 30.587504 
L 314.676245 30.587504 
L 316.447651 30.587504 
L 318.219057 30.587504 
L 319.990463 30.587504 
L 321.761869 30.587504 
L 323.533275 30.587504 
L 325.304681 30.587504 
L 327.076087 30.587504 
" clip-path="url(#pcfa29064c9)" style="fill: none; stroke: #21918c; stroke-width: 1.5; stroke-linecap: round"/>
   </g>
   <g id="line2d_27">
    <path d="M 197.763448 30.648863 
L 199.534854 30.840999 
L 201.30626 30.807189 
L 203.077666 30.997074 
L 204.849072 30.791459 
L 206.620478 30.72056 
L 208.391884 30.67055 
L 210.16329 30.648 
L 211.934696 30.628951 
L 213.706102 30.616024 
L 215.477508 30.606809 
L 217.248914 30.600637 
L 219.02032 30.59642 
L 220.791726 30.593563 
L 222.563132 30.591617 
L 224.334538 30.590296 
L 226.105944 30.589399 
L 227.87735 30.58879 
L 229.648756 30.588376 
L 231.420162 30.588096 
L 233.191568 30.587906 
L 234.962974 30.587777 
L 236.73438 30.587689 
L 238.505786 30.58763 
L 240.277192 30.587589 
L 242.048598 30.587562 
L 243.820004 30.587543 
L 245.59141 30.587531 
L 247.362816 30.587522 
L 249.134222 30.587517 
L 250.905628 30.587513 
L 252.677034 30.58751 
L 254.44844 30.587508 
L 256.219847 30.587507 
L 257.991253 30.587506 
L 259.762659 30.587505 
L 261.534065 30.587505 
L 263.305471 30.587505 
L 265.076877 30.587505 
L 266.848283 30.587505 
L 268.619689 30.587504 
L 270.391095 30.587504 
L 272.162501 30.587504 
L 273.933907 30.587504 
L 275.705313 30.587504 
L 277.476719 30.587504 
L 279.248125 30.587504 
L 281.019531 30.587504 
L 282.790937 30.587504 
L 284.562343 30.587504 
L 286.333749 30.587504 
L 288.105155 30.587504 
L 289.876561 30.587504 
L 291.647967 30.587504 
L 293.419373 30.587504 
L 295.190779 30.587504 
L 296.962185 30.587504 
L 298.733591 30.587504 
L 300.504997 30.587504 
L 302.276403 30.587504 
L 304.047809 30.587504 
L 305.819215 30.587504 
L 307.590621 30.587504 
L 309.362027 30.587504 
L 311.133433 30.587504 
L 312.904839 30.587504 
L 314.676245 30.587504 
L 316.447651 30.587504 
L 318.219057 30.587504 
L 319.990463 30.587504 
L 321.761869 30.587504 
L 323.533275 30.587504 
L 325.304681 30.587504 
L 327.076087 30.587504 
" clip-path="url(#pcfa29064c9)" style="fill: none; stroke: #44bf70; stroke-width: 1.5; stroke-linecap: round"/>
   </g>
   <g id="line2d_28">
    <path d="M 197.763448 30.603578 
L 199.534854 30.585647 
L 201.30626 30.608604 
L 203.077666 30.601141 
L 204.849072 30.587436 
L 206.620478 30.645968 
L 208.391884 30.590111 
L 210.16329 30.595525 
L 211.934696 30.585163 
L 213.706102 30.588113 
L 215.477508 30.587603 
L 217.248914 30.587812 
L 219.02032 30.587641 
L 220.791726 30.58761 
L 222.563132 30.587568 
L 224.334538 30.58755 
L 226.105944 30.587535 
L 227.87735 30.587525 
L 229.648756 30.587518 
L 231.420162 30.587514 
L 233.191568 30.587511 
L 234.962974 30.587509 
L 236.73438 30.587507 
L 238.505786 30.587506 
L 240.277192 30.587506 
L 242.048598 30.587505 
L 243.820004 30.587505 
L 245.59141 30.587505 
L 247.362816 30.587505 
L 249.134222 30.587504 
L 250.905628 30.587504 
L 252.677034 30.587504 
L 254.44844 30.587504 
L 256.219847 30.587504 
L 257.991253 30.587504 
L 259.762659 30.587504 
L 261.534065 30.587504 
L 263.305471 30.587504 
L 265.076877 30.587504 
L 266.848283 30.587504 
L 268.619689 30.587504 
L 270.391095 30.587504 
L 272.162501 30.587504 
L 273.933907 30.587504 
L 275.705313 30.587504 
L 277.476719 30.587504 
L 279.248125 30.587504 
L 281.019531 30.587504 
L 282.790937 30.587504 
L 284.562343 30.587504 
L 286.333749 30.587504 
L 288.105155 30.587504 
L 289.876561 30.587504 
L 291.647967 30.587504 
L 293.419373 30.587504 
L 295.190779 30.587504 
L 296.962185 30.587504 
L 298.733591 30.587504 
L 300.504997 30.587504 
L 302.276403 30.587504 
L 304.047809 30.587504 
L 305.819215 30.587504 
L 307.590621 30.587504 
L 309.362027 30.587504 
L 311.133433 30.587504 
L 312.904839 30.587504 
L 314.676245 30.587504 
L 316.447651 30.587504 
L 318.219057 30.587504 
L 319.990463 30.587504 
L 321.761869 30.587504 
L 323.533275 30.587504 
L 325.304681 30.587504 
L 327.076087 30.587504 
" clip-path="url(#pcfa29064c9)" style="fill: none; stroke: #bddf26; stroke-width: 1.5; stroke-linecap: round"/>
   </g>
   <g id="patch_8">
    <path d="M 191.297816 166.363434 
L 191.297816 24.119531 
" style="fill: none; stroke: #cccccc; stroke-linejoin: miter; stroke-linecap: square"/>
   </g>
   <g id="patch_9">
    <path d="M 333.541719 166.363434 
L 333.541719 24.119531 
" style="fill: none; stroke: #cccccc; stroke-linejoin: miter; stroke-linecap: square"/>
   </g>
   <g id="patch_10">
    <path d="M 191.297816 166.363434 
L 333.541719 166.363434 
" style="fill: none; stroke: #cccccc; stroke-linejoin: miter; stroke-linecap: square"/>
   </g>
   <g id="patch_11">
    <path d="M 191.297816 24.119531 
L 333.541719 24.119531 
" style="fill: none; stroke: #cccccc; stroke-linejoin: miter; stroke-linecap: square"/>
   </g>
   <g id="text_19">
    <!-- Peoria -->
    <g style="fill: #262626" transform="translate(240.741252 18.119531)scale(0.15 -0.15)">
     <defs>
      <path id="ArialMT-50" d="M 494 0 
L 494 4581 
L 2222 4581 
Q 2678 4581 2919 4538 
Q 3256 4481 3484 4323 
Q 3713 4166 3852 3881 
Q 3991 3597 3991 3256 
Q 3991 2672 3619 2267 
Q 3247 1863 2275 1863 
L 1100 1863 
L 1100 0 
L 494 0 
z
M 1100 2403 
L 2284 2403 
Q 2872 2403 3119 2622 
Q 3366 2841 3366 3238 
Q 3366 3525 3220 3729 
Q 3075 3934 2838 4000 
Q 2684 4041 2272 4041 
L 1100 4041 
L 1100 2403 
z
" transform="scale(0.015625)"/>
     </defs>
     <use xlink:href="#ArialMT-50"/>
     <use xlink:href="#ArialMT-65" x="66.699219"/>
     <use xlink:href="#ArialMT-6f" x="122.314453"/>
     <use xlink:href="#ArialMT-72" x="177.929688"/>
     <use xlink:href="#ArialMT-69" x="211.230469"/>
     <use xlink:href="#ArialMT-61" x="233.447266"/>
    </g>
   </g>
  </g>
  <g id="legend_1">
   <g id="patch_12">
    <path d="M 350.610937 151.27492 
L 413.941719 151.27492 
Q 416.141719 151.27492 416.141719 149.07492 
L 416.141719 55.766326 
Q 416.141719 53.566326 413.941719 53.566326 
L 350.610937 53.566326 
Q 348.410937 53.566326 348.410937 55.766326 
L 348.410937 149.07492 
Q 348.410937 151.27492 350.610937 151.27492 
z
" style="fill: #ffffff; opacity: 0.8; stroke: #cccccc; stroke-linejoin: miter"/>
   </g>
   <g id="text_20">
    <!-- $g$ -->
    <g style="fill: #262626" transform="translate(378.436328 66.555701)scale(0.12 -0.12)">
     <defs>
      <path id="DejaVuSans-Oblique-67" d="M 3816 3500 
L 3219 434 
Q 3047 -456 2561 -893 
Q 2075 -1331 1253 -1331 
Q 950 -1331 690 -1286 
Q 431 -1241 206 -1147 
L 313 -588 
Q 525 -725 762 -790 
Q 1000 -856 1269 -856 
Q 1816 -856 2167 -557 
Q 2519 -259 2631 300 
L 2681 563 
Q 2441 288 2122 144 
Q 1803 0 1434 0 
Q 903 0 598 351 
Q 294 703 294 1319 
Q 294 1803 478 2267 
Q 663 2731 997 3091 
Q 1219 3328 1514 3456 
Q 1809 3584 2131 3584 
Q 2484 3584 2746 3420 
Q 3009 3256 3138 2956 
L 3238 3500 
L 3816 3500 
z
M 2950 2216 
Q 2950 2641 2750 2872 
Q 2550 3103 2181 3103 
Q 1953 3103 1747 3012 
Q 1541 2922 1394 2759 
Q 1156 2491 1023 2127 
Q 891 1763 891 1375 
Q 891 944 1092 712 
Q 1294 481 1672 481 
Q 2219 481 2584 976 
Q 2950 1472 2950 2216 
z
" transform="scale(0.015625)"/>
     </defs>
     <use xlink:href="#DejaVuSans-Oblique-67"/>
    </g>
   </g>
   <g id="line2d_29">
    <path d="M 352.810937 78.599295 
L 363.810937 78.599295 
L 374.810937 78.599295 
" style="fill: none; stroke: #482475; stroke-width: 1.5; stroke-linecap: round"/>
   </g>
   <g id="text_21">
    <!-- 1e-12 -->
    <g style="fill: #262626" transform="translate(383.610937 82.449295)scale(0.11 -0.11)">
     <defs>
      <path id="ArialMT-2d" d="M 203 1375 
L 203 1941 
L 1931 1941 
L 1931 1375 
L 203 1375 
z
" transform="scale(0.015625)"/>
     </defs>
     <use xlink:href="#ArialMT-31"/>
     <use xlink:href="#ArialMT-65" x="55.615234"/>
     <use xlink:href="#ArialMT-2d" x="111.230469"/>
     <use xlink:href="#ArialMT-31" x="144.53125"/>
     <use xlink:href="#ArialMT-32" x="200.146484"/>
    </g>
   </g>
   <g id="line2d_30">
    <path d="M 352.810937 94.159139 
L 363.810937 94.159139 
L 374.810937 94.159139 
" style="fill: none; stroke: #355f8d; stroke-width: 1.5; stroke-linecap: round"/>
   </g>
   <g id="text_22">
    <!-- 1e-11 -->
    <g style="fill: #262626" transform="translate(383.610937 98.009139)scale(0.11 -0.11)">
     <use xlink:href="#ArialMT-31"/>
     <use xlink:href="#ArialMT-65" x="55.615234"/>
     <use xlink:href="#ArialMT-2d" x="111.230469"/>
     <use xlink:href="#ArialMT-31" x="144.53125"/>
     <use xlink:href="#ArialMT-31" x="192.771484"/>
    </g>
   </g>
   <g id="line2d_31">
    <path d="M 352.810937 109.718982 
L 363.810937 109.718982 
L 374.810937 109.718982 
" style="fill: none; stroke: #21918c; stroke-width: 1.5; stroke-linecap: round"/>
   </g>
   <g id="text_23">
    <!-- 1e-10 -->
    <g style="fill: #262626" transform="translate(383.610937 113.568982)scale(0.11 -0.11)">
     <use xlink:href="#ArialMT-31"/>
     <use xlink:href="#ArialMT-65" x="55.615234"/>
     <use xlink:href="#ArialMT-2d" x="111.230469"/>
     <use xlink:href="#ArialMT-31" x="144.53125"/>
     <use xlink:href="#ArialMT-30" x="200.146484"/>
    </g>
   </g>
   <g id="line2d_32">
    <path d="M 352.810937 125.278826 
L 363.810937 125.278826 
L 374.810937 125.278826 
" style="fill: none; stroke: #44bf70; stroke-width: 1.5; stroke-linecap: round"/>
   </g>
   <g id="text_24">
    <!-- 1e-09 -->
    <g style="fill: #262626" transform="translate(383.610937 129.128826)scale(0.11 -0.11)">
     <defs>
      <path id="ArialMT-39" d="M 350 1059 
L 891 1109 
Q 959 728 1153 556 
Q 1347 384 1650 384 
Q 1909 384 2104 503 
Q 2300 622 2425 820 
Q 2550 1019 2634 1356 
Q 2719 1694 2719 2044 
Q 2719 2081 2716 2156 
Q 2547 1888 2255 1720 
Q 1963 1553 1622 1553 
Q 1053 1553 659 1965 
Q 266 2378 266 3053 
Q 266 3750 677 4175 
Q 1088 4600 1706 4600 
Q 2153 4600 2523 4359 
Q 2894 4119 3086 3673 
Q 3278 3228 3278 2384 
Q 3278 1506 3087 986 
Q 2897 466 2520 194 
Q 2144 -78 1638 -78 
Q 1100 -78 759 220 
Q 419 519 350 1059 
z
M 2653 3081 
Q 2653 3566 2395 3850 
Q 2138 4134 1775 4134 
Q 1400 4134 1122 3828 
Q 844 3522 844 3034 
Q 844 2597 1108 2323 
Q 1372 2050 1759 2050 
Q 2150 2050 2401 2323 
Q 2653 2597 2653 3081 
z
" transform="scale(0.015625)"/>
     </defs>
     <use xlink:href="#ArialMT-31"/>
     <use xlink:href="#ArialMT-65" x="55.615234"/>
     <use xlink:href="#ArialMT-2d" x="111.230469"/>
     <use xlink:href="#ArialMT-30" x="144.53125"/>
     <use xlink:href="#ArialMT-39" x="200.146484"/>
    </g>
   </g>
   <g id="line2d_33">
    <path d="M 352.810937 140.83867 
L 363.810937 140.83867 
L 374.810937 140.83867 
" style="fill: none; stroke: #bddf26; stroke-width: 1.5; stroke-linecap: round"/>
   </g>
   <g id="text_25">
    <!-- 1e-08 -->
    <g style="fill: #262626" transform="translate(383.610937 144.68867)scale(0.11 -0.11)">
     <use xlink:href="#ArialMT-31"/>
     <use xlink:href="#ArialMT-65" x="55.615234"/>
     <use xlink:href="#ArialMT-2d" x="111.230469"/>
     <use xlink:href="#ArialMT-30" x="144.53125"/>
     <use xlink:href="#ArialMT-38" x="200.146484"/>
    </g>
   </g>
  </g>
 </g>
 <defs>
  <clipPath id="p881440f53e">
   <rect x="41.941719" y="24.119531" width="142.243902" height="142.243902"/>
  </clipPath>
  <clipPath id="pcfa29064c9">
   <rect x="191.297816" y="24.119531" width="142.243902" height="142.243902"/>
  </clipPath>
 </defs>
</svg>
