<?xml version="1.0" encoding="utf-8" standalone="no"?>
<!DOCTYPE svg PUBLIC "-//W3C//DTD SVG 1.1//EN"
  "http://www.w3.org/Graphics/SVG/1.1/DTD/svg11.dtd">
<svg xmlns:xlink="http://www.w3.org/1999/xlink" width="424.39pt" height="204.841246pt" viewBox="0 0 424.39 204.841246" xmlns="http://www.w3.org/2000/svg" version="1.1">
 <metadata>
  <rdf:RDF xmlns:dc="http://purl.org/dc/elements/1.1/" xmlns:cc="http://creativecommons.org/ns#" xmlns:rdf="http://www.w3.org/1999/02/22-rdf-syntax-ns#">
   <cc:Work>
    <dc:type rdf:resource="http://purl.org/dc/dcmitype/StillImage"/>
    <dc:date>2022-10-12T15:01:37.646505</dc:date>
    <dc:format>image/svg+xml</dc:format>
    <dc:creator>
     <cc:Agent>
      <dc:title>Matplotlib v3.5.1, https://matplotlib.org/</dc:title>
     </cc:Agent>
    </dc:creator>
   </cc:Work>
  </rdf:RDF>
 </metadata>
 <defs>
  <style type="text/css">*{stroke-linejoin: round; stroke-linecap: butt}</style>
 </defs>
 <g id="figure_1">
  <g id="patch_1">
   <path d="M 0 204.841246 
L 424.39 204.841246 
L 424.39 0 
L 0 0 
z
" style="fill: #ffffff"/>
  </g>
  <g id="axes_1">
   <g id="patch_2">
    <path d="M 44.69 166.363434 
L 186.933902 166.363434 
L 186.933902 24.119531 
L 44.69 24.119531 
z
" style="fill: #ffffff"/>
   </g>
   <g id="matplotlib.axis_1">
    <g id="xtick_1">
     <g id="line2d_1">
      <path d="M 51.155632 166.363434 
L 51.155632 24.119531 
" clip-path="url(#pbfc10df418)" style="fill: none; stroke: #cccccc; stroke-linecap: round"/>
     </g>
     <g id="text_1">
      <!-- 0 -->
      <g style="fill: #262626" transform="translate(48.097116 177.737027)scale(0.11 -0.11)">
       <defs>
        <path id="ArialMT-30" d="M 266 2259 
Q 266 3072 433 3567 
Q 600 4063 929 4331 
Q 1259 4600 1759 4600 
Q 2128 4600 2406 4451 
Q 2684 4303 2865 4023 
Q 3047 3744 3150 3342 
Q 3253 2941 3253 2259 
Q 3253 1453 3087 958 
Q 2922 463 2592 192 
Q 2263 -78 1759 -78 
Q 1097 -78 719 397 
Q 266 969 266 2259 
z
M 844 2259 
Q 844 1131 1108 757 
Q 1372 384 1759 384 
Q 2147 384 2411 759 
Q 2675 1134 2675 2259 
Q 2675 3391 2411 3762 
Q 2147 4134 1753 4134 
Q 1366 4134 1134 3806 
Q 844 3388 844 2259 
z
" transform="scale(0.015625)"/>
       </defs>
       <use xlink:href="#ArialMT-30"/>
      </g>
     </g>
    </g>
    <g id="xtick_2">
     <g id="line2d_2">
      <path d="M 95.440782 166.363434 
L 95.440782 24.119531 
" clip-path="url(#pbfc10df418)" style="fill: none; stroke: #cccccc; stroke-linecap: round"/>
     </g>
     <g id="text_2">
      <!-- 25 -->
      <g style="fill: #262626" transform="translate(89.323751 177.737027)scale(0.11 -0.11)">
       <defs>
        <path id="ArialMT-32" d="M 3222 541 
L 3222 0 
L 194 0 
Q 188 203 259 391 
Q 375 700 629 1000 
Q 884 1300 1366 1694 
Q 2113 2306 2375 2664 
Q 2638 3022 2638 3341 
Q 2638 3675 2398 3904 
Q 2159 4134 1775 4134 
Q 1369 4134 1125 3890 
Q 881 3647 878 3216 
L 300 3275 
Q 359 3922 746 4261 
Q 1134 4600 1788 4600 
Q 2447 4600 2831 4234 
Q 3216 3869 3216 3328 
Q 3216 3053 3103 2787 
Q 2991 2522 2730 2228 
Q 2469 1934 1863 1422 
Q 1356 997 1212 845 
Q 1069 694 975 541 
L 3222 541 
z
" transform="scale(0.015625)"/>
        <path id="ArialMT-35" d="M 266 1200 
L 856 1250 
Q 922 819 1161 601 
Q 1400 384 1738 384 
Q 2144 384 2425 690 
Q 2706 997 2706 1503 
Q 2706 1984 2436 2262 
Q 2166 2541 1728 2541 
Q 1456 2541 1237 2417 
Q 1019 2294 894 2097 
L 366 2166 
L 809 4519 
L 3088 4519 
L 3088 3981 
L 1259 3981 
L 1013 2750 
Q 1425 3038 1878 3038 
Q 2478 3038 2890 2622 
Q 3303 2206 3303 1553 
Q 3303 931 2941 478 
Q 2500 -78 1738 -78 
Q 1113 -78 717 272 
Q 322 622 266 1200 
z
" transform="scale(0.015625)"/>
       </defs>
       <use xlink:href="#ArialMT-32"/>
       <use xlink:href="#ArialMT-35" x="55.615234"/>
      </g>
     </g>
    </g>
    <g id="xtick_3">
     <g id="line2d_3">
      <path d="M 139.725932 166.363434 
L 139.725932 24.119531 
" clip-path="url(#pbfc10df418)" style="fill: none; stroke: #cccccc; stroke-linecap: round"/>
     </g>
     <g id="text_3">
      <!-- 50 -->
      <g style="fill: #262626" transform="translate(133.608901 177.737027)scale(0.11 -0.11)">
       <use xlink:href="#ArialMT-35"/>
       <use xlink:href="#ArialMT-30" x="55.615234"/>
      </g>
     </g>
    </g>
    <g id="xtick_4">
     <g id="line2d_4">
      <path d="M 184.011083 166.363434 
L 184.011083 24.119531 
" clip-path="url(#pbfc10df418)" style="fill: none; stroke: #cccccc; stroke-linecap: round"/>
     </g>
     <g id="text_4">
      <!-- 75 -->
      <g style="fill: #262626" transform="translate(177.894051 177.737027)scale(0.11 -0.11)">
       <defs>
        <path id="ArialMT-37" d="M 303 3981 
L 303 4522 
L 3269 4522 
L 3269 4084 
Q 2831 3619 2401 2847 
Q 1972 2075 1738 1259 
Q 1569 684 1522 0 
L 944 0 
Q 953 541 1156 1306 
Q 1359 2072 1739 2783 
Q 2119 3494 2547 3981 
L 303 3981 
z
" transform="scale(0.015625)"/>
       </defs>
       <use xlink:href="#ArialMT-37"/>
       <use xlink:href="#ArialMT-35" x="55.615234"/>
      </g>
     </g>
    </g>
    <g id="text_5">
     <!-- Years -->
     <g style="fill: #262626" transform="translate(96.90492 194.659996)scale(0.15 -0.15)">
      <defs>
       <path id="ArialMT-59" d="M 1784 0 
L 1784 1941 
L 19 4581 
L 756 4581 
L 1659 3200 
Q 1909 2813 2125 2425 
Q 2331 2784 2625 3234 
L 3513 4581 
L 4219 4581 
L 2391 1941 
L 2391 0 
L 1784 0 
z
" transform="scale(0.015625)"/>
       <path id="ArialMT-65" d="M 2694 1069 
L 3275 997 
Q 3138 488 2766 206 
Q 2394 -75 1816 -75 
Q 1088 -75 661 373 
Q 234 822 234 1631 
Q 234 2469 665 2931 
Q 1097 3394 1784 3394 
Q 2450 3394 2872 2941 
Q 3294 2488 3294 1666 
Q 3294 1616 3291 1516 
L 816 1516 
Q 847 969 1125 678 
Q 1403 388 1819 388 
Q 2128 388 2347 550 
Q 2566 713 2694 1069 
z
M 847 1978 
L 2700 1978 
Q 2663 2397 2488 2606 
Q 2219 2931 1791 2931 
Q 1403 2931 1139 2672 
Q 875 2413 847 1978 
z
" transform="scale(0.015625)"/>
       <path id="ArialMT-61" d="M 2588 409 
Q 2275 144 1986 34 
Q 1697 -75 1366 -75 
Q 819 -75 525 192 
Q 231 459 231 875 
Q 231 1119 342 1320 
Q 453 1522 633 1644 
Q 813 1766 1038 1828 
Q 1203 1872 1538 1913 
Q 2219 1994 2541 2106 
Q 2544 2222 2544 2253 
Q 2544 2597 2384 2738 
Q 2169 2928 1744 2928 
Q 1347 2928 1158 2789 
Q 969 2650 878 2297 
L 328 2372 
Q 403 2725 575 2942 
Q 747 3159 1072 3276 
Q 1397 3394 1825 3394 
Q 2250 3394 2515 3294 
Q 2781 3194 2906 3042 
Q 3031 2891 3081 2659 
Q 3109 2516 3109 2141 
L 3109 1391 
Q 3109 606 3145 398 
Q 3181 191 3288 0 
L 2700 0 
Q 2613 175 2588 409 
z
M 2541 1666 
Q 2234 1541 1622 1453 
Q 1275 1403 1131 1340 
Q 988 1278 909 1158 
Q 831 1038 831 891 
Q 831 666 1001 516 
Q 1172 366 1500 366 
Q 1825 366 2078 508 
Q 2331 650 2450 897 
Q 2541 1088 2541 1459 
L 2541 1666 
z
" transform="scale(0.015625)"/>
       <path id="ArialMT-72" d="M 416 0 
L 416 3319 
L 922 3319 
L 922 2816 
Q 1116 3169 1280 3281 
Q 1444 3394 1641 3394 
Q 1925 3394 2219 3213 
L 2025 2691 
Q 1819 2813 1613 2813 
Q 1428 2813 1281 2702 
Q 1134 2591 1072 2394 
Q 978 2094 978 1738 
L 978 0 
L 416 0 
z
" transform="scale(0.015625)"/>
       <path id="ArialMT-73" d="M 197 991 
L 753 1078 
Q 800 744 1014 566 
Q 1228 388 1613 388 
Q 2000 388 2187 545 
Q 2375 703 2375 916 
Q 2375 1106 2209 1216 
Q 2094 1291 1634 1406 
Q 1016 1563 777 1677 
Q 538 1791 414 1992 
Q 291 2194 291 2438 
Q 291 2659 392 2848 
Q 494 3038 669 3163 
Q 800 3259 1026 3326 
Q 1253 3394 1513 3394 
Q 1903 3394 2198 3281 
Q 2494 3169 2634 2976 
Q 2775 2784 2828 2463 
L 2278 2388 
Q 2241 2644 2061 2787 
Q 1881 2931 1553 2931 
Q 1166 2931 1000 2803 
Q 834 2675 834 2503 
Q 834 2394 903 2306 
Q 972 2216 1119 2156 
Q 1203 2125 1616 2013 
Q 2213 1853 2448 1751 
Q 2684 1650 2818 1456 
Q 2953 1263 2953 975 
Q 2953 694 2789 445 
Q 2625 197 2315 61 
Q 2006 -75 1616 -75 
Q 969 -75 630 194 
Q 291 463 197 991 
z
" transform="scale(0.015625)"/>
      </defs>
      <use xlink:href="#ArialMT-59"/>
      <use xlink:href="#ArialMT-65" x="57.574219"/>
      <use xlink:href="#ArialMT-61" x="113.189453"/>
      <use xlink:href="#ArialMT-72" x="168.804688"/>
      <use xlink:href="#ArialMT-73" x="202.105469"/>
     </g>
    </g>
   </g>
   <g id="matplotlib.axis_2">
    <g id="ytick_1">
     <g id="line2d_5">
      <path d="M 44.69 132.29007 
L 186.933902 132.29007 
" clip-path="url(#pbfc10df418)" style="fill: none; stroke: #cccccc; stroke-linecap: round"/>
     </g>
     <g id="text_6">
      <!-- 0.0 -->
      <g style="fill: #262626" transform="translate(25.9 136.226867)scale(0.11 -0.11)">
       <defs>
        <path id="ArialMT-2e" d="M 581 0 
L 581 641 
L 1222 641 
L 1222 0 
L 581 0 
z
" transform="scale(0.015625)"/>
       </defs>
       <use xlink:href="#ArialMT-30"/>
       <use xlink:href="#ArialMT-2e" x="55.615234"/>
       <use xlink:href="#ArialMT-30" x="83.398438"/>
      </g>
     </g>
    </g>
    <g id="ytick_2">
     <g id="line2d_6">
      <path d="M 44.69 93.802604 
L 186.933902 93.802604 
" clip-path="url(#pbfc10df418)" style="fill: none; stroke: #cccccc; stroke-linecap: round"/>
     </g>
     <g id="text_7">
      <!-- 0.2 -->
      <g style="fill: #262626" transform="translate(25.9 97.739401)scale(0.11 -0.11)">
       <use xlink:href="#ArialMT-30"/>
       <use xlink:href="#ArialMT-2e" x="55.615234"/>
       <use xlink:href="#ArialMT-32" x="83.398438"/>
      </g>
     </g>
    </g>
    <g id="ytick_3">
     <g id="line2d_7">
      <path d="M 44.69 55.315138 
L 186.933902 55.315138 
" clip-path="url(#pbfc10df418)" style="fill: none; stroke: #cccccc; stroke-linecap: round"/>
     </g>
     <g id="text_8">
      <!-- 0.4 -->
      <g style="fill: #262626" transform="translate(25.9 59.251935)scale(0.11 -0.11)">
       <defs>
        <path id="ArialMT-34" d="M 2069 0 
L 2069 1097 
L 81 1097 
L 81 1613 
L 2172 4581 
L 2631 4581 
L 2631 1613 
L 3250 1613 
L 3250 1097 
L 2631 1097 
L 2631 0 
L 2069 0 
z
M 2069 1613 
L 2069 3678 
L 634 1613 
L 2069 1613 
z
" transform="scale(0.015625)"/>
       </defs>
       <use xlink:href="#ArialMT-30"/>
       <use xlink:href="#ArialMT-2e" x="55.615234"/>
       <use xlink:href="#ArialMT-34" x="83.398438"/>
      </g>
     </g>
    </g>
    <g id="text_9">
     <!-- Sensitivity of $\lambda$ -->
     <g style="fill: #262626" transform="translate(18.6 143.916482)rotate(-90)scale(0.15 -0.15)">
      <defs>
       <path id="ArialMT-53" d="M 288 1472 
L 859 1522 
Q 900 1178 1048 958 
Q 1197 738 1509 602 
Q 1822 466 2213 466 
Q 2559 466 2825 569 
Q 3091 672 3220 851 
Q 3350 1031 3350 1244 
Q 3350 1459 3225 1620 
Q 3100 1781 2813 1891 
Q 2628 1963 1997 2114 
Q 1366 2266 1113 2400 
Q 784 2572 623 2826 
Q 463 3081 463 3397 
Q 463 3744 659 4045 
Q 856 4347 1234 4503 
Q 1613 4659 2075 4659 
Q 2584 4659 2973 4495 
Q 3363 4331 3572 4012 
Q 3781 3694 3797 3291 
L 3216 3247 
Q 3169 3681 2898 3903 
Q 2628 4125 2100 4125 
Q 1550 4125 1298 3923 
Q 1047 3722 1047 3438 
Q 1047 3191 1225 3031 
Q 1400 2872 2139 2705 
Q 2878 2538 3153 2413 
Q 3553 2228 3743 1945 
Q 3934 1663 3934 1294 
Q 3934 928 3725 604 
Q 3516 281 3123 101 
Q 2731 -78 2241 -78 
Q 1619 -78 1198 103 
Q 778 284 539 648 
Q 300 1013 288 1472 
z
" transform="scale(0.015625)"/>
       <path id="ArialMT-6e" d="M 422 0 
L 422 3319 
L 928 3319 
L 928 2847 
Q 1294 3394 1984 3394 
Q 2284 3394 2536 3286 
Q 2788 3178 2913 3003 
Q 3038 2828 3088 2588 
Q 3119 2431 3119 2041 
L 3119 0 
L 2556 0 
L 2556 2019 
Q 2556 2363 2490 2533 
Q 2425 2703 2258 2804 
Q 2091 2906 1866 2906 
Q 1506 2906 1245 2678 
Q 984 2450 984 1813 
L 984 0 
L 422 0 
z
" transform="scale(0.015625)"/>
       <path id="ArialMT-69" d="M 425 3934 
L 425 4581 
L 988 4581 
L 988 3934 
L 425 3934 
z
M 425 0 
L 425 3319 
L 988 3319 
L 988 0 
L 425 0 
z
" transform="scale(0.015625)"/>
       <path id="ArialMT-74" d="M 1650 503 
L 1731 6 
Q 1494 -44 1306 -44 
Q 1000 -44 831 53 
Q 663 150 594 308 
Q 525 466 525 972 
L 525 2881 
L 113 2881 
L 113 3319 
L 525 3319 
L 525 4141 
L 1084 4478 
L 1084 3319 
L 1650 3319 
L 1650 2881 
L 1084 2881 
L 1084 941 
Q 1084 700 1114 631 
Q 1144 563 1211 522 
Q 1278 481 1403 481 
Q 1497 481 1650 503 
z
" transform="scale(0.015625)"/>
       <path id="ArialMT-76" d="M 1344 0 
L 81 3319 
L 675 3319 
L 1388 1331 
Q 1503 1009 1600 663 
Q 1675 925 1809 1294 
L 2547 3319 
L 3125 3319 
L 1869 0 
L 1344 0 
z
" transform="scale(0.015625)"/>
       <path id="ArialMT-79" d="M 397 -1278 
L 334 -750 
Q 519 -800 656 -800 
Q 844 -800 956 -737 
Q 1069 -675 1141 -563 
Q 1194 -478 1313 -144 
Q 1328 -97 1363 -6 
L 103 3319 
L 709 3319 
L 1400 1397 
Q 1534 1031 1641 628 
Q 1738 1016 1872 1384 
L 2581 3319 
L 3144 3319 
L 1881 -56 
Q 1678 -603 1566 -809 
Q 1416 -1088 1222 -1217 
Q 1028 -1347 759 -1347 
Q 597 -1347 397 -1278 
z
" transform="scale(0.015625)"/>
       <path id="ArialMT-20" transform="scale(0.015625)"/>
       <path id="ArialMT-6f" d="M 213 1659 
Q 213 2581 725 3025 
Q 1153 3394 1769 3394 
Q 2453 3394 2887 2945 
Q 3322 2497 3322 1706 
Q 3322 1066 3130 698 
Q 2938 331 2570 128 
Q 2203 -75 1769 -75 
Q 1072 -75 642 372 
Q 213 819 213 1659 
z
M 791 1659 
Q 791 1022 1069 705 
Q 1347 388 1769 388 
Q 2188 388 2466 706 
Q 2744 1025 2744 1678 
Q 2744 2294 2464 2611 
Q 2184 2928 1769 2928 
Q 1347 2928 1069 2612 
Q 791 2297 791 1659 
z
" transform="scale(0.015625)"/>
       <path id="ArialMT-66" d="M 556 0 
L 556 2881 
L 59 2881 
L 59 3319 
L 556 3319 
L 556 3672 
Q 556 4006 616 4169 
Q 697 4388 901 4523 
Q 1106 4659 1475 4659 
Q 1713 4659 2000 4603 
L 1916 4113 
Q 1741 4144 1584 4144 
Q 1328 4144 1222 4034 
Q 1116 3925 1116 3625 
L 1116 3319 
L 1763 3319 
L 1763 2881 
L 1116 2881 
L 1116 0 
L 556 0 
z
" transform="scale(0.015625)"/>
       <path id="DejaVuSans-Oblique-3bb" d="M 2350 4316 
L 3125 0 
L 2516 0 
L 2038 2588 
L 328 0 
L -281 0 
L 1903 3356 
L 1794 3975 
Q 1725 4369 1391 4369 
L 1091 4369 
L 1184 4863 
L 1550 4856 
Q 2253 4847 2350 4316 
z
" transform="scale(0.015625)"/>
      </defs>
      <use xlink:href="#ArialMT-53" transform="translate(0 0.015625)"/>
      <use xlink:href="#ArialMT-65" transform="translate(66.699219 0.015625)"/>
      <use xlink:href="#ArialMT-6e" transform="translate(122.314453 0.015625)"/>
      <use xlink:href="#ArialMT-73" transform="translate(177.929688 0.015625)"/>
      <use xlink:href="#ArialMT-69" transform="translate(227.929688 0.015625)"/>
      <use xlink:href="#ArialMT-74" transform="translate(250.146484 0.015625)"/>
      <use xlink:href="#ArialMT-69" transform="translate(277.929688 0.015625)"/>
      <use xlink:href="#ArialMT-76" transform="translate(300.146484 0.015625)"/>
      <use xlink:href="#ArialMT-69" transform="translate(350.146484 0.015625)"/>
      <use xlink:href="#ArialMT-74" transform="translate(372.363281 0.015625)"/>
      <use xlink:href="#ArialMT-79" transform="translate(400.146484 0.015625)"/>
      <use xlink:href="#ArialMT-20" transform="translate(450.146484 0.015625)"/>
      <use xlink:href="#ArialMT-6f" transform="translate(477.929688 0.015625)"/>
      <use xlink:href="#ArialMT-66" transform="translate(533.544922 0.015625)"/>
      <use xlink:href="#ArialMT-20" transform="translate(561.328125 0.015625)"/>
      <use xlink:href="#DejaVuSans-Oblique-3bb" transform="translate(589.111328 0.015625)"/>
     </g>
    </g>
   </g>
   <g id="line2d_8">
    <path clip-path="url(#pbfc10df418)" style="fill: none; stroke: #482475; stroke-width: 1.5; stroke-linecap: round"/>
   </g>
   <g id="line2d_9">
    <path d="M 51.155632 30.585163 
L 52.927038 105.245681 
L 54.698444 72.396636 
L 56.46985 57.475051 
L 58.241256 78.516239 
L 60.012662 84.337467 
L 61.784068 88.934595 
L 63.555474 97.634758 
L 65.32688 107.205586 
L 67.098286 117.861619 
L 68.869692 128.9873 
L 70.641098 139.154588 
L 72.412504 147.585059 
L 74.18391 153.635454 
L 75.955316 156.892801 
L 77.726722 157.486875 
L 79.498128 155.977363 
L 81.269534 153.116056 
L 83.04094 149.639243 
L 84.812346 146.126086 
L 86.583752 142.944592 
L 88.355158 140.269652 
L 90.126564 138.137085 
L 91.89797 136.501898 
L 93.669376 135.283769 
L 95.440782 134.395695 
L 97.212188 133.758715 
L 98.983594 133.307508 
L 100.755 132.990998 
L 102.526406 132.770693 
L 104.297812 132.618318 
L 106.069218 132.513479 
L 107.840624 132.441664 
L 109.61203 132.392659 
L 111.383436 132.359329 
L 113.154842 132.336727 
L 114.926248 132.321439 
L 116.697654 132.311123 
L 118.46906 132.304176 
L 120.240466 132.299507 
L 122.011872 132.296375 
L 123.783278 132.294277 
L 125.554684 132.292873 
L 127.32609 132.291936 
L 129.097496 132.291311 
L 130.868902 132.290895 
L 132.640308 132.290617 
L 134.411714 132.290433 
L 136.18312 132.290311 
L 137.954526 132.290229 
L 139.725932 132.290176 
L 141.497338 132.29014 
L 143.268744 132.290116 
L 145.04015 132.290101 
L 146.811556 132.29009 
L 148.582962 132.290084 
L 150.354368 132.290079 
L 152.125774 132.290076 
L 153.89718 132.290074 
L 155.668586 132.290073 
L 157.439992 132.290072 
L 159.211398 132.290072 
L 160.982804 132.290071 
L 162.75421 132.290071 
L 164.525616 132.290071 
L 166.297022 132.290071 
L 168.068428 132.290071 
L 169.839834 132.290071 
L 171.61124 132.290071 
L 173.382646 132.29007 
L 175.154052 132.29007 
L 176.925458 132.29007 
L 178.696865 132.29007 
L 180.468271 132.29007 
" clip-path="url(#pbfc10df418)" style="fill: none; stroke: #355f8d; stroke-width: 1.5; stroke-linecap: round"/>
   </g>
   <g id="line2d_10">
    <path d="M 51.155632 30.585163 
L 52.927038 104.201034 
L 54.698444 73.599148 
L 56.46985 59.018644 
L 58.241256 79.054664 
L 60.012662 85.256453 
L 61.784068 90.760627 
L 63.555474 100.11265 
L 65.32688 110.318236 
L 67.098286 121.753822 
L 68.869692 133.453941 
L 70.641098 143.718464 
L 72.412504 151.660643 
L 74.18391 156.651656 
L 75.955316 158.47199 
L 77.726722 157.547081 
L 79.498128 154.718026 
L 81.269534 150.920521 
L 83.04094 146.94409 
L 84.812346 143.31451 
L 86.583752 140.291362 
L 88.355158 137.933559 
L 90.126564 136.181925 
L 91.89797 134.927041 
L 93.669376 134.052229 
L 95.440782 133.45482 
L 97.212188 133.053225 
L 98.983594 132.786538 
L 100.755 132.611139 
L 102.526406 132.496673 
L 104.297812 132.422448 
L 106.069218 132.374574 
L 107.840624 132.343838 
L 109.61203 132.324182 
L 111.383436 132.311655 
L 113.154842 132.303697 
L 114.926248 132.298654 
L 116.697654 132.295467 
L 118.46906 132.293458 
L 120.240466 132.292193 
L 122.011872 132.291398 
L 123.783278 132.2909 
L 125.554684 132.290588 
L 127.32609 132.290393 
L 129.097496 132.290271 
L 130.868902 132.290195 
L 132.640308 132.290148 
L 134.411714 132.290119 
L 136.18312 132.2901 
L 137.954526 132.290089 
L 139.725932 132.290082 
L 141.497338 132.290078 
L 143.268744 132.290075 
L 145.04015 132.290073 
L 146.811556 132.290072 
L 148.582962 132.290071 
L 150.354368 132.290071 
L 152.125774 132.290071 
L 153.89718 132.290071 
L 155.668586 132.290071 
L 157.439992 132.290071 
L 159.211398 132.290071 
L 160.982804 132.29007 
L 162.75421 132.29007 
L 164.525616 132.29007 
L 166.297022 132.29007 
L 168.068428 132.29007 
L 169.839834 132.29007 
L 171.61124 132.29007 
L 173.382646 132.29007 
L 175.154052 132.29007 
L 176.925458 132.29007 
L 178.696865 132.29007 
L 180.468271 132.29007 
" clip-path="url(#pbfc10df418)" style="fill: none; stroke: #21918c; stroke-width: 1.5; stroke-linecap: round"/>
   </g>
   <g id="line2d_11">
    <path d="M 51.155632 30.585163 
L 52.927038 103.227261 
L 54.698444 74.737166 
L 56.46985 60.492162 
L 58.241256 79.569025 
L 60.012662 86.139091 
L 61.784068 92.554752 
L 63.555474 102.578245 
L 65.32688 113.41902 
L 67.098286 125.580205 
L 68.869692 137.720943 
L 70.641098 147.867876 
L 72.412504 155.05377 
L 74.18391 158.74528 
L 75.955316 159.014228 
L 77.726722 156.63212 
L 79.498128 152.703365 
L 81.269534 148.278664 
L 83.04094 144.119661 
L 84.812346 140.637756 
L 86.583752 137.955338 
L 88.355158 136.014371 
L 90.126564 134.675968 
L 91.89797 133.786931 
L 93.669376 133.213387 
L 95.440782 132.851793 
L 97.212188 132.627954 
L 98.983594 132.491413 
L 100.755 132.40911 
L 102.526406 132.359985 
L 104.297812 132.330901 
L 106.069218 132.3138 
L 107.840624 132.303803 
L 109.61203 132.297988 
L 111.383436 132.29462 
L 113.154842 132.292677 
L 114.926248 132.29156 
L 116.697654 132.29092 
L 118.46906 132.290553 
L 120.240466 132.290345 
L 122.011872 132.290226 
L 123.783278 132.290158 
L 125.554684 132.29012 
L 127.32609 132.290098 
L 129.097496 132.290086 
L 130.868902 132.290079 
L 132.640308 132.290075 
L 134.411714 132.290073 
L 136.18312 132.290072 
L 137.954526 132.290071 
L 139.725932 132.290071 
L 141.497338 132.290071 
L 143.268744 132.290071 
L 145.04015 132.290071 
L 146.811556 132.29007 
L 148.582962 132.29007 
L 150.354368 132.29007 
L 152.125774 132.29007 
L 153.89718 132.29007 
L 155.668586 132.29007 
L 157.439992 132.29007 
L 159.211398 132.29007 
L 160.982804 132.29007 
L 162.75421 132.29007 
L 164.525616 132.29007 
L 166.297022 132.29007 
L 168.068428 132.29007 
L 169.839834 132.29007 
L 171.61124 132.29007 
L 173.382646 132.29007 
L 175.154052 132.29007 
L 176.925458 132.29007 
L 178.696865 132.29007 
L 180.468271 132.29007 
" clip-path="url(#pbfc10df418)" style="fill: none; stroke: #44bf70; stroke-width: 1.5; stroke-linecap: round"/>
   </g>
   <g id="line2d_12">
    <path d="M 51.155632 30.585163 
L 52.927038 102.317636 
L 54.698444 75.813524 
L 56.46985 61.900565 
L 58.241256 80.060814 
L 60.012662 86.985283 
L 61.784068 94.313819 
L 63.555474 105.024282 
L 65.32688 116.491953 
L 67.098286 129.304276 
L 68.869692 141.722087 
L 70.641098 151.514217 
L 72.412504 157.685528 
L 74.18391 159.897802 
L 75.955316 158.602253 
L 77.726722 154.93052 
L 79.498128 150.192551 
L 81.269534 145.464197 
L 83.04094 141.402379 
L 84.812346 138.263392 
L 86.583752 136.026684 
L 88.355158 134.533261 
L 90.126564 133.588206 
L 91.89797 133.016714 
L 93.669376 132.684497 
L 95.440782 132.498057 
L 97.212188 132.396744 
L 98.983594 132.343323 
L 100.755 132.315951 
L 102.526406 132.302313 
L 104.297812 132.295701 
L 106.069218 132.292584 
L 107.840624 132.291157 
L 109.61203 132.290523 
L 111.383436 132.29025 
L 113.154842 132.290138 
L 114.926248 132.290093 
L 116.697654 132.290077 
L 118.46906 132.290072 
L 120.240466 132.29007 
L 122.011872 132.29007 
L 123.783278 132.29007 
L 125.554684 132.29007 
L 127.32609 132.29007 
L 129.097496 132.29007 
L 130.868902 132.29007 
L 132.640308 132.29007 
L 134.411714 132.29007 
L 136.18312 132.29007 
L 137.954526 132.29007 
L 139.725932 132.29007 
L 141.497338 132.29007 
L 143.268744 132.29007 
L 145.04015 132.29007 
L 146.811556 132.29007 
L 148.582962 132.29007 
L 150.354368 132.29007 
L 152.125774 132.29007 
L 153.89718 132.29007 
L 155.668586 132.29007 
L 157.439992 132.29007 
L 159.211398 132.29007 
L 160.982804 132.29007 
L 162.75421 132.29007 
L 164.525616 132.29007 
L 166.297022 132.29007 
L 168.068428 132.29007 
L 169.839834 132.29007 
L 171.61124 132.29007 
L 173.382646 132.29007 
L 175.154052 132.29007 
L 176.925458 132.29007 
L 178.696865 132.29007 
L 180.468271 132.29007 
" clip-path="url(#pbfc10df418)" style="fill: none; stroke: #bddf26; stroke-width: 1.5; stroke-linecap: round"/>
   </g>
   <g id="patch_3">
    <path d="M 44.69 166.363434 
L 44.69 24.119531 
" style="fill: none; stroke: #cccccc; stroke-linejoin: miter; stroke-linecap: square"/>
   </g>
   <g id="patch_4">
    <path d="M 186.933902 166.363434 
L 186.933902 24.119531 
" style="fill: none; stroke: #cccccc; stroke-linejoin: miter; stroke-linecap: square"/>
   </g>
   <g id="patch_5">
    <path d="M 44.69 166.363434 
L 186.933902 166.363434 
" style="fill: none; stroke: #cccccc; stroke-linejoin: miter; stroke-linecap: square"/>
   </g>
   <g id="patch_6">
    <path d="M 44.69 24.119531 
L 186.933902 24.119531 
" style="fill: none; stroke: #cccccc; stroke-linejoin: miter; stroke-linecap: square"/>
   </g>
   <g id="text_10">
    <!-- La Grange -->
    <g style="fill: #262626" transform="translate(80.373279 18.119531)scale(0.15 -0.15)">
     <defs>
      <path id="ArialMT-4c" d="M 469 0 
L 469 4581 
L 1075 4581 
L 1075 541 
L 3331 541 
L 3331 0 
L 469 0 
z
" transform="scale(0.015625)"/>
      <path id="ArialMT-47" d="M 2638 1797 
L 2638 2334 
L 4578 2338 
L 4578 638 
Q 4131 281 3656 101 
Q 3181 -78 2681 -78 
Q 2006 -78 1454 211 
Q 903 500 622 1047 
Q 341 1594 341 2269 
Q 341 2938 620 3517 
Q 900 4097 1425 4378 
Q 1950 4659 2634 4659 
Q 3131 4659 3532 4498 
Q 3934 4338 4162 4050 
Q 4391 3763 4509 3300 
L 3963 3150 
Q 3859 3500 3706 3700 
Q 3553 3900 3268 4020 
Q 2984 4141 2638 4141 
Q 2222 4141 1919 4014 
Q 1616 3888 1430 3681 
Q 1244 3475 1141 3228 
Q 966 2803 966 2306 
Q 966 1694 1177 1281 
Q 1388 869 1791 669 
Q 2194 469 2647 469 
Q 3041 469 3416 620 
Q 3791 772 3984 944 
L 3984 1797 
L 2638 1797 
z
" transform="scale(0.015625)"/>
      <path id="ArialMT-67" d="M 319 -275 
L 866 -356 
Q 900 -609 1056 -725 
Q 1266 -881 1628 -881 
Q 2019 -881 2231 -725 
Q 2444 -569 2519 -288 
Q 2563 -116 2559 434 
Q 2191 0 1641 0 
Q 956 0 581 494 
Q 206 988 206 1678 
Q 206 2153 378 2554 
Q 550 2956 876 3175 
Q 1203 3394 1644 3394 
Q 2231 3394 2613 2919 
L 2613 3319 
L 3131 3319 
L 3131 450 
Q 3131 -325 2973 -648 
Q 2816 -972 2473 -1159 
Q 2131 -1347 1631 -1347 
Q 1038 -1347 672 -1080 
Q 306 -813 319 -275 
z
M 784 1719 
Q 784 1066 1043 766 
Q 1303 466 1694 466 
Q 2081 466 2343 764 
Q 2606 1063 2606 1700 
Q 2606 2309 2336 2618 
Q 2066 2928 1684 2928 
Q 1309 2928 1046 2623 
Q 784 2319 784 1719 
z
" transform="scale(0.015625)"/>
     </defs>
     <use xlink:href="#ArialMT-4c"/>
     <use xlink:href="#ArialMT-61" x="55.615234"/>
     <use xlink:href="#ArialMT-20" x="111.230469"/>
     <use xlink:href="#ArialMT-47" x="139.013672"/>
     <use xlink:href="#ArialMT-72" x="216.796875"/>
     <use xlink:href="#ArialMT-61" x="250.097656"/>
     <use xlink:href="#ArialMT-6e" x="305.712891"/>
     <use xlink:href="#ArialMT-67" x="361.328125"/>
     <use xlink:href="#ArialMT-65" x="416.943359"/>
    </g>
   </g>
  </g>
  <g id="axes_2">
   <g id="patch_7">
    <path d="M 194.046098 166.363434 
L 336.29 166.363434 
L 336.29 24.119531 
L 194.046098 24.119531 
z
" style="fill: #ffffff"/>
   </g>
   <g id="matplotlib.axis_3">
    <g id="xtick_5">
     <g id="line2d_13">
      <path d="M 200.511729 166.363434 
L 200.511729 24.119531 
" clip-path="url(#pf29e15c8f2)" style="fill: none; stroke: #cccccc; stroke-linecap: round"/>
     </g>
     <g id="text_11">
      <!-- 0 -->
      <g style="fill: #262626" transform="translate(197.453214 177.737027)scale(0.11 -0.11)">
       <use xlink:href="#ArialMT-30"/>
      </g>
     </g>
    </g>
    <g id="xtick_6">
     <g id="line2d_14">
      <path d="M 244.79688 166.363434 
L 244.79688 24.119531 
" clip-path="url(#pf29e15c8f2)" style="fill: none; stroke: #cccccc; stroke-linecap: round"/>
     </g>
     <g id="text_12">
      <!-- 25 -->
      <g style="fill: #262626" transform="translate(238.679848 177.737027)scale(0.11 -0.11)">
       <use xlink:href="#ArialMT-32"/>
       <use xlink:href="#ArialMT-35" x="55.615234"/>
      </g>
     </g>
    </g>
    <g id="xtick_7">
     <g id="line2d_15">
      <path d="M 289.08203 166.363434 
L 289.08203 24.119531 
" clip-path="url(#pf29e15c8f2)" style="fill: none; stroke: #cccccc; stroke-linecap: round"/>
     </g>
     <g id="text_13">
      <!-- 50 -->
      <g style="fill: #262626" transform="translate(282.964999 177.737027)scale(0.11 -0.11)">
       <use xlink:href="#ArialMT-35"/>
       <use xlink:href="#ArialMT-30" x="55.615234"/>
      </g>
     </g>
    </g>
    <g id="xtick_8">
     <g id="line2d_16">
      <path d="M 333.36718 166.363434 
L 333.36718 24.119531 
" clip-path="url(#pf29e15c8f2)" style="fill: none; stroke: #cccccc; stroke-linecap: round"/>
     </g>
     <g id="text_14">
      <!-- 75 -->
      <g style="fill: #262626" transform="translate(327.250149 177.737027)scale(0.11 -0.11)">
       <use xlink:href="#ArialMT-37"/>
       <use xlink:href="#ArialMT-35" x="55.615234"/>
      </g>
     </g>
    </g>
    <g id="text_15">
     <!-- Years -->
     <g style="fill: #262626" transform="translate(246.261018 194.659996)scale(0.15 -0.15)">
      <use xlink:href="#ArialMT-59"/>
      <use xlink:href="#ArialMT-65" x="57.574219"/>
      <use xlink:href="#ArialMT-61" x="113.189453"/>
      <use xlink:href="#ArialMT-72" x="168.804688"/>
      <use xlink:href="#ArialMT-73" x="202.105469"/>
     </g>
    </g>
   </g>
   <g id="matplotlib.axis_4">
    <g id="ytick_4">
     <g id="line2d_17">
      <path d="M 194.046098 132.29007 
L 336.29 132.29007 
" clip-path="url(#pf29e15c8f2)" style="fill: none; stroke: #cccccc; stroke-linecap: round"/>
     </g>
    </g>
    <g id="ytick_5">
     <g id="line2d_18">
      <path d="M 194.046098 93.802604 
L 336.29 93.802604 
" clip-path="url(#pf29e15c8f2)" style="fill: none; stroke: #cccccc; stroke-linecap: round"/>
     </g>
    </g>
    <g id="ytick_6">
     <g id="line2d_19">
      <path d="M 194.046098 55.315138 
L 336.29 55.315138 
" clip-path="url(#pf29e15c8f2)" style="fill: none; stroke: #cccccc; stroke-linecap: round"/>
     </g>
    </g>
   </g>
   <g id="line2d_20">
    <path clip-path="url(#pf29e15c8f2)" style="fill: none; stroke: #482475; stroke-width: 1.5; stroke-linecap: round"/>
   </g>
   <g id="line2d_21">
    <path d="M 200.511729 30.585163 
L 202.283135 105.245681 
L 204.054542 72.396636 
L 205.825948 57.475051 
L 207.597354 78.516239 
L 209.36876 84.337467 
L 211.140166 88.934595 
L 212.911572 97.634758 
L 214.682978 107.205586 
L 216.454384 117.861619 
L 218.22579 128.9873 
L 219.997196 139.154588 
L 221.768602 147.585059 
L 223.540008 153.635454 
L 225.311414 156.892801 
L 227.08282 157.486875 
L 228.854226 155.977363 
L 230.625632 153.116056 
L 232.397038 149.639243 
L 234.168444 146.126086 
L 235.93985 142.944592 
L 237.711256 140.269652 
L 239.482662 138.137085 
L 241.254068 136.501898 
L 243.025474 135.283769 
L 244.79688 134.395695 
L 246.568286 133.758715 
L 248.339692 133.307508 
L 250.111098 132.990998 
L 251.882504 132.770693 
L 253.65391 132.618318 
L 255.425316 132.513479 
L 257.196722 132.441664 
L 258.968128 132.392659 
L 260.739534 132.359329 
L 262.51094 132.336727 
L 264.282346 132.321439 
L 266.053752 132.311123 
L 267.825158 132.304176 
L 269.596564 132.299507 
L 271.36797 132.296375 
L 273.139376 132.294277 
L 274.910782 132.292873 
L 276.682188 132.291936 
L 278.453594 132.291311 
L 280.225 132.290895 
L 281.996406 132.290617 
L 283.767812 132.290433 
L 285.539218 132.290311 
L 287.310624 132.290229 
L 289.08203 132.290176 
L 290.853436 132.29014 
L 292.624842 132.290116 
L 294.396248 132.290101 
L 296.167654 132.29009 
L 297.93906 132.290084 
L 299.710466 132.290079 
L 301.481872 132.290076 
L 303.253278 132.290074 
L 305.024684 132.290073 
L 306.79609 132.290072 
L 308.567496 132.290072 
L 310.338902 132.290071 
L 312.110308 132.290071 
L 313.881714 132.290071 
L 315.65312 132.290071 
L 317.424526 132.290071 
L 319.195932 132.290071 
L 320.967338 132.290071 
L 322.738744 132.29007 
L 324.51015 132.29007 
L 326.281556 132.29007 
L 328.052962 132.29007 
L 329.824368 132.29007 
" clip-path="url(#pf29e15c8f2)" style="fill: none; stroke: #355f8d; stroke-width: 1.5; stroke-linecap: round"/>
   </g>
   <g id="line2d_22">
    <path d="M 200.511729 30.585163 
L 202.283135 104.201034 
L 204.054542 73.599148 
L 205.825948 59.018644 
L 207.597354 79.054664 
L 209.36876 85.256453 
L 211.140166 90.760627 
L 212.911572 100.11265 
L 214.682978 110.318236 
L 216.454384 121.753822 
L 218.22579 133.453941 
L 219.997196 143.718464 
L 221.768602 151.660643 
L 223.540008 156.651656 
L 225.311414 158.47199 
L 227.08282 157.547081 
L 228.854226 154.718026 
L 230.625632 150.920521 
L 232.397038 146.94409 
L 234.168444 143.31451 
L 235.93985 140.291362 
L 237.711256 137.933559 
L 239.482662 136.181925 
L 241.254068 134.927041 
L 243.025474 134.052229 
L 244.79688 133.45482 
L 246.568286 133.053225 
L 248.339692 132.786538 
L 250.111098 132.611139 
L 251.882504 132.496673 
L 253.65391 132.422448 
L 255.425316 132.374574 
L 257.196722 132.343838 
L 258.968128 132.324182 
L 260.739534 132.311655 
L 262.51094 132.303697 
L 264.282346 132.298654 
L 266.053752 132.295467 
L 267.825158 132.293458 
L 269.596564 132.292193 
L 271.36797 132.291398 
L 273.139376 132.2909 
L 274.910782 132.290588 
L 276.682188 132.290393 
L 278.453594 132.290271 
L 280.225 132.290195 
L 281.996406 132.290148 
L 283.767812 132.290119 
L 285.539218 132.2901 
L 287.310624 132.290089 
L 289.08203 132.290082 
L 290.853436 132.290078 
L 292.624842 132.290075 
L 294.396248 132.290073 
L 296.167654 132.290072 
L 297.93906 132.290071 
L 299.710466 132.290071 
L 301.481872 132.290071 
L 303.253278 132.290071 
L 305.024684 132.290071 
L 306.79609 132.290071 
L 308.567496 132.290071 
L 310.338902 132.29007 
L 312.110308 132.29007 
L 313.881714 132.29007 
L 315.65312 132.29007 
L 317.424526 132.29007 
L 319.195932 132.29007 
L 320.967338 132.29007 
L 322.738744 132.29007 
L 324.51015 132.29007 
L 326.281556 132.29007 
L 328.052962 132.29007 
L 329.824368 132.29007 
" clip-path="url(#pf29e15c8f2)" style="fill: none; stroke: #21918c; stroke-width: 1.5; stroke-linecap: round"/>
   </g>
   <g id="line2d_23">
    <path d="M 200.511729 30.585163 
L 202.283135 103.227261 
L 204.054542 74.737166 
L 205.825948 60.492162 
L 207.597354 79.569025 
L 209.36876 86.139091 
L 211.140166 92.554752 
L 212.911572 102.578245 
L 214.682978 113.41902 
L 216.454384 125.580205 
L 218.22579 137.720943 
L 219.997196 147.867876 
L 221.768602 155.05377 
L 223.540008 158.74528 
L 225.311414 159.014228 
L 227.08282 156.63212 
L 228.854226 152.703365 
L 230.625632 148.278664 
L 232.397038 144.119661 
L 234.168444 140.637756 
L 235.93985 137.955338 
L 237.711256 136.014371 
L 239.482662 134.675968 
L 241.254068 133.786931 
L 243.025474 133.213387 
L 244.79688 132.851793 
L 246.568286 132.627954 
L 248.339692 132.491413 
L 250.111098 132.40911 
L 251.882504 132.359985 
L 253.65391 132.330901 
L 255.425316 132.3138 
L 257.196722 132.303803 
L 258.968128 132.297988 
L 260.739534 132.29462 
L 262.51094 132.292677 
L 264.282346 132.29156 
L 266.053752 132.29092 
L 267.825158 132.290553 
L 269.596564 132.290345 
L 271.36797 132.290226 
L 273.139376 132.290158 
L 274.910782 132.29012 
L 276.682188 132.290098 
L 278.453594 132.290086 
L 280.225 132.290079 
L 281.996406 132.290075 
L 283.767812 132.290073 
L 285.539218 132.290072 
L 287.310624 132.290071 
L 289.08203 132.290071 
L 290.853436 132.290071 
L 292.624842 132.290071 
L 294.396248 132.290071 
L 296.167654 132.29007 
L 297.93906 132.29007 
L 299.710466 132.29007 
L 301.481872 132.29007 
L 303.253278 132.29007 
L 305.024684 132.29007 
L 306.79609 132.29007 
L 308.567496 132.29007 
L 310.338902 132.29007 
L 312.110308 132.29007 
L 313.881714 132.29007 
L 315.65312 132.29007 
L 317.424526 132.29007 
L 319.195932 132.29007 
L 320.967338 132.29007 
L 322.738744 132.29007 
L 324.51015 132.29007 
L 326.281556 132.29007 
L 328.052962 132.29007 
L 329.824368 132.29007 
" clip-path="url(#pf29e15c8f2)" style="fill: none; stroke: #44bf70; stroke-width: 1.5; stroke-linecap: round"/>
   </g>
   <g id="line2d_24">
    <path d="M 200.511729 30.585163 
L 202.283135 102.317636 
L 204.054542 75.813524 
L 205.825948 61.900565 
L 207.597354 80.060814 
L 209.36876 86.985283 
L 211.140166 94.313819 
L 212.911572 105.024282 
L 214.682978 116.491953 
L 216.454384 129.304276 
L 218.22579 141.722087 
L 219.997196 151.514217 
L 221.768602 157.685528 
L 223.540008 159.897802 
L 225.311414 158.602253 
L 227.08282 154.93052 
L 228.854226 150.192551 
L 230.625632 145.464197 
L 232.397038 141.402379 
L 234.168444 138.263392 
L 235.93985 136.026684 
L 237.711256 134.533261 
L 239.482662 133.588206 
L 241.254068 133.016714 
L 243.025474 132.684497 
L 244.79688 132.498057 
L 246.568286 132.396744 
L 248.339692 132.343323 
L 250.111098 132.315951 
L 251.882504 132.302313 
L 253.65391 132.295701 
L 255.425316 132.292584 
L 257.196722 132.291157 
L 258.968128 132.290523 
L 260.739534 132.29025 
L 262.51094 132.290138 
L 264.282346 132.290093 
L 266.053752 132.290077 
L 267.825158 132.290072 
L 269.596564 132.29007 
L 271.36797 132.29007 
L 273.139376 132.29007 
L 274.910782 132.29007 
L 276.682188 132.29007 
L 278.453594 132.29007 
L 280.225 132.29007 
L 281.996406 132.29007 
L 283.767812 132.29007 
L 285.539218 132.29007 
L 287.310624 132.29007 
L 289.08203 132.29007 
L 290.853436 132.29007 
L 292.624842 132.29007 
L 294.396248 132.29007 
L 296.167654 132.29007 
L 297.93906 132.29007 
L 299.710466 132.29007 
L 301.481872 132.29007 
L 303.253278 132.29007 
L 305.024684 132.29007 
L 306.79609 132.29007 
L 308.567496 132.29007 
L 310.338902 132.29007 
L 312.110308 132.29007 
L 313.881714 132.29007 
L 315.65312 132.29007 
L 317.424526 132.29007 
L 319.195932 132.29007 
L 320.967338 132.29007 
L 322.738744 132.29007 
L 324.51015 132.29007 
L 326.281556 132.29007 
L 328.052962 132.29007 
L 329.824368 132.29007 
" clip-path="url(#pf29e15c8f2)" style="fill: none; stroke: #bddf26; stroke-width: 1.5; stroke-linecap: round"/>
   </g>
   <g id="patch_8">
    <path d="M 194.046098 166.363434 
L 194.046098 24.119531 
" style="fill: none; stroke: #cccccc; stroke-linejoin: miter; stroke-linecap: square"/>
   </g>
   <g id="patch_9">
    <path d="M 336.29 166.363434 
L 336.29 24.119531 
" style="fill: none; stroke: #cccccc; stroke-linejoin: miter; stroke-linecap: square"/>
   </g>
   <g id="patch_10">
    <path d="M 194.046098 166.363434 
L 336.29 166.363434 
" style="fill: none; stroke: #cccccc; stroke-linejoin: miter; stroke-linecap: square"/>
   </g>
   <g id="patch_11">
    <path d="M 194.046098 24.119531 
L 336.29 24.119531 
" style="fill: none; stroke: #cccccc; stroke-linejoin: miter; stroke-linecap: square"/>
   </g>
   <g id="text_16">
    <!-- Peoria -->
    <g style="fill: #262626" transform="translate(243.489533 18.119531)scale(0.15 -0.15)">
     <defs>
      <path id="ArialMT-50" d="M 494 0 
L 494 4581 
L 2222 4581 
Q 2678 4581 2919 4538 
Q 3256 4481 3484 4323 
Q 3713 4166 3852 3881 
Q 3991 3597 3991 3256 
Q 3991 2672 3619 2267 
Q 3247 1863 2275 1863 
L 1100 1863 
L 1100 0 
L 494 0 
z
M 1100 2403 
L 2284 2403 
Q 2872 2403 3119 2622 
Q 3366 2841 3366 3238 
Q 3366 3525 3220 3729 
Q 3075 3934 2838 4000 
Q 2684 4041 2272 4041 
L 1100 4041 
L 1100 2403 
z
" transform="scale(0.015625)"/>
     </defs>
     <use xlink:href="#ArialMT-50"/>
     <use xlink:href="#ArialMT-65" x="66.699219"/>
     <use xlink:href="#ArialMT-6f" x="122.314453"/>
     <use xlink:href="#ArialMT-72" x="177.929688"/>
     <use xlink:href="#ArialMT-69" x="211.230469"/>
     <use xlink:href="#ArialMT-61" x="233.447266"/>
    </g>
   </g>
  </g>
  <g id="legend_1">
   <g id="patch_12">
    <path d="M 353.359219 151.27492 
L 416.69 151.27492 
Q 418.89 151.27492 418.89 149.07492 
L 418.89 55.766326 
Q 418.89 53.566326 416.69 53.566326 
L 353.359219 53.566326 
Q 351.159219 53.566326 351.159219 55.766326 
L 351.159219 149.07492 
Q 351.159219 151.27492 353.359219 151.27492 
z
" style="fill: #ffffff; opacity: 0.8; stroke: #cccccc; stroke-linejoin: miter"/>
   </g>
   <g id="text_17">
    <!-- $g_M$ -->
    <g style="fill: #262626" transform="translate(377.404609 66.555701)scale(0.12 -0.12)">
     <defs>
      <path id="DejaVuSans-Oblique-67" d="M 3816 3500 
L 3219 434 
Q 3047 -456 2561 -893 
Q 2075 -1331 1253 -1331 
Q 950 -1331 690 -1286 
Q 431 -1241 206 -1147 
L 313 -588 
Q 525 -725 762 -790 
Q 1000 -856 1269 -856 
Q 1816 -856 2167 -557 
Q 2519 -259 2631 300 
L 2681 563 
Q 2441 288 2122 144 
Q 1803 0 1434 0 
Q 903 0 598 351 
Q 294 703 294 1319 
Q 294 1803 478 2267 
Q 663 2731 997 3091 
Q 1219 3328 1514 3456 
Q 1809 3584 2131 3584 
Q 2484 3584 2746 3420 
Q 3009 3256 3138 2956 
L 3238 3500 
L 3816 3500 
z
M 2950 2216 
Q 2950 2641 2750 2872 
Q 2550 3103 2181 3103 
Q 1953 3103 1747 3012 
Q 1541 2922 1394 2759 
Q 1156 2491 1023 2127 
Q 891 1763 891 1375 
Q 891 944 1092 712 
Q 1294 481 1672 481 
Q 2219 481 2584 976 
Q 2950 1472 2950 2216 
z
" transform="scale(0.015625)"/>
      <path id="DejaVuSans-Oblique-4d" d="M 1081 4666 
L 2028 4666 
L 2572 1522 
L 4378 4666 
L 5350 4666 
L 4441 0 
L 3828 0 
L 4622 4091 
L 2791 897 
L 2175 897 
L 1581 4103 
L 788 0 
L 172 0 
L 1081 4666 
z
" transform="scale(0.015625)"/>
     </defs>
     <use xlink:href="#DejaVuSans-Oblique-67"/>
     <use xlink:href="#DejaVuSans-Oblique-4d" transform="translate(63.476562 -16.40625)scale(0.7)"/>
    </g>
   </g>
   <g id="line2d_25">
    <path d="M 355.559219 78.599295 
L 366.559219 78.599295 
L 377.559219 78.599295 
" style="fill: none; stroke: #482475; stroke-width: 1.5; stroke-linecap: round"/>
   </g>
   <g id="text_18">
    <!-- 1e-11 -->
    <g style="fill: #262626" transform="translate(386.359219 82.449295)scale(0.11 -0.11)">
     <defs>
      <path id="ArialMT-31" d="M 2384 0 
L 1822 0 
L 1822 3584 
Q 1619 3391 1289 3197 
Q 959 3003 697 2906 
L 697 3450 
Q 1169 3672 1522 3987 
Q 1875 4303 2022 4600 
L 2384 4600 
L 2384 0 
z
" transform="scale(0.015625)"/>
      <path id="ArialMT-2d" d="M 203 1375 
L 203 1941 
L 1931 1941 
L 1931 1375 
L 203 1375 
z
" transform="scale(0.015625)"/>
     </defs>
     <use xlink:href="#ArialMT-31"/>
     <use xlink:href="#ArialMT-65" x="55.615234"/>
     <use xlink:href="#ArialMT-2d" x="111.230469"/>
     <use xlink:href="#ArialMT-31" x="144.53125"/>
     <use xlink:href="#ArialMT-31" x="192.771484"/>
    </g>
   </g>
   <g id="line2d_26">
    <path d="M 355.559219 94.159139 
L 366.559219 94.159139 
L 377.559219 94.159139 
" style="fill: none; stroke: #355f8d; stroke-width: 1.5; stroke-linecap: round"/>
   </g>
   <g id="text_19">
    <!-- 1e-10 -->
    <g style="fill: #262626" transform="translate(386.359219 98.009139)scale(0.11 -0.11)">
     <use xlink:href="#ArialMT-31"/>
     <use xlink:href="#ArialMT-65" x="55.615234"/>
     <use xlink:href="#ArialMT-2d" x="111.230469"/>
     <use xlink:href="#ArialMT-31" x="144.53125"/>
     <use xlink:href="#ArialMT-30" x="200.146484"/>
    </g>
   </g>
   <g id="line2d_27">
    <path d="M 355.559219 109.718982 
L 366.559219 109.718982 
L 377.559219 109.718982 
" style="fill: none; stroke: #21918c; stroke-width: 1.5; stroke-linecap: round"/>
   </g>
   <g id="text_20">
    <!-- 1e-09 -->
    <g style="fill: #262626" transform="translate(386.359219 113.568982)scale(0.11 -0.11)">
     <defs>
      <path id="ArialMT-39" d="M 350 1059 
L 891 1109 
Q 959 728 1153 556 
Q 1347 384 1650 384 
Q 1909 384 2104 503 
Q 2300 622 2425 820 
Q 2550 1019 2634 1356 
Q 2719 1694 2719 2044 
Q 2719 2081 2716 2156 
Q 2547 1888 2255 1720 
Q 1963 1553 1622 1553 
Q 1053 1553 659 1965 
Q 266 2378 266 3053 
Q 266 3750 677 4175 
Q 1088 4600 1706 4600 
Q 2153 4600 2523 4359 
Q 2894 4119 3086 3673 
Q 3278 3228 3278 2384 
Q 3278 1506 3087 986 
Q 2897 466 2520 194 
Q 2144 -78 1638 -78 
Q 1100 -78 759 220 
Q 419 519 350 1059 
z
M 2653 3081 
Q 2653 3566 2395 3850 
Q 2138 4134 1775 4134 
Q 1400 4134 1122 3828 
Q 844 3522 844 3034 
Q 844 2597 1108 2323 
Q 1372 2050 1759 2050 
Q 2150 2050 2401 2323 
Q 2653 2597 2653 3081 
z
" transform="scale(0.015625)"/>
     </defs>
     <use xlink:href="#ArialMT-31"/>
     <use xlink:href="#ArialMT-65" x="55.615234"/>
     <use xlink:href="#ArialMT-2d" x="111.230469"/>
     <use xlink:href="#ArialMT-30" x="144.53125"/>
     <use xlink:href="#ArialMT-39" x="200.146484"/>
    </g>
   </g>
   <g id="line2d_28">
    <path d="M 355.559219 125.278826 
L 366.559219 125.278826 
L 377.559219 125.278826 
" style="fill: none; stroke: #44bf70; stroke-width: 1.5; stroke-linecap: round"/>
   </g>
   <g id="text_21">
    <!-- 1e-08 -->
    <g style="fill: #262626" transform="translate(386.359219 129.128826)scale(0.11 -0.11)">
     <defs>
      <path id="ArialMT-38" d="M 1131 2484 
Q 781 2613 612 2850 
Q 444 3088 444 3419 
Q 444 3919 803 4259 
Q 1163 4600 1759 4600 
Q 2359 4600 2725 4251 
Q 3091 3903 3091 3403 
Q 3091 3084 2923 2848 
Q 2756 2613 2416 2484 
Q 2838 2347 3058 2040 
Q 3278 1734 3278 1309 
Q 3278 722 2862 322 
Q 2447 -78 1769 -78 
Q 1091 -78 675 323 
Q 259 725 259 1325 
Q 259 1772 486 2073 
Q 713 2375 1131 2484 
z
M 1019 3438 
Q 1019 3113 1228 2906 
Q 1438 2700 1772 2700 
Q 2097 2700 2305 2904 
Q 2513 3109 2513 3406 
Q 2513 3716 2298 3927 
Q 2084 4138 1766 4138 
Q 1444 4138 1231 3931 
Q 1019 3725 1019 3438 
z
M 838 1322 
Q 838 1081 952 856 
Q 1066 631 1291 507 
Q 1516 384 1775 384 
Q 2178 384 2440 643 
Q 2703 903 2703 1303 
Q 2703 1709 2433 1975 
Q 2163 2241 1756 2241 
Q 1359 2241 1098 1978 
Q 838 1716 838 1322 
z
" transform="scale(0.015625)"/>
     </defs>
     <use xlink:href="#ArialMT-31"/>
     <use xlink:href="#ArialMT-65" x="55.615234"/>
     <use xlink:href="#ArialMT-2d" x="111.230469"/>
     <use xlink:href="#ArialMT-30" x="144.53125"/>
     <use xlink:href="#ArialMT-38" x="200.146484"/>
    </g>
   </g>
   <g id="line2d_29">
    <path d="M 355.559219 140.83867 
L 366.559219 140.83867 
L 377.559219 140.83867 
" style="fill: none; stroke: #bddf26; stroke-width: 1.5; stroke-linecap: round"/>
   </g>
   <g id="text_22">
    <!-- 1e-07 -->
    <g style="fill: #262626" transform="translate(386.359219 144.68867)scale(0.11 -0.11)">
     <use xlink:href="#ArialMT-31"/>
     <use xlink:href="#ArialMT-65" x="55.615234"/>
     <use xlink:href="#ArialMT-2d" x="111.230469"/>
     <use xlink:href="#ArialMT-30" x="144.53125"/>
     <use xlink:href="#ArialMT-37" x="200.146484"/>
    </g>
   </g>
  </g>
 </g>
 <defs>
  <clipPath id="pbfc10df418">
   <rect x="44.69" y="24.119531" width="142.243902" height="142.243902"/>
  </clipPath>
  <clipPath id="pf29e15c8f2">
   <rect x="194.046098" y="24.119531" width="142.243902" height="142.243902"/>
  </clipPath>
 </defs>
</svg>
