<?xml version="1.0" encoding="utf-8" standalone="no"?>
<!DOCTYPE svg PUBLIC "-//W3C//DTD SVG 1.1//EN"
  "http://www.w3.org/Graphics/SVG/1.1/DTD/svg11.dtd">
<svg xmlns:xlink="http://www.w3.org/1999/xlink" width="436.931719pt" height="204.841246pt" viewBox="0 0 436.931719 204.841246" xmlns="http://www.w3.org/2000/svg" version="1.1">
 <metadata>
  <rdf:RDF xmlns:dc="http://purl.org/dc/elements/1.1/" xmlns:cc="http://creativecommons.org/ns#" xmlns:rdf="http://www.w3.org/1999/02/22-rdf-syntax-ns#">
   <cc:Work>
    <dc:type rdf:resource="http://purl.org/dc/dcmitype/StillImage"/>
    <dc:date>2022-10-12T15:00:33.388890</dc:date>
    <dc:format>image/svg+xml</dc:format>
    <dc:creator>
     <cc:Agent>
      <dc:title>Matplotlib v3.5.1, https://matplotlib.org/</dc:title>
     </cc:Agent>
    </dc:creator>
   </cc:Work>
  </rdf:RDF>
 </metadata>
 <defs>
  <style type="text/css">*{stroke-linejoin: round; stroke-linecap: butt}</style>
 </defs>
 <g id="figure_1">
  <g id="patch_1">
   <path d="M 0 204.841246 
L 436.931719 204.841246 
L 436.931719 0 
L 0 0 
z
" style="fill: #ffffff"/>
  </g>
  <g id="axes_1">
   <g id="patch_2">
    <path d="M 57.231719 166.363434 
L 199.475621 166.363434 
L 199.475621 24.119531 
L 57.231719 24.119531 
z
" style="fill: #ffffff"/>
   </g>
   <g id="matplotlib.axis_1">
    <g id="xtick_1">
     <g id="line2d_1">
      <path d="M 84.223166 166.363434 
L 84.223166 24.119531 
" clip-path="url(#p91a4aff137)" style="fill: none; stroke: #cccccc; stroke-linecap: round"/>
     </g>
     <g id="text_1">
      <!-- 20 -->
      <g style="fill: #262626" transform="translate(78.106135 177.737027)scale(0.11 -0.11)">
       <defs>
        <path id="ArialMT-32" d="M 3222 541 
L 3222 0 
L 194 0 
Q 188 203 259 391 
Q 375 700 629 1000 
Q 884 1300 1366 1694 
Q 2113 2306 2375 2664 
Q 2638 3022 2638 3341 
Q 2638 3675 2398 3904 
Q 2159 4134 1775 4134 
Q 1369 4134 1125 3890 
Q 881 3647 878 3216 
L 300 3275 
Q 359 3922 746 4261 
Q 1134 4600 1788 4600 
Q 2447 4600 2831 4234 
Q 3216 3869 3216 3328 
Q 3216 3053 3103 2787 
Q 2991 2522 2730 2228 
Q 2469 1934 1863 1422 
Q 1356 997 1212 845 
Q 1069 694 975 541 
L 3222 541 
z
" transform="scale(0.015625)"/>
        <path id="ArialMT-30" d="M 266 2259 
Q 266 3072 433 3567 
Q 600 4063 929 4331 
Q 1259 4600 1759 4600 
Q 2128 4600 2406 4451 
Q 2684 4303 2865 4023 
Q 3047 3744 3150 3342 
Q 3253 2941 3253 2259 
Q 3253 1453 3087 958 
Q 2922 463 2592 192 
Q 2263 -78 1759 -78 
Q 1097 -78 719 397 
Q 266 969 266 2259 
z
M 844 2259 
Q 844 1131 1108 757 
Q 1372 384 1759 384 
Q 2147 384 2411 759 
Q 2675 1134 2675 2259 
Q 2675 3391 2411 3762 
Q 2147 4134 1753 4134 
Q 1366 4134 1134 3806 
Q 844 3388 844 2259 
z
" transform="scale(0.015625)"/>
       </defs>
       <use xlink:href="#ArialMT-32"/>
       <use xlink:href="#ArialMT-30" x="55.615234"/>
      </g>
     </g>
    </g>
    <g id="xtick_2">
     <g id="line2d_2">
      <path d="M 125.274798 166.363434 
L 125.274798 24.119531 
" clip-path="url(#p91a4aff137)" style="fill: none; stroke: #cccccc; stroke-linecap: round"/>
     </g>
     <g id="text_2">
      <!-- 40 -->
      <g style="fill: #262626" transform="translate(119.157766 177.737027)scale(0.11 -0.11)">
       <defs>
        <path id="ArialMT-34" d="M 2069 0 
L 2069 1097 
L 81 1097 
L 81 1613 
L 2172 4581 
L 2631 4581 
L 2631 1613 
L 3250 1613 
L 3250 1097 
L 2631 1097 
L 2631 0 
L 2069 0 
z
M 2069 1613 
L 2069 3678 
L 634 1613 
L 2069 1613 
z
" transform="scale(0.015625)"/>
       </defs>
       <use xlink:href="#ArialMT-34"/>
       <use xlink:href="#ArialMT-30" x="55.615234"/>
      </g>
     </g>
    </g>
    <g id="xtick_3">
     <g id="line2d_3">
      <path d="M 166.326429 166.363434 
L 166.326429 24.119531 
" clip-path="url(#p91a4aff137)" style="fill: none; stroke: #cccccc; stroke-linecap: round"/>
     </g>
     <g id="text_3">
      <!-- 60 -->
      <g style="fill: #262626" transform="translate(160.209398 177.737027)scale(0.11 -0.11)">
       <defs>
        <path id="ArialMT-36" d="M 3184 3459 
L 2625 3416 
Q 2550 3747 2413 3897 
Q 2184 4138 1850 4138 
Q 1581 4138 1378 3988 
Q 1113 3794 959 3422 
Q 806 3050 800 2363 
Q 1003 2672 1297 2822 
Q 1591 2972 1913 2972 
Q 2475 2972 2870 2558 
Q 3266 2144 3266 1488 
Q 3266 1056 3080 686 
Q 2894 316 2569 119 
Q 2244 -78 1831 -78 
Q 1128 -78 684 439 
Q 241 956 241 2144 
Q 241 3472 731 4075 
Q 1159 4600 1884 4600 
Q 2425 4600 2770 4297 
Q 3116 3994 3184 3459 
z
M 888 1484 
Q 888 1194 1011 928 
Q 1134 663 1356 523 
Q 1578 384 1822 384 
Q 2178 384 2434 671 
Q 2691 959 2691 1453 
Q 2691 1928 2437 2201 
Q 2184 2475 1800 2475 
Q 1419 2475 1153 2201 
Q 888 1928 888 1484 
z
" transform="scale(0.015625)"/>
       </defs>
       <use xlink:href="#ArialMT-36"/>
       <use xlink:href="#ArialMT-30" x="55.615234"/>
      </g>
     </g>
    </g>
    <g id="text_4">
     <!-- Years -->
     <g style="fill: #262626" transform="translate(109.446639 194.659996)scale(0.15 -0.15)">
      <defs>
       <path id="ArialMT-59" d="M 1784 0 
L 1784 1941 
L 19 4581 
L 756 4581 
L 1659 3200 
Q 1909 2813 2125 2425 
Q 2331 2784 2625 3234 
L 3513 4581 
L 4219 4581 
L 2391 1941 
L 2391 0 
L 1784 0 
z
" transform="scale(0.015625)"/>
       <path id="ArialMT-65" d="M 2694 1069 
L 3275 997 
Q 3138 488 2766 206 
Q 2394 -75 1816 -75 
Q 1088 -75 661 373 
Q 234 822 234 1631 
Q 234 2469 665 2931 
Q 1097 3394 1784 3394 
Q 2450 3394 2872 2941 
Q 3294 2488 3294 1666 
Q 3294 1616 3291 1516 
L 816 1516 
Q 847 969 1125 678 
Q 1403 388 1819 388 
Q 2128 388 2347 550 
Q 2566 713 2694 1069 
z
M 847 1978 
L 2700 1978 
Q 2663 2397 2488 2606 
Q 2219 2931 1791 2931 
Q 1403 2931 1139 2672 
Q 875 2413 847 1978 
z
" transform="scale(0.015625)"/>
       <path id="ArialMT-61" d="M 2588 409 
Q 2275 144 1986 34 
Q 1697 -75 1366 -75 
Q 819 -75 525 192 
Q 231 459 231 875 
Q 231 1119 342 1320 
Q 453 1522 633 1644 
Q 813 1766 1038 1828 
Q 1203 1872 1538 1913 
Q 2219 1994 2541 2106 
Q 2544 2222 2544 2253 
Q 2544 2597 2384 2738 
Q 2169 2928 1744 2928 
Q 1347 2928 1158 2789 
Q 969 2650 878 2297 
L 328 2372 
Q 403 2725 575 2942 
Q 747 3159 1072 3276 
Q 1397 3394 1825 3394 
Q 2250 3394 2515 3294 
Q 2781 3194 2906 3042 
Q 3031 2891 3081 2659 
Q 3109 2516 3109 2141 
L 3109 1391 
Q 3109 606 3145 398 
Q 3181 191 3288 0 
L 2700 0 
Q 2613 175 2588 409 
z
M 2541 1666 
Q 2234 1541 1622 1453 
Q 1275 1403 1131 1340 
Q 988 1278 909 1158 
Q 831 1038 831 891 
Q 831 666 1001 516 
Q 1172 366 1500 366 
Q 1825 366 2078 508 
Q 2331 650 2450 897 
Q 2541 1088 2541 1459 
L 2541 1666 
z
" transform="scale(0.015625)"/>
       <path id="ArialMT-72" d="M 416 0 
L 416 3319 
L 922 3319 
L 922 2816 
Q 1116 3169 1280 3281 
Q 1444 3394 1641 3394 
Q 1925 3394 2219 3213 
L 2025 2691 
Q 1819 2813 1613 2813 
Q 1428 2813 1281 2702 
Q 1134 2591 1072 2394 
Q 978 2094 978 1738 
L 978 0 
L 416 0 
z
" transform="scale(0.015625)"/>
       <path id="ArialMT-73" d="M 197 991 
L 753 1078 
Q 800 744 1014 566 
Q 1228 388 1613 388 
Q 2000 388 2187 545 
Q 2375 703 2375 916 
Q 2375 1106 2209 1216 
Q 2094 1291 1634 1406 
Q 1016 1563 777 1677 
Q 538 1791 414 1992 
Q 291 2194 291 2438 
Q 291 2659 392 2848 
Q 494 3038 669 3163 
Q 800 3259 1026 3326 
Q 1253 3394 1513 3394 
Q 1903 3394 2198 3281 
Q 2494 3169 2634 2976 
Q 2775 2784 2828 2463 
L 2278 2388 
Q 2241 2644 2061 2787 
Q 1881 2931 1553 2931 
Q 1166 2931 1000 2803 
Q 834 2675 834 2503 
Q 834 2394 903 2306 
Q 972 2216 1119 2156 
Q 1203 2125 1616 2013 
Q 2213 1853 2448 1751 
Q 2684 1650 2818 1456 
Q 2953 1263 2953 975 
Q 2953 694 2789 445 
Q 2625 197 2315 61 
Q 2006 -75 1616 -75 
Q 969 -75 630 194 
Q 291 463 197 991 
z
" transform="scale(0.015625)"/>
      </defs>
      <use xlink:href="#ArialMT-59"/>
      <use xlink:href="#ArialMT-65" x="57.574219"/>
      <use xlink:href="#ArialMT-61" x="113.189453"/>
      <use xlink:href="#ArialMT-72" x="168.804688"/>
      <use xlink:href="#ArialMT-73" x="202.105469"/>
     </g>
    </g>
   </g>
   <g id="matplotlib.axis_2">
    <g id="ytick_1">
     <g id="line2d_4">
      <path d="M 57.231719 148.453794 
L 199.475621 148.453794 
" clip-path="url(#p91a4aff137)" style="fill: none; stroke: #cccccc; stroke-linecap: round"/>
     </g>
     <g id="text_5">
      <!-- −0.50 -->
      <g style="fill: #262626" transform="translate(25.9 152.390591)scale(0.11 -0.11)">
       <defs>
        <path id="ArialMT-2212" d="M 3381 1997 
L 356 1997 
L 356 2522 
L 3381 2522 
L 3381 1997 
z
" transform="scale(0.015625)"/>
        <path id="ArialMT-2e" d="M 581 0 
L 581 641 
L 1222 641 
L 1222 0 
L 581 0 
z
" transform="scale(0.015625)"/>
        <path id="ArialMT-35" d="M 266 1200 
L 856 1250 
Q 922 819 1161 601 
Q 1400 384 1738 384 
Q 2144 384 2425 690 
Q 2706 997 2706 1503 
Q 2706 1984 2436 2262 
Q 2166 2541 1728 2541 
Q 1456 2541 1237 2417 
Q 1019 2294 894 2097 
L 366 2166 
L 809 4519 
L 3088 4519 
L 3088 3981 
L 1259 3981 
L 1013 2750 
Q 1425 3038 1878 3038 
Q 2478 3038 2890 2622 
Q 3303 2206 3303 1553 
Q 3303 931 2941 478 
Q 2500 -78 1738 -78 
Q 1113 -78 717 272 
Q 322 622 266 1200 
z
" transform="scale(0.015625)"/>
       </defs>
       <use xlink:href="#ArialMT-2212"/>
       <use xlink:href="#ArialMT-30" x="58.398438"/>
       <use xlink:href="#ArialMT-2e" x="114.013672"/>
       <use xlink:href="#ArialMT-35" x="141.796875"/>
       <use xlink:href="#ArialMT-30" x="197.412109"/>
      </g>
     </g>
    </g>
    <g id="ytick_2">
     <g id="line2d_5">
      <path d="M 57.231719 122.632489 
L 199.475621 122.632489 
" clip-path="url(#p91a4aff137)" style="fill: none; stroke: #cccccc; stroke-linecap: round"/>
     </g>
     <g id="text_6">
      <!-- −0.25 -->
      <g style="fill: #262626" transform="translate(25.9 126.569286)scale(0.11 -0.11)">
       <use xlink:href="#ArialMT-2212"/>
       <use xlink:href="#ArialMT-30" x="58.398438"/>
       <use xlink:href="#ArialMT-2e" x="114.013672"/>
       <use xlink:href="#ArialMT-32" x="141.796875"/>
       <use xlink:href="#ArialMT-35" x="197.412109"/>
      </g>
     </g>
    </g>
    <g id="ytick_3">
     <g id="line2d_6">
      <path d="M 57.231719 96.811184 
L 199.475621 96.811184 
" clip-path="url(#p91a4aff137)" style="fill: none; stroke: #cccccc; stroke-linecap: round"/>
     </g>
     <g id="text_7">
      <!-- 0.00 -->
      <g style="fill: #262626" transform="translate(32.324688 100.747981)scale(0.11 -0.11)">
       <use xlink:href="#ArialMT-30"/>
       <use xlink:href="#ArialMT-2e" x="55.615234"/>
       <use xlink:href="#ArialMT-30" x="83.398438"/>
       <use xlink:href="#ArialMT-30" x="139.013672"/>
      </g>
     </g>
    </g>
    <g id="ytick_4">
     <g id="line2d_7">
      <path d="M 57.231719 70.989879 
L 199.475621 70.989879 
" clip-path="url(#p91a4aff137)" style="fill: none; stroke: #cccccc; stroke-linecap: round"/>
     </g>
     <g id="text_8">
      <!-- 0.25 -->
      <g style="fill: #262626" transform="translate(32.324688 74.926676)scale(0.11 -0.11)">
       <use xlink:href="#ArialMT-30"/>
       <use xlink:href="#ArialMT-2e" x="55.615234"/>
       <use xlink:href="#ArialMT-32" x="83.398438"/>
       <use xlink:href="#ArialMT-35" x="139.013672"/>
      </g>
     </g>
    </g>
    <g id="ytick_5">
     <g id="line2d_8">
      <path d="M 57.231719 45.168574 
L 199.475621 45.168574 
" clip-path="url(#p91a4aff137)" style="fill: none; stroke: #cccccc; stroke-linecap: round"/>
     </g>
     <g id="text_9">
      <!-- 0.50 -->
      <g style="fill: #262626" transform="translate(32.324688 49.105371)scale(0.11 -0.11)">
       <use xlink:href="#ArialMT-30"/>
       <use xlink:href="#ArialMT-2e" x="55.615234"/>
       <use xlink:href="#ArialMT-35" x="83.398438"/>
       <use xlink:href="#ArialMT-30" x="139.013672"/>
      </g>
     </g>
    </g>
    <g id="text_10">
     <!-- Sensitivity of $\lambda$ -->
     <g style="fill: #262626" transform="translate(18.6 143.916482)rotate(-90)scale(0.15 -0.15)">
      <defs>
       <path id="ArialMT-53" d="M 288 1472 
L 859 1522 
Q 900 1178 1048 958 
Q 1197 738 1509 602 
Q 1822 466 2213 466 
Q 2559 466 2825 569 
Q 3091 672 3220 851 
Q 3350 1031 3350 1244 
Q 3350 1459 3225 1620 
Q 3100 1781 2813 1891 
Q 2628 1963 1997 2114 
Q 1366 2266 1113 2400 
Q 784 2572 623 2826 
Q 463 3081 463 3397 
Q 463 3744 659 4045 
Q 856 4347 1234 4503 
Q 1613 4659 2075 4659 
Q 2584 4659 2973 4495 
Q 3363 4331 3572 4012 
Q 3781 3694 3797 3291 
L 3216 3247 
Q 3169 3681 2898 3903 
Q 2628 4125 2100 4125 
Q 1550 4125 1298 3923 
Q 1047 3722 1047 3438 
Q 1047 3191 1225 3031 
Q 1400 2872 2139 2705 
Q 2878 2538 3153 2413 
Q 3553 2228 3743 1945 
Q 3934 1663 3934 1294 
Q 3934 928 3725 604 
Q 3516 281 3123 101 
Q 2731 -78 2241 -78 
Q 1619 -78 1198 103 
Q 778 284 539 648 
Q 300 1013 288 1472 
z
" transform="scale(0.015625)"/>
       <path id="ArialMT-6e" d="M 422 0 
L 422 3319 
L 928 3319 
L 928 2847 
Q 1294 3394 1984 3394 
Q 2284 3394 2536 3286 
Q 2788 3178 2913 3003 
Q 3038 2828 3088 2588 
Q 3119 2431 3119 2041 
L 3119 0 
L 2556 0 
L 2556 2019 
Q 2556 2363 2490 2533 
Q 2425 2703 2258 2804 
Q 2091 2906 1866 2906 
Q 1506 2906 1245 2678 
Q 984 2450 984 1813 
L 984 0 
L 422 0 
z
" transform="scale(0.015625)"/>
       <path id="ArialMT-69" d="M 425 3934 
L 425 4581 
L 988 4581 
L 988 3934 
L 425 3934 
z
M 425 0 
L 425 3319 
L 988 3319 
L 988 0 
L 425 0 
z
" transform="scale(0.015625)"/>
       <path id="ArialMT-74" d="M 1650 503 
L 1731 6 
Q 1494 -44 1306 -44 
Q 1000 -44 831 53 
Q 663 150 594 308 
Q 525 466 525 972 
L 525 2881 
L 113 2881 
L 113 3319 
L 525 3319 
L 525 4141 
L 1084 4478 
L 1084 3319 
L 1650 3319 
L 1650 2881 
L 1084 2881 
L 1084 941 
Q 1084 700 1114 631 
Q 1144 563 1211 522 
Q 1278 481 1403 481 
Q 1497 481 1650 503 
z
" transform="scale(0.015625)"/>
       <path id="ArialMT-76" d="M 1344 0 
L 81 3319 
L 675 3319 
L 1388 1331 
Q 1503 1009 1600 663 
Q 1675 925 1809 1294 
L 2547 3319 
L 3125 3319 
L 1869 0 
L 1344 0 
z
" transform="scale(0.015625)"/>
       <path id="ArialMT-79" d="M 397 -1278 
L 334 -750 
Q 519 -800 656 -800 
Q 844 -800 956 -737 
Q 1069 -675 1141 -563 
Q 1194 -478 1313 -144 
Q 1328 -97 1363 -6 
L 103 3319 
L 709 3319 
L 1400 1397 
Q 1534 1031 1641 628 
Q 1738 1016 1872 1384 
L 2581 3319 
L 3144 3319 
L 1881 -56 
Q 1678 -603 1566 -809 
Q 1416 -1088 1222 -1217 
Q 1028 -1347 759 -1347 
Q 597 -1347 397 -1278 
z
" transform="scale(0.015625)"/>
       <path id="ArialMT-20" transform="scale(0.015625)"/>
       <path id="ArialMT-6f" d="M 213 1659 
Q 213 2581 725 3025 
Q 1153 3394 1769 3394 
Q 2453 3394 2887 2945 
Q 3322 2497 3322 1706 
Q 3322 1066 3130 698 
Q 2938 331 2570 128 
Q 2203 -75 1769 -75 
Q 1072 -75 642 372 
Q 213 819 213 1659 
z
M 791 1659 
Q 791 1022 1069 705 
Q 1347 388 1769 388 
Q 2188 388 2466 706 
Q 2744 1025 2744 1678 
Q 2744 2294 2464 2611 
Q 2184 2928 1769 2928 
Q 1347 2928 1069 2612 
Q 791 2297 791 1659 
z
" transform="scale(0.015625)"/>
       <path id="ArialMT-66" d="M 556 0 
L 556 2881 
L 59 2881 
L 59 3319 
L 556 3319 
L 556 3672 
Q 556 4006 616 4169 
Q 697 4388 901 4523 
Q 1106 4659 1475 4659 
Q 1713 4659 2000 4603 
L 1916 4113 
Q 1741 4144 1584 4144 
Q 1328 4144 1222 4034 
Q 1116 3925 1116 3625 
L 1116 3319 
L 1763 3319 
L 1763 2881 
L 1116 2881 
L 1116 0 
L 556 0 
z
" transform="scale(0.015625)"/>
       <path id="DejaVuSans-Oblique-3bb" d="M 2350 4316 
L 3125 0 
L 2516 0 
L 2038 2588 
L 328 0 
L -281 0 
L 1903 3356 
L 1794 3975 
Q 1725 4369 1391 4369 
L 1091 4369 
L 1184 4863 
L 1550 4856 
Q 2253 4847 2350 4316 
z
" transform="scale(0.015625)"/>
      </defs>
      <use xlink:href="#ArialMT-53" transform="translate(0 0.015625)"/>
      <use xlink:href="#ArialMT-65" transform="translate(66.699219 0.015625)"/>
      <use xlink:href="#ArialMT-6e" transform="translate(122.314453 0.015625)"/>
      <use xlink:href="#ArialMT-73" transform="translate(177.929688 0.015625)"/>
      <use xlink:href="#ArialMT-69" transform="translate(227.929688 0.015625)"/>
      <use xlink:href="#ArialMT-74" transform="translate(250.146484 0.015625)"/>
      <use xlink:href="#ArialMT-69" transform="translate(277.929688 0.015625)"/>
      <use xlink:href="#ArialMT-76" transform="translate(300.146484 0.015625)"/>
      <use xlink:href="#ArialMT-69" transform="translate(350.146484 0.015625)"/>
      <use xlink:href="#ArialMT-74" transform="translate(372.363281 0.015625)"/>
      <use xlink:href="#ArialMT-79" transform="translate(400.146484 0.015625)"/>
      <use xlink:href="#ArialMT-20" transform="translate(450.146484 0.015625)"/>
      <use xlink:href="#ArialMT-6f" transform="translate(477.929688 0.015625)"/>
      <use xlink:href="#ArialMT-66" transform="translate(533.544922 0.015625)"/>
      <use xlink:href="#ArialMT-20" transform="translate(561.328125 0.015625)"/>
      <use xlink:href="#DejaVuSans-Oblique-3bb" transform="translate(589.111328 0.015625)"/>
     </g>
    </g>
   </g>
   <g id="line2d_9">
    <path d="M 63.697351 41.915233 
L 65.749932 30.585163 
L 67.802514 31.049928 
L 69.855095 40.84651 
L 71.907677 54.838701 
L 73.960259 68.668789 
L 76.01284 79.74793 
L 78.065422 87.394713 
L 80.118003 92.06933 
L 82.170585 94.644645 
L 84.223166 95.930401 
L 86.275748 96.509847 
L 88.328329 96.740055 
L 90.380911 96.81541 
L 92.433493 96.830753 
L 94.486074 96.827482 
L 96.538656 96.821156 
L 98.591237 96.816315 
L 100.643819 96.813468 
L 102.6964 96.812047 
L 104.748982 96.811434 
L 106.801564 96.811213 
L 108.854145 96.811155 
L 110.906727 96.811153 
L 112.959308 96.811163 
L 115.01189 96.811173 
L 117.064471 96.811179 
L 119.117053 96.811182 
L 121.169634 96.811183 
L 123.222216 96.811184 
L 125.274798 96.811184 
L 127.327379 96.811184 
L 129.379961 96.811184 
L 131.432542 96.811184 
L 133.485124 96.811184 
L 135.537705 96.811184 
L 137.590287 96.811184 
L 139.642869 96.811184 
L 141.69545 96.811184 
L 143.748032 96.811184 
L 145.800613 96.811184 
L 147.853195 96.811184 
L 149.905776 96.811184 
L 151.958358 96.811184 
L 154.01094 96.811184 
L 156.063521 96.811184 
L 158.116103 96.811184 
L 160.168684 96.811184 
L 162.221266 96.811184 
L 164.273847 96.811184 
L 166.326429 96.811184 
L 168.37901 96.811184 
L 170.431592 96.811184 
L 172.484174 96.811184 
L 174.536755 96.811184 
L 176.589337 96.811184 
L 178.641918 96.811184 
L 180.6945 96.811184 
L 182.747081 96.811184 
L 184.799663 96.811184 
L 186.852245 96.811184 
L 188.904826 96.811184 
L 190.957408 96.811184 
L 193.009989 96.811184 
" clip-path="url(#p91a4aff137)" style="fill: none; stroke: #482475; stroke-width: 1.5; stroke-linecap: round"/>
   </g>
   <g id="line2d_10">
    <path d="M 63.697351 78.042956 
L 65.749932 58.987923 
L 67.802514 46.980425 
L 69.855095 42.471974 
L 71.907677 44.76907 
L 73.960259 51.681154 
L 76.01284 60.688625 
L 78.065422 69.729491 
L 80.118003 77.554489 
L 82.170585 83.681676 
L 84.223166 88.146701 
L 86.275748 91.234205 
L 88.328329 93.288913 
L 90.380911 94.618529 
L 92.433493 95.46138 
L 94.486074 95.987507 
L 96.538656 96.312095 
L 98.591237 96.510519 
L 100.643819 96.630931 
L 102.6964 96.703564 
L 104.748982 96.747157 
L 106.801564 96.77321 
L 108.854145 96.788723 
L 110.906727 96.797931 
L 112.959308 96.803381 
L 115.01189 96.806599 
L 117.064471 96.808494 
L 119.117053 96.809609 
L 121.169634 96.810263 
L 123.222216 96.810646 
L 125.274798 96.81087 
L 127.327379 96.811001 
L 129.379961 96.811078 
L 131.432542 96.811122 
L 133.485124 96.811148 
L 135.537705 96.811163 
L 137.590287 96.811172 
L 139.642869 96.811177 
L 141.69545 96.81118 
L 143.748032 96.811182 
L 145.800613 96.811183 
L 147.853195 96.811183 
L 149.905776 96.811184 
L 151.958358 96.811184 
L 154.01094 96.811184 
L 156.063521 96.811184 
L 158.116103 96.811184 
L 160.168684 96.811184 
L 162.221266 96.811184 
L 164.273847 96.811184 
L 166.326429 96.811184 
L 168.37901 96.811184 
L 170.431592 96.811184 
L 172.484174 96.811184 
L 174.536755 96.811184 
L 176.589337 96.811184 
L 178.641918 96.811184 
L 180.6945 96.811184 
L 182.747081 96.811184 
L 184.799663 96.811184 
L 186.852245 96.811184 
L 188.904826 96.811184 
L 190.957408 96.811184 
L 193.009989 96.811184 
" clip-path="url(#p91a4aff137)" style="fill: none; stroke: #355f8d; stroke-width: 1.5; stroke-linecap: round"/>
   </g>
   <g id="line2d_11">
    <path d="M 63.697351 113.439504 
L 65.749932 94.681925 
L 67.802514 78.898906 
L 69.855095 66.687991 
L 71.907677 58.657759 
L 73.960259 55.007418 
L 76.01284 55.196725 
L 78.065422 58.229102 
L 80.118003 62.977305 
L 82.170585 68.429657 
L 84.223166 73.832178 
L 86.275748 78.721469 
L 88.328329 82.88127 
L 90.380911 86.267866 
L 92.433493 88.937785 
L 94.486074 90.993276 
L 96.538656 92.547862 
L 98.591237 93.707866 
L 100.643819 94.564498 
L 102.6964 95.191965 
L 104.748982 95.64859 
L 106.801564 95.979132 
L 108.854145 96.217356 
L 110.906727 96.388409 
L 112.959308 96.510841 
L 115.01189 96.59823 
L 117.064471 96.660456 
L 119.117053 96.704668 
L 121.169634 96.736021 
L 123.222216 96.758215 
L 125.274798 96.773902 
L 127.327379 96.784973 
L 129.379961 96.792775 
L 131.432542 96.798268 
L 133.485124 96.80213 
L 135.537705 96.804843 
L 137.590287 96.806746 
L 139.642869 96.80808 
L 141.69545 96.809015 
L 143.748032 96.809669 
L 145.800613 96.810127 
L 147.853195 96.810447 
L 149.905776 96.81067 
L 151.958358 96.810826 
L 154.01094 96.810935 
L 156.063521 96.81101 
L 158.116103 96.811063 
L 160.168684 96.8111 
L 162.221266 96.811126 
L 164.273847 96.811143 
L 166.326429 96.811156 
L 168.37901 96.811164 
L 170.431592 96.81117 
L 172.484174 96.811175 
L 174.536755 96.811177 
L 176.589337 96.81118 
L 178.641918 96.811181 
L 180.6945 96.811182 
L 182.747081 96.811183 
L 184.799663 96.811183 
L 186.852245 96.811183 
L 188.904826 96.811184 
L 190.957408 96.811184 
L 193.009989 96.811184 
" clip-path="url(#p91a4aff137)" style="fill: none; stroke: #21918c; stroke-width: 1.5; stroke-linecap: round"/>
   </g>
   <g id="line2d_12">
    <path d="M 63.697351 140.884654 
L 65.749932 127.261513 
L 67.802514 113.58366 
L 69.855095 101.019144 
L 71.907677 89.917891 
L 73.960259 80.691606 
L 76.01284 73.691939 
L 78.065422 69.02008 
L 80.118003 66.540318 
L 82.170585 65.948829 
L 84.223166 66.843426 
L 86.275748 68.792494 
L 88.328329 71.392862 
L 90.380911 74.306926 
L 92.433493 77.278053 
L 94.486074 80.129278 
L 96.538656 82.752026 
L 98.591237 85.09079 
L 100.643819 87.127836 
L 102.6964 88.870112 
L 104.748982 90.339131 
L 106.801564 91.563738 
L 108.854145 92.57528 
L 110.906727 93.404604 
L 112.959308 94.080359 
L 115.01189 94.628164 
L 117.064471 95.070329 
L 119.117053 95.425916 
L 121.169634 95.710974 
L 123.222216 95.938867 
L 125.274798 96.12062 
L 127.327379 96.265267 
L 129.379961 96.380166 
L 131.432542 96.47128 
L 133.485124 96.543422 
L 135.537705 96.600463 
L 137.590287 96.645505 
L 139.642869 96.681032 
L 141.69545 96.709024 
L 143.748032 96.731055 
L 145.800613 96.748381 
L 147.853195 96.761993 
L 149.905776 96.772679 
L 151.958358 96.781061 
L 154.01094 96.787632 
L 156.063521 96.79278 
L 158.116103 96.796809 
L 160.168684 96.799962 
L 162.221266 96.802427 
L 164.273847 96.804354 
L 166.326429 96.805859 
L 168.37901 96.807034 
L 170.431592 96.807951 
L 172.484174 96.808666 
L 174.536755 96.809224 
L 176.589337 96.809659 
L 178.641918 96.809997 
L 180.6945 96.810261 
L 182.747081 96.810466 
L 184.799663 96.810626 
L 186.852245 96.810751 
L 188.904826 96.810847 
L 190.957408 96.810922 
L 193.009989 96.810981 
" clip-path="url(#p91a4aff137)" style="fill: none; stroke: #44bf70; stroke-width: 1.5; stroke-linecap: round"/>
   </g>
   <g id="line2d_13">
    <path d="M 63.697351 159.897802 
L 65.749932 151.610525 
L 67.802514 142.385834 
L 69.855095 133.003266 
L 71.907677 123.888146 
L 73.960259 115.18984 
L 76.01284 107.082096 
L 78.065422 99.762944 
L 80.118003 93.385675 
L 82.170585 88.040083 
L 84.223166 83.757568 
L 86.275748 80.517094 
L 88.328329 78.252479 
L 90.380911 76.863145 
L 92.433493 76.226719 
L 94.486074 76.211196 
L 96.538656 76.685235 
L 98.591237 77.525934 
L 100.643819 78.623938 
L 102.6964 79.886126 
L 104.748982 81.236334 
L 106.801564 82.614663 
L 108.854145 83.975899 
L 110.906727 85.287475 
L 112.959308 86.527293 
L 115.01189 87.681634 
L 117.064471 88.743261 
L 119.117053 89.709799 
L 121.169634 90.582386 
L 123.222216 91.364592 
L 125.274798 92.06157 
L 127.327379 92.679415 
L 129.379961 93.224684 
L 131.432542 93.704051 
L 133.485124 94.124063 
L 135.537705 94.490983 
L 137.590287 94.810685 
L 139.642869 95.088597 
L 141.69545 95.329683 
L 143.748032 95.538432 
L 145.800613 95.718879 
L 147.853195 95.874624 
L 149.905776 96.008862 
L 151.958358 96.124417 
L 154.01094 96.223773 
L 156.063521 96.309111 
L 158.116103 96.382336 
L 160.168684 96.44511 
L 162.221266 96.498879 
L 164.273847 96.544898 
L 166.326429 96.584255 
L 168.37901 96.617891 
L 170.431592 96.646619 
L 172.484174 96.67114 
L 174.536755 96.692058 
L 176.589337 96.709893 
L 178.641918 96.725091 
L 180.6945 96.738035 
L 182.747081 96.749056 
L 184.799663 96.758434 
L 186.852245 96.76641 
L 188.904826 96.773193 
L 190.957408 96.778957 
L 193.009989 96.783855 
" clip-path="url(#p91a4aff137)" style="fill: none; stroke: #bddf26; stroke-width: 1.5; stroke-linecap: round"/>
   </g>
   <g id="patch_3">
    <path d="M 57.231719 166.363434 
L 57.231719 24.119531 
" style="fill: none; stroke: #cccccc; stroke-linejoin: miter; stroke-linecap: square"/>
   </g>
   <g id="patch_4">
    <path d="M 199.475621 166.363434 
L 199.475621 24.119531 
" style="fill: none; stroke: #cccccc; stroke-linejoin: miter; stroke-linecap: square"/>
   </g>
   <g id="patch_5">
    <path d="M 57.231719 166.363434 
L 199.475621 166.363434 
" style="fill: none; stroke: #cccccc; stroke-linejoin: miter; stroke-linecap: square"/>
   </g>
   <g id="patch_6">
    <path d="M 57.231719 24.119531 
L 199.475621 24.119531 
" style="fill: none; stroke: #cccccc; stroke-linejoin: miter; stroke-linecap: square"/>
   </g>
   <g id="text_11">
    <!-- La Grange -->
    <g style="fill: #262626" transform="translate(92.914998 18.119531)scale(0.15 -0.15)">
     <defs>
      <path id="ArialMT-4c" d="M 469 0 
L 469 4581 
L 1075 4581 
L 1075 541 
L 3331 541 
L 3331 0 
L 469 0 
z
" transform="scale(0.015625)"/>
      <path id="ArialMT-47" d="M 2638 1797 
L 2638 2334 
L 4578 2338 
L 4578 638 
Q 4131 281 3656 101 
Q 3181 -78 2681 -78 
Q 2006 -78 1454 211 
Q 903 500 622 1047 
Q 341 1594 341 2269 
Q 341 2938 620 3517 
Q 900 4097 1425 4378 
Q 1950 4659 2634 4659 
Q 3131 4659 3532 4498 
Q 3934 4338 4162 4050 
Q 4391 3763 4509 3300 
L 3963 3150 
Q 3859 3500 3706 3700 
Q 3553 3900 3268 4020 
Q 2984 4141 2638 4141 
Q 2222 4141 1919 4014 
Q 1616 3888 1430 3681 
Q 1244 3475 1141 3228 
Q 966 2803 966 2306 
Q 966 1694 1177 1281 
Q 1388 869 1791 669 
Q 2194 469 2647 469 
Q 3041 469 3416 620 
Q 3791 772 3984 944 
L 3984 1797 
L 2638 1797 
z
" transform="scale(0.015625)"/>
      <path id="ArialMT-67" d="M 319 -275 
L 866 -356 
Q 900 -609 1056 -725 
Q 1266 -881 1628 -881 
Q 2019 -881 2231 -725 
Q 2444 -569 2519 -288 
Q 2563 -116 2559 434 
Q 2191 0 1641 0 
Q 956 0 581 494 
Q 206 988 206 1678 
Q 206 2153 378 2554 
Q 550 2956 876 3175 
Q 1203 3394 1644 3394 
Q 2231 3394 2613 2919 
L 2613 3319 
L 3131 3319 
L 3131 450 
Q 3131 -325 2973 -648 
Q 2816 -972 2473 -1159 
Q 2131 -1347 1631 -1347 
Q 1038 -1347 672 -1080 
Q 306 -813 319 -275 
z
M 784 1719 
Q 784 1066 1043 766 
Q 1303 466 1694 466 
Q 2081 466 2343 764 
Q 2606 1063 2606 1700 
Q 2606 2309 2336 2618 
Q 2066 2928 1684 2928 
Q 1309 2928 1046 2623 
Q 784 2319 784 1719 
z
" transform="scale(0.015625)"/>
     </defs>
     <use xlink:href="#ArialMT-4c"/>
     <use xlink:href="#ArialMT-61" x="55.615234"/>
     <use xlink:href="#ArialMT-20" x="111.230469"/>
     <use xlink:href="#ArialMT-47" x="139.013672"/>
     <use xlink:href="#ArialMT-72" x="216.796875"/>
     <use xlink:href="#ArialMT-61" x="250.097656"/>
     <use xlink:href="#ArialMT-6e" x="305.712891"/>
     <use xlink:href="#ArialMT-67" x="361.328125"/>
     <use xlink:href="#ArialMT-65" x="416.943359"/>
    </g>
   </g>
  </g>
  <g id="axes_2">
   <g id="patch_7">
    <path d="M 206.587816 166.363434 
L 348.831719 166.363434 
L 348.831719 24.119531 
L 206.587816 24.119531 
z
" style="fill: #ffffff"/>
   </g>
   <g id="matplotlib.axis_3">
    <g id="xtick_4">
     <g id="line2d_14">
      <path d="M 233.579264 166.363434 
L 233.579264 24.119531 
" clip-path="url(#pe631883a27)" style="fill: none; stroke: #cccccc; stroke-linecap: round"/>
     </g>
     <g id="text_12">
      <!-- 20 -->
      <g style="fill: #262626" transform="translate(227.462233 177.737027)scale(0.11 -0.11)">
       <use xlink:href="#ArialMT-32"/>
       <use xlink:href="#ArialMT-30" x="55.615234"/>
      </g>
     </g>
    </g>
    <g id="xtick_5">
     <g id="line2d_15">
      <path d="M 274.630895 166.363434 
L 274.630895 24.119531 
" clip-path="url(#pe631883a27)" style="fill: none; stroke: #cccccc; stroke-linecap: round"/>
     </g>
     <g id="text_13">
      <!-- 40 -->
      <g style="fill: #262626" transform="translate(268.513864 177.737027)scale(0.11 -0.11)">
       <use xlink:href="#ArialMT-34"/>
       <use xlink:href="#ArialMT-30" x="55.615234"/>
      </g>
     </g>
    </g>
    <g id="xtick_6">
     <g id="line2d_16">
      <path d="M 315.682526 166.363434 
L 315.682526 24.119531 
" clip-path="url(#pe631883a27)" style="fill: none; stroke: #cccccc; stroke-linecap: round"/>
     </g>
     <g id="text_14">
      <!-- 60 -->
      <g style="fill: #262626" transform="translate(309.565495 177.737027)scale(0.11 -0.11)">
       <use xlink:href="#ArialMT-36"/>
       <use xlink:href="#ArialMT-30" x="55.615234"/>
      </g>
     </g>
    </g>
    <g id="text_15">
     <!-- Years -->
     <g style="fill: #262626" transform="translate(258.802736 194.659996)scale(0.15 -0.15)">
      <use xlink:href="#ArialMT-59"/>
      <use xlink:href="#ArialMT-65" x="57.574219"/>
      <use xlink:href="#ArialMT-61" x="113.189453"/>
      <use xlink:href="#ArialMT-72" x="168.804688"/>
      <use xlink:href="#ArialMT-73" x="202.105469"/>
     </g>
    </g>
   </g>
   <g id="matplotlib.axis_4">
    <g id="ytick_6">
     <g id="line2d_17">
      <path d="M 206.587816 148.453794 
L 348.831719 148.453794 
" clip-path="url(#pe631883a27)" style="fill: none; stroke: #cccccc; stroke-linecap: round"/>
     </g>
    </g>
    <g id="ytick_7">
     <g id="line2d_18">
      <path d="M 206.587816 122.632489 
L 348.831719 122.632489 
" clip-path="url(#pe631883a27)" style="fill: none; stroke: #cccccc; stroke-linecap: round"/>
     </g>
    </g>
    <g id="ytick_8">
     <g id="line2d_19">
      <path d="M 206.587816 96.811184 
L 348.831719 96.811184 
" clip-path="url(#pe631883a27)" style="fill: none; stroke: #cccccc; stroke-linecap: round"/>
     </g>
    </g>
    <g id="ytick_9">
     <g id="line2d_20">
      <path d="M 206.587816 70.989879 
L 348.831719 70.989879 
" clip-path="url(#pe631883a27)" style="fill: none; stroke: #cccccc; stroke-linecap: round"/>
     </g>
    </g>
    <g id="ytick_10">
     <g id="line2d_21">
      <path d="M 206.587816 45.168574 
L 348.831719 45.168574 
" clip-path="url(#pe631883a27)" style="fill: none; stroke: #cccccc; stroke-linecap: round"/>
     </g>
    </g>
   </g>
   <g id="line2d_22">
    <path d="M 213.053448 41.915233 
L 215.10603 30.585163 
L 217.158611 31.049928 
L 219.211193 40.84651 
L 221.263774 54.838701 
L 223.316356 68.668789 
L 225.368938 79.74793 
L 227.421519 87.394713 
L 229.474101 92.06933 
L 231.526682 94.644645 
L 233.579264 95.930401 
L 235.631845 96.509847 
L 237.684427 96.740055 
L 239.737009 96.81541 
L 241.78959 96.830753 
L 243.842172 96.827482 
L 245.894753 96.821156 
L 247.947335 96.816315 
L 249.999916 96.813468 
L 252.052498 96.812047 
L 254.10508 96.811434 
L 256.157661 96.811213 
L 258.210243 96.811155 
L 260.262824 96.811153 
L 262.315406 96.811163 
L 264.367987 96.811173 
L 266.420569 96.811179 
L 268.47315 96.811182 
L 270.525732 96.811183 
L 272.578314 96.811184 
L 274.630895 96.811184 
L 276.683477 96.811184 
L 278.736058 96.811184 
L 280.78864 96.811184 
L 282.841221 96.811184 
L 284.893803 96.811184 
L 286.946385 96.811184 
L 288.998966 96.811184 
L 291.051548 96.811184 
L 293.104129 96.811184 
L 295.156711 96.811184 
L 297.209292 96.811184 
L 299.261874 96.811184 
L 301.314456 96.811184 
L 303.367037 96.811184 
L 305.419619 96.811184 
L 307.4722 96.811184 
L 309.524782 96.811184 
L 311.577363 96.811184 
L 313.629945 96.811184 
L 315.682526 96.811184 
L 317.735108 96.811184 
L 319.78769 96.811184 
L 321.840271 96.811184 
L 323.892853 96.811184 
L 325.945434 96.811184 
L 327.998016 96.811184 
L 330.050597 96.811184 
L 332.103179 96.811184 
L 334.155761 96.811184 
L 336.208342 96.811184 
L 338.260924 96.811184 
L 340.313505 96.811184 
L 342.366087 96.811184 
" clip-path="url(#pe631883a27)" style="fill: none; stroke: #482475; stroke-width: 1.5; stroke-linecap: round"/>
   </g>
   <g id="line2d_23">
    <path d="M 213.053448 78.042956 
L 215.10603 58.987923 
L 217.158611 46.980425 
L 219.211193 42.471974 
L 221.263774 44.76907 
L 223.316356 51.681154 
L 225.368938 60.688625 
L 227.421519 69.729491 
L 229.474101 77.554489 
L 231.526682 83.681676 
L 233.579264 88.146701 
L 235.631845 91.234205 
L 237.684427 93.288913 
L 239.737009 94.618529 
L 241.78959 95.46138 
L 243.842172 95.987507 
L 245.894753 96.312095 
L 247.947335 96.510519 
L 249.999916 96.630931 
L 252.052498 96.703564 
L 254.10508 96.747157 
L 256.157661 96.77321 
L 258.210243 96.788723 
L 260.262824 96.797931 
L 262.315406 96.803381 
L 264.367987 96.806599 
L 266.420569 96.808494 
L 268.47315 96.809609 
L 270.525732 96.810263 
L 272.578314 96.810646 
L 274.630895 96.81087 
L 276.683477 96.811001 
L 278.736058 96.811078 
L 280.78864 96.811122 
L 282.841221 96.811148 
L 284.893803 96.811163 
L 286.946385 96.811172 
L 288.998966 96.811177 
L 291.051548 96.81118 
L 293.104129 96.811182 
L 295.156711 96.811183 
L 297.209292 96.811183 
L 299.261874 96.811184 
L 301.314456 96.811184 
L 303.367037 96.811184 
L 305.419619 96.811184 
L 307.4722 96.811184 
L 309.524782 96.811184 
L 311.577363 96.811184 
L 313.629945 96.811184 
L 315.682526 96.811184 
L 317.735108 96.811184 
L 319.78769 96.811184 
L 321.840271 96.811184 
L 323.892853 96.811184 
L 325.945434 96.811184 
L 327.998016 96.811184 
L 330.050597 96.811184 
L 332.103179 96.811184 
L 334.155761 96.811184 
L 336.208342 96.811184 
L 338.260924 96.811184 
L 340.313505 96.811184 
L 342.366087 96.811184 
" clip-path="url(#pe631883a27)" style="fill: none; stroke: #355f8d; stroke-width: 1.5; stroke-linecap: round"/>
   </g>
   <g id="line2d_24">
    <path d="M 213.053448 113.439504 
L 215.10603 94.681925 
L 217.158611 78.898906 
L 219.211193 66.687991 
L 221.263774 58.657759 
L 223.316356 55.007418 
L 225.368938 55.196725 
L 227.421519 58.229102 
L 229.474101 62.977305 
L 231.526682 68.429657 
L 233.579264 73.832178 
L 235.631845 78.721469 
L 237.684427 82.88127 
L 239.737009 86.267866 
L 241.78959 88.937785 
L 243.842172 90.993276 
L 245.894753 92.547862 
L 247.947335 93.707866 
L 249.999916 94.564498 
L 252.052498 95.191965 
L 254.10508 95.64859 
L 256.157661 95.979132 
L 258.210243 96.217356 
L 260.262824 96.388409 
L 262.315406 96.510841 
L 264.367987 96.59823 
L 266.420569 96.660456 
L 268.47315 96.704668 
L 270.525732 96.736021 
L 272.578314 96.758215 
L 274.630895 96.773902 
L 276.683477 96.784973 
L 278.736058 96.792775 
L 280.78864 96.798268 
L 282.841221 96.80213 
L 284.893803 96.804843 
L 286.946385 96.806746 
L 288.998966 96.80808 
L 291.051548 96.809015 
L 293.104129 96.809669 
L 295.156711 96.810127 
L 297.209292 96.810447 
L 299.261874 96.81067 
L 301.314456 96.810826 
L 303.367037 96.810935 
L 305.419619 96.81101 
L 307.4722 96.811063 
L 309.524782 96.8111 
L 311.577363 96.811126 
L 313.629945 96.811143 
L 315.682526 96.811156 
L 317.735108 96.811164 
L 319.78769 96.81117 
L 321.840271 96.811175 
L 323.892853 96.811177 
L 325.945434 96.81118 
L 327.998016 96.811181 
L 330.050597 96.811182 
L 332.103179 96.811183 
L 334.155761 96.811183 
L 336.208342 96.811183 
L 338.260924 96.811184 
L 340.313505 96.811184 
L 342.366087 96.811184 
" clip-path="url(#pe631883a27)" style="fill: none; stroke: #21918c; stroke-width: 1.5; stroke-linecap: round"/>
   </g>
   <g id="line2d_25">
    <path d="M 213.053448 140.884654 
L 215.10603 127.261513 
L 217.158611 113.58366 
L 219.211193 101.019144 
L 221.263774 89.917891 
L 223.316356 80.691606 
L 225.368938 73.691939 
L 227.421519 69.02008 
L 229.474101 66.540318 
L 231.526682 65.948829 
L 233.579264 66.843426 
L 235.631845 68.792494 
L 237.684427 71.392862 
L 239.737009 74.306926 
L 241.78959 77.278053 
L 243.842172 80.129278 
L 245.894753 82.752026 
L 247.947335 85.09079 
L 249.999916 87.127836 
L 252.052498 88.870112 
L 254.10508 90.339131 
L 256.157661 91.563738 
L 258.210243 92.57528 
L 260.262824 93.404604 
L 262.315406 94.080359 
L 264.367987 94.628164 
L 266.420569 95.070329 
L 268.47315 95.425916 
L 270.525732 95.710974 
L 272.578314 95.938867 
L 274.630895 96.12062 
L 276.683477 96.265267 
L 278.736058 96.380166 
L 280.78864 96.47128 
L 282.841221 96.543422 
L 284.893803 96.600463 
L 286.946385 96.645505 
L 288.998966 96.681032 
L 291.051548 96.709024 
L 293.104129 96.731055 
L 295.156711 96.748381 
L 297.209292 96.761993 
L 299.261874 96.772679 
L 301.314456 96.781061 
L 303.367037 96.787632 
L 305.419619 96.79278 
L 307.4722 96.796809 
L 309.524782 96.799962 
L 311.577363 96.802427 
L 313.629945 96.804354 
L 315.682526 96.805859 
L 317.735108 96.807034 
L 319.78769 96.807951 
L 321.840271 96.808666 
L 323.892853 96.809224 
L 325.945434 96.809659 
L 327.998016 96.809997 
L 330.050597 96.810261 
L 332.103179 96.810466 
L 334.155761 96.810626 
L 336.208342 96.810751 
L 338.260924 96.810847 
L 340.313505 96.810922 
L 342.366087 96.810981 
" clip-path="url(#pe631883a27)" style="fill: none; stroke: #44bf70; stroke-width: 1.5; stroke-linecap: round"/>
   </g>
   <g id="line2d_26">
    <path d="M 213.053448 159.897802 
L 215.10603 151.610525 
L 217.158611 142.385834 
L 219.211193 133.003266 
L 221.263774 123.888146 
L 223.316356 115.18984 
L 225.368938 107.082096 
L 227.421519 99.762944 
L 229.474101 93.385675 
L 231.526682 88.040083 
L 233.579264 83.757568 
L 235.631845 80.517094 
L 237.684427 78.252479 
L 239.737009 76.863145 
L 241.78959 76.226719 
L 243.842172 76.211196 
L 245.894753 76.685235 
L 247.947335 77.525934 
L 249.999916 78.623938 
L 252.052498 79.886126 
L 254.10508 81.236334 
L 256.157661 82.614663 
L 258.210243 83.975899 
L 260.262824 85.287475 
L 262.315406 86.527293 
L 264.367987 87.681634 
L 266.420569 88.743261 
L 268.47315 89.709799 
L 270.525732 90.582386 
L 272.578314 91.364592 
L 274.630895 92.06157 
L 276.683477 92.679415 
L 278.736058 93.224684 
L 280.78864 93.704051 
L 282.841221 94.124063 
L 284.893803 94.490983 
L 286.946385 94.810685 
L 288.998966 95.088597 
L 291.051548 95.329683 
L 293.104129 95.538432 
L 295.156711 95.718879 
L 297.209292 95.874624 
L 299.261874 96.008862 
L 301.314456 96.124417 
L 303.367037 96.223773 
L 305.419619 96.309111 
L 307.4722 96.382336 
L 309.524782 96.44511 
L 311.577363 96.498879 
L 313.629945 96.544898 
L 315.682526 96.584255 
L 317.735108 96.617891 
L 319.78769 96.646619 
L 321.840271 96.67114 
L 323.892853 96.692058 
L 325.945434 96.709893 
L 327.998016 96.725091 
L 330.050597 96.738035 
L 332.103179 96.749056 
L 334.155761 96.758434 
L 336.208342 96.76641 
L 338.260924 96.773193 
L 340.313505 96.778957 
L 342.366087 96.783855 
" clip-path="url(#pe631883a27)" style="fill: none; stroke: #bddf26; stroke-width: 1.5; stroke-linecap: round"/>
   </g>
   <g id="patch_8">
    <path d="M 206.587816 166.363434 
L 206.587816 24.119531 
" style="fill: none; stroke: #cccccc; stroke-linejoin: miter; stroke-linecap: square"/>
   </g>
   <g id="patch_9">
    <path d="M 348.831719 166.363434 
L 348.831719 24.119531 
" style="fill: none; stroke: #cccccc; stroke-linejoin: miter; stroke-linecap: square"/>
   </g>
   <g id="patch_10">
    <path d="M 206.587816 166.363434 
L 348.831719 166.363434 
" style="fill: none; stroke: #cccccc; stroke-linejoin: miter; stroke-linecap: square"/>
   </g>
   <g id="patch_11">
    <path d="M 206.587816 24.119531 
L 348.831719 24.119531 
" style="fill: none; stroke: #cccccc; stroke-linejoin: miter; stroke-linecap: square"/>
   </g>
   <g id="text_16">
    <!-- Peoria -->
    <g style="fill: #262626" transform="translate(256.031252 18.119531)scale(0.15 -0.15)">
     <defs>
      <path id="ArialMT-50" d="M 494 0 
L 494 4581 
L 2222 4581 
Q 2678 4581 2919 4538 
Q 3256 4481 3484 4323 
Q 3713 4166 3852 3881 
Q 3991 3597 3991 3256 
Q 3991 2672 3619 2267 
Q 3247 1863 2275 1863 
L 1100 1863 
L 1100 0 
L 494 0 
z
M 1100 2403 
L 2284 2403 
Q 2872 2403 3119 2622 
Q 3366 2841 3366 3238 
Q 3366 3525 3220 3729 
Q 3075 3934 2838 4000 
Q 2684 4041 2272 4041 
L 1100 4041 
L 1100 2403 
z
" transform="scale(0.015625)"/>
     </defs>
     <use xlink:href="#ArialMT-50"/>
     <use xlink:href="#ArialMT-65" x="66.699219"/>
     <use xlink:href="#ArialMT-6f" x="122.314453"/>
     <use xlink:href="#ArialMT-72" x="177.929688"/>
     <use xlink:href="#ArialMT-69" x="211.230469"/>
     <use xlink:href="#ArialMT-61" x="233.447266"/>
    </g>
   </g>
  </g>
  <g id="legend_1">
   <g id="patch_12">
    <path d="M 366.507656 151.20742 
L 429.231719 151.20742 
Q 431.431719 151.20742 431.431719 149.00742 
L 431.431719 55.833826 
Q 431.431719 53.633826 429.231719 53.633826 
L 366.507656 53.633826 
Q 364.307656 53.633826 364.307656 55.833826 
L 364.307656 149.00742 
Q 364.307656 151.20742 366.507656 151.20742 
z
" style="fill: #ffffff; opacity: 0.8; stroke: #cccccc; stroke-linejoin: miter"/>
   </g>
   <g id="text_17">
    <!-- $K_G$ -->
    <g style="fill: #262626" transform="translate(390.489687 66.623201)scale(0.12 -0.12)">
     <defs>
      <path id="DejaVuSans-Oblique-4b" d="M 1081 4666 
L 1716 4666 
L 1331 2700 
L 3781 4666 
L 4622 4666 
L 1850 2438 
L 3878 0 
L 3109 0 
L 1247 2272 
L 806 0 
L 172 0 
L 1081 4666 
z
" transform="scale(0.015625)"/>
      <path id="DejaVuSans-Oblique-47" d="M 3494 697 
L 3738 1919 
L 2700 1919 
L 2797 2438 
L 4453 2438 
L 4050 384 
Q 3634 156 3143 32 
Q 2653 -91 2156 -91 
Q 1278 -91 783 396 
Q 288 884 288 1753 
Q 288 2475 589 3126 
Q 891 3778 1422 4213 
Q 1756 4484 2153 4617 
Q 2550 4750 3034 4750 
Q 3472 4750 3873 4639 
Q 4275 4528 4641 4306 
L 4513 3634 
Q 4231 3928 3853 4083 
Q 3475 4238 3047 4238 
Q 2550 4238 2172 4048 
Q 1794 3859 1497 3463 
Q 1244 3125 1098 2667 
Q 953 2209 953 1734 
Q 953 1081 1287 751 
Q 1622 422 2284 422 
Q 2616 422 2925 492 
Q 3234 563 3494 697 
z
" transform="scale(0.015625)"/>
     </defs>
     <use xlink:href="#DejaVuSans-Oblique-4b" transform="translate(0 0.09375)"/>
     <use xlink:href="#DejaVuSans-Oblique-47" transform="translate(65.576172 -16.3125)scale(0.7)"/>
    </g>
   </g>
   <g id="line2d_27">
    <path d="M 368.707656 78.531795 
L 379.707656 78.531795 
L 390.707656 78.531795 
" style="fill: none; stroke: #482475; stroke-width: 1.5; stroke-linecap: round"/>
   </g>
   <g id="text_18">
    <!-- 0.433 -->
    <g style="fill: #262626" transform="translate(399.507656 82.381795)scale(0.11 -0.11)">
     <defs>
      <path id="ArialMT-33" d="M 269 1209 
L 831 1284 
Q 928 806 1161 595 
Q 1394 384 1728 384 
Q 2125 384 2398 659 
Q 2672 934 2672 1341 
Q 2672 1728 2419 1979 
Q 2166 2231 1775 2231 
Q 1616 2231 1378 2169 
L 1441 2663 
Q 1497 2656 1531 2656 
Q 1891 2656 2178 2843 
Q 2466 3031 2466 3422 
Q 2466 3731 2256 3934 
Q 2047 4138 1716 4138 
Q 1388 4138 1169 3931 
Q 950 3725 888 3313 
L 325 3413 
Q 428 3978 793 4289 
Q 1159 4600 1703 4600 
Q 2078 4600 2393 4439 
Q 2709 4278 2876 4000 
Q 3044 3722 3044 3409 
Q 3044 3113 2884 2869 
Q 2725 2625 2413 2481 
Q 2819 2388 3044 2092 
Q 3269 1797 3269 1353 
Q 3269 753 2831 336 
Q 2394 -81 1725 -81 
Q 1122 -81 723 278 
Q 325 638 269 1209 
z
" transform="scale(0.015625)"/>
     </defs>
     <use xlink:href="#ArialMT-30"/>
     <use xlink:href="#ArialMT-2e" x="55.615234"/>
     <use xlink:href="#ArialMT-34" x="83.398438"/>
     <use xlink:href="#ArialMT-33" x="139.013672"/>
     <use xlink:href="#ArialMT-33" x="194.628906"/>
    </g>
   </g>
   <g id="line2d_28">
    <path d="M 368.707656 94.091639 
L 379.707656 94.091639 
L 390.707656 94.091639 
" style="fill: none; stroke: #355f8d; stroke-width: 1.5; stroke-linecap: round"/>
   </g>
   <g id="text_19">
    <!-- 0.483 -->
    <g style="fill: #262626" transform="translate(399.507656 97.941639)scale(0.11 -0.11)">
     <defs>
      <path id="ArialMT-38" d="M 1131 2484 
Q 781 2613 612 2850 
Q 444 3088 444 3419 
Q 444 3919 803 4259 
Q 1163 4600 1759 4600 
Q 2359 4600 2725 4251 
Q 3091 3903 3091 3403 
Q 3091 3084 2923 2848 
Q 2756 2613 2416 2484 
Q 2838 2347 3058 2040 
Q 3278 1734 3278 1309 
Q 3278 722 2862 322 
Q 2447 -78 1769 -78 
Q 1091 -78 675 323 
Q 259 725 259 1325 
Q 259 1772 486 2073 
Q 713 2375 1131 2484 
z
M 1019 3438 
Q 1019 3113 1228 2906 
Q 1438 2700 1772 2700 
Q 2097 2700 2305 2904 
Q 2513 3109 2513 3406 
Q 2513 3716 2298 3927 
Q 2084 4138 1766 4138 
Q 1444 4138 1231 3931 
Q 1019 3725 1019 3438 
z
M 838 1322 
Q 838 1081 952 856 
Q 1066 631 1291 507 
Q 1516 384 1775 384 
Q 2178 384 2440 643 
Q 2703 903 2703 1303 
Q 2703 1709 2433 1975 
Q 2163 2241 1756 2241 
Q 1359 2241 1098 1978 
Q 838 1716 838 1322 
z
" transform="scale(0.015625)"/>
     </defs>
     <use xlink:href="#ArialMT-30"/>
     <use xlink:href="#ArialMT-2e" x="55.615234"/>
     <use xlink:href="#ArialMT-34" x="83.398438"/>
     <use xlink:href="#ArialMT-38" x="139.013672"/>
     <use xlink:href="#ArialMT-33" x="194.628906"/>
    </g>
   </g>
   <g id="line2d_29">
    <path d="M 368.707656 109.651482 
L 379.707656 109.651482 
L 390.707656 109.651482 
" style="fill: none; stroke: #21918c; stroke-width: 1.5; stroke-linecap: round"/>
   </g>
   <g id="text_20">
    <!-- 0.533 -->
    <g style="fill: #262626" transform="translate(399.507656 113.501482)scale(0.11 -0.11)">
     <use xlink:href="#ArialMT-30"/>
     <use xlink:href="#ArialMT-2e" x="55.615234"/>
     <use xlink:href="#ArialMT-35" x="83.398438"/>
     <use xlink:href="#ArialMT-33" x="139.013672"/>
     <use xlink:href="#ArialMT-33" x="194.628906"/>
    </g>
   </g>
   <g id="line2d_30">
    <path d="M 368.707656 125.211326 
L 379.707656 125.211326 
L 390.707656 125.211326 
" style="fill: none; stroke: #44bf70; stroke-width: 1.5; stroke-linecap: round"/>
   </g>
   <g id="text_21">
    <!-- 0.583 -->
    <g style="fill: #262626" transform="translate(399.507656 129.061326)scale(0.11 -0.11)">
     <use xlink:href="#ArialMT-30"/>
     <use xlink:href="#ArialMT-2e" x="55.615234"/>
     <use xlink:href="#ArialMT-35" x="83.398438"/>
     <use xlink:href="#ArialMT-38" x="139.013672"/>
     <use xlink:href="#ArialMT-33" x="194.628906"/>
    </g>
   </g>
   <g id="line2d_31">
    <path d="M 368.707656 140.77117 
L 379.707656 140.77117 
L 390.707656 140.77117 
" style="fill: none; stroke: #bddf26; stroke-width: 1.5; stroke-linecap: round"/>
   </g>
   <g id="text_22">
    <!-- 0.633 -->
    <g style="fill: #262626" transform="translate(399.507656 144.62117)scale(0.11 -0.11)">
     <use xlink:href="#ArialMT-30"/>
     <use xlink:href="#ArialMT-2e" x="55.615234"/>
     <use xlink:href="#ArialMT-36" x="83.398438"/>
     <use xlink:href="#ArialMT-33" x="139.013672"/>
     <use xlink:href="#ArialMT-33" x="194.628906"/>
    </g>
   </g>
  </g>
 </g>
 <defs>
  <clipPath id="p91a4aff137">
   <rect x="57.231719" y="24.119531" width="142.243902" height="142.243902"/>
  </clipPath>
  <clipPath id="pe631883a27">
   <rect x="206.587816" y="24.119531" width="142.243902" height="142.243902"/>
  </clipPath>
 </defs>
</svg>
