<?xml version="1.0" encoding="utf-8" standalone="no"?>
<!DOCTYPE svg PUBLIC "-//W3C//DTD SVG 1.1//EN"
  "http://www.w3.org/Graphics/SVG/1.1/DTD/svg11.dtd">
<svg xmlns:xlink="http://www.w3.org/1999/xlink" width="449.165781pt" height="204.841246pt" viewBox="0 0 449.165781 204.841246" xmlns="http://www.w3.org/2000/svg" version="1.1">
 <metadata>
  <rdf:RDF xmlns:dc="http://purl.org/dc/elements/1.1/" xmlns:cc="http://creativecommons.org/ns#" xmlns:rdf="http://www.w3.org/1999/02/22-rdf-syntax-ns#">
   <cc:Work>
    <dc:type rdf:resource="http://purl.org/dc/dcmitype/StillImage"/>
    <dc:date>2022-10-12T15:00:17.367763</dc:date>
    <dc:format>image/svg+xml</dc:format>
    <dc:creator>
     <cc:Agent>
      <dc:title>Matplotlib v3.5.1, https://matplotlib.org/</dc:title>
     </cc:Agent>
    </dc:creator>
   </cc:Work>
  </rdf:RDF>
 </metadata>
 <defs>
  <style type="text/css">*{stroke-linejoin: round; stroke-linecap: butt}</style>
 </defs>
 <g id="figure_1">
  <g id="patch_1">
   <path d="M 0 204.841246 
L 449.165781 204.841246 
L 449.165781 0 
L 0 0 
z
" style="fill: #ffffff"/>
  </g>
  <g id="axes_1">
   <g id="patch_2">
    <path d="M 69.465781 166.363434 
L 211.709684 166.363434 
L 211.709684 24.119531 
L 69.465781 24.119531 
z
" style="fill: #ffffff"/>
   </g>
   <g id="matplotlib.axis_1">
    <g id="xtick_1">
     <g id="line2d_1">
      <path d="M 96.457229 166.363434 
L 96.457229 24.119531 
" clip-path="url(#pd277cfd731)" style="fill: none; stroke: #cccccc; stroke-linecap: round"/>
     </g>
     <g id="text_1">
      <!-- 20 -->
      <g style="fill: #262626" transform="translate(90.340198 177.737027)scale(0.11 -0.11)">
       <defs>
        <path id="ArialMT-32" d="M 3222 541 
L 3222 0 
L 194 0 
Q 188 203 259 391 
Q 375 700 629 1000 
Q 884 1300 1366 1694 
Q 2113 2306 2375 2664 
Q 2638 3022 2638 3341 
Q 2638 3675 2398 3904 
Q 2159 4134 1775 4134 
Q 1369 4134 1125 3890 
Q 881 3647 878 3216 
L 300 3275 
Q 359 3922 746 4261 
Q 1134 4600 1788 4600 
Q 2447 4600 2831 4234 
Q 3216 3869 3216 3328 
Q 3216 3053 3103 2787 
Q 2991 2522 2730 2228 
Q 2469 1934 1863 1422 
Q 1356 997 1212 845 
Q 1069 694 975 541 
L 3222 541 
z
" transform="scale(0.015625)"/>
        <path id="ArialMT-30" d="M 266 2259 
Q 266 3072 433 3567 
Q 600 4063 929 4331 
Q 1259 4600 1759 4600 
Q 2128 4600 2406 4451 
Q 2684 4303 2865 4023 
Q 3047 3744 3150 3342 
Q 3253 2941 3253 2259 
Q 3253 1453 3087 958 
Q 2922 463 2592 192 
Q 2263 -78 1759 -78 
Q 1097 -78 719 397 
Q 266 969 266 2259 
z
M 844 2259 
Q 844 1131 1108 757 
Q 1372 384 1759 384 
Q 2147 384 2411 759 
Q 2675 1134 2675 2259 
Q 2675 3391 2411 3762 
Q 2147 4134 1753 4134 
Q 1366 4134 1134 3806 
Q 844 3388 844 2259 
z
" transform="scale(0.015625)"/>
       </defs>
       <use xlink:href="#ArialMT-32"/>
       <use xlink:href="#ArialMT-30" x="55.615234"/>
      </g>
     </g>
    </g>
    <g id="xtick_2">
     <g id="line2d_2">
      <path d="M 137.50886 166.363434 
L 137.50886 24.119531 
" clip-path="url(#pd277cfd731)" style="fill: none; stroke: #cccccc; stroke-linecap: round"/>
     </g>
     <g id="text_2">
      <!-- 40 -->
      <g style="fill: #262626" transform="translate(131.391829 177.737027)scale(0.11 -0.11)">
       <defs>
        <path id="ArialMT-34" d="M 2069 0 
L 2069 1097 
L 81 1097 
L 81 1613 
L 2172 4581 
L 2631 4581 
L 2631 1613 
L 3250 1613 
L 3250 1097 
L 2631 1097 
L 2631 0 
L 2069 0 
z
M 2069 1613 
L 2069 3678 
L 634 1613 
L 2069 1613 
z
" transform="scale(0.015625)"/>
       </defs>
       <use xlink:href="#ArialMT-34"/>
       <use xlink:href="#ArialMT-30" x="55.615234"/>
      </g>
     </g>
    </g>
    <g id="xtick_3">
     <g id="line2d_3">
      <path d="M 178.560491 166.363434 
L 178.560491 24.119531 
" clip-path="url(#pd277cfd731)" style="fill: none; stroke: #cccccc; stroke-linecap: round"/>
     </g>
     <g id="text_3">
      <!-- 60 -->
      <g style="fill: #262626" transform="translate(172.44346 177.737027)scale(0.11 -0.11)">
       <defs>
        <path id="ArialMT-36" d="M 3184 3459 
L 2625 3416 
Q 2550 3747 2413 3897 
Q 2184 4138 1850 4138 
Q 1581 4138 1378 3988 
Q 1113 3794 959 3422 
Q 806 3050 800 2363 
Q 1003 2672 1297 2822 
Q 1591 2972 1913 2972 
Q 2475 2972 2870 2558 
Q 3266 2144 3266 1488 
Q 3266 1056 3080 686 
Q 2894 316 2569 119 
Q 2244 -78 1831 -78 
Q 1128 -78 684 439 
Q 241 956 241 2144 
Q 241 3472 731 4075 
Q 1159 4600 1884 4600 
Q 2425 4600 2770 4297 
Q 3116 3994 3184 3459 
z
M 888 1484 
Q 888 1194 1011 928 
Q 1134 663 1356 523 
Q 1578 384 1822 384 
Q 2178 384 2434 671 
Q 2691 959 2691 1453 
Q 2691 1928 2437 2201 
Q 2184 2475 1800 2475 
Q 1419 2475 1153 2201 
Q 888 1928 888 1484 
z
" transform="scale(0.015625)"/>
       </defs>
       <use xlink:href="#ArialMT-36"/>
       <use xlink:href="#ArialMT-30" x="55.615234"/>
      </g>
     </g>
    </g>
    <g id="text_4">
     <!-- Years -->
     <g style="fill: #262626" transform="translate(121.680701 194.659996)scale(0.15 -0.15)">
      <defs>
       <path id="ArialMT-59" d="M 1784 0 
L 1784 1941 
L 19 4581 
L 756 4581 
L 1659 3200 
Q 1909 2813 2125 2425 
Q 2331 2784 2625 3234 
L 3513 4581 
L 4219 4581 
L 2391 1941 
L 2391 0 
L 1784 0 
z
" transform="scale(0.015625)"/>
       <path id="ArialMT-65" d="M 2694 1069 
L 3275 997 
Q 3138 488 2766 206 
Q 2394 -75 1816 -75 
Q 1088 -75 661 373 
Q 234 822 234 1631 
Q 234 2469 665 2931 
Q 1097 3394 1784 3394 
Q 2450 3394 2872 2941 
Q 3294 2488 3294 1666 
Q 3294 1616 3291 1516 
L 816 1516 
Q 847 969 1125 678 
Q 1403 388 1819 388 
Q 2128 388 2347 550 
Q 2566 713 2694 1069 
z
M 847 1978 
L 2700 1978 
Q 2663 2397 2488 2606 
Q 2219 2931 1791 2931 
Q 1403 2931 1139 2672 
Q 875 2413 847 1978 
z
" transform="scale(0.015625)"/>
       <path id="ArialMT-61" d="M 2588 409 
Q 2275 144 1986 34 
Q 1697 -75 1366 -75 
Q 819 -75 525 192 
Q 231 459 231 875 
Q 231 1119 342 1320 
Q 453 1522 633 1644 
Q 813 1766 1038 1828 
Q 1203 1872 1538 1913 
Q 2219 1994 2541 2106 
Q 2544 2222 2544 2253 
Q 2544 2597 2384 2738 
Q 2169 2928 1744 2928 
Q 1347 2928 1158 2789 
Q 969 2650 878 2297 
L 328 2372 
Q 403 2725 575 2942 
Q 747 3159 1072 3276 
Q 1397 3394 1825 3394 
Q 2250 3394 2515 3294 
Q 2781 3194 2906 3042 
Q 3031 2891 3081 2659 
Q 3109 2516 3109 2141 
L 3109 1391 
Q 3109 606 3145 398 
Q 3181 191 3288 0 
L 2700 0 
Q 2613 175 2588 409 
z
M 2541 1666 
Q 2234 1541 1622 1453 
Q 1275 1403 1131 1340 
Q 988 1278 909 1158 
Q 831 1038 831 891 
Q 831 666 1001 516 
Q 1172 366 1500 366 
Q 1825 366 2078 508 
Q 2331 650 2450 897 
Q 2541 1088 2541 1459 
L 2541 1666 
z
" transform="scale(0.015625)"/>
       <path id="ArialMT-72" d="M 416 0 
L 416 3319 
L 922 3319 
L 922 2816 
Q 1116 3169 1280 3281 
Q 1444 3394 1641 3394 
Q 1925 3394 2219 3213 
L 2025 2691 
Q 1819 2813 1613 2813 
Q 1428 2813 1281 2702 
Q 1134 2591 1072 2394 
Q 978 2094 978 1738 
L 978 0 
L 416 0 
z
" transform="scale(0.015625)"/>
       <path id="ArialMT-73" d="M 197 991 
L 753 1078 
Q 800 744 1014 566 
Q 1228 388 1613 388 
Q 2000 388 2187 545 
Q 2375 703 2375 916 
Q 2375 1106 2209 1216 
Q 2094 1291 1634 1406 
Q 1016 1563 777 1677 
Q 538 1791 414 1992 
Q 291 2194 291 2438 
Q 291 2659 392 2848 
Q 494 3038 669 3163 
Q 800 3259 1026 3326 
Q 1253 3394 1513 3394 
Q 1903 3394 2198 3281 
Q 2494 3169 2634 2976 
Q 2775 2784 2828 2463 
L 2278 2388 
Q 2241 2644 2061 2787 
Q 1881 2931 1553 2931 
Q 1166 2931 1000 2803 
Q 834 2675 834 2503 
Q 834 2394 903 2306 
Q 972 2216 1119 2156 
Q 1203 2125 1616 2013 
Q 2213 1853 2448 1751 
Q 2684 1650 2818 1456 
Q 2953 1263 2953 975 
Q 2953 694 2789 445 
Q 2625 197 2315 61 
Q 2006 -75 1616 -75 
Q 969 -75 630 194 
Q 291 463 197 991 
z
" transform="scale(0.015625)"/>
      </defs>
      <use xlink:href="#ArialMT-59"/>
      <use xlink:href="#ArialMT-65" x="57.574219"/>
      <use xlink:href="#ArialMT-61" x="113.189453"/>
      <use xlink:href="#ArialMT-72" x="168.804688"/>
      <use xlink:href="#ArialMT-73" x="202.105469"/>
     </g>
    </g>
   </g>
   <g id="matplotlib.axis_2">
    <g id="ytick_1">
     <g id="line2d_4">
      <path d="M 69.465781 161.857426 
L 211.709684 161.857426 
" clip-path="url(#pd277cfd731)" style="fill: none; stroke: #cccccc; stroke-linecap: round"/>
     </g>
     <g id="text_5">
      <!-- −0.0002 -->
      <g style="fill: #262626" transform="translate(25.9 165.794223)scale(0.11 -0.11)">
       <defs>
        <path id="ArialMT-2212" d="M 3381 1997 
L 356 1997 
L 356 2522 
L 3381 2522 
L 3381 1997 
z
" transform="scale(0.015625)"/>
        <path id="ArialMT-2e" d="M 581 0 
L 581 641 
L 1222 641 
L 1222 0 
L 581 0 
z
" transform="scale(0.015625)"/>
       </defs>
       <use xlink:href="#ArialMT-2212"/>
       <use xlink:href="#ArialMT-30" x="58.398438"/>
       <use xlink:href="#ArialMT-2e" x="114.013672"/>
       <use xlink:href="#ArialMT-30" x="141.796875"/>
       <use xlink:href="#ArialMT-30" x="197.412109"/>
       <use xlink:href="#ArialMT-30" x="253.027344"/>
       <use xlink:href="#ArialMT-32" x="308.642578"/>
      </g>
     </g>
    </g>
    <g id="ytick_2">
     <g id="line2d_5">
      <path d="M 69.465781 126.83494 
L 211.709684 126.83494 
" clip-path="url(#pd277cfd731)" style="fill: none; stroke: #cccccc; stroke-linecap: round"/>
     </g>
     <g id="text_6">
      <!-- 0.0000 -->
      <g style="fill: #262626" transform="translate(32.324688 130.771737)scale(0.11 -0.11)">
       <use xlink:href="#ArialMT-30"/>
       <use xlink:href="#ArialMT-2e" x="55.615234"/>
       <use xlink:href="#ArialMT-30" x="83.398438"/>
       <use xlink:href="#ArialMT-30" x="139.013672"/>
       <use xlink:href="#ArialMT-30" x="194.628906"/>
       <use xlink:href="#ArialMT-30" x="250.244141"/>
      </g>
     </g>
    </g>
    <g id="ytick_3">
     <g id="line2d_6">
      <path d="M 69.465781 91.812455 
L 211.709684 91.812455 
" clip-path="url(#pd277cfd731)" style="fill: none; stroke: #cccccc; stroke-linecap: round"/>
     </g>
     <g id="text_7">
      <!-- 0.0002 -->
      <g style="fill: #262626" transform="translate(32.324688 95.749252)scale(0.11 -0.11)">
       <use xlink:href="#ArialMT-30"/>
       <use xlink:href="#ArialMT-2e" x="55.615234"/>
       <use xlink:href="#ArialMT-30" x="83.398438"/>
       <use xlink:href="#ArialMT-30" x="139.013672"/>
       <use xlink:href="#ArialMT-30" x="194.628906"/>
       <use xlink:href="#ArialMT-32" x="250.244141"/>
      </g>
     </g>
    </g>
    <g id="ytick_4">
     <g id="line2d_7">
      <path d="M 69.465781 56.78997 
L 211.709684 56.78997 
" clip-path="url(#pd277cfd731)" style="fill: none; stroke: #cccccc; stroke-linecap: round"/>
     </g>
     <g id="text_8">
      <!-- 0.0004 -->
      <g style="fill: #262626" transform="translate(32.324688 60.726767)scale(0.11 -0.11)">
       <use xlink:href="#ArialMT-30"/>
       <use xlink:href="#ArialMT-2e" x="55.615234"/>
       <use xlink:href="#ArialMT-30" x="83.398438"/>
       <use xlink:href="#ArialMT-30" x="139.013672"/>
       <use xlink:href="#ArialMT-30" x="194.628906"/>
       <use xlink:href="#ArialMT-34" x="250.244141"/>
      </g>
     </g>
    </g>
    <g id="text_9">
     <!-- Sensitivity of $\lambda$ -->
     <g style="fill: #262626" transform="translate(18.6 143.916482)rotate(-90)scale(0.15 -0.15)">
      <defs>
       <path id="ArialMT-53" d="M 288 1472 
L 859 1522 
Q 900 1178 1048 958 
Q 1197 738 1509 602 
Q 1822 466 2213 466 
Q 2559 466 2825 569 
Q 3091 672 3220 851 
Q 3350 1031 3350 1244 
Q 3350 1459 3225 1620 
Q 3100 1781 2813 1891 
Q 2628 1963 1997 2114 
Q 1366 2266 1113 2400 
Q 784 2572 623 2826 
Q 463 3081 463 3397 
Q 463 3744 659 4045 
Q 856 4347 1234 4503 
Q 1613 4659 2075 4659 
Q 2584 4659 2973 4495 
Q 3363 4331 3572 4012 
Q 3781 3694 3797 3291 
L 3216 3247 
Q 3169 3681 2898 3903 
Q 2628 4125 2100 4125 
Q 1550 4125 1298 3923 
Q 1047 3722 1047 3438 
Q 1047 3191 1225 3031 
Q 1400 2872 2139 2705 
Q 2878 2538 3153 2413 
Q 3553 2228 3743 1945 
Q 3934 1663 3934 1294 
Q 3934 928 3725 604 
Q 3516 281 3123 101 
Q 2731 -78 2241 -78 
Q 1619 -78 1198 103 
Q 778 284 539 648 
Q 300 1013 288 1472 
z
" transform="scale(0.015625)"/>
       <path id="ArialMT-6e" d="M 422 0 
L 422 3319 
L 928 3319 
L 928 2847 
Q 1294 3394 1984 3394 
Q 2284 3394 2536 3286 
Q 2788 3178 2913 3003 
Q 3038 2828 3088 2588 
Q 3119 2431 3119 2041 
L 3119 0 
L 2556 0 
L 2556 2019 
Q 2556 2363 2490 2533 
Q 2425 2703 2258 2804 
Q 2091 2906 1866 2906 
Q 1506 2906 1245 2678 
Q 984 2450 984 1813 
L 984 0 
L 422 0 
z
" transform="scale(0.015625)"/>
       <path id="ArialMT-69" d="M 425 3934 
L 425 4581 
L 988 4581 
L 988 3934 
L 425 3934 
z
M 425 0 
L 425 3319 
L 988 3319 
L 988 0 
L 425 0 
z
" transform="scale(0.015625)"/>
       <path id="ArialMT-74" d="M 1650 503 
L 1731 6 
Q 1494 -44 1306 -44 
Q 1000 -44 831 53 
Q 663 150 594 308 
Q 525 466 525 972 
L 525 2881 
L 113 2881 
L 113 3319 
L 525 3319 
L 525 4141 
L 1084 4478 
L 1084 3319 
L 1650 3319 
L 1650 2881 
L 1084 2881 
L 1084 941 
Q 1084 700 1114 631 
Q 1144 563 1211 522 
Q 1278 481 1403 481 
Q 1497 481 1650 503 
z
" transform="scale(0.015625)"/>
       <path id="ArialMT-76" d="M 1344 0 
L 81 3319 
L 675 3319 
L 1388 1331 
Q 1503 1009 1600 663 
Q 1675 925 1809 1294 
L 2547 3319 
L 3125 3319 
L 1869 0 
L 1344 0 
z
" transform="scale(0.015625)"/>
       <path id="ArialMT-79" d="M 397 -1278 
L 334 -750 
Q 519 -800 656 -800 
Q 844 -800 956 -737 
Q 1069 -675 1141 -563 
Q 1194 -478 1313 -144 
Q 1328 -97 1363 -6 
L 103 3319 
L 709 3319 
L 1400 1397 
Q 1534 1031 1641 628 
Q 1738 1016 1872 1384 
L 2581 3319 
L 3144 3319 
L 1881 -56 
Q 1678 -603 1566 -809 
Q 1416 -1088 1222 -1217 
Q 1028 -1347 759 -1347 
Q 597 -1347 397 -1278 
z
" transform="scale(0.015625)"/>
       <path id="ArialMT-20" transform="scale(0.015625)"/>
       <path id="ArialMT-6f" d="M 213 1659 
Q 213 2581 725 3025 
Q 1153 3394 1769 3394 
Q 2453 3394 2887 2945 
Q 3322 2497 3322 1706 
Q 3322 1066 3130 698 
Q 2938 331 2570 128 
Q 2203 -75 1769 -75 
Q 1072 -75 642 372 
Q 213 819 213 1659 
z
M 791 1659 
Q 791 1022 1069 705 
Q 1347 388 1769 388 
Q 2188 388 2466 706 
Q 2744 1025 2744 1678 
Q 2744 2294 2464 2611 
Q 2184 2928 1769 2928 
Q 1347 2928 1069 2612 
Q 791 2297 791 1659 
z
" transform="scale(0.015625)"/>
       <path id="ArialMT-66" d="M 556 0 
L 556 2881 
L 59 2881 
L 59 3319 
L 556 3319 
L 556 3672 
Q 556 4006 616 4169 
Q 697 4388 901 4523 
Q 1106 4659 1475 4659 
Q 1713 4659 2000 4603 
L 1916 4113 
Q 1741 4144 1584 4144 
Q 1328 4144 1222 4034 
Q 1116 3925 1116 3625 
L 1116 3319 
L 1763 3319 
L 1763 2881 
L 1116 2881 
L 1116 0 
L 556 0 
z
" transform="scale(0.015625)"/>
       <path id="DejaVuSans-Oblique-3bb" d="M 2350 4316 
L 3125 0 
L 2516 0 
L 2038 2588 
L 328 0 
L -281 0 
L 1903 3356 
L 1794 3975 
Q 1725 4369 1391 4369 
L 1091 4369 
L 1184 4863 
L 1550 4856 
Q 2253 4847 2350 4316 
z
" transform="scale(0.015625)"/>
      </defs>
      <use xlink:href="#ArialMT-53" transform="translate(0 0.015625)"/>
      <use xlink:href="#ArialMT-65" transform="translate(66.699219 0.015625)"/>
      <use xlink:href="#ArialMT-6e" transform="translate(122.314453 0.015625)"/>
      <use xlink:href="#ArialMT-73" transform="translate(177.929688 0.015625)"/>
      <use xlink:href="#ArialMT-69" transform="translate(227.929688 0.015625)"/>
      <use xlink:href="#ArialMT-74" transform="translate(250.146484 0.015625)"/>
      <use xlink:href="#ArialMT-69" transform="translate(277.929688 0.015625)"/>
      <use xlink:href="#ArialMT-76" transform="translate(300.146484 0.015625)"/>
      <use xlink:href="#ArialMT-69" transform="translate(350.146484 0.015625)"/>
      <use xlink:href="#ArialMT-74" transform="translate(372.363281 0.015625)"/>
      <use xlink:href="#ArialMT-79" transform="translate(400.146484 0.015625)"/>
      <use xlink:href="#ArialMT-20" transform="translate(450.146484 0.015625)"/>
      <use xlink:href="#ArialMT-6f" transform="translate(477.929688 0.015625)"/>
      <use xlink:href="#ArialMT-66" transform="translate(533.544922 0.015625)"/>
      <use xlink:href="#ArialMT-20" transform="translate(561.328125 0.015625)"/>
      <use xlink:href="#DejaVuSans-Oblique-3bb" transform="translate(589.111328 0.015625)"/>
     </g>
    </g>
   </g>
   <g id="line2d_8">
    <path d="M 75.931413 71.643543 
L 77.983995 83.221714 
L 80.036576 93.512184 
L 82.089158 101.385759 
L 84.141739 108.244681 
L 86.194321 114.102709 
L 88.246903 118.647857 
L 90.299484 121.906356 
L 92.352066 124.106843 
L 94.404647 125.510721 
L 96.457229 126.351293 
L 98.50981 126.816737 
L 100.562392 127.046776 
L 102.614974 127.137688 
L 104.667555 127.151809 
L 106.720137 127.127467 
L 108.772718 127.087098 
L 110.8253 127.043092 
L 112.877881 127.001728 
L 114.930463 126.965722 
L 116.983044 126.935819 
L 119.035626 126.91176 
L 121.088208 126.892838 
L 123.140789 126.878209 
L 125.193371 126.867049 
L 127.245952 126.858625 
L 129.298534 126.852321 
L 131.351115 126.847639 
L 133.403697 126.844181 
L 135.456279 126.841642 
L 137.50886 126.839786 
L 139.561442 126.838434 
L 141.614023 126.837453 
L 143.666605 126.836743 
L 145.719186 126.836232 
L 147.771768 126.835863 
L 149.82435 126.835599 
L 151.876931 126.835409 
L 153.929513 126.835274 
L 155.982094 126.835177 
L 158.034676 126.835109 
L 160.087257 126.83506 
L 162.139839 126.835025 
L 164.19242 126.835 
L 166.245002 126.834983 
L 168.297584 126.83497 
L 170.350165 126.834961 
L 172.402747 126.834955 
L 174.455328 126.834951 
L 176.50791 126.834948 
L 178.560491 126.834946 
L 180.613073 126.834944 
L 182.665655 126.834943 
L 184.718236 126.834942 
L 186.770818 126.834942 
L 188.823399 126.834941 
L 190.875981 126.834941 
L 192.928562 126.834941 
L 194.981144 126.834941 
L 197.033726 126.834941 
L 199.086307 126.834941 
L 201.138889 126.83494 
L 203.19147 126.83494 
L 205.244052 126.83494 
" clip-path="url(#pd277cfd731)" style="fill: none; stroke: #482475; stroke-width: 1.5; stroke-linecap: round"/>
   </g>
   <g id="line2d_9">
    <path d="M 75.931413 38.756639 
L 77.983995 61.163603 
L 80.036576 78.810973 
L 82.089158 94.529637 
L 84.141739 108.016641 
L 86.194321 118.225644 
L 88.246903 125.13706 
L 90.299484 129.278769 
L 92.352066 131.336187 
L 94.404647 131.991054 
L 96.457229 131.817171 
L 98.50981 131.232182 
L 100.562392 130.503358 
L 102.614974 129.781361 
L 104.667555 129.138636 
L 106.720137 128.600807 
L 108.772718 128.168377 
L 110.8253 127.830157 
L 112.877881 127.570859 
L 114.930463 127.375031 
L 116.983044 127.228848 
L 119.035626 127.120728 
L 121.088208 127.041359 
L 123.140789 126.983455 
L 125.193371 126.941433 
L 127.245952 126.911072 
L 129.298534 126.889222 
L 131.351115 126.87355 
L 133.403697 126.862343 
L 135.456279 126.854351 
L 137.50886 126.848665 
L 139.561442 126.844628 
L 141.614023 126.841769 
L 143.666605 126.839746 
L 145.719186 126.838318 
L 147.771768 126.837312 
L 149.82435 126.836603 
L 151.876931 126.836105 
L 153.929513 126.835756 
L 155.982094 126.83551 
L 158.034676 126.835338 
L 160.087257 126.835218 
L 162.139839 126.835134 
L 164.19242 126.835075 
L 166.245002 126.835034 
L 168.297584 126.835006 
L 170.350165 126.834986 
L 172.402747 126.834972 
L 174.455328 126.834962 
L 176.50791 126.834956 
L 178.560491 126.834951 
L 180.613073 126.834948 
L 182.665655 126.834945 
L 184.718236 126.834944 
L 186.770818 126.834943 
L 188.823399 126.834942 
L 190.875981 126.834942 
L 192.928562 126.834941 
L 194.981144 126.834941 
L 197.033726 126.834941 
L 199.086307 126.834941 
L 201.138889 126.834941 
L 203.19147 126.83494 
L 205.244052 126.83494 
" clip-path="url(#pd277cfd731)" style="fill: none; stroke: #355f8d; stroke-width: 1.5; stroke-linecap: round"/>
   </g>
   <g id="line2d_10">
    <path d="M 75.931413 30.585163 
L 77.983995 59.267387 
L 80.036576 85.797444 
L 82.089158 108.753892 
L 84.141739 125.836258 
L 86.194321 136.892888 
L 88.246903 142.697575 
L 90.299484 144.516072 
L 92.352066 143.757297 
L 94.404647 141.639947 
L 96.457229 139.039181 
L 98.50981 136.485278 
L 100.562392 134.240961 
L 102.614974 132.395458 
L 104.667555 130.94228 
L 106.720137 129.831561 
L 108.772718 129.000373 
L 110.8253 128.387941 
L 112.877881 127.941937 
L 114.930463 127.620061 
L 116.983044 127.389427 
L 119.035626 127.225133 
L 121.088208 127.108661 
L 123.140789 127.026429 
L 125.193371 126.968574 
L 127.245952 126.927994 
L 129.298534 126.899609 
L 131.351115 126.879802 
L 133.403697 126.86601 
L 135.456279 126.856425 
L 137.50886 126.849776 
L 139.561442 126.845172 
L 141.614023 126.841988 
L 143.666605 126.839789 
L 145.719186 126.838273 
L 147.771768 126.837229 
L 149.82435 126.83651 
L 151.876931 126.836016 
L 153.929513 126.835677 
L 155.982094 126.835445 
L 158.034676 126.835285 
L 160.087257 126.835176 
L 162.139839 126.835101 
L 164.19242 126.83505 
L 166.245002 126.835015 
L 168.297584 126.834991 
L 170.350165 126.834975 
L 172.402747 126.834964 
L 174.455328 126.834956 
L 176.50791 126.834951 
L 178.560491 126.834948 
L 180.613073 126.834945 
L 182.665655 126.834944 
L 184.718236 126.834943 
L 186.770818 126.834942 
L 188.823399 126.834941 
L 190.875981 126.834941 
L 192.928562 126.834941 
L 194.981144 126.834941 
L 197.033726 126.834941 
L 199.086307 126.834941 
L 201.138889 126.83494 
L 203.19147 126.83494 
L 205.244052 126.83494 
" clip-path="url(#pd277cfd731)" style="fill: none; stroke: #21918c; stroke-width: 1.5; stroke-linecap: round"/>
   </g>
   <g id="line2d_11">
    <path d="M 75.931413 32.122005 
L 77.983995 69.740229 
L 80.036576 103.639783 
L 82.089158 129.446456 
L 84.141739 146.350328 
L 86.194321 154.949023 
L 88.246903 157.076109 
L 90.299484 155.036881 
L 92.352066 150.901912 
L 94.404647 146.166169 
L 96.457229 141.709006 
L 98.50981 137.930137 
L 100.562392 134.926508 
L 102.614974 132.638751 
L 104.667555 130.946504 
L 106.720137 129.720336 
L 108.772718 128.845055 
L 110.8253 128.227147 
L 112.877881 127.794612 
L 114.930463 127.493844 
L 116.983044 127.285818 
L 119.035626 127.142571 
L 121.088208 127.044298 
L 123.140789 126.977094 
L 125.193371 126.931265 
L 127.245952 126.90009 
L 129.298534 126.87893 
L 131.351115 126.864597 
L 133.403697 126.854905 
L 135.456279 126.848363 
L 137.50886 126.843953 
L 139.561442 126.840985 
L 141.614023 126.838991 
L 143.666605 126.837651 
L 145.719186 126.836753 
L 147.771768 126.836151 
L 149.82435 126.835749 
L 151.876931 126.83548 
L 153.929513 126.8353 
L 155.982094 126.83518 
L 158.034676 126.8351 
L 160.087257 126.835046 
L 162.139839 126.835011 
L 164.19242 126.834987 
L 166.245002 126.834971 
L 168.297584 126.834961 
L 170.350165 126.834954 
L 172.402747 126.834949 
L 174.455328 126.834946 
L 176.50791 126.834944 
L 178.560491 126.834943 
L 180.613073 126.834942 
L 182.665655 126.834942 
L 184.718236 126.834941 
L 186.770818 126.834941 
L 188.823399 126.834941 
L 190.875981 126.834941 
L 192.928562 126.834941 
L 194.981144 126.83494 
L 197.033726 126.83494 
L 199.086307 126.83494 
L 201.138889 126.83494 
L 203.19147 126.83494 
L 205.244052 126.83494 
" clip-path="url(#pd277cfd731)" style="fill: none; stroke: #44bf70; stroke-width: 1.5; stroke-linecap: round"/>
   </g>
   <g id="line2d_12">
    <path d="M 75.931413 41.245488 
L 77.983995 83.659681 
L 80.036576 117.975103 
L 82.089158 142.051583 
L 84.141739 155.403705 
L 86.194321 159.897802 
L 88.246903 158.442479 
L 90.299484 153.89022 
L 92.352066 148.36524 
L 94.404647 143.123174 
L 96.457229 138.724422 
L 98.50981 135.295034 
L 100.562392 132.745516 
L 102.614974 130.909603 
L 104.667555 129.616319 
L 106.720137 128.719312 
L 108.772718 128.104135 
L 110.8253 127.685778 
L 112.877881 127.403114 
L 114.930463 127.213115 
L 116.983044 127.085942 
L 119.035626 127.001123 
L 121.088208 126.944725 
L 123.140789 126.907323 
L 125.193371 126.882578 
L 127.245952 126.866241 
L 129.298534 126.855475 
L 131.351115 126.848394 
L 133.403697 126.843743 
L 135.456279 126.840693 
L 137.50886 126.838696 
L 139.561442 126.837389 
L 141.614023 126.836536 
L 143.666605 126.835979 
L 145.719186 126.835616 
L 147.771768 126.835379 
L 149.82435 126.835225 
L 151.876931 126.835125 
L 153.929513 126.83506 
L 155.982094 126.835018 
L 158.034676 126.834991 
L 160.087257 126.834973 
L 162.139839 126.834961 
L 164.19242 126.834954 
L 166.245002 126.834949 
L 168.297584 126.834946 
L 170.350165 126.834944 
L 172.402747 126.834943 
L 174.455328 126.834942 
L 176.50791 126.834941 
L 178.560491 126.834941 
L 180.613073 126.834941 
L 182.665655 126.834941 
L 184.718236 126.834941 
L 186.770818 126.83494 
L 188.823399 126.83494 
L 190.875981 126.83494 
L 192.928562 126.83494 
L 194.981144 126.83494 
L 197.033726 126.83494 
L 199.086307 126.83494 
L 201.138889 126.83494 
L 203.19147 126.83494 
L 205.244052 126.83494 
" clip-path="url(#pd277cfd731)" style="fill: none; stroke: #bddf26; stroke-width: 1.5; stroke-linecap: round"/>
   </g>
   <g id="patch_3">
    <path d="M 69.465781 166.363434 
L 69.465781 24.119531 
" style="fill: none; stroke: #cccccc; stroke-linejoin: miter; stroke-linecap: square"/>
   </g>
   <g id="patch_4">
    <path d="M 211.709684 166.363434 
L 211.709684 24.119531 
" style="fill: none; stroke: #cccccc; stroke-linejoin: miter; stroke-linecap: square"/>
   </g>
   <g id="patch_5">
    <path d="M 69.465781 166.363434 
L 211.709684 166.363434 
" style="fill: none; stroke: #cccccc; stroke-linejoin: miter; stroke-linecap: square"/>
   </g>
   <g id="patch_6">
    <path d="M 69.465781 24.119531 
L 211.709684 24.119531 
" style="fill: none; stroke: #cccccc; stroke-linejoin: miter; stroke-linecap: square"/>
   </g>
   <g id="text_10">
    <!-- La Grange -->
    <g style="fill: #262626" transform="translate(105.149061 18.119531)scale(0.15 -0.15)">
     <defs>
      <path id="ArialMT-4c" d="M 469 0 
L 469 4581 
L 1075 4581 
L 1075 541 
L 3331 541 
L 3331 0 
L 469 0 
z
" transform="scale(0.015625)"/>
      <path id="ArialMT-47" d="M 2638 1797 
L 2638 2334 
L 4578 2338 
L 4578 638 
Q 4131 281 3656 101 
Q 3181 -78 2681 -78 
Q 2006 -78 1454 211 
Q 903 500 622 1047 
Q 341 1594 341 2269 
Q 341 2938 620 3517 
Q 900 4097 1425 4378 
Q 1950 4659 2634 4659 
Q 3131 4659 3532 4498 
Q 3934 4338 4162 4050 
Q 4391 3763 4509 3300 
L 3963 3150 
Q 3859 3500 3706 3700 
Q 3553 3900 3268 4020 
Q 2984 4141 2638 4141 
Q 2222 4141 1919 4014 
Q 1616 3888 1430 3681 
Q 1244 3475 1141 3228 
Q 966 2803 966 2306 
Q 966 1694 1177 1281 
Q 1388 869 1791 669 
Q 2194 469 2647 469 
Q 3041 469 3416 620 
Q 3791 772 3984 944 
L 3984 1797 
L 2638 1797 
z
" transform="scale(0.015625)"/>
      <path id="ArialMT-67" d="M 319 -275 
L 866 -356 
Q 900 -609 1056 -725 
Q 1266 -881 1628 -881 
Q 2019 -881 2231 -725 
Q 2444 -569 2519 -288 
Q 2563 -116 2559 434 
Q 2191 0 1641 0 
Q 956 0 581 494 
Q 206 988 206 1678 
Q 206 2153 378 2554 
Q 550 2956 876 3175 
Q 1203 3394 1644 3394 
Q 2231 3394 2613 2919 
L 2613 3319 
L 3131 3319 
L 3131 450 
Q 3131 -325 2973 -648 
Q 2816 -972 2473 -1159 
Q 2131 -1347 1631 -1347 
Q 1038 -1347 672 -1080 
Q 306 -813 319 -275 
z
M 784 1719 
Q 784 1066 1043 766 
Q 1303 466 1694 466 
Q 2081 466 2343 764 
Q 2606 1063 2606 1700 
Q 2606 2309 2336 2618 
Q 2066 2928 1684 2928 
Q 1309 2928 1046 2623 
Q 784 2319 784 1719 
z
" transform="scale(0.015625)"/>
     </defs>
     <use xlink:href="#ArialMT-4c"/>
     <use xlink:href="#ArialMT-61" x="55.615234"/>
     <use xlink:href="#ArialMT-20" x="111.230469"/>
     <use xlink:href="#ArialMT-47" x="139.013672"/>
     <use xlink:href="#ArialMT-72" x="216.796875"/>
     <use xlink:href="#ArialMT-61" x="250.097656"/>
     <use xlink:href="#ArialMT-6e" x="305.712891"/>
     <use xlink:href="#ArialMT-67" x="361.328125"/>
     <use xlink:href="#ArialMT-65" x="416.943359"/>
    </g>
   </g>
  </g>
  <g id="axes_2">
   <g id="patch_7">
    <path d="M 218.821879 166.363434 
L 361.065781 166.363434 
L 361.065781 24.119531 
L 218.821879 24.119531 
z
" style="fill: #ffffff"/>
   </g>
   <g id="matplotlib.axis_3">
    <g id="xtick_4">
     <g id="line2d_13">
      <path d="M 245.813326 166.363434 
L 245.813326 24.119531 
" clip-path="url(#pe601d2509e)" style="fill: none; stroke: #cccccc; stroke-linecap: round"/>
     </g>
     <g id="text_11">
      <!-- 20 -->
      <g style="fill: #262626" transform="translate(239.696295 177.737027)scale(0.11 -0.11)">
       <use xlink:href="#ArialMT-32"/>
       <use xlink:href="#ArialMT-30" x="55.615234"/>
      </g>
     </g>
    </g>
    <g id="xtick_5">
     <g id="line2d_14">
      <path d="M 286.864958 166.363434 
L 286.864958 24.119531 
" clip-path="url(#pe601d2509e)" style="fill: none; stroke: #cccccc; stroke-linecap: round"/>
     </g>
     <g id="text_12">
      <!-- 40 -->
      <g style="fill: #262626" transform="translate(280.747926 177.737027)scale(0.11 -0.11)">
       <use xlink:href="#ArialMT-34"/>
       <use xlink:href="#ArialMT-30" x="55.615234"/>
      </g>
     </g>
    </g>
    <g id="xtick_6">
     <g id="line2d_15">
      <path d="M 327.916589 166.363434 
L 327.916589 24.119531 
" clip-path="url(#pe601d2509e)" style="fill: none; stroke: #cccccc; stroke-linecap: round"/>
     </g>
     <g id="text_13">
      <!-- 60 -->
      <g style="fill: #262626" transform="translate(321.799558 177.737027)scale(0.11 -0.11)">
       <use xlink:href="#ArialMT-36"/>
       <use xlink:href="#ArialMT-30" x="55.615234"/>
      </g>
     </g>
    </g>
    <g id="text_14">
     <!-- Years -->
     <g style="fill: #262626" transform="translate(271.036799 194.659996)scale(0.15 -0.15)">
      <use xlink:href="#ArialMT-59"/>
      <use xlink:href="#ArialMT-65" x="57.574219"/>
      <use xlink:href="#ArialMT-61" x="113.189453"/>
      <use xlink:href="#ArialMT-72" x="168.804688"/>
      <use xlink:href="#ArialMT-73" x="202.105469"/>
     </g>
    </g>
   </g>
   <g id="matplotlib.axis_4">
    <g id="ytick_5">
     <g id="line2d_16">
      <path d="M 218.821879 161.857426 
L 361.065781 161.857426 
" clip-path="url(#pe601d2509e)" style="fill: none; stroke: #cccccc; stroke-linecap: round"/>
     </g>
    </g>
    <g id="ytick_6">
     <g id="line2d_17">
      <path d="M 218.821879 126.83494 
L 361.065781 126.83494 
" clip-path="url(#pe601d2509e)" style="fill: none; stroke: #cccccc; stroke-linecap: round"/>
     </g>
    </g>
    <g id="ytick_7">
     <g id="line2d_18">
      <path d="M 218.821879 91.812455 
L 361.065781 91.812455 
" clip-path="url(#pe601d2509e)" style="fill: none; stroke: #cccccc; stroke-linecap: round"/>
     </g>
    </g>
    <g id="ytick_8">
     <g id="line2d_19">
      <path d="M 218.821879 56.78997 
L 361.065781 56.78997 
" clip-path="url(#pe601d2509e)" style="fill: none; stroke: #cccccc; stroke-linecap: round"/>
     </g>
    </g>
   </g>
   <g id="line2d_20">
    <path d="M 225.287511 71.643543 
L 227.340092 83.221714 
L 229.392674 93.512184 
L 231.445255 101.385759 
L 233.497837 108.244681 
L 235.550419 114.102709 
L 237.603 118.647857 
L 239.655582 121.906356 
L 241.708163 124.106843 
L 243.760745 125.510721 
L 245.813326 126.351293 
L 247.865908 126.816737 
L 249.91849 127.046776 
L 251.971071 127.137688 
L 254.023653 127.151809 
L 256.076234 127.127467 
L 258.128816 127.087098 
L 260.181397 127.043092 
L 262.233979 127.001728 
L 264.28656 126.965722 
L 266.339142 126.935819 
L 268.391724 126.91176 
L 270.444305 126.892838 
L 272.496887 126.878209 
L 274.549468 126.867049 
L 276.60205 126.858625 
L 278.654631 126.852321 
L 280.707213 126.847639 
L 282.759795 126.844181 
L 284.812376 126.841642 
L 286.864958 126.839786 
L 288.917539 126.838434 
L 290.970121 126.837453 
L 293.022702 126.836743 
L 295.075284 126.836232 
L 297.127866 126.835863 
L 299.180447 126.835599 
L 301.233029 126.835409 
L 303.28561 126.835274 
L 305.338192 126.835177 
L 307.390773 126.835109 
L 309.443355 126.83506 
L 311.495936 126.835025 
L 313.548518 126.835 
L 315.6011 126.834983 
L 317.653681 126.83497 
L 319.706263 126.834961 
L 321.758844 126.834955 
L 323.811426 126.834951 
L 325.864007 126.834948 
L 327.916589 126.834946 
L 329.969171 126.834944 
L 332.021752 126.834943 
L 334.074334 126.834942 
L 336.126915 126.834942 
L 338.179497 126.834941 
L 340.232078 126.834941 
L 342.28466 126.834941 
L 344.337241 126.834941 
L 346.389823 126.834941 
L 348.442405 126.834941 
L 350.494986 126.83494 
L 352.547568 126.83494 
L 354.600149 126.83494 
" clip-path="url(#pe601d2509e)" style="fill: none; stroke: #482475; stroke-width: 1.5; stroke-linecap: round"/>
   </g>
   <g id="line2d_21">
    <path d="M 225.287511 38.756639 
L 227.340092 61.163603 
L 229.392674 78.810973 
L 231.445255 94.529637 
L 233.497837 108.016641 
L 235.550419 118.225644 
L 237.603 125.13706 
L 239.655582 129.278769 
L 241.708163 131.336187 
L 243.760745 131.991054 
L 245.813326 131.817171 
L 247.865908 131.232182 
L 249.91849 130.503358 
L 251.971071 129.781361 
L 254.023653 129.138636 
L 256.076234 128.600807 
L 258.128816 128.168377 
L 260.181397 127.830157 
L 262.233979 127.570859 
L 264.28656 127.375031 
L 266.339142 127.228848 
L 268.391724 127.120728 
L 270.444305 127.041359 
L 272.496887 126.983455 
L 274.549468 126.941433 
L 276.60205 126.911072 
L 278.654631 126.889222 
L 280.707213 126.87355 
L 282.759795 126.862343 
L 284.812376 126.854351 
L 286.864958 126.848665 
L 288.917539 126.844628 
L 290.970121 126.841769 
L 293.022702 126.839746 
L 295.075284 126.838318 
L 297.127866 126.837312 
L 299.180447 126.836603 
L 301.233029 126.836105 
L 303.28561 126.835756 
L 305.338192 126.83551 
L 307.390773 126.835338 
L 309.443355 126.835218 
L 311.495936 126.835134 
L 313.548518 126.835075 
L 315.6011 126.835034 
L 317.653681 126.835006 
L 319.706263 126.834986 
L 321.758844 126.834972 
L 323.811426 126.834962 
L 325.864007 126.834956 
L 327.916589 126.834951 
L 329.969171 126.834948 
L 332.021752 126.834945 
L 334.074334 126.834944 
L 336.126915 126.834943 
L 338.179497 126.834942 
L 340.232078 126.834942 
L 342.28466 126.834941 
L 344.337241 126.834941 
L 346.389823 126.834941 
L 348.442405 126.834941 
L 350.494986 126.834941 
L 352.547568 126.83494 
L 354.600149 126.83494 
" clip-path="url(#pe601d2509e)" style="fill: none; stroke: #355f8d; stroke-width: 1.5; stroke-linecap: round"/>
   </g>
   <g id="line2d_22">
    <path d="M 225.287511 30.585163 
L 227.340092 59.267387 
L 229.392674 85.797444 
L 231.445255 108.753892 
L 233.497837 125.836258 
L 235.550419 136.892888 
L 237.603 142.697575 
L 239.655582 144.516072 
L 241.708163 143.757297 
L 243.760745 141.639947 
L 245.813326 139.039181 
L 247.865908 136.485278 
L 249.91849 134.240961 
L 251.971071 132.395458 
L 254.023653 130.94228 
L 256.076234 129.831561 
L 258.128816 129.000373 
L 260.181397 128.387941 
L 262.233979 127.941937 
L 264.28656 127.620061 
L 266.339142 127.389427 
L 268.391724 127.225133 
L 270.444305 127.108661 
L 272.496887 127.026429 
L 274.549468 126.968574 
L 276.60205 126.927994 
L 278.654631 126.899609 
L 280.707213 126.879802 
L 282.759795 126.86601 
L 284.812376 126.856425 
L 286.864958 126.849776 
L 288.917539 126.845172 
L 290.970121 126.841988 
L 293.022702 126.839789 
L 295.075284 126.838273 
L 297.127866 126.837229 
L 299.180447 126.83651 
L 301.233029 126.836016 
L 303.28561 126.835677 
L 305.338192 126.835445 
L 307.390773 126.835285 
L 309.443355 126.835176 
L 311.495936 126.835101 
L 313.548518 126.83505 
L 315.6011 126.835015 
L 317.653681 126.834991 
L 319.706263 126.834975 
L 321.758844 126.834964 
L 323.811426 126.834956 
L 325.864007 126.834951 
L 327.916589 126.834948 
L 329.969171 126.834945 
L 332.021752 126.834944 
L 334.074334 126.834943 
L 336.126915 126.834942 
L 338.179497 126.834941 
L 340.232078 126.834941 
L 342.28466 126.834941 
L 344.337241 126.834941 
L 346.389823 126.834941 
L 348.442405 126.834941 
L 350.494986 126.83494 
L 352.547568 126.83494 
L 354.600149 126.83494 
" clip-path="url(#pe601d2509e)" style="fill: none; stroke: #21918c; stroke-width: 1.5; stroke-linecap: round"/>
   </g>
   <g id="line2d_23">
    <path d="M 225.287511 32.122005 
L 227.340092 69.740229 
L 229.392674 103.639783 
L 231.445255 129.446456 
L 233.497837 146.350328 
L 235.550419 154.949023 
L 237.603 157.076109 
L 239.655582 155.036881 
L 241.708163 150.901912 
L 243.760745 146.166169 
L 245.813326 141.709006 
L 247.865908 137.930137 
L 249.91849 134.926508 
L 251.971071 132.638751 
L 254.023653 130.946504 
L 256.076234 129.720336 
L 258.128816 128.845055 
L 260.181397 128.227147 
L 262.233979 127.794612 
L 264.28656 127.493844 
L 266.339142 127.285818 
L 268.391724 127.142571 
L 270.444305 127.044298 
L 272.496887 126.977094 
L 274.549468 126.931265 
L 276.60205 126.90009 
L 278.654631 126.87893 
L 280.707213 126.864597 
L 282.759795 126.854905 
L 284.812376 126.848363 
L 286.864958 126.843953 
L 288.917539 126.840985 
L 290.970121 126.838991 
L 293.022702 126.837651 
L 295.075284 126.836753 
L 297.127866 126.836151 
L 299.180447 126.835749 
L 301.233029 126.83548 
L 303.28561 126.8353 
L 305.338192 126.83518 
L 307.390773 126.8351 
L 309.443355 126.835046 
L 311.495936 126.835011 
L 313.548518 126.834987 
L 315.6011 126.834971 
L 317.653681 126.834961 
L 319.706263 126.834954 
L 321.758844 126.834949 
L 323.811426 126.834946 
L 325.864007 126.834944 
L 327.916589 126.834943 
L 329.969171 126.834942 
L 332.021752 126.834942 
L 334.074334 126.834941 
L 336.126915 126.834941 
L 338.179497 126.834941 
L 340.232078 126.834941 
L 342.28466 126.834941 
L 344.337241 126.83494 
L 346.389823 126.83494 
L 348.442405 126.83494 
L 350.494986 126.83494 
L 352.547568 126.83494 
L 354.600149 126.83494 
" clip-path="url(#pe601d2509e)" style="fill: none; stroke: #44bf70; stroke-width: 1.5; stroke-linecap: round"/>
   </g>
   <g id="line2d_24">
    <path d="M 225.287511 41.245488 
L 227.340092 83.659681 
L 229.392674 117.975103 
L 231.445255 142.051583 
L 233.497837 155.403705 
L 235.550419 159.897802 
L 237.603 158.442479 
L 239.655582 153.89022 
L 241.708163 148.36524 
L 243.760745 143.123174 
L 245.813326 138.724422 
L 247.865908 135.295034 
L 249.91849 132.745516 
L 251.971071 130.909603 
L 254.023653 129.616319 
L 256.076234 128.719312 
L 258.128816 128.104135 
L 260.181397 127.685778 
L 262.233979 127.403114 
L 264.28656 127.213115 
L 266.339142 127.085942 
L 268.391724 127.001123 
L 270.444305 126.944725 
L 272.496887 126.907323 
L 274.549468 126.882578 
L 276.60205 126.866241 
L 278.654631 126.855475 
L 280.707213 126.848394 
L 282.759795 126.843743 
L 284.812376 126.840693 
L 286.864958 126.838696 
L 288.917539 126.837389 
L 290.970121 126.836536 
L 293.022702 126.835979 
L 295.075284 126.835616 
L 297.127866 126.835379 
L 299.180447 126.835225 
L 301.233029 126.835125 
L 303.28561 126.83506 
L 305.338192 126.835018 
L 307.390773 126.834991 
L 309.443355 126.834973 
L 311.495936 126.834961 
L 313.548518 126.834954 
L 315.6011 126.834949 
L 317.653681 126.834946 
L 319.706263 126.834944 
L 321.758844 126.834943 
L 323.811426 126.834942 
L 325.864007 126.834941 
L 327.916589 126.834941 
L 329.969171 126.834941 
L 332.021752 126.834941 
L 334.074334 126.834941 
L 336.126915 126.83494 
L 338.179497 126.83494 
L 340.232078 126.83494 
L 342.28466 126.83494 
L 344.337241 126.83494 
L 346.389823 126.83494 
L 348.442405 126.83494 
L 350.494986 126.83494 
L 352.547568 126.83494 
L 354.600149 126.83494 
" clip-path="url(#pe601d2509e)" style="fill: none; stroke: #bddf26; stroke-width: 1.5; stroke-linecap: round"/>
   </g>
   <g id="patch_8">
    <path d="M 218.821879 166.363434 
L 218.821879 24.119531 
" style="fill: none; stroke: #cccccc; stroke-linejoin: miter; stroke-linecap: square"/>
   </g>
   <g id="patch_9">
    <path d="M 361.065781 166.363434 
L 361.065781 24.119531 
" style="fill: none; stroke: #cccccc; stroke-linejoin: miter; stroke-linecap: square"/>
   </g>
   <g id="patch_10">
    <path d="M 218.821879 166.363434 
L 361.065781 166.363434 
" style="fill: none; stroke: #cccccc; stroke-linejoin: miter; stroke-linecap: square"/>
   </g>
   <g id="patch_11">
    <path d="M 218.821879 24.119531 
L 361.065781 24.119531 
" style="fill: none; stroke: #cccccc; stroke-linejoin: miter; stroke-linecap: square"/>
   </g>
   <g id="text_15">
    <!-- Peoria -->
    <g style="fill: #262626" transform="translate(268.265314 18.119531)scale(0.15 -0.15)">
     <defs>
      <path id="ArialMT-50" d="M 494 0 
L 494 4581 
L 2222 4581 
Q 2678 4581 2919 4538 
Q 3256 4481 3484 4323 
Q 3713 4166 3852 3881 
Q 3991 3597 3991 3256 
Q 3991 2672 3619 2267 
Q 3247 1863 2275 1863 
L 1100 1863 
L 1100 0 
L 494 0 
z
M 1100 2403 
L 2284 2403 
Q 2872 2403 3119 2622 
Q 3366 2841 3366 3238 
Q 3366 3525 3220 3729 
Q 3075 3934 2838 4000 
Q 2684 4041 2272 4041 
L 1100 4041 
L 1100 2403 
z
" transform="scale(0.015625)"/>
     </defs>
     <use xlink:href="#ArialMT-50"/>
     <use xlink:href="#ArialMT-65" x="66.699219"/>
     <use xlink:href="#ArialMT-6f" x="122.314453"/>
     <use xlink:href="#ArialMT-72" x="177.929688"/>
     <use xlink:href="#ArialMT-69" x="211.230469"/>
     <use xlink:href="#ArialMT-61" x="233.447266"/>
    </g>
   </g>
  </g>
  <g id="legend_1">
   <g id="patch_12">
    <path d="M 387.914687 151.20742 
L 441.465781 151.20742 
Q 443.665781 151.20742 443.665781 149.00742 
L 443.665781 55.833826 
Q 443.665781 53.633826 441.465781 53.633826 
L 387.914687 53.633826 
Q 385.714687 53.633826 385.714687 55.833826 
L 385.714687 149.00742 
Q 385.714687 151.20742 387.914687 151.20742 
z
" style="fill: #ffffff; opacity: 0.8; stroke: #cccccc; stroke-linejoin: miter"/>
   </g>
   <g id="text_16">
    <!-- $L_\infty$ -->
    <g style="fill: #262626" transform="translate(407.670234 66.623201)scale(0.12 -0.12)">
     <defs>
      <path id="DejaVuSans-Oblique-4c" d="M 1075 4666 
L 1709 4666 
L 909 525 
L 3181 525 
L 3078 0 
L 172 0 
L 1075 4666 
z
" transform="scale(0.015625)"/>
      <path id="DejaVuSans-221e" d="M 2916 1091 
Q 2819 1203 2666 1466 
Q 2456 1091 2272 925 
Q 2041 725 1681 725 
Q 1259 725 981 1041 
Q 688 1372 688 1919 
Q 688 2444 981 2800 
Q 1244 3116 1688 3116 
Q 1916 3116 2084 3022 
Q 2281 2919 2416 2741 
Q 2541 2581 2666 2366 
Q 2875 2741 3059 2906 
Q 3291 3106 3650 3106 
Q 4072 3106 4350 2791 
Q 4644 2459 4644 1913 
Q 4644 1388 4350 1031 
Q 4088 716 3644 716 
Q 3416 716 3247 809 
Q 3078 894 2916 1091 
z
M 1647 1134 
Q 2163 1134 2472 1884 
Q 2075 2703 1647 2703 
Q 1334 2703 1175 2478 
Q 1003 2238 1003 1919 
Q 1003 1569 1175 1353 
Q 1350 1134 1647 1134 
z
M 3684 2697 
Q 3219 2697 2859 1947 
Q 3253 1128 3684 1128 
Q 3997 1128 4156 1353 
Q 4328 1594 4328 1913 
Q 4328 2263 4156 2478 
Q 3981 2697 3684 2697 
z
" transform="scale(0.015625)"/>
     </defs>
     <use xlink:href="#DejaVuSans-Oblique-4c" transform="translate(0 0.09375)"/>
     <use xlink:href="#DejaVuSans-221e" transform="translate(55.712891 -16.3125)scale(0.7)"/>
    </g>
   </g>
   <g id="line2d_25">
    <path d="M 390.114687 78.531795 
L 401.114687 78.531795 
L 412.114687 78.531795 
" style="fill: none; stroke: #482475; stroke-width: 1.5; stroke-linecap: round"/>
   </g>
   <g id="text_17">
    <!-- 678 -->
    <g style="fill: #262626" transform="translate(420.914687 82.381795)scale(0.11 -0.11)">
     <defs>
      <path id="ArialMT-37" d="M 303 3981 
L 303 4522 
L 3269 4522 
L 3269 4084 
Q 2831 3619 2401 2847 
Q 1972 2075 1738 1259 
Q 1569 684 1522 0 
L 944 0 
Q 953 541 1156 1306 
Q 1359 2072 1739 2783 
Q 2119 3494 2547 3981 
L 303 3981 
z
" transform="scale(0.015625)"/>
      <path id="ArialMT-38" d="M 1131 2484 
Q 781 2613 612 2850 
Q 444 3088 444 3419 
Q 444 3919 803 4259 
Q 1163 4600 1759 4600 
Q 2359 4600 2725 4251 
Q 3091 3903 3091 3403 
Q 3091 3084 2923 2848 
Q 2756 2613 2416 2484 
Q 2838 2347 3058 2040 
Q 3278 1734 3278 1309 
Q 3278 722 2862 322 
Q 2447 -78 1769 -78 
Q 1091 -78 675 323 
Q 259 725 259 1325 
Q 259 1772 486 2073 
Q 713 2375 1131 2484 
z
M 1019 3438 
Q 1019 3113 1228 2906 
Q 1438 2700 1772 2700 
Q 2097 2700 2305 2904 
Q 2513 3109 2513 3406 
Q 2513 3716 2298 3927 
Q 2084 4138 1766 4138 
Q 1444 4138 1231 3931 
Q 1019 3725 1019 3438 
z
M 838 1322 
Q 838 1081 952 856 
Q 1066 631 1291 507 
Q 1516 384 1775 384 
Q 2178 384 2440 643 
Q 2703 903 2703 1303 
Q 2703 1709 2433 1975 
Q 2163 2241 1756 2241 
Q 1359 2241 1098 1978 
Q 838 1716 838 1322 
z
" transform="scale(0.015625)"/>
     </defs>
     <use xlink:href="#ArialMT-36"/>
     <use xlink:href="#ArialMT-37" x="55.615234"/>
     <use xlink:href="#ArialMT-38" x="111.230469"/>
    </g>
   </g>
   <g id="line2d_26">
    <path d="M 390.114687 94.091639 
L 401.114687 94.091639 
L 412.114687 94.091639 
" style="fill: none; stroke: #355f8d; stroke-width: 1.5; stroke-linecap: round"/>
   </g>
   <g id="text_18">
    <!-- 728 -->
    <g style="fill: #262626" transform="translate(420.914687 97.941639)scale(0.11 -0.11)">
     <use xlink:href="#ArialMT-37"/>
     <use xlink:href="#ArialMT-32" x="55.615234"/>
     <use xlink:href="#ArialMT-38" x="111.230469"/>
    </g>
   </g>
   <g id="line2d_27">
    <path d="M 390.114687 109.651482 
L 401.114687 109.651482 
L 412.114687 109.651482 
" style="fill: none; stroke: #21918c; stroke-width: 1.5; stroke-linecap: round"/>
   </g>
   <g id="text_19">
    <!-- 778 -->
    <g style="fill: #262626" transform="translate(420.914687 113.501482)scale(0.11 -0.11)">
     <use xlink:href="#ArialMT-37"/>
     <use xlink:href="#ArialMT-37" x="55.615234"/>
     <use xlink:href="#ArialMT-38" x="111.230469"/>
    </g>
   </g>
   <g id="line2d_28">
    <path d="M 390.114687 125.211326 
L 401.114687 125.211326 
L 412.114687 125.211326 
" style="fill: none; stroke: #44bf70; stroke-width: 1.5; stroke-linecap: round"/>
   </g>
   <g id="text_20">
    <!-- 828 -->
    <g style="fill: #262626" transform="translate(420.914687 129.061326)scale(0.11 -0.11)">
     <use xlink:href="#ArialMT-38"/>
     <use xlink:href="#ArialMT-32" x="55.615234"/>
     <use xlink:href="#ArialMT-38" x="111.230469"/>
    </g>
   </g>
   <g id="line2d_29">
    <path d="M 390.114687 140.77117 
L 401.114687 140.77117 
L 412.114687 140.77117 
" style="fill: none; stroke: #bddf26; stroke-width: 1.5; stroke-linecap: round"/>
   </g>
   <g id="text_21">
    <!-- 878 -->
    <g style="fill: #262626" transform="translate(420.914687 144.62117)scale(0.11 -0.11)">
     <use xlink:href="#ArialMT-38"/>
     <use xlink:href="#ArialMT-37" x="55.615234"/>
     <use xlink:href="#ArialMT-38" x="111.230469"/>
    </g>
   </g>
  </g>
 </g>
 <defs>
  <clipPath id="pd277cfd731">
   <rect x="69.465781" y="24.119531" width="142.243902" height="142.243902"/>
  </clipPath>
  <clipPath id="pe601d2509e">
   <rect x="218.821879" y="24.119531" width="142.243902" height="142.243902"/>
  </clipPath>
 </defs>
</svg>
