<?xml version="1.0" encoding="utf-8" standalone="no"?>
<!DOCTYPE svg PUBLIC "-//W3C//DTD SVG 1.1//EN"
  "http://www.w3.org/Graphics/SVG/1.1/DTD/svg11.dtd">
<svg xmlns:xlink="http://www.w3.org/1999/xlink" width="430.814687pt" height="204.841246pt" viewBox="0 0 430.814687 204.841246" xmlns="http://www.w3.org/2000/svg" version="1.1">
 <metadata>
  <rdf:RDF xmlns:dc="http://purl.org/dc/elements/1.1/" xmlns:cc="http://creativecommons.org/ns#" xmlns:rdf="http://www.w3.org/1999/02/22-rdf-syntax-ns#">
   <cc:Work>
    <dc:type rdf:resource="http://purl.org/dc/dcmitype/StillImage"/>
    <dc:date>2022-10-12T15:00:49.504489</dc:date>
    <dc:format>image/svg+xml</dc:format>
    <dc:creator>
     <cc:Agent>
      <dc:title>Matplotlib v3.5.1, https://matplotlib.org/</dc:title>
     </cc:Agent>
    </dc:creator>
   </cc:Work>
  </rdf:RDF>
 </metadata>
 <defs>
  <style type="text/css">*{stroke-linejoin: round; stroke-linecap: butt}</style>
 </defs>
 <g id="figure_1">
  <g id="patch_1">
   <path d="M 0 204.841246 
L 430.814687 204.841246 
L 430.814687 0 
L 0 0 
z
" style="fill: #ffffff"/>
  </g>
  <g id="axes_1">
   <g id="patch_2">
    <path d="M 51.114688 166.363434 
L 193.35859 166.363434 
L 193.35859 24.119531 
L 51.114688 24.119531 
z
" style="fill: #ffffff"/>
   </g>
   <g id="matplotlib.axis_1">
    <g id="xtick_1">
     <g id="line2d_1">
      <path d="M 78.106135 166.363434 
L 78.106135 24.119531 
" clip-path="url(#pb183f539da)" style="fill: none; stroke: #cccccc; stroke-linecap: round"/>
     </g>
     <g id="text_1">
      <!-- 20 -->
      <g style="fill: #262626" transform="translate(71.989104 177.737027)scale(0.11 -0.11)">
       <defs>
        <path id="ArialMT-32" d="M 3222 541 
L 3222 0 
L 194 0 
Q 188 203 259 391 
Q 375 700 629 1000 
Q 884 1300 1366 1694 
Q 2113 2306 2375 2664 
Q 2638 3022 2638 3341 
Q 2638 3675 2398 3904 
Q 2159 4134 1775 4134 
Q 1369 4134 1125 3890 
Q 881 3647 878 3216 
L 300 3275 
Q 359 3922 746 4261 
Q 1134 4600 1788 4600 
Q 2447 4600 2831 4234 
Q 3216 3869 3216 3328 
Q 3216 3053 3103 2787 
Q 2991 2522 2730 2228 
Q 2469 1934 1863 1422 
Q 1356 997 1212 845 
Q 1069 694 975 541 
L 3222 541 
z
" transform="scale(0.015625)"/>
        <path id="ArialMT-30" d="M 266 2259 
Q 266 3072 433 3567 
Q 600 4063 929 4331 
Q 1259 4600 1759 4600 
Q 2128 4600 2406 4451 
Q 2684 4303 2865 4023 
Q 3047 3744 3150 3342 
Q 3253 2941 3253 2259 
Q 3253 1453 3087 958 
Q 2922 463 2592 192 
Q 2263 -78 1759 -78 
Q 1097 -78 719 397 
Q 266 969 266 2259 
z
M 844 2259 
Q 844 1131 1108 757 
Q 1372 384 1759 384 
Q 2147 384 2411 759 
Q 2675 1134 2675 2259 
Q 2675 3391 2411 3762 
Q 2147 4134 1753 4134 
Q 1366 4134 1134 3806 
Q 844 3388 844 2259 
z
" transform="scale(0.015625)"/>
       </defs>
       <use xlink:href="#ArialMT-32"/>
       <use xlink:href="#ArialMT-30" x="55.615234"/>
      </g>
     </g>
    </g>
    <g id="xtick_2">
     <g id="line2d_2">
      <path d="M 119.157766 166.363434 
L 119.157766 24.119531 
" clip-path="url(#pb183f539da)" style="fill: none; stroke: #cccccc; stroke-linecap: round"/>
     </g>
     <g id="text_2">
      <!-- 40 -->
      <g style="fill: #262626" transform="translate(113.040735 177.737027)scale(0.11 -0.11)">
       <defs>
        <path id="ArialMT-34" d="M 2069 0 
L 2069 1097 
L 81 1097 
L 81 1613 
L 2172 4581 
L 2631 4581 
L 2631 1613 
L 3250 1613 
L 3250 1097 
L 2631 1097 
L 2631 0 
L 2069 0 
z
M 2069 1613 
L 2069 3678 
L 634 1613 
L 2069 1613 
z
" transform="scale(0.015625)"/>
       </defs>
       <use xlink:href="#ArialMT-34"/>
       <use xlink:href="#ArialMT-30" x="55.615234"/>
      </g>
     </g>
    </g>
    <g id="xtick_3">
     <g id="line2d_3">
      <path d="M 160.209398 166.363434 
L 160.209398 24.119531 
" clip-path="url(#pb183f539da)" style="fill: none; stroke: #cccccc; stroke-linecap: round"/>
     </g>
     <g id="text_3">
      <!-- 60 -->
      <g style="fill: #262626" transform="translate(154.092366 177.737027)scale(0.11 -0.11)">
       <defs>
        <path id="ArialMT-36" d="M 3184 3459 
L 2625 3416 
Q 2550 3747 2413 3897 
Q 2184 4138 1850 4138 
Q 1581 4138 1378 3988 
Q 1113 3794 959 3422 
Q 806 3050 800 2363 
Q 1003 2672 1297 2822 
Q 1591 2972 1913 2972 
Q 2475 2972 2870 2558 
Q 3266 2144 3266 1488 
Q 3266 1056 3080 686 
Q 2894 316 2569 119 
Q 2244 -78 1831 -78 
Q 1128 -78 684 439 
Q 241 956 241 2144 
Q 241 3472 731 4075 
Q 1159 4600 1884 4600 
Q 2425 4600 2770 4297 
Q 3116 3994 3184 3459 
z
M 888 1484 
Q 888 1194 1011 928 
Q 1134 663 1356 523 
Q 1578 384 1822 384 
Q 2178 384 2434 671 
Q 2691 959 2691 1453 
Q 2691 1928 2437 2201 
Q 2184 2475 1800 2475 
Q 1419 2475 1153 2201 
Q 888 1928 888 1484 
z
" transform="scale(0.015625)"/>
       </defs>
       <use xlink:href="#ArialMT-36"/>
       <use xlink:href="#ArialMT-30" x="55.615234"/>
      </g>
     </g>
    </g>
    <g id="text_4">
     <!-- Years -->
     <g style="fill: #262626" transform="translate(103.329607 194.659996)scale(0.15 -0.15)">
      <defs>
       <path id="ArialMT-59" d="M 1784 0 
L 1784 1941 
L 19 4581 
L 756 4581 
L 1659 3200 
Q 1909 2813 2125 2425 
Q 2331 2784 2625 3234 
L 3513 4581 
L 4219 4581 
L 2391 1941 
L 2391 0 
L 1784 0 
z
" transform="scale(0.015625)"/>
       <path id="ArialMT-65" d="M 2694 1069 
L 3275 997 
Q 3138 488 2766 206 
Q 2394 -75 1816 -75 
Q 1088 -75 661 373 
Q 234 822 234 1631 
Q 234 2469 665 2931 
Q 1097 3394 1784 3394 
Q 2450 3394 2872 2941 
Q 3294 2488 3294 1666 
Q 3294 1616 3291 1516 
L 816 1516 
Q 847 969 1125 678 
Q 1403 388 1819 388 
Q 2128 388 2347 550 
Q 2566 713 2694 1069 
z
M 847 1978 
L 2700 1978 
Q 2663 2397 2488 2606 
Q 2219 2931 1791 2931 
Q 1403 2931 1139 2672 
Q 875 2413 847 1978 
z
" transform="scale(0.015625)"/>
       <path id="ArialMT-61" d="M 2588 409 
Q 2275 144 1986 34 
Q 1697 -75 1366 -75 
Q 819 -75 525 192 
Q 231 459 231 875 
Q 231 1119 342 1320 
Q 453 1522 633 1644 
Q 813 1766 1038 1828 
Q 1203 1872 1538 1913 
Q 2219 1994 2541 2106 
Q 2544 2222 2544 2253 
Q 2544 2597 2384 2738 
Q 2169 2928 1744 2928 
Q 1347 2928 1158 2789 
Q 969 2650 878 2297 
L 328 2372 
Q 403 2725 575 2942 
Q 747 3159 1072 3276 
Q 1397 3394 1825 3394 
Q 2250 3394 2515 3294 
Q 2781 3194 2906 3042 
Q 3031 2891 3081 2659 
Q 3109 2516 3109 2141 
L 3109 1391 
Q 3109 606 3145 398 
Q 3181 191 3288 0 
L 2700 0 
Q 2613 175 2588 409 
z
M 2541 1666 
Q 2234 1541 1622 1453 
Q 1275 1403 1131 1340 
Q 988 1278 909 1158 
Q 831 1038 831 891 
Q 831 666 1001 516 
Q 1172 366 1500 366 
Q 1825 366 2078 508 
Q 2331 650 2450 897 
Q 2541 1088 2541 1459 
L 2541 1666 
z
" transform="scale(0.015625)"/>
       <path id="ArialMT-72" d="M 416 0 
L 416 3319 
L 922 3319 
L 922 2816 
Q 1116 3169 1280 3281 
Q 1444 3394 1641 3394 
Q 1925 3394 2219 3213 
L 2025 2691 
Q 1819 2813 1613 2813 
Q 1428 2813 1281 2702 
Q 1134 2591 1072 2394 
Q 978 2094 978 1738 
L 978 0 
L 416 0 
z
" transform="scale(0.015625)"/>
       <path id="ArialMT-73" d="M 197 991 
L 753 1078 
Q 800 744 1014 566 
Q 1228 388 1613 388 
Q 2000 388 2187 545 
Q 2375 703 2375 916 
Q 2375 1106 2209 1216 
Q 2094 1291 1634 1406 
Q 1016 1563 777 1677 
Q 538 1791 414 1992 
Q 291 2194 291 2438 
Q 291 2659 392 2848 
Q 494 3038 669 3163 
Q 800 3259 1026 3326 
Q 1253 3394 1513 3394 
Q 1903 3394 2198 3281 
Q 2494 3169 2634 2976 
Q 2775 2784 2828 2463 
L 2278 2388 
Q 2241 2644 2061 2787 
Q 1881 2931 1553 2931 
Q 1166 2931 1000 2803 
Q 834 2675 834 2503 
Q 834 2394 903 2306 
Q 972 2216 1119 2156 
Q 1203 2125 1616 2013 
Q 2213 1853 2448 1751 
Q 2684 1650 2818 1456 
Q 2953 1263 2953 975 
Q 2953 694 2789 445 
Q 2625 197 2315 61 
Q 2006 -75 1616 -75 
Q 969 -75 630 194 
Q 291 463 197 991 
z
" transform="scale(0.015625)"/>
      </defs>
      <use xlink:href="#ArialMT-59"/>
      <use xlink:href="#ArialMT-65" x="57.574219"/>
      <use xlink:href="#ArialMT-61" x="113.189453"/>
      <use xlink:href="#ArialMT-72" x="168.804688"/>
      <use xlink:href="#ArialMT-73" x="202.105469"/>
     </g>
    </g>
   </g>
   <g id="matplotlib.axis_2">
    <g id="ytick_1">
     <g id="line2d_4">
      <path d="M 51.114688 146.882201 
L 193.35859 146.882201 
" clip-path="url(#pb183f539da)" style="fill: none; stroke: #cccccc; stroke-linecap: round"/>
     </g>
     <g id="text_5">
      <!-- −0.5 -->
      <g style="fill: #262626" transform="translate(25.9 150.818998)scale(0.11 -0.11)">
       <defs>
        <path id="ArialMT-2212" d="M 3381 1997 
L 356 1997 
L 356 2522 
L 3381 2522 
L 3381 1997 
z
" transform="scale(0.015625)"/>
        <path id="ArialMT-2e" d="M 581 0 
L 581 641 
L 1222 641 
L 1222 0 
L 581 0 
z
" transform="scale(0.015625)"/>
        <path id="ArialMT-35" d="M 266 1200 
L 856 1250 
Q 922 819 1161 601 
Q 1400 384 1738 384 
Q 2144 384 2425 690 
Q 2706 997 2706 1503 
Q 2706 1984 2436 2262 
Q 2166 2541 1728 2541 
Q 1456 2541 1237 2417 
Q 1019 2294 894 2097 
L 366 2166 
L 809 4519 
L 3088 4519 
L 3088 3981 
L 1259 3981 
L 1013 2750 
Q 1425 3038 1878 3038 
Q 2478 3038 2890 2622 
Q 3303 2206 3303 1553 
Q 3303 931 2941 478 
Q 2500 -78 1738 -78 
Q 1113 -78 717 272 
Q 322 622 266 1200 
z
" transform="scale(0.015625)"/>
       </defs>
       <use xlink:href="#ArialMT-2212"/>
       <use xlink:href="#ArialMT-30" x="58.398438"/>
       <use xlink:href="#ArialMT-2e" x="114.013672"/>
       <use xlink:href="#ArialMT-35" x="141.796875"/>
      </g>
     </g>
    </g>
    <g id="ytick_2">
     <g id="line2d_5">
      <path d="M 51.114688 120.370279 
L 193.35859 120.370279 
" clip-path="url(#pb183f539da)" style="fill: none; stroke: #cccccc; stroke-linecap: round"/>
     </g>
     <g id="text_6">
      <!-- 0.0 -->
      <g style="fill: #262626" transform="translate(32.324688 124.307075)scale(0.11 -0.11)">
       <use xlink:href="#ArialMT-30"/>
       <use xlink:href="#ArialMT-2e" x="55.615234"/>
       <use xlink:href="#ArialMT-30" x="83.398438"/>
      </g>
     </g>
    </g>
    <g id="ytick_3">
     <g id="line2d_6">
      <path d="M 51.114688 93.858356 
L 193.35859 93.858356 
" clip-path="url(#pb183f539da)" style="fill: none; stroke: #cccccc; stroke-linecap: round"/>
     </g>
     <g id="text_7">
      <!-- 0.5 -->
      <g style="fill: #262626" transform="translate(32.324688 97.795153)scale(0.11 -0.11)">
       <use xlink:href="#ArialMT-30"/>
       <use xlink:href="#ArialMT-2e" x="55.615234"/>
       <use xlink:href="#ArialMT-35" x="83.398438"/>
      </g>
     </g>
    </g>
    <g id="ytick_4">
     <g id="line2d_7">
      <path d="M 51.114688 67.346434 
L 193.35859 67.346434 
" clip-path="url(#pb183f539da)" style="fill: none; stroke: #cccccc; stroke-linecap: round"/>
     </g>
     <g id="text_8">
      <!-- 1.0 -->
      <g style="fill: #262626" transform="translate(32.324688 71.283231)scale(0.11 -0.11)">
       <defs>
        <path id="ArialMT-31" d="M 2384 0 
L 1822 0 
L 1822 3584 
Q 1619 3391 1289 3197 
Q 959 3003 697 2906 
L 697 3450 
Q 1169 3672 1522 3987 
Q 1875 4303 2022 4600 
L 2384 4600 
L 2384 0 
z
" transform="scale(0.015625)"/>
       </defs>
       <use xlink:href="#ArialMT-31"/>
       <use xlink:href="#ArialMT-2e" x="55.615234"/>
       <use xlink:href="#ArialMT-30" x="83.398438"/>
      </g>
     </g>
    </g>
    <g id="ytick_5">
     <g id="line2d_8">
      <path d="M 51.114688 40.834511 
L 193.35859 40.834511 
" clip-path="url(#pb183f539da)" style="fill: none; stroke: #cccccc; stroke-linecap: round"/>
     </g>
     <g id="text_9">
      <!-- 1.5 -->
      <g style="fill: #262626" transform="translate(32.324688 44.771308)scale(0.11 -0.11)">
       <use xlink:href="#ArialMT-31"/>
       <use xlink:href="#ArialMT-2e" x="55.615234"/>
       <use xlink:href="#ArialMT-35" x="83.398438"/>
      </g>
     </g>
    </g>
    <g id="text_10">
     <!-- Sensitivity of $\lambda$ -->
     <g style="fill: #262626" transform="translate(18.6 143.916482)rotate(-90)scale(0.15 -0.15)">
      <defs>
       <path id="ArialMT-53" d="M 288 1472 
L 859 1522 
Q 900 1178 1048 958 
Q 1197 738 1509 602 
Q 1822 466 2213 466 
Q 2559 466 2825 569 
Q 3091 672 3220 851 
Q 3350 1031 3350 1244 
Q 3350 1459 3225 1620 
Q 3100 1781 2813 1891 
Q 2628 1963 1997 2114 
Q 1366 2266 1113 2400 
Q 784 2572 623 2826 
Q 463 3081 463 3397 
Q 463 3744 659 4045 
Q 856 4347 1234 4503 
Q 1613 4659 2075 4659 
Q 2584 4659 2973 4495 
Q 3363 4331 3572 4012 
Q 3781 3694 3797 3291 
L 3216 3247 
Q 3169 3681 2898 3903 
Q 2628 4125 2100 4125 
Q 1550 4125 1298 3923 
Q 1047 3722 1047 3438 
Q 1047 3191 1225 3031 
Q 1400 2872 2139 2705 
Q 2878 2538 3153 2413 
Q 3553 2228 3743 1945 
Q 3934 1663 3934 1294 
Q 3934 928 3725 604 
Q 3516 281 3123 101 
Q 2731 -78 2241 -78 
Q 1619 -78 1198 103 
Q 778 284 539 648 
Q 300 1013 288 1472 
z
" transform="scale(0.015625)"/>
       <path id="ArialMT-6e" d="M 422 0 
L 422 3319 
L 928 3319 
L 928 2847 
Q 1294 3394 1984 3394 
Q 2284 3394 2536 3286 
Q 2788 3178 2913 3003 
Q 3038 2828 3088 2588 
Q 3119 2431 3119 2041 
L 3119 0 
L 2556 0 
L 2556 2019 
Q 2556 2363 2490 2533 
Q 2425 2703 2258 2804 
Q 2091 2906 1866 2906 
Q 1506 2906 1245 2678 
Q 984 2450 984 1813 
L 984 0 
L 422 0 
z
" transform="scale(0.015625)"/>
       <path id="ArialMT-69" d="M 425 3934 
L 425 4581 
L 988 4581 
L 988 3934 
L 425 3934 
z
M 425 0 
L 425 3319 
L 988 3319 
L 988 0 
L 425 0 
z
" transform="scale(0.015625)"/>
       <path id="ArialMT-74" d="M 1650 503 
L 1731 6 
Q 1494 -44 1306 -44 
Q 1000 -44 831 53 
Q 663 150 594 308 
Q 525 466 525 972 
L 525 2881 
L 113 2881 
L 113 3319 
L 525 3319 
L 525 4141 
L 1084 4478 
L 1084 3319 
L 1650 3319 
L 1650 2881 
L 1084 2881 
L 1084 941 
Q 1084 700 1114 631 
Q 1144 563 1211 522 
Q 1278 481 1403 481 
Q 1497 481 1650 503 
z
" transform="scale(0.015625)"/>
       <path id="ArialMT-76" d="M 1344 0 
L 81 3319 
L 675 3319 
L 1388 1331 
Q 1503 1009 1600 663 
Q 1675 925 1809 1294 
L 2547 3319 
L 3125 3319 
L 1869 0 
L 1344 0 
z
" transform="scale(0.015625)"/>
       <path id="ArialMT-79" d="M 397 -1278 
L 334 -750 
Q 519 -800 656 -800 
Q 844 -800 956 -737 
Q 1069 -675 1141 -563 
Q 1194 -478 1313 -144 
Q 1328 -97 1363 -6 
L 103 3319 
L 709 3319 
L 1400 1397 
Q 1534 1031 1641 628 
Q 1738 1016 1872 1384 
L 2581 3319 
L 3144 3319 
L 1881 -56 
Q 1678 -603 1566 -809 
Q 1416 -1088 1222 -1217 
Q 1028 -1347 759 -1347 
Q 597 -1347 397 -1278 
z
" transform="scale(0.015625)"/>
       <path id="ArialMT-20" transform="scale(0.015625)"/>
       <path id="ArialMT-6f" d="M 213 1659 
Q 213 2581 725 3025 
Q 1153 3394 1769 3394 
Q 2453 3394 2887 2945 
Q 3322 2497 3322 1706 
Q 3322 1066 3130 698 
Q 2938 331 2570 128 
Q 2203 -75 1769 -75 
Q 1072 -75 642 372 
Q 213 819 213 1659 
z
M 791 1659 
Q 791 1022 1069 705 
Q 1347 388 1769 388 
Q 2188 388 2466 706 
Q 2744 1025 2744 1678 
Q 2744 2294 2464 2611 
Q 2184 2928 1769 2928 
Q 1347 2928 1069 2612 
Q 791 2297 791 1659 
z
" transform="scale(0.015625)"/>
       <path id="ArialMT-66" d="M 556 0 
L 556 2881 
L 59 2881 
L 59 3319 
L 556 3319 
L 556 3672 
Q 556 4006 616 4169 
Q 697 4388 901 4523 
Q 1106 4659 1475 4659 
Q 1713 4659 2000 4603 
L 1916 4113 
Q 1741 4144 1584 4144 
Q 1328 4144 1222 4034 
Q 1116 3925 1116 3625 
L 1116 3319 
L 1763 3319 
L 1763 2881 
L 1116 2881 
L 1116 0 
L 556 0 
z
" transform="scale(0.015625)"/>
       <path id="DejaVuSans-Oblique-3bb" d="M 2350 4316 
L 3125 0 
L 2516 0 
L 2038 2588 
L 328 0 
L -281 0 
L 1903 3356 
L 1794 3975 
Q 1725 4369 1391 4369 
L 1091 4369 
L 1184 4863 
L 1550 4856 
Q 2253 4847 2350 4316 
z
" transform="scale(0.015625)"/>
      </defs>
      <use xlink:href="#ArialMT-53" transform="translate(0 0.015625)"/>
      <use xlink:href="#ArialMT-65" transform="translate(66.699219 0.015625)"/>
      <use xlink:href="#ArialMT-6e" transform="translate(122.314453 0.015625)"/>
      <use xlink:href="#ArialMT-73" transform="translate(177.929688 0.015625)"/>
      <use xlink:href="#ArialMT-69" transform="translate(227.929688 0.015625)"/>
      <use xlink:href="#ArialMT-74" transform="translate(250.146484 0.015625)"/>
      <use xlink:href="#ArialMT-69" transform="translate(277.929688 0.015625)"/>
      <use xlink:href="#ArialMT-76" transform="translate(300.146484 0.015625)"/>
      <use xlink:href="#ArialMT-69" transform="translate(350.146484 0.015625)"/>
      <use xlink:href="#ArialMT-74" transform="translate(372.363281 0.015625)"/>
      <use xlink:href="#ArialMT-79" transform="translate(400.146484 0.015625)"/>
      <use xlink:href="#ArialMT-20" transform="translate(450.146484 0.015625)"/>
      <use xlink:href="#ArialMT-6f" transform="translate(477.929688 0.015625)"/>
      <use xlink:href="#ArialMT-66" transform="translate(533.544922 0.015625)"/>
      <use xlink:href="#ArialMT-20" transform="translate(561.328125 0.015625)"/>
      <use xlink:href="#DejaVuSans-Oblique-3bb" transform="translate(589.111328 0.015625)"/>
     </g>
    </g>
   </g>
   <g id="line2d_9">
    <path d="M 57.580319 37.559669 
L 59.632901 37.530263 
L 61.685483 37.748161 
L 63.738064 37.828713 
L 65.790646 37.802523 
L 67.843227 37.786477 
L 69.895809 37.75064 
L 71.94839 37.675261 
L 74.000972 37.579763 
L 76.053554 37.470197 
L 78.106135 37.344162 
L 80.158717 37.20455 
L 82.211298 37.054825 
L 84.26388 36.896422 
L 86.316461 36.730754 
L 88.369043 36.559471 
L 90.421624 36.383892 
L 92.474206 36.205101 
L 94.526788 36.024112 
L 96.579369 35.841824 
L 98.631951 35.65901 
L 100.684532 35.476352 
L 102.737114 35.29445 
L 104.789695 35.113829 
L 106.842277 34.934942 
L 108.894859 34.758186 
L 110.94744 34.5839 
L 113.000022 34.412378 
L 115.052603 34.243867 
L 117.105185 34.078579 
L 119.157766 33.916687 
L 121.210348 33.758335 
L 123.26293 33.603639 
L 125.315511 33.452689 
L 127.368093 33.305554 
L 129.420674 33.16228 
L 131.473256 33.0229 
L 133.525837 32.887426 
L 135.578419 32.75586 
L 137.631 32.628188 
L 139.683582 32.504388 
L 141.736164 32.384427 
L 143.788745 32.268262 
L 145.841327 32.155846 
L 147.893908 32.047122 
L 149.94649 31.94203 
L 151.999071 31.840504 
L 154.051653 31.742474 
L 156.104235 31.647867 
L 158.156816 31.556607 
L 160.209398 31.468617 
L 162.261979 31.383816 
L 164.314561 31.302123 
L 166.367142 31.223457 
L 168.419724 31.147734 
L 170.472305 31.074873 
L 172.524887 31.004789 
L 174.577469 30.937402 
L 176.63005 30.872628 
L 178.682632 30.810387 
L 180.735213 30.750599 
L 182.787795 30.693184 
L 184.840376 30.638064 
L 186.892958 30.585163 
" clip-path="url(#pb183f539da)" style="fill: none; stroke: #482475; stroke-width: 1.5; stroke-linecap: round"/>
   </g>
   <g id="line2d_10">
    <path d="M 57.580319 64.104252 
L 59.632901 68.312575 
L 61.685483 72.919755 
L 63.738064 77.745602 
L 65.790646 82.575549 
L 67.843227 87.417131 
L 69.895809 92.248967 
L 71.94839 96.986929 
L 74.000972 101.565386 
L 76.053554 105.937343 
L 78.106135 110.055132 
L 80.158717 113.875748 
L 82.211298 117.367038 
L 84.26388 120.506793 
L 86.316461 123.281933 
L 88.369043 125.688705 
L 90.421624 127.732113 
L 92.474206 129.424709 
L 94.526788 130.785269 
L 96.579369 131.83742 
L 98.631951 132.608221 
L 100.684532 133.126818 
L 102.737114 133.423234 
L 104.789695 133.527346 
L 106.842277 133.468054 
L 108.894859 133.272648 
L 110.94744 132.966365 
L 113.000022 132.572107 
L 115.052603 132.110307 
L 117.105185 131.598901 
L 119.157766 131.053395 
L 121.210348 130.486992 
L 123.26293 129.910757 
L 125.315511 129.33382 
L 127.368093 128.763574 
L 129.420674 128.205886 
L 131.473256 127.665297 
L 133.525837 127.145214 
L 135.578419 126.648075 
L 137.631 126.175517 
L 139.683582 125.728508 
L 141.736164 125.307472 
L 143.788745 124.912397 
L 145.841327 124.542926 
L 147.893908 124.198434 
L 149.94649 123.878094 
L 151.999071 123.580933 
L 154.051653 123.305874 
L 156.104235 123.051778 
L 158.156816 122.817469 
L 160.209398 122.601759 
L 162.261979 122.403471 
L 164.314561 122.221448 
L 166.367142 122.054567 
L 168.419724 121.901746 
L 170.472305 121.761952 
L 172.524887 121.634201 
L 174.577469 121.517564 
L 176.63005 121.411166 
L 178.682632 121.314185 
L 180.735213 121.225855 
L 182.787795 121.145459 
L 184.840376 121.072333 
L 186.892958 121.005861 
" clip-path="url(#pb183f539da)" style="fill: none; stroke: #355f8d; stroke-width: 1.5; stroke-linecap: round"/>
   </g>
   <g id="line2d_11">
    <path d="M 57.580319 110.628116 
L 59.632901 122.747106 
L 61.685483 133.346472 
L 63.738064 141.675599 
L 65.790646 147.097136 
L 67.843227 149.52767 
L 69.895809 149.358986 
L 71.94839 147.25829 
L 74.000972 143.983191 
L 76.053554 140.219299 
L 78.106135 136.481128 
L 80.158717 133.087867 
L 82.211298 130.191257 
L 84.26388 127.824969 
L 86.316461 125.953115 
L 88.369043 124.507294 
L 90.421624 123.410347 
L 92.474206 122.589329 
L 94.526788 121.981239 
L 96.579369 121.534542 
L 98.631951 121.208547 
L 100.684532 120.971904 
L 102.737114 120.800878 
L 104.789695 120.67773 
L 106.842277 120.589338 
L 108.894859 120.526065 
L 110.94744 120.480881 
L 113.000022 120.448682 
L 115.052603 120.425781 
L 117.105185 120.409519 
L 119.157766 120.39799 
L 121.210348 120.389828 
L 123.26293 120.384056 
L 125.315511 120.37998 
L 127.368093 120.377104 
L 129.420674 120.375076 
L 131.473256 120.373649 
L 133.525837 120.372645 
L 135.578419 120.371939 
L 137.631 120.371442 
L 139.683582 120.371094 
L 141.736164 120.37085 
L 143.788745 120.370678 
L 145.841327 120.370558 
L 147.893908 120.370474 
L 149.94649 120.370415 
L 151.999071 120.370374 
L 154.051653 120.370345 
L 156.104235 120.370325 
L 158.156816 120.370311 
L 160.209398 120.370301 
L 162.261979 120.370294 
L 164.314561 120.37029 
L 166.367142 120.370286 
L 168.419724 120.370284 
L 170.472305 120.370282 
L 172.524887 120.370281 
L 174.577469 120.37028 
L 176.63005 120.37028 
L 178.682632 120.370279 
L 180.735213 120.370279 
L 182.787795 120.370279 
L 184.840376 120.370279 
L 186.892958 120.370279 
" clip-path="url(#pb183f539da)" style="fill: none; stroke: #21918c; stroke-width: 1.5; stroke-linecap: round"/>
   </g>
   <g id="line2d_12">
    <path d="M 57.580319 155.165784 
L 59.632901 159.897802 
L 61.685483 157.001763 
L 63.738064 149.309581 
L 65.790646 140.19659 
L 67.843227 132.166347 
L 69.895809 126.357308 
L 71.94839 122.80405 
L 74.000972 120.975433 
L 76.053554 120.227337 
L 78.106135 120.041541 
L 80.158717 120.087123 
L 82.211298 120.19028 
L 84.26388 120.279051 
L 86.316461 120.335431 
L 88.369043 120.363921 
L 90.421624 120.374705 
L 92.474206 120.376567 
L 94.526788 120.375083 
L 96.579369 120.373056 
L 98.631951 120.371524 
L 100.684532 120.370648 
L 102.737114 120.37026 
L 104.789695 120.370149 
L 106.842277 120.370159 
L 108.894859 120.370202 
L 110.94744 120.370241 
L 113.000022 120.370265 
L 115.052603 120.370277 
L 117.105185 120.370281 
L 119.157766 120.370281 
L 121.210348 120.370281 
L 123.26293 120.37028 
L 125.315511 120.370279 
L 127.368093 120.370279 
L 129.420674 120.370279 
L 131.473256 120.370279 
L 133.525837 120.370279 
L 135.578419 120.370279 
L 137.631 120.370279 
L 139.683582 120.370279 
L 141.736164 120.370279 
L 143.788745 120.370279 
L 145.841327 120.370279 
L 147.893908 120.370279 
L 149.94649 120.370279 
L 151.999071 120.370279 
L 154.051653 120.370279 
L 156.104235 120.370279 
L 158.156816 120.370279 
L 160.209398 120.370279 
L 162.261979 120.370279 
L 164.314561 120.370279 
L 166.367142 120.370279 
L 168.419724 120.370279 
L 170.472305 120.370279 
L 172.524887 120.370279 
L 174.577469 120.370279 
L 176.63005 120.370279 
L 178.682632 120.370279 
L 180.735213 120.370279 
L 182.787795 120.370279 
L 184.840376 120.370279 
L 186.892958 120.370279 
" clip-path="url(#pb183f539da)" style="fill: none; stroke: #44bf70; stroke-width: 1.5; stroke-linecap: round"/>
   </g>
   <g id="line2d_13">
    <path d="M 57.580319 158.787571 
L 59.632901 145.734952 
L 61.685483 132.706693 
L 63.738064 123.579074 
L 65.790646 118.945766 
L 67.843227 117.620212 
L 69.895809 118.034748 
L 71.94839 118.985794 
L 74.000972 119.824167 
L 76.053554 120.335235 
L 78.106135 120.545964 
L 80.158717 120.568093 
L 82.211298 120.509131 
L 84.26388 120.438625 
L 86.316461 120.387734 
L 88.369043 120.361938 
L 90.421624 120.354792 
L 92.474206 120.357371 
L 94.526788 120.362843 
L 96.579369 120.367547 
L 98.631951 120.37032 
L 100.684532 120.37138 
L 102.737114 120.371406 
L 104.789695 120.371022 
L 106.842277 120.370614 
L 108.894859 120.370338 
L 110.94744 120.370211 
L 113.000022 120.370186 
L 115.052603 120.370209 
L 117.105185 120.370242 
L 119.157766 120.370268 
L 121.210348 120.370282 
L 123.26293 120.370286 
L 125.315511 120.370285 
L 127.368093 120.370282 
L 129.420674 120.37028 
L 131.473256 120.370279 
L 133.525837 120.370278 
L 135.578419 120.370278 
L 137.631 120.370278 
L 139.683582 120.370278 
L 141.736164 120.370279 
L 143.788745 120.370279 
L 145.841327 120.370279 
L 147.893908 120.370279 
L 149.94649 120.370279 
L 151.999071 120.370279 
L 154.051653 120.370279 
L 156.104235 120.370279 
L 158.156816 120.370279 
L 160.209398 120.370279 
L 162.261979 120.370279 
L 164.314561 120.370279 
L 166.367142 120.370279 
L 168.419724 120.370279 
L 170.472305 120.370279 
L 172.524887 120.370279 
L 174.577469 120.370279 
L 176.63005 120.370279 
L 178.682632 120.370279 
L 180.735213 120.370279 
L 182.787795 120.370279 
L 184.840376 120.370279 
L 186.892958 120.370279 
" clip-path="url(#pb183f539da)" style="fill: none; stroke: #bddf26; stroke-width: 1.5; stroke-linecap: round"/>
   </g>
   <g id="patch_3">
    <path d="M 51.114688 166.363434 
L 51.114688 24.119531 
" style="fill: none; stroke: #cccccc; stroke-linejoin: miter; stroke-linecap: square"/>
   </g>
   <g id="patch_4">
    <path d="M 193.35859 166.363434 
L 193.35859 24.119531 
" style="fill: none; stroke: #cccccc; stroke-linejoin: miter; stroke-linecap: square"/>
   </g>
   <g id="patch_5">
    <path d="M 51.114688 166.363434 
L 193.35859 166.363434 
" style="fill: none; stroke: #cccccc; stroke-linejoin: miter; stroke-linecap: square"/>
   </g>
   <g id="patch_6">
    <path d="M 51.114688 24.119531 
L 193.35859 24.119531 
" style="fill: none; stroke: #cccccc; stroke-linejoin: miter; stroke-linecap: square"/>
   </g>
   <g id="text_11">
    <!-- La Grange -->
    <g style="fill: #262626" transform="translate(86.797967 18.119531)scale(0.15 -0.15)">
     <defs>
      <path id="ArialMT-4c" d="M 469 0 
L 469 4581 
L 1075 4581 
L 1075 541 
L 3331 541 
L 3331 0 
L 469 0 
z
" transform="scale(0.015625)"/>
      <path id="ArialMT-47" d="M 2638 1797 
L 2638 2334 
L 4578 2338 
L 4578 638 
Q 4131 281 3656 101 
Q 3181 -78 2681 -78 
Q 2006 -78 1454 211 
Q 903 500 622 1047 
Q 341 1594 341 2269 
Q 341 2938 620 3517 
Q 900 4097 1425 4378 
Q 1950 4659 2634 4659 
Q 3131 4659 3532 4498 
Q 3934 4338 4162 4050 
Q 4391 3763 4509 3300 
L 3963 3150 
Q 3859 3500 3706 3700 
Q 3553 3900 3268 4020 
Q 2984 4141 2638 4141 
Q 2222 4141 1919 4014 
Q 1616 3888 1430 3681 
Q 1244 3475 1141 3228 
Q 966 2803 966 2306 
Q 966 1694 1177 1281 
Q 1388 869 1791 669 
Q 2194 469 2647 469 
Q 3041 469 3416 620 
Q 3791 772 3984 944 
L 3984 1797 
L 2638 1797 
z
" transform="scale(0.015625)"/>
      <path id="ArialMT-67" d="M 319 -275 
L 866 -356 
Q 900 -609 1056 -725 
Q 1266 -881 1628 -881 
Q 2019 -881 2231 -725 
Q 2444 -569 2519 -288 
Q 2563 -116 2559 434 
Q 2191 0 1641 0 
Q 956 0 581 494 
Q 206 988 206 1678 
Q 206 2153 378 2554 
Q 550 2956 876 3175 
Q 1203 3394 1644 3394 
Q 2231 3394 2613 2919 
L 2613 3319 
L 3131 3319 
L 3131 450 
Q 3131 -325 2973 -648 
Q 2816 -972 2473 -1159 
Q 2131 -1347 1631 -1347 
Q 1038 -1347 672 -1080 
Q 306 -813 319 -275 
z
M 784 1719 
Q 784 1066 1043 766 
Q 1303 466 1694 466 
Q 2081 466 2343 764 
Q 2606 1063 2606 1700 
Q 2606 2309 2336 2618 
Q 2066 2928 1684 2928 
Q 1309 2928 1046 2623 
Q 784 2319 784 1719 
z
" transform="scale(0.015625)"/>
     </defs>
     <use xlink:href="#ArialMT-4c"/>
     <use xlink:href="#ArialMT-61" x="55.615234"/>
     <use xlink:href="#ArialMT-20" x="111.230469"/>
     <use xlink:href="#ArialMT-47" x="139.013672"/>
     <use xlink:href="#ArialMT-72" x="216.796875"/>
     <use xlink:href="#ArialMT-61" x="250.097656"/>
     <use xlink:href="#ArialMT-6e" x="305.712891"/>
     <use xlink:href="#ArialMT-67" x="361.328125"/>
     <use xlink:href="#ArialMT-65" x="416.943359"/>
    </g>
   </g>
  </g>
  <g id="axes_2">
   <g id="patch_7">
    <path d="M 200.470785 166.363434 
L 342.714688 166.363434 
L 342.714688 24.119531 
L 200.470785 24.119531 
z
" style="fill: #ffffff"/>
   </g>
   <g id="matplotlib.axis_3">
    <g id="xtick_4">
     <g id="line2d_14">
      <path d="M 227.462233 166.363434 
L 227.462233 24.119531 
" clip-path="url(#p83d0d05913)" style="fill: none; stroke: #cccccc; stroke-linecap: round"/>
     </g>
     <g id="text_12">
      <!-- 20 -->
      <g style="fill: #262626" transform="translate(221.345201 177.737027)scale(0.11 -0.11)">
       <use xlink:href="#ArialMT-32"/>
       <use xlink:href="#ArialMT-30" x="55.615234"/>
      </g>
     </g>
    </g>
    <g id="xtick_5">
     <g id="line2d_15">
      <path d="M 268.513864 166.363434 
L 268.513864 24.119531 
" clip-path="url(#p83d0d05913)" style="fill: none; stroke: #cccccc; stroke-linecap: round"/>
     </g>
     <g id="text_13">
      <!-- 40 -->
      <g style="fill: #262626" transform="translate(262.396833 177.737027)scale(0.11 -0.11)">
       <use xlink:href="#ArialMT-34"/>
       <use xlink:href="#ArialMT-30" x="55.615234"/>
      </g>
     </g>
    </g>
    <g id="xtick_6">
     <g id="line2d_16">
      <path d="M 309.565495 166.363434 
L 309.565495 24.119531 
" clip-path="url(#p83d0d05913)" style="fill: none; stroke: #cccccc; stroke-linecap: round"/>
     </g>
     <g id="text_14">
      <!-- 60 -->
      <g style="fill: #262626" transform="translate(303.448464 177.737027)scale(0.11 -0.11)">
       <use xlink:href="#ArialMT-36"/>
       <use xlink:href="#ArialMT-30" x="55.615234"/>
      </g>
     </g>
    </g>
    <g id="text_15">
     <!-- Years -->
     <g style="fill: #262626" transform="translate(252.685705 194.659996)scale(0.15 -0.15)">
      <use xlink:href="#ArialMT-59"/>
      <use xlink:href="#ArialMT-65" x="57.574219"/>
      <use xlink:href="#ArialMT-61" x="113.189453"/>
      <use xlink:href="#ArialMT-72" x="168.804688"/>
      <use xlink:href="#ArialMT-73" x="202.105469"/>
     </g>
    </g>
   </g>
   <g id="matplotlib.axis_4">
    <g id="ytick_6">
     <g id="line2d_17">
      <path d="M 200.470785 146.882201 
L 342.714688 146.882201 
" clip-path="url(#p83d0d05913)" style="fill: none; stroke: #cccccc; stroke-linecap: round"/>
     </g>
    </g>
    <g id="ytick_7">
     <g id="line2d_18">
      <path d="M 200.470785 120.370279 
L 342.714688 120.370279 
" clip-path="url(#p83d0d05913)" style="fill: none; stroke: #cccccc; stroke-linecap: round"/>
     </g>
    </g>
    <g id="ytick_8">
     <g id="line2d_19">
      <path d="M 200.470785 93.858356 
L 342.714688 93.858356 
" clip-path="url(#p83d0d05913)" style="fill: none; stroke: #cccccc; stroke-linecap: round"/>
     </g>
    </g>
    <g id="ytick_9">
     <g id="line2d_20">
      <path d="M 200.470785 67.346434 
L 342.714688 67.346434 
" clip-path="url(#p83d0d05913)" style="fill: none; stroke: #cccccc; stroke-linecap: round"/>
     </g>
    </g>
    <g id="ytick_10">
     <g id="line2d_21">
      <path d="M 200.470785 40.834511 
L 342.714688 40.834511 
" clip-path="url(#p83d0d05913)" style="fill: none; stroke: #cccccc; stroke-linecap: round"/>
     </g>
    </g>
   </g>
   <g id="line2d_22">
    <path d="M 206.936417 37.559669 
L 208.988999 37.530263 
L 211.04158 37.748161 
L 213.094162 37.828713 
L 215.146743 37.802523 
L 217.199325 37.786477 
L 219.251906 37.75064 
L 221.304488 37.675261 
L 223.35707 37.579763 
L 225.409651 37.470197 
L 227.462233 37.344162 
L 229.514814 37.20455 
L 231.567396 37.054825 
L 233.619977 36.896422 
L 235.672559 36.730754 
L 237.72514 36.559471 
L 239.777722 36.383892 
L 241.830304 36.205101 
L 243.882885 36.024112 
L 245.935467 35.841824 
L 247.988048 35.65901 
L 250.04063 35.476352 
L 252.093211 35.29445 
L 254.145793 35.113829 
L 256.198375 34.934942 
L 258.250956 34.758186 
L 260.303538 34.5839 
L 262.356119 34.412378 
L 264.408701 34.243867 
L 266.461282 34.078579 
L 268.513864 33.916687 
L 270.566445 33.758335 
L 272.619027 33.603639 
L 274.671609 33.452689 
L 276.72419 33.305554 
L 278.776772 33.16228 
L 280.829353 33.0229 
L 282.881935 32.887426 
L 284.934516 32.75586 
L 286.987098 32.628188 
L 289.03968 32.504388 
L 291.092261 32.384427 
L 293.144843 32.268262 
L 295.197424 32.155846 
L 297.250006 32.047122 
L 299.302587 31.94203 
L 301.355169 31.840504 
L 303.407751 31.742474 
L 305.460332 31.647867 
L 307.512914 31.556607 
L 309.565495 31.468617 
L 311.618077 31.383816 
L 313.670658 31.302123 
L 315.72324 31.223457 
L 317.775821 31.147734 
L 319.828403 31.074873 
L 321.880985 31.004789 
L 323.933566 30.937402 
L 325.986148 30.872628 
L 328.038729 30.810387 
L 330.091311 30.750599 
L 332.143892 30.693184 
L 334.196474 30.638064 
L 336.249056 30.585163 
" clip-path="url(#p83d0d05913)" style="fill: none; stroke: #482475; stroke-width: 1.5; stroke-linecap: round"/>
   </g>
   <g id="line2d_23">
    <path d="M 206.936417 64.104252 
L 208.988999 68.312575 
L 211.04158 72.919755 
L 213.094162 77.745602 
L 215.146743 82.575549 
L 217.199325 87.417131 
L 219.251906 92.248967 
L 221.304488 96.986929 
L 223.35707 101.565386 
L 225.409651 105.937343 
L 227.462233 110.055132 
L 229.514814 113.875748 
L 231.567396 117.367038 
L 233.619977 120.506793 
L 235.672559 123.281933 
L 237.72514 125.688705 
L 239.777722 127.732113 
L 241.830304 129.424709 
L 243.882885 130.785269 
L 245.935467 131.83742 
L 247.988048 132.608221 
L 250.04063 133.126818 
L 252.093211 133.423234 
L 254.145793 133.527346 
L 256.198375 133.468054 
L 258.250956 133.272648 
L 260.303538 132.966365 
L 262.356119 132.572107 
L 264.408701 132.110307 
L 266.461282 131.598901 
L 268.513864 131.053395 
L 270.566445 130.486992 
L 272.619027 129.910757 
L 274.671609 129.33382 
L 276.72419 128.763574 
L 278.776772 128.205886 
L 280.829353 127.665297 
L 282.881935 127.145214 
L 284.934516 126.648075 
L 286.987098 126.175517 
L 289.03968 125.728508 
L 291.092261 125.307472 
L 293.144843 124.912397 
L 295.197424 124.542926 
L 297.250006 124.198434 
L 299.302587 123.878094 
L 301.355169 123.580933 
L 303.407751 123.305874 
L 305.460332 123.051778 
L 307.512914 122.817469 
L 309.565495 122.601759 
L 311.618077 122.403471 
L 313.670658 122.221448 
L 315.72324 122.054567 
L 317.775821 121.901746 
L 319.828403 121.761952 
L 321.880985 121.634201 
L 323.933566 121.517564 
L 325.986148 121.411166 
L 328.038729 121.314185 
L 330.091311 121.225855 
L 332.143892 121.145459 
L 334.196474 121.072333 
L 336.249056 121.005861 
" clip-path="url(#p83d0d05913)" style="fill: none; stroke: #355f8d; stroke-width: 1.5; stroke-linecap: round"/>
   </g>
   <g id="line2d_24">
    <path d="M 206.936417 110.628116 
L 208.988999 122.747106 
L 211.04158 133.346472 
L 213.094162 141.675599 
L 215.146743 147.097136 
L 217.199325 149.52767 
L 219.251906 149.358986 
L 221.304488 147.25829 
L 223.35707 143.983191 
L 225.409651 140.219299 
L 227.462233 136.481128 
L 229.514814 133.087867 
L 231.567396 130.191257 
L 233.619977 127.824969 
L 235.672559 125.953115 
L 237.72514 124.507294 
L 239.777722 123.410347 
L 241.830304 122.589329 
L 243.882885 121.981239 
L 245.935467 121.534542 
L 247.988048 121.208547 
L 250.04063 120.971904 
L 252.093211 120.800878 
L 254.145793 120.67773 
L 256.198375 120.589338 
L 258.250956 120.526065 
L 260.303538 120.480881 
L 262.356119 120.448682 
L 264.408701 120.425781 
L 266.461282 120.409519 
L 268.513864 120.39799 
L 270.566445 120.389828 
L 272.619027 120.384056 
L 274.671609 120.37998 
L 276.72419 120.377104 
L 278.776772 120.375076 
L 280.829353 120.373649 
L 282.881935 120.372645 
L 284.934516 120.371939 
L 286.987098 120.371442 
L 289.03968 120.371094 
L 291.092261 120.37085 
L 293.144843 120.370678 
L 295.197424 120.370558 
L 297.250006 120.370474 
L 299.302587 120.370415 
L 301.355169 120.370374 
L 303.407751 120.370345 
L 305.460332 120.370325 
L 307.512914 120.370311 
L 309.565495 120.370301 
L 311.618077 120.370294 
L 313.670658 120.37029 
L 315.72324 120.370286 
L 317.775821 120.370284 
L 319.828403 120.370282 
L 321.880985 120.370281 
L 323.933566 120.37028 
L 325.986148 120.37028 
L 328.038729 120.370279 
L 330.091311 120.370279 
L 332.143892 120.370279 
L 334.196474 120.370279 
L 336.249056 120.370279 
" clip-path="url(#p83d0d05913)" style="fill: none; stroke: #21918c; stroke-width: 1.5; stroke-linecap: round"/>
   </g>
   <g id="line2d_25">
    <path d="M 206.936417 155.165784 
L 208.988999 159.897802 
L 211.04158 157.001763 
L 213.094162 149.309581 
L 215.146743 140.19659 
L 217.199325 132.166347 
L 219.251906 126.357308 
L 221.304488 122.80405 
L 223.35707 120.975433 
L 225.409651 120.227337 
L 227.462233 120.041541 
L 229.514814 120.087123 
L 231.567396 120.19028 
L 233.619977 120.279051 
L 235.672559 120.335431 
L 237.72514 120.363921 
L 239.777722 120.374705 
L 241.830304 120.376567 
L 243.882885 120.375083 
L 245.935467 120.373056 
L 247.988048 120.371524 
L 250.04063 120.370648 
L 252.093211 120.37026 
L 254.145793 120.370149 
L 256.198375 120.370159 
L 258.250956 120.370202 
L 260.303538 120.370241 
L 262.356119 120.370265 
L 264.408701 120.370277 
L 266.461282 120.370281 
L 268.513864 120.370281 
L 270.566445 120.370281 
L 272.619027 120.37028 
L 274.671609 120.370279 
L 276.72419 120.370279 
L 278.776772 120.370279 
L 280.829353 120.370279 
L 282.881935 120.370279 
L 284.934516 120.370279 
L 286.987098 120.370279 
L 289.03968 120.370279 
L 291.092261 120.370279 
L 293.144843 120.370279 
L 295.197424 120.370279 
L 297.250006 120.370279 
L 299.302587 120.370279 
L 301.355169 120.370279 
L 303.407751 120.370279 
L 305.460332 120.370279 
L 307.512914 120.370279 
L 309.565495 120.370279 
L 311.618077 120.370279 
L 313.670658 120.370279 
L 315.72324 120.370279 
L 317.775821 120.370279 
L 319.828403 120.370279 
L 321.880985 120.370279 
L 323.933566 120.370279 
L 325.986148 120.370279 
L 328.038729 120.370279 
L 330.091311 120.370279 
L 332.143892 120.370279 
L 334.196474 120.370279 
L 336.249056 120.370279 
" clip-path="url(#p83d0d05913)" style="fill: none; stroke: #44bf70; stroke-width: 1.5; stroke-linecap: round"/>
   </g>
   <g id="line2d_26">
    <path d="M 206.936417 158.787571 
L 208.988999 145.734952 
L 211.04158 132.706693 
L 213.094162 123.579074 
L 215.146743 118.945766 
L 217.199325 117.620212 
L 219.251906 118.034748 
L 221.304488 118.985794 
L 223.35707 119.824167 
L 225.409651 120.335235 
L 227.462233 120.545964 
L 229.514814 120.568093 
L 231.567396 120.509131 
L 233.619977 120.438625 
L 235.672559 120.387734 
L 237.72514 120.361938 
L 239.777722 120.354792 
L 241.830304 120.357371 
L 243.882885 120.362843 
L 245.935467 120.367547 
L 247.988048 120.37032 
L 250.04063 120.37138 
L 252.093211 120.371406 
L 254.145793 120.371022 
L 256.198375 120.370614 
L 258.250956 120.370338 
L 260.303538 120.370211 
L 262.356119 120.370186 
L 264.408701 120.370209 
L 266.461282 120.370242 
L 268.513864 120.370268 
L 270.566445 120.370282 
L 272.619027 120.370286 
L 274.671609 120.370285 
L 276.72419 120.370282 
L 278.776772 120.37028 
L 280.829353 120.370279 
L 282.881935 120.370278 
L 284.934516 120.370278 
L 286.987098 120.370278 
L 289.03968 120.370278 
L 291.092261 120.370279 
L 293.144843 120.370279 
L 295.197424 120.370279 
L 297.250006 120.370279 
L 299.302587 120.370279 
L 301.355169 120.370279 
L 303.407751 120.370279 
L 305.460332 120.370279 
L 307.512914 120.370279 
L 309.565495 120.370279 
L 311.618077 120.370279 
L 313.670658 120.370279 
L 315.72324 120.370279 
L 317.775821 120.370279 
L 319.828403 120.370279 
L 321.880985 120.370279 
L 323.933566 120.370279 
L 325.986148 120.370279 
L 328.038729 120.370279 
L 330.091311 120.370279 
L 332.143892 120.370279 
L 334.196474 120.370279 
L 336.249056 120.370279 
" clip-path="url(#p83d0d05913)" style="fill: none; stroke: #bddf26; stroke-width: 1.5; stroke-linecap: round"/>
   </g>
   <g id="patch_8">
    <path d="M 200.470785 166.363434 
L 200.470785 24.119531 
" style="fill: none; stroke: #cccccc; stroke-linejoin: miter; stroke-linecap: square"/>
   </g>
   <g id="patch_9">
    <path d="M 342.714688 166.363434 
L 342.714688 24.119531 
" style="fill: none; stroke: #cccccc; stroke-linejoin: miter; stroke-linecap: square"/>
   </g>
   <g id="patch_10">
    <path d="M 200.470785 166.363434 
L 342.714688 166.363434 
" style="fill: none; stroke: #cccccc; stroke-linejoin: miter; stroke-linecap: square"/>
   </g>
   <g id="patch_11">
    <path d="M 200.470785 24.119531 
L 342.714688 24.119531 
" style="fill: none; stroke: #cccccc; stroke-linejoin: miter; stroke-linecap: square"/>
   </g>
   <g id="text_16">
    <!-- Peoria -->
    <g style="fill: #262626" transform="translate(249.914221 18.119531)scale(0.15 -0.15)">
     <defs>
      <path id="ArialMT-50" d="M 494 0 
L 494 4581 
L 2222 4581 
Q 2678 4581 2919 4538 
Q 3256 4481 3484 4323 
Q 3713 4166 3852 3881 
Q 3991 3597 3991 3256 
Q 3991 2672 3619 2267 
Q 3247 1863 2275 1863 
L 1100 1863 
L 1100 0 
L 494 0 
z
M 1100 2403 
L 2284 2403 
Q 2872 2403 3119 2622 
Q 3366 2841 3366 3238 
Q 3366 3525 3220 3729 
Q 3075 3934 2838 4000 
Q 2684 4041 2272 4041 
L 1100 4041 
L 1100 2403 
z
" transform="scale(0.015625)"/>
     </defs>
     <use xlink:href="#ArialMT-50"/>
     <use xlink:href="#ArialMT-65" x="66.699219"/>
     <use xlink:href="#ArialMT-6f" x="122.314453"/>
     <use xlink:href="#ArialMT-72" x="177.929688"/>
     <use xlink:href="#ArialMT-69" x="211.230469"/>
     <use xlink:href="#ArialMT-61" x="233.447266"/>
    </g>
   </g>
  </g>
  <g id="legend_1">
   <g id="patch_12">
    <path d="M 360.390625 151.20742 
L 423.114688 151.20742 
Q 425.314687 151.20742 425.314687 149.00742 
L 425.314687 55.833826 
Q 425.314687 53.633826 423.114688 53.633826 
L 360.390625 53.633826 
Q 358.190625 53.633826 358.190625 55.833826 
L 358.190625 149.00742 
Q 358.190625 151.20742 360.390625 151.20742 
z
" style="fill: #ffffff; opacity: 0.8; stroke: #cccccc; stroke-linejoin: miter"/>
   </g>
   <g id="text_17">
    <!-- $s_{max}$ -->
    <g style="fill: #262626" transform="translate(379.272656 66.623201)scale(0.12 -0.12)">
     <defs>
      <path id="DejaVuSans-Oblique-73" d="M 3200 3397 
L 3091 2853 
Q 2863 2978 2609 3040 
Q 2356 3103 2088 3103 
Q 1634 3103 1373 2948 
Q 1113 2794 1113 2528 
Q 1113 2219 1719 2053 
Q 1766 2041 1788 2034 
L 1972 1978 
Q 2547 1819 2739 1644 
Q 2931 1469 2931 1166 
Q 2931 609 2489 259 
Q 2047 -91 1331 -91 
Q 1053 -91 747 -37 
Q 441 16 72 128 
L 184 722 
Q 500 559 806 475 
Q 1113 391 1394 391 
Q 1816 391 2080 572 
Q 2344 753 2344 1031 
Q 2344 1331 1650 1516 
L 1591 1531 
L 1394 1581 
Q 956 1697 753 1886 
Q 550 2075 550 2369 
Q 550 2928 970 3256 
Q 1391 3584 2113 3584 
Q 2397 3584 2667 3537 
Q 2938 3491 3200 3397 
z
" transform="scale(0.015625)"/>
      <path id="DejaVuSans-Oblique-6d" d="M 5747 2113 
L 5338 0 
L 4763 0 
L 5166 2094 
Q 5191 2228 5203 2325 
Q 5216 2422 5216 2491 
Q 5216 2772 5059 2928 
Q 4903 3084 4622 3084 
Q 4203 3084 3875 2770 
Q 3547 2456 3450 1953 
L 3066 0 
L 2491 0 
L 2900 2094 
Q 2925 2209 2937 2307 
Q 2950 2406 2950 2484 
Q 2950 2769 2794 2926 
Q 2638 3084 2363 3084 
Q 1938 3084 1609 2770 
Q 1281 2456 1184 1953 
L 800 0 
L 225 0 
L 909 3500 
L 1484 3500 
L 1375 2956 
Q 1609 3263 1923 3423 
Q 2238 3584 2597 3584 
Q 2978 3584 3223 3384 
Q 3469 3184 3519 2828 
Q 3781 3197 4126 3390 
Q 4472 3584 4856 3584 
Q 5306 3584 5551 3325 
Q 5797 3066 5797 2591 
Q 5797 2488 5784 2364 
Q 5772 2241 5747 2113 
z
" transform="scale(0.015625)"/>
      <path id="DejaVuSans-Oblique-61" d="M 3438 1997 
L 3047 0 
L 2472 0 
L 2578 531 
Q 2325 219 2001 64 
Q 1678 -91 1281 -91 
Q 834 -91 548 182 
Q 263 456 263 884 
Q 263 1497 752 1853 
Q 1241 2209 2100 2209 
L 2900 2209 
L 2931 2363 
Q 2938 2388 2941 2417 
Q 2944 2447 2944 2509 
Q 2944 2788 2717 2942 
Q 2491 3097 2081 3097 
Q 1800 3097 1504 3025 
Q 1209 2953 897 2809 
L 997 3341 
Q 1322 3463 1633 3523 
Q 1944 3584 2234 3584 
Q 2853 3584 3176 3315 
Q 3500 3047 3500 2534 
Q 3500 2431 3484 2292 
Q 3469 2153 3438 1997 
z
M 2816 1759 
L 2241 1759 
Q 1534 1759 1195 1570 
Q 856 1381 856 984 
Q 856 709 1029 553 
Q 1203 397 1509 397 
Q 1978 397 2328 733 
Q 2678 1069 2791 1631 
L 2816 1759 
z
" transform="scale(0.015625)"/>
      <path id="DejaVuSans-Oblique-78" d="M 3841 3500 
L 2234 1784 
L 3219 0 
L 2559 0 
L 1819 1388 
L 531 0 
L -166 0 
L 1556 1844 
L 641 3500 
L 1300 3500 
L 1972 2234 
L 3144 3500 
L 3841 3500 
z
" transform="scale(0.015625)"/>
     </defs>
     <use xlink:href="#DejaVuSans-Oblique-73"/>
     <use xlink:href="#DejaVuSans-Oblique-6d" transform="translate(52.099609 -16.40625)scale(0.7)"/>
     <use xlink:href="#DejaVuSans-Oblique-61" transform="translate(120.288086 -16.40625)scale(0.7)"/>
     <use xlink:href="#DejaVuSans-Oblique-78" transform="translate(163.183594 -16.40625)scale(0.7)"/>
    </g>
   </g>
   <g id="line2d_27">
    <path d="M 362.590625 78.531795 
L 373.590625 78.531795 
L 384.590625 78.531795 
" style="fill: none; stroke: #482475; stroke-width: 1.5; stroke-linecap: round"/>
   </g>
   <g id="text_18">
    <!-- 0.394 -->
    <g style="fill: #262626" transform="translate(393.390625 82.381795)scale(0.11 -0.11)">
     <defs>
      <path id="ArialMT-33" d="M 269 1209 
L 831 1284 
Q 928 806 1161 595 
Q 1394 384 1728 384 
Q 2125 384 2398 659 
Q 2672 934 2672 1341 
Q 2672 1728 2419 1979 
Q 2166 2231 1775 2231 
Q 1616 2231 1378 2169 
L 1441 2663 
Q 1497 2656 1531 2656 
Q 1891 2656 2178 2843 
Q 2466 3031 2466 3422 
Q 2466 3731 2256 3934 
Q 2047 4138 1716 4138 
Q 1388 4138 1169 3931 
Q 950 3725 888 3313 
L 325 3413 
Q 428 3978 793 4289 
Q 1159 4600 1703 4600 
Q 2078 4600 2393 4439 
Q 2709 4278 2876 4000 
Q 3044 3722 3044 3409 
Q 3044 3113 2884 2869 
Q 2725 2625 2413 2481 
Q 2819 2388 3044 2092 
Q 3269 1797 3269 1353 
Q 3269 753 2831 336 
Q 2394 -81 1725 -81 
Q 1122 -81 723 278 
Q 325 638 269 1209 
z
" transform="scale(0.015625)"/>
      <path id="ArialMT-39" d="M 350 1059 
L 891 1109 
Q 959 728 1153 556 
Q 1347 384 1650 384 
Q 1909 384 2104 503 
Q 2300 622 2425 820 
Q 2550 1019 2634 1356 
Q 2719 1694 2719 2044 
Q 2719 2081 2716 2156 
Q 2547 1888 2255 1720 
Q 1963 1553 1622 1553 
Q 1053 1553 659 1965 
Q 266 2378 266 3053 
Q 266 3750 677 4175 
Q 1088 4600 1706 4600 
Q 2153 4600 2523 4359 
Q 2894 4119 3086 3673 
Q 3278 3228 3278 2384 
Q 3278 1506 3087 986 
Q 2897 466 2520 194 
Q 2144 -78 1638 -78 
Q 1100 -78 759 220 
Q 419 519 350 1059 
z
M 2653 3081 
Q 2653 3566 2395 3850 
Q 2138 4134 1775 4134 
Q 1400 4134 1122 3828 
Q 844 3522 844 3034 
Q 844 2597 1108 2323 
Q 1372 2050 1759 2050 
Q 2150 2050 2401 2323 
Q 2653 2597 2653 3081 
z
" transform="scale(0.015625)"/>
     </defs>
     <use xlink:href="#ArialMT-30"/>
     <use xlink:href="#ArialMT-2e" x="55.615234"/>
     <use xlink:href="#ArialMT-33" x="83.398438"/>
     <use xlink:href="#ArialMT-39" x="139.013672"/>
     <use xlink:href="#ArialMT-34" x="194.628906"/>
    </g>
   </g>
   <g id="line2d_28">
    <path d="M 362.590625 94.091639 
L 373.590625 94.091639 
L 384.590625 94.091639 
" style="fill: none; stroke: #355f8d; stroke-width: 1.5; stroke-linecap: round"/>
   </g>
   <g id="text_19">
    <!-- 0.494 -->
    <g style="fill: #262626" transform="translate(393.390625 97.941639)scale(0.11 -0.11)">
     <use xlink:href="#ArialMT-30"/>
     <use xlink:href="#ArialMT-2e" x="55.615234"/>
     <use xlink:href="#ArialMT-34" x="83.398438"/>
     <use xlink:href="#ArialMT-39" x="139.013672"/>
     <use xlink:href="#ArialMT-34" x="194.628906"/>
    </g>
   </g>
   <g id="line2d_29">
    <path d="M 362.590625 109.651482 
L 373.590625 109.651482 
L 384.590625 109.651482 
" style="fill: none; stroke: #21918c; stroke-width: 1.5; stroke-linecap: round"/>
   </g>
   <g id="text_20">
    <!-- 0.594 -->
    <g style="fill: #262626" transform="translate(393.390625 113.501482)scale(0.11 -0.11)">
     <use xlink:href="#ArialMT-30"/>
     <use xlink:href="#ArialMT-2e" x="55.615234"/>
     <use xlink:href="#ArialMT-35" x="83.398438"/>
     <use xlink:href="#ArialMT-39" x="139.013672"/>
     <use xlink:href="#ArialMT-34" x="194.628906"/>
    </g>
   </g>
   <g id="line2d_30">
    <path d="M 362.590625 125.211326 
L 373.590625 125.211326 
L 384.590625 125.211326 
" style="fill: none; stroke: #44bf70; stroke-width: 1.5; stroke-linecap: round"/>
   </g>
   <g id="text_21">
    <!-- 0.694 -->
    <g style="fill: #262626" transform="translate(393.390625 129.061326)scale(0.11 -0.11)">
     <use xlink:href="#ArialMT-30"/>
     <use xlink:href="#ArialMT-2e" x="55.615234"/>
     <use xlink:href="#ArialMT-36" x="83.398438"/>
     <use xlink:href="#ArialMT-39" x="139.013672"/>
     <use xlink:href="#ArialMT-34" x="194.628906"/>
    </g>
   </g>
   <g id="line2d_31">
    <path d="M 362.590625 140.77117 
L 373.590625 140.77117 
L 384.590625 140.77117 
" style="fill: none; stroke: #bddf26; stroke-width: 1.5; stroke-linecap: round"/>
   </g>
   <g id="text_22">
    <!-- 0.794 -->
    <g style="fill: #262626" transform="translate(393.390625 144.62117)scale(0.11 -0.11)">
     <defs>
      <path id="ArialMT-37" d="M 303 3981 
L 303 4522 
L 3269 4522 
L 3269 4084 
Q 2831 3619 2401 2847 
Q 1972 2075 1738 1259 
Q 1569 684 1522 0 
L 944 0 
Q 953 541 1156 1306 
Q 1359 2072 1739 2783 
Q 2119 3494 2547 3981 
L 303 3981 
z
" transform="scale(0.015625)"/>
     </defs>
     <use xlink:href="#ArialMT-30"/>
     <use xlink:href="#ArialMT-2e" x="55.615234"/>
     <use xlink:href="#ArialMT-37" x="83.398438"/>
     <use xlink:href="#ArialMT-39" x="139.013672"/>
     <use xlink:href="#ArialMT-34" x="194.628906"/>
    </g>
   </g>
  </g>
 </g>
 <defs>
  <clipPath id="pb183f539da">
   <rect x="51.114688" y="24.119531" width="142.243902" height="142.243902"/>
  </clipPath>
  <clipPath id="p83d0d05913">
   <rect x="200.470785" y="24.119531" width="142.243902" height="142.243902"/>
  </clipPath>
 </defs>
</svg>
