<?xml version="1.0" encoding="utf-8" standalone="no"?>
<!DOCTYPE svg PUBLIC "-//W3C//DTD SVG 1.1//EN"
  "http://www.w3.org/Graphics/SVG/1.1/DTD/svg11.dtd">
<svg xmlns:xlink="http://www.w3.org/1999/xlink" width="423.766562pt" height="196.411978pt" viewBox="0 0 423.766562 196.411978" xmlns="http://www.w3.org/2000/svg" version="1.1">
 <metadata>
  <rdf:RDF xmlns:dc="http://purl.org/dc/elements/1.1/" xmlns:cc="http://creativecommons.org/ns#" xmlns:rdf="http://www.w3.org/1999/02/22-rdf-syntax-ns#">
   <cc:Work>
    <dc:type rdf:resource="http://purl.org/dc/dcmitype/StillImage"/>
    <dc:date>2022-10-12T14:24:26.235850</dc:date>
    <dc:format>image/svg+xml</dc:format>
    <dc:creator>
     <cc:Agent>
      <dc:title>Matplotlib v3.5.1, https://matplotlib.org/</dc:title>
     </cc:Agent>
    </dc:creator>
   </cc:Work>
  </rdf:RDF>
 </metadata>
 <defs>
  <style type="text/css">*{stroke-linejoin: round; stroke-linecap: butt}</style>
 </defs>
 <g id="figure_1">
  <g id="patch_1">
   <path d="M 0 196.411978 
L 423.766562 196.411978 
L 423.766562 0 
L 0 0 
z
" style="fill: #ffffff"/>
  </g>
  <g id="axes_1">
   <g id="patch_2">
    <path d="M 44.066563 157.934165 
L 177.881197 157.934165 
L 177.881197 24.119531 
L 44.066563 24.119531 
z
" style="fill: #ffffff"/>
   </g>
   <g id="matplotlib.axis_1">
    <g id="xtick_1">
     <g id="line2d_1">
      <path d="M 50.149046 157.934165 
L 50.149046 24.119531 
" clip-path="url(#p27f2fcea8b)" style="fill: none; stroke: #cccccc; stroke-linecap: round"/>
     </g>
     <g id="text_1">
      <!-- 0 -->
      <g style="fill: #262626" transform="translate(47.09053 169.307759)scale(0.11 -0.11)">
       <defs>
        <path id="ArialMT-30" d="M 266 2259 
Q 266 3072 433 3567 
Q 600 4063 929 4331 
Q 1259 4600 1759 4600 
Q 2128 4600 2406 4451 
Q 2684 4303 2865 4023 
Q 3047 3744 3150 3342 
Q 3253 2941 3253 2259 
Q 3253 1453 3087 958 
Q 2922 463 2592 192 
Q 2263 -78 1759 -78 
Q 1097 -78 719 397 
Q 266 969 266 2259 
z
M 844 2259 
Q 844 1131 1108 757 
Q 1372 384 1759 384 
Q 2147 384 2411 759 
Q 2675 1134 2675 2259 
Q 2675 3391 2411 3762 
Q 2147 4134 1753 4134 
Q 1366 4134 1134 3806 
Q 844 3388 844 2259 
z
" transform="scale(0.015625)"/>
       </defs>
       <use xlink:href="#ArialMT-30"/>
      </g>
     </g>
    </g>
    <g id="xtick_2">
     <g id="line2d_2">
      <path d="M 91.246906 157.934165 
L 91.246906 24.119531 
" clip-path="url(#p27f2fcea8b)" style="fill: none; stroke: #cccccc; stroke-linecap: round"/>
     </g>
     <g id="text_2">
      <!-- 25 -->
      <g style="fill: #262626" transform="translate(85.129875 169.307759)scale(0.11 -0.11)">
       <defs>
        <path id="ArialMT-32" d="M 3222 541 
L 3222 0 
L 194 0 
Q 188 203 259 391 
Q 375 700 629 1000 
Q 884 1300 1366 1694 
Q 2113 2306 2375 2664 
Q 2638 3022 2638 3341 
Q 2638 3675 2398 3904 
Q 2159 4134 1775 4134 
Q 1369 4134 1125 3890 
Q 881 3647 878 3216 
L 300 3275 
Q 359 3922 746 4261 
Q 1134 4600 1788 4600 
Q 2447 4600 2831 4234 
Q 3216 3869 3216 3328 
Q 3216 3053 3103 2787 
Q 2991 2522 2730 2228 
Q 2469 1934 1863 1422 
Q 1356 997 1212 845 
Q 1069 694 975 541 
L 3222 541 
z
" transform="scale(0.015625)"/>
        <path id="ArialMT-35" d="M 266 1200 
L 856 1250 
Q 922 819 1161 601 
Q 1400 384 1738 384 
Q 2144 384 2425 690 
Q 2706 997 2706 1503 
Q 2706 1984 2436 2262 
Q 2166 2541 1728 2541 
Q 1456 2541 1237 2417 
Q 1019 2294 894 2097 
L 366 2166 
L 809 4519 
L 3088 4519 
L 3088 3981 
L 1259 3981 
L 1013 2750 
Q 1425 3038 1878 3038 
Q 2478 3038 2890 2622 
Q 3303 2206 3303 1553 
Q 3303 931 2941 478 
Q 2500 -78 1738 -78 
Q 1113 -78 717 272 
Q 322 622 266 1200 
z
" transform="scale(0.015625)"/>
       </defs>
       <use xlink:href="#ArialMT-32"/>
       <use xlink:href="#ArialMT-35" x="55.615234"/>
      </g>
     </g>
    </g>
    <g id="xtick_3">
     <g id="line2d_3">
      <path d="M 132.344767 157.934165 
L 132.344767 24.119531 
" clip-path="url(#p27f2fcea8b)" style="fill: none; stroke: #cccccc; stroke-linecap: round"/>
     </g>
     <g id="text_3">
      <!-- 50 -->
      <g style="fill: #262626" transform="translate(126.227736 169.307759)scale(0.11 -0.11)">
       <use xlink:href="#ArialMT-35"/>
       <use xlink:href="#ArialMT-30" x="55.615234"/>
      </g>
     </g>
    </g>
    <g id="xtick_4">
     <g id="line2d_4">
      <path d="M 173.442628 157.934165 
L 173.442628 24.119531 
" clip-path="url(#p27f2fcea8b)" style="fill: none; stroke: #cccccc; stroke-linecap: round"/>
     </g>
     <g id="text_4">
      <!-- 75 -->
      <g style="fill: #262626" transform="translate(167.325596 169.307759)scale(0.11 -0.11)">
       <defs>
        <path id="ArialMT-37" d="M 303 3981 
L 303 4522 
L 3269 4522 
L 3269 4084 
Q 2831 3619 2401 2847 
Q 1972 2075 1738 1259 
Q 1569 684 1522 0 
L 944 0 
Q 953 541 1156 1306 
Q 1359 2072 1739 2783 
Q 2119 3494 2547 3981 
L 303 3981 
z
" transform="scale(0.015625)"/>
       </defs>
       <use xlink:href="#ArialMT-37"/>
       <use xlink:href="#ArialMT-35" x="55.615234"/>
      </g>
     </g>
    </g>
    <g id="text_5">
     <!-- Years -->
     <g style="fill: #262626" transform="translate(92.066848 186.230728)scale(0.15 -0.15)">
      <defs>
       <path id="ArialMT-59" d="M 1784 0 
L 1784 1941 
L 19 4581 
L 756 4581 
L 1659 3200 
Q 1909 2813 2125 2425 
Q 2331 2784 2625 3234 
L 3513 4581 
L 4219 4581 
L 2391 1941 
L 2391 0 
L 1784 0 
z
" transform="scale(0.015625)"/>
       <path id="ArialMT-65" d="M 2694 1069 
L 3275 997 
Q 3138 488 2766 206 
Q 2394 -75 1816 -75 
Q 1088 -75 661 373 
Q 234 822 234 1631 
Q 234 2469 665 2931 
Q 1097 3394 1784 3394 
Q 2450 3394 2872 2941 
Q 3294 2488 3294 1666 
Q 3294 1616 3291 1516 
L 816 1516 
Q 847 969 1125 678 
Q 1403 388 1819 388 
Q 2128 388 2347 550 
Q 2566 713 2694 1069 
z
M 847 1978 
L 2700 1978 
Q 2663 2397 2488 2606 
Q 2219 2931 1791 2931 
Q 1403 2931 1139 2672 
Q 875 2413 847 1978 
z
" transform="scale(0.015625)"/>
       <path id="ArialMT-61" d="M 2588 409 
Q 2275 144 1986 34 
Q 1697 -75 1366 -75 
Q 819 -75 525 192 
Q 231 459 231 875 
Q 231 1119 342 1320 
Q 453 1522 633 1644 
Q 813 1766 1038 1828 
Q 1203 1872 1538 1913 
Q 2219 1994 2541 2106 
Q 2544 2222 2544 2253 
Q 2544 2597 2384 2738 
Q 2169 2928 1744 2928 
Q 1347 2928 1158 2789 
Q 969 2650 878 2297 
L 328 2372 
Q 403 2725 575 2942 
Q 747 3159 1072 3276 
Q 1397 3394 1825 3394 
Q 2250 3394 2515 3294 
Q 2781 3194 2906 3042 
Q 3031 2891 3081 2659 
Q 3109 2516 3109 2141 
L 3109 1391 
Q 3109 606 3145 398 
Q 3181 191 3288 0 
L 2700 0 
Q 2613 175 2588 409 
z
M 2541 1666 
Q 2234 1541 1622 1453 
Q 1275 1403 1131 1340 
Q 988 1278 909 1158 
Q 831 1038 831 891 
Q 831 666 1001 516 
Q 1172 366 1500 366 
Q 1825 366 2078 508 
Q 2331 650 2450 897 
Q 2541 1088 2541 1459 
L 2541 1666 
z
" transform="scale(0.015625)"/>
       <path id="ArialMT-72" d="M 416 0 
L 416 3319 
L 922 3319 
L 922 2816 
Q 1116 3169 1280 3281 
Q 1444 3394 1641 3394 
Q 1925 3394 2219 3213 
L 2025 2691 
Q 1819 2813 1613 2813 
Q 1428 2813 1281 2702 
Q 1134 2591 1072 2394 
Q 978 2094 978 1738 
L 978 0 
L 416 0 
z
" transform="scale(0.015625)"/>
       <path id="ArialMT-73" d="M 197 991 
L 753 1078 
Q 800 744 1014 566 
Q 1228 388 1613 388 
Q 2000 388 2187 545 
Q 2375 703 2375 916 
Q 2375 1106 2209 1216 
Q 2094 1291 1634 1406 
Q 1016 1563 777 1677 
Q 538 1791 414 1992 
Q 291 2194 291 2438 
Q 291 2659 392 2848 
Q 494 3038 669 3163 
Q 800 3259 1026 3326 
Q 1253 3394 1513 3394 
Q 1903 3394 2198 3281 
Q 2494 3169 2634 2976 
Q 2775 2784 2828 2463 
L 2278 2388 
Q 2241 2644 2061 2787 
Q 1881 2931 1553 2931 
Q 1166 2931 1000 2803 
Q 834 2675 834 2503 
Q 834 2394 903 2306 
Q 972 2216 1119 2156 
Q 1203 2125 1616 2013 
Q 2213 1853 2448 1751 
Q 2684 1650 2818 1456 
Q 2953 1263 2953 975 
Q 2953 694 2789 445 
Q 2625 197 2315 61 
Q 2006 -75 1616 -75 
Q 969 -75 630 194 
Q 291 463 197 991 
z
" transform="scale(0.015625)"/>
      </defs>
      <use xlink:href="#ArialMT-59"/>
      <use xlink:href="#ArialMT-65" x="57.574219"/>
      <use xlink:href="#ArialMT-61" x="113.189453"/>
      <use xlink:href="#ArialMT-72" x="168.804688"/>
      <use xlink:href="#ArialMT-73" x="202.105469"/>
     </g>
    </g>
   </g>
   <g id="matplotlib.axis_2">
    <g id="ytick_1">
     <g id="line2d_5">
      <path d="M 44.066563 157.934165 
L 177.881197 157.934165 
" clip-path="url(#p27f2fcea8b)" style="fill: none; stroke: #cccccc; stroke-linecap: round"/>
     </g>
     <g id="text_6">
      <!-- 0.0 -->
      <g style="fill: #262626" transform="translate(25.276563 161.870962)scale(0.11 -0.11)">
       <defs>
        <path id="ArialMT-2e" d="M 581 0 
L 581 641 
L 1222 641 
L 1222 0 
L 581 0 
z
" transform="scale(0.015625)"/>
       </defs>
       <use xlink:href="#ArialMT-30"/>
       <use xlink:href="#ArialMT-2e" x="55.615234"/>
       <use xlink:href="#ArialMT-30" x="83.398438"/>
      </g>
     </g>
    </g>
    <g id="ytick_2">
     <g id="line2d_6">
      <path d="M 44.066563 131.171239 
L 177.881197 131.171239 
" clip-path="url(#p27f2fcea8b)" style="fill: none; stroke: #cccccc; stroke-linecap: round"/>
     </g>
     <g id="text_7">
      <!-- 0.2 -->
      <g style="fill: #262626" transform="translate(25.276563 135.108035)scale(0.11 -0.11)">
       <use xlink:href="#ArialMT-30"/>
       <use xlink:href="#ArialMT-2e" x="55.615234"/>
       <use xlink:href="#ArialMT-32" x="83.398438"/>
      </g>
     </g>
    </g>
    <g id="ytick_3">
     <g id="line2d_7">
      <path d="M 44.066563 104.408312 
L 177.881197 104.408312 
" clip-path="url(#p27f2fcea8b)" style="fill: none; stroke: #cccccc; stroke-linecap: round"/>
     </g>
     <g id="text_8">
      <!-- 0.4 -->
      <g style="fill: #262626" transform="translate(25.276563 108.345109)scale(0.11 -0.11)">
       <defs>
        <path id="ArialMT-34" d="M 2069 0 
L 2069 1097 
L 81 1097 
L 81 1613 
L 2172 4581 
L 2631 4581 
L 2631 1613 
L 3250 1613 
L 3250 1097 
L 2631 1097 
L 2631 0 
L 2069 0 
z
M 2069 1613 
L 2069 3678 
L 634 1613 
L 2069 1613 
z
" transform="scale(0.015625)"/>
       </defs>
       <use xlink:href="#ArialMT-30"/>
       <use xlink:href="#ArialMT-2e" x="55.615234"/>
       <use xlink:href="#ArialMT-34" x="83.398438"/>
      </g>
     </g>
    </g>
    <g id="ytick_4">
     <g id="line2d_8">
      <path d="M 44.066563 77.645385 
L 177.881197 77.645385 
" clip-path="url(#p27f2fcea8b)" style="fill: none; stroke: #cccccc; stroke-linecap: round"/>
     </g>
     <g id="text_9">
      <!-- 0.6 -->
      <g style="fill: #262626" transform="translate(25.276563 81.582182)scale(0.11 -0.11)">
       <defs>
        <path id="ArialMT-36" d="M 3184 3459 
L 2625 3416 
Q 2550 3747 2413 3897 
Q 2184 4138 1850 4138 
Q 1581 4138 1378 3988 
Q 1113 3794 959 3422 
Q 806 3050 800 2363 
Q 1003 2672 1297 2822 
Q 1591 2972 1913 2972 
Q 2475 2972 2870 2558 
Q 3266 2144 3266 1488 
Q 3266 1056 3080 686 
Q 2894 316 2569 119 
Q 2244 -78 1831 -78 
Q 1128 -78 684 439 
Q 241 956 241 2144 
Q 241 3472 731 4075 
Q 1159 4600 1884 4600 
Q 2425 4600 2770 4297 
Q 3116 3994 3184 3459 
z
M 888 1484 
Q 888 1194 1011 928 
Q 1134 663 1356 523 
Q 1578 384 1822 384 
Q 2178 384 2434 671 
Q 2691 959 2691 1453 
Q 2691 1928 2437 2201 
Q 2184 2475 1800 2475 
Q 1419 2475 1153 2201 
Q 888 1928 888 1484 
z
" transform="scale(0.015625)"/>
       </defs>
       <use xlink:href="#ArialMT-30"/>
       <use xlink:href="#ArialMT-2e" x="55.615234"/>
       <use xlink:href="#ArialMT-36" x="83.398438"/>
      </g>
     </g>
    </g>
    <g id="ytick_5">
     <g id="line2d_9">
      <path d="M 44.066563 50.882458 
L 177.881197 50.882458 
" clip-path="url(#p27f2fcea8b)" style="fill: none; stroke: #cccccc; stroke-linecap: round"/>
     </g>
     <g id="text_10">
      <!-- 0.8 -->
      <g style="fill: #262626" transform="translate(25.276563 54.819255)scale(0.11 -0.11)">
       <defs>
        <path id="ArialMT-38" d="M 1131 2484 
Q 781 2613 612 2850 
Q 444 3088 444 3419 
Q 444 3919 803 4259 
Q 1163 4600 1759 4600 
Q 2359 4600 2725 4251 
Q 3091 3903 3091 3403 
Q 3091 3084 2923 2848 
Q 2756 2613 2416 2484 
Q 2838 2347 3058 2040 
Q 3278 1734 3278 1309 
Q 3278 722 2862 322 
Q 2447 -78 1769 -78 
Q 1091 -78 675 323 
Q 259 725 259 1325 
Q 259 1772 486 2073 
Q 713 2375 1131 2484 
z
M 1019 3438 
Q 1019 3113 1228 2906 
Q 1438 2700 1772 2700 
Q 2097 2700 2305 2904 
Q 2513 3109 2513 3406 
Q 2513 3716 2298 3927 
Q 2084 4138 1766 4138 
Q 1444 4138 1231 3931 
Q 1019 3725 1019 3438 
z
M 838 1322 
Q 838 1081 952 856 
Q 1066 631 1291 507 
Q 1516 384 1775 384 
Q 2178 384 2440 643 
Q 2703 903 2703 1303 
Q 2703 1709 2433 1975 
Q 2163 2241 1756 2241 
Q 1359 2241 1098 1978 
Q 838 1716 838 1322 
z
" transform="scale(0.015625)"/>
       </defs>
       <use xlink:href="#ArialMT-30"/>
       <use xlink:href="#ArialMT-2e" x="55.615234"/>
       <use xlink:href="#ArialMT-38" x="83.398438"/>
      </g>
     </g>
    </g>
    <g id="ytick_6">
     <g id="line2d_10">
      <path d="M 44.066563 24.119531 
L 177.881197 24.119531 
" clip-path="url(#p27f2fcea8b)" style="fill: none; stroke: #cccccc; stroke-linecap: round"/>
     </g>
     <g id="text_11">
      <!-- 1.0 -->
      <g style="fill: #262626" transform="translate(25.276563 28.056328)scale(0.11 -0.11)">
       <defs>
        <path id="ArialMT-31" d="M 2384 0 
L 1822 0 
L 1822 3584 
Q 1619 3391 1289 3197 
Q 959 3003 697 2906 
L 697 3450 
Q 1169 3672 1522 3987 
Q 1875 4303 2022 4600 
L 2384 4600 
L 2384 0 
z
" transform="scale(0.015625)"/>
       </defs>
       <use xlink:href="#ArialMT-31"/>
       <use xlink:href="#ArialMT-2e" x="55.615234"/>
       <use xlink:href="#ArialMT-30" x="83.398438"/>
      </g>
     </g>
    </g>
    <g id="text_12">
     <!-- Population (millions) -->
     <g style="fill: #262626" transform="translate(18.119531 158.55263)rotate(-90)scale(0.15 -0.15)">
      <defs>
       <path id="ArialMT-50" d="M 494 0 
L 494 4581 
L 2222 4581 
Q 2678 4581 2919 4538 
Q 3256 4481 3484 4323 
Q 3713 4166 3852 3881 
Q 3991 3597 3991 3256 
Q 3991 2672 3619 2267 
Q 3247 1863 2275 1863 
L 1100 1863 
L 1100 0 
L 494 0 
z
M 1100 2403 
L 2284 2403 
Q 2872 2403 3119 2622 
Q 3366 2841 3366 3238 
Q 3366 3525 3220 3729 
Q 3075 3934 2838 4000 
Q 2684 4041 2272 4041 
L 1100 4041 
L 1100 2403 
z
" transform="scale(0.015625)"/>
       <path id="ArialMT-6f" d="M 213 1659 
Q 213 2581 725 3025 
Q 1153 3394 1769 3394 
Q 2453 3394 2887 2945 
Q 3322 2497 3322 1706 
Q 3322 1066 3130 698 
Q 2938 331 2570 128 
Q 2203 -75 1769 -75 
Q 1072 -75 642 372 
Q 213 819 213 1659 
z
M 791 1659 
Q 791 1022 1069 705 
Q 1347 388 1769 388 
Q 2188 388 2466 706 
Q 2744 1025 2744 1678 
Q 2744 2294 2464 2611 
Q 2184 2928 1769 2928 
Q 1347 2928 1069 2612 
Q 791 2297 791 1659 
z
" transform="scale(0.015625)"/>
       <path id="ArialMT-70" d="M 422 -1272 
L 422 3319 
L 934 3319 
L 934 2888 
Q 1116 3141 1344 3267 
Q 1572 3394 1897 3394 
Q 2322 3394 2647 3175 
Q 2972 2956 3137 2557 
Q 3303 2159 3303 1684 
Q 3303 1175 3120 767 
Q 2938 359 2589 142 
Q 2241 -75 1856 -75 
Q 1575 -75 1351 44 
Q 1128 163 984 344 
L 984 -1272 
L 422 -1272 
z
M 931 1641 
Q 931 1000 1190 694 
Q 1450 388 1819 388 
Q 2194 388 2461 705 
Q 2728 1022 2728 1688 
Q 2728 2322 2467 2637 
Q 2206 2953 1844 2953 
Q 1484 2953 1207 2617 
Q 931 2281 931 1641 
z
" transform="scale(0.015625)"/>
       <path id="ArialMT-75" d="M 2597 0 
L 2597 488 
Q 2209 -75 1544 -75 
Q 1250 -75 995 37 
Q 741 150 617 320 
Q 494 491 444 738 
Q 409 903 409 1263 
L 409 3319 
L 972 3319 
L 972 1478 
Q 972 1038 1006 884 
Q 1059 663 1231 536 
Q 1403 409 1656 409 
Q 1909 409 2131 539 
Q 2353 669 2445 892 
Q 2538 1116 2538 1541 
L 2538 3319 
L 3100 3319 
L 3100 0 
L 2597 0 
z
" transform="scale(0.015625)"/>
       <path id="ArialMT-6c" d="M 409 0 
L 409 4581 
L 972 4581 
L 972 0 
L 409 0 
z
" transform="scale(0.015625)"/>
       <path id="ArialMT-74" d="M 1650 503 
L 1731 6 
Q 1494 -44 1306 -44 
Q 1000 -44 831 53 
Q 663 150 594 308 
Q 525 466 525 972 
L 525 2881 
L 113 2881 
L 113 3319 
L 525 3319 
L 525 4141 
L 1084 4478 
L 1084 3319 
L 1650 3319 
L 1650 2881 
L 1084 2881 
L 1084 941 
Q 1084 700 1114 631 
Q 1144 563 1211 522 
Q 1278 481 1403 481 
Q 1497 481 1650 503 
z
" transform="scale(0.015625)"/>
       <path id="ArialMT-69" d="M 425 3934 
L 425 4581 
L 988 4581 
L 988 3934 
L 425 3934 
z
M 425 0 
L 425 3319 
L 988 3319 
L 988 0 
L 425 0 
z
" transform="scale(0.015625)"/>
       <path id="ArialMT-6e" d="M 422 0 
L 422 3319 
L 928 3319 
L 928 2847 
Q 1294 3394 1984 3394 
Q 2284 3394 2536 3286 
Q 2788 3178 2913 3003 
Q 3038 2828 3088 2588 
Q 3119 2431 3119 2041 
L 3119 0 
L 2556 0 
L 2556 2019 
Q 2556 2363 2490 2533 
Q 2425 2703 2258 2804 
Q 2091 2906 1866 2906 
Q 1506 2906 1245 2678 
Q 984 2450 984 1813 
L 984 0 
L 422 0 
z
" transform="scale(0.015625)"/>
       <path id="ArialMT-20" transform="scale(0.015625)"/>
       <path id="ArialMT-28" d="M 1497 -1347 
Q 1031 -759 709 28 
Q 388 816 388 1659 
Q 388 2403 628 3084 
Q 909 3875 1497 4659 
L 1900 4659 
Q 1522 4009 1400 3731 
Q 1209 3300 1100 2831 
Q 966 2247 966 1656 
Q 966 153 1900 -1347 
L 1497 -1347 
z
" transform="scale(0.015625)"/>
       <path id="ArialMT-6d" d="M 422 0 
L 422 3319 
L 925 3319 
L 925 2853 
Q 1081 3097 1340 3245 
Q 1600 3394 1931 3394 
Q 2300 3394 2536 3241 
Q 2772 3088 2869 2813 
Q 3263 3394 3894 3394 
Q 4388 3394 4653 3120 
Q 4919 2847 4919 2278 
L 4919 0 
L 4359 0 
L 4359 2091 
Q 4359 2428 4304 2576 
Q 4250 2725 4106 2815 
Q 3963 2906 3769 2906 
Q 3419 2906 3187 2673 
Q 2956 2441 2956 1928 
L 2956 0 
L 2394 0 
L 2394 2156 
Q 2394 2531 2256 2718 
Q 2119 2906 1806 2906 
Q 1569 2906 1367 2781 
Q 1166 2656 1075 2415 
Q 984 2175 984 1722 
L 984 0 
L 422 0 
z
" transform="scale(0.015625)"/>
       <path id="ArialMT-29" d="M 791 -1347 
L 388 -1347 
Q 1322 153 1322 1656 
Q 1322 2244 1188 2822 
Q 1081 3291 891 3722 
Q 769 4003 388 4659 
L 791 4659 
Q 1378 3875 1659 3084 
Q 1900 2403 1900 1659 
Q 1900 816 1576 28 
Q 1253 -759 791 -1347 
z
" transform="scale(0.015625)"/>
      </defs>
      <use xlink:href="#ArialMT-50"/>
      <use xlink:href="#ArialMT-6f" x="66.699219"/>
      <use xlink:href="#ArialMT-70" x="122.314453"/>
      <use xlink:href="#ArialMT-75" x="177.929688"/>
      <use xlink:href="#ArialMT-6c" x="233.544922"/>
      <use xlink:href="#ArialMT-61" x="255.761719"/>
      <use xlink:href="#ArialMT-74" x="311.376953"/>
      <use xlink:href="#ArialMT-69" x="339.160156"/>
      <use xlink:href="#ArialMT-6f" x="361.376953"/>
      <use xlink:href="#ArialMT-6e" x="416.992188"/>
      <use xlink:href="#ArialMT-20" x="472.607422"/>
      <use xlink:href="#ArialMT-28" x="500.390625"/>
      <use xlink:href="#ArialMT-6d" x="533.691406"/>
      <use xlink:href="#ArialMT-69" x="616.992188"/>
      <use xlink:href="#ArialMT-6c" x="639.208984"/>
      <use xlink:href="#ArialMT-6c" x="661.425781"/>
      <use xlink:href="#ArialMT-69" x="683.642578"/>
      <use xlink:href="#ArialMT-6f" x="705.859375"/>
      <use xlink:href="#ArialMT-6e" x="761.474609"/>
      <use xlink:href="#ArialMT-73" x="817.089844"/>
      <use xlink:href="#ArialMT-29" x="867.089844"/>
     </g>
    </g>
   </g>
   <g id="line2d_11">
    <path d="M 50.149046 146.771349 
L 51.79296 146.821458 
L 53.436875 147.169612 
L 55.080789 146.400363 
L 56.724704 144.439296 
L 58.368618 143.033878 
L 60.012532 141.524805 
L 61.656447 139.475306 
L 63.300361 137.133912 
L 64.944276 134.634926 
L 66.58819 131.99214 
L 68.232105 129.294173 
L 69.876019 126.669136 
L 71.519933 124.228794 
L 73.163848 122.061598 
L 74.807762 120.225032 
L 76.451677 118.738557 
L 78.095591 117.587329 
L 79.739506 116.732619 
L 81.38342 116.123725 
L 83.027334 115.708148 
L 84.671249 115.438285 
L 86.315163 115.274585 
L 87.959078 115.186133 
L 89.602992 115.149806 
L 91.246906 115.148846 
L 92.890821 115.171382 
L 94.534735 115.209145 
L 96.17865 115.256448 
L 97.822564 115.30942 
L 99.466479 115.36545 
L 101.110393 115.422799 
L 102.754307 115.480318 
L 104.398222 115.537261 
L 106.042136 115.593156 
L 107.686051 115.647715 
L 109.329965 115.70077 
L 110.97388 115.752237 
L 112.617794 115.802085 
L 114.261708 115.850318 
L 115.905623 115.896961 
L 117.549537 115.942054 
L 119.193452 115.985645 
L 120.837366 116.027785 
L 122.481281 116.068528 
L 124.125195 116.107929 
L 125.769109 116.14604 
L 127.413024 116.182912 
L 129.056938 116.218596 
L 130.700853 116.253139 
L 132.344767 116.286588 
L 133.988682 116.318985 
L 135.632596 116.350373 
L 137.27651 116.380791 
L 138.920425 116.410276 
L 140.564339 116.438865 
L 142.208254 116.466592 
L 143.852168 116.493489 
L 145.496082 116.519587 
L 147.139997 116.544916 
L 148.783911 116.569505 
L 150.427826 116.593379 
L 152.07174 116.616564 
L 153.715655 116.639085 
L 155.359569 116.660966 
L 157.003483 116.682228 
L 158.647398 116.702893 
L 160.291312 116.722982 
L 161.935227 116.742513 
L 163.579141 116.761507 
L 165.223056 116.779979 
L 166.86697 116.797949 
L 168.510884 116.815431 
L 170.154799 116.832443 
L 171.798713 116.848998 
" clip-path="url(#p27f2fcea8b)" style="fill: none; stroke: #482475; stroke-width: 1.5; stroke-linecap: round"/>
   </g>
   <g id="line2d_12">
    <path d="M 50.149046 146.216687 
L 51.79296 146.269286 
L 53.436875 146.63474 
L 55.080789 146.032682 
L 56.724704 144.529969 
L 58.368618 143.682608 
L 60.012532 142.715489 
L 61.656447 141.284992 
L 63.300361 139.643973 
L 64.944276 137.884669 
L 66.58819 136.005949 
L 68.232105 134.079108 
L 69.876019 132.202535 
L 71.519933 130.459242 
L 73.163848 128.915829 
L 74.807762 127.616078 
L 76.451677 126.574884 
L 78.095591 125.781348 
L 79.739506 125.206709 
L 81.38342 124.813195 
L 83.027334 124.561643 
L 84.671249 124.416553 
L 86.315163 124.348446 
L 87.959078 124.334304 
L 89.602992 124.356938 
L 91.246906 124.403921 
L 92.890821 124.46648 
L 94.534735 124.538533 
L 96.17865 124.615926 
L 97.822564 124.695857 
L 99.466479 124.776464 
L 101.110393 124.85653 
L 102.754307 124.935276 
L 104.398222 125.012218 
L 106.042136 125.087073 
L 107.686051 125.15969 
L 109.329965 125.230006 
L 110.97388 125.298016 
L 112.617794 125.363751 
L 114.261708 125.427262 
L 115.905623 125.488619 
L 117.549537 125.547894 
L 119.193452 125.605166 
L 120.837366 125.660512 
L 122.481281 125.714011 
L 124.125195 125.765738 
L 125.769109 125.815765 
L 127.413024 125.864163 
L 129.056938 125.910997 
L 130.700853 125.956333 
L 132.344767 126.000231 
L 133.988682 126.042748 
L 135.632596 126.083939 
L 137.27651 126.123858 
L 138.920425 126.162552 
L 140.564339 126.20007 
L 142.208254 126.236456 
L 143.852168 126.271753 
L 145.496082 126.306002 
L 147.139997 126.339242 
L 148.783911 126.371509 
L 150.427826 126.402839 
L 152.07174 126.433266 
L 153.715655 126.462821 
L 155.359569 126.491535 
L 157.003483 126.519437 
L 158.647398 126.546556 
L 160.291312 126.572918 
L 161.935227 126.59855 
L 163.579141 126.623474 
L 165.223056 126.647716 
L 166.86697 126.671297 
L 168.510884 126.69424 
L 170.154799 126.716564 
L 171.798713 126.73829 
" clip-path="url(#p27f2fcea8b)" style="fill: none; stroke: #355f8d; stroke-width: 1.5; stroke-linecap: round"/>
   </g>
   <g id="line2d_13">
    <path d="M 50.149046 145.662025 
L 51.79296 145.717114 
L 53.436875 146.099867 
L 55.080789 145.665001 
L 56.724704 144.620641 
L 58.368618 144.331339 
L 60.012532 143.906173 
L 61.656447 143.094679 
L 63.300361 142.154033 
L 64.944276 141.134412 
L 66.58819 140.019759 
L 68.232105 138.864043 
L 69.876019 137.735934 
L 71.519933 136.68969 
L 73.163848 135.77006 
L 74.807762 135.007124 
L 76.451677 134.41121 
L 78.095591 133.975366 
L 79.739506 133.6808 
L 81.38342 133.502664 
L 83.027334 133.415139 
L 84.671249 133.394822 
L 86.315163 133.422308 
L 87.959078 133.482476 
L 89.602992 133.564071 
L 91.246906 133.658997 
L 92.890821 133.761578 
L 94.534735 133.867921 
L 96.17865 133.975403 
L 97.822564 134.082294 
L 99.466479 134.187478 
L 101.110393 134.290262 
L 102.754307 134.390234 
L 104.398222 134.487175 
L 106.042136 134.580989 
L 107.686051 134.671665 
L 109.329965 134.759243 
L 110.97388 134.843796 
L 112.617794 134.925416 
L 114.261708 135.004207 
L 115.905623 135.080277 
L 117.549537 135.153734 
L 119.193452 135.224687 
L 120.837366 135.29324 
L 122.481281 135.359494 
L 124.125195 135.423547 
L 125.769109 135.48549 
L 127.413024 135.545413 
L 129.056938 135.603399 
L 130.700853 135.659527 
L 132.344767 135.713874 
L 133.988682 135.766511 
L 135.632596 135.817506 
L 137.27651 135.866925 
L 138.920425 135.914828 
L 140.564339 135.961275 
L 142.208254 136.00632 
L 143.852168 136.050018 
L 145.496082 136.092418 
L 147.139997 136.133568 
L 148.783911 136.173514 
L 150.427826 136.2123 
L 152.07174 136.249967 
L 153.715655 136.286556 
L 155.359569 136.322103 
L 157.003483 136.356646 
L 158.647398 136.390219 
L 160.291312 136.422855 
L 161.935227 136.454586 
L 163.579141 136.485442 
L 165.223056 136.515453 
L 166.86697 136.544646 
L 168.510884 136.573048 
L 170.154799 136.600685 
L 171.798713 136.627582 
" clip-path="url(#p27f2fcea8b)" style="fill: none; stroke: #21918c; stroke-width: 1.5; stroke-linecap: round"/>
   </g>
   <g id="line2d_14">
    <path d="M 50.149046 145.107364 
L 51.79296 145.164942 
L 53.436875 145.564994 
L 55.080789 145.29732 
L 56.724704 144.711314 
L 58.368618 144.980069 
L 60.012532 145.096857 
L 61.656447 144.904365 
L 63.300361 144.664094 
L 64.944276 144.384156 
L 66.58819 144.033568 
L 68.232105 143.648979 
L 69.876019 143.269333 
L 71.519933 142.920138 
L 73.163848 142.624291 
L 74.807762 142.39817 
L 76.451677 142.247537 
L 78.095591 142.169385 
L 79.739506 142.15489 
L 81.38342 142.192134 
L 83.027334 142.268634 
L 84.671249 142.37309 
L 86.315163 142.49617 
L 87.959078 142.630648 
L 89.602992 142.771203 
L 91.246906 142.914072 
L 92.890821 143.056676 
L 94.534735 143.197309 
L 96.17865 143.334881 
L 97.822564 143.468731 
L 99.466479 143.598492 
L 101.110393 143.723993 
L 102.754307 143.845192 
L 104.398222 143.962131 
L 106.042136 144.074905 
L 107.686051 144.18364 
L 109.329965 144.288479 
L 110.97388 144.389575 
L 112.617794 144.487082 
L 114.261708 144.581152 
L 115.905623 144.671935 
L 117.549537 144.759575 
L 119.193452 144.844208 
L 120.837366 144.925968 
L 122.481281 145.004977 
L 124.125195 145.081356 
L 125.769109 145.155216 
L 127.413024 145.226663 
L 129.056938 145.2958 
L 130.700853 145.362721 
L 132.344767 145.427516 
L 133.988682 145.490273 
L 135.632596 145.551072 
L 137.27651 145.609992 
L 138.920425 145.667104 
L 140.564339 145.72248 
L 142.208254 145.776185 
L 143.852168 145.828282 
L 145.496082 145.878833 
L 147.139997 145.927894 
L 148.783911 145.975519 
L 150.427826 146.021761 
L 152.07174 146.066669 
L 153.715655 146.110291 
L 155.359569 146.152672 
L 157.003483 146.193855 
L 158.647398 146.233882 
L 160.291312 146.272791 
L 161.935227 146.310622 
L 163.579141 146.34741 
L 165.223056 146.38319 
L 166.86697 146.417995 
L 168.510884 146.451857 
L 170.154799 146.484807 
L 171.798713 146.516874 
" clip-path="url(#p27f2fcea8b)" style="fill: none; stroke: #44bf70; stroke-width: 1.5; stroke-linecap: round"/>
   </g>
   <g id="line2d_15">
    <path d="M 50.149046 144.552702 
L 51.79296 144.612771 
L 53.436875 145.030122 
L 55.080789 144.929638 
L 56.724704 144.801986 
L 58.368618 145.6288 
L 60.012532 146.287541 
L 61.656447 146.714051 
L 63.300361 147.174155 
L 64.944276 147.633899 
L 66.58819 148.047378 
L 68.232105 148.433914 
L 69.876019 148.802732 
L 71.519933 149.150586 
L 73.163848 149.478523 
L 74.807762 149.789216 
L 76.451677 150.083863 
L 78.095591 150.363404 
L 79.739506 150.628981 
L 81.38342 150.881603 
L 83.027334 151.122129 
L 84.671249 151.351359 
L 86.315163 151.570032 
L 87.959078 151.778819 
L 89.602992 151.978336 
L 91.246906 152.169147 
L 92.890821 152.351775 
L 94.534735 152.526697 
L 96.17865 152.694359 
L 97.822564 152.855168 
L 99.466479 153.009506 
L 101.110393 153.157724 
L 102.754307 153.30015 
L 104.398222 153.437088 
L 106.042136 153.568821 
L 107.686051 153.695615 
L 109.329965 153.817716 
L 110.97388 153.935354 
L 112.617794 154.048747 
L 114.261708 154.158097 
L 115.905623 154.263593 
L 117.549537 154.365415 
L 119.193452 154.46373 
L 120.837366 154.558695 
L 122.481281 154.65046 
L 124.125195 154.739165 
L 125.769109 154.824941 
L 127.413024 154.907914 
L 129.056938 154.988201 
L 130.700853 155.065914 
L 132.344767 155.141159 
L 133.988682 155.214036 
L 135.632596 155.284639 
L 137.27651 155.353058 
L 138.920425 155.41938 
L 140.564339 155.483684 
L 142.208254 155.546049 
L 143.852168 155.606547 
L 145.496082 155.665248 
L 147.139997 155.722219 
L 148.783911 155.777524 
L 150.427826 155.831222 
L 152.07174 155.883371 
L 153.715655 155.934026 
L 155.359569 155.983241 
L 157.003483 156.031064 
L 158.647398 156.077544 
L 160.291312 156.122728 
L 161.935227 156.166658 
L 163.579141 156.209378 
L 165.223056 156.250926 
L 166.86697 156.291343 
L 168.510884 156.330665 
L 170.154799 156.368928 
L 171.798713 156.406165 
" clip-path="url(#p27f2fcea8b)" style="fill: none; stroke: #bddf26; stroke-width: 1.5; stroke-linecap: round"/>
   </g>
   <g id="patch_3">
    <path d="M 44.066563 157.934165 
L 44.066563 24.119531 
" style="fill: none; stroke: #cccccc; stroke-linejoin: miter; stroke-linecap: square"/>
   </g>
   <g id="patch_4">
    <path d="M 177.881197 157.934165 
L 177.881197 24.119531 
" style="fill: none; stroke: #cccccc; stroke-linejoin: miter; stroke-linecap: square"/>
   </g>
   <g id="patch_5">
    <path d="M 44.066563 157.934165 
L 177.881197 157.934165 
" style="fill: none; stroke: #cccccc; stroke-linejoin: miter; stroke-linecap: square"/>
   </g>
   <g id="patch_6">
    <path d="M 44.066563 24.119531 
L 177.881197 24.119531 
" style="fill: none; stroke: #cccccc; stroke-linejoin: miter; stroke-linecap: square"/>
   </g>
   <g id="text_13">
    <!-- La Grange -->
    <g style="fill: #262626" transform="translate(75.535208 18.119531)scale(0.15 -0.15)">
     <defs>
      <path id="ArialMT-4c" d="M 469 0 
L 469 4581 
L 1075 4581 
L 1075 541 
L 3331 541 
L 3331 0 
L 469 0 
z
" transform="scale(0.015625)"/>
      <path id="ArialMT-47" d="M 2638 1797 
L 2638 2334 
L 4578 2338 
L 4578 638 
Q 4131 281 3656 101 
Q 3181 -78 2681 -78 
Q 2006 -78 1454 211 
Q 903 500 622 1047 
Q 341 1594 341 2269 
Q 341 2938 620 3517 
Q 900 4097 1425 4378 
Q 1950 4659 2634 4659 
Q 3131 4659 3532 4498 
Q 3934 4338 4162 4050 
Q 4391 3763 4509 3300 
L 3963 3150 
Q 3859 3500 3706 3700 
Q 3553 3900 3268 4020 
Q 2984 4141 2638 4141 
Q 2222 4141 1919 4014 
Q 1616 3888 1430 3681 
Q 1244 3475 1141 3228 
Q 966 2803 966 2306 
Q 966 1694 1177 1281 
Q 1388 869 1791 669 
Q 2194 469 2647 469 
Q 3041 469 3416 620 
Q 3791 772 3984 944 
L 3984 1797 
L 2638 1797 
z
" transform="scale(0.015625)"/>
      <path id="ArialMT-67" d="M 319 -275 
L 866 -356 
Q 900 -609 1056 -725 
Q 1266 -881 1628 -881 
Q 2019 -881 2231 -725 
Q 2444 -569 2519 -288 
Q 2563 -116 2559 434 
Q 2191 0 1641 0 
Q 956 0 581 494 
Q 206 988 206 1678 
Q 206 2153 378 2554 
Q 550 2956 876 3175 
Q 1203 3394 1644 3394 
Q 2231 3394 2613 2919 
L 2613 3319 
L 3131 3319 
L 3131 450 
Q 3131 -325 2973 -648 
Q 2816 -972 2473 -1159 
Q 2131 -1347 1631 -1347 
Q 1038 -1347 672 -1080 
Q 306 -813 319 -275 
z
M 784 1719 
Q 784 1066 1043 766 
Q 1303 466 1694 466 
Q 2081 466 2343 764 
Q 2606 1063 2606 1700 
Q 2606 2309 2336 2618 
Q 2066 2928 1684 2928 
Q 1309 2928 1046 2623 
Q 784 2319 784 1719 
z
" transform="scale(0.015625)"/>
     </defs>
     <use xlink:href="#ArialMT-4c"/>
     <use xlink:href="#ArialMT-61" x="55.615234"/>
     <use xlink:href="#ArialMT-20" x="111.230469"/>
     <use xlink:href="#ArialMT-47" x="139.013672"/>
     <use xlink:href="#ArialMT-72" x="216.796875"/>
     <use xlink:href="#ArialMT-61" x="250.097656"/>
     <use xlink:href="#ArialMT-6e" x="305.712891"/>
     <use xlink:href="#ArialMT-67" x="361.328125"/>
     <use xlink:href="#ArialMT-65" x="416.943359"/>
    </g>
   </g>
  </g>
  <g id="axes_2">
   <g id="patch_7">
    <path d="M 184.571928 157.934165 
L 318.386563 157.934165 
L 318.386563 24.119531 
L 184.571928 24.119531 
z
" style="fill: #ffffff"/>
   </g>
   <g id="matplotlib.axis_3">
    <g id="xtick_5">
     <g id="line2d_16">
      <path d="M 190.654412 157.934165 
L 190.654412 24.119531 
" clip-path="url(#pd56dc1d070)" style="fill: none; stroke: #cccccc; stroke-linecap: round"/>
     </g>
     <g id="text_14">
      <!-- 0 -->
      <g style="fill: #262626" transform="translate(187.595896 169.307759)scale(0.11 -0.11)">
       <use xlink:href="#ArialMT-30"/>
      </g>
     </g>
    </g>
    <g id="xtick_6">
     <g id="line2d_17">
      <path d="M 231.752272 157.934165 
L 231.752272 24.119531 
" clip-path="url(#pd56dc1d070)" style="fill: none; stroke: #cccccc; stroke-linecap: round"/>
     </g>
     <g id="text_15">
      <!-- 25 -->
      <g style="fill: #262626" transform="translate(225.635241 169.307759)scale(0.11 -0.11)">
       <use xlink:href="#ArialMT-32"/>
       <use xlink:href="#ArialMT-35" x="55.615234"/>
      </g>
     </g>
    </g>
    <g id="xtick_7">
     <g id="line2d_18">
      <path d="M 272.850133 157.934165 
L 272.850133 24.119531 
" clip-path="url(#pd56dc1d070)" style="fill: none; stroke: #cccccc; stroke-linecap: round"/>
     </g>
     <g id="text_16">
      <!-- 50 -->
      <g style="fill: #262626" transform="translate(266.733102 169.307759)scale(0.11 -0.11)">
       <use xlink:href="#ArialMT-35"/>
       <use xlink:href="#ArialMT-30" x="55.615234"/>
      </g>
     </g>
    </g>
    <g id="xtick_8">
     <g id="line2d_19">
      <path d="M 313.947994 157.934165 
L 313.947994 24.119531 
" clip-path="url(#pd56dc1d070)" style="fill: none; stroke: #cccccc; stroke-linecap: round"/>
     </g>
     <g id="text_17">
      <!-- 75 -->
      <g style="fill: #262626" transform="translate(307.830962 169.307759)scale(0.11 -0.11)">
       <use xlink:href="#ArialMT-37"/>
       <use xlink:href="#ArialMT-35" x="55.615234"/>
      </g>
     </g>
    </g>
    <g id="text_18">
     <!-- Years -->
     <g style="fill: #262626" transform="translate(232.572214 186.230728)scale(0.15 -0.15)">
      <use xlink:href="#ArialMT-59"/>
      <use xlink:href="#ArialMT-65" x="57.574219"/>
      <use xlink:href="#ArialMT-61" x="113.189453"/>
      <use xlink:href="#ArialMT-72" x="168.804688"/>
      <use xlink:href="#ArialMT-73" x="202.105469"/>
     </g>
    </g>
   </g>
   <g id="matplotlib.axis_4">
    <g id="ytick_7">
     <g id="line2d_20">
      <path d="M 184.571928 157.934165 
L 318.386563 157.934165 
" clip-path="url(#pd56dc1d070)" style="fill: none; stroke: #cccccc; stroke-linecap: round"/>
     </g>
    </g>
    <g id="ytick_8">
     <g id="line2d_21">
      <path d="M 184.571928 131.171239 
L 318.386563 131.171239 
" clip-path="url(#pd56dc1d070)" style="fill: none; stroke: #cccccc; stroke-linecap: round"/>
     </g>
    </g>
    <g id="ytick_9">
     <g id="line2d_22">
      <path d="M 184.571928 104.408312 
L 318.386563 104.408312 
" clip-path="url(#pd56dc1d070)" style="fill: none; stroke: #cccccc; stroke-linecap: round"/>
     </g>
    </g>
    <g id="ytick_10">
     <g id="line2d_23">
      <path d="M 184.571928 77.645385 
L 318.386563 77.645385 
" clip-path="url(#pd56dc1d070)" style="fill: none; stroke: #cccccc; stroke-linecap: round"/>
     </g>
    </g>
    <g id="ytick_11">
     <g id="line2d_24">
      <path d="M 184.571928 50.882458 
L 318.386563 50.882458 
" clip-path="url(#pd56dc1d070)" style="fill: none; stroke: #cccccc; stroke-linecap: round"/>
     </g>
    </g>
    <g id="ytick_12">
     <g id="line2d_25">
      <path d="M 184.571928 24.119531 
L 318.386563 24.119531 
" clip-path="url(#pd56dc1d070)" style="fill: none; stroke: #cccccc; stroke-linecap: round"/>
     </g>
    </g>
   </g>
   <g id="line2d_26">
    <path d="M 190.654412 142.334055 
L 192.298326 142.404083 
L 193.942241 142.890631 
L 195.586155 141.699607 
L 197.230069 138.645155 
L 198.873984 136.326515 
L 200.517898 133.869203 
L 202.161813 130.59797 
L 203.805727 126.864673 
L 205.449642 122.884522 
L 207.093556 118.685605 
L 208.73747 114.404038 
L 210.381385 110.239234 
L 212.025299 106.366758 
L 213.669214 102.925041 
L 215.313128 100.003768 
L 216.957043 97.633261 
L 218.600957 95.790128 
L 220.244871 94.413532 
L 221.888786 93.423894 
L 223.5327 92.738839 
L 225.176615 92.283675 
L 226.820529 91.99633 
L 228.464443 91.828275 
L 230.108358 91.743194 
L 231.752272 91.714753 
L 233.396187 91.72428 
L 235.040101 91.758751 
L 236.684016 91.809193 
L 238.32793 91.869484 
L 239.971844 91.935481 
L 241.615759 92.004407 
L 243.259673 92.074417 
L 244.903588 92.144301 
L 246.547502 92.213277 
L 248.191417 92.280856 
L 249.835331 92.346743 
L 251.479245 92.410771 
L 253.12316 92.472862 
L 254.767074 92.532993 
L 256.410989 92.591177 
L 258.054903 92.647452 
L 259.698818 92.701868 
L 261.342732 92.754484 
L 262.986646 92.805364 
L 264.630561 92.854572 
L 266.274475 92.902172 
L 267.91839 92.948228 
L 269.562304 92.992801 
L 271.206219 93.035951 
L 272.850133 93.077733 
L 274.494047 93.118203 
L 276.137962 93.157412 
L 277.781876 93.19541 
L 279.425791 93.232243 
L 281.069705 93.267957 
L 282.713619 93.302593 
L 284.357534 93.336193 
L 286.001448 93.368796 
L 287.645363 93.400437 
L 289.289277 93.431153 
L 290.933192 93.460977 
L 292.577106 93.48994 
L 294.22102 93.518074 
L 295.864935 93.545408 
L 297.508849 93.571969 
L 299.152764 93.597784 
L 300.796678 93.622879 
L 302.440593 93.647278 
L 304.084507 93.671004 
L 305.728421 93.69408 
L 307.372336 93.716528 
L 309.01625 93.738367 
L 310.660165 93.759618 
L 312.304079 93.7803 
" clip-path="url(#pd56dc1d070)" style="fill: none; stroke: #482475; stroke-width: 1.5; stroke-linecap: round"/>
   </g>
   <g id="line2d_27">
    <path d="M 190.654412 142.888717 
L 192.298326 142.956255 
L 193.942241 143.425504 
L 195.586155 142.067289 
L 197.230069 138.554483 
L 198.873984 135.677785 
L 200.517898 132.678519 
L 202.161813 128.788284 
L 203.805727 124.354613 
L 205.449642 119.634778 
L 207.093556 114.671795 
L 208.73747 109.619102 
L 210.381385 104.705835 
L 212.025299 100.136309 
L 213.669214 96.070809 
L 215.313128 92.612722 
L 216.957043 89.796934 
L 218.600957 87.596109 
L 220.244871 85.939441 
L 221.888786 84.734425 
L 223.5327 83.885344 
L 225.176615 83.305407 
L 226.820529 82.922468 
L 228.464443 82.680103 
L 230.108358 82.536061 
L 231.752272 82.459677 
L 233.396187 82.429182 
L 235.040101 82.429363 
L 236.684016 82.449716 
L 238.32793 82.483047 
L 239.971844 82.524467 
L 241.615759 82.570676 
L 243.259673 82.619459 
L 244.903588 82.669344 
L 246.547502 82.719361 
L 248.191417 82.768881 
L 249.835331 82.817506 
L 251.479245 82.864992 
L 253.12316 82.911197 
L 254.767074 82.956048 
L 256.410989 82.999519 
L 258.054903 83.041611 
L 259.698818 83.082346 
L 261.342732 83.121757 
L 262.986646 83.159881 
L 264.630561 83.196763 
L 266.274475 83.232447 
L 267.91839 83.266978 
L 269.562304 83.3004 
L 271.206219 83.332757 
L 272.850133 83.364091 
L 274.494047 83.394441 
L 276.137962 83.423846 
L 277.781876 83.452343 
L 279.425791 83.479967 
L 281.069705 83.506752 
L 282.713619 83.532729 
L 284.357534 83.557929 
L 286.001448 83.58238 
L 287.645363 83.606111 
L 289.289277 83.629148 
L 290.933192 83.651516 
L 292.577106 83.673238 
L 294.22102 83.694339 
L 295.864935 83.714839 
L 297.508849 83.73476 
L 299.152764 83.754121 
L 300.796678 83.772942 
L 302.440593 83.791242 
L 304.084507 83.809036 
L 305.728421 83.826344 
L 307.372336 83.843179 
L 309.01625 83.859559 
L 310.660165 83.875497 
L 312.304079 83.891008 
" clip-path="url(#pd56dc1d070)" style="fill: none; stroke: #355f8d; stroke-width: 1.5; stroke-linecap: round"/>
   </g>
   <g id="line2d_28">
    <path d="M 190.654412 143.443379 
L 192.298326 143.508427 
L 193.942241 143.960377 
L 195.586155 142.43497 
L 197.230069 138.46381 
L 198.873984 135.029054 
L 200.517898 131.487835 
L 202.161813 126.978598 
L 203.805727 121.844552 
L 205.449642 116.385035 
L 207.093556 110.657986 
L 208.73747 104.834167 
L 210.381385 99.172436 
L 212.025299 93.905861 
L 213.669214 89.216578 
L 215.313128 85.221676 
L 216.957043 81.960608 
L 218.600957 79.40209 
L 220.244871 77.465351 
L 221.888786 76.044955 
L 223.5327 75.031849 
L 225.176615 74.327138 
L 226.820529 73.848606 
L 228.464443 73.531931 
L 230.108358 73.328929 
L 231.752272 73.204602 
L 233.396187 73.134084 
L 235.040101 73.099975 
L 236.684016 73.090238 
L 238.32793 73.096609 
L 239.971844 73.113453 
L 241.615759 73.136945 
L 243.259673 73.164501 
L 244.903588 73.194387 
L 246.547502 73.225445 
L 248.191417 73.256906 
L 249.835331 73.28827 
L 251.479245 73.319213 
L 253.12316 73.349531 
L 254.767074 73.379103 
L 256.410989 73.407861 
L 258.054903 73.435771 
L 259.698818 73.462825 
L 261.342732 73.489029 
L 262.986646 73.514398 
L 264.630561 73.538954 
L 266.274475 73.562721 
L 267.91839 73.585727 
L 269.562304 73.607999 
L 271.206219 73.629563 
L 272.850133 73.650448 
L 274.494047 73.670678 
L 276.137962 73.690279 
L 277.781876 73.709276 
L 279.425791 73.727691 
L 281.069705 73.745547 
L 282.713619 73.762865 
L 284.357534 73.779664 
L 286.001448 73.795965 
L 287.645363 73.811785 
L 289.289277 73.827143 
L 290.933192 73.842055 
L 292.577106 73.856537 
L 294.22102 73.870604 
L 295.864935 73.88427 
L 297.508849 73.897551 
L 299.152764 73.910459 
L 300.796678 73.923006 
L 302.440593 73.935205 
L 304.084507 73.947069 
L 305.728421 73.958607 
L 307.372336 73.96983 
L 309.01625 73.98075 
L 310.660165 73.991376 
L 312.304079 74.001717 
" clip-path="url(#pd56dc1d070)" style="fill: none; stroke: #21918c; stroke-width: 1.5; stroke-linecap: round"/>
   </g>
   <g id="line2d_29">
    <path d="M 190.654412 143.99804 
L 192.298326 144.060599 
L 193.942241 144.495249 
L 195.586155 142.802651 
L 197.230069 138.373138 
L 198.873984 134.380324 
L 200.517898 130.297151 
L 202.161813 125.168912 
L 203.805727 119.334491 
L 205.449642 113.135292 
L 207.093556 106.644176 
L 208.73747 100.049232 
L 210.381385 93.639037 
L 212.025299 87.675413 
L 213.669214 82.362347 
L 215.313128 77.83063 
L 216.957043 74.124281 
L 218.600957 71.208071 
L 220.244871 68.99126 
L 221.888786 67.355486 
L 223.5327 66.178353 
L 225.176615 65.34887 
L 226.820529 64.774745 
L 228.464443 64.38376 
L 230.108358 64.121796 
L 231.752272 63.949527 
L 233.396187 63.838986 
L 235.040101 63.770587 
L 236.684016 63.73076 
L 238.32793 63.710172 
L 239.971844 63.702439 
L 241.615759 63.703214 
L 243.259673 63.709543 
L 244.903588 63.71943 
L 246.547502 63.731528 
L 248.191417 63.744931 
L 249.835331 63.759034 
L 251.479245 63.773433 
L 253.12316 63.787866 
L 254.767074 63.802158 
L 256.410989 63.816203 
L 258.054903 63.829931 
L 259.698818 63.843304 
L 261.342732 63.856301 
L 262.986646 63.868915 
L 264.630561 63.881145 
L 266.274475 63.892996 
L 267.91839 63.904477 
L 269.562304 63.915598 
L 271.206219 63.92637 
L 272.850133 63.936805 
L 274.494047 63.946915 
L 276.137962 63.956713 
L 277.781876 63.966209 
L 279.425791 63.975415 
L 281.069705 63.984342 
L 282.713619 63.993 
L 284.357534 64.0014 
L 286.001448 64.00955 
L 287.645363 64.01746 
L 289.289277 64.025138 
L 290.933192 64.032594 
L 292.577106 64.039835 
L 294.22102 64.046868 
L 295.864935 64.053702 
L 297.508849 64.060342 
L 299.152764 64.066796 
L 300.796678 64.07307 
L 302.440593 64.079169 
L 304.084507 64.085101 
L 305.728421 64.09087 
L 307.372336 64.096482 
L 309.01625 64.101942 
L 310.660165 64.107254 
L 312.304079 64.112425 
" clip-path="url(#pd56dc1d070)" style="fill: none; stroke: #44bf70; stroke-width: 1.5; stroke-linecap: round"/>
   </g>
   <g id="line2d_30">
    <path d="M 190.654412 144.552702 
L 192.298326 144.612771 
L 193.942241 145.030122 
L 195.586155 143.170332 
L 197.230069 138.282465 
L 198.873984 133.731593 
L 200.517898 129.106467 
L 202.161813 123.359225 
L 203.805727 116.82443 
L 205.449642 109.885548 
L 207.093556 102.630366 
L 208.73747 95.264296 
L 210.381385 88.105638 
L 212.025299 81.444965 
L 213.669214 75.508116 
L 215.313128 70.439584 
L 216.957043 66.287955 
L 218.600957 63.014052 
L 220.244871 60.51717 
L 221.888786 58.666016 
L 223.5327 57.324858 
L 225.176615 56.370602 
L 226.820529 55.700883 
L 228.464443 55.235588 
L 230.108358 54.914664 
L 231.752272 54.694451 
L 233.396187 54.543887 
L 235.040101 54.441199 
L 236.684016 54.371283 
L 238.32793 54.323735 
L 239.971844 54.291425 
L 241.615759 54.269482 
L 243.259673 54.254585 
L 244.903588 54.244474 
L 246.547502 54.237612 
L 248.191417 54.232956 
L 249.835331 54.229797 
L 251.479245 54.227654 
L 253.12316 54.2262 
L 254.767074 54.225214 
L 256.410989 54.224544 
L 258.054903 54.224091 
L 259.698818 54.223783 
L 261.342732 54.223574 
L 262.986646 54.223432 
L 264.630561 54.223336 
L 266.274475 54.223271 
L 267.91839 54.223226 
L 269.562304 54.223196 
L 271.206219 54.223176 
L 272.850133 54.223162 
L 274.494047 54.223153 
L 276.137962 54.223146 
L 277.781876 54.223142 
L 279.425791 54.223139 
L 281.069705 54.223137 
L 282.713619 54.223136 
L 284.357534 54.223135 
L 286.001448 54.223134 
L 287.645363 54.223134 
L 289.289277 54.223134 
L 290.933192 54.223133 
L 292.577106 54.223133 
L 294.22102 54.223133 
L 295.864935 54.223133 
L 297.508849 54.223133 
L 299.152764 54.223133 
L 300.796678 54.223133 
L 302.440593 54.223133 
L 304.084507 54.223133 
L 305.728421 54.223133 
L 307.372336 54.223133 
L 309.01625 54.223133 
L 310.660165 54.223133 
L 312.304079 54.223133 
" clip-path="url(#pd56dc1d070)" style="fill: none; stroke: #bddf26; stroke-width: 1.5; stroke-linecap: round"/>
   </g>
   <g id="patch_8">
    <path d="M 184.571928 157.934165 
L 184.571928 24.119531 
" style="fill: none; stroke: #cccccc; stroke-linejoin: miter; stroke-linecap: square"/>
   </g>
   <g id="patch_9">
    <path d="M 318.386563 157.934165 
L 318.386563 24.119531 
" style="fill: none; stroke: #cccccc; stroke-linejoin: miter; stroke-linecap: square"/>
   </g>
   <g id="patch_10">
    <path d="M 184.571928 157.934165 
L 318.386563 157.934165 
" style="fill: none; stroke: #cccccc; stroke-linejoin: miter; stroke-linecap: square"/>
   </g>
   <g id="patch_11">
    <path d="M 184.571928 24.119531 
L 318.386563 24.119531 
" style="fill: none; stroke: #cccccc; stroke-linejoin: miter; stroke-linecap: square"/>
   </g>
   <g id="text_19">
    <!-- Peoria -->
    <g style="fill: #262626" transform="translate(229.80073 18.119531)scale(0.15 -0.15)">
     <use xlink:href="#ArialMT-50"/>
     <use xlink:href="#ArialMT-65" x="66.699219"/>
     <use xlink:href="#ArialMT-6f" x="122.314453"/>
     <use xlink:href="#ArialMT-72" x="177.929688"/>
     <use xlink:href="#ArialMT-69" x="211.230469"/>
     <use xlink:href="#ArialMT-61" x="233.447266"/>
    </g>
   </g>
  </g>
  <g id="legend_1">
   <g id="patch_12">
    <path d="M 333.636562 147.063098 
L 416.066562 147.063098 
Q 418.266562 147.063098 418.266562 144.863098 
L 418.266562 51.54888 
Q 418.266562 49.34888 416.066562 49.34888 
L 333.636562 49.34888 
Q 331.436562 49.34888 331.436562 51.54888 
L 331.436562 144.863098 
Q 331.436562 147.063098 333.636562 147.063098 
z
" style="fill: #ffffff; opacity: 0.8; stroke: #cccccc; stroke-linejoin: miter"/>
   </g>
   <g id="text_20">
    <!-- Migration Rate -->
    <g style="fill: #262626" transform="translate(335.836562 62.338255)scale(0.12 -0.12)">
     <defs>
      <path id="ArialMT-4d" d="M 475 0 
L 475 4581 
L 1388 4581 
L 2472 1338 
Q 2622 884 2691 659 
Q 2769 909 2934 1394 
L 4031 4581 
L 4847 4581 
L 4847 0 
L 4263 0 
L 4263 3834 
L 2931 0 
L 2384 0 
L 1059 3900 
L 1059 0 
L 475 0 
z
" transform="scale(0.015625)"/>
      <path id="ArialMT-52" d="M 503 0 
L 503 4581 
L 2534 4581 
Q 3147 4581 3465 4457 
Q 3784 4334 3975 4021 
Q 4166 3709 4166 3331 
Q 4166 2844 3850 2509 
Q 3534 2175 2875 2084 
Q 3116 1969 3241 1856 
Q 3506 1613 3744 1247 
L 4541 0 
L 3778 0 
L 3172 953 
Q 2906 1366 2734 1584 
Q 2563 1803 2427 1890 
Q 2291 1978 2150 2013 
Q 2047 2034 1813 2034 
L 1109 2034 
L 1109 0 
L 503 0 
z
M 1109 2559 
L 2413 2559 
Q 2828 2559 3062 2645 
Q 3297 2731 3419 2920 
Q 3541 3109 3541 3331 
Q 3541 3656 3305 3865 
Q 3069 4075 2559 4075 
L 1109 4075 
L 1109 2559 
z
" transform="scale(0.015625)"/>
     </defs>
     <use xlink:href="#ArialMT-4d"/>
     <use xlink:href="#ArialMT-69" x="83.300781"/>
     <use xlink:href="#ArialMT-67" x="105.517578"/>
     <use xlink:href="#ArialMT-72" x="161.132812"/>
     <use xlink:href="#ArialMT-61" x="194.433594"/>
     <use xlink:href="#ArialMT-74" x="250.048828"/>
     <use xlink:href="#ArialMT-69" x="277.832031"/>
     <use xlink:href="#ArialMT-6f" x="300.048828"/>
     <use xlink:href="#ArialMT-6e" x="355.664062"/>
     <use xlink:href="#ArialMT-20" x="411.279297"/>
     <use xlink:href="#ArialMT-52" x="439.0625"/>
     <use xlink:href="#ArialMT-61" x="511.279297"/>
     <use xlink:href="#ArialMT-74" x="566.894531"/>
     <use xlink:href="#ArialMT-65" x="594.677734"/>
    </g>
   </g>
   <g id="line2d_31">
    <path d="M 345.385312 74.387473 
L 356.385312 74.387473 
L 367.385312 74.387473 
" style="fill: none; stroke: #482475; stroke-width: 1.5; stroke-linecap: round"/>
   </g>
   <g id="text_21">
    <!-- 100% -->
    <g style="fill: #262626" transform="translate(376.185312 78.237473)scale(0.11 -0.11)">
     <defs>
      <path id="ArialMT-25" d="M 372 3481 
Q 372 3972 619 4315 
Q 866 4659 1334 4659 
Q 1766 4659 2048 4351 
Q 2331 4044 2331 3447 
Q 2331 2866 2045 2552 
Q 1759 2238 1341 2238 
Q 925 2238 648 2547 
Q 372 2856 372 3481 
z
M 1350 4272 
Q 1141 4272 1002 4090 
Q 863 3909 863 3425 
Q 863 2984 1003 2804 
Q 1144 2625 1350 2625 
Q 1563 2625 1702 2806 
Q 1841 2988 1841 3469 
Q 1841 3913 1700 4092 
Q 1559 4272 1350 4272 
z
M 1353 -169 
L 3859 4659 
L 4316 4659 
L 1819 -169 
L 1353 -169 
z
M 3334 1075 
Q 3334 1569 3581 1911 
Q 3828 2253 4300 2253 
Q 4731 2253 5014 1945 
Q 5297 1638 5297 1041 
Q 5297 459 5011 145 
Q 4725 -169 4303 -169 
Q 3888 -169 3611 142 
Q 3334 453 3334 1075 
z
M 4316 1866 
Q 4103 1866 3964 1684 
Q 3825 1503 3825 1019 
Q 3825 581 3965 400 
Q 4106 219 4313 219 
Q 4528 219 4667 400 
Q 4806 581 4806 1063 
Q 4806 1506 4665 1686 
Q 4525 1866 4316 1866 
z
" transform="scale(0.015625)"/>
     </defs>
     <use xlink:href="#ArialMT-31"/>
     <use xlink:href="#ArialMT-30" x="55.615234"/>
     <use xlink:href="#ArialMT-30" x="111.230469"/>
     <use xlink:href="#ArialMT-25" x="166.845703"/>
    </g>
   </g>
   <g id="line2d_32">
    <path d="M 345.385312 89.947317 
L 356.385312 89.947317 
L 367.385312 89.947317 
" style="fill: none; stroke: #355f8d; stroke-width: 1.5; stroke-linecap: round"/>
   </g>
   <g id="text_22">
    <!-- 75% -->
    <g style="fill: #262626" transform="translate(376.185312 93.797317)scale(0.11 -0.11)">
     <use xlink:href="#ArialMT-37"/>
     <use xlink:href="#ArialMT-35" x="55.615234"/>
     <use xlink:href="#ArialMT-25" x="111.230469"/>
    </g>
   </g>
   <g id="line2d_33">
    <path d="M 345.385312 105.507161 
L 356.385312 105.507161 
L 367.385312 105.507161 
" style="fill: none; stroke: #21918c; stroke-width: 1.5; stroke-linecap: round"/>
   </g>
   <g id="text_23">
    <!-- 50% -->
    <g style="fill: #262626" transform="translate(376.185312 109.357161)scale(0.11 -0.11)">
     <use xlink:href="#ArialMT-35"/>
     <use xlink:href="#ArialMT-30" x="55.615234"/>
     <use xlink:href="#ArialMT-25" x="111.230469"/>
    </g>
   </g>
   <g id="line2d_34">
    <path d="M 345.385312 121.067005 
L 356.385312 121.067005 
L 367.385312 121.067005 
" style="fill: none; stroke: #44bf70; stroke-width: 1.5; stroke-linecap: round"/>
   </g>
   <g id="text_24">
    <!-- 25% -->
    <g style="fill: #262626" transform="translate(376.185312 124.917005)scale(0.11 -0.11)">
     <use xlink:href="#ArialMT-32"/>
     <use xlink:href="#ArialMT-35" x="55.615234"/>
     <use xlink:href="#ArialMT-25" x="111.230469"/>
    </g>
   </g>
   <g id="line2d_35">
    <path d="M 345.385312 136.626848 
L 356.385312 136.626848 
L 367.385312 136.626848 
" style="fill: none; stroke: #bddf26; stroke-width: 1.5; stroke-linecap: round"/>
   </g>
   <g id="text_25">
    <!-- 0% -->
    <g style="fill: #262626" transform="translate(376.185312 140.476848)scale(0.11 -0.11)">
     <use xlink:href="#ArialMT-30"/>
     <use xlink:href="#ArialMT-25" x="55.615234"/>
    </g>
   </g>
  </g>
 </g>
 <defs>
  <clipPath id="p27f2fcea8b">
   <rect x="44.066563" y="24.119531" width="133.814634" height="133.814634"/>
  </clipPath>
  <clipPath id="pd56dc1d070">
   <rect x="184.571928" y="24.119531" width="133.814634" height="133.814634"/>
  </clipPath>
 </defs>
</svg>
