<?xml version="1.0" encoding="utf-8" standalone="no"?>
<!DOCTYPE svg PUBLIC "-//W3C//DTD SVG 1.1//EN"
  "http://www.w3.org/Graphics/SVG/1.1/DTD/svg11.dtd">
<svg xmlns:xlink="http://www.w3.org/1999/xlink" width="430.814687pt" height="204.841246pt" viewBox="0 0 430.814687 204.841246" xmlns="http://www.w3.org/2000/svg" version="1.1">
 <metadata>
  <rdf:RDF xmlns:dc="http://purl.org/dc/elements/1.1/" xmlns:cc="http://creativecommons.org/ns#" xmlns:rdf="http://www.w3.org/1999/02/22-rdf-syntax-ns#">
   <cc:Work>
    <dc:type rdf:resource="http://purl.org/dc/dcmitype/StillImage"/>
    <dc:date>2022-10-12T15:02:25.676345</dc:date>
    <dc:format>image/svg+xml</dc:format>
    <dc:creator>
     <cc:Agent>
      <dc:title>Matplotlib v3.5.1, https://matplotlib.org/</dc:title>
     </cc:Agent>
    </dc:creator>
   </cc:Work>
  </rdf:RDF>
 </metadata>
 <defs>
  <style type="text/css">*{stroke-linejoin: round; stroke-linecap: butt}</style>
 </defs>
 <g id="figure_1">
  <g id="patch_1">
   <path d="M 0 204.841246 
L 430.814687 204.841246 
L 430.814687 0 
L 0 0 
z
" style="fill: #ffffff"/>
  </g>
  <g id="axes_1">
   <g id="patch_2">
    <path d="M 51.114688 166.363434 
L 193.35859 166.363434 
L 193.35859 24.119531 
L 51.114688 24.119531 
z
" style="fill: #ffffff"/>
   </g>
   <g id="matplotlib.axis_1">
    <g id="xtick_1">
     <g id="line2d_1">
      <path d="M 57.580319 166.363434 
L 57.580319 24.119531 
" clip-path="url(#p3b226b3373)" style="fill: none; stroke: #cccccc; stroke-linecap: round"/>
     </g>
     <g id="text_1">
      <!-- 0 -->
      <g style="fill: #262626" transform="translate(54.521804 177.737027)scale(0.11 -0.11)">
       <defs>
        <path id="ArialMT-30" d="M 266 2259 
Q 266 3072 433 3567 
Q 600 4063 929 4331 
Q 1259 4600 1759 4600 
Q 2128 4600 2406 4451 
Q 2684 4303 2865 4023 
Q 3047 3744 3150 3342 
Q 3253 2941 3253 2259 
Q 3253 1453 3087 958 
Q 2922 463 2592 192 
Q 2263 -78 1759 -78 
Q 1097 -78 719 397 
Q 266 969 266 2259 
z
M 844 2259 
Q 844 1131 1108 757 
Q 1372 384 1759 384 
Q 2147 384 2411 759 
Q 2675 1134 2675 2259 
Q 2675 3391 2411 3762 
Q 2147 4134 1753 4134 
Q 1366 4134 1134 3806 
Q 844 3388 844 2259 
z
" transform="scale(0.015625)"/>
       </defs>
       <use xlink:href="#ArialMT-30"/>
      </g>
     </g>
    </g>
    <g id="xtick_2">
     <g id="line2d_2">
      <path d="M 101.86547 166.363434 
L 101.86547 24.119531 
" clip-path="url(#p3b226b3373)" style="fill: none; stroke: #cccccc; stroke-linecap: round"/>
     </g>
     <g id="text_2">
      <!-- 25 -->
      <g style="fill: #262626" transform="translate(95.748438 177.737027)scale(0.11 -0.11)">
       <defs>
        <path id="ArialMT-32" d="M 3222 541 
L 3222 0 
L 194 0 
Q 188 203 259 391 
Q 375 700 629 1000 
Q 884 1300 1366 1694 
Q 2113 2306 2375 2664 
Q 2638 3022 2638 3341 
Q 2638 3675 2398 3904 
Q 2159 4134 1775 4134 
Q 1369 4134 1125 3890 
Q 881 3647 878 3216 
L 300 3275 
Q 359 3922 746 4261 
Q 1134 4600 1788 4600 
Q 2447 4600 2831 4234 
Q 3216 3869 3216 3328 
Q 3216 3053 3103 2787 
Q 2991 2522 2730 2228 
Q 2469 1934 1863 1422 
Q 1356 997 1212 845 
Q 1069 694 975 541 
L 3222 541 
z
" transform="scale(0.015625)"/>
        <path id="ArialMT-35" d="M 266 1200 
L 856 1250 
Q 922 819 1161 601 
Q 1400 384 1738 384 
Q 2144 384 2425 690 
Q 2706 997 2706 1503 
Q 2706 1984 2436 2262 
Q 2166 2541 1728 2541 
Q 1456 2541 1237 2417 
Q 1019 2294 894 2097 
L 366 2166 
L 809 4519 
L 3088 4519 
L 3088 3981 
L 1259 3981 
L 1013 2750 
Q 1425 3038 1878 3038 
Q 2478 3038 2890 2622 
Q 3303 2206 3303 1553 
Q 3303 931 2941 478 
Q 2500 -78 1738 -78 
Q 1113 -78 717 272 
Q 322 622 266 1200 
z
" transform="scale(0.015625)"/>
       </defs>
       <use xlink:href="#ArialMT-32"/>
       <use xlink:href="#ArialMT-35" x="55.615234"/>
      </g>
     </g>
    </g>
    <g id="xtick_3">
     <g id="line2d_3">
      <path d="M 146.15062 166.363434 
L 146.15062 24.119531 
" clip-path="url(#p3b226b3373)" style="fill: none; stroke: #cccccc; stroke-linecap: round"/>
     </g>
     <g id="text_3">
      <!-- 50 -->
      <g style="fill: #262626" transform="translate(140.033589 177.737027)scale(0.11 -0.11)">
       <use xlink:href="#ArialMT-35"/>
       <use xlink:href="#ArialMT-30" x="55.615234"/>
      </g>
     </g>
    </g>
    <g id="xtick_4">
     <g id="line2d_4">
      <path d="M 190.43577 166.363434 
L 190.43577 24.119531 
" clip-path="url(#p3b226b3373)" style="fill: none; stroke: #cccccc; stroke-linecap: round"/>
     </g>
     <g id="text_4">
      <!-- 75 -->
      <g style="fill: #262626" transform="translate(184.318739 177.737027)scale(0.11 -0.11)">
       <defs>
        <path id="ArialMT-37" d="M 303 3981 
L 303 4522 
L 3269 4522 
L 3269 4084 
Q 2831 3619 2401 2847 
Q 1972 2075 1738 1259 
Q 1569 684 1522 0 
L 944 0 
Q 953 541 1156 1306 
Q 1359 2072 1739 2783 
Q 2119 3494 2547 3981 
L 303 3981 
z
" transform="scale(0.015625)"/>
       </defs>
       <use xlink:href="#ArialMT-37"/>
       <use xlink:href="#ArialMT-35" x="55.615234"/>
      </g>
     </g>
    </g>
    <g id="text_5">
     <!-- Years -->
     <g style="fill: #262626" transform="translate(103.329607 194.659996)scale(0.15 -0.15)">
      <defs>
       <path id="ArialMT-59" d="M 1784 0 
L 1784 1941 
L 19 4581 
L 756 4581 
L 1659 3200 
Q 1909 2813 2125 2425 
Q 2331 2784 2625 3234 
L 3513 4581 
L 4219 4581 
L 2391 1941 
L 2391 0 
L 1784 0 
z
" transform="scale(0.015625)"/>
       <path id="ArialMT-65" d="M 2694 1069 
L 3275 997 
Q 3138 488 2766 206 
Q 2394 -75 1816 -75 
Q 1088 -75 661 373 
Q 234 822 234 1631 
Q 234 2469 665 2931 
Q 1097 3394 1784 3394 
Q 2450 3394 2872 2941 
Q 3294 2488 3294 1666 
Q 3294 1616 3291 1516 
L 816 1516 
Q 847 969 1125 678 
Q 1403 388 1819 388 
Q 2128 388 2347 550 
Q 2566 713 2694 1069 
z
M 847 1978 
L 2700 1978 
Q 2663 2397 2488 2606 
Q 2219 2931 1791 2931 
Q 1403 2931 1139 2672 
Q 875 2413 847 1978 
z
" transform="scale(0.015625)"/>
       <path id="ArialMT-61" d="M 2588 409 
Q 2275 144 1986 34 
Q 1697 -75 1366 -75 
Q 819 -75 525 192 
Q 231 459 231 875 
Q 231 1119 342 1320 
Q 453 1522 633 1644 
Q 813 1766 1038 1828 
Q 1203 1872 1538 1913 
Q 2219 1994 2541 2106 
Q 2544 2222 2544 2253 
Q 2544 2597 2384 2738 
Q 2169 2928 1744 2928 
Q 1347 2928 1158 2789 
Q 969 2650 878 2297 
L 328 2372 
Q 403 2725 575 2942 
Q 747 3159 1072 3276 
Q 1397 3394 1825 3394 
Q 2250 3394 2515 3294 
Q 2781 3194 2906 3042 
Q 3031 2891 3081 2659 
Q 3109 2516 3109 2141 
L 3109 1391 
Q 3109 606 3145 398 
Q 3181 191 3288 0 
L 2700 0 
Q 2613 175 2588 409 
z
M 2541 1666 
Q 2234 1541 1622 1453 
Q 1275 1403 1131 1340 
Q 988 1278 909 1158 
Q 831 1038 831 891 
Q 831 666 1001 516 
Q 1172 366 1500 366 
Q 1825 366 2078 508 
Q 2331 650 2450 897 
Q 2541 1088 2541 1459 
L 2541 1666 
z
" transform="scale(0.015625)"/>
       <path id="ArialMT-72" d="M 416 0 
L 416 3319 
L 922 3319 
L 922 2816 
Q 1116 3169 1280 3281 
Q 1444 3394 1641 3394 
Q 1925 3394 2219 3213 
L 2025 2691 
Q 1819 2813 1613 2813 
Q 1428 2813 1281 2702 
Q 1134 2591 1072 2394 
Q 978 2094 978 1738 
L 978 0 
L 416 0 
z
" transform="scale(0.015625)"/>
       <path id="ArialMT-73" d="M 197 991 
L 753 1078 
Q 800 744 1014 566 
Q 1228 388 1613 388 
Q 2000 388 2187 545 
Q 2375 703 2375 916 
Q 2375 1106 2209 1216 
Q 2094 1291 1634 1406 
Q 1016 1563 777 1677 
Q 538 1791 414 1992 
Q 291 2194 291 2438 
Q 291 2659 392 2848 
Q 494 3038 669 3163 
Q 800 3259 1026 3326 
Q 1253 3394 1513 3394 
Q 1903 3394 2198 3281 
Q 2494 3169 2634 2976 
Q 2775 2784 2828 2463 
L 2278 2388 
Q 2241 2644 2061 2787 
Q 1881 2931 1553 2931 
Q 1166 2931 1000 2803 
Q 834 2675 834 2503 
Q 834 2394 903 2306 
Q 972 2216 1119 2156 
Q 1203 2125 1616 2013 
Q 2213 1853 2448 1751 
Q 2684 1650 2818 1456 
Q 2953 1263 2953 975 
Q 2953 694 2789 445 
Q 2625 197 2315 61 
Q 2006 -75 1616 -75 
Q 969 -75 630 194 
Q 291 463 197 991 
z
" transform="scale(0.015625)"/>
      </defs>
      <use xlink:href="#ArialMT-59"/>
      <use xlink:href="#ArialMT-65" x="57.574219"/>
      <use xlink:href="#ArialMT-61" x="113.189453"/>
      <use xlink:href="#ArialMT-72" x="168.804688"/>
      <use xlink:href="#ArialMT-73" x="202.105469"/>
     </g>
    </g>
   </g>
   <g id="matplotlib.axis_2">
    <g id="ytick_1">
     <g id="line2d_5">
      <path d="M 51.114688 158.298129 
L 193.35859 158.298129 
" clip-path="url(#p3b226b3373)" style="fill: none; stroke: #cccccc; stroke-linecap: round"/>
     </g>
     <g id="text_6">
      <!-- −1.5 -->
      <g style="fill: #262626" transform="translate(25.9 162.234926)scale(0.11 -0.11)">
       <defs>
        <path id="ArialMT-2212" d="M 3381 1997 
L 356 1997 
L 356 2522 
L 3381 2522 
L 3381 1997 
z
" transform="scale(0.015625)"/>
        <path id="ArialMT-31" d="M 2384 0 
L 1822 0 
L 1822 3584 
Q 1619 3391 1289 3197 
Q 959 3003 697 2906 
L 697 3450 
Q 1169 3672 1522 3987 
Q 1875 4303 2022 4600 
L 2384 4600 
L 2384 0 
z
" transform="scale(0.015625)"/>
        <path id="ArialMT-2e" d="M 581 0 
L 581 641 
L 1222 641 
L 1222 0 
L 581 0 
z
" transform="scale(0.015625)"/>
       </defs>
       <use xlink:href="#ArialMT-2212"/>
       <use xlink:href="#ArialMT-31" x="58.398438"/>
       <use xlink:href="#ArialMT-2e" x="114.013672"/>
       <use xlink:href="#ArialMT-35" x="141.796875"/>
      </g>
     </g>
    </g>
    <g id="ytick_2">
     <g id="line2d_6">
      <path d="M 51.114688 134.391883 
L 193.35859 134.391883 
" clip-path="url(#p3b226b3373)" style="fill: none; stroke: #cccccc; stroke-linecap: round"/>
     </g>
     <g id="text_7">
      <!-- −1.0 -->
      <g style="fill: #262626" transform="translate(25.9 138.32868)scale(0.11 -0.11)">
       <use xlink:href="#ArialMT-2212"/>
       <use xlink:href="#ArialMT-31" x="58.398438"/>
       <use xlink:href="#ArialMT-2e" x="114.013672"/>
       <use xlink:href="#ArialMT-30" x="141.796875"/>
      </g>
     </g>
    </g>
    <g id="ytick_3">
     <g id="line2d_7">
      <path d="M 51.114688 110.485638 
L 193.35859 110.485638 
" clip-path="url(#p3b226b3373)" style="fill: none; stroke: #cccccc; stroke-linecap: round"/>
     </g>
     <g id="text_8">
      <!-- −0.5 -->
      <g style="fill: #262626" transform="translate(25.9 114.422434)scale(0.11 -0.11)">
       <use xlink:href="#ArialMT-2212"/>
       <use xlink:href="#ArialMT-30" x="58.398438"/>
       <use xlink:href="#ArialMT-2e" x="114.013672"/>
       <use xlink:href="#ArialMT-35" x="141.796875"/>
      </g>
     </g>
    </g>
    <g id="ytick_4">
     <g id="line2d_8">
      <path d="M 51.114688 86.579392 
L 193.35859 86.579392 
" clip-path="url(#p3b226b3373)" style="fill: none; stroke: #cccccc; stroke-linecap: round"/>
     </g>
     <g id="text_9">
      <!-- 0.0 -->
      <g style="fill: #262626" transform="translate(32.324688 90.516189)scale(0.11 -0.11)">
       <use xlink:href="#ArialMT-30"/>
       <use xlink:href="#ArialMT-2e" x="55.615234"/>
       <use xlink:href="#ArialMT-30" x="83.398438"/>
      </g>
     </g>
    </g>
    <g id="ytick_5">
     <g id="line2d_9">
      <path d="M 51.114688 62.673146 
L 193.35859 62.673146 
" clip-path="url(#p3b226b3373)" style="fill: none; stroke: #cccccc; stroke-linecap: round"/>
     </g>
     <g id="text_10">
      <!-- 0.5 -->
      <g style="fill: #262626" transform="translate(32.324688 66.609943)scale(0.11 -0.11)">
       <use xlink:href="#ArialMT-30"/>
       <use xlink:href="#ArialMT-2e" x="55.615234"/>
       <use xlink:href="#ArialMT-35" x="83.398438"/>
      </g>
     </g>
    </g>
    <g id="ytick_6">
     <g id="line2d_10">
      <path d="M 51.114688 38.7669 
L 193.35859 38.7669 
" clip-path="url(#p3b226b3373)" style="fill: none; stroke: #cccccc; stroke-linecap: round"/>
     </g>
     <g id="text_11">
      <!-- 1.0 -->
      <g style="fill: #262626" transform="translate(32.324688 42.703697)scale(0.11 -0.11)">
       <use xlink:href="#ArialMT-31"/>
       <use xlink:href="#ArialMT-2e" x="55.615234"/>
       <use xlink:href="#ArialMT-30" x="83.398438"/>
      </g>
     </g>
    </g>
    <g id="text_12">
     <!-- Sensitivity of $\lambda$ -->
     <g style="fill: #262626" transform="translate(18.6 143.916482)rotate(-90)scale(0.15 -0.15)">
      <defs>
       <path id="ArialMT-53" d="M 288 1472 
L 859 1522 
Q 900 1178 1048 958 
Q 1197 738 1509 602 
Q 1822 466 2213 466 
Q 2559 466 2825 569 
Q 3091 672 3220 851 
Q 3350 1031 3350 1244 
Q 3350 1459 3225 1620 
Q 3100 1781 2813 1891 
Q 2628 1963 1997 2114 
Q 1366 2266 1113 2400 
Q 784 2572 623 2826 
Q 463 3081 463 3397 
Q 463 3744 659 4045 
Q 856 4347 1234 4503 
Q 1613 4659 2075 4659 
Q 2584 4659 2973 4495 
Q 3363 4331 3572 4012 
Q 3781 3694 3797 3291 
L 3216 3247 
Q 3169 3681 2898 3903 
Q 2628 4125 2100 4125 
Q 1550 4125 1298 3923 
Q 1047 3722 1047 3438 
Q 1047 3191 1225 3031 
Q 1400 2872 2139 2705 
Q 2878 2538 3153 2413 
Q 3553 2228 3743 1945 
Q 3934 1663 3934 1294 
Q 3934 928 3725 604 
Q 3516 281 3123 101 
Q 2731 -78 2241 -78 
Q 1619 -78 1198 103 
Q 778 284 539 648 
Q 300 1013 288 1472 
z
" transform="scale(0.015625)"/>
       <path id="ArialMT-6e" d="M 422 0 
L 422 3319 
L 928 3319 
L 928 2847 
Q 1294 3394 1984 3394 
Q 2284 3394 2536 3286 
Q 2788 3178 2913 3003 
Q 3038 2828 3088 2588 
Q 3119 2431 3119 2041 
L 3119 0 
L 2556 0 
L 2556 2019 
Q 2556 2363 2490 2533 
Q 2425 2703 2258 2804 
Q 2091 2906 1866 2906 
Q 1506 2906 1245 2678 
Q 984 2450 984 1813 
L 984 0 
L 422 0 
z
" transform="scale(0.015625)"/>
       <path id="ArialMT-69" d="M 425 3934 
L 425 4581 
L 988 4581 
L 988 3934 
L 425 3934 
z
M 425 0 
L 425 3319 
L 988 3319 
L 988 0 
L 425 0 
z
" transform="scale(0.015625)"/>
       <path id="ArialMT-74" d="M 1650 503 
L 1731 6 
Q 1494 -44 1306 -44 
Q 1000 -44 831 53 
Q 663 150 594 308 
Q 525 466 525 972 
L 525 2881 
L 113 2881 
L 113 3319 
L 525 3319 
L 525 4141 
L 1084 4478 
L 1084 3319 
L 1650 3319 
L 1650 2881 
L 1084 2881 
L 1084 941 
Q 1084 700 1114 631 
Q 1144 563 1211 522 
Q 1278 481 1403 481 
Q 1497 481 1650 503 
z
" transform="scale(0.015625)"/>
       <path id="ArialMT-76" d="M 1344 0 
L 81 3319 
L 675 3319 
L 1388 1331 
Q 1503 1009 1600 663 
Q 1675 925 1809 1294 
L 2547 3319 
L 3125 3319 
L 1869 0 
L 1344 0 
z
" transform="scale(0.015625)"/>
       <path id="ArialMT-79" d="M 397 -1278 
L 334 -750 
Q 519 -800 656 -800 
Q 844 -800 956 -737 
Q 1069 -675 1141 -563 
Q 1194 -478 1313 -144 
Q 1328 -97 1363 -6 
L 103 3319 
L 709 3319 
L 1400 1397 
Q 1534 1031 1641 628 
Q 1738 1016 1872 1384 
L 2581 3319 
L 3144 3319 
L 1881 -56 
Q 1678 -603 1566 -809 
Q 1416 -1088 1222 -1217 
Q 1028 -1347 759 -1347 
Q 597 -1347 397 -1278 
z
" transform="scale(0.015625)"/>
       <path id="ArialMT-20" transform="scale(0.015625)"/>
       <path id="ArialMT-6f" d="M 213 1659 
Q 213 2581 725 3025 
Q 1153 3394 1769 3394 
Q 2453 3394 2887 2945 
Q 3322 2497 3322 1706 
Q 3322 1066 3130 698 
Q 2938 331 2570 128 
Q 2203 -75 1769 -75 
Q 1072 -75 642 372 
Q 213 819 213 1659 
z
M 791 1659 
Q 791 1022 1069 705 
Q 1347 388 1769 388 
Q 2188 388 2466 706 
Q 2744 1025 2744 1678 
Q 2744 2294 2464 2611 
Q 2184 2928 1769 2928 
Q 1347 2928 1069 2612 
Q 791 2297 791 1659 
z
" transform="scale(0.015625)"/>
       <path id="ArialMT-66" d="M 556 0 
L 556 2881 
L 59 2881 
L 59 3319 
L 556 3319 
L 556 3672 
Q 556 4006 616 4169 
Q 697 4388 901 4523 
Q 1106 4659 1475 4659 
Q 1713 4659 2000 4603 
L 1916 4113 
Q 1741 4144 1584 4144 
Q 1328 4144 1222 4034 
Q 1116 3925 1116 3625 
L 1116 3319 
L 1763 3319 
L 1763 2881 
L 1116 2881 
L 1116 0 
L 556 0 
z
" transform="scale(0.015625)"/>
       <path id="DejaVuSans-Oblique-3bb" d="M 2350 4316 
L 3125 0 
L 2516 0 
L 2038 2588 
L 328 0 
L -281 0 
L 1903 3356 
L 1794 3975 
Q 1725 4369 1391 4369 
L 1091 4369 
L 1184 4863 
L 1550 4856 
Q 2253 4847 2350 4316 
z
" transform="scale(0.015625)"/>
      </defs>
      <use xlink:href="#ArialMT-53" transform="translate(0 0.015625)"/>
      <use xlink:href="#ArialMT-65" transform="translate(66.699219 0.015625)"/>
      <use xlink:href="#ArialMT-6e" transform="translate(122.314453 0.015625)"/>
      <use xlink:href="#ArialMT-73" transform="translate(177.929688 0.015625)"/>
      <use xlink:href="#ArialMT-69" transform="translate(227.929688 0.015625)"/>
      <use xlink:href="#ArialMT-74" transform="translate(250.146484 0.015625)"/>
      <use xlink:href="#ArialMT-69" transform="translate(277.929688 0.015625)"/>
      <use xlink:href="#ArialMT-76" transform="translate(300.146484 0.015625)"/>
      <use xlink:href="#ArialMT-69" transform="translate(350.146484 0.015625)"/>
      <use xlink:href="#ArialMT-74" transform="translate(372.363281 0.015625)"/>
      <use xlink:href="#ArialMT-79" transform="translate(400.146484 0.015625)"/>
      <use xlink:href="#ArialMT-20" transform="translate(450.146484 0.015625)"/>
      <use xlink:href="#ArialMT-6f" transform="translate(477.929688 0.015625)"/>
      <use xlink:href="#ArialMT-66" transform="translate(533.544922 0.015625)"/>
      <use xlink:href="#ArialMT-20" transform="translate(561.328125 0.015625)"/>
      <use xlink:href="#DejaVuSans-Oblique-3bb" transform="translate(589.111328 0.015625)"/>
     </g>
    </g>
    <g id="text_13">
     <!-- 1e−13 -->
     <g style="fill: #262626" transform="translate(51.114688 21.119531)scale(0.11 -0.11)">
      <defs>
       <path id="ArialMT-33" d="M 269 1209 
L 831 1284 
Q 928 806 1161 595 
Q 1394 384 1728 384 
Q 2125 384 2398 659 
Q 2672 934 2672 1341 
Q 2672 1728 2419 1979 
Q 2166 2231 1775 2231 
Q 1616 2231 1378 2169 
L 1441 2663 
Q 1497 2656 1531 2656 
Q 1891 2656 2178 2843 
Q 2466 3031 2466 3422 
Q 2466 3731 2256 3934 
Q 2047 4138 1716 4138 
Q 1388 4138 1169 3931 
Q 950 3725 888 3313 
L 325 3413 
Q 428 3978 793 4289 
Q 1159 4600 1703 4600 
Q 2078 4600 2393 4439 
Q 2709 4278 2876 4000 
Q 3044 3722 3044 3409 
Q 3044 3113 2884 2869 
Q 2725 2625 2413 2481 
Q 2819 2388 3044 2092 
Q 3269 1797 3269 1353 
Q 3269 753 2831 336 
Q 2394 -81 1725 -81 
Q 1122 -81 723 278 
Q 325 638 269 1209 
z
" transform="scale(0.015625)"/>
      </defs>
      <use xlink:href="#ArialMT-31"/>
      <use xlink:href="#ArialMT-65" x="55.615234"/>
      <use xlink:href="#ArialMT-2212" x="111.230469"/>
      <use xlink:href="#ArialMT-31" x="169.628906"/>
      <use xlink:href="#ArialMT-33" x="225.244141"/>
     </g>
    </g>
   </g>
   <g id="line2d_11">
    <path d="M 57.580319 30.585163 
L 59.351725 86.579392 
L 61.123131 142.573621 
L 62.894537 86.579392 
L 64.665943 86.579392 
L 66.437349 86.579392 
L 68.208755 30.585163 
L 69.980161 30.585163 
L 71.751567 142.573621 
L 73.522974 142.573621 
L 75.29438 86.579392 
L 77.065786 86.579392 
L 78.837192 86.579392 
L 80.608598 30.585163 
L 82.380004 86.579392 
L 84.15141 142.573621 
L 85.922816 30.585163 
L 87.694222 86.579392 
L 89.465628 142.573621 
L 91.237034 30.585163 
L 93.00844 86.579392 
L 94.779846 86.579392 
L 96.551252 86.579392 
L 98.322658 86.579392 
L 100.094064 86.579392 
L 101.86547 86.579392 
L 103.636876 30.585163 
L 105.408282 86.579392 
L 107.179688 86.579392 
L 108.951094 86.579392 
L 110.7225 86.579392 
L 112.493906 86.579392 
L 114.265312 86.579392 
L 116.036718 142.573621 
L 117.808124 30.585163 
L 119.57953 142.573621 
L 121.350936 86.579392 
L 123.122342 86.579392 
L 124.893748 142.573621 
L 126.665154 86.579392 
L 128.43656 86.579392 
L 130.207966 86.579392 
L 131.979372 86.579392 
L 133.750778 86.579392 
L 135.522184 142.573621 
L 137.29359 86.579392 
L 139.064996 86.579392 
L 140.836402 86.579392 
L 142.607808 86.579392 
L 144.379214 142.573621 
L 146.15062 86.579392 
L 147.922026 86.579392 
L 149.693432 142.573621 
L 151.464838 86.579392 
L 153.236244 86.579392 
L 155.00765 86.579392 
L 156.779056 142.573621 
L 158.550462 86.579392 
L 160.321868 142.573621 
L 162.093274 86.579392 
L 163.86468 142.573621 
L 165.636086 86.579392 
L 167.407492 142.573621 
L 169.178898 86.579392 
L 170.950304 30.585163 
L 172.72171 86.579392 
L 174.493116 86.579392 
L 176.264522 30.585163 
L 178.035928 86.579392 
L 179.807334 86.579392 
L 181.57874 86.579392 
L 183.350146 86.579392 
L 185.121552 86.579392 
L 186.892958 142.573621 
" clip-path="url(#p3b226b3373)" style="fill: none; stroke: #482475; stroke-width: 1.5; stroke-linecap: round"/>
   </g>
   <g id="line2d_12">
    <path d="M 57.580319 104.908994 
L 59.351725 86.579392 
L 61.123131 86.579392 
L 62.894537 86.579392 
L 64.665943 86.579392 
L 66.437349 123.238597 
L 68.208755 86.579392 
L 69.980161 49.920187 
L 71.751567 159.897802 
L 73.522974 86.579392 
L 75.29438 86.579392 
L 77.065786 49.920187 
L 78.837192 86.579392 
L 80.608598 86.579392 
L 82.380004 86.579392 
L 84.15141 123.238597 
L 85.922816 86.579392 
L 87.694222 86.579392 
L 89.465628 49.920187 
L 91.237034 123.238597 
L 93.00844 123.238597 
L 94.779846 86.579392 
L 96.551252 86.579392 
L 98.322658 86.579392 
L 100.094064 123.238597 
L 101.86547 86.579392 
L 103.636876 86.579392 
L 105.408282 86.579392 
L 107.179688 123.238597 
L 108.951094 86.579392 
L 110.7225 49.920187 
L 112.493906 86.579392 
L 114.265312 86.579392 
L 116.036718 86.579392 
L 117.808124 86.579392 
L 119.57953 49.920187 
L 121.350936 86.579392 
L 123.122342 86.579392 
L 124.893748 86.579392 
L 126.665154 49.920187 
L 128.43656 49.920187 
L 130.207966 86.579392 
L 131.979372 49.920187 
L 133.750778 123.238597 
L 135.522184 49.920187 
L 137.29359 86.579392 
L 139.064996 86.579392 
L 140.836402 86.579392 
L 142.607808 86.579392 
L 144.379214 159.897802 
L 146.15062 49.920187 
L 147.922026 86.579392 
L 149.693432 86.579392 
L 151.464838 86.579392 
L 153.236244 86.579392 
L 155.00765 49.920187 
L 156.779056 123.238597 
L 158.550462 86.579392 
L 160.321868 49.920187 
L 162.093274 123.238597 
L 163.86468 49.920187 
L 165.636086 123.238597 
L 167.407492 86.579392 
L 169.178898 123.238597 
L 170.950304 86.579392 
L 172.72171 86.579392 
L 174.493116 123.238597 
L 176.264522 86.579392 
L 178.035928 86.579392 
L 179.807334 49.920187 
L 181.57874 86.579392 
L 183.350146 86.579392 
L 185.121552 86.579392 
L 186.892958 86.579392 
" clip-path="url(#p3b226b3373)" style="fill: none; stroke: #355f8d; stroke-width: 1.5; stroke-linecap: round"/>
   </g>
   <g id="line2d_13">
    <path d="M 57.580319 113.82915 
L 59.351725 86.579392 
L 61.123131 86.579392 
L 62.894537 59.329634 
L 64.665943 86.579392 
L 66.437349 86.579392 
L 68.208755 86.579392 
L 69.980161 59.329634 
L 71.751567 113.82915 
L 73.522974 86.579392 
L 75.29438 59.329634 
L 77.065786 113.82915 
L 78.837192 86.579392 
L 80.608598 86.579392 
L 82.380004 86.579392 
L 84.15141 86.579392 
L 85.922816 59.329634 
L 87.694222 86.579392 
L 89.465628 86.579392 
L 91.237034 86.579392 
L 93.00844 86.579392 
L 94.779846 86.579392 
L 96.551252 113.82915 
L 98.322658 86.579392 
L 100.094064 86.579392 
L 101.86547 59.329634 
L 103.636876 86.579392 
L 105.408282 86.579392 
L 107.179688 113.82915 
L 108.951094 59.329634 
L 110.7225 86.579392 
L 112.493906 86.579392 
L 114.265312 59.329634 
L 116.036718 86.579392 
L 117.808124 86.579392 
L 119.57953 86.579392 
L 121.350936 113.82915 
L 123.122342 86.579392 
L 124.893748 86.579392 
L 126.665154 59.329634 
L 128.43656 86.579392 
L 130.207966 59.329634 
L 131.979372 86.579392 
L 133.750778 86.579392 
L 135.522184 86.579392 
L 137.29359 113.82915 
L 139.064996 59.329634 
L 140.836402 86.579392 
L 142.607808 113.82915 
L 144.379214 113.82915 
L 146.15062 59.329634 
L 147.922026 86.579392 
L 149.693432 86.579392 
L 151.464838 113.82915 
L 153.236244 113.82915 
L 155.00765 86.579392 
L 156.779056 59.329634 
L 158.550462 86.579392 
L 160.321868 86.579392 
L 162.093274 113.82915 
L 163.86468 59.329634 
L 165.636086 86.579392 
L 167.407492 86.579392 
L 169.178898 86.579392 
L 170.950304 86.579392 
L 172.72171 86.579392 
L 174.493116 59.329634 
L 176.264522 86.579392 
L 178.035928 86.579392 
L 179.807334 86.579392 
L 181.57874 86.579392 
L 183.350146 86.579392 
L 185.121552 86.579392 
L 186.892958 86.579392 
" clip-path="url(#p3b226b3373)" style="fill: none; stroke: #21918c; stroke-width: 1.5; stroke-linecap: round"/>
   </g>
   <g id="line2d_14">
    <path d="M 57.580319 86.579392 
L 59.351725 86.579392 
L 61.123131 86.579392 
L 62.894537 86.579392 
L 64.665943 86.579392 
L 66.437349 86.579392 
L 68.208755 86.579392 
L 69.980161 107.914813 
L 71.751567 65.24397 
L 73.522974 65.24397 
L 75.29438 86.579392 
L 77.065786 86.579392 
L 78.837192 86.579392 
L 80.608598 86.579392 
L 82.380004 86.579392 
L 84.15141 86.579392 
L 85.922816 86.579392 
L 87.694222 65.24397 
L 89.465628 86.579392 
L 91.237034 86.579392 
L 93.00844 86.579392 
L 94.779846 107.914813 
L 96.551252 107.914813 
L 98.322658 86.579392 
L 100.094064 65.24397 
L 101.86547 107.914813 
L 103.636876 86.579392 
L 105.408282 86.579392 
L 107.179688 65.24397 
L 108.951094 107.914813 
L 110.7225 65.24397 
L 112.493906 65.24397 
L 114.265312 107.914813 
L 116.036718 65.24397 
L 117.808124 86.579392 
L 119.57953 65.24397 
L 121.350936 107.914813 
L 123.122342 86.579392 
L 124.893748 65.24397 
L 126.665154 86.579392 
L 128.43656 65.24397 
L 130.207966 86.579392 
L 131.979372 107.914813 
L 133.750778 86.579392 
L 135.522184 65.24397 
L 137.29359 86.579392 
L 139.064996 65.24397 
L 140.836402 107.914813 
L 142.607808 86.579392 
L 144.379214 107.914813 
L 146.15062 86.579392 
L 147.922026 86.579392 
L 149.693432 65.24397 
L 151.464838 86.579392 
L 153.236244 86.579392 
L 155.00765 107.914813 
L 156.779056 65.24397 
L 158.550462 107.914813 
L 160.321868 86.579392 
L 162.093274 86.579392 
L 163.86468 65.24397 
L 165.636086 86.579392 
L 167.407492 65.24397 
L 169.178898 86.579392 
L 170.950304 86.579392 
L 172.72171 86.579392 
L 174.493116 107.914813 
L 176.264522 86.579392 
L 178.035928 86.579392 
L 179.807334 86.579392 
L 181.57874 86.579392 
L 183.350146 107.914813 
L 185.121552 65.24397 
L 186.892958 86.579392 
" clip-path="url(#p3b226b3373)" style="fill: none; stroke: #44bf70; stroke-width: 1.5; stroke-linecap: round"/>
   </g>
   <g id="line2d_15">
    <path d="M 57.580319 95.582534 
L 59.351725 77.576249 
L 61.123131 86.579392 
L 62.894537 122.591962 
L 64.665943 68.573107 
L 66.437349 86.579392 
L 68.208755 68.573107 
L 69.980161 86.579392 
L 71.751567 104.585677 
L 73.522974 86.579392 
L 75.29438 104.585677 
L 77.065786 86.579392 
L 78.837192 86.579392 
L 80.608598 86.579392 
L 82.380004 86.579392 
L 84.15141 86.579392 
L 85.922816 104.585677 
L 87.694222 86.579392 
L 89.465628 104.585677 
L 91.237034 86.579392 
L 93.00844 68.573107 
L 94.779846 86.579392 
L 96.551252 104.585677 
L 98.322658 86.579392 
L 100.094064 86.579392 
L 101.86547 86.579392 
L 103.636876 86.579392 
L 105.408282 86.579392 
L 107.179688 104.585677 
L 108.951094 68.573107 
L 110.7225 86.579392 
L 112.493906 86.579392 
L 114.265312 86.579392 
L 116.036718 68.573107 
L 117.808124 86.579392 
L 119.57953 104.585677 
L 121.350936 104.585677 
L 123.122342 86.579392 
L 124.893748 86.579392 
L 126.665154 86.579392 
L 128.43656 68.573107 
L 130.207966 86.579392 
L 131.979372 104.585677 
L 133.750778 68.573107 
L 135.522184 86.579392 
L 137.29359 86.579392 
L 139.064996 104.585677 
L 140.836402 86.579392 
L 142.607808 86.579392 
L 144.379214 104.585677 
L 146.15062 68.573107 
L 147.922026 86.579392 
L 149.693432 86.579392 
L 151.464838 104.585677 
L 153.236244 86.579392 
L 155.00765 86.579392 
L 156.779056 86.579392 
L 158.550462 86.579392 
L 160.321868 68.573107 
L 162.093274 86.579392 
L 163.86468 86.579392 
L 165.636086 86.579392 
L 167.407492 86.579392 
L 169.178898 86.579392 
L 170.950304 86.579392 
L 172.72171 68.573107 
L 174.493116 86.579392 
L 176.264522 104.585677 
L 178.035928 86.579392 
L 179.807334 86.579392 
L 181.57874 68.573107 
L 183.350146 86.579392 
L 185.121552 86.579392 
L 186.892958 104.585677 
" clip-path="url(#p3b226b3373)" style="fill: none; stroke: #bddf26; stroke-width: 1.5; stroke-linecap: round"/>
   </g>
   <g id="patch_3">
    <path d="M 51.114688 166.363434 
L 51.114688 24.119531 
" style="fill: none; stroke: #cccccc; stroke-linejoin: miter; stroke-linecap: square"/>
   </g>
   <g id="patch_4">
    <path d="M 193.35859 166.363434 
L 193.35859 24.119531 
" style="fill: none; stroke: #cccccc; stroke-linejoin: miter; stroke-linecap: square"/>
   </g>
   <g id="patch_5">
    <path d="M 51.114688 166.363434 
L 193.35859 166.363434 
" style="fill: none; stroke: #cccccc; stroke-linejoin: miter; stroke-linecap: square"/>
   </g>
   <g id="patch_6">
    <path d="M 51.114688 24.119531 
L 193.35859 24.119531 
" style="fill: none; stroke: #cccccc; stroke-linejoin: miter; stroke-linecap: square"/>
   </g>
   <g id="text_14">
    <!-- La Grange -->
    <g style="fill: #262626" transform="translate(86.797967 18.119531)scale(0.15 -0.15)">
     <defs>
      <path id="ArialMT-4c" d="M 469 0 
L 469 4581 
L 1075 4581 
L 1075 541 
L 3331 541 
L 3331 0 
L 469 0 
z
" transform="scale(0.015625)"/>
      <path id="ArialMT-47" d="M 2638 1797 
L 2638 2334 
L 4578 2338 
L 4578 638 
Q 4131 281 3656 101 
Q 3181 -78 2681 -78 
Q 2006 -78 1454 211 
Q 903 500 622 1047 
Q 341 1594 341 2269 
Q 341 2938 620 3517 
Q 900 4097 1425 4378 
Q 1950 4659 2634 4659 
Q 3131 4659 3532 4498 
Q 3934 4338 4162 4050 
Q 4391 3763 4509 3300 
L 3963 3150 
Q 3859 3500 3706 3700 
Q 3553 3900 3268 4020 
Q 2984 4141 2638 4141 
Q 2222 4141 1919 4014 
Q 1616 3888 1430 3681 
Q 1244 3475 1141 3228 
Q 966 2803 966 2306 
Q 966 1694 1177 1281 
Q 1388 869 1791 669 
Q 2194 469 2647 469 
Q 3041 469 3416 620 
Q 3791 772 3984 944 
L 3984 1797 
L 2638 1797 
z
" transform="scale(0.015625)"/>
      <path id="ArialMT-67" d="M 319 -275 
L 866 -356 
Q 900 -609 1056 -725 
Q 1266 -881 1628 -881 
Q 2019 -881 2231 -725 
Q 2444 -569 2519 -288 
Q 2563 -116 2559 434 
Q 2191 0 1641 0 
Q 956 0 581 494 
Q 206 988 206 1678 
Q 206 2153 378 2554 
Q 550 2956 876 3175 
Q 1203 3394 1644 3394 
Q 2231 3394 2613 2919 
L 2613 3319 
L 3131 3319 
L 3131 450 
Q 3131 -325 2973 -648 
Q 2816 -972 2473 -1159 
Q 2131 -1347 1631 -1347 
Q 1038 -1347 672 -1080 
Q 306 -813 319 -275 
z
M 784 1719 
Q 784 1066 1043 766 
Q 1303 466 1694 466 
Q 2081 466 2343 764 
Q 2606 1063 2606 1700 
Q 2606 2309 2336 2618 
Q 2066 2928 1684 2928 
Q 1309 2928 1046 2623 
Q 784 2319 784 1719 
z
" transform="scale(0.015625)"/>
     </defs>
     <use xlink:href="#ArialMT-4c"/>
     <use xlink:href="#ArialMT-61" x="55.615234"/>
     <use xlink:href="#ArialMT-20" x="111.230469"/>
     <use xlink:href="#ArialMT-47" x="139.013672"/>
     <use xlink:href="#ArialMT-72" x="216.796875"/>
     <use xlink:href="#ArialMT-61" x="250.097656"/>
     <use xlink:href="#ArialMT-6e" x="305.712891"/>
     <use xlink:href="#ArialMT-67" x="361.328125"/>
     <use xlink:href="#ArialMT-65" x="416.943359"/>
    </g>
   </g>
  </g>
  <g id="axes_2">
   <g id="patch_7">
    <path d="M 200.470785 166.363434 
L 342.714688 166.363434 
L 342.714688 24.119531 
L 200.470785 24.119531 
z
" style="fill: #ffffff"/>
   </g>
   <g id="matplotlib.axis_3">
    <g id="xtick_5">
     <g id="line2d_16">
      <path d="M 206.936417 166.363434 
L 206.936417 24.119531 
" clip-path="url(#p1ca3813078)" style="fill: none; stroke: #cccccc; stroke-linecap: round"/>
     </g>
     <g id="text_15">
      <!-- 0 -->
      <g style="fill: #262626" transform="translate(203.877901 177.737027)scale(0.11 -0.11)">
       <use xlink:href="#ArialMT-30"/>
      </g>
     </g>
    </g>
    <g id="xtick_6">
     <g id="line2d_17">
      <path d="M 251.221567 166.363434 
L 251.221567 24.119531 
" clip-path="url(#p1ca3813078)" style="fill: none; stroke: #cccccc; stroke-linecap: round"/>
     </g>
     <g id="text_16">
      <!-- 25 -->
      <g style="fill: #262626" transform="translate(245.104536 177.737027)scale(0.11 -0.11)">
       <use xlink:href="#ArialMT-32"/>
       <use xlink:href="#ArialMT-35" x="55.615234"/>
      </g>
     </g>
    </g>
    <g id="xtick_7">
     <g id="line2d_18">
      <path d="M 295.506717 166.363434 
L 295.506717 24.119531 
" clip-path="url(#p1ca3813078)" style="fill: none; stroke: #cccccc; stroke-linecap: round"/>
     </g>
     <g id="text_17">
      <!-- 50 -->
      <g style="fill: #262626" transform="translate(289.389686 177.737027)scale(0.11 -0.11)">
       <use xlink:href="#ArialMT-35"/>
       <use xlink:href="#ArialMT-30" x="55.615234"/>
      </g>
     </g>
    </g>
    <g id="xtick_8">
     <g id="line2d_19">
      <path d="M 339.791868 166.363434 
L 339.791868 24.119531 
" clip-path="url(#p1ca3813078)" style="fill: none; stroke: #cccccc; stroke-linecap: round"/>
     </g>
     <g id="text_18">
      <!-- 75 -->
      <g style="fill: #262626" transform="translate(333.674836 177.737027)scale(0.11 -0.11)">
       <use xlink:href="#ArialMT-37"/>
       <use xlink:href="#ArialMT-35" x="55.615234"/>
      </g>
     </g>
    </g>
    <g id="text_19">
     <!-- Years -->
     <g style="fill: #262626" transform="translate(252.685705 194.659996)scale(0.15 -0.15)">
      <use xlink:href="#ArialMT-59"/>
      <use xlink:href="#ArialMT-65" x="57.574219"/>
      <use xlink:href="#ArialMT-61" x="113.189453"/>
      <use xlink:href="#ArialMT-72" x="168.804688"/>
      <use xlink:href="#ArialMT-73" x="202.105469"/>
     </g>
    </g>
   </g>
   <g id="matplotlib.axis_4">
    <g id="ytick_7">
     <g id="line2d_20">
      <path d="M 200.470785 158.298129 
L 342.714688 158.298129 
" clip-path="url(#p1ca3813078)" style="fill: none; stroke: #cccccc; stroke-linecap: round"/>
     </g>
    </g>
    <g id="ytick_8">
     <g id="line2d_21">
      <path d="M 200.470785 134.391883 
L 342.714688 134.391883 
" clip-path="url(#p1ca3813078)" style="fill: none; stroke: #cccccc; stroke-linecap: round"/>
     </g>
    </g>
    <g id="ytick_9">
     <g id="line2d_22">
      <path d="M 200.470785 110.485638 
L 342.714688 110.485638 
" clip-path="url(#p1ca3813078)" style="fill: none; stroke: #cccccc; stroke-linecap: round"/>
     </g>
    </g>
    <g id="ytick_10">
     <g id="line2d_23">
      <path d="M 200.470785 86.579392 
L 342.714688 86.579392 
" clip-path="url(#p1ca3813078)" style="fill: none; stroke: #cccccc; stroke-linecap: round"/>
     </g>
    </g>
    <g id="ytick_11">
     <g id="line2d_24">
      <path d="M 200.470785 62.673146 
L 342.714688 62.673146 
" clip-path="url(#p1ca3813078)" style="fill: none; stroke: #cccccc; stroke-linecap: round"/>
     </g>
    </g>
    <g id="ytick_12">
     <g id="line2d_25">
      <path d="M 200.470785 38.7669 
L 342.714688 38.7669 
" clip-path="url(#p1ca3813078)" style="fill: none; stroke: #cccccc; stroke-linecap: round"/>
     </g>
    </g>
   </g>
   <g id="line2d_26">
    <path d="M 206.936417 114.576506 
L 208.707823 58.582278 
L 210.479229 142.573621 
L 212.250635 142.573621 
L 214.022041 86.579392 
L 215.793447 86.579392 
L 217.564853 30.585163 
L 219.336259 30.585163 
L 221.107665 86.579392 
L 222.879071 142.573621 
L 224.650477 86.579392 
L 226.421883 86.579392 
L 228.193289 86.579392 
L 229.964695 30.585163 
L 231.736101 86.579392 
L 233.507507 86.579392 
L 235.278913 86.579392 
L 237.050319 86.579392 
L 238.821725 30.585163 
L 240.593131 86.579392 
L 242.364537 86.579392 
L 244.135943 142.573621 
L 245.907349 86.579392 
L 247.678755 30.585163 
L 249.450161 86.579392 
L 251.221567 86.579392 
L 252.992973 30.585163 
L 254.764379 86.579392 
L 256.535785 142.573621 
L 258.307191 86.579392 
L 260.078597 142.573621 
L 261.850003 30.585163 
L 263.621409 86.579392 
L 265.392815 86.579392 
L 267.164221 86.579392 
L 268.935627 86.579392 
L 270.707033 86.579392 
L 272.478439 86.579392 
L 274.249845 86.579392 
L 276.021251 86.579392 
L 277.792657 86.579392 
L 279.564063 86.579392 
L 281.335469 86.579392 
L 283.106875 86.579392 
L 284.878281 86.579392 
L 286.649687 86.579392 
L 288.421093 142.573621 
L 290.192499 86.579392 
L 291.963905 86.579392 
L 293.735311 86.579392 
L 295.506717 30.585163 
L 297.278123 86.579392 
L 299.049529 142.573621 
L 300.820935 86.579392 
L 302.592341 86.579392 
L 304.363747 30.585163 
L 306.135153 142.573621 
L 307.906559 86.579392 
L 309.677965 142.573621 
L 311.449371 86.579392 
L 313.220777 86.579392 
L 314.992183 86.579392 
L 316.763589 86.579392 
L 318.534995 86.579392 
L 320.306401 86.579392 
L 322.077808 86.579392 
L 323.849214 86.579392 
L 325.62062 86.579392 
L 327.392026 86.579392 
L 329.163432 86.579392 
L 330.934838 86.579392 
L 332.706244 86.579392 
L 334.47765 86.579392 
L 336.249056 86.579392 
" clip-path="url(#p1ca3813078)" style="fill: none; stroke: #482475; stroke-width: 1.5; stroke-linecap: round"/>
   </g>
   <g id="line2d_27">
    <path d="M 206.936417 68.249789 
L 208.707823 104.908994 
L 210.479229 49.920187 
L 212.250635 123.238597 
L 214.022041 49.920187 
L 215.793447 123.238597 
L 217.564853 49.920187 
L 219.336259 86.579392 
L 221.107665 123.238597 
L 222.879071 86.579392 
L 224.650477 86.579392 
L 226.421883 86.579392 
L 228.193289 123.238597 
L 229.964695 86.579392 
L 231.736101 86.579392 
L 233.507507 49.920187 
L 235.278913 86.579392 
L 237.050319 86.579392 
L 238.821725 123.238597 
L 240.593131 49.920187 
L 242.364537 86.579392 
L 244.135943 123.238597 
L 245.907349 49.920187 
L 247.678755 86.579392 
L 249.450161 86.579392 
L 251.221567 86.579392 
L 252.992973 86.579392 
L 254.764379 49.920187 
L 256.535785 86.579392 
L 258.307191 86.579392 
L 260.078597 86.579392 
L 261.850003 86.579392 
L 263.621409 86.579392 
L 265.392815 86.579392 
L 267.164221 86.579392 
L 268.935627 86.579392 
L 270.707033 86.579392 
L 272.478439 86.579392 
L 274.249845 86.579392 
L 276.021251 123.238597 
L 277.792657 86.579392 
L 279.564063 49.920187 
L 281.335469 123.238597 
L 283.106875 49.920187 
L 284.878281 86.579392 
L 286.649687 86.579392 
L 288.421093 86.579392 
L 290.192499 86.579392 
L 291.963905 86.579392 
L 293.735311 86.579392 
L 295.506717 86.579392 
L 297.278123 123.238597 
L 299.049529 49.920187 
L 300.820935 123.238597 
L 302.592341 86.579392 
L 304.363747 123.238597 
L 306.135153 86.579392 
L 307.906559 49.920187 
L 309.677965 49.920187 
L 311.449371 123.238597 
L 313.220777 86.579392 
L 314.992183 86.579392 
L 316.763589 49.920187 
L 318.534995 86.579392 
L 320.306401 86.579392 
L 322.077808 86.579392 
L 323.849214 86.579392 
L 325.62062 86.579392 
L 327.392026 86.579392 
L 329.163432 86.579392 
L 330.934838 86.579392 
L 332.706244 123.238597 
L 334.47765 86.579392 
L 336.249056 86.579392 
" clip-path="url(#p1ca3813078)" style="fill: none; stroke: #355f8d; stroke-width: 1.5; stroke-linecap: round"/>
   </g>
   <g id="line2d_28">
    <path d="M 206.936417 86.579392 
L 208.707823 86.579392 
L 210.479229 86.579392 
L 212.250635 86.579392 
L 214.022041 86.579392 
L 215.793447 86.579392 
L 217.564853 59.329634 
L 219.336259 113.82915 
L 221.107665 59.329634 
L 222.879071 86.579392 
L 224.650477 86.579392 
L 226.421883 86.579392 
L 228.193289 86.579392 
L 229.964695 86.579392 
L 231.736101 86.579392 
L 233.507507 86.579392 
L 235.278913 59.329634 
L 237.050319 86.579392 
L 238.821725 113.82915 
L 240.593131 86.579392 
L 242.364537 86.579392 
L 244.135943 113.82915 
L 245.907349 86.579392 
L 247.678755 86.579392 
L 249.450161 113.82915 
L 251.221567 113.82915 
L 252.992973 59.329634 
L 254.764379 86.579392 
L 256.535785 59.329634 
L 258.307191 86.579392 
L 260.078597 113.82915 
L 261.850003 86.579392 
L 263.621409 59.329634 
L 265.392815 113.82915 
L 267.164221 113.82915 
L 268.935627 86.579392 
L 270.707033 59.329634 
L 272.478439 86.579392 
L 274.249845 113.82915 
L 276.021251 86.579392 
L 277.792657 86.579392 
L 279.564063 86.579392 
L 281.335469 86.579392 
L 283.106875 86.579392 
L 284.878281 86.579392 
L 286.649687 86.579392 
L 288.421093 59.329634 
L 290.192499 86.579392 
L 291.963905 86.579392 
L 293.735311 86.579392 
L 295.506717 86.579392 
L 297.278123 59.329634 
L 299.049529 113.82915 
L 300.820935 59.329634 
L 302.592341 86.579392 
L 304.363747 86.579392 
L 306.135153 86.579392 
L 307.906559 113.82915 
L 309.677965 86.579392 
L 311.449371 86.579392 
L 313.220777 113.82915 
L 314.992183 86.579392 
L 316.763589 59.329634 
L 318.534995 86.579392 
L 320.306401 86.579392 
L 322.077808 86.579392 
L 323.849214 86.579392 
L 325.62062 86.579392 
L 327.392026 86.579392 
L 329.163432 113.82915 
L 330.934838 86.579392 
L 332.706244 86.579392 
L 334.47765 86.579392 
L 336.249056 86.579392 
" clip-path="url(#p1ca3813078)" style="fill: none; stroke: #21918c; stroke-width: 1.5; stroke-linecap: round"/>
   </g>
   <g id="line2d_29">
    <path d="M 206.936417 86.579392 
L 208.707823 86.579392 
L 210.479229 65.24397 
L 212.250635 107.914813 
L 214.022041 86.579392 
L 215.793447 107.914813 
L 217.564853 86.579392 
L 219.336259 86.579392 
L 221.107665 107.914813 
L 222.879071 86.579392 
L 224.650477 107.914813 
L 226.421883 86.579392 
L 228.193289 86.579392 
L 229.964695 65.24397 
L 231.736101 65.24397 
L 233.507507 86.579392 
L 235.278913 107.914813 
L 237.050319 86.579392 
L 238.821725 86.579392 
L 240.593131 86.579392 
L 242.364537 86.579392 
L 244.135943 65.24397 
L 245.907349 86.579392 
L 247.678755 86.579392 
L 249.450161 65.24397 
L 251.221567 86.579392 
L 252.992973 107.914813 
L 254.764379 107.914813 
L 256.535785 86.579392 
L 258.307191 86.579392 
L 260.078597 65.24397 
L 261.850003 65.24397 
L 263.621409 107.914813 
L 265.392815 86.579392 
L 267.164221 86.579392 
L 268.935627 86.579392 
L 270.707033 65.24397 
L 272.478439 107.914813 
L 274.249845 65.24397 
L 276.021251 86.579392 
L 277.792657 86.579392 
L 279.564063 86.579392 
L 281.335469 107.914813 
L 283.106875 65.24397 
L 284.878281 86.579392 
L 286.649687 86.579392 
L 288.421093 65.24397 
L 290.192499 86.579392 
L 291.963905 86.579392 
L 293.735311 86.579392 
L 295.506717 86.579392 
L 297.278123 86.579392 
L 299.049529 107.914813 
L 300.820935 65.24397 
L 302.592341 86.579392 
L 304.363747 86.579392 
L 306.135153 107.914813 
L 307.906559 107.914813 
L 309.677965 86.579392 
L 311.449371 86.579392 
L 313.220777 86.579392 
L 314.992183 86.579392 
L 316.763589 107.914813 
L 318.534995 86.579392 
L 320.306401 86.579392 
L 322.077808 107.914813 
L 323.849214 86.579392 
L 325.62062 86.579392 
L 327.392026 86.579392 
L 329.163432 86.579392 
L 330.934838 86.579392 
L 332.706244 107.914813 
L 334.47765 86.579392 
L 336.249056 65.24397 
" clip-path="url(#p1ca3813078)" style="fill: none; stroke: #44bf70; stroke-width: 1.5; stroke-linecap: round"/>
   </g>
   <g id="line2d_30">
    <path d="M 206.936417 77.576249 
L 208.707823 95.582534 
L 210.479229 86.579392 
L 212.250635 86.579392 
L 214.022041 86.579392 
L 215.793447 68.573107 
L 217.564853 86.579392 
L 219.336259 104.585677 
L 221.107665 68.573107 
L 222.879071 104.585677 
L 224.650477 68.573107 
L 226.421883 86.579392 
L 228.193289 104.585677 
L 229.964695 68.573107 
L 231.736101 104.585677 
L 233.507507 86.579392 
L 235.278913 86.579392 
L 237.050319 86.579392 
L 238.821725 68.573107 
L 240.593131 86.579392 
L 242.364537 104.585677 
L 244.135943 86.579392 
L 245.907349 68.573107 
L 247.678755 86.579392 
L 249.450161 86.579392 
L 251.221567 104.585677 
L 252.992973 86.579392 
L 254.764379 86.579392 
L 256.535785 68.573107 
L 258.307191 86.579392 
L 260.078597 86.579392 
L 261.850003 86.579392 
L 263.621409 86.579392 
L 265.392815 104.585677 
L 267.164221 86.579392 
L 268.935627 104.585677 
L 270.707033 68.573107 
L 272.478439 104.585677 
L 274.249845 68.573107 
L 276.021251 104.585677 
L 277.792657 86.579392 
L 279.564063 86.579392 
L 281.335469 86.579392 
L 283.106875 86.579392 
L 284.878281 86.579392 
L 286.649687 104.585677 
L 288.421093 86.579392 
L 290.192499 68.573107 
L 291.963905 86.579392 
L 293.735311 86.579392 
L 295.506717 86.579392 
L 297.278123 86.579392 
L 299.049529 86.579392 
L 300.820935 86.579392 
L 302.592341 86.579392 
L 304.363747 104.585677 
L 306.135153 68.573107 
L 307.906559 104.585677 
L 309.677965 68.573107 
L 311.449371 86.579392 
L 313.220777 86.579392 
L 314.992183 86.579392 
L 316.763589 86.579392 
L 318.534995 86.579392 
L 320.306401 68.573107 
L 322.077808 86.579392 
L 323.849214 86.579392 
L 325.62062 86.579392 
L 327.392026 86.579392 
L 329.163432 86.579392 
L 330.934838 68.573107 
L 332.706244 86.579392 
L 334.47765 104.585677 
L 336.249056 68.573107 
" clip-path="url(#p1ca3813078)" style="fill: none; stroke: #bddf26; stroke-width: 1.5; stroke-linecap: round"/>
   </g>
   <g id="patch_8">
    <path d="M 200.470785 166.363434 
L 200.470785 24.119531 
" style="fill: none; stroke: #cccccc; stroke-linejoin: miter; stroke-linecap: square"/>
   </g>
   <g id="patch_9">
    <path d="M 342.714688 166.363434 
L 342.714688 24.119531 
" style="fill: none; stroke: #cccccc; stroke-linejoin: miter; stroke-linecap: square"/>
   </g>
   <g id="patch_10">
    <path d="M 200.470785 166.363434 
L 342.714688 166.363434 
" style="fill: none; stroke: #cccccc; stroke-linejoin: miter; stroke-linecap: square"/>
   </g>
   <g id="patch_11">
    <path d="M 200.470785 24.119531 
L 342.714688 24.119531 
" style="fill: none; stroke: #cccccc; stroke-linejoin: miter; stroke-linecap: square"/>
   </g>
   <g id="text_20">
    <!-- Peoria -->
    <g style="fill: #262626" transform="translate(249.914221 18.119531)scale(0.15 -0.15)">
     <defs>
      <path id="ArialMT-50" d="M 494 0 
L 494 4581 
L 2222 4581 
Q 2678 4581 2919 4538 
Q 3256 4481 3484 4323 
Q 3713 4166 3852 3881 
Q 3991 3597 3991 3256 
Q 3991 2672 3619 2267 
Q 3247 1863 2275 1863 
L 1100 1863 
L 1100 0 
L 494 0 
z
M 1100 2403 
L 2284 2403 
Q 2872 2403 3119 2622 
Q 3366 2841 3366 3238 
Q 3366 3525 3220 3729 
Q 3075 3934 2838 4000 
Q 2684 4041 2272 4041 
L 1100 4041 
L 1100 2403 
z
" transform="scale(0.015625)"/>
     </defs>
     <use xlink:href="#ArialMT-50"/>
     <use xlink:href="#ArialMT-65" x="66.699219"/>
     <use xlink:href="#ArialMT-6f" x="122.314453"/>
     <use xlink:href="#ArialMT-72" x="177.929688"/>
     <use xlink:href="#ArialMT-69" x="211.230469"/>
     <use xlink:href="#ArialMT-61" x="233.447266"/>
    </g>
   </g>
  </g>
  <g id="legend_1">
   <g id="patch_12">
    <path d="M 354.273594 151.20742 
L 423.114688 151.20742 
Q 425.314687 151.20742 425.314687 149.00742 
L 425.314687 55.833826 
Q 425.314687 53.633826 423.114688 53.633826 
L 354.273594 53.633826 
Q 352.073594 53.633826 352.073594 55.833826 
L 352.073594 149.00742 
Q 352.073594 151.20742 354.273594 151.20742 
z
" style="fill: #ffffff; opacity: 0.8; stroke: #cccccc; stroke-linejoin: miter"/>
   </g>
   <g id="text_21">
    <!-- $m_{ba}$ -->
    <g style="fill: #262626" transform="translate(377.414141 66.623201)scale(0.12 -0.12)">
     <defs>
      <path id="DejaVuSans-Oblique-6d" d="M 5747 2113 
L 5338 0 
L 4763 0 
L 5166 2094 
Q 5191 2228 5203 2325 
Q 5216 2422 5216 2491 
Q 5216 2772 5059 2928 
Q 4903 3084 4622 3084 
Q 4203 3084 3875 2770 
Q 3547 2456 3450 1953 
L 3066 0 
L 2491 0 
L 2900 2094 
Q 2925 2209 2937 2307 
Q 2950 2406 2950 2484 
Q 2950 2769 2794 2926 
Q 2638 3084 2363 3084 
Q 1938 3084 1609 2770 
Q 1281 2456 1184 1953 
L 800 0 
L 225 0 
L 909 3500 
L 1484 3500 
L 1375 2956 
Q 1609 3263 1923 3423 
Q 2238 3584 2597 3584 
Q 2978 3584 3223 3384 
Q 3469 3184 3519 2828 
Q 3781 3197 4126 3390 
Q 4472 3584 4856 3584 
Q 5306 3584 5551 3325 
Q 5797 3066 5797 2591 
Q 5797 2488 5784 2364 
Q 5772 2241 5747 2113 
z
" transform="scale(0.015625)"/>
      <path id="DejaVuSans-Oblique-62" d="M 3169 2138 
Q 3169 2591 2961 2847 
Q 2753 3103 2388 3103 
Q 2122 3103 1889 2973 
Q 1656 2844 1484 2597 
Q 1303 2338 1198 1995 
Q 1094 1653 1094 1313 
Q 1094 881 1298 636 
Q 1503 391 1863 391 
Q 2134 391 2365 517 
Q 2597 644 2772 891 
Q 2950 1147 3059 1487 
Q 3169 1828 3169 2138 
z
M 1381 2969 
Q 1594 3256 1914 3420 
Q 2234 3584 2584 3584 
Q 3122 3584 3439 3221 
Q 3756 2859 3756 2241 
Q 3756 1734 3570 1259 
Q 3384 784 3041 416 
Q 2816 172 2522 40 
Q 2228 -91 1906 -91 
Q 1566 -91 1316 65 
Q 1066 222 909 531 
L 806 0 
L 231 0 
L 1178 4863 
L 1753 4863 
L 1381 2969 
z
" transform="scale(0.015625)"/>
      <path id="DejaVuSans-Oblique-61" d="M 3438 1997 
L 3047 0 
L 2472 0 
L 2578 531 
Q 2325 219 2001 64 
Q 1678 -91 1281 -91 
Q 834 -91 548 182 
Q 263 456 263 884 
Q 263 1497 752 1853 
Q 1241 2209 2100 2209 
L 2900 2209 
L 2931 2363 
Q 2938 2388 2941 2417 
Q 2944 2447 2944 2509 
Q 2944 2788 2717 2942 
Q 2491 3097 2081 3097 
Q 1800 3097 1504 3025 
Q 1209 2953 897 2809 
L 997 3341 
Q 1322 3463 1633 3523 
Q 1944 3584 2234 3584 
Q 2853 3584 3176 3315 
Q 3500 3047 3500 2534 
Q 3500 2431 3484 2292 
Q 3469 2153 3438 1997 
z
M 2816 1759 
L 2241 1759 
Q 1534 1759 1195 1570 
Q 856 1381 856 984 
Q 856 709 1029 553 
Q 1203 397 1509 397 
Q 1978 397 2328 733 
Q 2678 1069 2791 1631 
L 2816 1759 
z
" transform="scale(0.015625)"/>
     </defs>
     <use xlink:href="#DejaVuSans-Oblique-6d"/>
     <use xlink:href="#DejaVuSans-Oblique-62" transform="translate(97.412109 -16.40625)scale(0.7)"/>
     <use xlink:href="#DejaVuSans-Oblique-61" transform="translate(141.845703 -16.40625)scale(0.7)"/>
    </g>
   </g>
   <g id="line2d_31">
    <path d="M 356.473594 78.531795 
L 367.473594 78.531795 
L 378.473594 78.531795 
" style="fill: none; stroke: #482475; stroke-width: 1.5; stroke-linecap: round"/>
   </g>
   <g id="text_22">
    <!-- 0.0948 -->
    <g style="fill: #262626" transform="translate(387.273594 82.381795)scale(0.11 -0.11)">
     <defs>
      <path id="ArialMT-39" d="M 350 1059 
L 891 1109 
Q 959 728 1153 556 
Q 1347 384 1650 384 
Q 1909 384 2104 503 
Q 2300 622 2425 820 
Q 2550 1019 2634 1356 
Q 2719 1694 2719 2044 
Q 2719 2081 2716 2156 
Q 2547 1888 2255 1720 
Q 1963 1553 1622 1553 
Q 1053 1553 659 1965 
Q 266 2378 266 3053 
Q 266 3750 677 4175 
Q 1088 4600 1706 4600 
Q 2153 4600 2523 4359 
Q 2894 4119 3086 3673 
Q 3278 3228 3278 2384 
Q 3278 1506 3087 986 
Q 2897 466 2520 194 
Q 2144 -78 1638 -78 
Q 1100 -78 759 220 
Q 419 519 350 1059 
z
M 2653 3081 
Q 2653 3566 2395 3850 
Q 2138 4134 1775 4134 
Q 1400 4134 1122 3828 
Q 844 3522 844 3034 
Q 844 2597 1108 2323 
Q 1372 2050 1759 2050 
Q 2150 2050 2401 2323 
Q 2653 2597 2653 3081 
z
" transform="scale(0.015625)"/>
      <path id="ArialMT-34" d="M 2069 0 
L 2069 1097 
L 81 1097 
L 81 1613 
L 2172 4581 
L 2631 4581 
L 2631 1613 
L 3250 1613 
L 3250 1097 
L 2631 1097 
L 2631 0 
L 2069 0 
z
M 2069 1613 
L 2069 3678 
L 634 1613 
L 2069 1613 
z
" transform="scale(0.015625)"/>
      <path id="ArialMT-38" d="M 1131 2484 
Q 781 2613 612 2850 
Q 444 3088 444 3419 
Q 444 3919 803 4259 
Q 1163 4600 1759 4600 
Q 2359 4600 2725 4251 
Q 3091 3903 3091 3403 
Q 3091 3084 2923 2848 
Q 2756 2613 2416 2484 
Q 2838 2347 3058 2040 
Q 3278 1734 3278 1309 
Q 3278 722 2862 322 
Q 2447 -78 1769 -78 
Q 1091 -78 675 323 
Q 259 725 259 1325 
Q 259 1772 486 2073 
Q 713 2375 1131 2484 
z
M 1019 3438 
Q 1019 3113 1228 2906 
Q 1438 2700 1772 2700 
Q 2097 2700 2305 2904 
Q 2513 3109 2513 3406 
Q 2513 3716 2298 3927 
Q 2084 4138 1766 4138 
Q 1444 4138 1231 3931 
Q 1019 3725 1019 3438 
z
M 838 1322 
Q 838 1081 952 856 
Q 1066 631 1291 507 
Q 1516 384 1775 384 
Q 2178 384 2440 643 
Q 2703 903 2703 1303 
Q 2703 1709 2433 1975 
Q 2163 2241 1756 2241 
Q 1359 2241 1098 1978 
Q 838 1716 838 1322 
z
" transform="scale(0.015625)"/>
     </defs>
     <use xlink:href="#ArialMT-30"/>
     <use xlink:href="#ArialMT-2e" x="55.615234"/>
     <use xlink:href="#ArialMT-30" x="83.398438"/>
     <use xlink:href="#ArialMT-39" x="139.013672"/>
     <use xlink:href="#ArialMT-34" x="194.628906"/>
     <use xlink:href="#ArialMT-38" x="250.244141"/>
    </g>
   </g>
   <g id="line2d_32">
    <path d="M 356.473594 94.091639 
L 367.473594 94.091639 
L 378.473594 94.091639 
" style="fill: none; stroke: #355f8d; stroke-width: 1.5; stroke-linecap: round"/>
   </g>
   <g id="text_23">
    <!-- 0.1448 -->
    <g style="fill: #262626" transform="translate(387.273594 97.941639)scale(0.11 -0.11)">
     <use xlink:href="#ArialMT-30"/>
     <use xlink:href="#ArialMT-2e" x="55.615234"/>
     <use xlink:href="#ArialMT-31" x="83.398438"/>
     <use xlink:href="#ArialMT-34" x="139.013672"/>
     <use xlink:href="#ArialMT-34" x="194.628906"/>
     <use xlink:href="#ArialMT-38" x="250.244141"/>
    </g>
   </g>
   <g id="line2d_33">
    <path d="M 356.473594 109.651482 
L 367.473594 109.651482 
L 378.473594 109.651482 
" style="fill: none; stroke: #21918c; stroke-width: 1.5; stroke-linecap: round"/>
   </g>
   <g id="text_24">
    <!-- 0.1948 -->
    <g style="fill: #262626" transform="translate(387.273594 113.501482)scale(0.11 -0.11)">
     <use xlink:href="#ArialMT-30"/>
     <use xlink:href="#ArialMT-2e" x="55.615234"/>
     <use xlink:href="#ArialMT-31" x="83.398438"/>
     <use xlink:href="#ArialMT-39" x="139.013672"/>
     <use xlink:href="#ArialMT-34" x="194.628906"/>
     <use xlink:href="#ArialMT-38" x="250.244141"/>
    </g>
   </g>
   <g id="line2d_34">
    <path d="M 356.473594 125.211326 
L 367.473594 125.211326 
L 378.473594 125.211326 
" style="fill: none; stroke: #44bf70; stroke-width: 1.5; stroke-linecap: round"/>
   </g>
   <g id="text_25">
    <!-- 0.2488 -->
    <g style="fill: #262626" transform="translate(387.273594 129.061326)scale(0.11 -0.11)">
     <use xlink:href="#ArialMT-30"/>
     <use xlink:href="#ArialMT-2e" x="55.615234"/>
     <use xlink:href="#ArialMT-32" x="83.398438"/>
     <use xlink:href="#ArialMT-34" x="139.013672"/>
     <use xlink:href="#ArialMT-38" x="194.628906"/>
     <use xlink:href="#ArialMT-38" x="250.244141"/>
    </g>
   </g>
   <g id="line2d_35">
    <path d="M 356.473594 140.77117 
L 367.473594 140.77117 
L 378.473594 140.77117 
" style="fill: none; stroke: #bddf26; stroke-width: 1.5; stroke-linecap: round"/>
   </g>
   <g id="text_26">
    <!-- 0.2948 -->
    <g style="fill: #262626" transform="translate(387.273594 144.62117)scale(0.11 -0.11)">
     <use xlink:href="#ArialMT-30"/>
     <use xlink:href="#ArialMT-2e" x="55.615234"/>
     <use xlink:href="#ArialMT-32" x="83.398438"/>
     <use xlink:href="#ArialMT-39" x="139.013672"/>
     <use xlink:href="#ArialMT-34" x="194.628906"/>
     <use xlink:href="#ArialMT-38" x="250.244141"/>
    </g>
   </g>
  </g>
 </g>
 <defs>
  <clipPath id="p3b226b3373">
   <rect x="51.114688" y="24.119531" width="142.243902" height="142.243902"/>
  </clipPath>
  <clipPath id="p1ca3813078">
   <rect x="200.470785" y="24.119531" width="142.243902" height="142.243902"/>
  </clipPath>
 </defs>
</svg>
