<?xml version="1.0" encoding="utf-8" standalone="no"?>
<!DOCTYPE svg PUBLIC "-//W3C//DTD SVG 1.1//EN"
  "http://www.w3.org/Graphics/SVG/1.1/DTD/svg11.dtd">
<svg xmlns:xlink="http://www.w3.org/1999/xlink" width="436.931719pt" height="204.841246pt" viewBox="0 0 436.931719 204.841246" xmlns="http://www.w3.org/2000/svg" version="1.1">
 <metadata>
  <rdf:RDF xmlns:dc="http://purl.org/dc/elements/1.1/" xmlns:cc="http://creativecommons.org/ns#" xmlns:rdf="http://www.w3.org/1999/02/22-rdf-syntax-ns#">
   <cc:Work>
    <dc:type rdf:resource="http://purl.org/dc/dcmitype/StillImage"/>
    <dc:date>2022-10-12T15:01:21.464777</dc:date>
    <dc:format>image/svg+xml</dc:format>
    <dc:creator>
     <cc:Agent>
      <dc:title>Matplotlib v3.5.1, https://matplotlib.org/</dc:title>
     </cc:Agent>
    </dc:creator>
   </cc:Work>
  </rdf:RDF>
 </metadata>
 <defs>
  <style type="text/css">*{stroke-linejoin: round; stroke-linecap: butt}</style>
 </defs>
 <g id="figure_1">
  <g id="patch_1">
   <path d="M 0 204.841246 
L 436.931719 204.841246 
L 436.931719 0 
L 0 0 
z
" style="fill: #ffffff"/>
  </g>
  <g id="axes_1">
   <g id="patch_2">
    <path d="M 57.231719 166.363434 
L 199.475621 166.363434 
L 199.475621 24.119531 
L 57.231719 24.119531 
z
" style="fill: #ffffff"/>
   </g>
   <g id="matplotlib.axis_1">
    <g id="xtick_1">
     <g id="line2d_1">
      <path d="M 84.223166 166.363434 
L 84.223166 24.119531 
" clip-path="url(#p7f4508f9f6)" style="fill: none; stroke: #cccccc; stroke-linecap: round"/>
     </g>
     <g id="text_1">
      <!-- 20 -->
      <g style="fill: #262626" transform="translate(78.106135 177.737027)scale(0.11 -0.11)">
       <defs>
        <path id="ArialMT-32" d="M 3222 541 
L 3222 0 
L 194 0 
Q 188 203 259 391 
Q 375 700 629 1000 
Q 884 1300 1366 1694 
Q 2113 2306 2375 2664 
Q 2638 3022 2638 3341 
Q 2638 3675 2398 3904 
Q 2159 4134 1775 4134 
Q 1369 4134 1125 3890 
Q 881 3647 878 3216 
L 300 3275 
Q 359 3922 746 4261 
Q 1134 4600 1788 4600 
Q 2447 4600 2831 4234 
Q 3216 3869 3216 3328 
Q 3216 3053 3103 2787 
Q 2991 2522 2730 2228 
Q 2469 1934 1863 1422 
Q 1356 997 1212 845 
Q 1069 694 975 541 
L 3222 541 
z
" transform="scale(0.015625)"/>
        <path id="ArialMT-30" d="M 266 2259 
Q 266 3072 433 3567 
Q 600 4063 929 4331 
Q 1259 4600 1759 4600 
Q 2128 4600 2406 4451 
Q 2684 4303 2865 4023 
Q 3047 3744 3150 3342 
Q 3253 2941 3253 2259 
Q 3253 1453 3087 958 
Q 2922 463 2592 192 
Q 2263 -78 1759 -78 
Q 1097 -78 719 397 
Q 266 969 266 2259 
z
M 844 2259 
Q 844 1131 1108 757 
Q 1372 384 1759 384 
Q 2147 384 2411 759 
Q 2675 1134 2675 2259 
Q 2675 3391 2411 3762 
Q 2147 4134 1753 4134 
Q 1366 4134 1134 3806 
Q 844 3388 844 2259 
z
" transform="scale(0.015625)"/>
       </defs>
       <use xlink:href="#ArialMT-32"/>
       <use xlink:href="#ArialMT-30" x="55.615234"/>
      </g>
     </g>
    </g>
    <g id="xtick_2">
     <g id="line2d_2">
      <path d="M 125.274798 166.363434 
L 125.274798 24.119531 
" clip-path="url(#p7f4508f9f6)" style="fill: none; stroke: #cccccc; stroke-linecap: round"/>
     </g>
     <g id="text_2">
      <!-- 40 -->
      <g style="fill: #262626" transform="translate(119.157766 177.737027)scale(0.11 -0.11)">
       <defs>
        <path id="ArialMT-34" d="M 2069 0 
L 2069 1097 
L 81 1097 
L 81 1613 
L 2172 4581 
L 2631 4581 
L 2631 1613 
L 3250 1613 
L 3250 1097 
L 2631 1097 
L 2631 0 
L 2069 0 
z
M 2069 1613 
L 2069 3678 
L 634 1613 
L 2069 1613 
z
" transform="scale(0.015625)"/>
       </defs>
       <use xlink:href="#ArialMT-34"/>
       <use xlink:href="#ArialMT-30" x="55.615234"/>
      </g>
     </g>
    </g>
    <g id="xtick_3">
     <g id="line2d_3">
      <path d="M 166.326429 166.363434 
L 166.326429 24.119531 
" clip-path="url(#p7f4508f9f6)" style="fill: none; stroke: #cccccc; stroke-linecap: round"/>
     </g>
     <g id="text_3">
      <!-- 60 -->
      <g style="fill: #262626" transform="translate(160.209398 177.737027)scale(0.11 -0.11)">
       <defs>
        <path id="ArialMT-36" d="M 3184 3459 
L 2625 3416 
Q 2550 3747 2413 3897 
Q 2184 4138 1850 4138 
Q 1581 4138 1378 3988 
Q 1113 3794 959 3422 
Q 806 3050 800 2363 
Q 1003 2672 1297 2822 
Q 1591 2972 1913 2972 
Q 2475 2972 2870 2558 
Q 3266 2144 3266 1488 
Q 3266 1056 3080 686 
Q 2894 316 2569 119 
Q 2244 -78 1831 -78 
Q 1128 -78 684 439 
Q 241 956 241 2144 
Q 241 3472 731 4075 
Q 1159 4600 1884 4600 
Q 2425 4600 2770 4297 
Q 3116 3994 3184 3459 
z
M 888 1484 
Q 888 1194 1011 928 
Q 1134 663 1356 523 
Q 1578 384 1822 384 
Q 2178 384 2434 671 
Q 2691 959 2691 1453 
Q 2691 1928 2437 2201 
Q 2184 2475 1800 2475 
Q 1419 2475 1153 2201 
Q 888 1928 888 1484 
z
" transform="scale(0.015625)"/>
       </defs>
       <use xlink:href="#ArialMT-36"/>
       <use xlink:href="#ArialMT-30" x="55.615234"/>
      </g>
     </g>
    </g>
    <g id="text_4">
     <!-- Years -->
     <g style="fill: #262626" transform="translate(109.446639 194.659996)scale(0.15 -0.15)">
      <defs>
       <path id="ArialMT-59" d="M 1784 0 
L 1784 1941 
L 19 4581 
L 756 4581 
L 1659 3200 
Q 1909 2813 2125 2425 
Q 2331 2784 2625 3234 
L 3513 4581 
L 4219 4581 
L 2391 1941 
L 2391 0 
L 1784 0 
z
" transform="scale(0.015625)"/>
       <path id="ArialMT-65" d="M 2694 1069 
L 3275 997 
Q 3138 488 2766 206 
Q 2394 -75 1816 -75 
Q 1088 -75 661 373 
Q 234 822 234 1631 
Q 234 2469 665 2931 
Q 1097 3394 1784 3394 
Q 2450 3394 2872 2941 
Q 3294 2488 3294 1666 
Q 3294 1616 3291 1516 
L 816 1516 
Q 847 969 1125 678 
Q 1403 388 1819 388 
Q 2128 388 2347 550 
Q 2566 713 2694 1069 
z
M 847 1978 
L 2700 1978 
Q 2663 2397 2488 2606 
Q 2219 2931 1791 2931 
Q 1403 2931 1139 2672 
Q 875 2413 847 1978 
z
" transform="scale(0.015625)"/>
       <path id="ArialMT-61" d="M 2588 409 
Q 2275 144 1986 34 
Q 1697 -75 1366 -75 
Q 819 -75 525 192 
Q 231 459 231 875 
Q 231 1119 342 1320 
Q 453 1522 633 1644 
Q 813 1766 1038 1828 
Q 1203 1872 1538 1913 
Q 2219 1994 2541 2106 
Q 2544 2222 2544 2253 
Q 2544 2597 2384 2738 
Q 2169 2928 1744 2928 
Q 1347 2928 1158 2789 
Q 969 2650 878 2297 
L 328 2372 
Q 403 2725 575 2942 
Q 747 3159 1072 3276 
Q 1397 3394 1825 3394 
Q 2250 3394 2515 3294 
Q 2781 3194 2906 3042 
Q 3031 2891 3081 2659 
Q 3109 2516 3109 2141 
L 3109 1391 
Q 3109 606 3145 398 
Q 3181 191 3288 0 
L 2700 0 
Q 2613 175 2588 409 
z
M 2541 1666 
Q 2234 1541 1622 1453 
Q 1275 1403 1131 1340 
Q 988 1278 909 1158 
Q 831 1038 831 891 
Q 831 666 1001 516 
Q 1172 366 1500 366 
Q 1825 366 2078 508 
Q 2331 650 2450 897 
Q 2541 1088 2541 1459 
L 2541 1666 
z
" transform="scale(0.015625)"/>
       <path id="ArialMT-72" d="M 416 0 
L 416 3319 
L 922 3319 
L 922 2816 
Q 1116 3169 1280 3281 
Q 1444 3394 1641 3394 
Q 1925 3394 2219 3213 
L 2025 2691 
Q 1819 2813 1613 2813 
Q 1428 2813 1281 2702 
Q 1134 2591 1072 2394 
Q 978 2094 978 1738 
L 978 0 
L 416 0 
z
" transform="scale(0.015625)"/>
       <path id="ArialMT-73" d="M 197 991 
L 753 1078 
Q 800 744 1014 566 
Q 1228 388 1613 388 
Q 2000 388 2187 545 
Q 2375 703 2375 916 
Q 2375 1106 2209 1216 
Q 2094 1291 1634 1406 
Q 1016 1563 777 1677 
Q 538 1791 414 1992 
Q 291 2194 291 2438 
Q 291 2659 392 2848 
Q 494 3038 669 3163 
Q 800 3259 1026 3326 
Q 1253 3394 1513 3394 
Q 1903 3394 2198 3281 
Q 2494 3169 2634 2976 
Q 2775 2784 2828 2463 
L 2278 2388 
Q 2241 2644 2061 2787 
Q 1881 2931 1553 2931 
Q 1166 2931 1000 2803 
Q 834 2675 834 2503 
Q 834 2394 903 2306 
Q 972 2216 1119 2156 
Q 1203 2125 1616 2013 
Q 2213 1853 2448 1751 
Q 2684 1650 2818 1456 
Q 2953 1263 2953 975 
Q 2953 694 2789 445 
Q 2625 197 2315 61 
Q 2006 -75 1616 -75 
Q 969 -75 630 194 
Q 291 463 197 991 
z
" transform="scale(0.015625)"/>
      </defs>
      <use xlink:href="#ArialMT-59"/>
      <use xlink:href="#ArialMT-65" x="57.574219"/>
      <use xlink:href="#ArialMT-61" x="113.189453"/>
      <use xlink:href="#ArialMT-72" x="168.804688"/>
      <use xlink:href="#ArialMT-73" x="202.105469"/>
     </g>
    </g>
   </g>
   <g id="matplotlib.axis_2">
    <g id="ytick_1">
     <g id="line2d_4">
      <path d="M 57.231719 147.023656 
L 199.475621 147.023656 
" clip-path="url(#p7f4508f9f6)" style="fill: none; stroke: #cccccc; stroke-linecap: round"/>
     </g>
     <g id="text_5">
      <!-- −0.03 -->
      <g style="fill: #262626" transform="translate(25.9 150.960453)scale(0.11 -0.11)">
       <defs>
        <path id="ArialMT-2212" d="M 3381 1997 
L 356 1997 
L 356 2522 
L 3381 2522 
L 3381 1997 
z
" transform="scale(0.015625)"/>
        <path id="ArialMT-2e" d="M 581 0 
L 581 641 
L 1222 641 
L 1222 0 
L 581 0 
z
" transform="scale(0.015625)"/>
        <path id="ArialMT-33" d="M 269 1209 
L 831 1284 
Q 928 806 1161 595 
Q 1394 384 1728 384 
Q 2125 384 2398 659 
Q 2672 934 2672 1341 
Q 2672 1728 2419 1979 
Q 2166 2231 1775 2231 
Q 1616 2231 1378 2169 
L 1441 2663 
Q 1497 2656 1531 2656 
Q 1891 2656 2178 2843 
Q 2466 3031 2466 3422 
Q 2466 3731 2256 3934 
Q 2047 4138 1716 4138 
Q 1388 4138 1169 3931 
Q 950 3725 888 3313 
L 325 3413 
Q 428 3978 793 4289 
Q 1159 4600 1703 4600 
Q 2078 4600 2393 4439 
Q 2709 4278 2876 4000 
Q 3044 3722 3044 3409 
Q 3044 3113 2884 2869 
Q 2725 2625 2413 2481 
Q 2819 2388 3044 2092 
Q 3269 1797 3269 1353 
Q 3269 753 2831 336 
Q 2394 -81 1725 -81 
Q 1122 -81 723 278 
Q 325 638 269 1209 
z
" transform="scale(0.015625)"/>
       </defs>
       <use xlink:href="#ArialMT-2212"/>
       <use xlink:href="#ArialMT-30" x="58.398438"/>
       <use xlink:href="#ArialMT-2e" x="114.013672"/>
       <use xlink:href="#ArialMT-30" x="141.796875"/>
       <use xlink:href="#ArialMT-33" x="197.412109"/>
      </g>
     </g>
    </g>
    <g id="ytick_2">
     <g id="line2d_5">
      <path d="M 57.231719 121.450893 
L 199.475621 121.450893 
" clip-path="url(#p7f4508f9f6)" style="fill: none; stroke: #cccccc; stroke-linecap: round"/>
     </g>
     <g id="text_6">
      <!-- −0.02 -->
      <g style="fill: #262626" transform="translate(25.9 125.38769)scale(0.11 -0.11)">
       <use xlink:href="#ArialMT-2212"/>
       <use xlink:href="#ArialMT-30" x="58.398438"/>
       <use xlink:href="#ArialMT-2e" x="114.013672"/>
       <use xlink:href="#ArialMT-30" x="141.796875"/>
       <use xlink:href="#ArialMT-32" x="197.412109"/>
      </g>
     </g>
    </g>
    <g id="ytick_3">
     <g id="line2d_6">
      <path d="M 57.231719 95.87813 
L 199.475621 95.87813 
" clip-path="url(#p7f4508f9f6)" style="fill: none; stroke: #cccccc; stroke-linecap: round"/>
     </g>
     <g id="text_7">
      <!-- −0.01 -->
      <g style="fill: #262626" transform="translate(25.9 99.814927)scale(0.11 -0.11)">
       <defs>
        <path id="ArialMT-31" d="M 2384 0 
L 1822 0 
L 1822 3584 
Q 1619 3391 1289 3197 
Q 959 3003 697 2906 
L 697 3450 
Q 1169 3672 1522 3987 
Q 1875 4303 2022 4600 
L 2384 4600 
L 2384 0 
z
" transform="scale(0.015625)"/>
       </defs>
       <use xlink:href="#ArialMT-2212"/>
       <use xlink:href="#ArialMT-30" x="58.398438"/>
       <use xlink:href="#ArialMT-2e" x="114.013672"/>
       <use xlink:href="#ArialMT-30" x="141.796875"/>
       <use xlink:href="#ArialMT-31" x="197.412109"/>
      </g>
     </g>
    </g>
    <g id="ytick_4">
     <g id="line2d_7">
      <path d="M 57.231719 70.305367 
L 199.475621 70.305367 
" clip-path="url(#p7f4508f9f6)" style="fill: none; stroke: #cccccc; stroke-linecap: round"/>
     </g>
     <g id="text_8">
      <!-- 0.00 -->
      <g style="fill: #262626" transform="translate(32.324688 74.242164)scale(0.11 -0.11)">
       <use xlink:href="#ArialMT-30"/>
       <use xlink:href="#ArialMT-2e" x="55.615234"/>
       <use xlink:href="#ArialMT-30" x="83.398438"/>
       <use xlink:href="#ArialMT-30" x="139.013672"/>
      </g>
     </g>
    </g>
    <g id="ytick_5">
     <g id="line2d_8">
      <path d="M 57.231719 44.732604 
L 199.475621 44.732604 
" clip-path="url(#p7f4508f9f6)" style="fill: none; stroke: #cccccc; stroke-linecap: round"/>
     </g>
     <g id="text_9">
      <!-- 0.01 -->
      <g style="fill: #262626" transform="translate(32.324688 48.669401)scale(0.11 -0.11)">
       <use xlink:href="#ArialMT-30"/>
       <use xlink:href="#ArialMT-2e" x="55.615234"/>
       <use xlink:href="#ArialMT-30" x="83.398438"/>
       <use xlink:href="#ArialMT-31" x="139.013672"/>
      </g>
     </g>
    </g>
    <g id="text_10">
     <!-- Sensitivity of $\lambda$ -->
     <g style="fill: #262626" transform="translate(18.6 143.916482)rotate(-90)scale(0.15 -0.15)">
      <defs>
       <path id="ArialMT-53" d="M 288 1472 
L 859 1522 
Q 900 1178 1048 958 
Q 1197 738 1509 602 
Q 1822 466 2213 466 
Q 2559 466 2825 569 
Q 3091 672 3220 851 
Q 3350 1031 3350 1244 
Q 3350 1459 3225 1620 
Q 3100 1781 2813 1891 
Q 2628 1963 1997 2114 
Q 1366 2266 1113 2400 
Q 784 2572 623 2826 
Q 463 3081 463 3397 
Q 463 3744 659 4045 
Q 856 4347 1234 4503 
Q 1613 4659 2075 4659 
Q 2584 4659 2973 4495 
Q 3363 4331 3572 4012 
Q 3781 3694 3797 3291 
L 3216 3247 
Q 3169 3681 2898 3903 
Q 2628 4125 2100 4125 
Q 1550 4125 1298 3923 
Q 1047 3722 1047 3438 
Q 1047 3191 1225 3031 
Q 1400 2872 2139 2705 
Q 2878 2538 3153 2413 
Q 3553 2228 3743 1945 
Q 3934 1663 3934 1294 
Q 3934 928 3725 604 
Q 3516 281 3123 101 
Q 2731 -78 2241 -78 
Q 1619 -78 1198 103 
Q 778 284 539 648 
Q 300 1013 288 1472 
z
" transform="scale(0.015625)"/>
       <path id="ArialMT-6e" d="M 422 0 
L 422 3319 
L 928 3319 
L 928 2847 
Q 1294 3394 1984 3394 
Q 2284 3394 2536 3286 
Q 2788 3178 2913 3003 
Q 3038 2828 3088 2588 
Q 3119 2431 3119 2041 
L 3119 0 
L 2556 0 
L 2556 2019 
Q 2556 2363 2490 2533 
Q 2425 2703 2258 2804 
Q 2091 2906 1866 2906 
Q 1506 2906 1245 2678 
Q 984 2450 984 1813 
L 984 0 
L 422 0 
z
" transform="scale(0.015625)"/>
       <path id="ArialMT-69" d="M 425 3934 
L 425 4581 
L 988 4581 
L 988 3934 
L 425 3934 
z
M 425 0 
L 425 3319 
L 988 3319 
L 988 0 
L 425 0 
z
" transform="scale(0.015625)"/>
       <path id="ArialMT-74" d="M 1650 503 
L 1731 6 
Q 1494 -44 1306 -44 
Q 1000 -44 831 53 
Q 663 150 594 308 
Q 525 466 525 972 
L 525 2881 
L 113 2881 
L 113 3319 
L 525 3319 
L 525 4141 
L 1084 4478 
L 1084 3319 
L 1650 3319 
L 1650 2881 
L 1084 2881 
L 1084 941 
Q 1084 700 1114 631 
Q 1144 563 1211 522 
Q 1278 481 1403 481 
Q 1497 481 1650 503 
z
" transform="scale(0.015625)"/>
       <path id="ArialMT-76" d="M 1344 0 
L 81 3319 
L 675 3319 
L 1388 1331 
Q 1503 1009 1600 663 
Q 1675 925 1809 1294 
L 2547 3319 
L 3125 3319 
L 1869 0 
L 1344 0 
z
" transform="scale(0.015625)"/>
       <path id="ArialMT-79" d="M 397 -1278 
L 334 -750 
Q 519 -800 656 -800 
Q 844 -800 956 -737 
Q 1069 -675 1141 -563 
Q 1194 -478 1313 -144 
Q 1328 -97 1363 -6 
L 103 3319 
L 709 3319 
L 1400 1397 
Q 1534 1031 1641 628 
Q 1738 1016 1872 1384 
L 2581 3319 
L 3144 3319 
L 1881 -56 
Q 1678 -603 1566 -809 
Q 1416 -1088 1222 -1217 
Q 1028 -1347 759 -1347 
Q 597 -1347 397 -1278 
z
" transform="scale(0.015625)"/>
       <path id="ArialMT-20" transform="scale(0.015625)"/>
       <path id="ArialMT-6f" d="M 213 1659 
Q 213 2581 725 3025 
Q 1153 3394 1769 3394 
Q 2453 3394 2887 2945 
Q 3322 2497 3322 1706 
Q 3322 1066 3130 698 
Q 2938 331 2570 128 
Q 2203 -75 1769 -75 
Q 1072 -75 642 372 
Q 213 819 213 1659 
z
M 791 1659 
Q 791 1022 1069 705 
Q 1347 388 1769 388 
Q 2188 388 2466 706 
Q 2744 1025 2744 1678 
Q 2744 2294 2464 2611 
Q 2184 2928 1769 2928 
Q 1347 2928 1069 2612 
Q 791 2297 791 1659 
z
" transform="scale(0.015625)"/>
       <path id="ArialMT-66" d="M 556 0 
L 556 2881 
L 59 2881 
L 59 3319 
L 556 3319 
L 556 3672 
Q 556 4006 616 4169 
Q 697 4388 901 4523 
Q 1106 4659 1475 4659 
Q 1713 4659 2000 4603 
L 1916 4113 
Q 1741 4144 1584 4144 
Q 1328 4144 1222 4034 
Q 1116 3925 1116 3625 
L 1116 3319 
L 1763 3319 
L 1763 2881 
L 1116 2881 
L 1116 0 
L 556 0 
z
" transform="scale(0.015625)"/>
       <path id="DejaVuSans-Oblique-3bb" d="M 2350 4316 
L 3125 0 
L 2516 0 
L 2038 2588 
L 328 0 
L -281 0 
L 1903 3356 
L 1794 3975 
Q 1725 4369 1391 4369 
L 1091 4369 
L 1184 4863 
L 1550 4856 
Q 2253 4847 2350 4316 
z
" transform="scale(0.015625)"/>
      </defs>
      <use xlink:href="#ArialMT-53" transform="translate(0 0.015625)"/>
      <use xlink:href="#ArialMT-65" transform="translate(66.699219 0.015625)"/>
      <use xlink:href="#ArialMT-6e" transform="translate(122.314453 0.015625)"/>
      <use xlink:href="#ArialMT-73" transform="translate(177.929688 0.015625)"/>
      <use xlink:href="#ArialMT-69" transform="translate(227.929688 0.015625)"/>
      <use xlink:href="#ArialMT-74" transform="translate(250.146484 0.015625)"/>
      <use xlink:href="#ArialMT-69" transform="translate(277.929688 0.015625)"/>
      <use xlink:href="#ArialMT-76" transform="translate(300.146484 0.015625)"/>
      <use xlink:href="#ArialMT-69" transform="translate(350.146484 0.015625)"/>
      <use xlink:href="#ArialMT-74" transform="translate(372.363281 0.015625)"/>
      <use xlink:href="#ArialMT-79" transform="translate(400.146484 0.015625)"/>
      <use xlink:href="#ArialMT-20" transform="translate(450.146484 0.015625)"/>
      <use xlink:href="#ArialMT-6f" transform="translate(477.929688 0.015625)"/>
      <use xlink:href="#ArialMT-66" transform="translate(533.544922 0.015625)"/>
      <use xlink:href="#ArialMT-20" transform="translate(561.328125 0.015625)"/>
      <use xlink:href="#DejaVuSans-Oblique-3bb" transform="translate(589.111328 0.015625)"/>
     </g>
    </g>
   </g>
   <g id="line2d_9">
    <path d="M 63.697351 65.668332 
L 65.749932 55.628602 
L 67.802514 48.852714 
L 69.855095 45.830068 
L 71.907677 46.272127 
L 73.960259 49.17486 
L 76.01284 53.288377 
L 78.065422 57.54891 
L 80.118003 61.287516 
L 82.170585 64.226338 
L 84.223166 66.360067 
L 86.275748 67.820332 
L 88.328329 68.776304 
L 90.380911 69.381559 
L 92.433493 69.755192 
L 94.486074 69.981429 
L 96.538656 70.116383 
L 98.591237 70.195944 
L 100.643819 70.242408 
L 102.6964 70.269334 
L 104.748982 70.284839 
L 106.801564 70.293719 
L 108.854145 70.29878 
L 110.906727 70.301654 
L 112.959308 70.30328 
L 115.01189 70.304197 
L 117.064471 70.304712 
L 119.117053 70.305002 
L 121.169634 70.305163 
L 123.222216 70.305254 
L 125.274798 70.305304 
L 127.327379 70.305332 
L 129.379961 70.305348 
L 131.432542 70.305356 
L 133.485124 70.305361 
L 135.537705 70.305364 
L 137.590287 70.305365 
L 139.642869 70.305366 
L 141.69545 70.305367 
L 143.748032 70.305367 
L 145.800613 70.305367 
L 147.853195 70.305367 
L 149.905776 70.305367 
L 151.958358 70.305367 
L 154.01094 70.305367 
L 156.063521 70.305367 
L 158.116103 70.305367 
L 160.168684 70.305367 
L 162.221266 70.305367 
L 164.273847 70.305367 
L 166.326429 70.305367 
L 168.37901 70.305367 
L 170.431592 70.305367 
L 172.484174 70.305367 
L 174.536755 70.305367 
L 176.589337 70.305367 
L 178.641918 70.305367 
L 180.6945 70.305367 
L 182.747081 70.305367 
L 184.799663 70.305367 
L 186.852245 70.305367 
L 188.904826 70.305367 
L 190.957408 70.305367 
L 193.009989 70.305367 
" clip-path="url(#p7f4508f9f6)" style="fill: none; stroke: #482475; stroke-width: 1.5; stroke-linecap: round"/>
   </g>
   <g id="line2d_10">
    <path d="M 63.697351 72.240439 
L 65.749932 59.262405 
L 67.802514 49.129215 
L 69.855095 42.684374 
L 71.907677 40.20118 
L 73.960259 41.134338 
L 76.01284 44.415163 
L 78.065422 48.86726 
L 80.118003 53.515808 
L 82.170585 57.72929 
L 84.223166 61.210576 
L 86.275748 63.905239 
L 88.328329 65.894915 
L 90.380911 67.314381 
L 92.433493 68.301861 
L 94.486074 68.97616 
L 96.538656 69.430227 
L 98.591237 69.732742 
L 100.643819 69.932608 
L 102.6964 70.063768 
L 104.748982 70.149363 
L 106.801564 70.204962 
L 108.854145 70.240933 
L 110.906727 70.264123 
L 112.959308 70.279028 
L 115.01189 70.288582 
L 117.064471 70.294691 
L 119.117053 70.298588 
L 121.169634 70.30107 
L 123.222216 70.302647 
L 125.274798 70.303648 
L 127.327379 70.304282 
L 129.379961 70.304683 
L 131.432542 70.304936 
L 133.485124 70.305096 
L 135.537705 70.305197 
L 137.590287 70.30526 
L 139.642869 70.3053 
L 141.69545 70.305325 
L 143.748032 70.305341 
L 145.800613 70.305351 
L 147.853195 70.305357 
L 149.905776 70.305361 
L 151.958358 70.305363 
L 154.01094 70.305365 
L 156.063521 70.305366 
L 158.116103 70.305366 
L 160.168684 70.305367 
L 162.221266 70.305367 
L 164.273847 70.305367 
L 166.326429 70.305367 
L 168.37901 70.305367 
L 170.431592 70.305367 
L 172.484174 70.305367 
L 174.536755 70.305367 
L 176.589337 70.305367 
L 178.641918 70.305367 
L 180.6945 70.305367 
L 182.747081 70.305367 
L 184.799663 70.305367 
L 186.852245 70.305367 
L 188.904826 70.305367 
L 190.957408 70.305367 
L 193.009989 70.305367 
" clip-path="url(#p7f4508f9f6)" style="fill: none; stroke: #355f8d; stroke-width: 1.5; stroke-linecap: round"/>
   </g>
   <g id="line2d_11">
    <path d="M 63.697351 86.63309 
L 65.749932 70.92984 
L 67.802514 57.048764 
L 69.855095 45.991119 
L 71.907677 38.601447 
L 73.960259 35.034027 
L 76.01284 34.829471 
L 78.065422 37.158026 
L 80.118003 41.057561 
L 82.170585 45.646427 
L 84.223166 50.255982 
L 86.275748 54.466211 
L 88.328329 58.072678 
L 90.380911 61.024231 
L 92.433493 63.360819 
L 94.486074 65.165632 
L 96.538656 66.534235 
L 98.591237 67.557624 
L 100.643819 68.314645 
L 102.6964 68.869887 
L 104.748982 69.274369 
L 106.801564 69.567392 
L 108.854145 69.77869 
L 110.906727 69.930463 
L 112.959308 70.039113 
L 115.01189 70.116666 
L 117.064471 70.171879 
L 119.117053 70.211097 
L 121.169634 70.238897 
L 123.222216 70.258566 
L 125.274798 70.272458 
L 127.327379 70.282255 
L 129.379961 70.289154 
L 131.432542 70.294006 
L 133.485124 70.297414 
L 135.537705 70.299804 
L 137.590287 70.30148 
L 139.642869 70.302653 
L 141.69545 70.303474 
L 143.748032 70.304047 
L 145.800613 70.304448 
L 147.853195 70.304727 
L 149.905776 70.304922 
L 151.958358 70.305057 
L 154.01094 70.305152 
L 156.063521 70.305218 
L 158.116103 70.305263 
L 160.168684 70.305295 
L 162.221266 70.305317 
L 164.273847 70.305333 
L 166.326429 70.305343 
L 168.37901 70.305351 
L 170.431592 70.305356 
L 172.484174 70.305359 
L 174.536755 70.305362 
L 176.589337 70.305363 
L 178.641918 70.305365 
L 180.6945 70.305365 
L 182.747081 70.305366 
L 184.799663 70.305366 
L 186.852245 70.305367 
L 188.904826 70.305367 
L 190.957408 70.305367 
L 193.009989 70.305367 
" clip-path="url(#p7f4508f9f6)" style="fill: none; stroke: #21918c; stroke-width: 1.5; stroke-linecap: round"/>
   </g>
   <g id="line2d_12">
    <path d="M 63.697351 114.237586 
L 65.749932 97.533703 
L 67.802514 81.209115 
L 69.855095 66.054912 
L 71.907677 53.114063 
L 73.960259 42.994314 
L 76.01284 35.937126 
L 78.065422 31.905997 
L 80.118003 30.585163 
L 82.170585 31.453076 
L 84.223166 33.902203 
L 86.275748 37.341965 
L 88.328329 41.266714 
L 90.380911 45.288493 
L 92.433493 49.140533 
L 94.486074 52.661797 
L 96.538656 55.773213 
L 98.591237 58.453238 
L 100.643819 60.71694 
L 102.6964 62.600038 
L 104.748982 64.147745 
L 106.801564 65.407582 
L 108.854145 66.425109 
L 110.906727 67.241684 
L 112.959308 67.893521 
L 115.01189 68.411541 
L 117.064471 68.82166 
L 119.117053 69.1453 
L 121.169634 69.399977 
L 123.222216 69.59989 
L 125.274798 69.756474 
L 127.327379 69.878879 
L 129.379961 69.974399 
L 131.432542 70.04882 
L 133.485124 70.106718 
L 135.537705 70.151702 
L 137.590287 70.186609 
L 139.642869 70.213666 
L 141.69545 70.234616 
L 143.748032 70.250822 
L 145.800613 70.263347 
L 147.853195 70.273017 
L 149.905776 70.280479 
L 151.958358 70.286231 
L 154.01094 70.290662 
L 156.063521 70.294074 
L 158.116103 70.296698 
L 160.168684 70.298716 
L 162.221266 70.300267 
L 164.273847 70.301458 
L 166.326429 70.302372 
L 168.37901 70.303074 
L 170.431592 70.303611 
L 172.484174 70.304024 
L 174.536755 70.30434 
L 176.589337 70.304581 
L 178.641918 70.304767 
L 180.6945 70.304908 
L 182.747081 70.305017 
L 184.799663 70.305099 
L 186.852245 70.305163 
L 188.904826 70.305211 
L 190.957408 70.305248 
L 193.009989 70.305276 
" clip-path="url(#p7f4508f9f6)" style="fill: none; stroke: #44bf70; stroke-width: 1.5; stroke-linecap: round"/>
   </g>
   <g id="line2d_13">
    <path d="M 63.697351 159.897802 
L 65.749932 145.878046 
L 67.802514 131.082951 
L 69.855095 115.997358 
L 71.907677 101.400164 
L 73.960259 87.618788 
L 76.01284 74.930617 
L 78.065422 63.672147 
L 80.118003 54.08735 
L 82.170585 46.293967 
L 84.223166 40.312567 
L 86.275748 36.076261 
L 88.328329 33.440959 
L 90.380911 32.207699 
L 92.433493 32.147356 
L 94.486074 33.022082 
L 96.538656 34.602563 
L 98.591237 36.680469 
L 100.643819 39.075871 
L 102.6964 41.640285 
L 104.748982 44.256406 
L 106.801564 46.835656 
L 108.854145 49.314484 
L 110.906727 51.650181 
L 112.959308 53.816729 
L 115.01189 55.800992 
L 117.064471 57.599423 
L 119.117053 59.21533 
L 121.169634 60.656685 
L 123.222216 61.934422 
L 125.274798 63.061153 
L 127.327379 64.050225 
L 129.379961 64.915052 
L 131.432542 65.668658 
L 133.485124 66.323377 
L 135.537705 66.890682 
L 137.590287 67.381092 
L 139.642869 67.804142 
L 141.69545 68.168401 
L 143.748032 68.481508 
L 145.800613 68.750235 
L 147.853195 68.980552 
L 149.905776 69.177696 
L 151.958358 69.346249 
L 154.01094 69.490203 
L 156.063521 69.613024 
L 158.116103 69.717719 
L 160.168684 69.806885 
L 162.221266 69.882765 
L 164.273847 69.94729 
L 166.326429 70.00212 
L 168.37901 70.048681 
L 170.431592 70.088195 
L 172.484174 70.121709 
L 174.536755 70.150117 
L 176.589337 70.174186 
L 178.641918 70.194566 
L 180.6945 70.211815 
L 182.747081 70.226408 
L 184.799663 70.238748 
L 186.852245 70.249178 
L 188.904826 70.25799 
L 190.957408 70.265433 
L 193.009989 70.271716 
" clip-path="url(#p7f4508f9f6)" style="fill: none; stroke: #bddf26; stroke-width: 1.5; stroke-linecap: round"/>
   </g>
   <g id="patch_3">
    <path d="M 57.231719 166.363434 
L 57.231719 24.119531 
" style="fill: none; stroke: #cccccc; stroke-linejoin: miter; stroke-linecap: square"/>
   </g>
   <g id="patch_4">
    <path d="M 199.475621 166.363434 
L 199.475621 24.119531 
" style="fill: none; stroke: #cccccc; stroke-linejoin: miter; stroke-linecap: square"/>
   </g>
   <g id="patch_5">
    <path d="M 57.231719 166.363434 
L 199.475621 166.363434 
" style="fill: none; stroke: #cccccc; stroke-linejoin: miter; stroke-linecap: square"/>
   </g>
   <g id="patch_6">
    <path d="M 57.231719 24.119531 
L 199.475621 24.119531 
" style="fill: none; stroke: #cccccc; stroke-linejoin: miter; stroke-linecap: square"/>
   </g>
   <g id="text_11">
    <!-- La Grange -->
    <g style="fill: #262626" transform="translate(92.914998 18.119531)scale(0.15 -0.15)">
     <defs>
      <path id="ArialMT-4c" d="M 469 0 
L 469 4581 
L 1075 4581 
L 1075 541 
L 3331 541 
L 3331 0 
L 469 0 
z
" transform="scale(0.015625)"/>
      <path id="ArialMT-47" d="M 2638 1797 
L 2638 2334 
L 4578 2338 
L 4578 638 
Q 4131 281 3656 101 
Q 3181 -78 2681 -78 
Q 2006 -78 1454 211 
Q 903 500 622 1047 
Q 341 1594 341 2269 
Q 341 2938 620 3517 
Q 900 4097 1425 4378 
Q 1950 4659 2634 4659 
Q 3131 4659 3532 4498 
Q 3934 4338 4162 4050 
Q 4391 3763 4509 3300 
L 3963 3150 
Q 3859 3500 3706 3700 
Q 3553 3900 3268 4020 
Q 2984 4141 2638 4141 
Q 2222 4141 1919 4014 
Q 1616 3888 1430 3681 
Q 1244 3475 1141 3228 
Q 966 2803 966 2306 
Q 966 1694 1177 1281 
Q 1388 869 1791 669 
Q 2194 469 2647 469 
Q 3041 469 3416 620 
Q 3791 772 3984 944 
L 3984 1797 
L 2638 1797 
z
" transform="scale(0.015625)"/>
      <path id="ArialMT-67" d="M 319 -275 
L 866 -356 
Q 900 -609 1056 -725 
Q 1266 -881 1628 -881 
Q 2019 -881 2231 -725 
Q 2444 -569 2519 -288 
Q 2563 -116 2559 434 
Q 2191 0 1641 0 
Q 956 0 581 494 
Q 206 988 206 1678 
Q 206 2153 378 2554 
Q 550 2956 876 3175 
Q 1203 3394 1644 3394 
Q 2231 3394 2613 2919 
L 2613 3319 
L 3131 3319 
L 3131 450 
Q 3131 -325 2973 -648 
Q 2816 -972 2473 -1159 
Q 2131 -1347 1631 -1347 
Q 1038 -1347 672 -1080 
Q 306 -813 319 -275 
z
M 784 1719 
Q 784 1066 1043 766 
Q 1303 466 1694 466 
Q 2081 466 2343 764 
Q 2606 1063 2606 1700 
Q 2606 2309 2336 2618 
Q 2066 2928 1684 2928 
Q 1309 2928 1046 2623 
Q 784 2319 784 1719 
z
" transform="scale(0.015625)"/>
     </defs>
     <use xlink:href="#ArialMT-4c"/>
     <use xlink:href="#ArialMT-61" x="55.615234"/>
     <use xlink:href="#ArialMT-20" x="111.230469"/>
     <use xlink:href="#ArialMT-47" x="139.013672"/>
     <use xlink:href="#ArialMT-72" x="216.796875"/>
     <use xlink:href="#ArialMT-61" x="250.097656"/>
     <use xlink:href="#ArialMT-6e" x="305.712891"/>
     <use xlink:href="#ArialMT-67" x="361.328125"/>
     <use xlink:href="#ArialMT-65" x="416.943359"/>
    </g>
   </g>
  </g>
  <g id="axes_2">
   <g id="patch_7">
    <path d="M 206.587816 166.363434 
L 348.831719 166.363434 
L 348.831719 24.119531 
L 206.587816 24.119531 
z
" style="fill: #ffffff"/>
   </g>
   <g id="matplotlib.axis_3">
    <g id="xtick_4">
     <g id="line2d_14">
      <path d="M 233.579264 166.363434 
L 233.579264 24.119531 
" clip-path="url(#p82c2a7fc8d)" style="fill: none; stroke: #cccccc; stroke-linecap: round"/>
     </g>
     <g id="text_12">
      <!-- 20 -->
      <g style="fill: #262626" transform="translate(227.462233 177.737027)scale(0.11 -0.11)">
       <use xlink:href="#ArialMT-32"/>
       <use xlink:href="#ArialMT-30" x="55.615234"/>
      </g>
     </g>
    </g>
    <g id="xtick_5">
     <g id="line2d_15">
      <path d="M 274.630895 166.363434 
L 274.630895 24.119531 
" clip-path="url(#p82c2a7fc8d)" style="fill: none; stroke: #cccccc; stroke-linecap: round"/>
     </g>
     <g id="text_13">
      <!-- 40 -->
      <g style="fill: #262626" transform="translate(268.513864 177.737027)scale(0.11 -0.11)">
       <use xlink:href="#ArialMT-34"/>
       <use xlink:href="#ArialMT-30" x="55.615234"/>
      </g>
     </g>
    </g>
    <g id="xtick_6">
     <g id="line2d_16">
      <path d="M 315.682526 166.363434 
L 315.682526 24.119531 
" clip-path="url(#p82c2a7fc8d)" style="fill: none; stroke: #cccccc; stroke-linecap: round"/>
     </g>
     <g id="text_14">
      <!-- 60 -->
      <g style="fill: #262626" transform="translate(309.565495 177.737027)scale(0.11 -0.11)">
       <use xlink:href="#ArialMT-36"/>
       <use xlink:href="#ArialMT-30" x="55.615234"/>
      </g>
     </g>
    </g>
    <g id="text_15">
     <!-- Years -->
     <g style="fill: #262626" transform="translate(258.802736 194.659996)scale(0.15 -0.15)">
      <use xlink:href="#ArialMT-59"/>
      <use xlink:href="#ArialMT-65" x="57.574219"/>
      <use xlink:href="#ArialMT-61" x="113.189453"/>
      <use xlink:href="#ArialMT-72" x="168.804688"/>
      <use xlink:href="#ArialMT-73" x="202.105469"/>
     </g>
    </g>
   </g>
   <g id="matplotlib.axis_4">
    <g id="ytick_6">
     <g id="line2d_17">
      <path d="M 206.587816 147.023656 
L 348.831719 147.023656 
" clip-path="url(#p82c2a7fc8d)" style="fill: none; stroke: #cccccc; stroke-linecap: round"/>
     </g>
    </g>
    <g id="ytick_7">
     <g id="line2d_18">
      <path d="M 206.587816 121.450893 
L 348.831719 121.450893 
" clip-path="url(#p82c2a7fc8d)" style="fill: none; stroke: #cccccc; stroke-linecap: round"/>
     </g>
    </g>
    <g id="ytick_8">
     <g id="line2d_19">
      <path d="M 206.587816 95.87813 
L 348.831719 95.87813 
" clip-path="url(#p82c2a7fc8d)" style="fill: none; stroke: #cccccc; stroke-linecap: round"/>
     </g>
    </g>
    <g id="ytick_9">
     <g id="line2d_20">
      <path d="M 206.587816 70.305367 
L 348.831719 70.305367 
" clip-path="url(#p82c2a7fc8d)" style="fill: none; stroke: #cccccc; stroke-linecap: round"/>
     </g>
    </g>
    <g id="ytick_10">
     <g id="line2d_21">
      <path d="M 206.587816 44.732604 
L 348.831719 44.732604 
" clip-path="url(#p82c2a7fc8d)" style="fill: none; stroke: #cccccc; stroke-linecap: round"/>
     </g>
    </g>
   </g>
   <g id="line2d_22">
    <path d="M 213.053448 65.668332 
L 215.10603 55.628602 
L 217.158611 48.852714 
L 219.211193 45.830068 
L 221.263774 46.272127 
L 223.316356 49.17486 
L 225.368938 53.288377 
L 227.421519 57.54891 
L 229.474101 61.287516 
L 231.526682 64.226338 
L 233.579264 66.360067 
L 235.631845 67.820332 
L 237.684427 68.776304 
L 239.737009 69.381559 
L 241.78959 69.755192 
L 243.842172 69.981429 
L 245.894753 70.116383 
L 247.947335 70.195944 
L 249.999916 70.242408 
L 252.052498 70.269334 
L 254.10508 70.284839 
L 256.157661 70.293719 
L 258.210243 70.29878 
L 260.262824 70.301654 
L 262.315406 70.30328 
L 264.367987 70.304197 
L 266.420569 70.304712 
L 268.47315 70.305002 
L 270.525732 70.305163 
L 272.578314 70.305254 
L 274.630895 70.305304 
L 276.683477 70.305332 
L 278.736058 70.305348 
L 280.78864 70.305356 
L 282.841221 70.305361 
L 284.893803 70.305364 
L 286.946385 70.305365 
L 288.998966 70.305366 
L 291.051548 70.305367 
L 293.104129 70.305367 
L 295.156711 70.305367 
L 297.209292 70.305367 
L 299.261874 70.305367 
L 301.314456 70.305367 
L 303.367037 70.305367 
L 305.419619 70.305367 
L 307.4722 70.305367 
L 309.524782 70.305367 
L 311.577363 70.305367 
L 313.629945 70.305367 
L 315.682526 70.305367 
L 317.735108 70.305367 
L 319.78769 70.305367 
L 321.840271 70.305367 
L 323.892853 70.305367 
L 325.945434 70.305367 
L 327.998016 70.305367 
L 330.050597 70.305367 
L 332.103179 70.305367 
L 334.155761 70.305367 
L 336.208342 70.305367 
L 338.260924 70.305367 
L 340.313505 70.305367 
L 342.366087 70.305367 
" clip-path="url(#p82c2a7fc8d)" style="fill: none; stroke: #482475; stroke-width: 1.5; stroke-linecap: round"/>
   </g>
   <g id="line2d_23">
    <path d="M 213.053448 72.240439 
L 215.10603 59.262405 
L 217.158611 49.129215 
L 219.211193 42.684374 
L 221.263774 40.20118 
L 223.316356 41.134338 
L 225.368938 44.415163 
L 227.421519 48.86726 
L 229.474101 53.515808 
L 231.526682 57.72929 
L 233.579264 61.210576 
L 235.631845 63.905239 
L 237.684427 65.894915 
L 239.737009 67.314381 
L 241.78959 68.301861 
L 243.842172 68.97616 
L 245.894753 69.430227 
L 247.947335 69.732742 
L 249.999916 69.932608 
L 252.052498 70.063768 
L 254.10508 70.149363 
L 256.157661 70.204962 
L 258.210243 70.240933 
L 260.262824 70.264123 
L 262.315406 70.279028 
L 264.367987 70.288582 
L 266.420569 70.294691 
L 268.47315 70.298588 
L 270.525732 70.30107 
L 272.578314 70.302647 
L 274.630895 70.303648 
L 276.683477 70.304282 
L 278.736058 70.304683 
L 280.78864 70.304936 
L 282.841221 70.305096 
L 284.893803 70.305197 
L 286.946385 70.30526 
L 288.998966 70.3053 
L 291.051548 70.305325 
L 293.104129 70.305341 
L 295.156711 70.305351 
L 297.209292 70.305357 
L 299.261874 70.305361 
L 301.314456 70.305363 
L 303.367037 70.305365 
L 305.419619 70.305366 
L 307.4722 70.305366 
L 309.524782 70.305367 
L 311.577363 70.305367 
L 313.629945 70.305367 
L 315.682526 70.305367 
L 317.735108 70.305367 
L 319.78769 70.305367 
L 321.840271 70.305367 
L 323.892853 70.305367 
L 325.945434 70.305367 
L 327.998016 70.305367 
L 330.050597 70.305367 
L 332.103179 70.305367 
L 334.155761 70.305367 
L 336.208342 70.305367 
L 338.260924 70.305367 
L 340.313505 70.305367 
L 342.366087 70.305367 
" clip-path="url(#p82c2a7fc8d)" style="fill: none; stroke: #355f8d; stroke-width: 1.5; stroke-linecap: round"/>
   </g>
   <g id="line2d_24">
    <path d="M 213.053448 86.63309 
L 215.10603 70.92984 
L 217.158611 57.048764 
L 219.211193 45.991119 
L 221.263774 38.601447 
L 223.316356 35.034027 
L 225.368938 34.829471 
L 227.421519 37.158026 
L 229.474101 41.057561 
L 231.526682 45.646427 
L 233.579264 50.255982 
L 235.631845 54.466211 
L 237.684427 58.072678 
L 239.737009 61.024231 
L 241.78959 63.360819 
L 243.842172 65.165632 
L 245.894753 66.534235 
L 247.947335 67.557624 
L 249.999916 68.314645 
L 252.052498 68.869887 
L 254.10508 69.274369 
L 256.157661 69.567392 
L 258.210243 69.77869 
L 260.262824 69.930463 
L 262.315406 70.039113 
L 264.367987 70.116666 
L 266.420569 70.171879 
L 268.47315 70.211097 
L 270.525732 70.238897 
L 272.578314 70.258566 
L 274.630895 70.272458 
L 276.683477 70.282255 
L 278.736058 70.289154 
L 280.78864 70.294006 
L 282.841221 70.297414 
L 284.893803 70.299804 
L 286.946385 70.30148 
L 288.998966 70.302653 
L 291.051548 70.303474 
L 293.104129 70.304047 
L 295.156711 70.304448 
L 297.209292 70.304727 
L 299.261874 70.304922 
L 301.314456 70.305057 
L 303.367037 70.305152 
L 305.419619 70.305218 
L 307.4722 70.305263 
L 309.524782 70.305295 
L 311.577363 70.305317 
L 313.629945 70.305333 
L 315.682526 70.305343 
L 317.735108 70.305351 
L 319.78769 70.305356 
L 321.840271 70.305359 
L 323.892853 70.305362 
L 325.945434 70.305363 
L 327.998016 70.305365 
L 330.050597 70.305365 
L 332.103179 70.305366 
L 334.155761 70.305366 
L 336.208342 70.305367 
L 338.260924 70.305367 
L 340.313505 70.305367 
L 342.366087 70.305367 
" clip-path="url(#p82c2a7fc8d)" style="fill: none; stroke: #21918c; stroke-width: 1.5; stroke-linecap: round"/>
   </g>
   <g id="line2d_25">
    <path d="M 213.053448 114.237586 
L 215.10603 97.533703 
L 217.158611 81.209115 
L 219.211193 66.054912 
L 221.263774 53.114063 
L 223.316356 42.994314 
L 225.368938 35.937126 
L 227.421519 31.905997 
L 229.474101 30.585163 
L 231.526682 31.453076 
L 233.579264 33.902203 
L 235.631845 37.341965 
L 237.684427 41.266714 
L 239.737009 45.288493 
L 241.78959 49.140533 
L 243.842172 52.661797 
L 245.894753 55.773213 
L 247.947335 58.453238 
L 249.999916 60.71694 
L 252.052498 62.600038 
L 254.10508 64.147745 
L 256.157661 65.407582 
L 258.210243 66.425109 
L 260.262824 67.241684 
L 262.315406 67.893521 
L 264.367987 68.411541 
L 266.420569 68.82166 
L 268.47315 69.1453 
L 270.525732 69.399977 
L 272.578314 69.59989 
L 274.630895 69.756474 
L 276.683477 69.878879 
L 278.736058 69.974399 
L 280.78864 70.04882 
L 282.841221 70.106718 
L 284.893803 70.151702 
L 286.946385 70.186609 
L 288.998966 70.213666 
L 291.051548 70.234616 
L 293.104129 70.250822 
L 295.156711 70.263347 
L 297.209292 70.273017 
L 299.261874 70.280479 
L 301.314456 70.286231 
L 303.367037 70.290662 
L 305.419619 70.294074 
L 307.4722 70.296698 
L 309.524782 70.298716 
L 311.577363 70.300267 
L 313.629945 70.301458 
L 315.682526 70.302372 
L 317.735108 70.303074 
L 319.78769 70.303611 
L 321.840271 70.304024 
L 323.892853 70.30434 
L 325.945434 70.304581 
L 327.998016 70.304767 
L 330.050597 70.304908 
L 332.103179 70.305017 
L 334.155761 70.305099 
L 336.208342 70.305163 
L 338.260924 70.305211 
L 340.313505 70.305248 
L 342.366087 70.305276 
" clip-path="url(#p82c2a7fc8d)" style="fill: none; stroke: #44bf70; stroke-width: 1.5; stroke-linecap: round"/>
   </g>
   <g id="line2d_26">
    <path d="M 213.053448 159.897802 
L 215.10603 145.878046 
L 217.158611 131.082951 
L 219.211193 115.997358 
L 221.263774 101.400164 
L 223.316356 87.618788 
L 225.368938 74.930617 
L 227.421519 63.672147 
L 229.474101 54.08735 
L 231.526682 46.293967 
L 233.579264 40.312567 
L 235.631845 36.076261 
L 237.684427 33.440959 
L 239.737009 32.207699 
L 241.78959 32.147356 
L 243.842172 33.022082 
L 245.894753 34.602563 
L 247.947335 36.680469 
L 249.999916 39.075871 
L 252.052498 41.640285 
L 254.10508 44.256406 
L 256.157661 46.835656 
L 258.210243 49.314484 
L 260.262824 51.650181 
L 262.315406 53.816729 
L 264.367987 55.800992 
L 266.420569 57.599423 
L 268.47315 59.21533 
L 270.525732 60.656685 
L 272.578314 61.934422 
L 274.630895 63.061153 
L 276.683477 64.050225 
L 278.736058 64.915052 
L 280.78864 65.668658 
L 282.841221 66.323377 
L 284.893803 66.890682 
L 286.946385 67.381092 
L 288.998966 67.804142 
L 291.051548 68.168401 
L 293.104129 68.481508 
L 295.156711 68.750235 
L 297.209292 68.980552 
L 299.261874 69.177696 
L 301.314456 69.346249 
L 303.367037 69.490203 
L 305.419619 69.613024 
L 307.4722 69.717719 
L 309.524782 69.806885 
L 311.577363 69.882765 
L 313.629945 69.94729 
L 315.682526 70.00212 
L 317.735108 70.048681 
L 319.78769 70.088195 
L 321.840271 70.121709 
L 323.892853 70.150117 
L 325.945434 70.174186 
L 327.998016 70.194566 
L 330.050597 70.211815 
L 332.103179 70.226408 
L 334.155761 70.238748 
L 336.208342 70.249178 
L 338.260924 70.25799 
L 340.313505 70.265433 
L 342.366087 70.271716 
" clip-path="url(#p82c2a7fc8d)" style="fill: none; stroke: #bddf26; stroke-width: 1.5; stroke-linecap: round"/>
   </g>
   <g id="patch_8">
    <path d="M 206.587816 166.363434 
L 206.587816 24.119531 
" style="fill: none; stroke: #cccccc; stroke-linejoin: miter; stroke-linecap: square"/>
   </g>
   <g id="patch_9">
    <path d="M 348.831719 166.363434 
L 348.831719 24.119531 
" style="fill: none; stroke: #cccccc; stroke-linejoin: miter; stroke-linecap: square"/>
   </g>
   <g id="patch_10">
    <path d="M 206.587816 166.363434 
L 348.831719 166.363434 
" style="fill: none; stroke: #cccccc; stroke-linejoin: miter; stroke-linecap: square"/>
   </g>
   <g id="patch_11">
    <path d="M 206.587816 24.119531 
L 348.831719 24.119531 
" style="fill: none; stroke: #cccccc; stroke-linejoin: miter; stroke-linecap: square"/>
   </g>
   <g id="text_16">
    <!-- Peoria -->
    <g style="fill: #262626" transform="translate(256.031252 18.119531)scale(0.15 -0.15)">
     <defs>
      <path id="ArialMT-50" d="M 494 0 
L 494 4581 
L 2222 4581 
Q 2678 4581 2919 4538 
Q 3256 4481 3484 4323 
Q 3713 4166 3852 3881 
Q 3991 3597 3991 3256 
Q 3991 2672 3619 2267 
Q 3247 1863 2275 1863 
L 1100 1863 
L 1100 0 
L 494 0 
z
M 1100 2403 
L 2284 2403 
Q 2872 2403 3119 2622 
Q 3366 2841 3366 3238 
Q 3366 3525 3220 3729 
Q 3075 3934 2838 4000 
Q 2684 4041 2272 4041 
L 1100 4041 
L 1100 2403 
z
" transform="scale(0.015625)"/>
     </defs>
     <use xlink:href="#ArialMT-50"/>
     <use xlink:href="#ArialMT-65" x="66.699219"/>
     <use xlink:href="#ArialMT-6f" x="122.314453"/>
     <use xlink:href="#ArialMT-72" x="177.929688"/>
     <use xlink:href="#ArialMT-69" x="211.230469"/>
     <use xlink:href="#ArialMT-61" x="233.447266"/>
    </g>
   </g>
  </g>
  <g id="legend_1">
   <g id="patch_12">
    <path d="M 384.252031 151.87492 
L 429.231719 151.87492 
Q 431.431719 151.87492 431.431719 149.67492 
L 431.431719 55.166326 
Q 431.431719 52.966326 429.231719 52.966326 
L 384.252031 52.966326 
Q 382.052031 52.966326 382.052031 55.166326 
L 382.052031 149.67492 
Q 382.052031 151.87492 384.252031 151.87492 
z
" style="fill: #ffffff; opacity: 0.8; stroke: #cccccc; stroke-linejoin: miter"/>
   </g>
   <g id="text_17">
    <!-- $s_\beta$ -->
    <g style="fill: #262626" transform="translate(400.741875 65.955701)scale(0.12 -0.12)">
     <defs>
      <path id="DejaVuSans-Oblique-73" d="M 3200 3397 
L 3091 2853 
Q 2863 2978 2609 3040 
Q 2356 3103 2088 3103 
Q 1634 3103 1373 2948 
Q 1113 2794 1113 2528 
Q 1113 2219 1719 2053 
Q 1766 2041 1788 2034 
L 1972 1978 
Q 2547 1819 2739 1644 
Q 2931 1469 2931 1166 
Q 2931 609 2489 259 
Q 2047 -91 1331 -91 
Q 1053 -91 747 -37 
Q 441 16 72 128 
L 184 722 
Q 500 559 806 475 
Q 1113 391 1394 391 
Q 1816 391 2080 572 
Q 2344 753 2344 1031 
Q 2344 1331 1650 1516 
L 1591 1531 
L 1394 1581 
Q 956 1697 753 1886 
Q 550 2075 550 2369 
Q 550 2928 970 3256 
Q 1391 3584 2113 3584 
Q 2397 3584 2667 3537 
Q 2938 3491 3200 3397 
z
" transform="scale(0.015625)"/>
      <path id="DejaVuSans-Oblique-3b2" d="M 872 216 
L 572 -1331 
L -6 -1331 
L 928 3478 
Q 1206 4903 2538 4903 
Q 3888 4903 3659 3700 
Q 3503 2844 2894 2531 
Q 3713 2250 3553 1416 
Q 3272 -69 1759 -66 
Q 1097 -63 872 216 
z
M 1019 966 
Q 1259 422 1875 425 
Q 2775 425 2966 1406 
Q 3138 2288 1675 2219 
L 1778 2750 
Q 2909 2731 3106 3750 
Q 3241 4438 2509 4434 
Q 1691 4434 1503 3459 
L 1019 966 
z
" transform="scale(0.015625)"/>
     </defs>
     <use xlink:href="#DejaVuSans-Oblique-73"/>
     <use xlink:href="#DejaVuSans-Oblique-3b2" transform="translate(52.099609 -16.40625)scale(0.7)"/>
    </g>
   </g>
   <g id="line2d_27">
    <path d="M 386.452031 79.199295 
L 397.452031 79.199295 
L 408.452031 79.199295 
" style="fill: none; stroke: #482475; stroke-width: 1.5; stroke-linecap: round"/>
   </g>
   <g id="text_18">
    <!-- -7 -->
    <g style="fill: #262626" transform="translate(417.252031 83.049295)scale(0.11 -0.11)">
     <defs>
      <path id="ArialMT-2d" d="M 203 1375 
L 203 1941 
L 1931 1941 
L 1931 1375 
L 203 1375 
z
" transform="scale(0.015625)"/>
      <path id="ArialMT-37" d="M 303 3981 
L 303 4522 
L 3269 4522 
L 3269 4084 
Q 2831 3619 2401 2847 
Q 1972 2075 1738 1259 
Q 1569 684 1522 0 
L 944 0 
Q 953 541 1156 1306 
Q 1359 2072 1739 2783 
Q 2119 3494 2547 3981 
L 303 3981 
z
" transform="scale(0.015625)"/>
     </defs>
     <use xlink:href="#ArialMT-2d"/>
     <use xlink:href="#ArialMT-37" x="33.300781"/>
    </g>
   </g>
   <g id="line2d_28">
    <path d="M 386.452031 94.759139 
L 397.452031 94.759139 
L 408.452031 94.759139 
" style="fill: none; stroke: #355f8d; stroke-width: 1.5; stroke-linecap: round"/>
   </g>
   <g id="text_19">
    <!-- -6 -->
    <g style="fill: #262626" transform="translate(417.252031 98.609139)scale(0.11 -0.11)">
     <use xlink:href="#ArialMT-2d"/>
     <use xlink:href="#ArialMT-36" x="33.300781"/>
    </g>
   </g>
   <g id="line2d_29">
    <path d="M 386.452031 110.318982 
L 397.452031 110.318982 
L 408.452031 110.318982 
" style="fill: none; stroke: #21918c; stroke-width: 1.5; stroke-linecap: round"/>
   </g>
   <g id="text_20">
    <!-- -5 -->
    <g style="fill: #262626" transform="translate(417.252031 114.168982)scale(0.11 -0.11)">
     <defs>
      <path id="ArialMT-35" d="M 266 1200 
L 856 1250 
Q 922 819 1161 601 
Q 1400 384 1738 384 
Q 2144 384 2425 690 
Q 2706 997 2706 1503 
Q 2706 1984 2436 2262 
Q 2166 2541 1728 2541 
Q 1456 2541 1237 2417 
Q 1019 2294 894 2097 
L 366 2166 
L 809 4519 
L 3088 4519 
L 3088 3981 
L 1259 3981 
L 1013 2750 
Q 1425 3038 1878 3038 
Q 2478 3038 2890 2622 
Q 3303 2206 3303 1553 
Q 3303 931 2941 478 
Q 2500 -78 1738 -78 
Q 1113 -78 717 272 
Q 322 622 266 1200 
z
" transform="scale(0.015625)"/>
     </defs>
     <use xlink:href="#ArialMT-2d"/>
     <use xlink:href="#ArialMT-35" x="33.300781"/>
    </g>
   </g>
   <g id="line2d_30">
    <path d="M 386.452031 125.878826 
L 397.452031 125.878826 
L 408.452031 125.878826 
" style="fill: none; stroke: #44bf70; stroke-width: 1.5; stroke-linecap: round"/>
   </g>
   <g id="text_21">
    <!-- -4 -->
    <g style="fill: #262626" transform="translate(417.252031 129.728826)scale(0.11 -0.11)">
     <use xlink:href="#ArialMT-2d"/>
     <use xlink:href="#ArialMT-34" x="33.300781"/>
    </g>
   </g>
   <g id="line2d_31">
    <path d="M 386.452031 141.43867 
L 397.452031 141.43867 
L 408.452031 141.43867 
" style="fill: none; stroke: #bddf26; stroke-width: 1.5; stroke-linecap: round"/>
   </g>
   <g id="text_22">
    <!-- -3 -->
    <g style="fill: #262626" transform="translate(417.252031 145.28867)scale(0.11 -0.11)">
     <use xlink:href="#ArialMT-2d"/>
     <use xlink:href="#ArialMT-33" x="33.300781"/>
    </g>
   </g>
  </g>
 </g>
 <defs>
  <clipPath id="p7f4508f9f6">
   <rect x="57.231719" y="24.119531" width="142.243902" height="142.243902"/>
  </clipPath>
  <clipPath id="p82c2a7fc8d">
   <rect x="206.587816" y="24.119531" width="142.243902" height="142.243902"/>
  </clipPath>
 </defs>
</svg>
