<?xml version="1.0" encoding="utf-8" standalone="no"?>
<!DOCTYPE svg PUBLIC "-//W3C//DTD SVG 1.1//EN"
  "http://www.w3.org/Graphics/SVG/1.1/DTD/svg11.dtd">
<svg xmlns:xlink="http://www.w3.org/1999/xlink" width="449.165781pt" height="204.841246pt" viewBox="0 0 449.165781 204.841246" xmlns="http://www.w3.org/2000/svg" version="1.1">
 <metadata>
  <rdf:RDF xmlns:dc="http://purl.org/dc/elements/1.1/" xmlns:cc="http://creativecommons.org/ns#" xmlns:rdf="http://www.w3.org/1999/02/22-rdf-syntax-ns#">
   <cc:Work>
    <dc:type rdf:resource="http://purl.org/dc/dcmitype/StillImage"/>
    <dc:date>2022-10-12T15:01:05.524926</dc:date>
    <dc:format>image/svg+xml</dc:format>
    <dc:creator>
     <cc:Agent>
      <dc:title>Matplotlib v3.5.1, https://matplotlib.org/</dc:title>
     </cc:Agent>
    </dc:creator>
   </cc:Work>
  </rdf:RDF>
 </metadata>
 <defs>
  <style type="text/css">*{stroke-linejoin: round; stroke-linecap: butt}</style>
 </defs>
 <g id="figure_1">
  <g id="patch_1">
   <path d="M 0 204.841246 
L 449.165781 204.841246 
L 449.165781 0 
L 0 0 
z
" style="fill: #ffffff"/>
  </g>
  <g id="axes_1">
   <g id="patch_2">
    <path d="M 69.465781 166.363434 
L 211.709684 166.363434 
L 211.709684 24.119531 
L 69.465781 24.119531 
z
" style="fill: #ffffff"/>
   </g>
   <g id="matplotlib.axis_1">
    <g id="xtick_1">
     <g id="line2d_1">
      <path d="M 96.457229 166.363434 
L 96.457229 24.119531 
" clip-path="url(#p96f477cafa)" style="fill: none; stroke: #cccccc; stroke-linecap: round"/>
     </g>
     <g id="text_1">
      <!-- 20 -->
      <g style="fill: #262626" transform="translate(90.340198 177.737027)scale(0.11 -0.11)">
       <defs>
        <path id="ArialMT-32" d="M 3222 541 
L 3222 0 
L 194 0 
Q 188 203 259 391 
Q 375 700 629 1000 
Q 884 1300 1366 1694 
Q 2113 2306 2375 2664 
Q 2638 3022 2638 3341 
Q 2638 3675 2398 3904 
Q 2159 4134 1775 4134 
Q 1369 4134 1125 3890 
Q 881 3647 878 3216 
L 300 3275 
Q 359 3922 746 4261 
Q 1134 4600 1788 4600 
Q 2447 4600 2831 4234 
Q 3216 3869 3216 3328 
Q 3216 3053 3103 2787 
Q 2991 2522 2730 2228 
Q 2469 1934 1863 1422 
Q 1356 997 1212 845 
Q 1069 694 975 541 
L 3222 541 
z
" transform="scale(0.015625)"/>
        <path id="ArialMT-30" d="M 266 2259 
Q 266 3072 433 3567 
Q 600 4063 929 4331 
Q 1259 4600 1759 4600 
Q 2128 4600 2406 4451 
Q 2684 4303 2865 4023 
Q 3047 3744 3150 3342 
Q 3253 2941 3253 2259 
Q 3253 1453 3087 958 
Q 2922 463 2592 192 
Q 2263 -78 1759 -78 
Q 1097 -78 719 397 
Q 266 969 266 2259 
z
M 844 2259 
Q 844 1131 1108 757 
Q 1372 384 1759 384 
Q 2147 384 2411 759 
Q 2675 1134 2675 2259 
Q 2675 3391 2411 3762 
Q 2147 4134 1753 4134 
Q 1366 4134 1134 3806 
Q 844 3388 844 2259 
z
" transform="scale(0.015625)"/>
       </defs>
       <use xlink:href="#ArialMT-32"/>
       <use xlink:href="#ArialMT-30" x="55.615234"/>
      </g>
     </g>
    </g>
    <g id="xtick_2">
     <g id="line2d_2">
      <path d="M 137.50886 166.363434 
L 137.50886 24.119531 
" clip-path="url(#p96f477cafa)" style="fill: none; stroke: #cccccc; stroke-linecap: round"/>
     </g>
     <g id="text_2">
      <!-- 40 -->
      <g style="fill: #262626" transform="translate(131.391829 177.737027)scale(0.11 -0.11)">
       <defs>
        <path id="ArialMT-34" d="M 2069 0 
L 2069 1097 
L 81 1097 
L 81 1613 
L 2172 4581 
L 2631 4581 
L 2631 1613 
L 3250 1613 
L 3250 1097 
L 2631 1097 
L 2631 0 
L 2069 0 
z
M 2069 1613 
L 2069 3678 
L 634 1613 
L 2069 1613 
z
" transform="scale(0.015625)"/>
       </defs>
       <use xlink:href="#ArialMT-34"/>
       <use xlink:href="#ArialMT-30" x="55.615234"/>
      </g>
     </g>
    </g>
    <g id="xtick_3">
     <g id="line2d_3">
      <path d="M 178.560491 166.363434 
L 178.560491 24.119531 
" clip-path="url(#p96f477cafa)" style="fill: none; stroke: #cccccc; stroke-linecap: round"/>
     </g>
     <g id="text_3">
      <!-- 60 -->
      <g style="fill: #262626" transform="translate(172.44346 177.737027)scale(0.11 -0.11)">
       <defs>
        <path id="ArialMT-36" d="M 3184 3459 
L 2625 3416 
Q 2550 3747 2413 3897 
Q 2184 4138 1850 4138 
Q 1581 4138 1378 3988 
Q 1113 3794 959 3422 
Q 806 3050 800 2363 
Q 1003 2672 1297 2822 
Q 1591 2972 1913 2972 
Q 2475 2972 2870 2558 
Q 3266 2144 3266 1488 
Q 3266 1056 3080 686 
Q 2894 316 2569 119 
Q 2244 -78 1831 -78 
Q 1128 -78 684 439 
Q 241 956 241 2144 
Q 241 3472 731 4075 
Q 1159 4600 1884 4600 
Q 2425 4600 2770 4297 
Q 3116 3994 3184 3459 
z
M 888 1484 
Q 888 1194 1011 928 
Q 1134 663 1356 523 
Q 1578 384 1822 384 
Q 2178 384 2434 671 
Q 2691 959 2691 1453 
Q 2691 1928 2437 2201 
Q 2184 2475 1800 2475 
Q 1419 2475 1153 2201 
Q 888 1928 888 1484 
z
" transform="scale(0.015625)"/>
       </defs>
       <use xlink:href="#ArialMT-36"/>
       <use xlink:href="#ArialMT-30" x="55.615234"/>
      </g>
     </g>
    </g>
    <g id="text_4">
     <!-- Years -->
     <g style="fill: #262626" transform="translate(121.680701 194.659996)scale(0.15 -0.15)">
      <defs>
       <path id="ArialMT-59" d="M 1784 0 
L 1784 1941 
L 19 4581 
L 756 4581 
L 1659 3200 
Q 1909 2813 2125 2425 
Q 2331 2784 2625 3234 
L 3513 4581 
L 4219 4581 
L 2391 1941 
L 2391 0 
L 1784 0 
z
" transform="scale(0.015625)"/>
       <path id="ArialMT-65" d="M 2694 1069 
L 3275 997 
Q 3138 488 2766 206 
Q 2394 -75 1816 -75 
Q 1088 -75 661 373 
Q 234 822 234 1631 
Q 234 2469 665 2931 
Q 1097 3394 1784 3394 
Q 2450 3394 2872 2941 
Q 3294 2488 3294 1666 
Q 3294 1616 3291 1516 
L 816 1516 
Q 847 969 1125 678 
Q 1403 388 1819 388 
Q 2128 388 2347 550 
Q 2566 713 2694 1069 
z
M 847 1978 
L 2700 1978 
Q 2663 2397 2488 2606 
Q 2219 2931 1791 2931 
Q 1403 2931 1139 2672 
Q 875 2413 847 1978 
z
" transform="scale(0.015625)"/>
       <path id="ArialMT-61" d="M 2588 409 
Q 2275 144 1986 34 
Q 1697 -75 1366 -75 
Q 819 -75 525 192 
Q 231 459 231 875 
Q 231 1119 342 1320 
Q 453 1522 633 1644 
Q 813 1766 1038 1828 
Q 1203 1872 1538 1913 
Q 2219 1994 2541 2106 
Q 2544 2222 2544 2253 
Q 2544 2597 2384 2738 
Q 2169 2928 1744 2928 
Q 1347 2928 1158 2789 
Q 969 2650 878 2297 
L 328 2372 
Q 403 2725 575 2942 
Q 747 3159 1072 3276 
Q 1397 3394 1825 3394 
Q 2250 3394 2515 3294 
Q 2781 3194 2906 3042 
Q 3031 2891 3081 2659 
Q 3109 2516 3109 2141 
L 3109 1391 
Q 3109 606 3145 398 
Q 3181 191 3288 0 
L 2700 0 
Q 2613 175 2588 409 
z
M 2541 1666 
Q 2234 1541 1622 1453 
Q 1275 1403 1131 1340 
Q 988 1278 909 1158 
Q 831 1038 831 891 
Q 831 666 1001 516 
Q 1172 366 1500 366 
Q 1825 366 2078 508 
Q 2331 650 2450 897 
Q 2541 1088 2541 1459 
L 2541 1666 
z
" transform="scale(0.015625)"/>
       <path id="ArialMT-72" d="M 416 0 
L 416 3319 
L 922 3319 
L 922 2816 
Q 1116 3169 1280 3281 
Q 1444 3394 1641 3394 
Q 1925 3394 2219 3213 
L 2025 2691 
Q 1819 2813 1613 2813 
Q 1428 2813 1281 2702 
Q 1134 2591 1072 2394 
Q 978 2094 978 1738 
L 978 0 
L 416 0 
z
" transform="scale(0.015625)"/>
       <path id="ArialMT-73" d="M 197 991 
L 753 1078 
Q 800 744 1014 566 
Q 1228 388 1613 388 
Q 2000 388 2187 545 
Q 2375 703 2375 916 
Q 2375 1106 2209 1216 
Q 2094 1291 1634 1406 
Q 1016 1563 777 1677 
Q 538 1791 414 1992 
Q 291 2194 291 2438 
Q 291 2659 392 2848 
Q 494 3038 669 3163 
Q 800 3259 1026 3326 
Q 1253 3394 1513 3394 
Q 1903 3394 2198 3281 
Q 2494 3169 2634 2976 
Q 2775 2784 2828 2463 
L 2278 2388 
Q 2241 2644 2061 2787 
Q 1881 2931 1553 2931 
Q 1166 2931 1000 2803 
Q 834 2675 834 2503 
Q 834 2394 903 2306 
Q 972 2216 1119 2156 
Q 1203 2125 1616 2013 
Q 2213 1853 2448 1751 
Q 2684 1650 2818 1456 
Q 2953 1263 2953 975 
Q 2953 694 2789 445 
Q 2625 197 2315 61 
Q 2006 -75 1616 -75 
Q 969 -75 630 194 
Q 291 463 197 991 
z
" transform="scale(0.015625)"/>
      </defs>
      <use xlink:href="#ArialMT-59"/>
      <use xlink:href="#ArialMT-65" x="57.574219"/>
      <use xlink:href="#ArialMT-61" x="113.189453"/>
      <use xlink:href="#ArialMT-72" x="168.804688"/>
      <use xlink:href="#ArialMT-73" x="202.105469"/>
     </g>
    </g>
   </g>
   <g id="matplotlib.axis_2">
    <g id="ytick_1">
     <g id="line2d_4">
      <path d="M 69.465781 148.557307 
L 211.709684 148.557307 
" clip-path="url(#p96f477cafa)" style="fill: none; stroke: #cccccc; stroke-linecap: round"/>
     </g>
     <g id="text_5">
      <!-- −0.0015 -->
      <g style="fill: #262626" transform="translate(25.9 152.494104)scale(0.11 -0.11)">
       <defs>
        <path id="ArialMT-2212" d="M 3381 1997 
L 356 1997 
L 356 2522 
L 3381 2522 
L 3381 1997 
z
" transform="scale(0.015625)"/>
        <path id="ArialMT-2e" d="M 581 0 
L 581 641 
L 1222 641 
L 1222 0 
L 581 0 
z
" transform="scale(0.015625)"/>
        <path id="ArialMT-31" d="M 2384 0 
L 1822 0 
L 1822 3584 
Q 1619 3391 1289 3197 
Q 959 3003 697 2906 
L 697 3450 
Q 1169 3672 1522 3987 
Q 1875 4303 2022 4600 
L 2384 4600 
L 2384 0 
z
" transform="scale(0.015625)"/>
        <path id="ArialMT-35" d="M 266 1200 
L 856 1250 
Q 922 819 1161 601 
Q 1400 384 1738 384 
Q 2144 384 2425 690 
Q 2706 997 2706 1503 
Q 2706 1984 2436 2262 
Q 2166 2541 1728 2541 
Q 1456 2541 1237 2417 
Q 1019 2294 894 2097 
L 366 2166 
L 809 4519 
L 3088 4519 
L 3088 3981 
L 1259 3981 
L 1013 2750 
Q 1425 3038 1878 3038 
Q 2478 3038 2890 2622 
Q 3303 2206 3303 1553 
Q 3303 931 2941 478 
Q 2500 -78 1738 -78 
Q 1113 -78 717 272 
Q 322 622 266 1200 
z
" transform="scale(0.015625)"/>
       </defs>
       <use xlink:href="#ArialMT-2212"/>
       <use xlink:href="#ArialMT-30" x="58.398438"/>
       <use xlink:href="#ArialMT-2e" x="114.013672"/>
       <use xlink:href="#ArialMT-30" x="141.796875"/>
       <use xlink:href="#ArialMT-30" x="197.412109"/>
       <use xlink:href="#ArialMT-31" x="253.027344"/>
       <use xlink:href="#ArialMT-35" x="308.642578"/>
      </g>
     </g>
    </g>
    <g id="ytick_2">
     <g id="line2d_5">
      <path d="M 69.465781 120.288532 
L 211.709684 120.288532 
" clip-path="url(#p96f477cafa)" style="fill: none; stroke: #cccccc; stroke-linecap: round"/>
     </g>
     <g id="text_6">
      <!-- −0.0010 -->
      <g style="fill: #262626" transform="translate(25.9 124.225329)scale(0.11 -0.11)">
       <use xlink:href="#ArialMT-2212"/>
       <use xlink:href="#ArialMT-30" x="58.398438"/>
       <use xlink:href="#ArialMT-2e" x="114.013672"/>
       <use xlink:href="#ArialMT-30" x="141.796875"/>
       <use xlink:href="#ArialMT-30" x="197.412109"/>
       <use xlink:href="#ArialMT-31" x="253.027344"/>
       <use xlink:href="#ArialMT-30" x="308.642578"/>
      </g>
     </g>
    </g>
    <g id="ytick_3">
     <g id="line2d_6">
      <path d="M 69.465781 92.019757 
L 211.709684 92.019757 
" clip-path="url(#p96f477cafa)" style="fill: none; stroke: #cccccc; stroke-linecap: round"/>
     </g>
     <g id="text_7">
      <!-- −0.0005 -->
      <g style="fill: #262626" transform="translate(25.9 95.956554)scale(0.11 -0.11)">
       <use xlink:href="#ArialMT-2212"/>
       <use xlink:href="#ArialMT-30" x="58.398438"/>
       <use xlink:href="#ArialMT-2e" x="114.013672"/>
       <use xlink:href="#ArialMT-30" x="141.796875"/>
       <use xlink:href="#ArialMT-30" x="197.412109"/>
       <use xlink:href="#ArialMT-30" x="253.027344"/>
       <use xlink:href="#ArialMT-35" x="308.642578"/>
      </g>
     </g>
    </g>
    <g id="ytick_4">
     <g id="line2d_7">
      <path d="M 69.465781 63.750982 
L 211.709684 63.750982 
" clip-path="url(#p96f477cafa)" style="fill: none; stroke: #cccccc; stroke-linecap: round"/>
     </g>
     <g id="text_8">
      <!-- 0.0000 -->
      <g style="fill: #262626" transform="translate(32.324688 67.687779)scale(0.11 -0.11)">
       <use xlink:href="#ArialMT-30"/>
       <use xlink:href="#ArialMT-2e" x="55.615234"/>
       <use xlink:href="#ArialMT-30" x="83.398438"/>
       <use xlink:href="#ArialMT-30" x="139.013672"/>
       <use xlink:href="#ArialMT-30" x="194.628906"/>
       <use xlink:href="#ArialMT-30" x="250.244141"/>
      </g>
     </g>
    </g>
    <g id="ytick_5">
     <g id="line2d_8">
      <path d="M 69.465781 35.482207 
L 211.709684 35.482207 
" clip-path="url(#p96f477cafa)" style="fill: none; stroke: #cccccc; stroke-linecap: round"/>
     </g>
     <g id="text_9">
      <!-- 0.0005 -->
      <g style="fill: #262626" transform="translate(32.324688 39.419004)scale(0.11 -0.11)">
       <use xlink:href="#ArialMT-30"/>
       <use xlink:href="#ArialMT-2e" x="55.615234"/>
       <use xlink:href="#ArialMT-30" x="83.398438"/>
       <use xlink:href="#ArialMT-30" x="139.013672"/>
       <use xlink:href="#ArialMT-30" x="194.628906"/>
       <use xlink:href="#ArialMT-35" x="250.244141"/>
      </g>
     </g>
    </g>
    <g id="text_10">
     <!-- Sensitivity of $\lambda$ -->
     <g style="fill: #262626" transform="translate(18.6 143.916482)rotate(-90)scale(0.15 -0.15)">
      <defs>
       <path id="ArialMT-53" d="M 288 1472 
L 859 1522 
Q 900 1178 1048 958 
Q 1197 738 1509 602 
Q 1822 466 2213 466 
Q 2559 466 2825 569 
Q 3091 672 3220 851 
Q 3350 1031 3350 1244 
Q 3350 1459 3225 1620 
Q 3100 1781 2813 1891 
Q 2628 1963 1997 2114 
Q 1366 2266 1113 2400 
Q 784 2572 623 2826 
Q 463 3081 463 3397 
Q 463 3744 659 4045 
Q 856 4347 1234 4503 
Q 1613 4659 2075 4659 
Q 2584 4659 2973 4495 
Q 3363 4331 3572 4012 
Q 3781 3694 3797 3291 
L 3216 3247 
Q 3169 3681 2898 3903 
Q 2628 4125 2100 4125 
Q 1550 4125 1298 3923 
Q 1047 3722 1047 3438 
Q 1047 3191 1225 3031 
Q 1400 2872 2139 2705 
Q 2878 2538 3153 2413 
Q 3553 2228 3743 1945 
Q 3934 1663 3934 1294 
Q 3934 928 3725 604 
Q 3516 281 3123 101 
Q 2731 -78 2241 -78 
Q 1619 -78 1198 103 
Q 778 284 539 648 
Q 300 1013 288 1472 
z
" transform="scale(0.015625)"/>
       <path id="ArialMT-6e" d="M 422 0 
L 422 3319 
L 928 3319 
L 928 2847 
Q 1294 3394 1984 3394 
Q 2284 3394 2536 3286 
Q 2788 3178 2913 3003 
Q 3038 2828 3088 2588 
Q 3119 2431 3119 2041 
L 3119 0 
L 2556 0 
L 2556 2019 
Q 2556 2363 2490 2533 
Q 2425 2703 2258 2804 
Q 2091 2906 1866 2906 
Q 1506 2906 1245 2678 
Q 984 2450 984 1813 
L 984 0 
L 422 0 
z
" transform="scale(0.015625)"/>
       <path id="ArialMT-69" d="M 425 3934 
L 425 4581 
L 988 4581 
L 988 3934 
L 425 3934 
z
M 425 0 
L 425 3319 
L 988 3319 
L 988 0 
L 425 0 
z
" transform="scale(0.015625)"/>
       <path id="ArialMT-74" d="M 1650 503 
L 1731 6 
Q 1494 -44 1306 -44 
Q 1000 -44 831 53 
Q 663 150 594 308 
Q 525 466 525 972 
L 525 2881 
L 113 2881 
L 113 3319 
L 525 3319 
L 525 4141 
L 1084 4478 
L 1084 3319 
L 1650 3319 
L 1650 2881 
L 1084 2881 
L 1084 941 
Q 1084 700 1114 631 
Q 1144 563 1211 522 
Q 1278 481 1403 481 
Q 1497 481 1650 503 
z
" transform="scale(0.015625)"/>
       <path id="ArialMT-76" d="M 1344 0 
L 81 3319 
L 675 3319 
L 1388 1331 
Q 1503 1009 1600 663 
Q 1675 925 1809 1294 
L 2547 3319 
L 3125 3319 
L 1869 0 
L 1344 0 
z
" transform="scale(0.015625)"/>
       <path id="ArialMT-79" d="M 397 -1278 
L 334 -750 
Q 519 -800 656 -800 
Q 844 -800 956 -737 
Q 1069 -675 1141 -563 
Q 1194 -478 1313 -144 
Q 1328 -97 1363 -6 
L 103 3319 
L 709 3319 
L 1400 1397 
Q 1534 1031 1641 628 
Q 1738 1016 1872 1384 
L 2581 3319 
L 3144 3319 
L 1881 -56 
Q 1678 -603 1566 -809 
Q 1416 -1088 1222 -1217 
Q 1028 -1347 759 -1347 
Q 597 -1347 397 -1278 
z
" transform="scale(0.015625)"/>
       <path id="ArialMT-20" transform="scale(0.015625)"/>
       <path id="ArialMT-6f" d="M 213 1659 
Q 213 2581 725 3025 
Q 1153 3394 1769 3394 
Q 2453 3394 2887 2945 
Q 3322 2497 3322 1706 
Q 3322 1066 3130 698 
Q 2938 331 2570 128 
Q 2203 -75 1769 -75 
Q 1072 -75 642 372 
Q 213 819 213 1659 
z
M 791 1659 
Q 791 1022 1069 705 
Q 1347 388 1769 388 
Q 2188 388 2466 706 
Q 2744 1025 2744 1678 
Q 2744 2294 2464 2611 
Q 2184 2928 1769 2928 
Q 1347 2928 1069 2612 
Q 791 2297 791 1659 
z
" transform="scale(0.015625)"/>
       <path id="ArialMT-66" d="M 556 0 
L 556 2881 
L 59 2881 
L 59 3319 
L 556 3319 
L 556 3672 
Q 556 4006 616 4169 
Q 697 4388 901 4523 
Q 1106 4659 1475 4659 
Q 1713 4659 2000 4603 
L 1916 4113 
Q 1741 4144 1584 4144 
Q 1328 4144 1222 4034 
Q 1116 3925 1116 3625 
L 1116 3319 
L 1763 3319 
L 1763 2881 
L 1116 2881 
L 1116 0 
L 556 0 
z
" transform="scale(0.015625)"/>
       <path id="DejaVuSans-Oblique-3bb" d="M 2350 4316 
L 3125 0 
L 2516 0 
L 2038 2588 
L 328 0 
L -281 0 
L 1903 3356 
L 1794 3975 
Q 1725 4369 1391 4369 
L 1091 4369 
L 1184 4863 
L 1550 4856 
Q 2253 4847 2350 4316 
z
" transform="scale(0.015625)"/>
      </defs>
      <use xlink:href="#ArialMT-53" transform="translate(0 0.015625)"/>
      <use xlink:href="#ArialMT-65" transform="translate(66.699219 0.015625)"/>
      <use xlink:href="#ArialMT-6e" transform="translate(122.314453 0.015625)"/>
      <use xlink:href="#ArialMT-73" transform="translate(177.929688 0.015625)"/>
      <use xlink:href="#ArialMT-69" transform="translate(227.929688 0.015625)"/>
      <use xlink:href="#ArialMT-74" transform="translate(250.146484 0.015625)"/>
      <use xlink:href="#ArialMT-69" transform="translate(277.929688 0.015625)"/>
      <use xlink:href="#ArialMT-76" transform="translate(300.146484 0.015625)"/>
      <use xlink:href="#ArialMT-69" transform="translate(350.146484 0.015625)"/>
      <use xlink:href="#ArialMT-74" transform="translate(372.363281 0.015625)"/>
      <use xlink:href="#ArialMT-79" transform="translate(400.146484 0.015625)"/>
      <use xlink:href="#ArialMT-20" transform="translate(450.146484 0.015625)"/>
      <use xlink:href="#ArialMT-6f" transform="translate(477.929688 0.015625)"/>
      <use xlink:href="#ArialMT-66" transform="translate(533.544922 0.015625)"/>
      <use xlink:href="#ArialMT-20" transform="translate(561.328125 0.015625)"/>
      <use xlink:href="#DejaVuSans-Oblique-3bb" transform="translate(589.111328 0.015625)"/>
     </g>
    </g>
   </g>
   <g id="line2d_9">
    <path d="M 75.931413 47.001473 
L 77.983995 41.773387 
L 80.036576 40.991291 
L 82.089158 43.694706 
L 84.141739 48.23285 
L 86.194321 53.054365 
L 88.246903 57.162251 
L 90.299484 60.162358 
L 92.352066 62.085596 
L 94.404647 63.168632 
L 96.457229 63.690134 
L 98.50981 63.884589 
L 100.562392 63.915707 
L 102.614974 63.882195 
L 104.667555 63.835197 
L 106.720137 63.796109 
L 108.772718 63.770315 
L 110.8253 63.756143 
L 112.877881 63.749871 
L 114.930463 63.74805 
L 116.983044 63.748262 
L 119.035626 63.749108 
L 121.088208 63.749929 
L 123.140789 63.750508 
L 125.193371 63.75084 
L 127.245952 63.750992 
L 129.298534 63.75104 
L 131.351115 63.751039 
L 133.403697 63.751022 
L 135.456279 63.751005 
L 137.50886 63.750992 
L 139.561442 63.750985 
L 141.614023 63.750982 
L 143.666605 63.750981 
L 145.719186 63.750981 
L 147.771768 63.750981 
L 149.82435 63.750982 
L 151.876931 63.750982 
L 153.929513 63.750982 
L 155.982094 63.750982 
L 158.034676 63.750982 
L 160.087257 63.750982 
L 162.139839 63.750982 
L 164.19242 63.750982 
L 166.245002 63.750982 
L 168.297584 63.750982 
L 170.350165 63.750982 
L 172.402747 63.750982 
L 174.455328 63.750982 
L 176.50791 63.750982 
L 178.560491 63.750982 
L 180.613073 63.750982 
L 182.665655 63.750982 
L 184.718236 63.750982 
L 186.770818 63.750982 
L 188.823399 63.750982 
L 190.875981 63.750982 
L 192.928562 63.750982 
L 194.981144 63.750982 
L 197.033726 63.750982 
L 199.086307 63.750982 
L 201.138889 63.750982 
L 203.19147 63.750982 
L 205.244052 63.750982 
" clip-path="url(#p96f477cafa)" style="fill: none; stroke: #482475; stroke-width: 1.5; stroke-linecap: round"/>
   </g>
   <g id="line2d_10">
    <path d="M 75.931413 52.697279 
L 77.983995 41.404805 
L 80.036576 34.515343 
L 82.089158 32.378257 
L 84.141739 34.329314 
L 86.194321 38.915431 
L 88.246903 44.541049 
L 90.299484 49.96194 
L 92.352066 54.474306 
L 94.404647 57.854573 
L 96.457229 60.187037 
L 98.50981 61.692267 
L 100.562392 62.610354 
L 102.614974 63.143458 
L 104.667555 63.439585 
L 106.720137 63.597397 
L 108.772718 63.678193 
L 110.8253 63.717931 
L 112.877881 63.73668 
L 114.930463 63.745138 
L 116.983044 63.748765 
L 119.035626 63.750228 
L 121.088208 63.750772 
L 123.140789 63.750951 
L 125.193371 63.750997 
L 127.245952 63.751001 
L 129.298534 63.750995 
L 131.351115 63.750989 
L 133.403697 63.750986 
L 135.456279 63.750984 
L 137.50886 63.750983 
L 139.561442 63.750982 
L 141.614023 63.750982 
L 143.666605 63.750982 
L 145.719186 63.750982 
L 147.771768 63.750982 
L 149.82435 63.750982 
L 151.876931 63.750982 
L 153.929513 63.750982 
L 155.982094 63.750982 
L 158.034676 63.750982 
L 160.087257 63.750982 
L 162.139839 63.750982 
L 164.19242 63.750982 
L 166.245002 63.750982 
L 168.297584 63.750982 
L 170.350165 63.750982 
L 172.402747 63.750982 
L 174.455328 63.750982 
L 176.50791 63.750982 
L 178.560491 63.750982 
L 180.613073 63.750982 
L 182.665655 63.750982 
L 184.718236 63.750982 
L 186.770818 63.750982 
L 188.823399 63.750982 
L 190.875981 63.750982 
L 192.928562 63.750982 
L 194.981144 63.750982 
L 197.033726 63.750982 
L 199.086307 63.750982 
L 201.138889 63.750982 
L 203.19147 63.750982 
L 205.244052 63.750982 
" clip-path="url(#p96f477cafa)" style="fill: none; stroke: #355f8d; stroke-width: 1.5; stroke-linecap: round"/>
   </g>
   <g id="line2d_11">
    <path d="M 75.931413 78.146662 
L 77.983995 63.749456 
L 80.036576 51.037738 
L 82.089158 40.899061 
L 84.141739 34.100109 
L 86.194321 30.798189 
L 88.246903 30.585163 
L 90.299484 32.710598 
L 92.352066 36.298807 
L 94.404647 40.542241 
L 96.457229 44.823636 
L 98.50981 48.75087 
L 100.562392 52.129041 
L 102.614974 54.905034 
L 104.667555 57.111258 
L 106.720137 58.821744 
L 108.772718 60.123422 
L 110.8253 61.10005 
L 112.877881 61.824807 
L 114.930463 62.358033 
L 116.983044 62.747645 
L 119.035626 63.030727 
L 121.088208 63.235451 
L 123.140789 63.382926 
L 125.193371 63.488805 
L 127.245952 63.564601 
L 129.298534 63.618722 
L 131.351115 63.65728 
L 133.403697 63.684696 
L 135.456279 63.704153 
L 137.50886 63.71794 
L 139.561442 63.727694 
L 141.614023 63.734586 
L 143.666605 63.73945 
L 145.719186 63.742878 
L 147.771768 63.745292 
L 149.82435 63.74699 
L 151.876931 63.748183 
L 153.929513 63.749021 
L 155.982094 63.749609 
L 158.034676 63.750022 
L 160.087257 63.75031 
L 162.139839 63.750513 
L 164.19242 63.750654 
L 166.245002 63.750753 
L 168.297584 63.750822 
L 170.350165 63.750871 
L 172.402747 63.750904 
L 174.455328 63.750928 
L 176.50791 63.750944 
L 178.560491 63.750956 
L 180.613073 63.750964 
L 182.665655 63.750969 
L 184.718236 63.750973 
L 186.770818 63.750976 
L 188.823399 63.750978 
L 190.875981 63.750979 
L 192.928562 63.75098 
L 194.981144 63.750981 
L 197.033726 63.750981 
L 199.086307 63.750981 
L 201.138889 63.750982 
L 203.19147 63.750982 
L 205.244052 63.750982 
" clip-path="url(#p96f477cafa)" style="fill: none; stroke: #21918c; stroke-width: 1.5; stroke-linecap: round"/>
   </g>
   <g id="line2d_12">
    <path d="M 75.931413 119.801456 
L 77.983995 109.251538 
L 80.036576 98.497195 
L 82.089158 87.781359 
L 84.141739 77.543528 
L 86.194321 68.128854 
L 88.246903 59.786718 
L 90.299484 52.724025 
L 92.352066 47.066834 
L 94.404647 42.837985 
L 96.457229 39.97274 
L 98.50981 38.339796 
L 100.562392 37.762115 
L 102.614974 38.039748 
L 104.667555 38.97079 
L 106.720137 40.367068 
L 108.772718 42.064041 
L 110.8253 43.925588 
L 112.877881 45.844786 
L 114.930463 47.74191 
L 116.983044 49.560896 
L 119.035626 51.265159 
L 121.088208 52.833435 
L 123.140789 54.256001 
L 125.193371 55.531466 
L 127.245952 56.664163 
L 129.298534 57.66212 
L 131.351115 58.535534 
L 133.403697 59.29566 
L 135.456279 59.954028 
L 137.50886 60.521919 
L 139.561442 61.010027 
L 141.614023 61.428264 
L 143.666605 61.785663 
L 145.719186 62.090345 
L 147.771768 62.349537 
L 149.82435 62.569615 
L 151.876931 62.756166 
L 153.929513 62.914058 
L 155.982094 63.04751 
L 158.034676 63.160164 
L 160.087257 63.255152 
L 162.139839 63.335162 
L 164.19242 63.402489 
L 166.245002 63.459095 
L 168.297584 63.506647 
L 170.350165 63.546562 
L 172.402747 63.580044 
L 174.455328 63.608111 
L 176.50791 63.631623 
L 178.560491 63.651309 
L 180.613073 63.667782 
L 182.665655 63.681559 
L 184.718236 63.693076 
L 186.770818 63.702699 
L 188.823399 63.710736 
L 190.875981 63.717446 
L 192.928562 63.723046 
L 194.981144 63.727717 
L 197.033726 63.731613 
L 199.086307 63.73486 
L 201.138889 63.737566 
L 203.19147 63.739821 
L 205.244052 63.741699 
" clip-path="url(#p96f477cafa)" style="fill: none; stroke: #44bf70; stroke-width: 1.5; stroke-linecap: round"/>
   </g>
   <g id="line2d_13">
    <path d="M 75.931413 159.897802 
L 77.983995 155.87441 
L 80.036576 151.728166 
L 82.089158 147.516412 
L 84.141739 143.278643 
L 86.194321 139.020995 
L 88.246903 134.752326 
L 90.299484 130.496002 
L 92.352066 126.27333 
L 94.404647 122.100232 
L 96.457229 117.992991 
L 98.50981 113.968324 
L 100.562392 110.041325 
L 102.614974 106.225456 
L 104.667555 102.532925 
L 106.720137 98.974489 
L 108.772718 95.559263 
L 110.8253 92.294736 
L 112.877881 89.186797 
L 114.930463 86.239753 
L 116.983044 83.456381 
L 119.035626 80.838008 
L 121.088208 78.384614 
L 123.140789 76.094938 
L 125.193371 73.9666 
L 127.245952 71.996229 
L 129.298534 70.179596 
L 131.351115 68.511737 
L 133.403697 66.987089 
L 135.456279 65.599602 
L 137.50886 64.342859 
L 139.561442 63.210181 
L 141.614023 62.19472 
L 143.666605 61.289548 
L 145.719186 60.487734 
L 147.771768 59.782409 
L 149.82435 59.166822 
L 151.876931 58.63439 
L 153.929513 58.178735 
L 155.982094 57.793716 
L 158.034676 57.473451 
L 160.087257 57.212337 
L 162.139839 57.005063 
L 164.19242 56.84661 
L 166.245002 56.732262 
L 168.297584 56.657599 
L 170.350165 56.618496 
L 172.402747 56.611115 
L 174.455328 56.631897 
L 176.50791 56.677552 
L 178.560491 56.745048 
L 180.613073 56.831598 
L 182.665655 56.934649 
L 184.718236 57.051868 
L 186.770818 57.18113 
L 188.823399 57.320501 
L 190.875981 57.468233 
L 192.928562 57.622745 
L 194.981144 57.782613 
L 197.033726 57.946558 
L 199.086307 58.113438 
L 201.138889 58.282231 
L 203.19147 58.452033 
L 205.244052 58.622041 
" clip-path="url(#p96f477cafa)" style="fill: none; stroke: #bddf26; stroke-width: 1.5; stroke-linecap: round"/>
   </g>
   <g id="patch_3">
    <path d="M 69.465781 166.363434 
L 69.465781 24.119531 
" style="fill: none; stroke: #cccccc; stroke-linejoin: miter; stroke-linecap: square"/>
   </g>
   <g id="patch_4">
    <path d="M 211.709684 166.363434 
L 211.709684 24.119531 
" style="fill: none; stroke: #cccccc; stroke-linejoin: miter; stroke-linecap: square"/>
   </g>
   <g id="patch_5">
    <path d="M 69.465781 166.363434 
L 211.709684 166.363434 
" style="fill: none; stroke: #cccccc; stroke-linejoin: miter; stroke-linecap: square"/>
   </g>
   <g id="patch_6">
    <path d="M 69.465781 24.119531 
L 211.709684 24.119531 
" style="fill: none; stroke: #cccccc; stroke-linejoin: miter; stroke-linecap: square"/>
   </g>
   <g id="text_11">
    <!-- La Grange -->
    <g style="fill: #262626" transform="translate(105.149061 18.119531)scale(0.15 -0.15)">
     <defs>
      <path id="ArialMT-4c" d="M 469 0 
L 469 4581 
L 1075 4581 
L 1075 541 
L 3331 541 
L 3331 0 
L 469 0 
z
" transform="scale(0.015625)"/>
      <path id="ArialMT-47" d="M 2638 1797 
L 2638 2334 
L 4578 2338 
L 4578 638 
Q 4131 281 3656 101 
Q 3181 -78 2681 -78 
Q 2006 -78 1454 211 
Q 903 500 622 1047 
Q 341 1594 341 2269 
Q 341 2938 620 3517 
Q 900 4097 1425 4378 
Q 1950 4659 2634 4659 
Q 3131 4659 3532 4498 
Q 3934 4338 4162 4050 
Q 4391 3763 4509 3300 
L 3963 3150 
Q 3859 3500 3706 3700 
Q 3553 3900 3268 4020 
Q 2984 4141 2638 4141 
Q 2222 4141 1919 4014 
Q 1616 3888 1430 3681 
Q 1244 3475 1141 3228 
Q 966 2803 966 2306 
Q 966 1694 1177 1281 
Q 1388 869 1791 669 
Q 2194 469 2647 469 
Q 3041 469 3416 620 
Q 3791 772 3984 944 
L 3984 1797 
L 2638 1797 
z
" transform="scale(0.015625)"/>
      <path id="ArialMT-67" d="M 319 -275 
L 866 -356 
Q 900 -609 1056 -725 
Q 1266 -881 1628 -881 
Q 2019 -881 2231 -725 
Q 2444 -569 2519 -288 
Q 2563 -116 2559 434 
Q 2191 0 1641 0 
Q 956 0 581 494 
Q 206 988 206 1678 
Q 206 2153 378 2554 
Q 550 2956 876 3175 
Q 1203 3394 1644 3394 
Q 2231 3394 2613 2919 
L 2613 3319 
L 3131 3319 
L 3131 450 
Q 3131 -325 2973 -648 
Q 2816 -972 2473 -1159 
Q 2131 -1347 1631 -1347 
Q 1038 -1347 672 -1080 
Q 306 -813 319 -275 
z
M 784 1719 
Q 784 1066 1043 766 
Q 1303 466 1694 466 
Q 2081 466 2343 764 
Q 2606 1063 2606 1700 
Q 2606 2309 2336 2618 
Q 2066 2928 1684 2928 
Q 1309 2928 1046 2623 
Q 784 2319 784 1719 
z
" transform="scale(0.015625)"/>
     </defs>
     <use xlink:href="#ArialMT-4c"/>
     <use xlink:href="#ArialMT-61" x="55.615234"/>
     <use xlink:href="#ArialMT-20" x="111.230469"/>
     <use xlink:href="#ArialMT-47" x="139.013672"/>
     <use xlink:href="#ArialMT-72" x="216.796875"/>
     <use xlink:href="#ArialMT-61" x="250.097656"/>
     <use xlink:href="#ArialMT-6e" x="305.712891"/>
     <use xlink:href="#ArialMT-67" x="361.328125"/>
     <use xlink:href="#ArialMT-65" x="416.943359"/>
    </g>
   </g>
  </g>
  <g id="axes_2">
   <g id="patch_7">
    <path d="M 218.821879 166.363434 
L 361.065781 166.363434 
L 361.065781 24.119531 
L 218.821879 24.119531 
z
" style="fill: #ffffff"/>
   </g>
   <g id="matplotlib.axis_3">
    <g id="xtick_4">
     <g id="line2d_14">
      <path d="M 245.813326 166.363434 
L 245.813326 24.119531 
" clip-path="url(#p283c4aac7a)" style="fill: none; stroke: #cccccc; stroke-linecap: round"/>
     </g>
     <g id="text_12">
      <!-- 20 -->
      <g style="fill: #262626" transform="translate(239.696295 177.737027)scale(0.11 -0.11)">
       <use xlink:href="#ArialMT-32"/>
       <use xlink:href="#ArialMT-30" x="55.615234"/>
      </g>
     </g>
    </g>
    <g id="xtick_5">
     <g id="line2d_15">
      <path d="M 286.864958 166.363434 
L 286.864958 24.119531 
" clip-path="url(#p283c4aac7a)" style="fill: none; stroke: #cccccc; stroke-linecap: round"/>
     </g>
     <g id="text_13">
      <!-- 40 -->
      <g style="fill: #262626" transform="translate(280.747926 177.737027)scale(0.11 -0.11)">
       <use xlink:href="#ArialMT-34"/>
       <use xlink:href="#ArialMT-30" x="55.615234"/>
      </g>
     </g>
    </g>
    <g id="xtick_6">
     <g id="line2d_16">
      <path d="M 327.916589 166.363434 
L 327.916589 24.119531 
" clip-path="url(#p283c4aac7a)" style="fill: none; stroke: #cccccc; stroke-linecap: round"/>
     </g>
     <g id="text_14">
      <!-- 60 -->
      <g style="fill: #262626" transform="translate(321.799558 177.737027)scale(0.11 -0.11)">
       <use xlink:href="#ArialMT-36"/>
       <use xlink:href="#ArialMT-30" x="55.615234"/>
      </g>
     </g>
    </g>
    <g id="text_15">
     <!-- Years -->
     <g style="fill: #262626" transform="translate(271.036799 194.659996)scale(0.15 -0.15)">
      <use xlink:href="#ArialMT-59"/>
      <use xlink:href="#ArialMT-65" x="57.574219"/>
      <use xlink:href="#ArialMT-61" x="113.189453"/>
      <use xlink:href="#ArialMT-72" x="168.804688"/>
      <use xlink:href="#ArialMT-73" x="202.105469"/>
     </g>
    </g>
   </g>
   <g id="matplotlib.axis_4">
    <g id="ytick_6">
     <g id="line2d_17">
      <path d="M 218.821879 148.557307 
L 361.065781 148.557307 
" clip-path="url(#p283c4aac7a)" style="fill: none; stroke: #cccccc; stroke-linecap: round"/>
     </g>
    </g>
    <g id="ytick_7">
     <g id="line2d_18">
      <path d="M 218.821879 120.288532 
L 361.065781 120.288532 
" clip-path="url(#p283c4aac7a)" style="fill: none; stroke: #cccccc; stroke-linecap: round"/>
     </g>
    </g>
    <g id="ytick_8">
     <g id="line2d_19">
      <path d="M 218.821879 92.019757 
L 361.065781 92.019757 
" clip-path="url(#p283c4aac7a)" style="fill: none; stroke: #cccccc; stroke-linecap: round"/>
     </g>
    </g>
    <g id="ytick_9">
     <g id="line2d_20">
      <path d="M 218.821879 63.750982 
L 361.065781 63.750982 
" clip-path="url(#p283c4aac7a)" style="fill: none; stroke: #cccccc; stroke-linecap: round"/>
     </g>
    </g>
    <g id="ytick_10">
     <g id="line2d_21">
      <path d="M 218.821879 35.482207 
L 361.065781 35.482207 
" clip-path="url(#p283c4aac7a)" style="fill: none; stroke: #cccccc; stroke-linecap: round"/>
     </g>
    </g>
   </g>
   <g id="line2d_22">
    <path d="M 225.287511 47.001473 
L 227.340092 41.773387 
L 229.392674 40.991291 
L 231.445255 43.694706 
L 233.497837 48.23285 
L 235.550419 53.054365 
L 237.603 57.162251 
L 239.655582 60.162358 
L 241.708163 62.085596 
L 243.760745 63.168632 
L 245.813326 63.690134 
L 247.865908 63.884589 
L 249.91849 63.915707 
L 251.971071 63.882195 
L 254.023653 63.835197 
L 256.076234 63.796109 
L 258.128816 63.770315 
L 260.181397 63.756143 
L 262.233979 63.749871 
L 264.28656 63.74805 
L 266.339142 63.748262 
L 268.391724 63.749108 
L 270.444305 63.749929 
L 272.496887 63.750508 
L 274.549468 63.75084 
L 276.60205 63.750992 
L 278.654631 63.75104 
L 280.707213 63.751039 
L 282.759795 63.751022 
L 284.812376 63.751005 
L 286.864958 63.750992 
L 288.917539 63.750985 
L 290.970121 63.750982 
L 293.022702 63.750981 
L 295.075284 63.750981 
L 297.127866 63.750981 
L 299.180447 63.750982 
L 301.233029 63.750982 
L 303.28561 63.750982 
L 305.338192 63.750982 
L 307.390773 63.750982 
L 309.443355 63.750982 
L 311.495936 63.750982 
L 313.548518 63.750982 
L 315.6011 63.750982 
L 317.653681 63.750982 
L 319.706263 63.750982 
L 321.758844 63.750982 
L 323.811426 63.750982 
L 325.864007 63.750982 
L 327.916589 63.750982 
L 329.969171 63.750982 
L 332.021752 63.750982 
L 334.074334 63.750982 
L 336.126915 63.750982 
L 338.179497 63.750982 
L 340.232078 63.750982 
L 342.28466 63.750982 
L 344.337241 63.750982 
L 346.389823 63.750982 
L 348.442405 63.750982 
L 350.494986 63.750982 
L 352.547568 63.750982 
L 354.600149 63.750982 
" clip-path="url(#p283c4aac7a)" style="fill: none; stroke: #482475; stroke-width: 1.5; stroke-linecap: round"/>
   </g>
   <g id="line2d_23">
    <path d="M 225.287511 52.697279 
L 227.340092 41.404805 
L 229.392674 34.515343 
L 231.445255 32.378257 
L 233.497837 34.329314 
L 235.550419 38.915431 
L 237.603 44.541049 
L 239.655582 49.96194 
L 241.708163 54.474306 
L 243.760745 57.854573 
L 245.813326 60.187037 
L 247.865908 61.692267 
L 249.91849 62.610354 
L 251.971071 63.143458 
L 254.023653 63.439585 
L 256.076234 63.597397 
L 258.128816 63.678193 
L 260.181397 63.717931 
L 262.233979 63.73668 
L 264.28656 63.745138 
L 266.339142 63.748765 
L 268.391724 63.750228 
L 270.444305 63.750772 
L 272.496887 63.750951 
L 274.549468 63.750997 
L 276.60205 63.751001 
L 278.654631 63.750995 
L 280.707213 63.750989 
L 282.759795 63.750986 
L 284.812376 63.750984 
L 286.864958 63.750983 
L 288.917539 63.750982 
L 290.970121 63.750982 
L 293.022702 63.750982 
L 295.075284 63.750982 
L 297.127866 63.750982 
L 299.180447 63.750982 
L 301.233029 63.750982 
L 303.28561 63.750982 
L 305.338192 63.750982 
L 307.390773 63.750982 
L 309.443355 63.750982 
L 311.495936 63.750982 
L 313.548518 63.750982 
L 315.6011 63.750982 
L 317.653681 63.750982 
L 319.706263 63.750982 
L 321.758844 63.750982 
L 323.811426 63.750982 
L 325.864007 63.750982 
L 327.916589 63.750982 
L 329.969171 63.750982 
L 332.021752 63.750982 
L 334.074334 63.750982 
L 336.126915 63.750982 
L 338.179497 63.750982 
L 340.232078 63.750982 
L 342.28466 63.750982 
L 344.337241 63.750982 
L 346.389823 63.750982 
L 348.442405 63.750982 
L 350.494986 63.750982 
L 352.547568 63.750982 
L 354.600149 63.750982 
" clip-path="url(#p283c4aac7a)" style="fill: none; stroke: #355f8d; stroke-width: 1.5; stroke-linecap: round"/>
   </g>
   <g id="line2d_24">
    <path d="M 225.287511 78.146662 
L 227.340092 63.749456 
L 229.392674 51.037738 
L 231.445255 40.899061 
L 233.497837 34.100109 
L 235.550419 30.798189 
L 237.603 30.585163 
L 239.655582 32.710598 
L 241.708163 36.298807 
L 243.760745 40.542241 
L 245.813326 44.823636 
L 247.865908 48.75087 
L 249.91849 52.129041 
L 251.971071 54.905034 
L 254.023653 57.111258 
L 256.076234 58.821744 
L 258.128816 60.123422 
L 260.181397 61.10005 
L 262.233979 61.824807 
L 264.28656 62.358033 
L 266.339142 62.747645 
L 268.391724 63.030727 
L 270.444305 63.235451 
L 272.496887 63.382926 
L 274.549468 63.488805 
L 276.60205 63.564601 
L 278.654631 63.618722 
L 280.707213 63.65728 
L 282.759795 63.684696 
L 284.812376 63.704153 
L 286.864958 63.71794 
L 288.917539 63.727694 
L 290.970121 63.734586 
L 293.022702 63.73945 
L 295.075284 63.742878 
L 297.127866 63.745292 
L 299.180447 63.74699 
L 301.233029 63.748183 
L 303.28561 63.749021 
L 305.338192 63.749609 
L 307.390773 63.750022 
L 309.443355 63.75031 
L 311.495936 63.750513 
L 313.548518 63.750654 
L 315.6011 63.750753 
L 317.653681 63.750822 
L 319.706263 63.750871 
L 321.758844 63.750904 
L 323.811426 63.750928 
L 325.864007 63.750944 
L 327.916589 63.750956 
L 329.969171 63.750964 
L 332.021752 63.750969 
L 334.074334 63.750973 
L 336.126915 63.750976 
L 338.179497 63.750978 
L 340.232078 63.750979 
L 342.28466 63.75098 
L 344.337241 63.750981 
L 346.389823 63.750981 
L 348.442405 63.750981 
L 350.494986 63.750982 
L 352.547568 63.750982 
L 354.600149 63.750982 
" clip-path="url(#p283c4aac7a)" style="fill: none; stroke: #21918c; stroke-width: 1.5; stroke-linecap: round"/>
   </g>
   <g id="line2d_25">
    <path d="M 225.287511 119.801456 
L 227.340092 109.251538 
L 229.392674 98.497195 
L 231.445255 87.781359 
L 233.497837 77.543528 
L 235.550419 68.128854 
L 237.603 59.786718 
L 239.655582 52.724025 
L 241.708163 47.066834 
L 243.760745 42.837985 
L 245.813326 39.97274 
L 247.865908 38.339796 
L 249.91849 37.762115 
L 251.971071 38.039748 
L 254.023653 38.97079 
L 256.076234 40.367068 
L 258.128816 42.064041 
L 260.181397 43.925588 
L 262.233979 45.844786 
L 264.28656 47.74191 
L 266.339142 49.560896 
L 268.391724 51.265159 
L 270.444305 52.833435 
L 272.496887 54.256001 
L 274.549468 55.531466 
L 276.60205 56.664163 
L 278.654631 57.66212 
L 280.707213 58.535534 
L 282.759795 59.29566 
L 284.812376 59.954028 
L 286.864958 60.521919 
L 288.917539 61.010027 
L 290.970121 61.428264 
L 293.022702 61.785663 
L 295.075284 62.090345 
L 297.127866 62.349537 
L 299.180447 62.569615 
L 301.233029 62.756166 
L 303.28561 62.914058 
L 305.338192 63.04751 
L 307.390773 63.160164 
L 309.443355 63.255152 
L 311.495936 63.335162 
L 313.548518 63.402489 
L 315.6011 63.459095 
L 317.653681 63.506647 
L 319.706263 63.546562 
L 321.758844 63.580044 
L 323.811426 63.608111 
L 325.864007 63.631623 
L 327.916589 63.651309 
L 329.969171 63.667782 
L 332.021752 63.681559 
L 334.074334 63.693076 
L 336.126915 63.702699 
L 338.179497 63.710736 
L 340.232078 63.717446 
L 342.28466 63.723046 
L 344.337241 63.727717 
L 346.389823 63.731613 
L 348.442405 63.73486 
L 350.494986 63.737566 
L 352.547568 63.739821 
L 354.600149 63.741699 
" clip-path="url(#p283c4aac7a)" style="fill: none; stroke: #44bf70; stroke-width: 1.5; stroke-linecap: round"/>
   </g>
   <g id="line2d_26">
    <path d="M 225.287511 159.897802 
L 227.340092 155.87441 
L 229.392674 151.728166 
L 231.445255 147.516412 
L 233.497837 143.278643 
L 235.550419 139.020995 
L 237.603 134.752326 
L 239.655582 130.496002 
L 241.708163 126.27333 
L 243.760745 122.100232 
L 245.813326 117.992991 
L 247.865908 113.968324 
L 249.91849 110.041325 
L 251.971071 106.225456 
L 254.023653 102.532925 
L 256.076234 98.974489 
L 258.128816 95.559263 
L 260.181397 92.294736 
L 262.233979 89.186797 
L 264.28656 86.239753 
L 266.339142 83.456381 
L 268.391724 80.838008 
L 270.444305 78.384614 
L 272.496887 76.094938 
L 274.549468 73.9666 
L 276.60205 71.996229 
L 278.654631 70.179596 
L 280.707213 68.511737 
L 282.759795 66.987089 
L 284.812376 65.599602 
L 286.864958 64.342859 
L 288.917539 63.210181 
L 290.970121 62.19472 
L 293.022702 61.289548 
L 295.075284 60.487734 
L 297.127866 59.782409 
L 299.180447 59.166822 
L 301.233029 58.63439 
L 303.28561 58.178735 
L 305.338192 57.793716 
L 307.390773 57.473451 
L 309.443355 57.212337 
L 311.495936 57.005063 
L 313.548518 56.84661 
L 315.6011 56.732262 
L 317.653681 56.657599 
L 319.706263 56.618496 
L 321.758844 56.611115 
L 323.811426 56.631897 
L 325.864007 56.677552 
L 327.916589 56.745048 
L 329.969171 56.831598 
L 332.021752 56.934649 
L 334.074334 57.051868 
L 336.126915 57.18113 
L 338.179497 57.320501 
L 340.232078 57.468233 
L 342.28466 57.622745 
L 344.337241 57.782613 
L 346.389823 57.946558 
L 348.442405 58.113438 
L 350.494986 58.282231 
L 352.547568 58.452033 
L 354.600149 58.622041 
" clip-path="url(#p283c4aac7a)" style="fill: none; stroke: #bddf26; stroke-width: 1.5; stroke-linecap: round"/>
   </g>
   <g id="patch_8">
    <path d="M 218.821879 166.363434 
L 218.821879 24.119531 
" style="fill: none; stroke: #cccccc; stroke-linejoin: miter; stroke-linecap: square"/>
   </g>
   <g id="patch_9">
    <path d="M 361.065781 166.363434 
L 361.065781 24.119531 
" style="fill: none; stroke: #cccccc; stroke-linejoin: miter; stroke-linecap: square"/>
   </g>
   <g id="patch_10">
    <path d="M 218.821879 166.363434 
L 361.065781 166.363434 
" style="fill: none; stroke: #cccccc; stroke-linejoin: miter; stroke-linecap: square"/>
   </g>
   <g id="patch_11">
    <path d="M 218.821879 24.119531 
L 361.065781 24.119531 
" style="fill: none; stroke: #cccccc; stroke-linejoin: miter; stroke-linecap: square"/>
   </g>
   <g id="text_16">
    <!-- Peoria -->
    <g style="fill: #262626" transform="translate(268.265314 18.119531)scale(0.15 -0.15)">
     <defs>
      <path id="ArialMT-50" d="M 494 0 
L 494 4581 
L 2222 4581 
Q 2678 4581 2919 4538 
Q 3256 4481 3484 4323 
Q 3713 4166 3852 3881 
Q 3991 3597 3991 3256 
Q 3991 2672 3619 2267 
Q 3247 1863 2275 1863 
L 1100 1863 
L 1100 0 
L 494 0 
z
M 1100 2403 
L 2284 2403 
Q 2872 2403 3119 2622 
Q 3366 2841 3366 3238 
Q 3366 3525 3220 3729 
Q 3075 3934 2838 4000 
Q 2684 4041 2272 4041 
L 1100 4041 
L 1100 2403 
z
" transform="scale(0.015625)"/>
     </defs>
     <use xlink:href="#ArialMT-50"/>
     <use xlink:href="#ArialMT-65" x="66.699219"/>
     <use xlink:href="#ArialMT-6f" x="122.314453"/>
     <use xlink:href="#ArialMT-72" x="177.929688"/>
     <use xlink:href="#ArialMT-69" x="211.230469"/>
     <use xlink:href="#ArialMT-61" x="233.447266"/>
    </g>
   </g>
  </g>
  <g id="legend_1">
   <g id="patch_12">
    <path d="M 387.914687 151.20742 
L 441.465781 151.20742 
Q 443.665781 151.20742 443.665781 149.00742 
L 443.665781 55.833826 
Q 443.665781 53.633826 441.465781 53.633826 
L 387.914687 53.633826 
Q 385.714687 53.633826 385.714687 55.833826 
L 385.714687 149.00742 
Q 385.714687 151.20742 387.914687 151.20742 
z
" style="fill: #ffffff; opacity: 0.8; stroke: #cccccc; stroke-linejoin: miter"/>
   </g>
   <g id="text_17">
    <!-- $\alpha_s$ -->
    <g style="fill: #262626" transform="translate(408.330234 66.623201)scale(0.12 -0.12)">
     <defs>
      <path id="DejaVuSans-Oblique-3b1" d="M 2619 1628 
L 2622 2350 
Q 2625 3088 2069 3091 
Q 1653 3094 1394 2747 
Q 1069 2319 959 1747 
Q 825 1059 994 731 
Q 1169 397 1547 397 
Q 1966 397 2319 1063 
L 2619 1628 
z
M 2166 3578 
Q 3141 3594 3128 2584 
Q 3128 2584 3616 3500 
L 4128 3500 
L 3119 1603 
L 3109 919 
Q 3109 766 3194 638 
Q 3291 488 3391 488 
L 3669 488 
L 3575 0 
L 3228 0 
Q 2934 0 2722 263 
Q 2622 394 2619 669 
Q 2416 334 2066 50 
Q 1900 -81 1453 -78 
Q 722 -72 456 397 
Q 184 884 353 1747 
Q 534 2675 1009 3097 
Q 1544 3569 2166 3578 
z
" transform="scale(0.015625)"/>
      <path id="DejaVuSans-Oblique-73" d="M 3200 3397 
L 3091 2853 
Q 2863 2978 2609 3040 
Q 2356 3103 2088 3103 
Q 1634 3103 1373 2948 
Q 1113 2794 1113 2528 
Q 1113 2219 1719 2053 
Q 1766 2041 1788 2034 
L 1972 1978 
Q 2547 1819 2739 1644 
Q 2931 1469 2931 1166 
Q 2931 609 2489 259 
Q 2047 -91 1331 -91 
Q 1053 -91 747 -37 
Q 441 16 72 128 
L 184 722 
Q 500 559 806 475 
Q 1113 391 1394 391 
Q 1816 391 2080 572 
Q 2344 753 2344 1031 
Q 2344 1331 1650 1516 
L 1591 1531 
L 1394 1581 
Q 956 1697 753 1886 
Q 550 2075 550 2369 
Q 550 2928 970 3256 
Q 1391 3584 2113 3584 
Q 2397 3584 2667 3537 
Q 2938 3491 3200 3397 
z
" transform="scale(0.015625)"/>
     </defs>
     <use xlink:href="#DejaVuSans-Oblique-3b1" transform="translate(0 0.84375)"/>
     <use xlink:href="#DejaVuSans-Oblique-73" transform="translate(65.917969 -15.5625)scale(0.7)"/>
    </g>
   </g>
   <g id="line2d_27">
    <path d="M 390.114687 78.531795 
L 401.114687 78.531795 
L 412.114687 78.531795 
" style="fill: none; stroke: #482475; stroke-width: 1.5; stroke-linecap: round"/>
   </g>
   <g id="text_18">
    <!-- 350 -->
    <g style="fill: #262626" transform="translate(420.914687 82.381795)scale(0.11 -0.11)">
     <defs>
      <path id="ArialMT-33" d="M 269 1209 
L 831 1284 
Q 928 806 1161 595 
Q 1394 384 1728 384 
Q 2125 384 2398 659 
Q 2672 934 2672 1341 
Q 2672 1728 2419 1979 
Q 2166 2231 1775 2231 
Q 1616 2231 1378 2169 
L 1441 2663 
Q 1497 2656 1531 2656 
Q 1891 2656 2178 2843 
Q 2466 3031 2466 3422 
Q 2466 3731 2256 3934 
Q 2047 4138 1716 4138 
Q 1388 4138 1169 3931 
Q 950 3725 888 3313 
L 325 3413 
Q 428 3978 793 4289 
Q 1159 4600 1703 4600 
Q 2078 4600 2393 4439 
Q 2709 4278 2876 4000 
Q 3044 3722 3044 3409 
Q 3044 3113 2884 2869 
Q 2725 2625 2413 2481 
Q 2819 2388 3044 2092 
Q 3269 1797 3269 1353 
Q 3269 753 2831 336 
Q 2394 -81 1725 -81 
Q 1122 -81 723 278 
Q 325 638 269 1209 
z
" transform="scale(0.015625)"/>
     </defs>
     <use xlink:href="#ArialMT-33"/>
     <use xlink:href="#ArialMT-35" x="55.615234"/>
     <use xlink:href="#ArialMT-30" x="111.230469"/>
    </g>
   </g>
   <g id="line2d_28">
    <path d="M 390.114687 94.091639 
L 401.114687 94.091639 
L 412.114687 94.091639 
" style="fill: none; stroke: #355f8d; stroke-width: 1.5; stroke-linecap: round"/>
   </g>
   <g id="text_19">
    <!-- 400 -->
    <g style="fill: #262626" transform="translate(420.914687 97.941639)scale(0.11 -0.11)">
     <use xlink:href="#ArialMT-34"/>
     <use xlink:href="#ArialMT-30" x="55.615234"/>
     <use xlink:href="#ArialMT-30" x="111.230469"/>
    </g>
   </g>
   <g id="line2d_29">
    <path d="M 390.114687 109.651482 
L 401.114687 109.651482 
L 412.114687 109.651482 
" style="fill: none; stroke: #21918c; stroke-width: 1.5; stroke-linecap: round"/>
   </g>
   <g id="text_20">
    <!-- 450 -->
    <g style="fill: #262626" transform="translate(420.914687 113.501482)scale(0.11 -0.11)">
     <use xlink:href="#ArialMT-34"/>
     <use xlink:href="#ArialMT-35" x="55.615234"/>
     <use xlink:href="#ArialMT-30" x="111.230469"/>
    </g>
   </g>
   <g id="line2d_30">
    <path d="M 390.114687 125.211326 
L 401.114687 125.211326 
L 412.114687 125.211326 
" style="fill: none; stroke: #44bf70; stroke-width: 1.5; stroke-linecap: round"/>
   </g>
   <g id="text_21">
    <!-- 500 -->
    <g style="fill: #262626" transform="translate(420.914687 129.061326)scale(0.11 -0.11)">
     <use xlink:href="#ArialMT-35"/>
     <use xlink:href="#ArialMT-30" x="55.615234"/>
     <use xlink:href="#ArialMT-30" x="111.230469"/>
    </g>
   </g>
   <g id="line2d_31">
    <path d="M 390.114687 140.77117 
L 401.114687 140.77117 
L 412.114687 140.77117 
" style="fill: none; stroke: #bddf26; stroke-width: 1.5; stroke-linecap: round"/>
   </g>
   <g id="text_22">
    <!-- 550 -->
    <g style="fill: #262626" transform="translate(420.914687 144.62117)scale(0.11 -0.11)">
     <use xlink:href="#ArialMT-35"/>
     <use xlink:href="#ArialMT-35" x="55.615234"/>
     <use xlink:href="#ArialMT-30" x="111.230469"/>
    </g>
   </g>
  </g>
 </g>
 <defs>
  <clipPath id="p96f477cafa">
   <rect x="69.465781" y="24.119531" width="142.243902" height="142.243902"/>
  </clipPath>
  <clipPath id="p283c4aac7a">
   <rect x="218.821879" y="24.119531" width="142.243902" height="142.243902"/>
  </clipPath>
 </defs>
</svg>
